  0
SECTION
  2
HEADER
  9
$ACADVER
  1
AC1009
  0
ENDSEC
  0
SECTION
  2
ENTITIES
  0
POLYLINE
  5
90
  8
Layer_0
  62
0
  70
1
  66
1
  10
0
  20
0
  30
0
  0
VERTEX
  5
90
  8
Layer_0
  10
324.83417
  20
283.10013
  0
VERTEX
  5
91
  8
Layer_0
  10
325.09668
  20
282.90573
  0
VERTEX
  5
92
  8
Layer_0
  10
325.39801
  20
282.79834
  0
VERTEX
  5
93
  8
Layer_0
  10
325.71741
  20
282.7821
  0
VERTEX
  5
94
  8
Layer_0
  10
326.03424
  20
282.86115
  0
VERTEX
  5
95
  8
Layer_0
  10
326.31409
  20
283.0296
  0
VERTEX
  5
96
  8
Layer_0
  10
326.5285
  20
283.26721
  0
VERTEX
  5
97
  8
Layer_0
  10
326.66571
  20
283.55643
  0
VERTEX
  5
98
  8
Layer_0
  10
326.71405
  20
283.8797
  0
VERTEX
  5
99
  8
Layer_0
  10
326.69781
  20
284.06952
  0
VERTEX
  5
9a
  8
Layer_0
  10
326.64954
  20
284.25232
  0
VERTEX
  5
9b
  8
Layer_0
  10
326.57062
  20
284.42413
  0
VERTEX
  5
9c
  8
Layer_0
  10
326.46259
  20
284.58093
  0
VERTEX
  5
9d
  8
Layer_0
  10
326.2879
  20
284.75098
  0
VERTEX
  5
9e
  8
Layer_0
  10
326.0827
  20
284.87704
  0
VERTEX
  5
9f
  8
Layer_0
  10
325.85501
  20
284.95538
  0
VERTEX
  5
a0
  8
Layer_0
  10
325.61285
  20
284.98215
  0
VERTEX
  5
a1
  8
Layer_0
  10
325.57123
  20
284.98135
  0
VERTEX
  5
a2
  8
Layer_0
  10
325.2605
  20
284.92426
  0
VERTEX
  5
a3
  8
Layer_0
  10
324.98383
  20
284.78461
  0
VERTEX
  5
a4
  8
Layer_0
  10
324.75696
  20
284.57339
  0
VERTEX
  5
a5
  8
Layer_0
  10
324.59546
  20
284.30157
  0
VERTEX
  5
a6
  8
Layer_0
  10
324.58026
  20
284.26279
  0
VERTEX
  5
a7
  8
Layer_0
  10
324.51401
  20
283.95355
  0
VERTEX
  5
a8
  8
Layer_0
  10
324.53699
  20
283.64423
  0
VERTEX
  5
a9
  8
Layer_0
  10
324.64508
  20
283.35349
  0
VERTEX
  5
aa
  8
Layer_0
  10
324.83417
  20
283.10013
  0
SEQEND
  0
POLYLINE
  5
ac
  8
Layer_0
  62
0
  70
1
  66
1
  10
0
  20
0
  30
0
  0
VERTEX
  5
ac
  8
Layer_0
  10
386.88794
  20
216.20016
  0
VERTEX
  5
ad
  8
Layer_0
  10
386.9162
  20
216.15533
  0
VERTEX
  5
ae
  8
Layer_0
  10
386.94724
  20
216.08582
  0
VERTEX
  5
af
  8
Layer_0
  10
386.98346
  20
215.99466
  0
VERTEX
  5
b0
  8
Layer_0
  10
387.00436
  20
215.94836
  0
VERTEX
  5
b1
  8
Layer_0
  10
387.02136
  20
215.9165
  0
VERTEX
  5
b2
  8
Layer_0
  10
387.04413
  20
215.89206
  0
VERTEX
  5
b3
  8
Layer_0
  10
387.05362
  20
215.81757
  0
VERTEX
  5
b4
  8
Layer_0
  10
387.06592
  20
215.7724
  0
VERTEX
  5
b5
  8
Layer_0
  10
387.07672
  20
215.74176
  0
VERTEX
  5
b6
  8
Layer_0
  10
387.08105
  20
215.71713
  0
VERTEX
  5
b7
  8
Layer_0
  10
387.08142
  20
215.68604
  0
VERTEX
  5
b8
  8
Layer_0
  10
387.07779
  20
215.64246
  0
VERTEX
  5
b9
  8
Layer_0
  10
387.05054
  20
215.42938
  0
VERTEX
  5
ba
  8
Layer_0
  10
387.3363
  20
215.05408
  0
VERTEX
  5
bb
  8
Layer_0
  10
387.35034
  20
215.05408
  0
VERTEX
  5
bc
  8
Layer_0
  10
387.38223
  20
215.06091
  0
VERTEX
  5
bd
  8
Layer_0
  10
387.47568
  20
215.08777
  0
VERTEX
  5
be
  8
Layer_0
  10
387.56876
  20
215.11966
  0
VERTEX
  5
bf
  8
Layer_0
  10
387.60016
  20
215.13284
  0
VERTEX
  5
c0
  8
Layer_0
  10
387.612
  20
215.1398
  0
VERTEX
  5
c1
  8
Layer_0
  10
387.63272
  20
215.16541
  0
VERTEX
  5
c2
  8
Layer_0
  10
387.65747
  20
215.2063
  0
VERTEX
  5
c3
  8
Layer_0
  10
387.68246
  20
215.2547
  0
VERTEX
  5
c4
  8
Layer_0
  10
387.70395
  20
215.30301
  0
VERTEX
  5
c5
  8
Layer_0
  10
387.71814
  20
215.34348
  0
VERTEX
  5
c6
  8
Layer_0
  10
387.72174
  20
215.36395
  0
VERTEX
  5
c7
  8
Layer_0
  10
387.72989
  20
215.39233
  0
VERTEX
  5
c8
  8
Layer_0
  10
387.74927
  20
215.40607
  0
VERTEX
  5
c9
  8
Layer_0
  10
387.77222
  20
215.40051
  0
VERTEX
  5
ca
  8
Layer_0
  10
387.77625
  20
215.39697
  0
VERTEX
  5
cb
  8
Layer_0
  10
387.78433
  20
215.37878
  0
VERTEX
  5
cc
  8
Layer_0
  10
387.76611
  20
215.33008
  0
VERTEX
  5
cd
  8
Layer_0
  10
387.76056
  20
215.28967
  0
VERTEX
  5
ce
  8
Layer_0
  10
387.75983
  20
215.26965
  0
VERTEX
  5
cf
  8
Layer_0
  10
387.76355
  20
215.22583
  0
VERTEX
  5
d0
  8
Layer_0
  10
387.77631
  20
215.20184
  0
VERTEX
  5
d1
  8
Layer_0
  10
387.80035
  20
215.19727
  0
VERTEX
  5
d2
  8
Layer_0
  10
387.83795
  20
215.21152
  0
VERTEX
  5
d3
  8
Layer_0
  10
387.93317
  20
215.27151
  0
VERTEX
  5
d4
  8
Layer_0
  10
387.96161
  20
215.28751
  0
VERTEX
  5
d5
  8
Layer_0
  10
387.97839
  20
215.29166
  0
VERTEX
  5
d6
  8
Layer_0
  10
387.98798
  20
215.28531
  0
VERTEX
  5
d7
  8
Layer_0
  10
387.99347
  20
215.2738
  0
VERTEX
  5
d8
  8
Layer_0
  10
387.99524
  20
215.24597
  0
VERTEX
  5
d9
  8
Layer_0
  10
387.97595
  20
215.23175
  0
VERTEX
  5
da
  8
Layer_0
  10
387.96332
  20
215.2305
  0
VERTEX
  5
db
  8
Layer_0
  10
387.94086
  20
215.2204
  0
VERTEX
  5
dc
  8
Layer_0
  10
387.91345
  20
215.19519
  0
VERTEX
  5
dd
  8
Layer_0
  10
387.88733
  20
215.1626
  0
VERTEX
  5
de
  8
Layer_0
  10
387.86874
  20
215.1304
  0
VERTEX
  5
df
  8
Layer_0
  10
387.8638
  20
215.10693
  0
VERTEX
  5
e0
  8
Layer_0
  10
387.8772
  20
215.08826
  0
VERTEX
  5
e1
  8
Layer_0
  10
387.9054
  20
215.06812
  0
VERTEX
  5
e2
  8
Layer_0
  10
387.94
  20
215.05072
  0
VERTEX
  5
e3
  8
Layer_0
  10
387.9726
  20
215.04016
  0
VERTEX
  5
e4
  8
Layer_0
  10
387.99469
  20
215.04059
  0
VERTEX
  5
e5
  8
Layer_0
  10
388.01819
  20
215.04745
  0
VERTEX
  5
e6
  8
Layer_0
  10
388.04089
  20
215.03998
  0
VERTEX
  5
e7
  8
Layer_0
  10
388.05173
  20
215.02277
  0
VERTEX
  5
e8
  8
Layer_0
  10
388.04337
  20
214.99292
  0
VERTEX
  5
e9
  8
Layer_0
  10
388.02234
  20
214.98248
  0
VERTEX
  5
ea
  8
Layer_0
  10
387.97156
  20
214.99805
  0
VERTEX
  5
eb
  8
Layer_0
  10
387.93079
  20
215.00226
  0
VERTEX
  5
ec
  8
Layer_0
  10
387.88965
  20
215.00073
  0
VERTEX
  5
ed
  8
Layer_0
  10
387.85669
  20
214.99384
  0
VERTEX
  5
ee
  8
Layer_0
  10
387.84027
  20
214.98196
  0
VERTEX
  5
ef
  8
Layer_0
  10
387.84445
  20
214.96268
  0
VERTEX
  5
f0
  8
Layer_0
  10
387.86261
  20
214.93445
  0
VERTEX
  5
f1
  8
Layer_0
  10
387.88876
  20
214.90405
  0
VERTEX
  5
f2
  8
Layer_0
  10
387.91687
  20
214.87811
  0
VERTEX
  5
f3
  8
Layer_0
  10
387.94098
  20
214.86346
  0
VERTEX
  5
f4
  8
Layer_0
  10
387.94745
  20
214.86218
  0
VERTEX
  5
f5
  8
Layer_0
  10
387.96014
  20
214.85342
  0
VERTEX
  5
f6
  8
Layer_0
  10
387.96057
  20
214.83368
  0
VERTEX
  5
f7
  8
Layer_0
  10
387.95108
  20
214.81287
  0
VERTEX
  5
f8
  8
Layer_0
  10
387.93353
  20
214.8009
  0
VERTEX
  5
f9
  8
Layer_0
  10
387.91135
  20
214.80716
  0
VERTEX
  5
fa
  8
Layer_0
  10
387.90393
  20
214.82141
  0
VERTEX
  5
fb
  8
Layer_0
  10
387.88977
  20
214.83771
  0
VERTEX
  5
fc
  8
Layer_0
  10
387.85791
  20
214.85983
  0
VERTEX
  5
fd
  8
Layer_0
  10
387.81439
  20
214.88474
  0
VERTEX
  5
fe
  8
Layer_0
  10
387.76526
  20
214.90936
  0
VERTEX
  5
ff
  8
Layer_0
  10
387.71658
  20
214.93073
  0
VERTEX
  5
100
  8
Layer_0
  10
387.67444
  20
214.94568
  0
VERTEX
  5
101
  8
Layer_0
  10
387.64532
  20
214.95126
  0
VERTEX
  5
102
  8
Layer_0
  10
387.62167
  20
214.94946
  0
VERTEX
  5
103
  8
Layer_0
  10
387.27197
  20
214.9028
  0
VERTEX
  5
104
  8
Layer_0
  10
387.24719
  20
214.90173
  0
VERTEX
  5
105
  8
Layer_0
  10
387.06638
  20
215.18597
  0
VERTEX
  5
106
  8
Layer_0
  10
387.05334
  20
215.20135
  0
VERTEX
  5
107
  8
Layer_0
  10
387.05383
  20
215.15265
  0
VERTEX
  5
108
  8
Layer_0
  10
387.08893
  20
214.55106
  0
VERTEX
  5
109
  8
Layer_0
  10
386.96088
  20
214.3053
  0
VERTEX
  5
10a
  8
Layer_0
  10
386.89169
  20
214.16736
  0
VERTEX
  5
10b
  8
Layer_0
  10
386.84894
  20
214.07184
  0
VERTEX
  5
10c
  8
Layer_0
  10
386.84143
  20
214.04858
  0
VERTEX
  5
10d
  8
Layer_0
  10
386.84155
  20
214.04495
  0
VERTEX
  5
10e
  8
Layer_0
  10
387.19177
  20
213.55481
  0
VERTEX
  5
10f
  8
Layer_0
  10
387.1828
  20
213.54462
  0
VERTEX
  5
110
  8
Layer_0
  10
387.11462
  20
213.48874
  0
VERTEX
  5
111
  8
Layer_0
  10
386.79193
  20
213.24677
  0
VERTEX
  5
112
  8
Layer_0
  10
386.73413
  20
213.2002
  0
VERTEX
  5
113
  8
Layer_0
  10
386.74139
  20
213.18692
  0
VERTEX
  5
114
  8
Layer_0
  10
386.76511
  20
213.16565
  0
VERTEX
  5
115
  8
Layer_0
  10
386.79938
  20
213.14044
  0
VERTEX
  5
116
  8
Layer_0
  10
386.83841
  20
213.11539
  0
VERTEX
  5
117
  8
Layer_0
  10
386.87622
  20
213.09454
  0
VERTEX
  5
118
  8
Layer_0
  10
386.90259
  20
213.08337
  0
VERTEX
  5
119
  8
Layer_0
  10
386.94846
  20
213.07428
  0
VERTEX
  5
11a
  8
Layer_0
  10
387.01453
  20
213.06989
  0
VERTEX
  5
11b
  8
Layer_0
  10
387.08038
  20
213.07004
  0
VERTEX
  5
11c
  8
Layer_0
  10
387.14154
  20
213.07248
  0
VERTEX
  5
11d
  8
Layer_0
  10
387.18292
  20
213.07657
  0
VERTEX
  5
11e
  8
Layer_0
  10
387.21008
  20
213.08331
  0
VERTEX
  5
11f
  8
Layer_0
  10
387.2287
  20
213.09375
  0
VERTEX
  5
120
  8
Layer_0
  10
387.25494
  20
213.11517
  0
VERTEX
  5
121
  8
Layer_0
  10
387.2692
  20
213.1142
  0
VERTEX
  5
122
  8
Layer_0
  10
387.28271
  20
213.10233
  0
VERTEX
  5
123
  8
Layer_0
  10
387.29672
  20
213.07867
  0
VERTEX
  5
124
  8
Layer_0
  10
387.297
  20
213.0625
  0
VERTEX
  5
125
  8
Layer_0
  10
387.28992
  20
213.0387
  0
VERTEX
  5
126
  8
Layer_0
  10
387.27887
  20
213.035
  0
VERTEX
  5
127
  8
Layer_0
  10
387.2514
  20
213.03339
  0
VERTEX
  5
128
  8
Layer_0
  10
387.21808
  20
213.02765
  0
VERTEX
  5
129
  8
Layer_0
  10
387.17499
  20
213.01285
  0
VERTEX
  5
12a
  8
Layer_0
  10
387.14902
  20
213.00104
  0
VERTEX
  5
12b
  8
Layer_0
  10
387.11215
  20
212.98065
  0
VERTEX
  5
12c
  8
Layer_0
  10
387.09369
  20
212.96417
  0
VERTEX
  5
12d
  8
Layer_0
  10
387.08844
  20
212.94586
  0
VERTEX
  5
12e
  8
Layer_0
  10
387.08911
  20
212.93481
  0
VERTEX
  5
12f
  8
Layer_0
  10
387.09729
  20
212.91159
  0
VERTEX
  5
130
  8
Layer_0
  10
387.11908
  20
212.88953
  0
VERTEX
  5
131
  8
Layer_0
  10
387.15936
  20
212.8638
  0
VERTEX
  5
132
  8
Layer_0
  10
387.20703
  20
212.83859
  0
VERTEX
  5
133
  8
Layer_0
  10
387.24579
  20
212.82086
  0
VERTEX
  5
134
  8
Layer_0
  10
387.26752
  20
212.81314
  0
VERTEX
  5
135
  8
Layer_0
  10
387.29773
  20
212.797
  0
VERTEX
  5
136
  8
Layer_0
  10
387.31012
  20
212.77225
  0
VERTEX
  5
137
  8
Layer_0
  10
387.30127
  20
212.74603
  0
VERTEX
  5
138
  8
Layer_0
  10
387.27637
  20
212.73035
  0
VERTEX
  5
139
  8
Layer_0
  10
387.25021
  20
212.73285
  0
VERTEX
  5
13a
  8
Layer_0
  10
387.22107
  20
212.76822
  0
VERTEX
  5
13b
  8
Layer_0
  10
387.19287
  20
212.7807
  0
VERTEX
  5
13c
  8
Layer_0
  10
387.14398
  20
212.79208
  0
VERTEX
  5
13d
  8
Layer_0
  10
387.09784
  20
212.80011
  0
VERTEX
  5
13e
  8
Layer_0
  10
387.07077
  20
212.80194
  0
VERTEX
  5
13f
  8
Layer_0
  10
387.05478
  20
212.79718
  0
VERTEX
  5
140
  8
Layer_0
  10
387.04297
  20
212.78534
  0
VERTEX
  5
141
  8
Layer_0
  10
387.03003
  20
212.76465
  0
VERTEX
  5
142
  8
Layer_0
  10
387.02472
  20
212.74237
  0
VERTEX
  5
143
  8
Layer_0
  10
387.02539
  20
212.70981
  0
VERTEX
  5
144
  8
Layer_0
  10
387.03116
  20
212.66162
  0
VERTEX
  5
145
  8
Layer_0
  10
387.04034
  20
212.621
  0
VERTEX
  5
146
  8
Layer_0
  10
387.05505
  20
212.60089
  0
VERTEX
  5
147
  8
Layer_0
  10
387.07928
  20
212.58789
  0
VERTEX
  5
148
  8
Layer_0
  10
387.07782
  20
212.56714
  0
VERTEX
  5
149
  8
Layer_0
  10
387.07587
  20
212.56152
  0
VERTEX
  5
14a
  8
Layer_0
  10
387.05713
  20
212.53448
  0
VERTEX
  5
14b
  8
Layer_0
  10
387.0332
  20
212.5271
  0
VERTEX
  5
14c
  8
Layer_0
  10
387.01172
  20
212.53964
  0
VERTEX
  5
14d
  8
Layer_0
  10
387.0025
  20
212.55951
  0
VERTEX
  5
14e
  8
Layer_0
  10
386.99216
  20
212.59177
  0
VERTEX
  5
14f
  8
Layer_0
  10
386.96484
  20
212.66028
  0
VERTEX
  5
150
  8
Layer_0
  10
386.94312
  20
212.70206
  0
VERTEX
  5
151
  8
Layer_0
  10
386.92203
  20
212.72433
  0
VERTEX
  5
152
  8
Layer_0
  10
386.90353
  20
212.73154
  0
VERTEX
  5
153
  8
Layer_0
  10
386.88556
  20
212.73303
  0
VERTEX
  5
154
  8
Layer_0
  10
386.87305
  20
212.72577
  0
VERTEX
  5
155
  8
Layer_0
  10
386.86218
  20
212.70477
  0
VERTEX
  5
156
  8
Layer_0
  10
386.84912
  20
212.66498
  0
VERTEX
  5
157
  8
Layer_0
  10
386.83514
  20
212.61108
  0
VERTEX
  5
158
  8
Layer_0
  10
386.82904
  20
212.57172
  0
VERTEX
  5
159
  8
Layer_0
  10
386.82941
  20
212.54944
  0
VERTEX
  5
15a
  8
Layer_0
  10
386.82727
  20
212.52158
  0
VERTEX
  5
15b
  8
Layer_0
  10
386.80963
  20
212.50479
  0
VERTEX
  5
15c
  8
Layer_0
  10
386.78506
  20
212.50208
  0
VERTEX
  5
15d
  8
Layer_0
  10
386.76221
  20
212.51651
  0
VERTEX
  5
15e
  8
Layer_0
  10
386.75723
  20
212.52408
  0
VERTEX
  5
15f
  8
Layer_0
  10
386.75198
  20
212.54843
  0
VERTEX
  5
160
  8
Layer_0
  10
386.77344
  20
212.57599
  0
VERTEX
  5
161
  8
Layer_0
  10
386.7785
  20
212.59442
  0
VERTEX
  5
162
  8
Layer_0
  10
386.78009
  20
212.62506
  0
VERTEX
  5
163
  8
Layer_0
  10
386.77249
  20
212.76556
  0
VERTEX
  5
164
  8
Layer_0
  10
386.76782
  20
212.80585
  0
VERTEX
  5
165
  8
Layer_0
  10
386.75998
  20
212.84045
  0
VERTEX
  5
166
  8
Layer_0
  10
386.7468
  20
212.87357
  0
VERTEX
  5
167
  8
Layer_0
  10
386.72626
  20
212.90936
  0
VERTEX
  5
168
  8
Layer_0
  10
386.6962
  20
212.95206
  0
VERTEX
  5
169
  8
Layer_0
  10
386.6546
  20
213.00583
  0
VERTEX
  5
16a
  8
Layer_0
  10
386.53821
  20
213.14914
  0
VERTEX
  5
16b
  8
Layer_0
  10
386.52271
  20
213.17303
  0
VERTEX
  5
16c
  8
Layer_0
  10
386.51709
  20
213.19446
  0
VERTEX
  5
16d
  8
Layer_0
  10
386.52258
  20
213.21655
  0
VERTEX
  5
16e
  8
Layer_0
  10
386.54041
  20
213.24237
  0
VERTEX
  5
16f
  8
Layer_0
  10
386.57184
  20
213.27515
  0
VERTEX
  5
170
  8
Layer_0
  10
386.89957
  20
213.573
  0
VERTEX
  5
171
  8
Layer_0
  10
386.71643
  20
213.7424
  0
VERTEX
  5
172
  8
Layer_0
  10
386.6817
  20
213.76978
  0
VERTEX
  5
173
  8
Layer_0
  10
386.67218
  20
213.75958
  0
VERTEX
  5
174
  8
Layer_0
  10
386.65253
  20
213.7323
  0
VERTEX
  5
175
  8
Layer_0
  10
386.60461
  20
213.659
  0
VERTEX
  5
176
  8
Layer_0
  10
386.54553
  20
213.57593
  0
VERTEX
  5
177
  8
Layer_0
  10
386.47089
  20
213.48761
  0
VERTEX
  5
178
  8
Layer_0
  10
386.38733
  20
213.401
  0
VERTEX
  5
179
  8
Layer_0
  10
386.30148
  20
213.32318
  0
VERTEX
  5
17a
  8
Layer_0
  10
386.23395
  20
213.27063
  0
VERTEX
  5
17b
  8
Layer_0
  10
386.16422
  20
213.22626
  0
VERTEX
  5
17c
  8
Layer_0
  10
386.08081
  20
213.18085
  0
VERTEX
  5
17d
  8
Layer_0
  10
385.99225
  20
213.13849
  0
VERTEX
  5
17e
  8
Layer_0
  10
385.9071
  20
213.10336
  0
VERTEX
  5
17f
  8
Layer_0
  10
385.83575
  20
213.07999
  0
VERTEX
  5
180
  8
Layer_0
  10
385.75003
  20
213.0614
  0
VERTEX
  5
181
  8
Layer_0
  10
385.6532
  20
213.0473
  0
VERTEX
  5
182
  8
Layer_0
  10
385.55515
  20
213.03864
  0
VERTEX
  5
183
  8
Layer_0
  10
385.46573
  20
213.03638
  0
VERTEX
  5
184
  8
Layer_0
  10
385.42249
  20
213.03839
  0
VERTEX
  5
185
  8
Layer_0
  10
385.2706
  20
213.06342
  0
VERTEX
  5
186
  8
Layer_0
  10
385.12405
  20
213.11218
  0
VERTEX
  5
187
  8
Layer_0
  10
384.98492
  20
213.18335
  0
VERTEX
  5
188
  8
Layer_0
  10
384.85535
  20
213.27545
  0
VERTEX
  5
189
  8
Layer_0
  10
384.73737
  20
213.38708
  0
VERTEX
  5
18a
  8
Layer_0
  10
384.63309
  20
213.51691
  0
VERTEX
  5
18b
  8
Layer_0
  10
384.57312
  20
213.61127
  0
VERTEX
  5
18c
  8
Layer_0
  10
384.54382
  20
213.66205
  0
VERTEX
  5
18d
  8
Layer_0
  10
384.57907
  20
213.61761
  0
VERTEX
  5
18e
  8
Layer_0
  10
384.62207
  20
213.56781
  0
VERTEX
  5
18f
  8
Layer_0
  10
384.6774
  20
213.51013
  0
VERTEX
  5
190
  8
Layer_0
  10
384.73941
  20
213.44986
  0
VERTEX
  5
191
  8
Layer_0
  10
384.80249
  20
213.39227
  0
VERTEX
  5
192
  8
Layer_0
  10
384.86102
  20
213.34265
  0
VERTEX
  5
193
  8
Layer_0
  10
384.90939
  20
213.30621
  0
VERTEX
  5
194
  8
Layer_0
  10
385.04144
  20
213.23355
  0
VERTEX
  5
195
  8
Layer_0
  10
385.17462
  20
213.1853
  0
VERTEX
  5
196
  8
Layer_0
  10
385.31067
  20
213.15836
  0
VERTEX
  5
197
  8
Layer_0
  10
385.44592
  20
213.15338
  0
VERTEX
  5
198
  8
Layer_0
  10
385.57648
  20
213.17102
  0
VERTEX
  5
199
  8
Layer_0
  10
385.61758
  20
213.18182
  0
VERTEX
  5
19a
  8
Layer_0
  10
385.69736
  20
213.21033
  0
VERTEX
  5
19b
  8
Layer_0
  10
385.7876
  20
213.25043
  0
VERTEX
  5
19c
  8
Layer_0
  10
385.87921
  20
213.29761
  0
VERTEX
  5
19d
  8
Layer_0
  10
385.96295
  20
213.34741
  0
VERTEX
  5
19e
  8
Layer_0
  10
386.05142
  20
213.41052
  0
VERTEX
  5
19f
  8
Layer_0
  10
386.11273
  20
213.46307
  0
VERTEX
  5
1a0
  8
Layer_0
  10
386.16998
  20
213.52191
  0
VERTEX
  5
1a1
  8
Layer_0
  10
386.22614
  20
213.5907
  0
VERTEX
  5
1a2
  8
Layer_0
  10
386.2843
  20
213.6731
  0
VERTEX
  5
1a3
  8
Layer_0
  10
386.34747
  20
213.77264
  0
VERTEX
  5
1a4
  8
Layer_0
  10
386.46881
  20
213.97815
  0
VERTEX
  5
1a5
  8
Layer_0
  10
386.30438
  20
214.12952
  0
VERTEX
  5
1a6
  8
Layer_0
  10
386.26666
  20
214.16089
  0
VERTEX
  5
1a7
  8
Layer_0
  10
386.23956
  20
214.18063
  0
VERTEX
  5
1a8
  8
Layer_0
  10
386.22659
  20
214.18604
  0
VERTEX
  5
1a9
  8
Layer_0
  10
386.19138
  20
213.8421
  0
VERTEX
  5
1aa
  8
Layer_0
  10
385.91858
  20
214.10471
  0
VERTEX
  5
1ab
  8
Layer_0
  10
385.82254
  20
214.19214
  0
VERTEX
  5
1ac
  8
Layer_0
  10
385.78973
  20
214.21814
  0
VERTEX
  5
1ad
  8
Layer_0
  10
385.76318
  20
214.23553
  0
VERTEX
  5
1ae
  8
Layer_0
  10
385.73999
  20
214.24658
  0
VERTEX
  5
1af
  8
Layer_0
  10
385.72339
  20
214.25208
  0
VERTEX
  5
1b0
  8
Layer_0
  10
385.67773
  20
214.26013
  0
VERTEX
  5
1b1
  8
Layer_0
  10
385.62119
  20
214.26334
  0
VERTEX
  5
1b2
  8
Layer_0
  10
385.56079
  20
214.26215
  0
VERTEX
  5
1b3
  8
Layer_0
  10
385.50348
  20
214.25696
  0
VERTEX
  5
1b4
  8
Layer_0
  10
385.45636
  20
214.24817
  0
VERTEX
  5
1b5
  8
Layer_0
  10
385.42636
  20
214.23627
  0
VERTEX
  5
1b6
  8
Layer_0
  10
385.40308
  20
214.22156
  0
VERTEX
  5
1b7
  8
Layer_0
  10
385.37949
  20
214.23132
  0
VERTEX
  5
1b8
  8
Layer_0
  10
385.36176
  20
214.25543
  0
VERTEX
  5
1b9
  8
Layer_0
  10
385.36456
  20
214.27985
  0
VERTEX
  5
1ba
  8
Layer_0
  10
385.38538
  20
214.29568
  0
VERTEX
  5
1bb
  8
Layer_0
  10
385.42865
  20
214.30304
  0
VERTEX
  5
1bc
  8
Layer_0
  10
385.46887
  20
214.31598
  0
VERTEX
  5
1bd
  8
Layer_0
  10
385.51111
  20
214.33301
  0
VERTEX
  5
1be
  8
Layer_0
  10
385.54697
  20
214.35071
  0
VERTEX
  5
1bf
  8
Layer_0
  10
385.56955
  20
214.36768
  0
VERTEX
  5
1c0
  8
Layer_0
  10
385.57492
  20
214.39774
  0
VERTEX
  5
1c1
  8
Layer_0
  10
385.55515
  20
214.4295
  0
VERTEX
  5
1c2
  8
Layer_0
  10
385.51038
  20
214.4628
  0
VERTEX
  5
1c3
  8
Layer_0
  10
385.44049
  20
214.49878
  0
VERTEX
  5
1c4
  8
Layer_0
  10
385.38177
  20
214.5246
  0
VERTEX
  5
1c5
  8
Layer_0
  10
385.36353
  20
214.54086
  0
VERTEX
  5
1c6
  8
Layer_0
  10
385.36102
  20
214.56732
  0
VERTEX
  5
1c7
  8
Layer_0
  10
385.37476
  20
214.59296
  0
VERTEX
  5
1c8
  8
Layer_0
  10
385.40042
  20
214.60736
  0
VERTEX
  5
1c9
  8
Layer_0
  10
385.42133
  20
214.59875
  0
VERTEX
  5
1ca
  8
Layer_0
  10
385.42889
  20
214.58429
  0
VERTEX
  5
1cb
  8
Layer_0
  10
385.44458
  20
214.56641
  0
VERTEX
  5
1cc
  8
Layer_0
  10
385.48126
  20
214.55014
  0
VERTEX
  5
1cd
  8
Layer_0
  10
385.55884
  20
214.52997
  0
VERTEX
  5
1ce
  8
Layer_0
  10
385.58514
  20
214.52661
  0
VERTEX
  5
1cf
  8
Layer_0
  10
385.60181
  20
214.53055
  0
VERTEX
  5
1d0
  8
Layer_0
  10
385.61914
  20
214.54486
  0
VERTEX
  5
1d1
  8
Layer_0
  10
385.63589
  20
214.57648
  0
VERTEX
  5
1d2
  8
Layer_0
  10
385.64233
  20
214.62097
  0
VERTEX
  5
1d3
  8
Layer_0
  10
385.63885
  20
214.66815
  0
VERTEX
  5
1d4
  8
Layer_0
  10
385.62573
  20
214.70795
  0
VERTEX
  5
1d5
  8
Layer_0
  10
385.59088
  20
214.75409
  0
VERTEX
  5
1d6
  8
Layer_0
  10
385.59302
  20
214.7829
  0
VERTEX
  5
1d7
  8
Layer_0
  10
385.6019
  20
214.79468
  0
VERTEX
  5
1d8
  8
Layer_0
  10
385.62445
  20
214.80365
  0
VERTEX
  5
1d9
  8
Layer_0
  10
385.64893
  20
214.79773
  0
VERTEX
  5
1da
  8
Layer_0
  10
385.66357
  20
214.78064
  0
VERTEX
  5
1db
  8
Layer_0
  10
385.66919
  20
214.75323
  0
VERTEX
  5
1dc
  8
Layer_0
  10
385.68192
  20
214.71658
  0
VERTEX
  5
1dd
  8
Layer_0
  10
385.69891
  20
214.67487
  0
VERTEX
  5
1de
  8
Layer_0
  10
385.71893
  20
214.6319
  0
VERTEX
  5
1df
  8
Layer_0
  10
385.73483
  20
214.60779
  0
VERTEX
  5
1e0
  8
Layer_0
  10
385.75098
  20
214.59735
  0
VERTEX
  5
1e1
  8
Layer_0
  10
385.76672
  20
214.59552
  0
VERTEX
  5
1e2
  8
Layer_0
  10
385.78604
  20
214.59821
  0
VERTEX
  5
1e3
  8
Layer_0
  10
385.79965
  20
214.61002
  0
VERTEX
  5
1e4
  8
Layer_0
  10
385.81177
  20
214.6366
  0
VERTEX
  5
1e5
  8
Layer_0
  10
385.82281
  20
214.67078
  0
VERTEX
  5
1e6
  8
Layer_0
  10
385.83392
  20
214.71524
  0
VERTEX
  5
1e7
  8
Layer_0
  10
385.83936
  20
214.75333
  0
VERTEX
  5
1e8
  8
Layer_0
  10
385.83865
  20
214.77252
  0
VERTEX
  5
1e9
  8
Layer_0
  10
385.84146
  20
214.7995
  0
VERTEX
  5
1ea
  8
Layer_0
  10
385.86014
  20
214.8158
  0
VERTEX
  5
1eb
  8
Layer_0
  10
385.88593
  20
214.81696
  0
VERTEX
  5
1ec
  8
Layer_0
  10
385.90369
  20
214.80609
  0
VERTEX
  5
1ed
  8
Layer_0
  10
385.91711
  20
214.78558
  0
VERTEX
  5
1ee
  8
Layer_0
  10
385.90063
  20
214.73389
  0
VERTEX
  5
1ef
  8
Layer_0
  10
385.89532
  20
214.68561
  0
VERTEX
  5
1f0
  8
Layer_0
  10
385.89301
  20
214.61932
  0
VERTEX
  5
1f1
  8
Layer_0
  10
385.89294
  20
214.4726
  0
VERTEX
  5
1f2
  8
Layer_0
  10
386.05371
  20
214.25031
  0
VERTEX
  5
1f3
  8
Layer_0
  10
386.07324
  20
214.22998
  0
VERTEX
  5
1f4
  8
Layer_0
  10
386.08728
  20
214.22668
  0
VERTEX
  5
1f5
  8
Layer_0
  10
386.09756
  20
214.24203
  0
VERTEX
  5
1f6
  8
Layer_0
  10
386.10577
  20
214.27744
  0
VERTEX
  5
1f7
  8
Layer_0
  10
386.13605
  20
214.51929
  0
VERTEX
  5
1f8
  8
Layer_0
  10
386.15112
  20
214.6185
  0
VERTEX
  5
1f9
  8
Layer_0
  10
386.15833
  20
214.64612
  0
VERTEX
  5
1fa
  8
Layer_0
  10
386.16968
  20
214.63791
  0
VERTEX
  5
1fb
  8
Layer_0
  10
386.46381
  20
214.37775
  0
VERTEX
  5
1fc
  8
Layer_0
  10
386.54773
  20
214.30661
  0
VERTEX
  5
1fd
  8
Layer_0
  10
386.53564
  20
214.55603
  0
VERTEX
  5
1fe
  8
Layer_0
  10
386.53424
  20
214.62103
  0
VERTEX
  5
1ff
  8
Layer_0
  10
386.53516
  20
214.68839
  0
VERTEX
  5
200
  8
Layer_0
  10
386.53857
  20
214.76373
  0
VERTEX
  5
201
  8
Layer_0
  10
386.56085
  20
215.04626
  0
VERTEX
  5
202
  8
Layer_0
  10
386.57562
  20
215.26324
  0
VERTEX
  5
203
  8
Layer_0
  10
386.56372
  20
215.25891
  0
VERTEX
  5
204
  8
Layer_0
  10
386.30768
  20
215.12323
  0
VERTEX
  5
205
  8
Layer_0
  10
386.29425
  20
215.11823
  0
VERTEX
  5
206
  8
Layer_0
  10
386.20178
  20
215.22879
  0
VERTEX
  5
207
  8
Layer_0
  10
385.99161
  20
215.46173
  0
VERTEX
  5
208
  8
Layer_0
  10
385.966
  20
215.48618
  0
VERTEX
  5
209
  8
Layer_0
  10
385.9227
  20
215.50604
  0
VERTEX
  5
20a
  8
Layer_0
  10
385.87231
  20
215.5242
  0
VERTEX
  5
20b
  8
Layer_0
  10
385.82172
  20
215.53882
  0
VERTEX
  5
20c
  8
Layer_0
  10
385.7778
  20
215.54797
  0
VERTEX
  5
20d
  8
Layer_0
  10
385.7475
  20
215.54984
  0
VERTEX
  5
20e
  8
Layer_0
  10
385.71552
  20
215.54584
  0
VERTEX
  5
20f
  8
Layer_0
  10
385.69666
  20
215.5611
  0
VERTEX
  5
210
  8
Layer_0
  10
385.69232
  20
215.586
  0
VERTEX
  5
211
  8
Layer_0
  10
385.69391
  20
215.59137
  0
VERTEX
  5
212
  8
Layer_0
  10
385.70288
  20
215.60077
  0
VERTEX
  5
213
  8
Layer_0
  10
385.72382
  20
215.60501
  0
VERTEX
  5
214
  8
Layer_0
  10
385.76178
  20
215.60468
  0
VERTEX
  5
215
  8
Layer_0
  10
385.8432
  20
215.59933
  0
VERTEX
  5
216
  8
Layer_0
  10
385.87192
  20
215.59967
  0
VERTEX
  5
217
  8
Layer_0
  10
385.88696
  20
215.6048
  0
VERTEX
  5
218
  8
Layer_0
  10
385.89417
  20
215.61606
  0
VERTEX
  5
219
  8
Layer_0
  10
385.89691
  20
215.62543
  0
VERTEX
  5
21a
  8
Layer_0
  10
385.89783
  20
215.65356
  0
VERTEX
  5
21b
  8
Layer_0
  10
385.8844
  20
215.685
  0
VERTEX
  5
21c
  8
Layer_0
  10
385.85425
  20
215.72391
  0
VERTEX
  5
21d
  8
Layer_0
  10
385.82193
  20
215.75784
  0
VERTEX
  5
21e
  8
Layer_0
  10
385.79312
  20
215.79327
  0
VERTEX
  5
21f
  8
Layer_0
  10
385.78436
  20
215.82028
  0
VERTEX
  5
220
  8
Layer_0
  10
385.79587
  20
215.83649
  0
VERTEX
  5
221
  8
Layer_0
  10
385.81635
  20
215.84009
  0
VERTEX
  5
222
  8
Layer_0
  10
385.83801
  20
215.83124
  0
VERTEX
  5
223
  8
Layer_0
  10
385.84216
  20
215.81787
  0
VERTEX
  5
224
  8
Layer_0
  10
385.85291
  20
215.79681
  0
VERTEX
  5
225
  8
Layer_0
  10
385.87982
  20
215.77271
  0
VERTEX
  5
226
  8
Layer_0
  10
385.91498
  20
215.75049
  0
VERTEX
  5
227
  8
Layer_0
  10
385.95038
  20
215.73499
  0
VERTEX
  5
228
  8
Layer_0
  10
385.98096
  20
215.73187
  0
VERTEX
  5
229
  8
Layer_0
  10
386.0011
  20
215.74951
  0
VERTEX
  5
22a
  8
Layer_0
  10
386.01843
  20
215.78314
  0
VERTEX
  5
22b
  8
Layer_0
  10
386.03
  20
215.82324
  0
VERTEX
  5
22c
  8
Layer_0
  10
386.0329
  20
215.86041
  0
VERTEX
  5
22d
  8
Layer_0
  10
386.02139
  20
215.90555
  0
VERTEX
  5
22e
  8
Layer_0
  10
386.02893
  20
215.91766
  0
VERTEX
  5
22f
  8
Layer_0
  10
386.05182
  20
215.92725
  0
VERTEX
  5
230
  8
Layer_0
  10
386.07254
  20
215.91742
  0
VERTEX
  5
231
  8
Layer_0
  10
386.08209
  20
215.89325
  0
VERTEX
  5
232
  8
Layer_0
  10
386.08093
  20
215.81604
  0
VERTEX
  5
233
  8
Layer_0
  10
386.08453
  20
215.75354
  0
VERTEX
  5
234
  8
Layer_0
  10
386.09229
  20
215.7319
  0
VERTEX
  5
235
  8
Layer_0
  10
386.10785
  20
215.72238
  0
VERTEX
  5
236
  8
Layer_0
  10
386.13043
  20
215.72806
  0
VERTEX
  5
237
  8
Layer_0
  10
386.15863
  20
215.75034
  0
VERTEX
  5
238
  8
Layer_0
  10
386.18677
  20
215.78311
  0
VERTEX
  5
239
  8
Layer_0
  10
386.20911
  20
215.82028
  0
VERTEX
  5
23a
  8
Layer_0
  10
386.21606
  20
215.83783
  0
VERTEX
  5
23b
  8
Layer_0
  10
386.23157
  20
215.86041
  0
VERTEX
  5
23c
  8
Layer_0
  10
386.25266
  20
215.86307
  0
VERTEX
  5
23d
  8
Layer_0
  10
386.27606
  20
215.85156
  0
VERTEX
  5
23e
  8
Layer_0
  10
386.28394
  20
215.83209
  0
VERTEX
  5
23f
  8
Layer_0
  10
386.27417
  20
215.81415
  0
VERTEX
  5
240
  8
Layer_0
  10
386.26456
  20
215.80939
  0
VERTEX
  5
241
  8
Layer_0
  10
386.25
  20
215.79425
  0
VERTEX
  5
242
  8
Layer_0
  10
386.23215
  20
215.76071
  0
VERTEX
  5
243
  8
Layer_0
  10
386.21326
  20
215.71518
  0
VERTEX
  5
244
  8
Layer_0
  10
386.19565
  20
215.66406
  0
VERTEX
  5
245
  8
Layer_0
  10
386.18164
  20
215.61377
  0
VERTEX
  5
246
  8
Layer_0
  10
386.17352
  20
215.57068
  0
VERTEX
  5
247
  8
Layer_0
  10
386.17236
  20
215.55359
  0
VERTEX
  5
248
  8
Layer_0
  10
386.1803
  20
215.52167
  0
VERTEX
  5
249
  8
Layer_0
  10
386.20285
  20
215.4736
  0
VERTEX
  5
24a
  8
Layer_0
  10
386.23853
  20
215.41269
  0
VERTEX
  5
24b
  8
Layer_0
  10
386.31329
  20
215.29541
  0
VERTEX
  5
24c
  8
Layer_0
  10
386.44916
  20
215.36652
  0
VERTEX
  5
24d
  8
Layer_0
  10
386.59451
  20
215.44574
  0
VERTEX
  5
24e
  8
Layer_0
  10
386.59741
  20
215.46094
  0
VERTEX
  5
24f
  8
Layer_0
  10
386.59796
  20
215.49597
  0
VERTEX
  5
250
  8
Layer_0
  10
386.59625
  20
215.54523
  0
VERTEX
  5
251
  8
Layer_0
  10
386.58875
  20
215.65625
  0
VERTEX
  5
252
  8
Layer_0
  10
386.58752
  20
215.70111
  0
VERTEX
  5
253
  8
Layer_0
  10
386.58997
  20
215.73352
  0
VERTEX
  5
254
  8
Layer_0
  10
386.59647
  20
215.7598
  0
VERTEX
  5
255
  8
Layer_0
  10
386.62061
  20
215.82462
  0
VERTEX
  5
256
  8
Layer_0
  10
386.63559
  20
215.90729
  0
VERTEX
  5
257
  8
Layer_0
  10
386.6629
  20
215.93127
  0
VERTEX
  5
258
  8
Layer_0
  10
386.6835
  20
215.96295
  0
VERTEX
  5
259
  8
Layer_0
  10
386.70871
  20
216.00906
  0
VERTEX
  5
25a
  8
Layer_0
  10
386.77032
  20
216.13385
  0
VERTEX
  5
25b
  8
Layer_0
  10
386.80368
  20
216.18719
  0
VERTEX
  5
25c
  8
Layer_0
  10
386.83331
  20
216.21606
  0
VERTEX
  5
25d
  8
Layer_0
  10
386.86084
  20
216.2204
  0
VERTEX
  5
25e
  8
Layer_0
  10
386.88794
  20
216.20016
  0
SEQEND
  0
POLYLINE
  5
260
  8
Layer_0
  62
0
  70
1
  66
1
  10
0
  20
0
  30
0
  0
VERTEX
  5
260
  8
Layer_0
  10
401.034
  20
274.09946
  0
VERTEX
  5
261
  8
Layer_0
  10
401.06396
  20
274.07053
  0
VERTEX
  5
262
  8
Layer_0
  10
401.32404
  20
273.8909
  0
VERTEX
  5
263
  8
Layer_0
  10
401.61829
  20
273.79373
  0
VERTEX
  5
264
  8
Layer_0
  10
401.92792
  20
273.78241
  0
VERTEX
  5
265
  8
Layer_0
  10
402.2341
  20
273.86035
  0
VERTEX
  5
266
  8
Layer_0
  10
402.51389
  20
274.02884
  0
VERTEX
  5
267
  8
Layer_0
  10
402.72824
  20
274.2666
  0
VERTEX
  5
268
  8
Layer_0
  10
402.86548
  20
274.55597
  0
VERTEX
  5
269
  8
Layer_0
  10
402.91388
  20
274.87939
  0
VERTEX
  5
26a
  8
Layer_0
  10
402.89258
  20
275.09561
  0
VERTEX
  5
26b
  8
Layer_0
  10
402.83014
  20
275.30154
  0
VERTEX
  5
26c
  8
Layer_0
  10
402.72894
  20
275.49139
  0
VERTEX
  5
26d
  8
Layer_0
  10
402.59137
  20
275.65933
  0
VERTEX
  5
26e
  8
Layer_0
  10
402.53156
  20
275.7149
  0
VERTEX
  5
26f
  8
Layer_0
  10
402.46783
  20
275.76596
  0
VERTEX
  5
270
  8
Layer_0
  10
402.31866
  20
275.8591
  0
VERTEX
  5
271
  8
Layer_0
  10
402.15765
  20
275.92691
  0
VERTEX
  5
272
  8
Layer_0
  10
401.98792
  20
275.96835
  0
VERTEX
  5
273
  8
Layer_0
  10
401.81268
  20
275.98239
  0
VERTEX
  5
274
  8
Layer_0
  10
401.77106
  20
275.98163
  0
VERTEX
  5
275
  8
Layer_0
  10
401.46033
  20
275.9245
  0
VERTEX
  5
276
  8
Layer_0
  10
401.18365
  20
275.78482
  0
VERTEX
  5
277
  8
Layer_0
  10
400.95673
  20
275.57349
  0
VERTEX
  5
278
  8
Layer_0
  10
400.79529
  20
275.30148
  0
VERTEX
  5
279
  8
Layer_0
  10
400.78009
  20
275.2627
  0
VERTEX
  5
27a
  8
Layer_0
  10
400.7139
  20
274.95325
  0
VERTEX
  5
27b
  8
Layer_0
  10
400.73685
  20
274.64374
  0
VERTEX
  5
27c
  8
Layer_0
  10
400.84488
  20
274.35291
  0
VERTEX
  5
27d
  8
Layer_0
  10
401.034
  20
274.09946
  0
SEQEND
  0
POLYLINE
  5
27f
  8
Layer_0
  62
0
  70
1
  66
1
  10
0
  20
0
  30
0
  0
VERTEX
  5
27f
  8
Layer_0
  10
324.83417
  20
242.50146
  0
VERTEX
  5
280
  8
Layer_0
  10
325.09668
  20
242.30743
  0
VERTEX
  5
281
  8
Layer_0
  10
325.39801
  20
242.20029
  0
VERTEX
  5
282
  8
Layer_0
  10
325.71741
  20
242.18408
  0
VERTEX
  5
283
  8
Layer_0
  10
326.03424
  20
242.26288
  0
VERTEX
  5
284
  8
Layer_0
  10
326.31409
  20
242.43106
  0
VERTEX
  5
285
  8
Layer_0
  10
326.5285
  20
242.66827
  0
VERTEX
  5
286
  8
Layer_0
  10
326.66571
  20
242.95703
  0
VERTEX
  5
287
  8
Layer_0
  10
326.71405
  20
243.27982
  0
VERTEX
  5
288
  8
Layer_0
  10
326.70392
  20
243.42972
  0
VERTEX
  5
289
  8
Layer_0
  10
326.67365
  20
243.57617
  0
VERTEX
  5
28a
  8
Layer_0
  10
326.62369
  20
243.71716
  0
VERTEX
  5
28b
  8
Layer_0
  10
326.55463
  20
243.85059
  0
VERTEX
  5
28c
  8
Layer_0
  10
326.37744
  20
244.07227
  0
VERTEX
  5
28d
  8
Layer_0
  10
326.15326
  20
244.23909
  0
VERTEX
  5
28e
  8
Layer_0
  10
325.89435
  20
244.34415
  0
VERTEX
  5
28f
  8
Layer_0
  10
325.61285
  20
244.38055
  0
VERTEX
  5
290
  8
Layer_0
  10
325.57123
  20
244.37976
  0
VERTEX
  5
291
  8
Layer_0
  10
325.2605
  20
244.32272
  0
VERTEX
  5
292
  8
Layer_0
  10
324.98383
  20
244.18332
  0
VERTEX
  5
293
  8
Layer_0
  10
324.75696
  20
243.97247
  0
VERTEX
  5
294
  8
Layer_0
  10
324.59546
  20
243.70105
  0
VERTEX
  5
295
  8
Layer_0
  10
324.58026
  20
243.66232
  0
VERTEX
  5
296
  8
Layer_0
  10
324.51407
  20
243.35361
  0
VERTEX
  5
297
  8
Layer_0
  10
324.53705
  20
243.04474
  0
VERTEX
  5
298
  8
Layer_0
  10
324.64514
  20
242.75449
  0
VERTEX
  5
299
  8
Layer_0
  10
324.83417
  20
242.50146
  0
SEQEND
  0
POLYLINE
  5
29b
  8
Layer_0
  62
0
  70
1
  66
1
  10
0
  20
0
  30
0
  0
VERTEX
  5
29b
  8
Layer_0
  10
402.23407
  20
235.76123
  0
VERTEX
  5
29c
  8
Layer_0
  10
402.51382
  20
235.92975
  0
VERTEX
  5
29d
  8
Layer_0
  10
402.72821
  20
236.16736
  0
VERTEX
  5
29e
  8
Layer_0
  10
402.86548
  20
236.45654
  0
VERTEX
  5
29f
  8
Layer_0
  10
402.91388
  20
236.77979
  0
VERTEX
  5
2a0
  8
Layer_0
  10
402.89255
  20
236.99591
  0
VERTEX
  5
2a1
  8
Layer_0
  10
402.83008
  20
237.20172
  0
VERTEX
  5
2a2
  8
Layer_0
  10
402.72888
  20
237.39145
  0
VERTEX
  5
2a3
  8
Layer_0
  10
402.59131
  20
237.55939
  0
VERTEX
  5
2a4
  8
Layer_0
  10
402.55176
  20
237.59708
  0
VERTEX
  5
2a5
  8
Layer_0
  10
402.38931
  20
237.71912
  0
VERTEX
  5
2a6
  8
Layer_0
  10
402.20874
  20
237.80859
  0
VERTEX
  5
2a7
  8
Layer_0
  10
402.01495
  20
237.86359
  0
VERTEX
  5
2a8
  8
Layer_0
  10
401.81268
  20
237.88229
  0
VERTEX
  5
2a9
  8
Layer_0
  10
401.77106
  20
237.8815
  0
VERTEX
  5
2aa
  8
Layer_0
  10
401.46033
  20
237.8244
  0
VERTEX
  5
2ab
  8
Layer_0
  10
401.18365
  20
237.68475
  0
VERTEX
  5
2ac
  8
Layer_0
  10
400.95673
  20
237.47357
  0
VERTEX
  5
2ad
  8
Layer_0
  10
400.79529
  20
237.20172
  0
VERTEX
  5
2ae
  8
Layer_0
  10
400.78009
  20
237.1629
  0
VERTEX
  5
2af
  8
Layer_0
  10
400.71387
  20
236.8537
  0
VERTEX
  5
2b0
  8
Layer_0
  10
400.73685
  20
236.54431
  0
VERTEX
  5
2b1
  8
Layer_0
  10
400.84491
  20
236.2536
  0
VERTEX
  5
2b2
  8
Layer_0
  10
401.034
  20
236.00024
  0
VERTEX
  5
2b3
  8
Layer_0
  10
401.29645
  20
235.80585
  0
VERTEX
  5
2b4
  8
Layer_0
  10
401.59778
  20
235.69849
  0
VERTEX
  5
2b5
  8
Layer_0
  10
401.91724
  20
235.68228
  0
VERTEX
  5
2b6
  8
Layer_0
  10
402.23407
  20
235.76123
  0
SEQEND
  0
POLYLINE
  5
2b8
  8
Layer_0
  62
0
  70
1
  66
1
  10
0
  20
0
  30
0
  0
VERTEX
  5
2b8
  8
Layer_0
  10
297.80927
  20
221.12524
  0
VERTEX
  5
2b9
  8
Layer_0
  10
298.07178
  20
220.93085
  0
VERTEX
  5
2ba
  8
Layer_0
  10
298.37311
  20
220.82343
  0
VERTEX
  5
2bb
  8
Layer_0
  10
298.6925
  20
220.80719
  0
VERTEX
  5
2bc
  8
Layer_0
  10
299.00934
  20
220.88626
  0
VERTEX
  5
2bd
  8
Layer_0
  10
299.28918
  20
221.05463
  0
VERTEX
  5
2be
  8
Layer_0
  10
299.50357
  20
221.29224
  0
VERTEX
  5
2bf
  8
Layer_0
  10
299.64078
  20
221.58148
  0
VERTEX
  5
2c0
  8
Layer_0
  10
299.68915
  20
221.90479
  0
VERTEX
  5
2c1
  8
Layer_0
  10
299.67673
  20
222.07056
  0
VERTEX
  5
2c2
  8
Layer_0
  10
299.63962
  20
222.2326
  0
VERTEX
  5
2c3
  8
Layer_0
  10
299.57306
  20
222.39822
  0
VERTEX
  5
2c4
  8
Layer_0
  10
299.4826
  20
222.5481
  0
VERTEX
  5
2c5
  8
Layer_0
  10
299.371
  20
222.6803
  0
VERTEX
  5
2c6
  8
Layer_0
  10
299.24084
  20
222.79282
  0
VERTEX
  5
2c7
  8
Layer_0
  10
299.09479
  20
222.88373
  0
VERTEX
  5
2c8
  8
Layer_0
  10
298.93552
  20
222.95108
  0
VERTEX
  5
2c9
  8
Layer_0
  10
298.76566
  20
222.99289
  0
VERTEX
  5
2ca
  8
Layer_0
  10
298.58792
  20
223.00723
  0
VERTEX
  5
2cb
  8
Layer_0
  10
298.54633
  20
223.00644
  0
VERTEX
  5
2cc
  8
Layer_0
  10
298.2356
  20
222.94934
  0
VERTEX
  5
2cd
  8
Layer_0
  10
297.95892
  20
222.80969
  0
VERTEX
  5
2ce
  8
Layer_0
  10
297.73199
  20
222.59848
  0
VERTEX
  5
2cf
  8
Layer_0
  10
297.57056
  20
222.32666
  0
VERTEX
  5
2d0
  8
Layer_0
  10
297.55536
  20
222.28787
  0
VERTEX
  5
2d1
  8
Layer_0
  10
297.48914
  20
221.97864
  0
VERTEX
  5
2d2
  8
Layer_0
  10
297.51208
  20
221.66931
  0
VERTEX
  5
2d3
  8
Layer_0
  10
297.62018
  20
221.3786
  0
VERTEX
  5
2d4
  8
Layer_0
  10
297.80927
  20
221.12524
  0
SEQEND
  0
POLYLINE
  5
2d6
  8
Layer_0
  62
0
  70
1
  66
1
  10
0
  20
0
  30
0
  0
VERTEX
  5
2d6
  8
Layer_0
  10
288.17538
  20
194.64441
  0
VERTEX
  5
2d7
  8
Layer_0
  10
279.08224
  20
210.4306
  0
VERTEX
  5
2d8
  8
Layer_0
  10
278.99634
  20
210.62708
  0
VERTEX
  5
2d9
  8
Layer_0
  10
278.94977
  20
210.83441
  0
VERTEX
  5
2da
  8
Layer_0
  10
278.9433
  20
211.04681
  0
VERTEX
  5
2db
  8
Layer_0
  10
278.97772
  20
211.25842
  0
VERTEX
  5
2dc
  8
Layer_0
  10
278.98514
  20
211.28534
  0
VERTEX
  5
2dd
  8
Layer_0
  10
283.86209
  20
226.50418
  0
VERTEX
  5
2de
  8
Layer_0
  10
283.86093
  20
302.42569
  0
VERTEX
  5
2df
  8
Layer_0
  10
283.88031
  20
302.6333
  0
VERTEX
  5
2e0
  8
Layer_0
  10
283.93661
  20
302.82837
  0
VERTEX
  5
2e1
  8
Layer_0
  10
284.02637
  20
303.00711
  0
VERTEX
  5
2e2
  8
Layer_0
  10
284.14612
  20
303.16565
  0
VERTEX
  5
2e3
  8
Layer_0
  10
284.2923
  20
303.30017
  0
VERTEX
  5
2e4
  8
Layer_0
  10
284.46149
  20
303.40686
  0
VERTEX
  5
2e5
  8
Layer_0
  10
284.65018
  20
303.48181
  0
VERTEX
  5
2e6
  8
Layer_0
  10
284.85489
  20
303.52124
  0
VERTEX
  5
2e7
  8
Layer_0
  10
284.90958
  20
303.52515
  0
VERTEX
  5
2e8
  8
Layer_0
  10
344.58673
  20
305.90402
  0
VERTEX
  5
2e9
  8
Layer_0
  10
371.53665
  20
305.90402
  0
VERTEX
  5
2ea
  8
Layer_0
  10
420.19342
  20
293.89008
  0
VERTEX
  5
2eb
  8
Layer_0
  10
420.32642
  20
293.84811
  0
VERTEX
  5
2ec
  8
Layer_0
  10
420.453
  20
293.78983
  0
VERTEX
  5
2ed
  8
Layer_0
  10
420.69284
  20
293.61426
  0
VERTEX
  5
2ee
  8
Layer_0
  10
420.87427
  20
293.38531
  0
VERTEX
  5
2ef
  8
Layer_0
  10
420.98926
  20
293.1167
  0
VERTEX
  5
2f0
  8
Layer_0
  10
421.02975
  20
292.82214
  0
VERTEX
  5
2f1
  8
Layer_0
  10
421.05673
  20
218.59418
  0
VERTEX
  5
2f2
  8
Layer_0
  10
421.04202
  20
218.41376
  0
VERTEX
  5
2f3
  8
Layer_0
  10
420.99902
  20
218.24164
  0
VERTEX
  5
2f4
  8
Layer_0
  10
420.92981
  20
218.08051
  0
VERTEX
  5
2f5
  8
Layer_0
  10
420.8364
  20
217.93323
  0
VERTEX
  5
2f6
  8
Layer_0
  10
420.72095
  20
217.80255
  0
VERTEX
  5
2f7
  8
Layer_0
  10
420.58551
  20
217.69122
  0
VERTEX
  5
2f8
  8
Layer_0
  10
420.43213
  20
217.60199
  0
VERTEX
  5
2f9
  8
Layer_0
  10
420.26294
  20
217.53772
  0
VERTEX
  5
2fa
  8
Layer_0
  10
383.08664
  20
206.90424
  0
VERTEX
  5
2fb
  8
Layer_0
  10
333.74088
  20
206.90424
  0
VERTEX
  5
2fc
  8
Layer_0
  10
289.43298
  20
194.1377
  0
VERTEX
  5
2fd
  8
Layer_0
  10
289.24982
  20
194.10114
  0
VERTEX
  5
2fe
  8
Layer_0
  10
289.06708
  20
194.09595
  0
VERTEX
  5
2ff
  8
Layer_0
  10
288.88828
  20
194.12076
  0
VERTEX
  5
300
  8
Layer_0
  10
288.71686
  20
194.1741
  0
VERTEX
  5
301
  8
Layer_0
  10
288.55637
  20
194.25455
  0
VERTEX
  5
302
  8
Layer_0
  10
288.41028
  20
194.36069
  0
VERTEX
  5
303
  8
Layer_0
  10
288.2821
  20
194.49112
  0
VERTEX
  5
304
  8
Layer_0
  10
288.17538
  20
194.64441
  0
SEQEND
  0
ENDSEC
  0
EOF
