  0
SECTION
  2
HEADER
  9
$ACADVER
  1
AC1009
  0
ENDSEC
  0
SECTION
  2
TABLES
  0
TABLE
  2
LAYER
  70
1
  0
LAYER
  2
Layer_0
  70
0
  62
7
  6
CONTINUOUS
  0
ENDTAB
  0
ENDSEC
  0
SECTION
  2
ENTITIES
  0
POLYLINE
  5
90
  8
Layer_0
  62
7
  70
1
  66
1
  10
0
  20
0
  30
0
  0
VERTEX
  5
90
  8
Layer_0
  10
61.748291
  20
1030.8615
  42
0.3033851
  0
VERTEX
  5
91
  8
Layer_0
  10
62.095337
  20
1032.6071
  42
0.30344812
  0
VERTEX
  5
92
  8
Layer_0
  10
60.616211
  20
1033.5958
  42
0.075497698
  0
VERTEX
  5
93
  8
Layer_0
  10
60.140198
  20
1033.5238
  42
0.32838207
  0
VERTEX
  5
94
  8
Layer_0
  10
59.01532
  20
1031.9941
  0
VERTEX
  5
95
  8
Layer_0
  10
59.016418
  20
1031.9335
  42
0.29305464
  0
VERTEX
  5
96
  8
Layer_0
  10
60.003601
  20
1030.5142
  0
VERTEX
  5
97
  8
Layer_0
  10
60.059937
  20
1030.4921
  42
0.29326279
  0
SEQEND
  0
POLYLINE
  5
99
  8
Layer_0
  62
7
  70
1
  66
1
  10
0
  20
0
  30
0
  0
VERTEX
  5
99
  8
Layer_0
  10
8.7740479
  20
1134.0868
  0
VERTEX
  5
9a
  8
Layer_0
  10
8.81604
  20
1134.1304
  42
0.29285414
  0
VERTEX
  5
9b
  8
Layer_0
  10
9.1209717
  20
1135.8324
  42
0.30335726
  0
VERTEX
  5
9c
  8
Layer_0
  10
7.6422729
  20
1136.8212
  42
0.19925937
  0
VERTEX
  5
9d
  8
Layer_0
  10
6.5105591
  20
1136.3521
  42
0.036829094
  0
VERTEX
  5
9e
  8
Layer_0
  10
6.355835
  20
1136.1724
  42
0.16062419
  0
VERTEX
  5
9f
  8
Layer_0
  10
6.041748
  20
1135.2194
  0
VERTEX
  5
a0
  8
Layer_0
  10
6.0429077
  20
1135.1589
  42
0.29308692
  0
VERTEX
  5
a1
  8
Layer_0
  10
7.0297852
  20
1133.7396
  0
VERTEX
  5
a2
  8
Layer_0
  10
7.0861206
  20
1133.7175
  42
0.29326203
  0
SEQEND
  0
POLYLINE
  5
a4
  8
Layer_0
  62
7
  70
1
  66
1
  10
0
  20
0
  30
0
  0
VERTEX
  5
a4
  8
Layer_0
  10
-0.22674561
  20
1057.8864
  42
0.30333187
  0
VERTEX
  5
a5
  8
Layer_0
  10
0.12030029
  20
1059.632
  42
0.30341248
  0
VERTEX
  5
a6
  8
Layer_0
  10
-1.3588257
  20
1060.6208
  42
0.17488607
  0
VERTEX
  5
a7
  8
Layer_0
  10
-2.3771973
  20
1060.255
  42
0.22446784
  0
VERTEX
  5
a8
  8
Layer_0
  10
-2.9598389
  20
1059.019
  0
VERTEX
  5
a9
  8
Layer_0
  10
-2.9586792
  20
1058.9585
  42
0.29298446
  0
VERTEX
  5
aa
  8
Layer_0
  10
-1.9714966
  20
1057.5392
  0
VERTEX
  5
ab
  8
Layer_0
  10
-1.9151611
  20
1057.5171
  42
0.29323671
  0
SEQEND
  0
POLYLINE
  5
ad
  8
Layer_0
  62
7
  70
1
  66
1
  10
0
  20
0
  30
0
  0
VERTEX
  5
ad
  8
Layer_0
  10
40.372986
  20
1057.8868
  42
0.30316714
  0
VERTEX
  5
ae
  8
Layer_0
  10
40.720032
  20
1059.6324
  42
0.3034149
  0
VERTEX
  5
af
  8
Layer_0
  10
39.240845
  20
1060.6212
  42
0.13767329
  0
VERTEX
  5
b0
  8
Layer_0
  10
38.410645
  20
1060.3893
  42
0.26233762
  0
VERTEX
  5
b1
  8
Layer_0
  10
37.639832
  20
1059.0195
  0
VERTEX
  5
b2
  8
Layer_0
  10
37.64093
  20
1058.9589
  42
0.29299157
  0
VERTEX
  5
b3
  8
Layer_0
  10
38.628174
  20
1057.5396
  0
VERTEX
  5
b4
  8
Layer_0
  10
38.684509
  20
1057.5175
  42
0.29316178
  0
SEQEND
  0
POLYLINE
  5
b6
  8
Layer_0
  62
7
  70
1
  66
1
  10
0
  20
0
  30
0
  0
VERTEX
  5
b6
  8
Layer_0
  10
47.220337
  20
1135.8316
  42
0.30325206
  0
VERTEX
  5
b7
  8
Layer_0
  10
45.74115
  20
1136.8204
  42
0.19904844
  0
VERTEX
  5
b8
  8
Layer_0
  10
44.60907
  20
1136.3513
  0
VERTEX
  5
b9
  8
Layer_0
  10
44.554321
  20
1136.2937
  42
0.18614631
  0
VERTEX
  5
ba
  8
Layer_0
  10
44.140137
  20
1135.2187
  0
VERTEX
  5
bb
  8
Layer_0
  10
44.141296
  20
1135.1581
  42
0.29309678
  0
VERTEX
  5
bc
  8
Layer_0
  10
45.128479
  20
1133.7388
  0
VERTEX
  5
bd
  8
Layer_0
  10
45.184814
  20
1133.7167
  42
0.29321348
  0
VERTEX
  5
be
  8
Layer_0
  10
46.873291
  20
1134.0861
  42
0.3032589
  0
SEQEND
  0
POLYLINE
  5
c0
  8
Layer_0
  62
7
  70
1
  66
1
  10
0
  20
0
  30
0
  0
VERTEX
  5
c0
  8
Layer_0
  10
87.875
  20
1021.582
  0
VERTEX
  5
c1
  8
Layer_0
  10
72.088806
  20
1012.4888
  42
-0.19381883
  0
VERTEX
  5
c2
  8
Layer_0
  10
71.260986
  20
1012.3843
  0
VERTEX
  5
c3
  8
Layer_0
  10
71.23407
  20
1012.3917
  0
VERTEX
  5
c4
  8
Layer_0
  10
56.015259
  20
1017.2687
  0
VERTEX
  5
c5
  8
Layer_0
  10
-19.90625
  20
1017.2676
  42
-0.38669003
  0
VERTEX
  5
c6
  8
Layer_0
  10
-21.001831
  20
1018.2615
  0
VERTEX
  5
c7
  8
Layer_0
  10
-21.005737
  20
1018.3162
  0
VERTEX
  5
c8
  8
Layer_0
  10
-23.384521
  20
1077.9934
  0
VERTEX
  5
c9
  8
Layer_0
  10
-23.384521
  20
1104.9434
  0
VERTEX
  5
ca
  8
Layer_0
  10
-11.370544
  20
1153.6001
  42
-0.062937881
  0
VERTEX
  5
cb
  8
Layer_0
  10
-11.270325
  20
1153.8597
  42
-0.27475288
  0
VERTEX
  5
cc
  8
Layer_0
  10
-10.302612
  20
1154.4365
  0
VERTEX
  5
cd
  8
Layer_0
  10
63.925293
  20
1154.4634
  42
-0.33434885
  0
VERTEX
  5
ce
  8
Layer_0
  10
64.981812
  20
1153.6696
  0
VERTEX
  5
cf
  8
Layer_0
  10
75.615234
  20
1116.4933
  0
VERTEX
  5
d0
  8
Layer_0
  10
75.615234
  20
1067.1475
  0
VERTEX
  5
d1
  8
Layer_0
  10
88.381775
  20
1022.8395
  42
-0.34500361
  0
SEQEND
  0
POLYLINE
  5
d3
  8
Layer_0
  62
7
  70
1
  66
1
  10
0
  20
0
  30
0
  0
VERTEX
  5
d3
  8
Layer_0
  10
191.98901
  20
1145.2314
  0
VERTEX
  5
d4
  8
Layer_0
  10
176.20282
  20
1154.3246
  42
0.19381883
  0
VERTEX
  5
d5
  8
Layer_0
  10
175.375
  20
1154.4291
  0
VERTEX
  5
d6
  8
Layer_0
  10
175.34808
  20
1154.4217
  0
VERTEX
  5
d7
  8
Layer_0
  10
160.12927
  20
1149.5447
  0
VERTEX
  5
d8
  8
Layer_0
  10
84.207764
  20
1149.5458
  42
0.38669003
  0
VERTEX
  5
d9
  8
Layer_0
  10
83.112183
  20
1148.5519
  0
VERTEX
  5
da
  8
Layer_0
  10
83.108276
  20
1148.4973
  0
VERTEX
  5
db
  8
Layer_0
  10
80.729431
  20
1088.8201
  0
VERTEX
  5
dc
  8
Layer_0
  10
80.729431
  20
1061.8701
  0
VERTEX
  5
dd
  8
Layer_0
  10
92.743408
  20
1013.2133
  42
0.062937881
  0
VERTEX
  5
de
  8
Layer_0
  10
92.843628
  20
1012.9537
  42
0.27475288
  0
VERTEX
  5
df
  8
Layer_0
  10
93.81134
  20
1012.377
  0
VERTEX
  5
e0
  8
Layer_0
  10
168.03931
  20
1012.35
  42
0.33434885
  0
VERTEX
  5
e1
  8
Layer_0
  10
169.09576
  20
1013.1438
  0
VERTEX
  5
e2
  8
Layer_0
  10
179.72925
  20
1050.3201
  0
VERTEX
  5
e3
  8
Layer_0
  10
179.72925
  20
1099.666
  0
VERTEX
  5
e4
  8
Layer_0
  10
192.49576
  20
1143.9738
  42
0.34500361
  0
SEQEND
  0
POLYLINE
  5
e6
  8
Layer_0
  62
7
  70
1
  66
1
  10
0
  20
0
  30
0
  0
VERTEX
  5
e6
  8
Layer_0
  10
165.86206
  20
1135.9521
  42
-0.3033851
  0
VERTEX
  5
e7
  8
Layer_0
  10
166.20911
  20
1134.2065
  42
-0.30344812
  0
VERTEX
  5
e8
  8
Layer_0
  10
164.73004
  20
1133.2178
  42
-0.075497698
  0
VERTEX
  5
e9
  8
Layer_0
  10
164.25397
  20
1133.2898
  42
-0.32838207
  0
VERTEX
  5
ea
  8
Layer_0
  10
163.12909
  20
1134.8195
  0
VERTEX
  5
eb
  8
Layer_0
  10
163.13025
  20
1134.8801
  42
-0.29305464
  0
VERTEX
  5
ec
  8
Layer_0
  10
164.11737
  20
1136.2993
  0
VERTEX
  5
ed
  8
Layer_0
  10
164.17371
  20
1136.3214
  42
-0.29326279
  0
SEQEND
  0
POLYLINE
  5
ef
  8
Layer_0
  62
7
  70
1
  66
1
  10
0
  20
0
  30
0
  0
VERTEX
  5
ef
  8
Layer_0
  10
112.88776
  20
1032.7268
  0
VERTEX
  5
f0
  8
Layer_0
  10
112.92975
  20
1032.6832
  42
-0.29285414
  0
VERTEX
  5
f1
  8
Layer_0
  10
113.23468
  20
1030.9812
  42
-0.30335726
  0
VERTEX
  5
f2
  8
Layer_0
  10
111.75598
  20
1029.9924
  42
-0.19925937
  0
VERTEX
  5
f3
  8
Layer_0
  10
110.62427
  20
1030.4615
  42
-0.036829094
  0
VERTEX
  5
f4
  8
Layer_0
  10
110.46954
  20
1030.6412
  42
-0.16062419
  0
VERTEX
  5
f5
  8
Layer_0
  10
110.15552
  20
1031.5941
  0
VERTEX
  5
f6
  8
Layer_0
  10
110.15662
  20
1031.6547
  42
-0.29308692
  0
VERTEX
  5
f7
  8
Layer_0
  10
111.14355
  20
1033.074
  0
VERTEX
  5
f8
  8
Layer_0
  10
111.19983
  20
1033.0961
  42
-0.29326203
  0
SEQEND
  0
POLYLINE
  5
fa
  8
Layer_0
  62
7
  70
1
  66
1
  10
0
  20
0
  30
0
  0
VERTEX
  5
fa
  8
Layer_0
  10
103.88702
  20
1108.9271
  42
-0.30333187
  0
VERTEX
  5
fb
  8
Layer_0
  10
104.23407
  20
1107.1816
  42
-0.30341248
  0
VERTEX
  5
fc
  8
Layer_0
  10
102.75494
  20
1106.1928
  42
-0.17488607
  0
VERTEX
  5
fd
  8
Layer_0
  10
101.73657
  20
1106.5586
  42
-0.22446784
  0
VERTEX
  5
fe
  8
Layer_0
  10
101.15393
  20
1107.7946
  0
VERTEX
  5
ff
  8
Layer_0
  10
101.15509
  20
1107.8551
  42
-0.29298446
  0
VERTEX
  5
100
  8
Layer_0
  10
102.14227
  20
1109.2744
  0
VERTEX
  5
101
  8
Layer_0
  10
102.19861
  20
1109.2965
  42
-0.29323671
  0
SEQEND
  0
POLYLINE
  5
103
  8
Layer_0
  62
7
  70
1
  66
1
  10
0
  20
0
  30
0
  0
VERTEX
  5
103
  8
Layer_0
  10
144.48676
  20
1108.9267
  42
-0.30316714
  0
VERTEX
  5
104
  8
Layer_0
  10
144.8338
  20
1107.1811
  42
-0.3034149
  0
VERTEX
  5
105
  8
Layer_0
  10
143.35461
  20
1106.1923
  42
-0.13767329
  0
VERTEX
  5
106
  8
Layer_0
  10
142.52441
  20
1106.4242
  42
-0.26233762
  0
VERTEX
  5
107
  8
Layer_0
  10
141.7536
  20
1107.7941
  0
VERTEX
  5
108
  8
Layer_0
  10
141.7547
  20
1107.8546
  42
-0.29299157
  0
VERTEX
  5
109
  8
Layer_0
  10
142.74194
  20
1109.2739
  0
VERTEX
  5
10a
  8
Layer_0
  10
142.79828
  20
1109.296
  42
-0.29316178
  0
SEQEND
  0
POLYLINE
  5
10c
  8
Layer_0
  62
7
  70
1
  66
1
  10
0
  20
0
  30
0
  0
VERTEX
  5
10c
  8
Layer_0
  10
151.33405
  20
1030.9819
  42
-0.30325206
  0
VERTEX
  5
10d
  8
Layer_0
  10
149.85486
  20
1029.9932
  42
-0.19904844
  0
VERTEX
  5
10e
  8
Layer_0
  10
148.72278
  20
1030.4623
  0
VERTEX
  5
10f
  8
Layer_0
  10
148.66803
  20
1030.5198
  42
-0.18614631
  0
VERTEX
  5
110
  8
Layer_0
  10
148.25385
  20
1031.5949
  0
VERTEX
  5
111
  8
Layer_0
  10
148.255
  20
1031.6554
  42
-0.29309678
  0
VERTEX
  5
112
  8
Layer_0
  10
149.24219
  20
1033.0747
  0
VERTEX
  5
113
  8
Layer_0
  10
149.29852
  20
1033.0968
  42
-0.29321348
  0
VERTEX
  5
114
  8
Layer_0
  10
150.987
  20
1032.7275
  42
-0.3032589
  0
SEQEND
  0
ENDSEC
  0
EOF
