<?xml version="1.0" encoding="UTF-8" standalone="no"?>
<svg xmlns="http://www.w3.org/2000/svg" xmlns:xlink="http://www.w3.org/1999/xlink" width="229.135mm" height="156.567mm" viewBox="-151.567291 -657.283386 229.134613 156.566711">
    <ellipse transform="matrix(0,1,-1,0,-121.30835,-652.279907)" style="stroke:#000000;stroke-width:0.050000mm;fill:none" rx="2.60009" ry="2.600024" cx="0" cy="0"/>
    <ellipse transform="matrix(0,1,-1,0,-64.158447,-652.279968)" style="stroke:#000000;stroke-width:0.050000mm;fill:none" rx="2.60009" ry="2.600024" cx="0" cy="0"/>
    <ellipse transform="matrix(0.999194,-0.040131,0.040132,0.999155,-146.569519,-542.427795)" style="stroke:#000000;stroke-width:0.050002mm;fill:none" rx="2.60009" ry="2.600024" cx="0" cy="0"/>
    <circle transform="matrix(-0.498488,-0.866897,0.866897,-0.498488,-36.981079,-505.726074)" style="stroke:#000000;stroke-width:0.050000mm;fill:none" r="2.600024" cx="0" cy="0"/>
    <path transform="matrix(0,-0.762738,-0.76236,-0,-183.835693,-481.039856)" style="stroke:#000000;stroke-width:0.065586mm;fill:none" d="M56.061665,-165.486618C56.66217,-166.087387,57.565563,-166.267166,58.35022,-165.941833C59.135052,-165.617004,59.646511,-164.851089,59.646584,-164.001694C59.64661,-163.789978,59.614971,-163.579422,59.55217,-163.377228C59.278805,-162.499329,58.466057,-161.901367,57.546589,-161.901703L57.467213,-161.903198C56.647224,-161.934189,55.920368,-162.439911,55.606445,-163.198059L55.577446,-163.271957C55.292225,-164.041382,55.48127,-164.906525,56.061665,-165.486618z"/>
    <path transform="matrix(0,-0.762753,-0.762157,-0,-196.401245,-505.529236)" style="stroke:#000000;stroke-width:0.065603mm;fill:none" d="M159.286453,-112.511726L159.343628,-112.566803C159.945404,-113.124641,160.81691,-113.28096,161.575012,-112.966949C162.359741,-112.641983,162.871094,-111.87616,162.871368,-111.026802C162.871597,-110.46981,162.650345,-109.935532,162.256287,-109.541893C162.182861,-109.468521,162.104126,-109.400681,162.020737,-109.338882C161.65921,-109.07119,161.221222,-108.926781,160.771378,-108.926811L160.692001,-108.928299C159.871979,-108.959137,159.145142,-109.464996,158.831223,-110.223183L158.802231,-110.297073C158.517242,-111.066566,158.706039,-111.931679,159.286453,-112.511726z"/>
    <path transform="matrix(0,-0.762735,-0.762381,-0,-198.565857,-487.452087)" style="stroke:#000000;stroke-width:0.065584mm;fill:none" d="M83.086609,-103.511742C83.687126,-104.112457,84.590462,-104.292152,85.37516,-103.966957C86.159859,-103.641838,86.671669,-102.876213,86.671524,-102.026817C86.672249,-101.539284,86.502632,-101.066788,86.191986,-100.691032C85.793449,-100.206596,85.19883,-99.926147,84.571533,-99.926826L84.492157,-99.928322C83.672195,-99.959396,82.945427,-100.465111,82.631386,-101.22319L82.602394,-101.297089C82.317093,-102.066483,82.506317,-102.931549,83.086609,-103.511742z"/>
    <path transform="matrix(0,-0.762745,-0.762402,-0,-188.921753,-487.45166)" style="stroke:#000000;stroke-width:0.065582mm;fill:none" d="M83.086609,-144.111664C83.687225,-144.712219,84.590385,-144.891739,85.37516,-144.566879C86.159882,-144.241821,86.671616,-143.47612,86.671524,-142.62674C86.671989,-142.242737,86.566849,-141.866013,86.3675,-141.537811C85.986816,-140.909897,85.305832,-140.526276,84.571533,-140.526749L84.492157,-140.528229C83.672188,-140.559296,82.945419,-141.065018,82.631386,-141.823105L82.602394,-141.897003C82.317192,-142.666412,82.506416,-143.531403,83.086609,-144.111664z"/>
    <path transform="matrix(0,-0.762734,-0.7624,-0,-187.37677,-505.531677)" style="stroke:#000000;stroke-width:0.065582mm;fill:none" d="M161.575012,-151.066864C162.359558,-150.741516,162.871292,-149.976059,162.871368,-149.126724C162.871506,-148.569763,162.650146,-148.035614,162.256287,-147.6418L162.180832,-147.569992C161.7948,-147.220169,161.292343,-147.026657,160.771378,-147.026733L160.692001,-147.028229C159.871994,-147.059219,159.14505,-147.56488,158.831223,-148.32309L158.802231,-148.396988C158.516922,-149.166382,158.706207,-150.031418,159.286453,-150.611649C159.886841,-151.212479,160.790176,-151.391663,161.575012,-151.066864z"/>
    <path transform="matrix(-0,-1,1,-0,-933.903687,351.711426)" style="stroke:#000000;stroke-width:0.050000mm;fill:none" d="M894.311768,782.337158C896.566956,782.406677,898.495728,783.981567,899.007813,786.178955C899.075867,786.493347,899.120911,786.812378,899.135254,787.133789L899.211426,789.028748C899.277893,790.683899,900.673279,791.971924,902.328491,791.905945L922.643311,791.096191L949.593262,791.096191L998.25,803.110107L998.449707,803.190918L998.638672,803.293945L998.736084,803.376709L998.823975,803.46875L998.920654,803.585938L998.993408,803.718262L999.04248,803.861572L999.067383,804.012207L999.086426,804.177979L999.086548,804.59729C999.087158,806.253723,1000.430115,807.596191,1002.086487,807.596191L1003.991211,807.596191C1006.218018,807.600708,1008.172485,809.073669,1008.795898,811.211426C1009.556824,813.832764,1008.072083,816.580139,1005.462402,817.379883C1004.985107,817.523132,1004.489624,817.596191,1003.991211,817.596191L1002.092407,817.596191C1001.29657,817.596191,1000.533325,817.912415,999.970703,818.475281C999.408081,819.038086,999.092102,819.801453,999.092407,820.59729L999.1073,861.747192C999.10791,863.403625,1000.450928,864.746094,1002.1073,864.746094L1003.991211,864.746094C1005.332886,864.748718,1006.619202,865.286133,1007.560181,866.242493C1008.501221,867.198914,1009.017578,868.493774,1008.990173,869.835205C1008.97229,870.716431,1008.723328,871.576599,1008.274902,872.335449C1007.370483,873.836487,1005.743591,874.750488,1003.991211,874.746094L1002.112976,874.746094C1001.3172,874.746094,1000.554016,875.062317,999.991333,875.625122C999.428711,876.187927,999.112793,876.951294,999.113037,877.74707L999.113281,878.406006L999.11084,878.496338L999.099365,878.585205C999.086304,878.650085,999.070618,878.714478,999.048096,878.776855C999.019531,878.844055,998.984985,878.908386,998.948242,878.971436C998.875122,879.107422,998.77179,879.225647,998.64209,879.309082C998.535706,879.362732,998.428101,879.413757,998.319336,879.462402L961.143066,890.095947L911.797363,890.095947L867.489502,902.862305L867.307617,902.892822L867.123535,902.904053L866.94458,902.879395C866.774597,902.822327,866.614014,902.74176,866.466797,902.639404L866.338623,902.509033L866.231934,902.355713L865.684937,901.406067C864.858398,899.971191,863.025574,899.477356,861.590027,900.302734L859.929443,901.257568C858.053894,902.33075,855.70166,902.08551,854.093506,900.64209C852.11731,898.877869,851.865662,895.875549,853.519531,893.806152C853.917664,893.317871,854.398621,892.903015,854.94458,892.588623L856.594604,891.639832C857.284668,891.243042,857.788757,890.588257,857.99585,889.81958C858.203003,889.050964,858.096069,888.231567,857.698792,887.541748L857.138672,886.569336C857.101257,886.470337,857.069458,886.369385,857.03833,886.268311C857.021179,886.163635,857.003723,886.059143,856.999756,885.953125L857.041504,885.7146L861.918457,870.49585L861.91748,794.574463C861.937744,794.43927,861.96228,794.30481,861.993164,794.171631L862.083008,793.99292L862.202637,793.834473L862.354736,793.702148L862.523926,793.592285L862.709961,793.51416L862.911377,793.47876L862.966064,793.474854L886.34137,792.543091C887.136536,792.511414,887.886536,792.165039,888.42627,791.580322C888.966064,790.995544,889.251404,790.220276,889.219421,789.42511L889.143555,787.535156C889.10553,786.704834,889.282043,785.878601,889.651123,785.133789C890.51123,783.359375,892.341309,782.26239,894.311768,782.337158z"/>
    <ellipse transform="matrix(-0,-1,-1,0,-12.740967,-505.720062)" style="stroke:#000000;stroke-width:0.050000mm;fill:none" rx="2.60009" ry="2.600024" cx="0" cy="0"/>
    <ellipse transform="matrix(-0,-1,-1,0,44.408936,-505.720062)" style="stroke:#000000;stroke-width:0.050000mm;fill:none" rx="2.60009" ry="2.600024" cx="0" cy="0"/>
    <ellipse transform="matrix(0.999194,0.04013,0.040132,-0.999155,-38.002197,-615.572144)" style="stroke:#000000;stroke-width:0.050002mm;fill:none" rx="2.60009" ry="2.600024" cx="0" cy="0"/>
    <circle transform="matrix(-0.498488,0.866897,0.866897,0.498488,71.586304,-652.273987)" style="stroke:#000000;stroke-width:0.050000mm;fill:none" r="2.600024" cx="0" cy="0"/>
    <path transform="matrix(0.000001,0.762738,-0.76236,0.000001,-75.268433,-676.960083)" style="stroke:#000000;stroke-width:0.065586mm;fill:none" d="M56.061665,-165.486618C56.66217,-166.087387,57.565563,-166.267166,58.35022,-165.941833C59.135052,-165.617004,59.646511,-164.851089,59.646584,-164.001694C59.64661,-163.789978,59.614971,-163.579422,59.55217,-163.377228C59.278805,-162.499329,58.466057,-161.901367,57.546589,-161.901703L57.467213,-161.903198C56.647224,-161.934189,55.920368,-162.439911,55.606445,-163.198059L55.577446,-163.271957C55.292225,-164.041382,55.48127,-164.906525,56.061665,-165.486618z"/>
    <path transform="matrix(0.000001,0.762753,-0.762157,0.000001,-87.833923,-652.470703)" style="stroke:#000000;stroke-width:0.065603mm;fill:none" d="M159.286453,-112.511726L159.343628,-112.566803C159.945404,-113.124641,160.81691,-113.28096,161.575012,-112.966949C162.359741,-112.641983,162.871094,-111.87616,162.871368,-111.026802C162.871597,-110.46981,162.650345,-109.935532,162.256287,-109.541893C162.182861,-109.468521,162.104126,-109.400681,162.020737,-109.338882C161.65921,-109.07119,161.221222,-108.926781,160.771378,-108.926811L160.692001,-108.928299C159.871979,-108.959137,159.145142,-109.464996,158.831223,-110.223183L158.802231,-110.297073C158.517242,-111.066566,158.706039,-111.931679,159.286453,-112.511726z"/>
    <path transform="matrix(0.000001,0.762735,-0.762381,0.000001,-89.998596,-670.547852)" style="stroke:#000000;stroke-width:0.065584mm;fill:none" d="M83.086609,-103.511742C83.687126,-104.112457,84.590462,-104.292152,85.37516,-103.966957C86.159859,-103.641838,86.671669,-102.876213,86.671524,-102.026817C86.672249,-101.539284,86.502632,-101.066788,86.191986,-100.691032C85.793449,-100.206596,85.19883,-99.926147,84.571533,-99.926826L84.492157,-99.928322C83.672195,-99.959396,82.945427,-100.465111,82.631386,-101.22319L82.602394,-101.297089C82.317093,-102.066483,82.506317,-102.931549,83.086609,-103.511742z"/>
    <path transform="matrix(0.000001,0.762745,-0.762402,0.000001,-80.354492,-670.548279)" style="stroke:#000000;stroke-width:0.065582mm;fill:none" d="M83.086609,-144.111664C83.687225,-144.712219,84.590385,-144.891739,85.37516,-144.566879C86.159882,-144.241821,86.671616,-143.47612,86.671524,-142.62674C86.671989,-142.242737,86.566849,-141.866013,86.3675,-141.537811C85.986816,-140.909897,85.305832,-140.526276,84.571533,-140.526749L84.492157,-140.528229C83.672188,-140.559296,82.945419,-141.065018,82.631386,-141.823105L82.602394,-141.897003C82.317192,-142.666412,82.506416,-143.531403,83.086609,-144.111664z"/>
    <path transform="matrix(0.000001,0.762734,-0.7624,0.000001,-78.809448,-652.468262)" style="stroke:#000000;stroke-width:0.065582mm;fill:none" d="M161.575012,-151.066864C162.359558,-150.741516,162.871292,-149.976059,162.871368,-149.126724C162.871506,-148.569763,162.650146,-148.035614,162.256287,-147.6418L162.180832,-147.569992C161.7948,-147.220169,161.292343,-147.026657,160.771378,-147.026733L160.692001,-147.028229C159.871994,-147.059219,159.14505,-147.56488,158.831223,-148.32309L158.802231,-148.396988C158.516922,-149.166382,158.706207,-150.031418,159.286453,-150.611649C159.886841,-151.212479,160.790176,-151.391663,161.575012,-151.066864z"/>
    <path transform="matrix(0,1,1,-0,-825.336914,-1509.710938)" style="stroke:#000000;stroke-width:0.050000mm;fill:none" d="M894.311768,782.337158C896.566956,782.406677,898.495728,783.981567,899.007813,786.178955C899.075867,786.493347,899.120911,786.812378,899.135254,787.133789L899.211426,789.028748C899.277893,790.683899,900.673279,791.971924,902.328491,791.905945L922.643311,791.096191L949.593262,791.096191L998.25,803.110107L998.449707,803.190918L998.638672,803.293945L998.736084,803.376709L998.823975,803.46875L998.920654,803.585938L998.993408,803.718262L999.04248,803.861572L999.067383,804.012207L999.086426,804.177979L999.086548,804.59729C999.087158,806.253723,1000.430115,807.596191,1002.086487,807.596191L1003.991211,807.596191C1006.218018,807.600708,1008.172485,809.073669,1008.795898,811.211426C1009.556824,813.832764,1008.072083,816.580139,1005.462402,817.379883C1004.985107,817.523132,1004.489624,817.596191,1003.991211,817.596191L1002.092407,817.596191C1001.29657,817.596191,1000.533325,817.912415,999.970703,818.475281C999.408081,819.038086,999.092102,819.801453,999.092407,820.59729L999.1073,861.747192C999.10791,863.403625,1000.450928,864.746094,1002.1073,864.746094L1003.991211,864.746094C1005.332886,864.748718,1006.619202,865.286133,1007.560181,866.242493C1008.501221,867.198914,1009.017578,868.493774,1008.990173,869.835205C1008.97229,870.716431,1008.723328,871.576599,1008.274902,872.335449C1007.370483,873.836487,1005.743591,874.750488,1003.991211,874.746094L1002.112976,874.746094C1001.3172,874.746094,1000.554016,875.062317,999.991333,875.625122C999.428711,876.187927,999.112793,876.951294,999.113037,877.74707L999.113281,878.406006L999.11084,878.496338L999.099365,878.585205C999.086304,878.650085,999.070618,878.714478,999.048096,878.776855C999.019531,878.844055,998.984985,878.908386,998.948242,878.971436C998.875122,879.107422,998.77179,879.225647,998.64209,879.309082C998.535706,879.362732,998.428101,879.413757,998.319336,879.462402L961.143066,890.095947L911.797363,890.095947L867.489502,902.862305L867.307617,902.892822L867.123535,902.904053L866.94458,902.879395C866.774597,902.822327,866.614014,902.74176,866.466797,902.639404L866.338623,902.509033L866.231934,902.355713L865.684937,901.406067C864.858398,899.971191,863.025574,899.477356,861.590027,900.302734L859.929443,901.257568C858.053894,902.33075,855.70166,902.08551,854.093506,900.64209C852.11731,898.877869,851.865662,895.875549,853.519531,893.806152C853.917664,893.317871,854.398621,892.903015,854.94458,892.588623L856.594604,891.639832C857.284668,891.243042,857.788757,890.588257,857.99585,889.81958C858.203003,889.050964,858.096069,888.231567,857.698792,887.541748L857.138672,886.569336C857.101257,886.470337,857.069458,886.369385,857.03833,886.268311C857.021179,886.163635,857.003723,886.059143,856.999756,885.953125L857.041504,885.7146L861.918457,870.49585L861.91748,794.574463C861.937744,794.43927,861.96228,794.30481,861.993164,794.171631L862.083008,793.99292L862.202637,793.834473L862.354736,793.702148L862.523926,793.592285L862.709961,793.51416L862.911377,793.47876L862.966064,793.474854L886.34137,792.543091C887.136536,792.511414,887.886536,792.165039,888.42627,791.580322C888.966064,790.995544,889.251404,790.220276,889.219421,789.42511L889.143555,787.535156C889.10553,786.704834,889.282043,785.878601,889.651123,785.133789C890.51123,783.359375,892.341309,782.26239,894.311768,782.337158z"/>
</svg>
