<?xml version="1.0" encoding="UTF-8" standalone="no"?>
<svg xmlns="http://www.w3.org/2000/svg" xmlns:xlink="http://www.w3.org/1999/xlink" width="215.922mm" height="142.113mm" viewBox="-1288.537476 -671.650146 215.921997 142.113403">
    <path transform="matrix(0,-1,-1,-0,-806.633423,120.196899)" style="stroke:#000000;stroke-width:0.050000mm;fill:none" d="M653.652466,422.512451L674.347534,422.512451L674.543518,422.531738L674.730164,422.588501L674.902283,422.680481L675.054626,422.805328L675.179565,422.957642L675.271484,423.129761L675.328186,423.316437L675.347534,423.512451L675.347534,480.487549L675.333801,480.652802L675.293274,480.812439L675.227173,480.963257L675.136475,481.102081L675.096985,481.149628L675.036865,481.212006L674.88678,481.329651L674.718689,481.416077L674.537354,481.46936L674.347534,481.487549L653.627686,481.487244L653.438354,481.464386L653.258362,481.406647L653.092468,481.31604L652.945374,481.194641L652.92804,481.17688L652.810364,481.026825L652.723938,480.858734L652.670654,480.677368L652.652466,480.487549L652.652832,423.48761L652.675598,423.298279L652.733337,423.118286L652.823975,422.952393L652.945374,422.805328L653.097717,422.680511L653.269836,422.588654L653.456543,422.531891L653.652466,422.512451z"/>
    <path transform="matrix(0,-1,-1,-0,-807.133423,120.196899)" style="stroke:#000000;stroke-width:0.050000mm;fill:none" d="M655.098938,424.587891L655.361267,424.393555L655.662354,424.286163L655.981506,424.269897L656.298096,424.348907L656.577637,424.517365L656.79187,424.754974L656.929016,425.044189L656.977356,425.367432L656.963501,425.542847L656.921692,425.713745L656.813599,425.945953L656.65509,426.147003L656.635498,426.166107L656.470398,426.295898L656.285461,426.391174L656.085876,426.44989L655.877014,426.469879L655.794128,426.466766L655.495972,426.401794L655.231628,426.260437L655.015076,426.052856L654.860413,425.789337L654.831543,425.711426L654.777344,425.410553L654.806519,425.111755L654.9151,424.831909L655.098938,424.587891z"/>
    <path transform="matrix(0,-1,-1,-0,-807.133423,120.196899)" style="stroke:#000000;stroke-width:0.050000mm;fill:none" d="M672.548157,424.348907L672.827698,424.517395L673.041931,424.755005L673.179077,425.044189L673.227417,425.367432L673.203674,425.595703L673.133057,425.814026L673.034485,425.991089L672.905151,426.147003L672.885559,426.166107L672.720337,426.295715L672.5354,426.390961L672.335876,426.449707L672.127014,426.469879L672.044128,426.466766L671.746033,426.401642L671.48175,426.260254L671.265198,426.052765L671.110413,425.789337L671.081604,425.711395L671.027405,425.410522L671.05658,425.111725L671.1651,424.831879L671.348938,424.58786L671.611206,424.393433L671.912292,424.286102L672.231506,424.269897L672.548157,424.348907z"/>
    <path transform="matrix(-0,1,-1,-0,-702.519165,-1320.382446)" style="stroke:#000000;stroke-width:0.050000mm;fill:none" d="M653.652466,422.512451L674.347534,422.512451L674.543518,422.531738L674.730164,422.588501L674.902283,422.680481L675.054626,422.805328L675.179565,422.957642L675.271484,423.129761L675.328186,423.316437L675.347534,423.512451L675.347534,480.487549L675.333801,480.652802L675.293274,480.812439L675.227173,480.963257L675.136475,481.102081L675.096985,481.149628L675.036865,481.212006L674.88678,481.329651L674.718689,481.416077L674.537354,481.46936L674.347534,481.487549L653.627686,481.487244L653.438354,481.464386L653.258362,481.406647L653.092468,481.31604L652.945374,481.194641L652.92804,481.17688L652.810364,481.026825L652.723938,480.858734L652.670654,480.677368L652.652466,480.487549L652.652832,423.48761L652.675598,423.298279L652.733337,423.118286L652.823975,422.952393L652.945374,422.805328L653.097717,422.680511L653.269836,422.588654L653.456543,422.531891L653.652466,422.512451z"/>
    <path transform="matrix(-0,1,-1,-0,-703.019165,-1320.382446)" style="stroke:#000000;stroke-width:0.050000mm;fill:none" d="M655.098938,424.587891L655.361267,424.393555L655.662354,424.286163L655.981506,424.269897L656.298096,424.348907L656.577637,424.517365L656.79187,424.754974L656.929016,425.044189L656.977356,425.367432L656.963501,425.542847L656.921692,425.713745L656.813599,425.945953L656.65509,426.147003L656.635498,426.166107L656.470398,426.295898L656.285461,426.391174L656.085876,426.44989L655.877014,426.469879L655.794128,426.466766L655.495972,426.401794L655.231628,426.260437L655.015076,426.052856L654.860413,425.789337L654.831543,425.711426L654.777344,425.410553L654.806519,425.111755L654.9151,424.831909L655.098938,424.587891z"/>
    <path transform="matrix(-0,1,-1,-0,-703.019165,-1320.382446)" style="stroke:#000000;stroke-width:0.050000mm;fill:none" d="M672.548157,424.348907L672.827698,424.517395L673.041931,424.755005L673.179077,425.044189L673.227417,425.367432L673.203674,425.595703L673.133057,425.814026L673.034485,425.991089L672.905151,426.147003L672.885559,426.166107L672.720337,426.295715L672.5354,426.390961L672.335876,426.449707L672.127014,426.469879L672.044128,426.466766L671.746033,426.401642L671.48175,426.260254L671.265198,426.052765L671.110413,425.789337L671.081604,425.711395L671.027405,425.410522L671.05658,425.111725L671.1651,424.831879L671.348938,424.58786L671.611206,424.393433L671.912292,424.286102L672.231506,424.269897L672.548157,424.348907z"/>
    <path transform="matrix(0,-1,-1,-0,-1368.539429,-491.633789)" style="stroke:#000000;stroke-width:0.050000mm;fill:none" d="M53.818771,-168.839508L41.694443,-175.839493L48.694427,-187.963821L60.818756,-180.963837L53.818771,-168.839508z"/>
    <path transform="matrix(-0,1,-1,-0,-1264.425293,-709.553284)" style="stroke:#000000;stroke-width:0.050000mm;fill:none" d="M47.135223,-191.261353L38.042027,-175.475281C37.901546,-175.223206,37.86404,-174.926529,37.937492,-174.647446L37.944923,-174.620529L42.821873,-159.401703L42.821617,-142.356735C42.821709,-142.100113,42.920258,-141.853287,43.097172,-141.667404L43.11451,-141.649628C43.296021,-141.468246,43.540268,-141.363632,43.796783,-141.357056L43.821613,-141.356735L64.516571,-141.356735C64.781754,-141.356491,65.035995,-141.25119,65.223679,-141.063843C65.411316,-140.876389,65.516747,-140.621979,65.516571,-140.35675L65.516571,-82.478867C65.516304,-81.961441,65.910973,-81.529312,66.426315,-81.482925L66.476242,-81.479683L103.546494,-80.001869L130.496429,-80.001869L179.153198,-92.015816C179.2435,-92.038582,179.330978,-92.071533,179.412781,-92.116051C179.767944,-92.308403,179.98877,-92.679848,179.989532,-93.083748L180.01651,-167.311691C180.016846,-167.801361,179.693207,-168.232452,179.222717,-168.368164L142.046417,-179.001663L92.700645,-179.001663L48.392761,-191.768204C47.906956,-191.908752,47.38805,-191.699432,47.135223,-191.261353z"/>
    <path transform="matrix(-0,1,-1,-0,-1264.425293,-709.553223)" style="stroke:#000000;stroke-width:0.050000mm;fill:none" d="M53.818771,-168.839508L41.694443,-175.839493L48.694427,-187.963821L60.818756,-180.963837L53.818771,-168.839508z"/>
    <path transform="matrix(-0,1,-1,-0,-1264.425293,-709.553223)" style="stroke:#000000;stroke-width:0.050000mm;fill:none" d="M163.296371,-132.601761L163.296371,-146.60173L177.296341,-146.60173L177.296341,-132.601761L163.296371,-132.601761z"/>
    <path transform="matrix(-0,1,-1,-0,-1264.425293,-709.553223)" style="stroke:#000000;stroke-width:0.050000mm;fill:none" d="M125.196449,-85.541855L125.196449,-99.541832L139.196411,-99.541832L139.196411,-85.541855L125.196449,-85.541855z"/>
    <path transform="matrix(-0,0.52438,-0.524134,-0,-1215.874268,-669.328247)" style="stroke:#000000;stroke-width:0.095395mm;fill:none" d="M83.086609,-103.511742C83.687126,-104.112457,84.590462,-104.292152,85.37516,-103.966957C86.159859,-103.641838,86.671669,-102.876213,86.671524,-102.026817C86.672249,-101.539284,86.502632,-101.066788,86.191986,-100.691032C85.793449,-100.206596,85.19883,-99.926147,84.571533,-99.926826L84.492157,-99.928322C83.672195,-99.959396,82.945427,-100.465111,82.631386,-101.22319L82.602394,-101.297089C82.317093,-102.066483,82.506317,-102.931549,83.086609,-103.511742z"/>
    <path transform="matrix(-0,1,-1,-0,-1264.425293,-709.553223)" style="stroke:#000000;stroke-width:0.050000mm;fill:none" d="M120.146446,-102.091827L106.146477,-102.091827L106.146477,-116.091797L120.146446,-116.091797L120.146446,-102.091827z"/>
    <path transform="matrix(-0,1,-1,-0,-1264.425293,-709.553223)" style="stroke:#000000;stroke-width:0.050000mm;fill:none" d="M120.146446,-154.191711L120.146446,-140.191742L106.146477,-140.191742L106.146477,-154.191711L120.146446,-154.191711z"/>
    <path transform="matrix(-0,1,-1,-0,-1264.425293,-709.553223)" style="stroke:#000000;stroke-width:0.050000mm;fill:none" d="M158.246384,-94.501839L144.246399,-94.501839L144.246399,-108.501808L158.246384,-108.501808L158.246384,-94.501839z"/>
    <path transform="matrix(-0,0.524387,-0.524158,-0,-1196.55835,-669.328247)" style="stroke:#000000;stroke-width:0.095391mm;fill:none" d="M83.086609,-144.111664C83.687225,-144.712219,84.590385,-144.891739,85.37516,-144.566879C86.159882,-144.241821,86.671616,-143.47612,86.671524,-142.62674C86.671989,-142.242737,86.566849,-141.866013,86.3675,-141.537811C85.986816,-140.909897,85.305832,-140.526276,84.571533,-140.526749L84.492157,-140.528229C83.672188,-140.559296,82.945419,-141.065018,82.631386,-141.823105L82.602394,-141.897003C82.317192,-142.666412,82.506416,-143.531403,83.086609,-144.111664z"/>
    <path transform="matrix(-0,1,-1,-0,-1264.425293,-709.553223)" style="stroke:#000000;stroke-width:0.050000mm;fill:none" d="M87.096527,-104.601822L87.096527,-118.601791L101.096497,-118.601791L101.096497,-104.601822L87.096527,-104.601822z"/>
    <path transform="matrix(-0,1,-1,-0,-1264.425293,-709.553223)" style="stroke:#000000;stroke-width:0.050000mm;fill:none" d="M163.296371,-113.551804L163.296371,-127.551773L177.296341,-127.551773L177.296341,-113.551804L163.296371,-113.551804z"/>
    <path transform="matrix(-0,1,-1,-0,-1264.425293,-709.553223)" style="stroke:#000000;stroke-width:0.050000mm;fill:none" d="M87.096527,-142.701736L87.096527,-156.701706L101.096497,-156.701706L101.096497,-142.701736L87.096527,-142.701736z"/>
    <path transform="matrix(-0,1,-1,-0,-1264.425293,-709.553223)" style="stroke:#000000;stroke-width:0.050000mm;fill:none" d="M158.246384,-146.60173L158.246384,-132.601761L144.246399,-132.601761L144.246399,-146.60173L158.246384,-146.60173z"/>
    <path transform="matrix(-0,1,-1,-0,-1264.425293,-709.553223)" style="stroke:#000000;stroke-width:0.050000mm;fill:none" d="M87.096527,-175.701675L101.096497,-175.701675L101.096497,-161.701706L87.096527,-161.701706L87.096527,-175.701675z"/>
    <path transform="matrix(-0,1,-1,-0,-1264.425293,-709.553223)" style="stroke:#000000;stroke-width:0.050000mm;fill:none" d="M80.719749,-178.35141L77.096291,-164.828476L63.57336,-168.451935L67.196815,-181.974869L80.719749,-178.35141z"/>
    <path transform="matrix(-0,1,-1,-0,-1264.425293,-709.553223)" style="stroke:#000000;stroke-width:0.050000mm;fill:none" d="M120.146446,-83.001862L106.146477,-83.001862L106.146477,-97.001839L120.146446,-97.001839L120.146446,-83.001862z"/>
    <path transform="matrix(-0,1,-1,-0,-1264.425293,-709.553223)" style="stroke:#000000;stroke-width:0.050000mm;fill:none" d="M106.146477,-135.191757L120.146446,-135.191757L120.146446,-121.191788L106.146477,-121.191788L106.146477,-135.191757z"/>
    <path transform="matrix(-0,0.524395,-0.523983,-0,-1211.575317,-633.088257)" style="stroke:#000000;stroke-width:0.095423mm;fill:none" d="M159.286453,-112.511726L159.343628,-112.566803C159.945404,-113.124641,160.81691,-113.28096,161.575012,-112.966949C162.359741,-112.641983,162.871094,-111.87616,162.871368,-111.026802C162.871597,-110.46981,162.650345,-109.935532,162.256287,-109.541893C162.182861,-109.468521,162.104126,-109.400681,162.020737,-109.338882C161.65921,-109.07119,161.221222,-108.926781,160.771378,-108.926811L160.692001,-108.928299C159.871979,-108.959137,159.145142,-109.464996,158.831223,-110.223183L158.802231,-110.297073C158.517242,-111.066566,158.706039,-111.931679,159.286453,-112.511726z"/>
    <path transform="matrix(-0,1,-1,-0,-1264.425293,-709.553223)" style="stroke:#000000;stroke-width:0.050000mm;fill:none" d="M144.246399,-151.651718L144.246399,-165.651688L158.246384,-165.651688L158.246384,-151.651718L144.246399,-151.651718z"/>
    <path transform="matrix(-0,1,-1,-0,-1264.425293,-709.553223)" style="stroke:#000000;stroke-width:0.050000mm;fill:none" d="M68.046562,-121.101784L82.046539,-121.101784L82.046539,-107.101807L68.046562,-107.101807L68.046562,-121.101784z"/>
    <path transform="matrix(-0,1,-1,-0,-1264.425293,-709.553223)" style="stroke:#000000;stroke-width:0.050000mm;fill:none" d="M82.046539,-88.001854L68.046562,-88.001854L68.046562,-102.001823L82.046539,-102.001823L82.046539,-88.001854z"/>
    <path transform="matrix(-0,1,-1,-0,-1264.425293,-709.553223)" style="stroke:#000000;stroke-width:0.050000mm;fill:none" d="M68.046562,-159.1017L82.046539,-159.1017L82.046539,-145.10173L68.046562,-145.10173L68.046562,-159.1017z"/>
    <path transform="matrix(-0,1,-1,-0,-1264.425293,-709.553223)" style="stroke:#000000;stroke-width:0.050000mm;fill:none" d="M139.196411,-118.541786L139.196411,-104.541817L125.196449,-104.541817L125.196449,-118.541786L139.196411,-118.541786z"/>
    <path transform="matrix(-0,1,-1,-0,-1264.425293,-709.553223)" style="stroke:#000000;stroke-width:0.050000mm;fill:none" d="M163.296371,-151.651718L163.296371,-165.651688L177.296341,-165.651688L177.296341,-151.651718L163.296371,-151.651718z"/>
    <path transform="matrix(-0,1,-1,-0,-1264.425293,-709.553223)" style="stroke:#000000;stroke-width:0.050000mm;fill:none" d="M82.046539,-126.101784L68.046562,-126.101784L68.046562,-140.101746L82.046539,-140.101746L82.046539,-126.101784z"/>
    <path transform="matrix(-0,0.52438,-0.524151,-0,-1193.464355,-633.086304)" style="stroke:#000000;stroke-width:0.095392mm;fill:none" d="M161.575012,-151.066864C162.359558,-150.741516,162.871292,-149.976059,162.871368,-149.126724C162.871506,-148.569763,162.650146,-148.035614,162.256287,-147.6418L162.180832,-147.569992C161.7948,-147.220169,161.292343,-147.026657,160.771378,-147.026733L160.692001,-147.028229C159.871994,-147.059219,159.14505,-147.56488,158.831223,-148.32309L158.802231,-148.396988C158.516922,-149.166382,158.706207,-150.031418,159.286453,-150.611649C159.886841,-151.212479,160.790176,-151.391663,161.575012,-151.066864z"/>
    <path transform="matrix(-0,1,-1,-0,-1264.425293,-709.553223)" style="stroke:#000000;stroke-width:0.050000mm;fill:none" d="M101.096497,-123.601784L87.096527,-123.601784L87.096527,-137.601746L101.096497,-137.601746L101.096497,-123.601784z"/>
    <path transform="matrix(-0,1,-1,-0,-1264.425293,-709.553223)" style="stroke:#000000;stroke-width:0.050000mm;fill:none" d="M139.196411,-175.801666L139.196411,-161.801697L125.196449,-161.801697L125.196449,-175.801666L139.196411,-175.801666z"/>
    <path transform="matrix(-0,1,-1,-0,-1264.425293,-709.553223)" style="stroke:#000000;stroke-width:0.050000mm;fill:none" d="M87.096527,-99.501831L101.096497,-99.501831L101.096497,-85.501862L87.096527,-85.501862L87.096527,-99.501831z"/>
    <path transform="matrix(-0,1,-1,-0,-1264.425293,-709.553223)" style="stroke:#000000;stroke-width:0.050000mm;fill:none" d="M139.196411,-156.701706L139.196411,-142.701736L125.196449,-142.701736L125.196449,-156.701706L139.196411,-156.701706z"/>
    <path transform="matrix(-0,1,-1,-0,-1264.425293,-709.553223)" style="stroke:#000000;stroke-width:0.050000mm;fill:none" d="M120.146446,-159.291702L106.146477,-159.291702L106.146477,-173.291672L120.146446,-173.291672L120.146446,-159.291702z"/>
    <path transform="matrix(-0,1,-1,-0,-1264.425293,-709.553223)" style="stroke:#000000;stroke-width:0.050000mm;fill:none" d="M125.196449,-137.601746L139.196411,-137.601746L139.196411,-123.601784L125.196449,-123.601784L125.196449,-137.601746z"/>
    <path transform="matrix(-0,1,-1,-0,-1264.425293,-709.553223)" style="stroke:#000000;stroke-width:0.050000mm;fill:none" d="M144.246399,-127.551773L158.246384,-127.551773L158.246384,-113.551804L144.246399,-113.551804L144.246399,-127.551773z"/>
    <path transform="matrix(-0,1,-1,-0,-1264.425293,-709.553223)" style="stroke:#000000;stroke-width:0.050000mm;fill:none" d="M163.296371,-108.501808L177.296341,-108.501808L177.296341,-94.501839L163.296371,-94.501839L163.296371,-108.501808z"/>
    <path transform="matrix(-0,1,-1,-0,-1264.425293,-709.553223)" style="stroke:#000000;stroke-width:0.050000mm;fill:none" d="M46.746609,-143.50174L46.746609,-155.501709L62.346577,-155.501709L62.346577,-149.501724L62.346577,-143.50174L46.746609,-143.50174z"/>
    <path transform="matrix(-0,0.52438,-0.524126,-0,-1186.381226,-682.181274)" style="stroke:#000000;stroke-width:0.095397mm;fill:none" d="M56.061665,-165.486618C56.66217,-166.087387,57.565563,-166.267166,58.35022,-165.941833C59.135052,-165.617004,59.646511,-164.851089,59.646584,-164.001694C59.64661,-163.789978,59.614971,-163.579422,59.55217,-163.377228C59.278805,-162.499329,58.466057,-161.901367,57.546589,-161.901703L57.467213,-161.903198C56.647224,-161.934189,55.920368,-162.439911,55.606445,-163.198059L55.577446,-163.271957C55.292225,-164.041382,55.48127,-164.906525,56.061665,-165.486618z"/>
    <path transform="matrix(0,-1,-1,-0,-1368.539429,-491.633667)" style="stroke:#000000;stroke-width:0.050000mm;fill:none" d="M47.135223,-191.261353L38.042027,-175.475281C37.901546,-175.223206,37.86404,-174.926529,37.937492,-174.647446L37.944923,-174.620529L42.821873,-159.401703L42.821617,-142.356735C42.821709,-142.100113,42.920258,-141.853287,43.097172,-141.667404L43.11451,-141.649628C43.296021,-141.468246,43.540268,-141.363632,43.796783,-141.357056L43.821613,-141.356735L64.516571,-141.356735C64.781754,-141.356491,65.035995,-141.25119,65.223679,-141.063843C65.411316,-140.876389,65.516747,-140.621979,65.516571,-140.35675L65.516571,-82.478867C65.516304,-81.961441,65.910973,-81.529312,66.426315,-81.482925L66.476242,-81.479683L103.546494,-80.001869L130.496429,-80.001869L179.153198,-92.015816C179.2435,-92.038582,179.330978,-92.071533,179.412781,-92.116051C179.767944,-92.308403,179.98877,-92.679848,179.989532,-93.083748L180.01651,-167.311691C180.016846,-167.801361,179.693207,-168.232452,179.222717,-168.368164L142.046417,-179.001663L92.700645,-179.001663L48.392761,-191.768204C47.906956,-191.908752,47.38805,-191.699432,47.135223,-191.261353z"/>
    <path transform="matrix(0,-1,-1,-0,-1368.539429,-491.633789)" style="stroke:#000000;stroke-width:0.050000mm;fill:none" d="M163.296371,-132.601761L163.296371,-146.60173L177.296341,-146.60173L177.296341,-132.601761L163.296371,-132.601761z"/>
    <path transform="matrix(0,-1,-1,-0,-1368.539429,-491.633789)" style="stroke:#000000;stroke-width:0.050000mm;fill:none" d="M125.196449,-85.541855L125.196449,-99.541832L139.196411,-99.541832L139.196411,-85.541855L125.196449,-85.541855z"/>
    <path transform="matrix(0,-0.52438,-0.524134,-0,-1319.988403,-531.858765)" style="stroke:#000000;stroke-width:0.095395mm;fill:none" d="M83.086609,-103.511742C83.687126,-104.112457,84.590462,-104.292152,85.37516,-103.966957C86.159859,-103.641838,86.671669,-102.876213,86.671524,-102.026817C86.672249,-101.539284,86.502632,-101.066788,86.191986,-100.691032C85.793449,-100.206596,85.19883,-99.926147,84.571533,-99.926826L84.492157,-99.928322C83.672195,-99.959396,82.945427,-100.465111,82.631386,-101.22319L82.602394,-101.297089C82.317093,-102.066483,82.506317,-102.931549,83.086609,-103.511742z"/>
    <path transform="matrix(0,-1,-1,-0,-1368.539429,-491.633789)" style="stroke:#000000;stroke-width:0.050000mm;fill:none" d="M120.146446,-102.091827L106.146477,-102.091827L106.146477,-116.091797L120.146446,-116.091797L120.146446,-102.091827z"/>
    <path transform="matrix(0,-1,-1,-0,-1368.539429,-491.633789)" style="stroke:#000000;stroke-width:0.050000mm;fill:none" d="M120.146446,-154.191711L120.146446,-140.191742L106.146477,-140.191742L106.146477,-154.191711L120.146446,-154.191711z"/>
    <path transform="matrix(0,-1,-1,-0,-1368.539429,-491.633789)" style="stroke:#000000;stroke-width:0.050000mm;fill:none" d="M158.246384,-94.501839L144.246399,-94.501839L144.246399,-108.501808L158.246384,-108.501808L158.246384,-94.501839z"/>
    <path transform="matrix(0,-0.524387,-0.524158,-0,-1300.672363,-531.858765)" style="stroke:#000000;stroke-width:0.095391mm;fill:none" d="M83.086609,-144.111664C83.687225,-144.712219,84.590385,-144.891739,85.37516,-144.566879C86.159882,-144.241821,86.671616,-143.47612,86.671524,-142.62674C86.671989,-142.242737,86.566849,-141.866013,86.3675,-141.537811C85.986816,-140.909897,85.305832,-140.526276,84.571533,-140.526749L84.492157,-140.528229C83.672188,-140.559296,82.945419,-141.065018,82.631386,-141.823105L82.602394,-141.897003C82.317192,-142.666412,82.506416,-143.531403,83.086609,-144.111664z"/>
    <path transform="matrix(0,-1,-1,-0,-1368.539429,-491.633789)" style="stroke:#000000;stroke-width:0.050000mm;fill:none" d="M87.096527,-104.601822L87.096527,-118.601791L101.096497,-118.601791L101.096497,-104.601822L87.096527,-104.601822z"/>
    <path transform="matrix(0,-1,-1,-0,-1368.539429,-491.633789)" style="stroke:#000000;stroke-width:0.050000mm;fill:none" d="M163.296371,-113.551804L163.296371,-127.551773L177.296341,-127.551773L177.296341,-113.551804L163.296371,-113.551804z"/>
    <path transform="matrix(0,-1,-1,-0,-1368.539429,-491.633789)" style="stroke:#000000;stroke-width:0.050000mm;fill:none" d="M87.096527,-142.701736L87.096527,-156.701706L101.096497,-156.701706L101.096497,-142.701736L87.096527,-142.701736z"/>
    <path transform="matrix(0,-1,-1,-0,-1368.539429,-491.633789)" style="stroke:#000000;stroke-width:0.050000mm;fill:none" d="M158.246384,-146.60173L158.246384,-132.601761L144.246399,-132.601761L144.246399,-146.60173L158.246384,-146.60173z"/>
    <path transform="matrix(0,-1,-1,-0,-1368.539429,-491.633789)" style="stroke:#000000;stroke-width:0.050000mm;fill:none" d="M87.096527,-175.701675L101.096497,-175.701675L101.096497,-161.701706L87.096527,-161.701706L87.096527,-175.701675z"/>
    <path transform="matrix(0,-1,-1,-0,-1368.539429,-491.633789)" style="stroke:#000000;stroke-width:0.050000mm;fill:none" d="M80.719749,-178.35141L77.096291,-164.828476L63.57336,-168.451935L67.196815,-181.974869L80.719749,-178.35141z"/>
    <path transform="matrix(0,-1,-1,-0,-1368.539429,-491.633789)" style="stroke:#000000;stroke-width:0.050000mm;fill:none" d="M120.146446,-83.001862L106.146477,-83.001862L106.146477,-97.001839L120.146446,-97.001839L120.146446,-83.001862z"/>
    <path transform="matrix(0,-1,-1,-0,-1368.539429,-491.633789)" style="stroke:#000000;stroke-width:0.050000mm;fill:none" d="M106.146477,-135.191757L120.146446,-135.191757L120.146446,-121.191788L106.146477,-121.191788L106.146477,-135.191757z"/>
    <path transform="matrix(0,-0.524395,-0.523983,-0,-1315.689331,-568.098755)" style="stroke:#000000;stroke-width:0.095423mm;fill:none" d="M159.286453,-112.511726L159.343628,-112.566803C159.945404,-113.124641,160.81691,-113.28096,161.575012,-112.966949C162.359741,-112.641983,162.871094,-111.87616,162.871368,-111.026802C162.871597,-110.46981,162.650345,-109.935532,162.256287,-109.541893C162.182861,-109.468521,162.104126,-109.400681,162.020737,-109.338882C161.65921,-109.07119,161.221222,-108.926781,160.771378,-108.926811L160.692001,-108.928299C159.871979,-108.959137,159.145142,-109.464996,158.831223,-110.223183L158.802231,-110.297073C158.517242,-111.066566,158.706039,-111.931679,159.286453,-112.511726z"/>
    <path transform="matrix(0,-1,-1,-0,-1368.539429,-491.633789)" style="stroke:#000000;stroke-width:0.050000mm;fill:none" d="M144.246399,-151.651718L144.246399,-165.651688L158.246384,-165.651688L158.246384,-151.651718L144.246399,-151.651718z"/>
    <path transform="matrix(0,-1,-1,-0,-1368.539429,-491.633789)" style="stroke:#000000;stroke-width:0.050000mm;fill:none" d="M68.046562,-121.101784L82.046539,-121.101784L82.046539,-107.101807L68.046562,-107.101807L68.046562,-121.101784z"/>
    <path transform="matrix(0,-1,-1,-0,-1368.539429,-491.633789)" style="stroke:#000000;stroke-width:0.050000mm;fill:none" d="M82.046539,-88.001854L68.046562,-88.001854L68.046562,-102.001823L82.046539,-102.001823L82.046539,-88.001854z"/>
    <path transform="matrix(0,-1,-1,-0,-1368.539429,-491.633789)" style="stroke:#000000;stroke-width:0.050000mm;fill:none" d="M68.046562,-159.1017L82.046539,-159.1017L82.046539,-145.10173L68.046562,-145.10173L68.046562,-159.1017z"/>
    <path transform="matrix(0,-1,-1,-0,-1368.539429,-491.633789)" style="stroke:#000000;stroke-width:0.050000mm;fill:none" d="M139.196411,-118.541786L139.196411,-104.541817L125.196449,-104.541817L125.196449,-118.541786L139.196411,-118.541786z"/>
    <path transform="matrix(0,-1,-1,-0,-1368.539429,-491.633789)" style="stroke:#000000;stroke-width:0.050000mm;fill:none" d="M163.296371,-151.651718L163.296371,-165.651688L177.296341,-165.651688L177.296341,-151.651718L163.296371,-151.651718z"/>
    <path transform="matrix(0,-1,-1,-0,-1368.539429,-491.633789)" style="stroke:#000000;stroke-width:0.050000mm;fill:none" d="M82.046539,-126.101784L68.046562,-126.101784L68.046562,-140.101746L82.046539,-140.101746L82.046539,-126.101784z"/>
    <path transform="matrix(0,-0.52438,-0.524151,-0,-1297.578369,-568.100708)" style="stroke:#000000;stroke-width:0.095392mm;fill:none" d="M161.575012,-151.066864C162.359558,-150.741516,162.871292,-149.976059,162.871368,-149.126724C162.871506,-148.569763,162.650146,-148.035614,162.256287,-147.6418L162.180832,-147.569992C161.7948,-147.220169,161.292343,-147.026657,160.771378,-147.026733L160.692001,-147.028229C159.871994,-147.059219,159.14505,-147.56488,158.831223,-148.32309L158.802231,-148.396988C158.516922,-149.166382,158.706207,-150.031418,159.286453,-150.611649C159.886841,-151.212479,160.790176,-151.391663,161.575012,-151.066864z"/>
    <path transform="matrix(0,-1,-1,-0,-1368.539429,-491.633789)" style="stroke:#000000;stroke-width:0.050000mm;fill:none" d="M101.096497,-123.601784L87.096527,-123.601784L87.096527,-137.601746L101.096497,-137.601746L101.096497,-123.601784z"/>
    <path transform="matrix(0,-1,-1,-0,-1368.539429,-491.633789)" style="stroke:#000000;stroke-width:0.050000mm;fill:none" d="M139.196411,-175.801666L139.196411,-161.801697L125.196449,-161.801697L125.196449,-175.801666L139.196411,-175.801666z"/>
    <path transform="matrix(0,-1,-1,-0,-1368.539429,-491.633789)" style="stroke:#000000;stroke-width:0.050000mm;fill:none" d="M87.096527,-99.501831L101.096497,-99.501831L101.096497,-85.501862L87.096527,-85.501862L87.096527,-99.501831z"/>
    <path transform="matrix(0,-1,-1,-0,-1368.539429,-491.633789)" style="stroke:#000000;stroke-width:0.050000mm;fill:none" d="M139.196411,-156.701706L139.196411,-142.701736L125.196449,-142.701736L125.196449,-156.701706L139.196411,-156.701706z"/>
    <path transform="matrix(0,-1,-1,-0,-1368.539429,-491.633789)" style="stroke:#000000;stroke-width:0.050000mm;fill:none" d="M120.146446,-159.291702L106.146477,-159.291702L106.146477,-173.291672L120.146446,-173.291672L120.146446,-159.291702z"/>
    <path transform="matrix(0,-1,-1,-0,-1368.539429,-491.633789)" style="stroke:#000000;stroke-width:0.050000mm;fill:none" d="M125.196449,-137.601746L139.196411,-137.601746L139.196411,-123.601784L125.196449,-123.601784L125.196449,-137.601746z"/>
    <path transform="matrix(0,-1,-1,-0,-1368.539429,-491.633789)" style="stroke:#000000;stroke-width:0.050000mm;fill:none" d="M144.246399,-127.551773L158.246384,-127.551773L158.246384,-113.551804L144.246399,-113.551804L144.246399,-127.551773z"/>
    <path transform="matrix(0,-1,-1,-0,-1368.539429,-491.633789)" style="stroke:#000000;stroke-width:0.050000mm;fill:none" d="M163.296371,-108.501808L177.296341,-108.501808L177.296341,-94.501839L163.296371,-94.501839L163.296371,-108.501808z"/>
    <path transform="matrix(0,-1,-1,-0,-1368.539429,-491.633789)" style="stroke:#000000;stroke-width:0.050000mm;fill:none" d="M46.746609,-143.50174L46.746609,-155.501709L62.346577,-155.501709L62.346577,-149.501724L62.346577,-143.50174L46.746609,-143.50174z"/>
    <path transform="matrix(0,-0.52438,-0.524126,-0,-1290.495361,-519.005737)" style="stroke:#000000;stroke-width:0.095397mm;fill:none" d="M56.061665,-165.486618C56.66217,-166.087387,57.565563,-166.267166,58.35022,-165.941833C59.135052,-165.617004,59.646511,-164.851089,59.646584,-164.001694C59.64661,-163.789978,59.614971,-163.579422,59.55217,-163.377228C59.278805,-162.499329,58.466057,-161.901367,57.546589,-161.901703L57.467213,-161.903198C56.647224,-161.934189,55.920368,-162.439911,55.606445,-163.198059L55.577446,-163.271957C55.292225,-164.041382,55.48127,-164.906525,56.061665,-165.486618z"/>
</svg>
