  0
SECTION
  2
HEADER
  9
$ACADVER
  1
AC1009
  0
ENDSEC
  0
SECTION
  2
TABLES
  0
TABLE
  2
LAYER
  70
1
  0
LAYER
  2
Layer_0
  70
0
  62
7
  6
CONTINUOUS
  0
ENDTAB
  0
ENDSEC
  0
SECTION
  2
ENTITIES
  0
CIRCLE
  5
90
  8
Layer_0
  62
7
  10
312.97516
  20
1154.2799
  30
0
  40
2.6000903
  0
CIRCLE
  5
90
  8
Layer_0
  62
7
  10
370.12506
  20
1154.2799
  30
0
  40
2.6000903
  0
ELLIPSE
  5
90
  8
Layer_0
  62
7
  10
287.71396
  20
1044.4277
  30
0
  11
2.5979919
  21
0.10437012
  31
0
  40
0.99994087
  41
0
  42
6.2831855
  0
CIRCLE
  5
90
  8
Layer_0
  62
7
  10
397.30249
  20
1007.726
  30
0
  40
2.600024
  0
POLYLINE
  5
90
  8
Layer_0
  62
7
  70
1
  66
1
  10
0
  20
0
  30
0
  0
VERTEX
  5
90
  8
Layer_0
  10
376.21985
  20
1026.1901
  42
0.30376687
  0
VERTEX
  5
91
  8
Layer_0
  10
376.448
  20
1027.3356
  42
0.30329015
  0
VERTEX
  5
92
  8
Layer_0
  10
375.47577
  20
1027.9845
  42
0.075381052
  0
VERTEX
  5
93
  8
Layer_0
  10
375.16284
  20
1027.9372
  42
0.32851094
  0
VERTEX
  5
94
  8
Layer_0
  10
374.42346
  20
1026.9333
  0
VERTEX
  5
95
  8
Layer_0
  10
374.42419
  20
1026.8936
  42
0.29319495
  0
VERTEX
  5
96
  8
Layer_0
  10
375.07306
  20
1025.9623
  0
VERTEX
  5
97
  8
Layer_0
  10
375.11011
  20
1025.9478
  42
0.29289568
  0
SEQEND
  0
POLYLINE
  5
99
  8
Layer_0
  62
7
  70
1
  66
1
  10
0
  20
0
  30
0
  0
VERTEX
  5
99
  8
Layer_0
  10
323.24643
  20
1129.4155
  0
VERTEX
  5
9a
  8
Layer_0
  10
323.27405
  20
1129.4441
  42
0.29341762
  0
VERTEX
  5
9b
  8
Layer_0
  10
323.47467
  20
1130.561
  42
0.30312238
  0
VERTEX
  5
9c
  8
Layer_0
  10
322.50192
  20
1131.2098
  42
0.19894262
  0
VERTEX
  5
9d
  8
Layer_0
  10
321.75745
  20
1130.902
  42
0.036842249
  0
VERTEX
  5
9e
  8
Layer_0
  10
321.65567
  20
1130.7841
  42
0.16092298
  0
VERTEX
  5
9f
  8
Layer_0
  10
321.44907
  20
1130.1588
  0
VERTEX
  5
a0
  8
Layer_0
  10
321.4498
  20
1130.119
  42
0.29329571
  0
VERTEX
  5
a1
  8
Layer_0
  10
322.09903
  20
1129.1876
  0
VERTEX
  5
a2
  8
Layer_0
  10
322.13608
  20
1129.1731
  42
0.29271622
  0
SEQEND
  0
POLYLINE
  5
a4
  8
Layer_0
  62
7
  70
1
  66
1
  10
0
  20
0
  30
0
  0
VERTEX
  5
a4
  8
Layer_0
  10
314.24478
  20
1053.2151
  42
0.30370034
  0
VERTEX
  5
a5
  8
Layer_0
  10
314.4729
  20
1054.3606
  42
0.30325977
  0
VERTEX
  5
a6
  8
Layer_0
  10
313.50067
  20
1055.0095
  42
0.17468548
  0
VERTEX
  5
a7
  8
Layer_0
  10
312.8313
  20
1054.7695
  42
0.22467194
  0
VERTEX
  5
a8
  8
Layer_0
  10
312.44833
  20
1053.9584
  0
VERTEX
  5
a9
  8
Layer_0
  10
312.4491
  20
1053.9186
  42
0.2931199
  0
VERTEX
  5
aa
  8
Layer_0
  10
313.09796
  20
1052.9872
  0
VERTEX
  5
ab
  8
Layer_0
  10
313.13498
  20
1052.9727
  42
0.2928823
  0
SEQEND
  0
POLYLINE
  5
ad
  8
Layer_0
  62
7
  70
1
  66
1
  10
0
  20
0
  30
0
  0
VERTEX
  5
ad
  8
Layer_0
  10
354.84448
  20
1053.2155
  42
0.30354485
  0
VERTEX
  5
ae
  8
Layer_0
  10
355.07263
  20
1054.361
  42
0.30325834
  0
VERTEX
  5
af
  8
Layer_0
  10
354.10034
  20
1055.0099
  42
0.1374896
  0
VERTEX
  5
b0
  8
Layer_0
  10
353.55466
  20
1054.8577
  42
0.2625299
  0
VERTEX
  5
b1
  8
Layer_0
  10
353.04797
  20
1053.9587
  0
VERTEX
  5
b2
  8
Layer_0
  10
353.04871
  20
1053.9191
  42
0.29313047
  0
VERTEX
  5
b3
  8
Layer_0
  10
353.69763
  20
1052.9876
  0
VERTEX
  5
b4
  8
Layer_0
  10
353.73465
  20
1052.9731
  42
0.29279839
  0
SEQEND
  0
POLYLINE
  5
b6
  8
Layer_0
  62
7
  70
1
  66
1
  10
0
  20
0
  30
0
  0
VERTEX
  5
b6
  8
Layer_0
  10
361.57288
  20
1130.5602
  42
0.30309891
  0
VERTEX
  5
b7
  8
Layer_0
  10
360.60062
  20
1131.2091
  42
0.19884231
  0
VERTEX
  5
b8
  8
Layer_0
  10
359.85648
  20
1130.9012
  0
VERTEX
  5
b9
  8
Layer_0
  10
359.8205
  20
1130.8635
  42
0.18635045
  0
VERTEX
  5
ba
  8
Layer_0
  10
359.54825
  20
1130.158
  0
VERTEX
  5
bb
  8
Layer_0
  10
359.54901
  20
1130.1182
  42
0.2932326
  0
VERTEX
  5
bc
  8
Layer_0
  10
360.19791
  20
1129.1868
  0
VERTEX
  5
bd
  8
Layer_0
  10
360.23492
  20
1129.1722
  42
0.292858
  0
VERTEX
  5
be
  8
Layer_0
  10
361.34476
  20
1129.4146
  42
0.30362832
  0
SEQEND
  0
POLYLINE
  5
c0
  8
Layer_0
  62
7
  70
1
  66
1
  10
0
  20
0
  30
0
  0
VERTEX
  5
c0
  8
Layer_0
  10
282.71667
  20
1044.6006
  42
-0.34001941
  0
VERTEX
  5
c1
  8
Layer_0
  10
286.55847
  20
1049.2966
  42
-0.042169374
  0
VERTEX
  5
c2
  8
Layer_0
  10
287.51331
  20
1049.4241
  0
VERTEX
  5
c3
  8
Layer_0
  10
289.40826
  20
1049.5002
  42
0.41412687
  0
VERTEX
  5
c4
  8
Layer_0
  10
292.28546
  20
1052.6173
  0
VERTEX
  5
c5
  8
Layer_0
  10
291.47571
  20
1072.9321
  0
VERTEX
  5
c6
  8
Layer_0
  10
291.47571
  20
1099.8821
  0
VERTEX
  5
c7
  8
Layer_0
  10
303.48962
  20
1148.5388
  0
VERTEX
  5
c8
  8
Layer_0
  10
303.57043
  20
1148.7385
  0
VERTEX
  5
c9
  8
Layer_0
  10
303.67346
  20
1148.9275
  0
VERTEX
  5
ca
  8
Layer_0
  10
303.75623
  20
1149.0249
  0
VERTEX
  5
cb
  8
Layer_0
  10
303.84827
  20
1149.1128
  0
VERTEX
  5
cc
  8
Layer_0
  10
303.96545
  20
1149.2095
  0
VERTEX
  5
cd
  8
Layer_0
  10
304.09778
  20
1149.2822
  0
VERTEX
  5
ce
  8
Layer_0
  10
304.24109
  20
1149.3313
  0
VERTEX
  5
cf
  8
Layer_0
  10
304.39172
  20
1149.3562
  0
VERTEX
  5
d0
  8
Layer_0
  10
304.5575
  20
1149.3752
  0
VERTEX
  5
d1
  8
Layer_0
  10
304.97681
  20
1149.3754
  42
0.41410564
  0
VERTEX
  5
d2
  8
Layer_0
  10
307.97571
  20
1152.3752
  0
VERTEX
  5
d3
  8
Layer_0
  10
307.97571
  20
1154.28
  42
-0.33278189
  0
VERTEX
  5
d4
  8
Layer_0
  10
311.59088
  20
1159.0847
  42
-0.40987095
  0
VERTEX
  5
d5
  8
Layer_0
  10
317.7594
  20
1155.7512
  42
-0.073022908
  0
VERTEX
  5
d6
  8
Layer_0
  10
317.97571
  20
1154.28
  0
VERTEX
  5
d7
  8
Layer_0
  10
317.97571
  20
1152.3812
  42
0.19896874
  0
VERTEX
  5
d8
  8
Layer_0
  10
318.8548
  20
1150.2595
  42
0.19896974
  0
VERTEX
  5
d9
  8
Layer_0
  10
320.97681
  20
1149.3812
  0
VERTEX
  5
da
  8
Layer_0
  10
362.12671
  20
1149.3961
  42
0.41410564
  0
VERTEX
  5
db
  8
Layer_0
  10
365.12561
  20
1152.3961
  0
VERTEX
  5
dc
  8
Layer_0
  10
365.12561
  20
1154.28
  42
-0.20051125
  0
VERTEX
  5
dd
  8
Layer_0
  10
366.62201
  20
1157.849
  42
-0.20211642
  0
VERTEX
  5
de
  8
Layer_0
  10
370.21466
  20
1159.2791
  42
-0.12906732
  0
VERTEX
  5
df
  8
Layer_0
  10
372.71497
  20
1158.5637
  42
-0.26362096
  0
VERTEX
  5
e0
  8
Layer_0
  10
375.12561
  20
1154.28
  0
VERTEX
  5
e1
  8
Layer_0
  10
375.12561
  20
1152.4019
  42
0.19894056
  0
VERTEX
  5
e2
  8
Layer_0
  10
376.00464
  20
1150.2802
  42
0.19894982
  0
VERTEX
  5
e3
  8
Layer_0
  10
378.12659
  20
1149.4019
  0
VERTEX
  5
e4
  8
Layer_0
  10
378.78552
  20
1149.4021
  0
VERTEX
  5
e5
  8
Layer_0
  10
378.87585
  20
1149.3997
  0
VERTEX
  5
e6
  8
Layer_0
  10
378.96472
  20
1149.3882
  42
-0.036974126
  0
VERTEX
  5
e7
  8
Layer_0
  10
379.15637
  20
1149.3369
  42
-0.031441522
  0
VERTEX
  5
e8
  8
Layer_0
  10
379.35095
  20
1149.2371
  42
-0.12712763
  0
VERTEX
  5
e9
  8
Layer_0
  10
379.6886
  20
1148.9309
  42
-0.011630303
  0
VERTEX
  5
ea
  8
Layer_0
  10
379.84192
  20
1148.6082
  0
VERTEX
  5
eb
  8
Layer_0
  10
390.47546
  20
1111.4319
  0
VERTEX
  5
ec
  8
Layer_0
  10
390.47546
  20
1062.0862
  0
VERTEX
  5
ed
  8
Layer_0
  10
403.24182
  20
1017.7783
  0
VERTEX
  5
ee
  8
Layer_0
  10
403.27234
  20
1017.5964
  0
VERTEX
  5
ef
  8
Layer_0
  10
403.28357
  20
1017.4124
  0
VERTEX
  5
f0
  8
Layer_0
  10
403.25891
  20
1017.2334
  42
-0.071029958
  0
VERTEX
  5
f1
  8
Layer_0
  10
403.01892
  20
1016.7556
  0
VERTEX
  5
f2
  8
Layer_0
  10
402.88855
  20
1016.6274
  0
VERTEX
  5
f3
  8
Layer_0
  10
402.73523
  20
1016.5208
  0
VERTEX
  5
f4
  8
Layer_0
  10
401.78558
  20
1015.9738
  42
0.41397657
  0
VERTEX
  5
f5
  8
Layer_0
  10
400.68225
  20
1011.8789
  0
VERTEX
  5
f6
  8
Layer_0
  10
401.63708
  20
1010.2183
  42
-0.32341523
  0
VERTEX
  5
f7
  8
Layer_0
  10
401.02161
  20
1004.3824
  42
-0.39833021
  0
VERTEX
  5
f8
  8
Layer_0
  10
394.18567
  20
1003.8084
  42
-0.091321543
  0
VERTEX
  5
f9
  8
Layer_0
  10
392.96814
  20
1005.2334
  0
VERTEX
  5
fa
  8
Layer_0
  10
392.01935
  20
1006.8835
  42
0.19901502
  0
VERTEX
  5
fb
  8
Layer_0
  10
390.1991
  20
1008.2847
  42
0.19901207
  0
VERTEX
  5
fc
  8
Layer_0
  10
387.92126
  20
1007.9876
  0
VERTEX
  5
fd
  8
Layer_0
  10
386.94885
  20
1007.4275
  42
-0.015646806
  0
VERTEX
  5
fe
  8
Layer_0
  10
386.64783
  20
1007.3272
  42
-0.031260662
  0
VERTEX
  5
ff
  8
Layer_0
  10
386.33264
  20
1007.2886
  0
VERTEX
  5
100
  8
Layer_0
  10
386.09412
  20
1007.3304
  0
VERTEX
  5
101
  8
Layer_0
  10
370.87537
  20
1012.2073
  0
VERTEX
  5
102
  8
Layer_0
  10
294.95398
  20
1012.2063
  42
-0.0197751
  0
VERTEX
  5
103
  8
Layer_0
  10
294.55115
  20
1012.282
  0
VERTEX
  5
104
  8
Layer_0
  10
294.37244
  20
1012.3718
  0
VERTEX
  5
105
  8
Layer_0
  10
294.21399
  20
1012.4915
  0
VERTEX
  5
106
  8
Layer_0
  10
294.08167
  20
1012.6436
  0
VERTEX
  5
107
  8
Layer_0
  10
293.9718
  20
1012.8127
  0
VERTEX
  5
108
  8
Layer_0
  10
293.89368
  20
1012.9988
  0
VERTEX
  5
109
  8
Layer_0
  10
293.85828
  20
1013.2002
  0
VERTEX
  5
10a
  8
Layer_0
  10
293.85437
  20
1013.2549
  0
VERTEX
  5
10b
  8
Layer_0
  10
292.92261
  20
1036.6301
  42
0.19895572
  0
VERTEX
  5
10c
  8
Layer_0
  10
291.95984
  20
1038.7151
  42
0.19896973
  0
VERTEX
  5
10d
  8
Layer_0
  10
289.80463
  20
1039.5082
  0
VERTEX
  5
10e
  8
Layer_0
  10
287.91467
  20
1039.4324
  42
-0.12713636
  0
VERTEX
  5
10f
  8
Layer_0
  10
285.51331
  20
1039.9399
  42
-0.29769618
  0
SEQEND
  0
CIRCLE
  5
111
  8
Layer_0
  62
7
  10
420.97543
  20
1007.7201
  30
0
  40
2.6000903
  0
CIRCLE
  5
111
  8
Layer_0
  62
7
  10
478.12534
  20
1007.7201
  30
0
  40
2.6000903
  0
ELLIPSE
  5
111
  8
Layer_0
  62
7
  10
395.71417
  20
1117.5723
  30
0
  11
2.5979919
  21
-0.10437012
  31
0
  40
0.99994087
  41
0
  42
6.2831855
  0
CIRCLE
  5
111
  8
Layer_0
  62
7
  10
505.30264
  20
1154.274
  30
0
  40
2.600024
  0
POLYLINE
  5
111
  8
Layer_0
  62
7
  70
1
  66
1
  10
0
  20
0
  30
0
  0
VERTEX
  5
111
  8
Layer_0
  10
484.22003
  20
1135.8099
  42
-0.30376687
  0
VERTEX
  5
112
  8
Layer_0
  10
484.44815
  20
1134.6644
  42
-0.30329015
  0
VERTEX
  5
113
  8
Layer_0
  10
483.47595
  20
1134.0156
  42
-0.075381052
  0
VERTEX
  5
114
  8
Layer_0
  10
483.16302
  20
1134.0628
  42
-0.32851094
  0
VERTEX
  5
115
  8
Layer_0
  10
482.42363
  20
1135.0667
  0
VERTEX
  5
116
  8
Layer_0
  10
482.42438
  20
1135.1064
  42
-0.29319495
  0
VERTEX
  5
117
  8
Layer_0
  10
483.07324
  20
1136.0378
  0
VERTEX
  5
118
  8
Layer_0
  10
483.11026
  20
1136.0523
  42
-0.29289568
  0
SEQEND
  0
POLYLINE
  5
11a
  8
Layer_0
  62
7
  70
1
  66
1
  10
0
  20
0
  30
0
  0
VERTEX
  5
11a
  8
Layer_0
  10
431.2467
  20
1032.5846
  0
VERTEX
  5
11b
  8
Layer_0
  10
431.27429
  20
1032.556
  42
-0.29341762
  0
VERTEX
  5
11c
  8
Layer_0
  10
431.47491
  20
1031.4391
  42
-0.30312238
  0
VERTEX
  5
11d
  8
Layer_0
  10
430.5022
  20
1030.7902
  42
-0.19894262
  0
VERTEX
  5
11e
  8
Layer_0
  10
429.75772
  20
1031.098
  42
-0.036842249
  0
VERTEX
  5
11f
  8
Layer_0
  10
429.65591
  20
1031.2159
  42
-0.16092298
  0
VERTEX
  5
120
  8
Layer_0
  10
429.44934
  20
1031.8413
  0
VERTEX
  5
121
  8
Layer_0
  10
429.45007
  20
1031.881
  42
-0.29329571
  0
VERTEX
  5
122
  8
Layer_0
  10
430.0993
  20
1032.8124
  0
VERTEX
  5
123
  8
Layer_0
  10
430.13632
  20
1032.827
  42
-0.29271622
  0
SEQEND
  0
POLYLINE
  5
125
  8
Layer_0
  62
7
  70
1
  66
1
  10
0
  20
0
  30
0
  0
VERTEX
  5
125
  8
Layer_0
  10
422.245
  20
1108.785
  42
-0.30370034
  0
VERTEX
  5
126
  8
Layer_0
  10
422.47311
  20
1107.6394
  42
-0.30325977
  0
VERTEX
  5
127
  8
Layer_0
  10
421.50089
  20
1106.9905
  42
-0.17468548
  0
VERTEX
  5
128
  8
Layer_0
  10
420.83148
  20
1107.2305
  42
-0.22467194
  0
VERTEX
  5
129
  8
Layer_0
  10
420.44855
  20
1108.0417
  0
VERTEX
  5
12a
  8
Layer_0
  10
420.44928
  20
1108.0814
  42
-0.2931199
  0
VERTEX
  5
12b
  8
Layer_0
  10
421.09818
  20
1109.0128
  0
VERTEX
  5
12c
  8
Layer_0
  10
421.13519
  20
1109.0273
  42
-0.2928823
  0
SEQEND
  0
POLYLINE
  5
12e
  8
Layer_0
  62
7
  70
1
  66
1
  10
0
  20
0
  30
0
  0
VERTEX
  5
12e
  8
Layer_0
  10
462.84467
  20
1108.7845
  42
-0.30354485
  0
VERTEX
  5
12f
  8
Layer_0
  10
463.07278
  20
1107.639
  42
-0.30325834
  0
VERTEX
  5
130
  8
Layer_0
  10
462.10052
  20
1106.9901
  42
-0.1374896
  0
VERTEX
  5
131
  8
Layer_0
  10
461.55482
  20
1107.1423
  42
-0.2625299
  0
VERTEX
  5
132
  8
Layer_0
  10
461.04816
  20
1108.0413
  0
VERTEX
  5
133
  8
Layer_0
  10
461.04889
  20
1108.081
  42
-0.29313047
  0
VERTEX
  5
134
  8
Layer_0
  10
461.6978
  20
1109.0124
  0
VERTEX
  5
135
  8
Layer_0
  10
461.73483
  20
1109.0269
  42
-0.29279839
  0
SEQEND
  0
POLYLINE
  5
137
  8
Layer_0
  62
7
  70
1
  66
1
  10
0
  20
0
  30
0
  0
VERTEX
  5
137
  8
Layer_0
  10
469.57315
  20
1031.4399
  42
-0.30309891
  0
VERTEX
  5
138
  8
Layer_0
  10
468.60089
  20
1030.791
  42
-0.19884231
  0
VERTEX
  5
139
  8
Layer_0
  10
467.85675
  20
1031.0988
  0
VERTEX
  5
13a
  8
Layer_0
  10
467.82077
  20
1031.1366
  42
-0.18635045
  0
VERTEX
  5
13b
  8
Layer_0
  10
467.54852
  20
1031.8421
  0
VERTEX
  5
13c
  8
Layer_0
  10
467.54926
  20
1031.8818
  42
-0.2932326
  0
VERTEX
  5
13d
  8
Layer_0
  10
468.19817
  20
1032.8133
  0
VERTEX
  5
13e
  8
Layer_0
  10
468.2352
  20
1032.8278
  42
-0.292858
  0
VERTEX
  5
13f
  8
Layer_0
  10
469.34503
  20
1032.5854
  42
-0.30362832
  0
SEQEND
  0
POLYLINE
  5
141
  8
Layer_0
  62
7
  70
1
  66
1
  10
0
  20
0
  30
0
  0
VERTEX
  5
141
  8
Layer_0
  10
390.71686
  20
1117.3995
  42
0.34001941
  0
VERTEX
  5
142
  8
Layer_0
  10
394.55865
  20
1112.7034
  42
0.042169374
  0
VERTEX
  5
143
  8
Layer_0
  10
395.51349
  20
1112.576
  0
VERTEX
  5
144
  8
Layer_0
  10
397.40845
  20
1112.4998
  42
-0.41412687
  0
VERTEX
  5
145
  8
Layer_0
  10
400.28564
  20
1109.3828
  0
VERTEX
  5
146
  8
Layer_0
  10
399.47589
  20
1089.0679
  0
VERTEX
  5
147
  8
Layer_0
  10
399.47589
  20
1062.118
  0
VERTEX
  5
148
  8
Layer_0
  10
411.48987
  20
1013.4612
  0
VERTEX
  5
149
  8
Layer_0
  10
411.57068
  20
1013.2615
  0
VERTEX
  5
14a
  8
Layer_0
  10
411.67371
  20
1013.0726
  0
VERTEX
  5
14b
  8
Layer_0
  10
411.75647
  20
1012.9752
  0
VERTEX
  5
14c
  8
Layer_0
  10
411.84851
  20
1012.8873
  0
VERTEX
  5
14d
  8
Layer_0
  10
411.9657
  20
1012.7906
  0
VERTEX
  5
14e
  8
Layer_0
  10
412.09802
  20
1012.7178
  0
VERTEX
  5
14f
  8
Layer_0
  10
412.24133
  20
1012.6688
  0
VERTEX
  5
150
  8
Layer_0
  10
412.39197
  20
1012.6439
  0
VERTEX
  5
151
  8
Layer_0
  10
412.55774
  20
1012.6248
  0
VERTEX
  5
152
  8
Layer_0
  10
412.97705
  20
1012.6247
  42
-0.41410564
  0
VERTEX
  5
153
  8
Layer_0
  10
415.97595
  20
1009.6248
  0
VERTEX
  5
154
  8
Layer_0
  10
415.97595
  20
1007.72
  42
0.33278189
  0
VERTEX
  5
155
  8
Layer_0
  10
419.59119
  20
1002.9153
  42
0.40987095
  0
VERTEX
  5
156
  8
Layer_0
  10
425.75964
  20
1006.2488
  42
0.073022908
  0
VERTEX
  5
157
  8
Layer_0
  10
425.97595
  20
1007.72
  0
VERTEX
  5
158
  8
Layer_0
  10
425.97595
  20
1009.6188
  42
-0.19896874
  0
VERTEX
  5
159
  8
Layer_0
  10
426.85504
  20
1011.7405
  42
-0.19896974
  0
VERTEX
  5
15a
  8
Layer_0
  10
428.97705
  20
1012.6188
  0
VERTEX
  5
15b
  8
Layer_0
  10
470.12695
  20
1012.6039
  42
-0.41410564
  0
VERTEX
  5
15c
  8
Layer_0
  10
473.12585
  20
1009.6039
  0
VERTEX
  5
15d
  8
Layer_0
  10
473.12585
  20
1007.72
  42
0.20051125
  0
VERTEX
  5
15e
  8
Layer_0
  10
474.62225
  20
1004.1511
  42
0.20211642
  0
VERTEX
  5
15f
  8
Layer_0
  10
478.21497
  20
1002.7211
  42
0.12906732
  0
VERTEX
  5
160
  8
Layer_0
  10
480.71521
  20
1003.4363
  42
0.26362096
  0
VERTEX
  5
161
  8
Layer_0
  10
483.12585
  20
1007.72
  0
VERTEX
  5
162
  8
Layer_0
  10
483.12585
  20
1009.5983
  42
-0.19894056
  0
VERTEX
  5
163
  8
Layer_0
  10
484.00488
  20
1011.7199
  42
-0.19894982
  0
VERTEX
  5
164
  8
Layer_0
  10
486.12683
  20
1012.5982
  0
VERTEX
  5
165
  8
Layer_0
  10
486.78577
  20
1012.598
  0
VERTEX
  5
166
  8
Layer_0
  10
486.8761
  20
1012.6004
  0
VERTEX
  5
167
  8
Layer_0
  10
486.96497
  20
1012.6119
  42
0.036974126
  0
VERTEX
  5
168
  8
Layer_0
  10
487.15662
  20
1012.6631
  42
0.031441522
  0
VERTEX
  5
169
  8
Layer_0
  10
487.3512
  20
1012.763
  42
0.12712763
  0
VERTEX
  5
16a
  8
Layer_0
  10
487.68884
  20
1013.0692
  42
0.011630303
  0
VERTEX
  5
16b
  8
Layer_0
  10
487.84216
  20
1013.3919
  0
VERTEX
  5
16c
  8
Layer_0
  10
498.47565
  20
1050.5682
  0
VERTEX
  5
16d
  8
Layer_0
  10
498.47565
  20
1099.9139
  0
VERTEX
  5
16e
  8
Layer_0
  10
511.242
  20
1144.2217
  0
VERTEX
  5
16f
  8
Layer_0
  10
511.27252
  20
1144.4036
  0
VERTEX
  5
170
  8
Layer_0
  10
511.28375
  20
1144.5877
  0
VERTEX
  5
171
  8
Layer_0
  10
511.25909
  20
1144.7667
  42
0.071029958
  0
VERTEX
  5
172
  8
Layer_0
  10
511.0191
  20
1145.2444
  0
VERTEX
  5
173
  8
Layer_0
  10
510.88873
  20
1145.3726
  0
VERTEX
  5
174
  8
Layer_0
  10
510.73541
  20
1145.4793
  0
VERTEX
  5
175
  8
Layer_0
  10
509.78577
  20
1146.0263
  42
-0.41397657
  0
VERTEX
  5
176
  8
Layer_0
  10
508.68243
  20
1150.1212
  0
VERTEX
  5
177
  8
Layer_0
  10
509.63727
  20
1151.7818
  42
0.32341523
  0
VERTEX
  5
178
  8
Layer_0
  10
509.02179
  20
1157.6177
  42
0.39833021
  0
VERTEX
  5
179
  8
Layer_0
  10
502.18585
  20
1158.1917
  42
0.091321543
  0
VERTEX
  5
17a
  8
Layer_0
  10
500.96832
  20
1156.7667
  0
VERTEX
  5
17b
  8
Layer_0
  10
500.01953
  20
1155.1166
  42
-0.19901502
  0
VERTEX
  5
17c
  8
Layer_0
  10
498.19928
  20
1153.7154
  42
-0.19901207
  0
VERTEX
  5
17d
  8
Layer_0
  10
495.92145
  20
1154.0125
  0
VERTEX
  5
17e
  8
Layer_0
  10
494.94904
  20
1154.5726
  42
0.015646806
  0
VERTEX
  5
17f
  8
Layer_0
  10
494.64801
  20
1154.6729
  42
0.031260662
  0
VERTEX
  5
180
  8
Layer_0
  10
494.33282
  20
1154.7115
  0
VERTEX
  5
181
  8
Layer_0
  10
494.0943
  20
1154.6697
  0
VERTEX
  5
182
  8
Layer_0
  10
478.87555
  20
1149.7928
  0
VERTEX
  5
183
  8
Layer_0
  10
402.95416
  20
1149.7938
  42
0.0197751
  0
VERTEX
  5
184
  8
Layer_0
  10
402.55133
  20
1149.7181
  0
VERTEX
  5
185
  8
Layer_0
  10
402.37262
  20
1149.6282
  0
VERTEX
  5
186
  8
Layer_0
  10
402.21417
  20
1149.5086
  0
VERTEX
  5
187
  8
Layer_0
  10
402.08185
  20
1149.3565
  0
VERTEX
  5
188
  8
Layer_0
  10
401.97198
  20
1149.1873
  0
VERTEX
  5
189
  8
Layer_0
  10
401.89386
  20
1149.0013
  0
VERTEX
  5
18a
  8
Layer_0
  10
401.85846
  20
1148.7999
  0
VERTEX
  5
18b
  8
Layer_0
  10
401.85455
  20
1148.7452
  0
VERTEX
  5
18c
  8
Layer_0
  10
400.92279
  20
1125.3699
  42
-0.19895572
  0
VERTEX
  5
18d
  8
Layer_0
  10
399.96002
  20
1123.285
  42
-0.19896973
  0
VERTEX
  5
18e
  8
Layer_0
  10
397.80481
  20
1122.4918
  0
VERTEX
  5
18f
  8
Layer_0
  10
395.91486
  20
1122.5677
  42
0.12713636
  0
VERTEX
  5
190
  8
Layer_0
  10
393.51349
  20
1122.0601
  42
0.29769618
  0
SEQEND
  0
ENDSEC
  0
EOF
