  0
SECTION
  2
HEADER
  9
$ACADVER
  1
AC1009
  0
ENDSEC
  0
SECTION
  2
TABLES
  0
TABLE
  2
LAYER
  70
1
  0
LAYER
  2
Layer_0
  70
0
  62
7
  6
CONTINUOUS
  0
ENDTAB
  0
ENDSEC
  0
SECTION
  2
ENTITIES
  0
POLYLINE
  5
90
  8
Layer_0
  62
7
  70
1
  66
1
  10
0
  20
0
  30
0
  0
VERTEX
  5
90
  8
Layer_0
  10
-529.14575
  20
1033.4556
  0
VERTEX
  5
91
  8
Layer_0
  10
-529.14575
  20
1054.1507
  0
VERTEX
  5
92
  8
Layer_0
  10
-529.16504
  20
1054.3467
  0
VERTEX
  5
93
  8
Layer_0
  10
-529.2218
  20
1054.5333
  0
VERTEX
  5
94
  8
Layer_0
  10
-529.31384
  20
1054.7054
  0
VERTEX
  5
95
  8
Layer_0
  10
-529.43872
  20
1054.8578
  0
VERTEX
  5
96
  8
Layer_0
  10
-529.59094
  20
1054.9827
  0
VERTEX
  5
97
  8
Layer_0
  10
-529.76306
  20
1055.0746
  0
VERTEX
  5
98
  8
Layer_0
  10
-529.94971
  20
1055.1313
  0
VERTEX
  5
99
  8
Layer_0
  10
-530.14575
  20
1055.1507
  0
VERTEX
  5
9a
  8
Layer_0
  10
-587.12085
  20
1055.1507
  0
VERTEX
  5
9b
  8
Layer_0
  10
-587.28613
  20
1055.137
  0
VERTEX
  5
9c
  8
Layer_0
  10
-587.4458
  20
1055.0964
  0
VERTEX
  5
9d
  8
Layer_0
  10
-587.59656
  20
1055.0303
  0
VERTEX
  5
9e
  8
Layer_0
  10
-587.73535
  20
1054.9396
  0
VERTEX
  5
9f
  8
Layer_0
  10
-587.78296
  20
1054.9001
  0
VERTEX
  5
a0
  8
Layer_0
  10
-587.84534
  20
1054.84
  0
VERTEX
  5
a1
  8
Layer_0
  10
-587.96301
  20
1054.6899
  0
VERTEX
  5
a2
  8
Layer_0
  10
-588.04944
  20
1054.5219
  0
VERTEX
  5
a3
  8
Layer_0
  10
-588.10266
  20
1054.3405
  0
VERTEX
  5
a4
  8
Layer_0
  10
-588.12085
  20
1054.1507
  0
VERTEX
  5
a5
  8
Layer_0
  10
-588.12061
  20
1033.4308
  0
VERTEX
  5
a6
  8
Layer_0
  10
-588.09766
  20
1033.2415
  0
VERTEX
  5
a7
  8
Layer_0
  10
-588.04004
  20
1033.0615
  0
VERTEX
  5
a8
  8
Layer_0
  10
-587.94934
  20
1032.8956
  0
VERTEX
  5
a9
  8
Layer_0
  10
-587.828
  20
1032.7485
  0
VERTEX
  5
aa
  8
Layer_0
  10
-587.81018
  20
1032.7312
  0
VERTEX
  5
ab
  8
Layer_0
  10
-587.66016
  20
1032.6135
  0
VERTEX
  5
ac
  8
Layer_0
  10
-587.49207
  20
1032.5271
  0
VERTEX
  5
ad
  8
Layer_0
  10
-587.31067
  20
1032.4738
  0
VERTEX
  5
ae
  8
Layer_0
  10
-587.12085
  20
1032.4556
  0
VERTEX
  5
af
  8
Layer_0
  10
-530.12097
  20
1032.456
  0
VERTEX
  5
b0
  8
Layer_0
  10
-529.93164
  20
1032.4788
  0
VERTEX
  5
b1
  8
Layer_0
  10
-529.75159
  20
1032.5365
  0
VERTEX
  5
b2
  8
Layer_0
  10
-529.58569
  20
1032.6271
  0
VERTEX
  5
b3
  8
Layer_0
  10
-529.43872
  20
1032.7485
  0
VERTEX
  5
b4
  8
Layer_0
  10
-529.31384
  20
1032.9009
  0
VERTEX
  5
b5
  8
Layer_0
  10
-529.22192
  20
1033.073
  0
VERTEX
  5
b6
  8
Layer_0
  10
-529.16528
  20
1033.2597
  0
SEQEND
  0
POLYLINE
  5
b8
  8
Layer_0
  62
7
  70
1
  66
1
  10
0
  20
0
  30
0
  0
VERTEX
  5
b8
  8
Layer_0
  10
-531.72119
  20
1034.9021
  0
VERTEX
  5
b9
  8
Layer_0
  10
-531.52686
  20
1035.1644
  0
VERTEX
  5
ba
  8
Layer_0
  10
-531.41943
  20
1035.4655
  0
VERTEX
  5
bb
  8
Layer_0
  10
-531.4032
  20
1035.7847
  0
VERTEX
  5
bc
  8
Layer_0
  10
-531.48218
  20
1036.1013
  0
VERTEX
  5
bd
  8
Layer_0
  10
-531.65063
  20
1036.3808
  0
VERTEX
  5
be
  8
Layer_0
  10
-531.88831
  20
1036.595
  0
VERTEX
  5
bf
  8
Layer_0
  10
-532.17749
  20
1036.7322
  0
VERTEX
  5
c0
  8
Layer_0
  10
-532.50073
  20
1036.7805
  0
VERTEX
  5
c1
  8
Layer_0
  10
-532.67615
  20
1036.7667
  0
VERTEX
  5
c2
  8
Layer_0
  10
-532.84705
  20
1036.7249
  0
VERTEX
  5
c3
  8
Layer_0
  10
-533.07935
  20
1036.6168
  0
VERTEX
  5
c4
  8
Layer_0
  10
-533.28027
  20
1036.4583
  0
VERTEX
  5
c5
  8
Layer_0
  10
-533.29944
  20
1036.4387
  0
VERTEX
  5
c6
  8
Layer_0
  10
-533.4292
  20
1036.2736
  0
VERTEX
  5
c7
  8
Layer_0
  10
-533.52454
  20
1036.0886
  0
VERTEX
  5
c8
  8
Layer_0
  10
-533.58325
  20
1035.889
  0
VERTEX
  5
c9
  8
Layer_0
  10
-533.60327
  20
1035.6802
  0
VERTEX
  5
ca
  8
Layer_0
  10
-533.6001
  20
1035.5973
  0
VERTEX
  5
cb
  8
Layer_0
  10
-533.53516
  20
1035.2991
  0
VERTEX
  5
cc
  8
Layer_0
  10
-533.3938
  20
1035.0348
  0
VERTEX
  5
cd
  8
Layer_0
  10
-533.18616
  20
1034.8182
  0
VERTEX
  5
ce
  8
Layer_0
  10
-532.92261
  20
1034.6636
  0
VERTEX
  5
cf
  8
Layer_0
  10
-532.84473
  20
1034.6347
  0
VERTEX
  5
d0
  8
Layer_0
  10
-532.54395
  20
1034.5805
  0
VERTEX
  5
d1
  8
Layer_0
  10
-532.24512
  20
1034.6097
  0
VERTEX
  5
d2
  8
Layer_0
  10
-531.96521
  20
1034.7183
  0
SEQEND
  0
POLYLINE
  5
d4
  8
Layer_0
  62
7
  70
1
  66
1
  10
0
  20
0
  30
0
  0
VERTEX
  5
d4
  8
Layer_0
  10
-531.48218
  20
1052.3513
  0
VERTEX
  5
d5
  8
Layer_0
  10
-531.65076
  20
1052.6309
  0
VERTEX
  5
d6
  8
Layer_0
  10
-531.88831
  20
1052.8451
  0
VERTEX
  5
d7
  8
Layer_0
  10
-532.17749
  20
1052.9822
  0
VERTEX
  5
d8
  8
Layer_0
  10
-532.50073
  20
1053.0306
  0
VERTEX
  5
d9
  8
Layer_0
  10
-532.729
  20
1053.0068
  0
VERTEX
  5
da
  8
Layer_0
  10
-532.94739
  20
1052.9362
  0
VERTEX
  5
db
  8
Layer_0
  10
-533.12439
  20
1052.8376
  0
VERTEX
  5
dc
  8
Layer_0
  10
-533.28027
  20
1052.7083
  0
VERTEX
  5
dd
  8
Layer_0
  10
-533.29944
  20
1052.6887
  0
VERTEX
  5
de
  8
Layer_0
  10
-533.42908
  20
1052.5235
  0
VERTEX
  5
df
  8
Layer_0
  10
-533.52429
  20
1052.3386
  0
VERTEX
  5
e0
  8
Layer_0
  10
-533.58301
  20
1052.139
  0
VERTEX
  5
e1
  8
Layer_0
  10
-533.60327
  20
1051.9302
  0
VERTEX
  5
e2
  8
Layer_0
  10
-533.6001
  20
1051.8473
  0
VERTEX
  5
e3
  8
Layer_0
  10
-533.53491
  20
1051.5492
  0
VERTEX
  5
e4
  8
Layer_0
  10
-533.39355
  20
1051.2849
  0
VERTEX
  5
e5
  8
Layer_0
  10
-533.18604
  20
1051.0684
  0
VERTEX
  5
e6
  8
Layer_0
  10
-532.92261
  20
1050.9136
  0
VERTEX
  5
e7
  8
Layer_0
  10
-532.84473
  20
1050.8848
  0
VERTEX
  5
e8
  8
Layer_0
  10
-532.54382
  20
1050.8306
  0
VERTEX
  5
e9
  8
Layer_0
  10
-532.24512
  20
1050.8597
  0
VERTEX
  5
ea
  8
Layer_0
  10
-531.96521
  20
1050.9683
  0
VERTEX
  5
eb
  8
Layer_0
  10
-531.72119
  20
1051.1521
  0
VERTEX
  5
ec
  8
Layer_0
  10
-531.52673
  20
1051.4144
  0
VERTEX
  5
ed
  8
Layer_0
  10
-531.41943
  20
1051.7155
  0
VERTEX
  5
ee
  8
Layer_0
  10
-531.4032
  20
1052.0347
  0
SEQEND
  0
POLYLINE
  5
f0
  8
Layer_0
  62
7
  70
1
  66
1
  10
0
  20
0
  30
0
  0
VERTEX
  5
f0
  8
Layer_0
  10
-425.03174
  20
1166.73
  0
VERTEX
  5
f1
  8
Layer_0
  10
-425.03174
  20
1146.035
  0
VERTEX
  5
f2
  8
Layer_0
  10
-425.05103
  20
1145.839
  0
VERTEX
  5
f3
  8
Layer_0
  10
-425.10779
  20
1145.6523
  0
VERTEX
  5
f4
  8
Layer_0
  10
-425.19971
  20
1145.4802
  0
VERTEX
  5
f5
  8
Layer_0
  10
-425.32458
  20
1145.3279
  0
VERTEX
  5
f6
  8
Layer_0
  10
-425.47693
  20
1145.2029
  0
VERTEX
  5
f7
  8
Layer_0
  10
-425.64905
  20
1145.111
  0
VERTEX
  5
f8
  8
Layer_0
  10
-425.83569
  20
1145.0543
  0
VERTEX
  5
f9
  8
Layer_0
  10
-426.03174
  20
1145.035
  0
VERTEX
  5
fa
  8
Layer_0
  10
-483.00684
  20
1145.035
  0
VERTEX
  5
fb
  8
Layer_0
  10
-483.17212
  20
1145.0487
  0
VERTEX
  5
fc
  8
Layer_0
  10
-483.33167
  20
1145.0892
  0
VERTEX
  5
fd
  8
Layer_0
  10
-483.48254
  20
1145.1553
  0
VERTEX
  5
fe
  8
Layer_0
  10
-483.62134
  20
1145.246
  0
VERTEX
  5
ff
  8
Layer_0
  10
-483.66895
  20
1145.2855
  0
VERTEX
  5
100
  8
Layer_0
  10
-483.7312
  20
1145.3456
  0
VERTEX
  5
101
  8
Layer_0
  10
-483.84888
  20
1145.4957
  0
VERTEX
  5
102
  8
Layer_0
  10
-483.9353
  20
1145.6638
  0
VERTEX
  5
103
  8
Layer_0
  10
-483.98865
  20
1145.8452
  0
VERTEX
  5
104
  8
Layer_0
  10
-484.00684
  20
1146.035
  0
VERTEX
  5
105
  8
Layer_0
  10
-484.00647
  20
1166.7548
  0
VERTEX
  5
106
  8
Layer_0
  10
-483.98364
  20
1166.9442
  0
VERTEX
  5
107
  8
Layer_0
  10
-483.9259
  20
1167.1241
  0
VERTEX
  5
108
  8
Layer_0
  10
-483.83533
  20
1167.29
  0
VERTEX
  5
109
  8
Layer_0
  10
-483.71387
  20
1167.4371
  0
VERTEX
  5
10a
  8
Layer_0
  10
-483.69617
  20
1167.4545
  0
VERTEX
  5
10b
  8
Layer_0
  10
-483.54614
  20
1167.5721
  0
VERTEX
  5
10c
  8
Layer_0
  10
-483.37793
  20
1167.6586
  0
VERTEX
  5
10d
  8
Layer_0
  10
-483.19666
  20
1167.7119
  0
VERTEX
  5
10e
  8
Layer_0
  10
-483.00684
  20
1167.73
  0
VERTEX
  5
10f
  8
Layer_0
  10
-426.00684
  20
1167.7297
  0
VERTEX
  5
110
  8
Layer_0
  10
-425.8175
  20
1167.7069
  0
VERTEX
  5
111
  8
Layer_0
  10
-425.63757
  20
1167.6492
  0
VERTEX
  5
112
  8
Layer_0
  10
-425.47168
  20
1167.5585
  0
VERTEX
  5
113
  8
Layer_0
  10
-425.32458
  20
1167.4371
  0
VERTEX
  5
114
  8
Layer_0
  10
-425.19971
  20
1167.2848
  0
VERTEX
  5
115
  8
Layer_0
  10
-425.10791
  20
1167.1127
  0
VERTEX
  5
116
  8
Layer_0
  10
-425.05115
  20
1166.926
  0
SEQEND
  0
POLYLINE
  5
118
  8
Layer_0
  62
7
  70
1
  66
1
  10
0
  20
0
  30
0
  0
VERTEX
  5
118
  8
Layer_0
  10
-427.60718
  20
1165.2836
  0
VERTEX
  5
119
  8
Layer_0
  10
-427.41284
  20
1165.0212
  0
VERTEX
  5
11a
  8
Layer_0
  10
-427.30542
  20
1164.7202
  0
VERTEX
  5
11b
  8
Layer_0
  10
-427.28918
  20
1164.401
  0
VERTEX
  5
11c
  8
Layer_0
  10
-427.36816
  20
1164.0844
  0
VERTEX
  5
11d
  8
Layer_0
  10
-427.53662
  20
1163.8049
  0
VERTEX
  5
11e
  8
Layer_0
  10
-427.77417
  20
1163.5906
  0
VERTEX
  5
11f
  8
Layer_0
  10
-428.06348
  20
1163.4535
  0
VERTEX
  5
120
  8
Layer_0
  10
-428.38672
  20
1163.4052
  0
VERTEX
  5
121
  8
Layer_0
  10
-428.56213
  20
1163.419
  0
VERTEX
  5
122
  8
Layer_0
  10
-428.73303
  20
1163.4608
  0
VERTEX
  5
123
  8
Layer_0
  10
-428.96521
  20
1163.5689
  0
VERTEX
  5
124
  8
Layer_0
  10
-429.16626
  20
1163.7274
  0
VERTEX
  5
125
  8
Layer_0
  10
-429.1853
  20
1163.747
  0
VERTEX
  5
126
  8
Layer_0
  10
-429.31519
  20
1163.9121
  0
VERTEX
  5
127
  8
Layer_0
  10
-429.4104
  20
1164.097
  0
VERTEX
  5
128
  8
Layer_0
  10
-429.46912
  20
1164.2966
  0
VERTEX
  5
129
  8
Layer_0
  10
-429.48914
  20
1164.5055
  0
VERTEX
  5
12a
  8
Layer_0
  10
-429.48608
  20
1164.5884
  0
VERTEX
  5
12b
  8
Layer_0
  10
-429.42102
  20
1164.8865
  0
VERTEX
  5
12c
  8
Layer_0
  10
-429.27966
  20
1165.1509
  0
VERTEX
  5
12d
  8
Layer_0
  10
-429.07214
  20
1165.3674
  0
VERTEX
  5
12e
  8
Layer_0
  10
-428.80859
  20
1165.5221
  0
VERTEX
  5
12f
  8
Layer_0
  10
-428.73071
  20
1165.551
  0
VERTEX
  5
130
  8
Layer_0
  10
-428.42981
  20
1165.6052
  0
VERTEX
  5
131
  8
Layer_0
  10
-428.13098
  20
1165.576
  0
VERTEX
  5
132
  8
Layer_0
  10
-427.8512
  20
1165.4674
  0
SEQEND
  0
POLYLINE
  5
134
  8
Layer_0
  62
7
  70
1
  66
1
  10
0
  20
0
  30
0
  0
VERTEX
  5
134
  8
Layer_0
  10
-427.36816
  20
1147.8344
  0
VERTEX
  5
135
  8
Layer_0
  10
-427.53662
  20
1147.5548
  0
VERTEX
  5
136
  8
Layer_0
  10
-427.77429
  20
1147.3406
  0
VERTEX
  5
137
  8
Layer_0
  10
-428.06348
  20
1147.2034
  0
VERTEX
  5
138
  8
Layer_0
  10
-428.38672
  20
1147.1551
  0
VERTEX
  5
139
  8
Layer_0
  10
-428.61499
  20
1147.1788
  0
VERTEX
  5
13a
  8
Layer_0
  10
-428.83325
  20
1147.2495
  0
VERTEX
  5
13b
  8
Layer_0
  10
-429.01038
  20
1147.348
  0
VERTEX
  5
13c
  8
Layer_0
  10
-429.16626
  20
1147.4774
  0
VERTEX
  5
13d
  8
Layer_0
  10
-429.1853
  20
1147.4969
  0
VERTEX
  5
13e
  8
Layer_0
  10
-429.31494
  20
1147.6622
  0
VERTEX
  5
13f
  8
Layer_0
  10
-429.41016
  20
1147.8471
  0
VERTEX
  5
140
  8
Layer_0
  10
-429.46899
  20
1148.0466
  0
VERTEX
  5
141
  8
Layer_0
  10
-429.48914
  20
1148.2555
  0
VERTEX
  5
142
  8
Layer_0
  10
-429.48608
  20
1148.3384
  0
VERTEX
  5
143
  8
Layer_0
  10
-429.4209
  20
1148.6365
  0
VERTEX
  5
144
  8
Layer_0
  10
-429.27954
  20
1148.9008
  0
VERTEX
  5
145
  8
Layer_0
  10
-429.07202
  20
1149.1173
  0
VERTEX
  5
146
  8
Layer_0
  10
-428.80859
  20
1149.2721
  0
VERTEX
  5
147
  8
Layer_0
  10
-428.73071
  20
1149.3009
  0
VERTEX
  5
148
  8
Layer_0
  10
-428.42981
  20
1149.3551
  0
VERTEX
  5
149
  8
Layer_0
  10
-428.13098
  20
1149.3259
  0
VERTEX
  5
14a
  8
Layer_0
  10
-427.85107
  20
1149.2174
  0
VERTEX
  5
14b
  8
Layer_0
  10
-427.60718
  20
1149.0336
  0
VERTEX
  5
14c
  8
Layer_0
  10
-427.41272
  20
1148.7713
  0
VERTEX
  5
14d
  8
Layer_0
  10
-427.30542
  20
1148.4702
  0
VERTEX
  5
14e
  8
Layer_0
  10
-427.28918
  20
1148.151
  0
SEQEND
  0
POLYLINE
  5
150
  8
Layer_0
  62
7
  70
1
  66
1
  10
0
  20
0
  30
0
  0
VERTEX
  5
150
  8
Layer_0
  10
-499.69995
  20
1045.4525
  0
VERTEX
  5
151
  8
Layer_0
  10
-492.69995
  20
1033.3282
  0
VERTEX
  5
152
  8
Layer_0
  10
-480.57556
  20
1040.3282
  0
VERTEX
  5
153
  8
Layer_0
  10
-487.57556
  20
1052.4525
  0
SEQEND
  0
POLYLINE
  5
155
  8
Layer_0
  62
7
  70
1
  66
1
  10
0
  20
0
  30
0
  0
VERTEX
  5
155
  8
Layer_0
  10
-373.16394
  20
1162.418
  0
VERTEX
  5
156
  8
Layer_0
  10
-388.95007
  20
1171.5112
  42
0.19381873
  0
VERTEX
  5
157
  8
Layer_0
  10
-389.77783
  20
1171.6157
  0
VERTEX
  5
158
  8
Layer_0
  10
-389.80481
  20
1171.6083
  0
VERTEX
  5
159
  8
Layer_0
  10
-405.02356
  20
1166.7314
  0
VERTEX
  5
15a
  8
Layer_0
  10
-422.0686
  20
1166.7316
  42
0.19240445
  0
VERTEX
  5
15b
  8
Layer_0
  10
-422.75793
  20
1166.4561
  0
VERTEX
  5
15c
  8
Layer_0
  10
-422.77563
  20
1166.4387
  42
0.19216647
  0
VERTEX
  5
15d
  8
Layer_0
  10
-423.06824
  20
1165.7565
  0
VERTEX
  5
15e
  8
Layer_0
  10
-423.0686
  20
1165.7316
  0
VERTEX
  5
15f
  8
Layer_0
  10
-423.0686
  20
1145.0367
  42
-0.19844051
  0
VERTEX
  5
160
  8
Layer_0
  10
-423.36145
  20
1144.3296
  42
-0.1992112
  0
VERTEX
  5
161
  8
Layer_0
  10
-424.0686
  20
1144.0367
  0
VERTEX
  5
162
  8
Layer_0
  10
-481.94641
  20
1144.0367
  42
0.38830699
  0
VERTEX
  5
163
  8
Layer_0
  10
-482.94238
  20
1143.127
  0
VERTEX
  5
164
  8
Layer_0
  10
-482.94568
  20
1143.077
  0
VERTEX
  5
165
  8
Layer_0
  10
-484.42346
  20
1106.0068
  0
VERTEX
  5
166
  8
Layer_0
  10
-484.42346
  20
1079.0568
  0
VERTEX
  5
167
  8
Layer_0
  10
-472.40955
  20
1030.4
  42
0.062937909
  0
VERTEX
  5
168
  8
Layer_0
  10
-472.30933
  20
1030.1405
  42
0.27475281
  0
VERTEX
  5
169
  8
Layer_0
  10
-471.34155
  20
1029.5637
  0
VERTEX
  5
16a
  8
Layer_0
  10
-397.11365
  20
1029.5367
  42
0.33434881
  0
VERTEX
  5
16b
  8
Layer_0
  10
-396.05713
  20
1030.3305
  0
VERTEX
  5
16c
  8
Layer_0
  10
-385.42371
  20
1067.5068
  0
VERTEX
  5
16d
  8
Layer_0
  10
-385.42371
  20
1116.8526
  0
VERTEX
  5
16e
  8
Layer_0
  10
-372.6571
  20
1161.1605
  42
0.34503748
  0
SEQEND
  0
POLYLINE
  5
170
  8
Layer_0
  62
7
  70
1
  66
1
  10
0
  20
0
  30
0
  0
VERTEX
  5
170
  8
Layer_0
  10
-395.58582
  20
1155.7344
  0
VERTEX
  5
171
  8
Layer_0
  10
-388.58582
  20
1167.8587
  0
VERTEX
  5
172
  8
Layer_0
  10
-376.46143
  20
1160.8588
  0
VERTEX
  5
173
  8
Layer_0
  10
-383.46143
  20
1148.7344
  0
SEQEND
  0
POLYLINE
  5
175
  8
Layer_0
  62
7
  70
1
  66
1
  10
0
  20
0
  30
0
  0
VERTEX
  5
175
  8
Layer_0
  10
-431.82361
  20
1046.2568
  0
VERTEX
  5
176
  8
Layer_0
  10
-417.82361
  20
1046.2568
  0
VERTEX
  5
177
  8
Layer_0
  10
-417.82361
  20
1032.2568
  0
VERTEX
  5
178
  8
Layer_0
  10
-431.82361
  20
1032.2568
  0
SEQEND
  0
POLYLINE
  5
17a
  8
Layer_0
  62
7
  70
1
  66
1
  10
0
  20
0
  30
0
  0
VERTEX
  5
17a
  8
Layer_0
  10
-478.88342
  20
1084.3568
  0
VERTEX
  5
17b
  8
Layer_0
  10
-464.88354
  20
1084.3568
  0
VERTEX
  5
17c
  8
Layer_0
  10
-464.88354
  20
1070.3568
  0
VERTEX
  5
17d
  8
Layer_0
  10
-478.88354
  20
1070.3568
  0
SEQEND
  0
POLYLINE
  5
17f
  8
Layer_0
  62
7
  70
1
  66
1
  10
0
  20
0
  30
0
  0
VERTEX
  5
17f
  8
Layer_0
  10
-461.62024
  20
1125.7593
  42
-0.30333066
  0
VERTEX
  5
180
  8
Layer_0
  10
-461.38171
  20
1124.5592
  42
-0.30341298
  0
VERTEX
  5
181
  8
Layer_0
  10
-462.39856
  20
1123.8794
  42
-0.17488672
  0
VERTEX
  5
182
  8
Layer_0
  10
-463.09863
  20
1124.1309
  42
-0.22446717
  0
VERTEX
  5
183
  8
Layer_0
  10
-463.49927
  20
1124.9806
  0
VERTEX
  5
184
  8
Layer_0
  10
-463.49841
  20
1125.0222
  42
-0.29298401
  0
VERTEX
  5
185
  8
Layer_0
  10
-462.81982
  20
1125.998
  0
VERTEX
  5
186
  8
Layer_0
  10
-462.78101
  20
1126.0132
  42
-0.29323787
  0
SEQEND
  0
POLYLINE
  5
188
  8
Layer_0
  62
7
  70
1
  66
1
  10
0
  20
0
  30
0
  0
VERTEX
  5
188
  8
Layer_0
  10
-462.3335
  20
1089.4067
  0
VERTEX
  5
189
  8
Layer_0
  10
-462.3335
  20
1103.4067
  0
VERTEX
  5
18a
  8
Layer_0
  10
-448.3335
  20
1103.4067
  0
VERTEX
  5
18b
  8
Layer_0
  10
-448.3335
  20
1089.4067
  0
SEQEND
  0
POLYLINE
  5
18d
  8
Layer_0
  62
7
  70
1
  66
1
  10
0
  20
0
  30
0
  0
VERTEX
  5
18d
  8
Layer_0
  10
-410.23364
  20
1089.4067
  0
VERTEX
  5
18e
  8
Layer_0
  10
-424.23364
  20
1089.4067
  0
VERTEX
  5
18f
  8
Layer_0
  10
-424.23364
  20
1103.4067
  0
VERTEX
  5
190
  8
Layer_0
  10
-410.23364
  20
1103.4067
  0
SEQEND
  0
POLYLINE
  5
192
  8
Layer_0
  62
7
  70
1
  66
1
  10
0
  20
0
  30
0
  0
VERTEX
  5
192
  8
Layer_0
  10
-469.92346
  20
1051.3068
  0
VERTEX
  5
193
  8
Layer_0
  10
-469.92346
  20
1065.3068
  0
VERTEX
  5
194
  8
Layer_0
  10
-455.92358
  20
1065.3068
  0
VERTEX
  5
195
  8
Layer_0
  10
-455.92358
  20
1051.3068
  0
SEQEND
  0
POLYLINE
  5
197
  8
Layer_0
  62
7
  70
1
  66
1
  10
0
  20
0
  30
0
  0
VERTEX
  5
197
  8
Layer_0
  10
-421.02112
  20
1125.7587
  42
-0.30317026
  0
VERTEX
  5
198
  8
Layer_0
  10
-420.78247
  20
1124.5586
  42
-0.3034136
  0
VERTEX
  5
199
  8
Layer_0
  10
-421.79944
  20
1123.8788
  42
-0.13767177
  0
VERTEX
  5
19a
  8
Layer_0
  10
-422.37024
  20
1124.0382
  42
-0.26233921
  0
VERTEX
  5
19b
  8
Layer_0
  10
-422.90015
  20
1124.98
  0
VERTEX
  5
19c
  8
Layer_0
  10
-422.89941
  20
1125.0216
  42
-0.29299272
  0
VERTEX
  5
19d
  8
Layer_0
  10
-422.2207
  20
1125.9974
  0
VERTEX
  5
19e
  8
Layer_0
  10
-422.18188
  20
1126.0126
  42
-0.29315878
  0
SEQEND
  0
POLYLINE
  5
1a0
  8
Layer_0
  62
7
  70
1
  66
1
  10
0
  20
0
  30
0
  0
VERTEX
  5
1a0
  8
Layer_0
  10
-459.82349
  20
1122.4567
  0
VERTEX
  5
1a1
  8
Layer_0
  10
-445.82349
  20
1122.4567
  0
VERTEX
  5
1a2
  8
Layer_0
  10
-445.82349
  20
1108.4567
  0
VERTEX
  5
1a3
  8
Layer_0
  10
-459.82349
  20
1108.4567
  0
SEQEND
  0
POLYLINE
  5
1a5
  8
Layer_0
  62
7
  70
1
  66
1
  10
0
  20
0
  30
0
  0
VERTEX
  5
1a5
  8
Layer_0
  10
-450.87354
  20
1046.2568
  0
VERTEX
  5
1a6
  8
Layer_0
  10
-436.87354
  20
1046.2568
  0
VERTEX
  5
1a7
  8
Layer_0
  10
-436.87354
  20
1032.2568
  0
VERTEX
  5
1a8
  8
Layer_0
  10
-450.87354
  20
1032.2568
  0
SEQEND
  0
POLYLINE
  5
1aa
  8
Layer_0
  62
7
  70
1
  66
1
  10
0
  20
0
  30
0
  0
VERTEX
  5
1aa
  8
Layer_0
  10
-421.72363
  20
1122.4567
  0
VERTEX
  5
1ab
  8
Layer_0
  10
-407.72363
  20
1122.4567
  0
VERTEX
  5
1ac
  8
Layer_0
  10
-407.72363
  20
1108.4567
  0
VERTEX
  5
1ad
  8
Layer_0
  10
-421.72363
  20
1108.4567
  0
SEQEND
  0
POLYLINE
  5
1af
  8
Layer_0
  62
7
  70
1
  66
1
  10
0
  20
0
  30
0
  0
VERTEX
  5
1af
  8
Layer_0
  10
-417.82361
  20
1051.3068
  0
VERTEX
  5
1b0
  8
Layer_0
  10
-431.82361
  20
1051.3068
  0
VERTEX
  5
1b1
  8
Layer_0
  10
-431.82361
  20
1065.3068
  0
VERTEX
  5
1b2
  8
Layer_0
  10
-417.82361
  20
1065.3068
  0
SEQEND
  0
POLYLINE
  5
1b4
  8
Layer_0
  62
7
  70
1
  66
1
  10
0
  20
0
  30
0
  0
VERTEX
  5
1b4
  8
Layer_0
  10
-388.72363
  20
1122.4567
  0
VERTEX
  5
1b5
  8
Layer_0
  10
-388.72363
  20
1108.4567
  0
VERTEX
  5
1b6
  8
Layer_0
  10
-402.72363
  20
1108.4567
  0
VERTEX
  5
1b7
  8
Layer_0
  10
-402.72363
  20
1122.4567
  0
SEQEND
  0
POLYLINE
  5
1b9
  8
Layer_0
  62
7
  70
1
  66
1
  10
0
  20
0
  30
0
  0
VERTEX
  5
1b9
  8
Layer_0
  10
-386.07397
  20
1128.8334
  0
VERTEX
  5
1ba
  8
Layer_0
  10
-399.5968
  20
1132.4569
  0
VERTEX
  5
1bb
  8
Layer_0
  10
-395.97339
  20
1145.9798
  0
VERTEX
  5
1bc
  8
Layer_0
  10
-382.45044
  20
1142.3563
  0
SEQEND
  0
POLYLINE
  5
1be
  8
Layer_0
  62
7
  70
1
  66
1
  10
0
  20
0
  30
0
  0
VERTEX
  5
1be
  8
Layer_0
  10
-481.42346
  20
1089.4067
  0
VERTEX
  5
1bf
  8
Layer_0
  10
-481.42346
  20
1103.4067
  0
VERTEX
  5
1c0
  8
Layer_0
  10
-467.42346
  20
1103.4067
  0
VERTEX
  5
1c1
  8
Layer_0
  10
-467.42346
  20
1089.4067
  0
SEQEND
  0
POLYLINE
  5
1c3
  8
Layer_0
  62
7
  70
1
  66
1
  10
0
  20
0
  30
0
  0
VERTEX
  5
1c3
  8
Layer_0
  10
-429.23352
  20
1103.4067
  0
VERTEX
  5
1c4
  8
Layer_0
  10
-429.23352
  20
1089.4067
  0
VERTEX
  5
1c5
  8
Layer_0
  10
-443.23352
  20
1089.4067
  0
VERTEX
  5
1c6
  8
Layer_0
  10
-443.23352
  20
1103.4067
  0
SEQEND
  0
POLYLINE
  5
1c8
  8
Layer_0
  62
7
  70
1
  66
1
  10
0
  20
0
  30
0
  0
VERTEX
  5
1c8
  8
Layer_0
  10
-452.62109
  20
1049.5592
  0
VERTEX
  5
1c9
  8
Layer_0
  10
-452.59229
  20
1049.5292
  42
-0.2928533
  0
VERTEX
  5
1ca
  8
Layer_0
  10
-452.38257
  20
1048.3591
  42
-0.30335761
  0
VERTEX
  5
1cb
  8
Layer_0
  10
-453.39917
  20
1047.6793
  42
-0.19925985
  0
VERTEX
  5
1cc
  8
Layer_0
  10
-454.17725
  20
1048.0018
  42
-0.036829074
  0
VERTEX
  5
1cd
  8
Layer_0
  10
-454.28357
  20
1048.1254
  42
-0.16062374
  0
VERTEX
  5
1ce
  8
Layer_0
  10
-454.49951
  20
1048.7805
  0
VERTEX
  5
1cf
  8
Layer_0
  10
-454.49878
  20
1048.8221
  42
-0.29308661
  0
VERTEX
  5
1d0
  8
Layer_0
  10
-453.82031
  20
1049.798
  0
VERTEX
  5
1d1
  8
Layer_0
  10
-453.78149
  20
1049.8132
  42
-0.29326285
  0
SEQEND
  0
POLYLINE
  5
1d3
  8
Layer_0
  62
7
  70
1
  66
1
  10
0
  20
0
  30
0
  0
VERTEX
  5
1d3
  8
Layer_0
  10
-412.77368
  20
1065.3068
  0
VERTEX
  5
1d4
  8
Layer_0
  10
-398.77368
  20
1065.3068
  0
VERTEX
  5
1d5
  8
Layer_0
  10
-398.77368
  20
1051.3068
  0
VERTEX
  5
1d6
  8
Layer_0
  10
-412.77368
  20
1051.3068
  0
SEQEND
  0
POLYLINE
  5
1d8
  8
Layer_0
  62
7
  70
1
  66
1
  10
0
  20
0
  30
0
  0
VERTEX
  5
1d8
  8
Layer_0
  10
-443.32349
  20
1141.5066
  0
VERTEX
  5
1d9
  8
Layer_0
  10
-443.32349
  20
1127.5067
  0
VERTEX
  5
1da
  8
Layer_0
  10
-457.32349
  20
1127.5067
  0
VERTEX
  5
1db
  8
Layer_0
  10
-457.32349
  20
1141.5067
  0
SEQEND
  0
POLYLINE
  5
1dd
  8
Layer_0
  62
7
  70
1
  66
1
  10
0
  20
0
  30
0
  0
VERTEX
  5
1dd
  8
Layer_0
  10
-476.42346
  20
1127.5067
  0
VERTEX
  5
1de
  8
Layer_0
  10
-476.42346
  20
1141.5067
  0
VERTEX
  5
1df
  8
Layer_0
  10
-462.42346
  20
1141.5067
  0
VERTEX
  5
1e0
  8
Layer_0
  10
-462.42346
  20
1127.5067
  0
SEQEND
  0
POLYLINE
  5
1e2
  8
Layer_0
  62
7
  70
1
  66
1
  10
0
  20
0
  30
0
  0
VERTEX
  5
1e2
  8
Layer_0
  10
-405.32361
  20
1141.5066
  0
VERTEX
  5
1e3
  8
Layer_0
  10
-405.32361
  20
1127.5067
  0
VERTEX
  5
1e4
  8
Layer_0
  10
-419.32361
  20
1127.5067
  0
VERTEX
  5
1e5
  8
Layer_0
  10
-419.32361
  20
1141.5066
  0
SEQEND
  0
POLYLINE
  5
1e7
  8
Layer_0
  62
7
  70
1
  66
1
  10
0
  20
0
  30
0
  0
VERTEX
  5
1e7
  8
Layer_0
  10
-445.88354
  20
1070.3568
  0
VERTEX
  5
1e8
  8
Layer_0
  10
-459.88354
  20
1070.3568
  0
VERTEX
  5
1e9
  8
Layer_0
  10
-459.88354
  20
1084.3568
  0
VERTEX
  5
1ea
  8
Layer_0
  10
-445.88354
  20
1084.3568
  0
SEQEND
  0
POLYLINE
  5
1ec
  8
Layer_0
  62
7
  70
1
  66
1
  10
0
  20
0
  30
0
  0
VERTEX
  5
1ec
  8
Layer_0
  10
-412.77368
  20
1046.2568
  0
VERTEX
  5
1ed
  8
Layer_0
  10
-398.77368
  20
1046.2568
  0
VERTEX
  5
1ee
  8
Layer_0
  10
-398.77368
  20
1032.2568
  0
VERTEX
  5
1ef
  8
Layer_0
  10
-412.77368
  20
1032.2568
  0
SEQEND
  0
POLYLINE
  5
1f1
  8
Layer_0
  62
7
  70
1
  66
1
  10
0
  20
0
  30
0
  0
VERTEX
  5
1f1
  8
Layer_0
  10
-438.32349
  20
1127.5067
  0
VERTEX
  5
1f2
  8
Layer_0
  10
-438.32349
  20
1141.5066
  0
VERTEX
  5
1f3
  8
Layer_0
  10
-424.32361
  20
1141.5066
  0
VERTEX
  5
1f4
  8
Layer_0
  10
-424.32361
  20
1127.5067
  0
SEQEND
  0
POLYLINE
  5
1f6
  8
Layer_0
  62
7
  70
1
  66
1
  10
0
  20
0
  30
0
  0
VERTEX
  5
1f6
  8
Layer_0
  10
-414.28247
  20
1048.3596
  42
-0.30325198
  0
VERTEX
  5
1f7
  8
Layer_0
  10
-415.29944
  20
1047.6798
  42
-0.19904834
  0
VERTEX
  5
1f8
  8
Layer_0
  10
-416.07776
  20
1048.0023
  0
VERTEX
  5
1f9
  8
Layer_0
  10
-416.11548
  20
1048.0419
  42
-0.1861464
  0
VERTEX
  5
1fa
  8
Layer_0
  10
-416.40015
  20
1048.781
  0
VERTEX
  5
1fb
  8
Layer_0
  10
-416.39941
  20
1048.8226
  42
-0.29309684
  0
VERTEX
  5
1fc
  8
Layer_0
  10
-415.7207
  20
1049.7983
  0
VERTEX
  5
1fd
  8
Layer_0
  10
-415.68188
  20
1049.8135
  42
-0.29321331
  0
VERTEX
  5
1fe
  8
Layer_0
  10
-414.52112
  20
1049.5596
  42
-0.30325907
  0
SEQEND
  0
POLYLINE
  5
200
  8
Layer_0
  62
7
  70
1
  66
1
  10
0
  20
0
  30
0
  0
VERTEX
  5
200
  8
Layer_0
  10
-440.82349
  20
1108.4567
  0
VERTEX
  5
201
  8
Layer_0
  10
-440.82349
  20
1122.4567
  0
VERTEX
  5
202
  8
Layer_0
  10
-426.82361
  20
1122.4567
  0
VERTEX
  5
203
  8
Layer_0
  10
-426.82361
  20
1108.4567
  0
SEQEND
  0
POLYLINE
  5
205
  8
Layer_0
  62
7
  70
1
  66
1
  10
0
  20
0
  30
0
  0
VERTEX
  5
205
  8
Layer_0
  10
-388.62366
  20
1070.3568
  0
VERTEX
  5
206
  8
Layer_0
  10
-402.62366
  20
1070.3568
  0
VERTEX
  5
207
  8
Layer_0
  10
-402.62366
  20
1084.3568
  0
VERTEX
  5
208
  8
Layer_0
  10
-388.62366
  20
1084.3567
  0
SEQEND
  0
POLYLINE
  5
20a
  8
Layer_0
  62
7
  70
1
  66
1
  10
0
  20
0
  30
0
  0
VERTEX
  5
20a
  8
Layer_0
  10
-464.92346
  20
1122.4567
  0
VERTEX
  5
20b
  8
Layer_0
  10
-464.92346
  20
1108.4567
  0
VERTEX
  5
20c
  8
Layer_0
  10
-478.92346
  20
1108.4567
  0
VERTEX
  5
20d
  8
Layer_0
  10
-478.92346
  20
1122.4567
  0
SEQEND
  0
POLYLINE
  5
20f
  8
Layer_0
  62
7
  70
1
  66
1
  10
0
  20
0
  30
0
  0
VERTEX
  5
20f
  8
Layer_0
  10
-407.72363
  20
1070.3568
  0
VERTEX
  5
210
  8
Layer_0
  10
-421.72363
  20
1070.3568
  0
VERTEX
  5
211
  8
Layer_0
  10
-421.72363
  20
1084.3568
  0
VERTEX
  5
212
  8
Layer_0
  10
-407.72363
  20
1084.3568
  0
SEQEND
  0
POLYLINE
  5
214
  8
Layer_0
  62
7
  70
1
  66
1
  10
0
  20
0
  30
0
  0
VERTEX
  5
214
  8
Layer_0
  10
-405.13367
  20
1089.4067
  0
VERTEX
  5
215
  8
Layer_0
  10
-405.13367
  20
1103.4067
  0
VERTEX
  5
216
  8
Layer_0
  10
-391.13367
  20
1103.4067
  0
VERTEX
  5
217
  8
Layer_0
  10
-391.13367
  20
1089.4067
  0
SEQEND
  0
POLYLINE
  5
219
  8
Layer_0
  62
7
  70
1
  66
1
  10
0
  20
0
  30
0
  0
VERTEX
  5
219
  8
Layer_0
  10
-426.82361
  20
1084.3568
  0
VERTEX
  5
21a
  8
Layer_0
  10
-426.82361
  20
1070.3568
  0
VERTEX
  5
21b
  8
Layer_0
  10
-440.82361
  20
1070.3568
  0
VERTEX
  5
21c
  8
Layer_0
  10
-440.82349
  20
1084.3568
  0
SEQEND
  0
POLYLINE
  5
21e
  8
Layer_0
  62
7
  70
1
  66
1
  10
0
  20
0
  30
0
  0
VERTEX
  5
21e
  8
Layer_0
  10
-436.87354
  20
1065.3068
  0
VERTEX
  5
21f
  8
Layer_0
  10
-436.87354
  20
1051.3068
  0
VERTEX
  5
220
  8
Layer_0
  10
-450.87354
  20
1051.3068
  0
VERTEX
  5
221
  8
Layer_0
  10
-450.87354
  20
1065.3068
  0
SEQEND
  0
POLYLINE
  5
223
  8
Layer_0
  62
7
  70
1
  66
1
  10
0
  20
0
  30
0
  0
VERTEX
  5
223
  8
Layer_0
  10
-455.92358
  20
1046.2568
  0
VERTEX
  5
224
  8
Layer_0
  10
-455.92358
  20
1032.2568
  0
VERTEX
  5
225
  8
Layer_0
  10
-469.92346
  20
1032.2568
  0
VERTEX
  5
226
  8
Layer_0
  10
-469.92346
  20
1046.2568
  0
SEQEND
  0
POLYLINE
  5
228
  8
Layer_0
  62
7
  70
1
  66
1
  10
0
  20
0
  30
0
  0
VERTEX
  5
228
  8
Layer_0
  10
-420.92358
  20
1162.8066
  0
VERTEX
  5
229
  8
Layer_0
  10
-408.92358
  20
1162.8066
  0
VERTEX
  5
22a
  8
Layer_0
  10
-408.92358
  20
1147.2066
  0
VERTEX
  5
22b
  8
Layer_0
  10
-414.92358
  20
1147.2066
  0
VERTEX
  5
22c
  8
Layer_0
  10
-420.92358
  20
1147.2066
  0
SEQEND
  0
POLYLINE
  5
22e
  8
Layer_0
  62
7
  70
1
  66
1
  10
0
  20
0
  30
0
  0
VERTEX
  5
22e
  8
Layer_0
  10
-399.64539
  20
1152.7836
  42
-0.30338777
  0
VERTEX
  5
22f
  8
Layer_0
  10
-399.40686
  20
1151.5836
  42
-0.30344701
  0
VERTEX
  5
230
  8
Layer_0
  10
-400.42371
  20
1150.9037
  42
-0.07549688
  0
VERTEX
  5
231
  8
Layer_0
  10
-400.75098
  20
1150.9533
  42
-0.32838297
  0
VERTEX
  5
232
  8
Layer_0
  10
-401.52429
  20
1152.0049
  0
VERTEX
  5
233
  8
Layer_0
  10
-401.52356
  20
1152.0466
  42
-0.29305562
  0
VERTEX
  5
234
  8
Layer_0
  10
-400.84485
  20
1153.0223
  0
VERTEX
  5
235
  8
Layer_0
  10
-400.80615
  20
1153.0375
  42
-0.29326022
  0
SEQEND
  0
POLYLINE
  5
237
  8
Layer_0
  62
7
  70
1
  66
1
  10
0
  20
0
  30
0
  0
VERTEX
  5
237
  8
Layer_0
  10
-477.27808
  20
1038.7689
  0
VERTEX
  5
238
  8
Layer_0
  10
-493.06409
  20
1029.6757
  42
-0.19381873
  0
VERTEX
  5
239
  8
Layer_0
  10
-493.89197
  20
1029.5711
  0
VERTEX
  5
23a
  8
Layer_0
  10
-493.91895
  20
1029.5786
  0
VERTEX
  5
23b
  8
Layer_0
  10
-509.1377
  20
1034.4555
  0
VERTEX
  5
23c
  8
Layer_0
  10
-526.18262
  20
1034.4553
  42
-0.19240445
  0
VERTEX
  5
23d
  8
Layer_0
  10
-526.87207
  20
1034.7308
  0
VERTEX
  5
23e
  8
Layer_0
  10
-526.88977
  20
1034.7481
  42
-0.19216647
  0
VERTEX
  5
23f
  8
Layer_0
  10
-527.18237
  20
1035.4304
  0
VERTEX
  5
240
  8
Layer_0
  10
-527.18262
  20
1035.4553
  0
VERTEX
  5
241
  8
Layer_0
  10
-527.18262
  20
1056.1502
  42
0.19844051
  0
VERTEX
  5
242
  8
Layer_0
  10
-527.47559
  20
1056.8573
  42
0.1992112
  0
VERTEX
  5
243
  8
Layer_0
  10
-528.18262
  20
1057.1502
  0
VERTEX
  5
244
  8
Layer_0
  10
-586.06055
  20
1057.1502
  42
-0.38830699
  0
VERTEX
  5
245
  8
Layer_0
  10
-587.05652
  20
1058.0599
  0
VERTEX
  5
246
  8
Layer_0
  10
-587.05969
  20
1058.1099
  0
VERTEX
  5
247
  8
Layer_0
  10
-588.53748
  20
1095.1801
  0
VERTEX
  5
248
  8
Layer_0
  10
-588.53748
  20
1122.1301
  0
VERTEX
  5
249
  8
Layer_0
  10
-576.52356
  20
1170.7869
  42
-0.062937908
  0
VERTEX
  5
24a
  8
Layer_0
  10
-576.42334
  20
1171.0464
  42
-0.27475281
  0
VERTEX
  5
24b
  8
Layer_0
  10
-575.45557
  20
1171.6232
  0
VERTEX
  5
24c
  8
Layer_0
  10
-501.22766
  20
1171.6501
  42
-0.33434881
  0
VERTEX
  5
24d
  8
Layer_0
  10
-500.17114
  20
1170.8563
  0
VERTEX
  5
24e
  8
Layer_0
  10
-489.53772
  20
1133.6801
  0
VERTEX
  5
24f
  8
Layer_0
  10
-489.53772
  20
1084.3342
  0
VERTEX
  5
250
  8
Layer_0
  10
-476.77124
  20
1040.0264
  42
-0.34503748
  0
SEQEND
  0
POLYLINE
  5
252
  8
Layer_0
  62
7
  70
1
  66
1
  10
0
  20
0
  30
0
  0
VERTEX
  5
252
  8
Layer_0
  10
-535.93762
  20
1154.9301
  0
VERTEX
  5
253
  8
Layer_0
  10
-521.93762
  20
1154.9301
  0
VERTEX
  5
254
  8
Layer_0
  10
-521.93762
  20
1168.9301
  0
VERTEX
  5
255
  8
Layer_0
  10
-535.93762
  20
1168.9301
  0
SEQEND
  0
POLYLINE
  5
257
  8
Layer_0
  62
7
  70
1
  66
1
  10
0
  20
0
  30
0
  0
VERTEX
  5
257
  8
Layer_0
  10
-582.99756
  20
1116.8302
  0
VERTEX
  5
258
  8
Layer_0
  10
-568.99756
  20
1116.8302
  0
VERTEX
  5
259
  8
Layer_0
  10
-568.99756
  20
1130.8302
  0
VERTEX
  5
25a
  8
Layer_0
  10
-582.99756
  20
1130.8302
  0
SEQEND
  0
POLYLINE
  5
25c
  8
Layer_0
  62
7
  70
1
  66
1
  10
0
  20
0
  30
0
  0
VERTEX
  5
25c
  8
Layer_0
  10
-565.73438
  20
1075.4277
  42
0.30333066
  0
VERTEX
  5
25d
  8
Layer_0
  10
-565.49573
  20
1076.6278
  42
0.30341298
  0
VERTEX
  5
25e
  8
Layer_0
  10
-566.5127
  20
1077.3076
  42
0.17488672
  0
VERTEX
  5
25f
  8
Layer_0
  10
-567.21277
  20
1077.0561
  42
0.22446717
  0
VERTEX
  5
260
  8
Layer_0
  10
-567.61328
  20
1076.2064
  0
VERTEX
  5
261
  8
Layer_0
  10
-567.61255
  20
1076.1647
  42
0.29298401
  0
VERTEX
  5
262
  8
Layer_0
  10
-566.93384
  20
1075.189
  0
VERTEX
  5
263
  8
Layer_0
  10
-566.89514
  20
1075.1738
  42
0.29323787
  0
SEQEND
  0
POLYLINE
  5
265
  8
Layer_0
  62
7
  70
1
  66
1
  10
0
  20
0
  30
0
  0
VERTEX
  5
265
  8
Layer_0
  10
-566.44751
  20
1111.7802
  0
VERTEX
  5
266
  8
Layer_0
  10
-566.44751
  20
1097.7802
  0
VERTEX
  5
267
  8
Layer_0
  10
-552.44763
  20
1097.7802
  0
VERTEX
  5
268
  8
Layer_0
  10
-552.44763
  20
1111.7802
  0
SEQEND
  0
POLYLINE
  5
26a
  8
Layer_0
  62
7
  70
1
  66
1
  10
0
  20
0
  30
0
  0
VERTEX
  5
26a
  8
Layer_0
  10
-514.34766
  20
1111.7802
  0
VERTEX
  5
26b
  8
Layer_0
  10
-528.34766
  20
1111.7802
  0
VERTEX
  5
26c
  8
Layer_0
  10
-528.34766
  20
1097.7802
  0
VERTEX
  5
26d
  8
Layer_0
  10
-514.34766
  20
1097.7802
  0
SEQEND
  0
POLYLINE
  5
26f
  8
Layer_0
  62
7
  70
1
  66
1
  10
0
  20
0
  30
0
  0
VERTEX
  5
26f
  8
Layer_0
  10
-574.0376
  20
1149.8801
  0
VERTEX
  5
270
  8
Layer_0
  10
-574.0376
  20
1135.8801
  0
VERTEX
  5
271
  8
Layer_0
  10
-560.0376
  20
1135.8801
  0
VERTEX
  5
272
  8
Layer_0
  10
-560.0376
  20
1149.8801
  0
SEQEND
  0
POLYLINE
  5
274
  8
Layer_0
  62
7
  70
1
  66
1
  10
0
  20
0
  30
0
  0
VERTEX
  5
274
  8
Layer_0
  10
-525.13501
  20
1075.4283
  42
0.30317026
  0
VERTEX
  5
275
  8
Layer_0
  10
-524.89648
  20
1076.6284
  42
0.3034136
  0
VERTEX
  5
276
  8
Layer_0
  10
-525.91345
  20
1077.3082
  42
0.13767177
  0
VERTEX
  5
277
  8
Layer_0
  10
-526.48413
  20
1077.1487
  42
0.26233921
  0
VERTEX
  5
278
  8
Layer_0
  10
-527.01416
  20
1076.207
  0
VERTEX
  5
279
  8
Layer_0
  10
-527.01331
  20
1076.1653
  42
0.29299272
  0
VERTEX
  5
27a
  8
Layer_0
  10
-526.33459
  20
1075.1896
  0
VERTEX
  5
27b
  8
Layer_0
  10
-526.2959
  20
1075.1744
  42
0.29315878
  0
SEQEND
  0
POLYLINE
  5
27d
  8
Layer_0
  62
7
  70
1
  66
1
  10
0
  20
0
  30
0
  0
VERTEX
  5
27d
  8
Layer_0
  10
-563.93762
  20
1078.7303
  0
VERTEX
  5
27e
  8
Layer_0
  10
-549.93762
  20
1078.7303
  0
VERTEX
  5
27f
  8
Layer_0
  10
-549.93762
  20
1092.7302
  0
VERTEX
  5
280
  8
Layer_0
  10
-563.93762
  20
1092.7302
  0
SEQEND
  0
POLYLINE
  5
282
  8
Layer_0
  62
7
  70
1
  66
1
  10
0
  20
0
  30
0
  0
VERTEX
  5
282
  8
Layer_0
  10
-554.98755
  20
1154.9301
  0
VERTEX
  5
283
  8
Layer_0
  10
-540.98755
  20
1154.9301
  0
VERTEX
  5
284
  8
Layer_0
  10
-540.98755
  20
1168.9301
  0
VERTEX
  5
285
  8
Layer_0
  10
-554.98755
  20
1168.9301
  0
SEQEND
  0
POLYLINE
  5
287
  8
Layer_0
  62
7
  70
1
  66
1
  10
0
  20
0
  30
0
  0
VERTEX
  5
287
  8
Layer_0
  10
-525.83765
  20
1078.7303
  0
VERTEX
  5
288
  8
Layer_0
  10
-511.83765
  20
1078.7303
  0
VERTEX
  5
289
  8
Layer_0
  10
-511.83765
  20
1092.7302
  0
VERTEX
  5
28a
  8
Layer_0
  10
-525.83765
  20
1092.7302
  0
SEQEND
  0
POLYLINE
  5
28c
  8
Layer_0
  62
7
  70
1
  66
1
  10
0
  20
0
  30
0
  0
VERTEX
  5
28c
  8
Layer_0
  10
-521.93762
  20
1149.8801
  0
VERTEX
  5
28d
  8
Layer_0
  10
-535.93762
  20
1149.8801
  0
VERTEX
  5
28e
  8
Layer_0
  10
-535.93762
  20
1135.8801
  0
VERTEX
  5
28f
  8
Layer_0
  10
-521.93762
  20
1135.8801
  0
SEQEND
  0
POLYLINE
  5
291
  8
Layer_0
  62
7
  70
1
  66
1
  10
0
  20
0
  30
0
  0
VERTEX
  5
291
  8
Layer_0
  10
-492.83777
  20
1078.7303
  0
VERTEX
  5
292
  8
Layer_0
  10
-492.83777
  20
1092.7302
  0
VERTEX
  5
293
  8
Layer_0
  10
-506.83765
  20
1092.7302
  0
VERTEX
  5
294
  8
Layer_0
  10
-506.83765
  20
1078.7303
  0
SEQEND
  0
POLYLINE
  5
296
  8
Layer_0
  62
7
  70
1
  66
1
  10
0
  20
0
  30
0
  0
VERTEX
  5
296
  8
Layer_0
  10
-490.18799
  20
1072.3535
  0
VERTEX
  5
297
  8
Layer_0
  10
-503.71094
  20
1068.73
  0
VERTEX
  5
298
  8
Layer_0
  10
-500.08752
  20
1055.2071
  0
VERTEX
  5
299
  8
Layer_0
  10
-486.56458
  20
1058.8306
  0
SEQEND
  0
POLYLINE
  5
29b
  8
Layer_0
  62
7
  70
1
  66
1
  10
0
  20
0
  30
0
  0
VERTEX
  5
29b
  8
Layer_0
  10
-585.53748
  20
1111.7802
  0
VERTEX
  5
29c
  8
Layer_0
  10
-585.5376
  20
1097.7803
  0
VERTEX
  5
29d
  8
Layer_0
  10
-571.5376
  20
1097.7802
  0
VERTEX
  5
29e
  8
Layer_0
  10
-571.5376
  20
1111.7802
  0
SEQEND
  0
POLYLINE
  5
2a0
  8
Layer_0
  62
7
  70
1
  66
1
  10
0
  20
0
  30
0
  0
VERTEX
  5
2a0
  8
Layer_0
  10
-533.34766
  20
1097.7802
  0
VERTEX
  5
2a1
  8
Layer_0
  10
-533.34766
  20
1111.7802
  0
VERTEX
  5
2a2
  8
Layer_0
  10
-547.34766
  20
1111.7802
  0
VERTEX
  5
2a3
  8
Layer_0
  10
-547.34766
  20
1097.7802
  0
SEQEND
  0
POLYLINE
  5
2a5
  8
Layer_0
  62
7
  70
1
  66
1
  10
0
  20
0
  30
0
  0
VERTEX
  5
2a5
  8
Layer_0
  10
-556.73511
  20
1151.6277
  0
VERTEX
  5
2a6
  8
Layer_0
  10
-556.70618
  20
1151.6577
  42
0.2928533
  0
VERTEX
  5
2a7
  8
Layer_0
  10
-556.49658
  20
1152.8279
  42
0.30335761
  0
VERTEX
  5
2a8
  8
Layer_0
  10
-557.51318
  20
1153.5077
  42
0.19925985
  0
VERTEX
  5
2a9
  8
Layer_0
  10
-558.29126
  20
1153.1851
  42
0.036829074
  0
VERTEX
  5
2aa
  8
Layer_0
  10
-558.39758
  20
1153.0616
  42
0.16062374
  0
VERTEX
  5
2ab
  8
Layer_0
  10
-558.61353
  20
1152.4064
  0
VERTEX
  5
2ac
  8
Layer_0
  10
-558.61267
  20
1152.3648
  42
0.29308661
  0
VERTEX
  5
2ad
  8
Layer_0
  10
-557.9342
  20
1151.389
  0
VERTEX
  5
2ae
  8
Layer_0
  10
-557.89551
  20
1151.3738
  42
0.29326285
  0
SEQEND
  0
POLYLINE
  5
2b0
  8
Layer_0
  62
7
  70
1
  66
1
  10
0
  20
0
  30
0
  0
VERTEX
  5
2b0
  8
Layer_0
  10
-516.8877
  20
1135.8801
  0
VERTEX
  5
2b1
  8
Layer_0
  10
-502.8877
  20
1135.8801
  0
VERTEX
  5
2b2
  8
Layer_0
  10
-502.8877
  20
1149.8801
  0
VERTEX
  5
2b3
  8
Layer_0
  10
-516.8877
  20
1149.8801
  0
SEQEND
  0
POLYLINE
  5
2b5
  8
Layer_0
  62
7
  70
1
  66
1
  10
0
  20
0
  30
0
  0
VERTEX
  5
2b5
  8
Layer_0
  10
-547.43762
  20
1059.6803
  0
VERTEX
  5
2b6
  8
Layer_0
  10
-547.43762
  20
1073.6803
  0
VERTEX
  5
2b7
  8
Layer_0
  10
-561.43762
  20
1073.6803
  0
VERTEX
  5
2b8
  8
Layer_0
  10
-561.43762
  20
1059.6803
  0
SEQEND
  0
POLYLINE
  5
2ba
  8
Layer_0
  62
7
  70
1
  66
1
  10
0
  20
0
  30
0
  0
VERTEX
  5
2ba
  8
Layer_0
  10
-580.5376
  20
1073.6803
  0
VERTEX
  5
2bb
  8
Layer_0
  10
-580.5376
  20
1059.6803
  0
VERTEX
  5
2bc
  8
Layer_0
  10
-566.5376
  20
1059.6803
  0
VERTEX
  5
2bd
  8
Layer_0
  10
-566.5376
  20
1073.6803
  0
SEQEND
  0
POLYLINE
  5
2bf
  8
Layer_0
  62
7
  70
1
  66
1
  10
0
  20
0
  30
0
  0
VERTEX
  5
2bf
  8
Layer_0
  10
-509.43774
  20
1059.6803
  0
VERTEX
  5
2c0
  8
Layer_0
  10
-509.43774
  20
1073.6803
  0
VERTEX
  5
2c1
  8
Layer_0
  10
-523.43762
  20
1073.6803
  0
VERTEX
  5
2c2
  8
Layer_0
  10
-523.43774
  20
1059.6803
  0
SEQEND
  0
POLYLINE
  5
2c4
  8
Layer_0
  62
7
  70
1
  66
1
  10
0
  20
0
  30
0
  0
VERTEX
  5
2c4
  8
Layer_0
  10
-549.99756
  20
1130.8302
  0
VERTEX
  5
2c5
  8
Layer_0
  10
-563.99756
  20
1130.8302
  0
VERTEX
  5
2c6
  8
Layer_0
  10
-563.99756
  20
1116.8302
  0
VERTEX
  5
2c7
  8
Layer_0
  10
-549.99756
  20
1116.8302
  0
SEQEND
  0
POLYLINE
  5
2c9
  8
Layer_0
  62
7
  70
1
  66
1
  10
0
  20
0
  30
0
  0
VERTEX
  5
2c9
  8
Layer_0
  10
-516.8877
  20
1154.9301
  0
VERTEX
  5
2ca
  8
Layer_0
  10
-502.8877
  20
1154.9301
  0
VERTEX
  5
2cb
  8
Layer_0
  10
-502.8877
  20
1168.9301
  0
VERTEX
  5
2cc
  8
Layer_0
  10
-516.8877
  20
1168.9301
  0
SEQEND
  0
POLYLINE
  5
2ce
  8
Layer_0
  62
7
  70
1
  66
1
  10
0
  20
0
  30
0
  0
VERTEX
  5
2ce
  8
Layer_0
  10
-542.43762
  20
1073.6803
  0
VERTEX
  5
2cf
  8
Layer_0
  10
-542.43762
  20
1059.6803
  0
VERTEX
  5
2d0
  8
Layer_0
  10
-528.43762
  20
1059.6803
  0
VERTEX
  5
2d1
  8
Layer_0
  10
-528.43762
  20
1073.6803
  0
SEQEND
  0
POLYLINE
  5
2d3
  8
Layer_0
  62
7
  70
1
  66
1
  10
0
  20
0
  30
0
  0
VERTEX
  5
2d3
  8
Layer_0
  10
-518.39648
  20
1152.8274
  42
0.30325198
  0
VERTEX
  5
2d4
  8
Layer_0
  10
-519.41345
  20
1153.5072
  42
0.19904834
  0
VERTEX
  5
2d5
  8
Layer_0
  10
-520.19177
  20
1153.1846
  0
VERTEX
  5
2d6
  8
Layer_0
  10
-520.22937
  20
1153.1451
  42
0.1861464
  0
VERTEX
  5
2d7
  8
Layer_0
  10
-520.51416
  20
1152.406
  0
VERTEX
  5
2d8
  8
Layer_0
  10
-520.51331
  20
1152.3644
  42
0.29309684
  0
VERTEX
  5
2d9
  8
Layer_0
  10
-519.83459
  20
1151.3886
  0
VERTEX
  5
2da
  8
Layer_0
  10
-519.7959
  20
1151.3734
  42
0.29321331
  0
VERTEX
  5
2db
  8
Layer_0
  10
-518.63513
  20
1151.6273
  42
0.30325907
  0
SEQEND
  0
POLYLINE
  5
2dd
  8
Layer_0
  62
7
  70
1
  66
1
  10
0
  20
0
  30
0
  0
VERTEX
  5
2dd
  8
Layer_0
  10
-544.93762
  20
1092.7302
  0
VERTEX
  5
2de
  8
Layer_0
  10
-544.93762
  20
1078.7303
  0
VERTEX
  5
2df
  8
Layer_0
  10
-530.93762
  20
1078.7303
  0
VERTEX
  5
2e0
  8
Layer_0
  10
-530.93762
  20
1092.7302
  0
SEQEND
  0
POLYLINE
  5
2e2
  8
Layer_0
  62
7
  70
1
  66
1
  10
0
  20
0
  30
0
  0
VERTEX
  5
2e2
  8
Layer_0
  10
-492.73767
  20
1130.8301
  0
VERTEX
  5
2e3
  8
Layer_0
  10
-506.73767
  20
1130.8301
  0
VERTEX
  5
2e4
  8
Layer_0
  10
-506.73767
  20
1116.8302
  0
VERTEX
  5
2e5
  8
Layer_0
  10
-492.73767
  20
1116.8302
  0
SEQEND
  0
POLYLINE
  5
2e7
  8
Layer_0
  62
7
  70
1
  66
1
  10
0
  20
0
  30
0
  0
VERTEX
  5
2e7
  8
Layer_0
  10
-569.0376
  20
1078.7303
  0
VERTEX
  5
2e8
  8
Layer_0
  10
-569.0376
  20
1092.7302
  0
VERTEX
  5
2e9
  8
Layer_0
  10
-583.0376
  20
1092.7303
  0
VERTEX
  5
2ea
  8
Layer_0
  10
-583.0376
  20
1078.7303
  0
SEQEND
  0
POLYLINE
  5
2ec
  8
Layer_0
  62
7
  70
1
  66
1
  10
0
  20
0
  30
0
  0
VERTEX
  5
2ec
  8
Layer_0
  10
-511.83765
  20
1130.8301
  0
VERTEX
  5
2ed
  8
Layer_0
  10
-525.83765
  20
1130.8301
  0
VERTEX
  5
2ee
  8
Layer_0
  10
-525.83765
  20
1116.8302
  0
VERTEX
  5
2ef
  8
Layer_0
  10
-511.83765
  20
1116.8302
  0
SEQEND
  0
POLYLINE
  5
2f1
  8
Layer_0
  62
7
  70
1
  66
1
  10
0
  20
0
  30
0
  0
VERTEX
  5
2f1
  8
Layer_0
  10
-509.24768
  20
1111.7802
  0
VERTEX
  5
2f2
  8
Layer_0
  10
-509.24768
  20
1097.7802
  0
VERTEX
  5
2f3
  8
Layer_0
  10
-495.24768
  20
1097.7802
  0
VERTEX
  5
2f4
  8
Layer_0
  10
-495.24768
  20
1111.7802
  0
SEQEND
  0
POLYLINE
  5
2f6
  8
Layer_0
  62
7
  70
1
  66
1
  10
0
  20
0
  30
0
  0
VERTEX
  5
2f6
  8
Layer_0
  10
-530.93762
  20
1116.8302
  0
VERTEX
  5
2f7
  8
Layer_0
  10
-530.93762
  20
1130.8301
  0
VERTEX
  5
2f8
  8
Layer_0
  10
-544.93762
  20
1130.8302
  0
VERTEX
  5
2f9
  8
Layer_0
  10
-544.93762
  20
1116.8302
  0
SEQEND
  0
POLYLINE
  5
2fb
  8
Layer_0
  62
7
  70
1
  66
1
  10
0
  20
0
  30
0
  0
VERTEX
  5
2fb
  8
Layer_0
  10
-540.98755
  20
1135.8801
  0
VERTEX
  5
2fc
  8
Layer_0
  10
-540.98755
  20
1149.8801
  0
VERTEX
  5
2fd
  8
Layer_0
  10
-554.98755
  20
1149.8801
  0
VERTEX
  5
2fe
  8
Layer_0
  10
-554.98755
  20
1135.8801
  0
SEQEND
  0
POLYLINE
  5
300
  8
Layer_0
  62
7
  70
1
  66
1
  10
0
  20
0
  30
0
  0
VERTEX
  5
300
  8
Layer_0
  10
-560.0376
  20
1154.9301
  0
VERTEX
  5
301
  8
Layer_0
  10
-560.0376
  20
1168.9301
  0
VERTEX
  5
302
  8
Layer_0
  10
-574.0376
  20
1168.9301
  0
VERTEX
  5
303
  8
Layer_0
  10
-574.0376
  20
1154.9301
  0
SEQEND
  0
POLYLINE
  5
305
  8
Layer_0
  62
7
  70
1
  66
1
  10
0
  20
0
  30
0
  0
VERTEX
  5
305
  8
Layer_0
  10
-525.03772
  20
1038.3804
  0
VERTEX
  5
306
  8
Layer_0
  10
-513.03772
  20
1038.3804
  0
VERTEX
  5
307
  8
Layer_0
  10
-513.03772
  20
1053.9803
  0
VERTEX
  5
308
  8
Layer_0
  10
-519.03772
  20
1053.9803
  0
VERTEX
  5
309
  8
Layer_0
  10
-525.03772
  20
1053.9803
  0
SEQEND
  0
POLYLINE
  5
30b
  8
Layer_0
  62
7
  70
1
  66
1
  10
0
  20
0
  30
0
  0
VERTEX
  5
30b
  8
Layer_0
  10
-503.75952
  20
1048.4033
  42
0.30338777
  0
VERTEX
  5
30c
  8
Layer_0
  10
-503.52087
  20
1049.6034
  42
0.30344701
  0
VERTEX
  5
30d
  8
Layer_0
  10
-504.53784
  20
1050.2832
  42
0.07549688
  0
VERTEX
  5
30e
  8
Layer_0
  10
-504.86511
  20
1050.2337
  42
0.32838297
  0
VERTEX
  5
30f
  8
Layer_0
  10
-505.63843
  20
1049.182
  0
VERTEX
  5
310
  8
Layer_0
  10
-505.6377
  20
1049.1404
  42
0.29305562
  0
VERTEX
  5
311
  8
Layer_0
  10
-504.95898
  20
1048.1646
  0
VERTEX
  5
312
  8
Layer_0
  10
-504.92029
  20
1048.1494
  42
0.29326022
  0
SEQEND
  0
ENDSEC
  0
EOF
