<?xml version="1.0" encoding="UTF-8" standalone="no"?>
<svg xmlns="http://www.w3.org/2000/svg" xmlns:xlink="http://www.w3.org/1999/xlink" width="215.616mm" height="142.114mm" viewBox="-995.231689 -665.463501 215.616333 142.113525">
    <path transform="matrix(0,-0.524493,-0.524971,-0,-997.328552,-512.81189)" style="stroke:#000000;stroke-width:0.095330mm;fill:none" d="M56.061665,-165.486618C56.66217,-166.087387,57.565563,-166.267166,58.35022,-165.941833C59.135052,-165.617004,59.646511,-164.851089,59.646584,-164.001694C59.64661,-163.789978,59.614971,-163.579422,59.55217,-163.377228C59.278805,-162.499329,58.466057,-161.901367,57.546589,-161.901703L57.467213,-161.903198C56.647224,-161.934189,55.920368,-162.439911,55.606445,-163.198059L55.577446,-163.271957C55.292225,-164.041382,55.48127,-164.906525,56.061665,-165.486618z"/>
    <path transform="matrix(0,-0.524391,-0.525241,-0,-1022.522583,-561.912903)" style="stroke:#000000;stroke-width:0.095349mm;fill:none" d="M159.286453,-112.511726L159.343628,-112.566803C159.945404,-113.124641,160.81691,-113.28096,161.575012,-112.966949C162.359741,-112.641983,162.871094,-111.87616,162.871368,-111.026802C162.871597,-110.46981,162.650345,-109.935532,162.256287,-109.541893C162.182861,-109.468521,162.104126,-109.400681,162.020737,-109.338882C161.65921,-109.07119,161.221222,-108.926781,160.771378,-108.926811L160.692001,-108.928299C159.871979,-108.959137,159.145142,-109.464996,158.831223,-110.223183L158.802231,-110.297073C158.517242,-111.066566,158.706039,-111.931679,159.286453,-112.511726z"/>
    <path transform="matrix(0,-0.524369,-0.524971,-0,-1026.768555,-525.672913)" style="stroke:#000000;stroke-width:0.095353mm;fill:none" d="M83.086609,-103.511742C83.687126,-104.112457,84.590462,-104.292152,85.37516,-103.966957C86.159859,-103.641838,86.671669,-102.876213,86.671524,-102.026817C86.672249,-101.539284,86.502632,-101.066788,86.191986,-100.691032C85.793449,-100.206596,85.19883,-99.926147,84.571533,-99.926826L84.492157,-99.928322C83.672195,-99.959396,82.945427,-100.465111,82.631386,-101.22319L82.602394,-101.297089C82.317093,-102.066483,82.506317,-102.931549,83.086609,-103.511742z"/>
    <path transform="matrix(0,-0.52428,-0.525005,-0,-1007.487549,-525.680908)" style="stroke:#000000;stroke-width:0.095369mm;fill:none" d="M83.086609,-144.111664C83.687225,-144.712219,84.590385,-144.891739,85.37516,-144.566879C86.159882,-144.241821,86.671616,-143.47612,86.671524,-142.62674C86.671989,-142.242737,86.566849,-141.866013,86.3675,-141.537811C85.986816,-140.909897,85.305832,-140.526276,84.571533,-140.526749L84.492157,-140.528229C83.672188,-140.559296,82.945419,-141.065018,82.631386,-141.823105L82.602394,-141.897003C82.317192,-142.666412,82.506416,-143.531403,83.086609,-144.111664z"/>
    <path transform="matrix(0,-0.52438,-0.524151,-0,-1004.272583,-561.91394)" style="stroke:#000000;stroke-width:0.095392mm;fill:none" d="M161.575012,-151.066864C162.359558,-150.741516,162.871292,-149.976059,162.871368,-149.126724C162.871506,-148.569763,162.650146,-148.035614,162.256287,-147.6418L162.180832,-147.569992C161.7948,-147.220169,161.292343,-147.026657,160.771378,-147.026733L160.692001,-147.028229C159.871994,-147.059219,159.14505,-147.56488,158.831223,-148.32309L158.802231,-148.396988C158.516922,-149.166382,158.706207,-150.031418,159.286453,-150.611649C159.886841,-151.212479,160.790176,-151.391663,161.575012,-151.066864z"/>
    <path transform="matrix(0.000001,-1.000001,-1,-0.000001,-1075.233643,-485.44693)" style="stroke:#000000;stroke-width:0.050000mm;fill:none" d="M47.135223,-191.261475L38.042027,-175.475281C37.901546,-175.223206,37.86404,-174.926529,37.937492,-174.647446L37.944923,-174.620529L42.821873,-159.401703L42.820717,-83.480194C42.820053,-82.913361,43.250446,-82.438988,43.814667,-82.384628L43.869343,-82.38073L103.546494,-80.001869L130.496429,-80.001869L179.153198,-92.015816C179.2435,-92.038582,179.330978,-92.071533,179.412781,-92.116051C179.767944,-92.308403,179.98877,-92.679848,179.989532,-93.083748L180.01651,-167.311691C180.016846,-167.801361,179.693207,-168.232452,179.222717,-168.368164L142.046417,-179.001663L92.700645,-179.001663L48.392761,-191.768204C47.906956,-191.908752,47.38805,-191.699432,47.135223,-191.261475z"/>
    <path transform="matrix(0,0.524493,-0.524971,0,-893.520203,-676.001465)" style="stroke:#000000;stroke-width:0.095330mm;fill:none" d="M56.061665,-165.486618C56.66217,-166.087387,57.565563,-166.267166,58.35022,-165.941833C59.135052,-165.617004,59.646511,-164.851089,59.646584,-164.001694C59.64661,-163.789978,59.614971,-163.579422,59.55217,-163.377228C59.278805,-162.499329,58.466057,-161.901367,57.546589,-161.901703L57.467213,-161.903198C56.647224,-161.934189,55.920368,-162.439911,55.606445,-163.198059L55.577446,-163.271957C55.292225,-164.041382,55.48127,-164.906525,56.061665,-165.486618z"/>
    <path transform="matrix(0,0.524391,-0.525241,0,-918.714233,-626.900513)" style="stroke:#000000;stroke-width:0.095349mm;fill:none" d="M159.286453,-112.511726L159.343628,-112.566803C159.945404,-113.124641,160.81691,-113.28096,161.575012,-112.966949C162.359741,-112.641983,162.871094,-111.87616,162.871368,-111.026802C162.871597,-110.46981,162.650345,-109.935532,162.256287,-109.541893C162.182861,-109.468521,162.104126,-109.400681,162.020737,-109.338882C161.65921,-109.07119,161.221222,-108.926781,160.771378,-108.926811L160.692001,-108.928299C159.871979,-108.959137,159.145142,-109.464996,158.831223,-110.223183L158.802231,-110.297073C158.517242,-111.066566,158.706039,-111.931679,159.286453,-112.511726z"/>
    <path transform="matrix(0,0.524369,-0.524971,0,-922.960205,-663.140503)" style="stroke:#000000;stroke-width:0.095353mm;fill:none" d="M83.086609,-103.511742C83.687126,-104.112457,84.590462,-104.292152,85.37516,-103.966957C86.159859,-103.641838,86.671669,-102.876213,86.671524,-102.026817C86.672249,-101.539284,86.502632,-101.066788,86.191986,-100.691032C85.793449,-100.206596,85.19883,-99.926147,84.571533,-99.926826L84.492157,-99.928322C83.672195,-99.959396,82.945427,-100.465111,82.631386,-101.22319L82.602394,-101.297089C82.317093,-102.066483,82.506317,-102.931549,83.086609,-103.511742z"/>
    <path transform="matrix(0,0.52428,-0.525005,0,-903.679199,-663.132507)" style="stroke:#000000;stroke-width:0.095369mm;fill:none" d="M83.086609,-144.111664C83.687225,-144.712219,84.590385,-144.891739,85.37516,-144.566879C86.159882,-144.241821,86.671616,-143.47612,86.671524,-142.62674C86.671989,-142.242737,86.566849,-141.866013,86.3675,-141.537811C85.986816,-140.909897,85.305832,-140.526276,84.571533,-140.526749L84.492157,-140.528229C83.672188,-140.559296,82.945419,-141.065018,82.631386,-141.823105L82.602394,-141.897003C82.317192,-142.666412,82.506416,-143.531403,83.086609,-144.111664z"/>
    <path transform="matrix(0,0.52438,-0.524151,0,-900.464233,-626.899536)" style="stroke:#000000;stroke-width:0.095392mm;fill:none" d="M161.575012,-151.066864C162.359558,-150.741516,162.871292,-149.976059,162.871368,-149.126724C162.871506,-148.569763,162.650146,-148.035614,162.256287,-147.6418L162.180832,-147.569992C161.7948,-147.220169,161.292343,-147.026657,160.771378,-147.026733L160.692001,-147.028229C159.871994,-147.059219,159.14505,-147.56488,158.831223,-148.32309L158.802231,-148.396988C158.516922,-149.166382,158.706207,-150.031418,159.286453,-150.611649C159.886841,-151.212479,160.790176,-151.391663,161.575012,-151.066864z"/>
    <path transform="matrix(0.000001,1.000001,-1,0.000001,-971.425293,-703.366455)" style="stroke:#000000;stroke-width:0.050000mm;fill:none" d="M47.135223,-191.261475L38.042027,-175.475281C37.901546,-175.223206,37.86404,-174.926529,37.937492,-174.647446L37.944923,-174.620529L42.821873,-159.401703L42.820717,-83.480194C42.820053,-82.913361,43.250446,-82.438988,43.814667,-82.384628L43.869343,-82.38073L103.546494,-80.001869L130.496429,-80.001869L179.153198,-92.015816C179.2435,-92.038582,179.330978,-92.071533,179.412781,-92.116051C179.767944,-92.308403,179.98877,-92.679848,179.989532,-93.083748L180.01651,-167.311691C180.016846,-167.801361,179.693207,-168.232452,179.222717,-168.368164L142.046417,-179.001663L92.700645,-179.001663L48.392761,-191.768204C47.906956,-191.908752,47.38805,-191.699432,47.135223,-191.261475z"/>
</svg>
