  0
SECTION
  2
HEADER
  9
$ACADVER
  1
AC1009
  0
ENDSEC
  0
SECTION
  2
TABLES
  0
TABLE
  2
LAYER
  70
1
  0
LAYER
  2
Layer_0
  70
0
  62
7
  6
CONTINUOUS
  0
ENDTAB
  0
ENDSEC
  0
SECTION
  2
ENTITIES
  0
CIRCLE
  5
90
  8
Layer_0
  62
7
  10
1190.7458
  20
1030.036
  30
0
  40
0.69999999
  0
CIRCLE
  5
90
  8
Layer_0
  62
7
  10
1190.7458
  20
1016.036
  30
0
  40
0.69999999
  0
POLYLINE
  5
90
  8
Layer_0
  62
7
  70
1
  66
1
  10
0
  20
0
  30
0
  0
VERTEX
  5
90
  8
Layer_0
  10
1188.4615
  20
1016.8649
  0
VERTEX
  5
91
  8
Layer_0
  10
1160.5216
  20
1016.8649
  42
0.41421356
  0
VERTEX
  5
92
  8
Layer_0
  10
1159.7216
  20
1016.0648
  42
0.41421356
  0
VERTEX
  5
93
  8
Layer_0
  10
1160.5216
  20
1015.2648
  0
VERTEX
  5
94
  8
Layer_0
  10
1188.4615
  20
1015.2648
  42
0.41421356
  0
VERTEX
  5
95
  8
Layer_0
  10
1189.2616
  20
1016.0648
  42
0.41421356
  0
SEQEND
  0
POLYLINE
  5
97
  8
Layer_0
  62
7
  70
1
  66
1
  10
0
  20
0
  30
0
  0
VERTEX
  5
97
  8
Layer_0
  10
1188.4615
  20
1032.1049
  0
VERTEX
  5
98
  8
Layer_0
  10
1160.5216
  20
1032.1049
  42
0.41380862
  0
VERTEX
  5
99
  8
Layer_0
  10
1159.7227
  20
1031.3048
  42
0.41380862
  0
VERTEX
  5
9a
  8
Layer_0
  10
1160.5216
  20
1030.5049
  0
VERTEX
  5
9b
  8
Layer_0
  10
1188.4615
  20
1030.5049
  42
0.41380862
  0
VERTEX
  5
9c
  8
Layer_0
  10
1189.2604
  20
1031.3048
  42
0.41380862
  0
SEQEND
  0
POLYLINE
  5
9e
  8
Layer_0
  62
7
  70
1
  66
1
  10
0
  20
0
  30
0
  0
VERTEX
  5
9e
  8
Layer_0
  10
1200.7458
  20
1017.2861
  0
VERTEX
  5
9f
  8
Layer_0
  10
1200.7458
  20
1016.4861
  42
0.41414163
  0
VERTEX
  5
a0
  8
Layer_0
  10
1201.6459
  20
1015.5862
  42
0.41414163
  0
VERTEX
  5
a1
  8
Layer_0
  10
1202.5459
  20
1016.4861
  0
VERTEX
  5
a2
  8
Layer_0
  10
1202.5459
  20
1017.2861
  42
0.41414163
  0
VERTEX
  5
a3
  8
Layer_0
  10
1201.6459
  20
1018.186
  42
0.41414163
  0
SEQEND
  0
POLYLINE
  5
a5
  8
Layer_0
  62
7
  70
1
  66
1
  10
0
  20
0
  30
0
  0
VERTEX
  5
a5
  8
Layer_0
  10
1193.3359
  20
1082.936
  0
VERTEX
  5
a6
  8
Layer_0
  10
1193.3359
  20
1079.436
  0
VERTEX
  5
a7
  8
Layer_0
  10
1194.2859
  20
1077.8361
  0
VERTEX
  5
a8
  8
Layer_0
  10
1197.2859
  20
1077.8361
  0
VERTEX
  5
a9
  8
Layer_0
  10
1198.236
  20
1079.286
  0
VERTEX
  5
aa
  8
Layer_0
  10
1198.236
  20
1083.0861
  0
VERTEX
  5
ab
  8
Layer_0
  10
1197.2859
  20
1084.536
  0
VERTEX
  5
ac
  8
Layer_0
  10
1194.2859
  20
1084.536
  0
SEQEND
  0
POLYLINE
  5
ae
  8
Layer_0
  62
7
  70
1
  66
1
  10
0
  20
0
  30
0
  0
VERTEX
  5
ae
  8
Layer_0
  10
1176.7459
  20
1060.3861
  0
VERTEX
  5
af
  8
Layer_0
  10
1176.7459
  20
1063.8861
  0
VERTEX
  5
b0
  8
Layer_0
  10
1177.6959
  20
1065.4861
  0
VERTEX
  5
b1
  8
Layer_0
  10
1180.6959
  20
1065.4861
  0
VERTEX
  5
b2
  8
Layer_0
  10
1181.6459
  20
1064.0361
  0
VERTEX
  5
b3
  8
Layer_0
  10
1181.6459
  20
1060.2361
  0
VERTEX
  5
b4
  8
Layer_0
  10
1180.6959
  20
1058.7861
  0
VERTEX
  5
b5
  8
Layer_0
  10
1177.6959
  20
1058.7861
  0
SEQEND
  0
POLYLINE
  5
b7
  8
Layer_0
  62
7
  70
1
  66
1
  10
0
  20
0
  30
0
  0
VERTEX
  5
b7
  8
Layer_0
  10
1166.6459
  20
1117.536
  0
VERTEX
  5
b8
  8
Layer_0
  10
1166.6459
  20
1121.036
  0
VERTEX
  5
b9
  8
Layer_0
  10
1167.5959
  20
1122.636
  0
VERTEX
  5
ba
  8
Layer_0
  10
1170.5959
  20
1122.636
  0
VERTEX
  5
bb
  8
Layer_0
  10
1171.546
  20
1121.186
  0
VERTEX
  5
bc
  8
Layer_0
  10
1171.546
  20
1117.386
  0
VERTEX
  5
bd
  8
Layer_0
  10
1170.5959
  20
1115.936
  0
VERTEX
  5
be
  8
Layer_0
  10
1167.5959
  20
1115.936
  0
SEQEND
  0
POLYLINE
  5
c0
  8
Layer_0
  62
7
  70
1
  66
1
  10
0
  20
0
  30
0
  0
VERTEX
  5
c0
  8
Layer_0
  10
1176.6459
  20
1098.486
  0
VERTEX
  5
c1
  8
Layer_0
  10
1176.6459
  20
1101.986
  0
VERTEX
  5
c2
  8
Layer_0
  10
1177.5959
  20
1103.586
  0
VERTEX
  5
c3
  8
Layer_0
  10
1180.5959
  20
1103.586
  0
VERTEX
  5
c4
  8
Layer_0
  10
1181.546
  20
1102.136
  0
VERTEX
  5
c5
  8
Layer_0
  10
1181.546
  20
1098.3361
  0
VERTEX
  5
c6
  8
Layer_0
  10
1180.5959
  20
1096.886
  0
VERTEX
  5
c7
  8
Layer_0
  10
1177.5959
  20
1096.886
  0
SEQEND
  0
POLYLINE
  5
c9
  8
Layer_0
  62
7
  70
1
  66
1
  10
0
  20
0
  30
0
  0
VERTEX
  5
c9
  8
Layer_0
  10
1212.3359
  20
1082.936
  0
VERTEX
  5
ca
  8
Layer_0
  10
1212.3359
  20
1079.436
  0
VERTEX
  5
cb
  8
Layer_0
  10
1213.2859
  20
1077.8361
  0
VERTEX
  5
cc
  8
Layer_0
  10
1216.2859
  20
1077.8361
  0
VERTEX
  5
cd
  8
Layer_0
  10
1217.236
  20
1079.286
  0
VERTEX
  5
ce
  8
Layer_0
  10
1217.236
  20
1083.0861
  0
VERTEX
  5
cf
  8
Layer_0
  10
1216.2859
  20
1084.536
  0
VERTEX
  5
d0
  8
Layer_0
  10
1213.2859
  20
1084.536
  0
SEQEND
  0
POLYLINE
  5
d2
  8
Layer_0
  62
7
  70
1
  66
1
  10
0
  20
0
  30
0
  0
VERTEX
  5
d2
  8
Layer_0
  10
1214.8459
  20
1098.486
  0
VERTEX
  5
d3
  8
Layer_0
  10
1214.8459
  20
1101.986
  0
VERTEX
  5
d4
  8
Layer_0
  10
1215.796
  20
1103.586
  0
VERTEX
  5
d5
  8
Layer_0
  10
1218.796
  20
1103.586
  0
VERTEX
  5
d6
  8
Layer_0
  10
1219.7459
  20
1102.136
  0
VERTEX
  5
d7
  8
Layer_0
  10
1219.7459
  20
1098.3361
  0
VERTEX
  5
d8
  8
Layer_0
  10
1218.796
  20
1096.886
  0
VERTEX
  5
d9
  8
Layer_0
  10
1215.796
  20
1096.886
  0
SEQEND
  0
POLYLINE
  5
db
  8
Layer_0
  62
7
  70
1
  66
1
  10
0
  20
0
  30
0
  0
VERTEX
  5
db
  8
Layer_0
  10
1155.1459
  20
1082.936
  0
VERTEX
  5
dc
  8
Layer_0
  10
1155.1459
  20
1079.436
  0
VERTEX
  5
dd
  8
Layer_0
  10
1156.0959
  20
1077.8361
  0
VERTEX
  5
de
  8
Layer_0
  10
1159.0959
  20
1077.8361
  0
VERTEX
  5
df
  8
Layer_0
  10
1160.046
  20
1079.286
  0
VERTEX
  5
e0
  8
Layer_0
  10
1160.046
  20
1083.0861
  0
VERTEX
  5
e1
  8
Layer_0
  10
1159.0959
  20
1084.536
  0
VERTEX
  5
e2
  8
Layer_0
  10
1156.0959
  20
1084.536
  0
SEQEND
  0
POLYLINE
  5
e4
  8
Layer_0
  62
7
  70
1
  66
1
  10
0
  20
0
  30
0
  0
VERTEX
  5
e4
  8
Layer_0
  10
1233.8459
  20
1060.386
  0
VERTEX
  5
e5
  8
Layer_0
  10
1233.8459
  20
1063.886
  0
VERTEX
  5
e6
  8
Layer_0
  10
1234.796
  20
1065.486
  0
VERTEX
  5
e7
  8
Layer_0
  10
1237.796
  20
1065.486
  0
VERTEX
  5
e8
  8
Layer_0
  10
1238.7459
  20
1064.036
  0
VERTEX
  5
e9
  8
Layer_0
  10
1238.7459
  20
1060.2361
  0
VERTEX
  5
ea
  8
Layer_0
  10
1237.796
  20
1058.786
  0
VERTEX
  5
eb
  8
Layer_0
  10
1234.796
  20
1058.786
  0
SEQEND
  0
POLYLINE
  5
ed
  8
Layer_0
  62
7
  70
1
  66
1
  10
0
  20
0
  30
0
  0
VERTEX
  5
ed
  8
Layer_0
  10
1204.7459
  20
1136.586
  0
VERTEX
  5
ee
  8
Layer_0
  10
1204.7459
  20
1140.0859
  0
VERTEX
  5
ef
  8
Layer_0
  10
1205.6959
  20
1141.686
  0
VERTEX
  5
f0
  8
Layer_0
  10
1208.6959
  20
1141.686
  0
VERTEX
  5
f1
  8
Layer_0
  10
1209.6459
  20
1140.236
  0
VERTEX
  5
f2
  8
Layer_0
  10
1209.6459
  20
1136.436
  0
VERTEX
  5
f3
  8
Layer_0
  10
1208.6959
  20
1134.986
  0
VERTEX
  5
f4
  8
Layer_0
  10
1205.6959
  20
1134.986
  0
SEQEND
  0
POLYLINE
  5
f6
  8
Layer_0
  62
7
  70
1
  66
1
  10
0
  20
0
  30
0
  0
VERTEX
  5
f6
  8
Layer_0
  10
1217.2458
  20
1044.8361
  0
VERTEX
  5
f7
  8
Layer_0
  10
1217.2458
  20
1041.3361
  0
VERTEX
  5
f8
  8
Layer_0
  10
1218.1959
  20
1039.7361
  0
VERTEX
  5
f9
  8
Layer_0
  10
1221.1959
  20
1039.7361
  0
VERTEX
  5
fa
  8
Layer_0
  10
1222.1459
  20
1041.1861
  0
VERTEX
  5
fb
  8
Layer_0
  10
1222.1459
  20
1044.9861
  0
VERTEX
  5
fc
  8
Layer_0
  10
1221.1959
  20
1046.4361
  0
VERTEX
  5
fd
  8
Layer_0
  10
1218.1959
  20
1046.4361
  0
SEQEND
  0
POLYLINE
  5
ff
  8
Layer_0
  62
7
  70
1
  66
1
  10
0
  20
0
  30
0
  0
VERTEX
  5
ff
  8
Layer_0
  10
1214.8459
  20
1060.3861
  0
VERTEX
  5
100
  8
Layer_0
  10
1214.8459
  20
1063.8861
  0
VERTEX
  5
101
  8
Layer_0
  10
1215.796
  20
1065.4861
  0
VERTEX
  5
102
  8
Layer_0
  10
1218.796
  20
1065.4861
  0
VERTEX
  5
103
  8
Layer_0
  10
1219.7459
  20
1064.0361
  0
VERTEX
  5
104
  8
Layer_0
  10
1219.7459
  20
1060.2361
  0
VERTEX
  5
105
  8
Layer_0
  10
1218.796
  20
1058.7861
  0
VERTEX
  5
106
  8
Layer_0
  10
1215.796
  20
1058.7861
  0
SEQEND
  0
POLYLINE
  5
108
  8
Layer_0
  62
7
  70
1
  66
1
  10
0
  20
0
  30
0
  0
VERTEX
  5
108
  8
Layer_0
  10
1200.7458
  20
1021.2861
  0
VERTEX
  5
109
  8
Layer_0
  10
1200.7458
  20
1020.4861
  42
0.41414163
  0
VERTEX
  5
10a
  8
Layer_0
  10
1201.6459
  20
1019.5862
  42
0.41414163
  0
VERTEX
  5
10b
  8
Layer_0
  10
1202.5459
  20
1020.4861
  0
VERTEX
  5
10c
  8
Layer_0
  10
1202.5459
  20
1021.2861
  42
0.41414163
  0
VERTEX
  5
10d
  8
Layer_0
  10
1201.6459
  20
1022.186
  42
0.41414163
  0
SEQEND
  0
POLYLINE
  5
10f
  8
Layer_0
  62
7
  70
1
  66
1
  10
0
  20
0
  30
0
  0
VERTEX
  5
10f
  8
Layer_0
  10
1223.796
  20
1117.536
  0
VERTEX
  5
110
  8
Layer_0
  10
1223.796
  20
1121.036
  0
VERTEX
  5
111
  8
Layer_0
  10
1224.7459
  20
1122.636
  0
VERTEX
  5
112
  8
Layer_0
  10
1227.7459
  20
1122.636
  0
VERTEX
  5
113
  8
Layer_0
  10
1228.6959
  20
1121.1859
  0
VERTEX
  5
114
  8
Layer_0
  10
1228.6959
  20
1117.386
  0
VERTEX
  5
115
  8
Layer_0
  10
1227.7459
  20
1115.9359
  0
VERTEX
  5
116
  8
Layer_0
  10
1224.7459
  20
1115.936
  0
SEQEND
  0
POLYLINE
  5
118
  8
Layer_0
  62
7
  70
1
  66
1
  10
0
  20
0
  30
0
  0
VERTEX
  5
118
  8
Layer_0
  10
1157.6459
  20
1060.3861
  0
VERTEX
  5
119
  8
Layer_0
  10
1157.6459
  20
1063.8861
  0
VERTEX
  5
11a
  8
Layer_0
  10
1158.5959
  20
1065.4861
  0
VERTEX
  5
11b
  8
Layer_0
  10
1161.5959
  20
1065.4861
  0
VERTEX
  5
11c
  8
Layer_0
  10
1162.546
  20
1064.0361
  0
VERTEX
  5
11d
  8
Layer_0
  10
1162.546
  20
1060.2361
  0
VERTEX
  5
11e
  8
Layer_0
  10
1161.5959
  20
1058.7861
  0
VERTEX
  5
11f
  8
Layer_0
  10
1158.5959
  20
1058.7861
  0
SEQEND
  0
POLYLINE
  5
121
  8
Layer_0
  62
7
  70
1
  66
1
  10
0
  20
0
  30
0
  0
VERTEX
  5
121
  8
Layer_0
  10
1204.7459
  20
1117.536
  0
VERTEX
  5
122
  8
Layer_0
  10
1204.7459
  20
1121.036
  0
VERTEX
  5
123
  8
Layer_0
  10
1205.6959
  20
1122.636
  0
VERTEX
  5
124
  8
Layer_0
  10
1208.6959
  20
1122.636
  0
VERTEX
  5
125
  8
Layer_0
  10
1209.6459
  20
1121.186
  0
VERTEX
  5
126
  8
Layer_0
  10
1209.6459
  20
1117.386
  0
VERTEX
  5
127
  8
Layer_0
  10
1208.6959
  20
1115.936
  0
VERTEX
  5
128
  8
Layer_0
  10
1205.6959
  20
1115.936
  0
SEQEND
  0
POLYLINE
  5
12a
  8
Layer_0
  62
7
  70
1
  66
1
  10
0
  20
0
  30
0
  0
VERTEX
  5
12a
  8
Layer_0
  10
1195.7459
  20
1060.3861
  0
VERTEX
  5
12b
  8
Layer_0
  10
1195.7459
  20
1063.8861
  0
VERTEX
  5
12c
  8
Layer_0
  10
1196.6959
  20
1065.4861
  0
VERTEX
  5
12d
  8
Layer_0
  10
1199.6959
  20
1065.4861
  0
VERTEX
  5
12e
  8
Layer_0
  10
1200.6459
  20
1064.0361
  0
VERTEX
  5
12f
  8
Layer_0
  10
1200.6459
  20
1060.2361
  0
VERTEX
  5
130
  8
Layer_0
  10
1199.6959
  20
1058.7861
  0
VERTEX
  5
131
  8
Layer_0
  10
1196.6959
  20
1058.7861
  0
SEQEND
  0
POLYLINE
  5
133
  8
Layer_0
  62
7
  70
1
  66
1
  10
0
  20
0
  30
0
  0
VERTEX
  5
133
  8
Layer_0
  10
1200.7458
  20
1014.2861
  0
VERTEX
  5
134
  8
Layer_0
  10
1200.7458
  20
1013.4861
  42
0.41414163
  0
VERTEX
  5
135
  8
Layer_0
  10
1201.6459
  20
1012.5862
  42
0.41414163
  0
VERTEX
  5
136
  8
Layer_0
  10
1202.5459
  20
1013.4861
  0
VERTEX
  5
137
  8
Layer_0
  10
1202.5459
  20
1014.2861
  42
0.41414163
  0
VERTEX
  5
138
  8
Layer_0
  10
1201.6459
  20
1015.186
  42
0.41414163
  0
SEQEND
  0
POLYLINE
  5
13a
  8
Layer_0
  62
7
  70
1
  66
1
  10
0
  20
0
  30
0
  0
VERTEX
  5
13a
  8
Layer_0
  10
1156.5742
  20
1010.8602
  0
VERTEX
  5
13b
  8
Layer_0
  10
1232.4958
  20
1010.8615
  0
VERTEX
  5
13c
  8
Layer_0
  10
1247.7147
  20
1005.9844
  42
0.20029484
  0
VERTEX
  5
13d
  8
Layer_0
  10
1248.5695
  20
1006.0815
  0
VERTEX
  5
13e
  8
Layer_0
  10
1264.3557
  20
1015.1747
  42
0.34483139
  0
VERTEX
  5
13f
  8
Layer_0
  10
1264.8624
  20
1016.4323
  0
VERTEX
  5
140
  8
Layer_0
  10
1252.0959
  20
1060.7401
  0
VERTEX
  5
141
  8
Layer_0
  10
1252.0959
  20
1110.0859
  0
VERTEX
  5
142
  8
Layer_0
  10
1241.4623
  20
1147.2623
  42
0.33360907
  0
VERTEX
  5
143
  8
Layer_0
  10
1240.4059
  20
1148.0562
  0
VERTEX
  5
144
  8
Layer_0
  10
1166.1779
  20
1148.0292
  42
0.34496901
  0
VERTEX
  5
145
  8
Layer_0
  10
1165.1099
  20
1147.1929
  0
VERTEX
  5
146
  8
Layer_0
  10
1153.0959
  20
1098.536
  0
VERTEX
  5
147
  8
Layer_0
  10
1153.0959
  20
1071.5861
  0
VERTEX
  5
148
  8
Layer_0
  10
1155.4747
  20
1011.9088
  42
0.40095088
  0
SEQEND
  0
POLYLINE
  5
14a
  8
Layer_0
  62
7
  70
1
  66
1
  10
0
  20
0
  30
0
  0
VERTEX
  5
14a
  8
Layer_0
  10
1185.6959
  20
1136.586
  0
VERTEX
  5
14b
  8
Layer_0
  10
1185.6959
  20
1140.0859
  0
VERTEX
  5
14c
  8
Layer_0
  10
1186.6459
  20
1141.686
  0
VERTEX
  5
14d
  8
Layer_0
  10
1189.6459
  20
1141.686
  0
VERTEX
  5
14e
  8
Layer_0
  10
1190.5959
  20
1140.236
  0
VERTEX
  5
14f
  8
Layer_0
  10
1190.5959
  20
1136.436
  0
VERTEX
  5
150
  8
Layer_0
  10
1189.6459
  20
1134.986
  0
VERTEX
  5
151
  8
Layer_0
  10
1186.6459
  20
1134.986
  0
SEQEND
  0
POLYLINE
  5
153
  8
Layer_0
  62
7
  70
1
  66
1
  10
0
  20
0
  30
0
  0
VERTEX
  5
153
  8
Layer_0
  10
1223.796
  20
1136.586
  0
VERTEX
  5
154
  8
Layer_0
  10
1223.796
  20
1140.0859
  0
VERTEX
  5
155
  8
Layer_0
  10
1224.7459
  20
1141.686
  0
VERTEX
  5
156
  8
Layer_0
  10
1227.7459
  20
1141.6859
  0
VERTEX
  5
157
  8
Layer_0
  10
1228.6959
  20
1140.236
  0
VERTEX
  5
158
  8
Layer_0
  10
1228.6959
  20
1136.4359
  0
VERTEX
  5
159
  8
Layer_0
  10
1227.7459
  20
1134.986
  0
VERTEX
  5
15a
  8
Layer_0
  10
1224.7459
  20
1134.986
  0
SEQEND
  0
POLYLINE
  5
15c
  8
Layer_0
  62
7
  70
1
  66
1
  10
0
  20
0
  30
0
  0
VERTEX
  5
15c
  8
Layer_0
  10
1204.9459
  20
1022.7861
  0
VERTEX
  5
15d
  8
Layer_0
  10
1204.9459
  20
1021.9861
  42
0.41417759
  0
VERTEX
  5
15e
  8
Layer_0
  10
1205.8459
  20
1021.0862
  42
0.41421356
  0
VERTEX
  5
15f
  8
Layer_0
  10
1206.7458
  20
1021.9861
  0
VERTEX
  5
160
  8
Layer_0
  10
1206.7458
  20
1022.7861
  42
0.41421356
  0
VERTEX
  5
161
  8
Layer_0
  10
1205.8459
  20
1023.686
  42
0.41417759
  0
SEQEND
  0
POLYLINE
  5
163
  8
Layer_0
  62
7
  70
1
  66
1
  10
0
  20
0
  30
0
  0
VERTEX
  5
163
  8
Layer_0
  10
1195.7459
  20
1098.486
  0
VERTEX
  5
164
  8
Layer_0
  10
1195.7459
  20
1101.986
  0
VERTEX
  5
165
  8
Layer_0
  10
1196.6959
  20
1103.586
  0
VERTEX
  5
166
  8
Layer_0
  10
1199.6959
  20
1103.586
  0
VERTEX
  5
167
  8
Layer_0
  10
1200.6459
  20
1102.136
  0
VERTEX
  5
168
  8
Layer_0
  10
1200.6459
  20
1098.3361
  0
VERTEX
  5
169
  8
Layer_0
  10
1199.6959
  20
1096.886
  0
VERTEX
  5
16a
  8
Layer_0
  10
1196.6959
  20
1096.886
  0
SEQEND
  0
POLYLINE
  5
16c
  8
Layer_0
  62
7
  70
1
  66
1
  10
0
  20
0
  30
0
  0
VERTEX
  5
16c
  8
Layer_0
  10
1198.2458
  20
1044.8361
  0
VERTEX
  5
16d
  8
Layer_0
  10
1198.2458
  20
1041.3361
  0
VERTEX
  5
16e
  8
Layer_0
  10
1199.1959
  20
1039.7361
  0
VERTEX
  5
16f
  8
Layer_0
  10
1202.1959
  20
1039.7361
  0
VERTEX
  5
170
  8
Layer_0
  10
1203.1459
  20
1041.1861
  0
VERTEX
  5
171
  8
Layer_0
  10
1203.1459
  20
1044.9861
  0
VERTEX
  5
172
  8
Layer_0
  10
1202.1959
  20
1046.4361
  0
VERTEX
  5
173
  8
Layer_0
  10
1199.1959
  20
1046.4361
  0
SEQEND
  0
POLYLINE
  5
175
  8
Layer_0
  62
7
  70
1
  66
1
  10
0
  20
0
  30
0
  0
VERTEX
  5
175
  8
Layer_0
  10
1233.9459
  20
1098.486
  0
VERTEX
  5
176
  8
Layer_0
  10
1233.9459
  20
1101.986
  0
VERTEX
  5
177
  8
Layer_0
  10
1234.8959
  20
1103.5859
  0
VERTEX
  5
178
  8
Layer_0
  10
1237.8959
  20
1103.5859
  0
VERTEX
  5
179
  8
Layer_0
  10
1238.8459
  20
1102.136
  0
VERTEX
  5
17a
  8
Layer_0
  10
1238.8459
  20
1098.336
  0
VERTEX
  5
17b
  8
Layer_0
  10
1237.8959
  20
1096.886
  0
VERTEX
  5
17c
  8
Layer_0
  10
1234.8959
  20
1096.886
  0
SEQEND
  0
POLYLINE
  5
17e
  8
Layer_0
  62
7
  70
1
  66
1
  10
0
  20
0
  30
0
  0
VERTEX
  5
17e
  8
Layer_0
  10
1231.436
  20
1082.936
  0
VERTEX
  5
17f
  8
Layer_0
  10
1231.436
  20
1079.436
  0
VERTEX
  5
180
  8
Layer_0
  10
1232.3859
  20
1077.8361
  0
VERTEX
  5
181
  8
Layer_0
  10
1235.3859
  20
1077.8361
  0
VERTEX
  5
182
  8
Layer_0
  10
1236.3359
  20
1079.286
  0
VERTEX
  5
183
  8
Layer_0
  10
1236.3359
  20
1083.086
  0
VERTEX
  5
184
  8
Layer_0
  10
1235.3859
  20
1084.536
  0
VERTEX
  5
185
  8
Layer_0
  10
1232.3859
  20
1084.536
  0
SEQEND
  0
POLYLINE
  5
187
  8
Layer_0
  62
7
  70
1
  66
1
  10
0
  20
0
  30
0
  0
VERTEX
  5
187
  8
Layer_0
  10
1166.6459
  20
1136.586
  0
VERTEX
  5
188
  8
Layer_0
  10
1166.6459
  20
1140.0859
  0
VERTEX
  5
189
  8
Layer_0
  10
1167.5959
  20
1141.686
  0
VERTEX
  5
18a
  8
Layer_0
  10
1170.5959
  20
1141.686
  0
VERTEX
  5
18b
  8
Layer_0
  10
1171.546
  20
1140.236
  0
VERTEX
  5
18c
  8
Layer_0
  10
1171.546
  20
1136.436
  0
VERTEX
  5
18d
  8
Layer_0
  10
1170.5959
  20
1134.986
  0
VERTEX
  5
18e
  8
Layer_0
  10
1167.5959
  20
1134.986
  0
SEQEND
  0
POLYLINE
  5
190
  8
Layer_0
  62
7
  70
1
  66
1
  10
0
  20
0
  30
0
  0
VERTEX
  5
190
  8
Layer_0
  10
1160.1459
  20
1044.8361
  0
VERTEX
  5
191
  8
Layer_0
  10
1160.1459
  20
1041.3361
  0
VERTEX
  5
192
  8
Layer_0
  10
1161.0959
  20
1039.7361
  0
VERTEX
  5
193
  8
Layer_0
  10
1164.0959
  20
1039.7361
  0
VERTEX
  5
194
  8
Layer_0
  10
1165.0459
  20
1041.1861
  0
VERTEX
  5
195
  8
Layer_0
  10
1165.0459
  20
1044.9861
  0
VERTEX
  5
196
  8
Layer_0
  10
1164.0959
  20
1046.4361
  0
VERTEX
  5
197
  8
Layer_0
  10
1161.0959
  20
1046.4361
  0
SEQEND
  0
POLYLINE
  5
199
  8
Layer_0
  62
7
  70
1
  66
1
  10
0
  20
0
  30
0
  0
VERTEX
  5
199
  8
Layer_0
  10
1157.6459
  20
1098.486
  0
VERTEX
  5
19a
  8
Layer_0
  10
1157.6459
  20
1101.986
  0
VERTEX
  5
19b
  8
Layer_0
  10
1158.5959
  20
1103.586
  0
VERTEX
  5
19c
  8
Layer_0
  10
1161.5959
  20
1103.586
  0
VERTEX
  5
19d
  8
Layer_0
  10
1162.546
  20
1102.136
  0
VERTEX
  5
19e
  8
Layer_0
  10
1162.546
  20
1098.3361
  0
VERTEX
  5
19f
  8
Layer_0
  10
1161.5959
  20
1096.886
  0
VERTEX
  5
1a0
  8
Layer_0
  10
1158.5959
  20
1096.886
  0
SEQEND
  0
CIRCLE
  5
1a2
  8
Layer_0
  62
7
  10
1184.1208
  20
1128.8109
  30
0
  40
2.0499973
  0
CIRCLE
  5
1a2
  8
Layer_0
  62
7
  10
1222.2209
  20
1128.8109
  30
0
  40
2.0499973
  0
CIRCLE
  5
1a2
  8
Layer_0
  62
7
  10
1237.0959
  20
1025.5861
  30
0
  40
2.0499973
  0
CIRCLE
  5
1a2
  8
Layer_0
  62
7
  10
1215.7209
  20
1052.6111
  30
0
  40
2.0499973
  0
CIRCLE
  5
1a2
  8
Layer_0
  62
7
  10
1175.1208
  20
1052.6111
  30
0
  40
2.0499973
  0
CIRCLE
  5
1a2
  8
Layer_0
  62
7
  10
1211.5959
  20
1025.4611
  30
0
  40
1.0499985
  0
CIRCLE
  5
1a2
  8
Layer_0
  62
7
  10
1211.5959
  20
1018.9611
  30
0
  40
1.0499985
  0
CIRCLE
  5
1a2
  8
Layer_0
  62
7
  10
1211.5959
  20
1030.3361
  30
0
  40
2.099997
  0
CIRCLE
  5
1a2
  8
Layer_0
  62
7
  10
1211.5959
  20
1014.0861
  30
0
  40
2.099997
  0
POLYLINE
  5
1a2
  8
Layer_0
  62
7
  70
1
  66
1
  10
0
  20
0
  30
0
  0
VERTEX
  5
1a2
  8
Layer_0
  10
1240.7959
  20
1020.7861
  0
VERTEX
  5
1a3
  8
Layer_0
  10
1240.7959
  20
1025.9861
  0
VERTEX
  5
1a4
  8
Layer_0
  10
1242.5959
  20
1025.9861
  0
VERTEX
  5
1a5
  8
Layer_0
  10
1242.5959
  20
1020.7861
  0
SEQEND
  0
POLYLINE
  5
1a7
  8
Layer_0
  62
7
  70
1
  66
1
  10
0
  20
0
  30
0
  0
VERTEX
  5
1a7
  8
Layer_0
  10
1224.7709
  20
1131.6859
  0
VERTEX
  5
1a8
  8
Layer_0
  10
1224.7709
  20
1129.8859
  0
VERTEX
  5
1a9
  8
Layer_0
  10
1229.9709
  20
1129.8859
  0
VERTEX
  5
1aa
  8
Layer_0
  10
1229.9709
  20
1131.6859
  0
SEQEND
  0
POLYLINE
  5
1ac
  8
Layer_0
  62
7
  70
1
  66
1
  10
0
  20
0
  30
0
  0
VERTEX
  5
1ac
  8
Layer_0
  10
1226.3459
  20
1111.986
  0
VERTEX
  5
1ad
  8
Layer_0
  10
1226.3459
  20
1110.186
  0
VERTEX
  5
1ae
  8
Layer_0
  10
1231.5459
  20
1110.186
  0
VERTEX
  5
1af
  8
Layer_0
  10
1231.5459
  20
1111.986
  0
SEQEND
  0
POLYLINE
  5
1b1
  8
Layer_0
  62
7
  70
1
  66
1
  10
0
  20
0
  30
0
  0
VERTEX
  5
1b1
  8
Layer_0
  10
1217.6459
  20
1092.736
  0
VERTEX
  5
1b2
  8
Layer_0
  10
1217.6459
  20
1090.936
  0
VERTEX
  5
1b3
  8
Layer_0
  10
1222.8459
  20
1090.936
  0
VERTEX
  5
1b4
  8
Layer_0
  10
1222.8459
  20
1092.736
  0
SEQEND
  0
POLYLINE
  5
1b6
  8
Layer_0
  62
7
  70
1
  66
1
  10
0
  20
0
  30
0
  0
VERTEX
  5
1b6
  8
Layer_0
  10
1214.0609
  20
1073.486
  0
VERTEX
  5
1b7
  8
Layer_0
  10
1214.0609
  20
1071.686
  0
VERTEX
  5
1b8
  8
Layer_0
  10
1219.2609
  20
1071.686
  0
VERTEX
  5
1b9
  8
Layer_0
  10
1219.2609
  20
1073.486
  0
SEQEND
  0
POLYLINE
  5
1bb
  8
Layer_0
  62
7
  70
1
  66
1
  10
0
  20
0
  30
0
  0
VERTEX
  5
1bb
  8
Layer_0
  10
1218.6709
  20
1054.486
  0
VERTEX
  5
1bc
  8
Layer_0
  10
1218.6709
  20
1052.686
  0
VERTEX
  5
1bd
  8
Layer_0
  10
1223.8709
  20
1052.686
  0
VERTEX
  5
1be
  8
Layer_0
  10
1223.8709
  20
1054.486
  0
SEQEND
  0
POLYLINE
  5
1c0
  8
Layer_0
  62
7
  70
1
  66
1
  10
0
  20
0
  30
0
  0
VERTEX
  5
1c0
  8
Layer_0
  10
1205.8709
  20
1131.236
  0
VERTEX
  5
1c1
  8
Layer_0
  10
1205.8709
  20
1129.4359
  0
VERTEX
  5
1c2
  8
Layer_0
  10
1211.0709
  20
1129.4359
  0
VERTEX
  5
1c3
  8
Layer_0
  10
1211.0709
  20
1131.236
  0
SEQEND
  0
POLYLINE
  5
1c5
  8
Layer_0
  62
7
  70
1
  66
1
  10
0
  20
0
  30
0
  0
VERTEX
  5
1c5
  8
Layer_0
  10
1208.3709
  20
1111.986
  0
VERTEX
  5
1c6
  8
Layer_0
  10
1208.3709
  20
1110.186
  0
VERTEX
  5
1c7
  8
Layer_0
  10
1213.5709
  20
1110.186
  0
VERTEX
  5
1c8
  8
Layer_0
  10
1213.5709
  20
1111.986
  0
SEQEND
  0
POLYLINE
  5
1ca
  8
Layer_0
  62
7
  70
1
  66
1
  10
0
  20
0
  30
0
  0
VERTEX
  5
1ca
  8
Layer_0
  10
1198.9209
  20
1093.211
  0
VERTEX
  5
1cb
  8
Layer_0
  10
1198.9209
  20
1091.411
  0
VERTEX
  5
1cc
  8
Layer_0
  10
1204.1209
  20
1091.411
  0
VERTEX
  5
1cd
  8
Layer_0
  10
1204.1209
  20
1093.211
  0
SEQEND
  0
POLYLINE
  5
1cf
  8
Layer_0
  62
7
  70
1
  66
1
  10
0
  20
0
  30
0
  0
VERTEX
  5
1cf
  8
Layer_0
  10
1197.0609
  20
1073.236
  0
VERTEX
  5
1d0
  8
Layer_0
  10
1197.0609
  20
1071.436
  0
VERTEX
  5
1d1
  8
Layer_0
  10
1202.2609
  20
1071.436
  0
VERTEX
  5
1d2
  8
Layer_0
  10
1202.2609
  20
1073.236
  0
SEQEND
  0
POLYLINE
  5
1d4
  8
Layer_0
  62
7
  70
1
  66
1
  10
0
  20
0
  30
0
  0
VERTEX
  5
1d4
  8
Layer_0
  10
1186.8709
  20
1131.236
  0
VERTEX
  5
1d5
  8
Layer_0
  10
1186.8709
  20
1129.4359
  0
VERTEX
  5
1d6
  8
Layer_0
  10
1192.0709
  20
1129.4359
  0
VERTEX
  5
1d7
  8
Layer_0
  10
1192.0709
  20
1131.236
  0
SEQEND
  0
POLYLINE
  5
1d9
  8
Layer_0
  62
7
  70
1
  66
1
  10
0
  20
0
  30
0
  0
VERTEX
  5
1d9
  8
Layer_0
  10
1186.3709
  20
1111.736
  0
VERTEX
  5
1da
  8
Layer_0
  10
1186.3709
  20
1109.936
  0
VERTEX
  5
1db
  8
Layer_0
  10
1191.5709
  20
1109.936
  0
VERTEX
  5
1dc
  8
Layer_0
  10
1191.5709
  20
1111.736
  0
SEQEND
  0
POLYLINE
  5
1de
  8
Layer_0
  62
7
  70
1
  66
1
  10
0
  20
0
  30
0
  0
VERTEX
  5
1de
  8
Layer_0
  10
1179.1459
  20
1092.986
  0
VERTEX
  5
1df
  8
Layer_0
  10
1179.1459
  20
1091.186
  0
VERTEX
  5
1e0
  8
Layer_0
  10
1184.3459
  20
1091.186
  0
VERTEX
  5
1e1
  8
Layer_0
  10
1184.3459
  20
1092.986
  0
SEQEND
  0
POLYLINE
  5
1e3
  8
Layer_0
  62
7
  70
1
  66
1
  10
0
  20
0
  30
0
  0
VERTEX
  5
1e3
  8
Layer_0
  10
1176.5609
  20
1073.736
  0
VERTEX
  5
1e4
  8
Layer_0
  10
1176.5609
  20
1071.936
  0
VERTEX
  5
1e5
  8
Layer_0
  10
1181.7609
  20
1071.936
  0
VERTEX
  5
1e6
  8
Layer_0
  10
1181.7609
  20
1073.736
  0
SEQEND
  0
POLYLINE
  5
1e8
  8
Layer_0
  62
7
  70
1
  66
1
  10
0
  20
0
  30
0
  0
VERTEX
  5
1e8
  8
Layer_0
  10
1169.6209
  20
1131.236
  0
VERTEX
  5
1e9
  8
Layer_0
  10
1169.6209
  20
1129.4359
  0
VERTEX
  5
1ea
  8
Layer_0
  10
1174.8209
  20
1129.4359
  0
VERTEX
  5
1eb
  8
Layer_0
  10
1174.8209
  20
1131.236
  0
SEQEND
  0
POLYLINE
  5
1ed
  8
Layer_0
  62
7
  70
1
  66
1
  10
0
  20
0
  30
0
  0
VERTEX
  5
1ed
  8
Layer_0
  10
1169.8459
  20
1111.486
  0
VERTEX
  5
1ee
  8
Layer_0
  10
1169.8459
  20
1109.686
  0
VERTEX
  5
1ef
  8
Layer_0
  10
1175.0459
  20
1109.686
  0
VERTEX
  5
1f0
  8
Layer_0
  10
1175.0459
  20
1111.486
  0
SEQEND
  0
POLYLINE
  5
1f2
  8
Layer_0
  62
7
  70
1
  66
1
  10
0
  20
0
  30
0
  0
VERTEX
  5
1f2
  8
Layer_0
  10
1160.9209
  20
1092.736
  0
VERTEX
  5
1f3
  8
Layer_0
  10
1160.9209
  20
1090.936
  0
VERTEX
  5
1f4
  8
Layer_0
  10
1166.1209
  20
1090.936
  0
VERTEX
  5
1f5
  8
Layer_0
  10
1166.1209
  20
1092.736
  0
SEQEND
  0
POLYLINE
  5
1f7
  8
Layer_0
  62
7
  70
1
  66
1
  10
0
  20
0
  30
0
  0
VERTEX
  5
1f7
  8
Layer_0
  10
1158.5359
  20
1073.986
  0
VERTEX
  5
1f8
  8
Layer_0
  10
1158.5359
  20
1072.186
  0
VERTEX
  5
1f9
  8
Layer_0
  10
1163.7359
  20
1072.186
  0
VERTEX
  5
1fa
  8
Layer_0
  10
1163.7359
  20
1073.986
  0
SEQEND
  0
POLYLINE
  5
1fc
  8
Layer_0
  62
7
  70
1
  66
1
  10
0
  20
0
  30
0
  0
VERTEX
  5
1fc
  8
Layer_0
  10
1215.8959
  20
1020.5111
  0
VERTEX
  5
1fd
  8
Layer_0
  10
1215.8959
  20
1023.9111
  0
VERTEX
  5
1fe
  8
Layer_0
  10
1218.0959
  20
1023.9111
  0
VERTEX
  5
1ff
  8
Layer_0
  10
1218.0959
  20
1020.511
  0
SEQEND
  0
POLYLINE
  5
201
  8
Layer_0
  62
7
  70
1
  66
1
  10
0
  20
0
  30
0
  0
VERTEX
  5
201
  8
Layer_0
  10
1227.0959
  20
1020.511
  0
VERTEX
  5
202
  8
Layer_0
  10
1227.0959
  20
1023.9111
  0
VERTEX
  5
203
  8
Layer_0
  10
1229.2959
  20
1023.9111
  0
VERTEX
  5
204
  8
Layer_0
  10
1229.2959
  20
1020.511
  0
SEQEND
  0
CIRCLE
  5
206
  8
Layer_0
  62
7
  10
1220.0959
  20
1014.7111
  30
0
  40
1.0999986
  0
CIRCLE
  5
206
  8
Layer_0
  62
7
  10
1222.5959
  20
1014.7111
  30
0
  40
1.0999986
  0
CIRCLE
  5
206
  8
Layer_0
  62
7
  10
1225.0959
  20
1014.7111
  30
0
  40
1.0999986
  0
CIRCLE
  5
206
  8
Layer_0
  62
7
  10
1220.0959
  20
1029.2111
  30
0
  40
1.0999986
  0
CIRCLE
  5
206
  8
Layer_0
  62
7
  10
1225.0959
  20
1029.2111
  30
0
  40
1.0999986
  0
POLYLINE
  5
206
  8
Layer_0
  62
7
  70
1
  66
1
  10
0
  20
0
  30
0
  0
VERTEX
  5
206
  8
Layer_0
  10
1243.1959
  20
1045.7611
  0
VERTEX
  5
207
  8
Layer_0
  10
1243.1959
  20
1050.9611
  42
0.0029117843
  0
VERTEX
  5
208
  8
Layer_0
  10
1236.2159
  20
1050.9911
  0
VERTEX
  5
209
  8
Layer_0
  10
1236.2159
  20
1045.791
  42
0.0058031288
  0
SEQEND
  0
POLYLINE
  5
20b
  8
Layer_0
  62
7
  70
1
  66
1
  10
0
  20
0
  30
0
  0
VERTEX
  5
20b
  8
Layer_0
  10
1236.3159
  20
1104.136
  0
VERTEX
  5
20c
  8
Layer_0
  10
1236.3159
  20
1111.136
  0
VERTEX
  5
20d
  8
Layer_0
  10
1240.5159
  20
1111.136
  0
VERTEX
  5
20e
  8
Layer_0
  10
1240.5159
  20
1104.136
  0
SEQEND
  0
POLYLINE
  5
210
  8
Layer_0
  62
7
  70
1
  66
1
  10
0
  20
0
  30
0
  0
VERTEX
  5
210
  8
Layer_0
  10
1202.4958
  20
1024.8361
  0
VERTEX
  5
211
  8
Layer_0
  10
1202.4958
  20
1031.8361
  0
VERTEX
  5
212
  8
Layer_0
  10
1206.6958
  20
1031.836
  0
VERTEX
  5
213
  8
Layer_0
  10
1206.6958
  20
1024.836
  0
SEQEND
  0
POLYLINE
  5
215
  8
Layer_0
  62
7
  70
1
  66
1
  10
0
  20
0
  30
0
  0
VERTEX
  5
215
  8
Layer_0
  10
1223.4459
  20
1031.1461
  0
VERTEX
  5
216
  8
Layer_0
  10
1223.4459
  20
1035.4861
  0
VERTEX
  5
217
  8
Layer_0
  10
1218.2458
  20
1035.4861
  0
VERTEX
  5
218
  8
Layer_0
  10
1218.2458
  20
1031.1461
  0
VERTEX
  5
219
  8
Layer_0
  10
1223.4459
  20
1031.1461
  0
SEQEND
  0
POLYLINE
  5
21b
  8
Layer_0
  62
7
  70
1
  66
1
  10
0
  20
0
  30
0
  0
VERTEX
  5
21b
  8
Layer_0
  10
1204.4709
  20
1050.1861
  42
0.018209494
  0
VERTEX
  5
21c
  8
Layer_0
  10
1204.3709
  20
1054.7361
  0
VERTEX
  5
21d
  8
Layer_0
  10
1199.171
  20
1054.7361
  42
0.018048347
  0
VERTEX
  5
21e
  8
Layer_0
  10
1199.2709
  20
1050.1861
  0
SEQEND
  0
POLYLINE
  5
220
  8
Layer_0
  62
7
  70
1
  66
1
  10
0
  20
0
  30
0
  0
VERTEX
  5
220
  8
Layer_0
  10
1244.3258
  20
1027.9361
  0
VERTEX
  5
221
  8
Layer_0
  10
1244.3258
  20
1034.9361
  0
VERTEX
  5
222
  8
Layer_0
  10
1244.0415
  20
1037.5614
  0
VERTEX
  5
223
  8
Layer_0
  10
1243.058
  20
1041.2319
  0
VERTEX
  5
224
  8
Layer_0
  10
1241.7651
  20
1042.3867
  0
VERTEX
  5
225
  8
Layer_0
  10
1238.8673
  20
1041.6102
  0
VERTEX
  5
226
  8
Layer_0
  10
1238.3638
  20
1039.8189
  0
VERTEX
  5
227
  8
Layer_0
  10
1237.8207
  20
1035.6109
  0
VERTEX
  5
228
  8
Layer_0
  10
1237.8207
  20
1030.4109
  0
VERTEX
  5
229
  8
Layer_0
  10
1240.1259
  20
1027.9361
  0
VERTEX
  5
22a
  8
Layer_0
  10
1244.3258
  20
1027.9361
  0
SEQEND
  0
POLYLINE
  5
22c
  8
Layer_0
  62
7
  70
1
  66
1
  10
0
  20
0
  30
0
  0
VERTEX
  5
22c
  8
Layer_0
  10
1184.4709
  20
1048.4861
  42
0.004165563
  0
VERTEX
  5
22d
  8
Layer_0
  10
1184.4958
  20
1053.2861
  0
VERTEX
  5
22e
  8
Layer_0
  10
1179.2959
  20
1053.2861
  42
0.0041778966
  0
VERTEX
  5
22f
  8
Layer_0
  10
1179.2709
  20
1048.4861
  0
SEQEND
  0
POLYLINE
  5
231
  8
Layer_0
  62
7
  70
1
  66
1
  10
0
  20
0
  30
0
  0
VERTEX
  5
231
  8
Layer_0
  10
1166.4709
  20
1050.4361
  42
0.0012388386
  0
VERTEX
  5
232
  8
Layer_0
  10
1166.4764
  20
1054.4861
  0
VERTEX
  5
233
  8
Layer_0
  10
1161.2764
  20
1054.4861
  42
0.001202462
  0
VERTEX
  5
234
  8
Layer_0
  10
1161.2709
  20
1050.4361
  0
SEQEND
  0
POLYLINE
  5
236
  8
Layer_0
  62
7
  70
1
  66
1
  10
0
  20
0
  30
0
  0
VERTEX
  5
236
  8
Layer_0
  10
1169.2459
  20
1054.7859
  0
VERTEX
  5
237
  8
Layer_0
  10
1165.2202
  20
1056.046
  42
-0.23685476
  0
VERTEX
  5
238
  8
Layer_0
  10
1164.5775
  20
1056.7457
  0
VERTEX
  5
239
  8
Layer_0
  10
1163.396
  20
1061.636
  42
-0.11224168
  0
VERTEX
  5
23a
  8
Layer_0
  10
1163.396
  20
1062.636
  0
VERTEX
  5
23b
  8
Layer_0
  10
1164.5775
  20
1067.5262
  0
VERTEX
  5
23c
  8
Layer_0
  10
1164.7459
  20
1067.886
  0
VERTEX
  5
23d
  8
Layer_0
  10
1166.7459
  20
1070.736
  0
VERTEX
  5
23e
  8
Layer_0
  10
1169.546
  20
1070.736
  0
VERTEX
  5
23f
  8
Layer_0
  10
1172.0529
  20
1067.4598
  42
-0.16745907
  0
VERTEX
  5
240
  8
Layer_0
  10
1172.526
  20
1066.1045
  0
VERTEX
  5
241
  8
Layer_0
  10
1172.526
  20
1057.636
  0
VERTEX
  5
242
  8
Layer_0
  10
1172.146
  20
1054.7859
  0
SEQEND
  0
POLYLINE
  5
244
  8
Layer_0
  62
7
  70
1
  66
1
  10
0
  20
0
  30
0
  0
VERTEX
  5
244
  8
Layer_0
  10
1169.2459
  20
1092.886
  0
VERTEX
  5
245
  8
Layer_0
  10
1165.2202
  20
1094.1459
  42
-0.23690692
  0
VERTEX
  5
246
  8
Layer_0
  10
1164.5775
  20
1094.8458
  0
VERTEX
  5
247
  8
Layer_0
  10
1163.396
  20
1099.736
  42
-0.11224422
  0
VERTEX
  5
248
  8
Layer_0
  10
1163.396
  20
1100.736
  0
VERTEX
  5
249
  8
Layer_0
  10
1164.5775
  20
1105.6262
  0
VERTEX
  5
24a
  8
Layer_0
  10
1164.7459
  20
1105.986
  0
VERTEX
  5
24b
  8
Layer_0
  10
1166.7459
  20
1108.8359
  0
VERTEX
  5
24c
  8
Layer_0
  10
1169.546
  20
1108.8359
  0
VERTEX
  5
24d
  8
Layer_0
  10
1172.0529
  20
1105.5598
  42
-0.16745904
  0
VERTEX
  5
24e
  8
Layer_0
  10
1172.526
  20
1104.2045
  0
VERTEX
  5
24f
  8
Layer_0
  10
1172.526
  20
1095.736
  0
VERTEX
  5
250
  8
Layer_0
  10
1172.146
  20
1092.886
  0
SEQEND
  0
POLYLINE
  5
252
  8
Layer_0
  62
7
  70
1
  66
1
  10
0
  20
0
  30
0
  0
VERTEX
  5
252
  8
Layer_0
  10
1178.2459
  20
1130.986
  0
VERTEX
  5
253
  8
Layer_0
  10
1174.2202
  20
1132.246
  42
-0.23685146
  0
VERTEX
  5
254
  8
Layer_0
  10
1173.5775
  20
1132.9457
  0
VERTEX
  5
255
  8
Layer_0
  10
1172.396
  20
1137.8359
  42
-0.11224422
  0
VERTEX
  5
256
  8
Layer_0
  10
1172.396
  20
1138.8359
  0
VERTEX
  5
257
  8
Layer_0
  10
1173.5775
  20
1143.7262
  0
VERTEX
  5
258
  8
Layer_0
  10
1173.7459
  20
1144.0859
  0
VERTEX
  5
259
  8
Layer_0
  10
1175.7459
  20
1146.936
  0
VERTEX
  5
25a
  8
Layer_0
  10
1178.546
  20
1146.936
  0
VERTEX
  5
25b
  8
Layer_0
  10
1181.0529
  20
1143.6598
  42
-0.16745904
  0
VERTEX
  5
25c
  8
Layer_0
  10
1181.526
  20
1142.3044
  0
VERTEX
  5
25d
  8
Layer_0
  10
1181.526
  20
1133.8359
  0
VERTEX
  5
25e
  8
Layer_0
  10
1181.146
  20
1130.986
  0
SEQEND
  0
POLYLINE
  5
260
  8
Layer_0
  62
7
  70
1
  66
1
  10
0
  20
0
  30
0
  0
VERTEX
  5
260
  8
Layer_0
  10
1197.296
  20
1130.986
  0
VERTEX
  5
261
  8
Layer_0
  10
1193.2703
  20
1132.246
  42
-0.23691488
  0
VERTEX
  5
262
  8
Layer_0
  10
1192.6276
  20
1132.9457
  0
VERTEX
  5
263
  8
Layer_0
  10
1191.446
  20
1137.8359
  42
-0.11215494
  0
VERTEX
  5
264
  8
Layer_0
  10
1191.446
  20
1138.8359
  0
VERTEX
  5
265
  8
Layer_0
  10
1192.6276
  20
1143.7262
  0
VERTEX
  5
266
  8
Layer_0
  10
1192.796
  20
1144.0859
  0
VERTEX
  5
267
  8
Layer_0
  10
1194.796
  20
1146.9359
  0
VERTEX
  5
268
  8
Layer_0
  10
1197.596
  20
1146.9359
  0
VERTEX
  5
269
  8
Layer_0
  10
1200.103
  20
1143.6597
  42
-0.16749093
  0
VERTEX
  5
26a
  8
Layer_0
  10
1200.576
  20
1142.3044
  0
VERTEX
  5
26b
  8
Layer_0
  10
1200.576
  20
1133.8359
  0
VERTEX
  5
26c
  8
Layer_0
  10
1200.196
  20
1130.986
  0
SEQEND
  0
POLYLINE
  5
26e
  8
Layer_0
  62
7
  70
1
  66
1
  10
0
  20
0
  30
0
  0
VERTEX
  5
26e
  8
Layer_0
  10
1197.296
  20
1111.9359
  0
VERTEX
  5
26f
  8
Layer_0
  10
1193.2703
  20
1113.1959
  42
-0.23693275
  0
VERTEX
  5
270
  8
Layer_0
  10
1192.6276
  20
1113.8958
  0
VERTEX
  5
271
  8
Layer_0
  10
1191.446
  20
1118.7859
  42
-0.11215494
  0
VERTEX
  5
272
  8
Layer_0
  10
1191.446
  20
1119.7859
  0
VERTEX
  5
273
  8
Layer_0
  10
1192.6276
  20
1124.6761
  0
VERTEX
  5
274
  8
Layer_0
  10
1192.796
  20
1125.0359
  0
VERTEX
  5
275
  8
Layer_0
  10
1194.796
  20
1127.8859
  0
VERTEX
  5
276
  8
Layer_0
  10
1197.596
  20
1127.8859
  0
VERTEX
  5
277
  8
Layer_0
  10
1200.103
  20
1124.6097
  42
-0.16749093
  0
VERTEX
  5
278
  8
Layer_0
  10
1200.576
  20
1123.2545
  0
VERTEX
  5
279
  8
Layer_0
  10
1200.576
  20
1114.7859
  0
VERTEX
  5
27a
  8
Layer_0
  10
1200.196
  20
1111.9359
  0
SEQEND
  0
POLYLINE
  5
27c
  8
Layer_0
  62
7
  70
1
  66
1
  10
0
  20
0
  30
0
  0
VERTEX
  5
27c
  8
Layer_0
  10
1216.3459
  20
1111.9359
  0
VERTEX
  5
27d
  8
Layer_0
  10
1212.3203
  20
1113.1959
  42
-0.23693275
  0
VERTEX
  5
27e
  8
Layer_0
  10
1211.6776
  20
1113.8958
  0
VERTEX
  5
27f
  8
Layer_0
  10
1210.4959
  20
1118.7859
  42
-0.11215494
  0
VERTEX
  5
280
  8
Layer_0
  10
1210.4959
  20
1119.7859
  0
VERTEX
  5
281
  8
Layer_0
  10
1211.6776
  20
1124.6761
  0
VERTEX
  5
282
  8
Layer_0
  10
1211.846
  20
1125.0359
  0
VERTEX
  5
283
  8
Layer_0
  10
1213.8459
  20
1127.8859
  0
VERTEX
  5
284
  8
Layer_0
  10
1216.646
  20
1127.8859
  0
VERTEX
  5
285
  8
Layer_0
  10
1219.153
  20
1124.6097
  42
-0.1674959
  0
VERTEX
  5
286
  8
Layer_0
  10
1219.626
  20
1123.2545
  0
VERTEX
  5
287
  8
Layer_0
  10
1219.626
  20
1114.7859
  0
VERTEX
  5
288
  8
Layer_0
  10
1219.246
  20
1111.9359
  0
SEQEND
  0
POLYLINE
  5
28a
  8
Layer_0
  62
7
  70
1
  66
1
  10
0
  20
0
  30
0
  0
VERTEX
  5
28a
  8
Layer_0
  10
1216.3459
  20
1130.986
  0
VERTEX
  5
28b
  8
Layer_0
  10
1212.3203
  20
1132.246
  42
-0.23691488
  0
VERTEX
  5
28c
  8
Layer_0
  10
1211.6776
  20
1132.9457
  0
VERTEX
  5
28d
  8
Layer_0
  10
1210.4959
  20
1137.8359
  42
-0.11215494
  0
VERTEX
  5
28e
  8
Layer_0
  10
1210.4959
  20
1138.8359
  0
VERTEX
  5
28f
  8
Layer_0
  10
1211.6776
  20
1143.7261
  0
VERTEX
  5
290
  8
Layer_0
  10
1211.846
  20
1144.0859
  0
VERTEX
  5
291
  8
Layer_0
  10
1213.8459
  20
1146.9359
  0
VERTEX
  5
292
  8
Layer_0
  10
1216.646
  20
1146.9359
  0
VERTEX
  5
293
  8
Layer_0
  10
1219.153
  20
1143.6597
  42
-0.1674959
  0
VERTEX
  5
294
  8
Layer_0
  10
1219.626
  20
1142.3044
  0
VERTEX
  5
295
  8
Layer_0
  10
1219.626
  20
1133.8359
  0
VERTEX
  5
296
  8
Layer_0
  10
1219.246
  20
1130.986
  0
SEQEND
  0
POLYLINE
  5
298
  8
Layer_0
  62
7
  70
1
  66
1
  10
0
  20
0
  30
0
  0
VERTEX
  5
298
  8
Layer_0
  10
1235.396
  20
1130.986
  0
VERTEX
  5
299
  8
Layer_0
  10
1231.3702
  20
1132.246
  42
-0.23691488
  0
VERTEX
  5
29a
  8
Layer_0
  10
1230.7275
  20
1132.9457
  0
VERTEX
  5
29b
  8
Layer_0
  10
1229.546
  20
1137.8359
  42
-0.11224422
  0
VERTEX
  5
29c
  8
Layer_0
  10
1229.546
  20
1138.8359
  0
VERTEX
  5
29d
  8
Layer_0
  10
1230.7275
  20
1143.7261
  0
VERTEX
  5
29e
  8
Layer_0
  10
1230.896
  20
1144.0859
  0
VERTEX
  5
29f
  8
Layer_0
  10
1232.896
  20
1146.9359
  0
VERTEX
  5
2a0
  8
Layer_0
  10
1235.6959
  20
1146.9359
  0
VERTEX
  5
2a1
  8
Layer_0
  10
1238.203
  20
1143.6597
  42
-0.16745907
  0
VERTEX
  5
2a2
  8
Layer_0
  10
1238.676
  20
1142.3044
  0
VERTEX
  5
2a3
  8
Layer_0
  10
1238.676
  20
1133.8359
  0
VERTEX
  5
2a4
  8
Layer_0
  10
1238.296
  20
1130.986
  0
SEQEND
  0
POLYLINE
  5
2a6
  8
Layer_0
  62
7
  70
1
  66
1
  10
0
  20
0
  30
0
  0
VERTEX
  5
2a6
  8
Layer_0
  10
1235.396
  20
1111.9359
  0
VERTEX
  5
2a7
  8
Layer_0
  10
1231.3702
  20
1113.1959
  42
-0.23693275
  0
VERTEX
  5
2a8
  8
Layer_0
  10
1230.7275
  20
1113.8958
  0
VERTEX
  5
2a9
  8
Layer_0
  10
1229.546
  20
1118.7859
  42
-0.11224422
  0
VERTEX
  5
2aa
  8
Layer_0
  10
1229.546
  20
1119.7859
  0
VERTEX
  5
2ab
  8
Layer_0
  10
1230.7275
  20
1124.6761
  0
VERTEX
  5
2ac
  8
Layer_0
  10
1230.896
  20
1125.0359
  0
VERTEX
  5
2ad
  8
Layer_0
  10
1232.896
  20
1127.8859
  0
VERTEX
  5
2ae
  8
Layer_0
  10
1235.6959
  20
1127.8859
  0
VERTEX
  5
2af
  8
Layer_0
  10
1238.203
  20
1124.6097
  42
-0.16745907
  0
VERTEX
  5
2b0
  8
Layer_0
  10
1238.676
  20
1123.2545
  0
VERTEX
  5
2b1
  8
Layer_0
  10
1238.676
  20
1114.7859
  0
VERTEX
  5
2b2
  8
Layer_0
  10
1238.296
  20
1111.9359
  0
SEQEND
  0
POLYLINE
  5
2b4
  8
Layer_0
  62
7
  70
1
  66
1
  10
0
  20
0
  30
0
  0
VERTEX
  5
2b4
  8
Layer_0
  10
1251.9238
  20
1034.031
  0
VERTEX
  5
2b5
  8
Layer_0
  10
1247.7092
  20
1034.2062
  42
-0.23695264
  0
VERTEX
  5
2b6
  8
Layer_0
  10
1246.9072
  20
1034.7158
  0
VERTEX
  5
2b7
  8
Layer_0
  10
1244.5002
  20
1039.1335
  42
-0.11225774
  0
VERTEX
  5
2b8
  8
Layer_0
  10
1244.2415
  20
1040.0995
  0
VERTEX
  5
2b9
  8
Layer_0
  10
1244.1172
  20
1045.1288
  0
VERTEX
  5
2ba
  8
Layer_0
  10
1244.1866
  20
1045.52
  0
VERTEX
  5
2bb
  8
Layer_0
  10
1245.3809
  20
1048.7905
  0
VERTEX
  5
2bc
  8
Layer_0
  10
1248.0854
  20
1049.5153
  0
VERTEX
  5
2bd
  8
Layer_0
  10
1251.3551
  20
1046.9995
  42
-0.16747995
  0
VERTEX
  5
2be
  8
Layer_0
  10
1252.1627
  20
1045.8128
  0
VERTEX
  5
2bf
  8
Layer_0
  10
1254.3545
  20
1037.6329
  0
VERTEX
  5
2c0
  8
Layer_0
  10
1254.7251
  20
1034.7816
  0
SEQEND
  0
POLYLINE
  5
2c2
  8
Layer_0
  62
7
  70
1
  66
1
  10
0
  20
0
  30
0
  0
VERTEX
  5
2c2
  8
Layer_0
  10
1245.546
  20
1092.8859
  0
VERTEX
  5
2c3
  8
Layer_0
  10
1241.5203
  20
1094.1459
  42
-0.23688983
  0
VERTEX
  5
2c4
  8
Layer_0
  10
1240.8776
  20
1094.8458
  0
VERTEX
  5
2c5
  8
Layer_0
  10
1239.6959
  20
1099.736
  42
-0.11215494
  0
VERTEX
  5
2c6
  8
Layer_0
  10
1239.6959
  20
1100.736
  0
VERTEX
  5
2c7
  8
Layer_0
  10
1240.8776
  20
1105.6262
  0
VERTEX
  5
2c8
  8
Layer_0
  10
1241.046
  20
1105.986
  0
VERTEX
  5
2c9
  8
Layer_0
  10
1243.046
  20
1108.8359
  0
VERTEX
  5
2ca
  8
Layer_0
  10
1245.8459
  20
1108.8359
  0
VERTEX
  5
2cb
  8
Layer_0
  10
1248.353
  20
1105.5597
  42
-0.1674959
  0
VERTEX
  5
2cc
  8
Layer_0
  10
1248.8259
  20
1104.2045
  0
VERTEX
  5
2cd
  8
Layer_0
  10
1248.8259
  20
1095.736
  0
VERTEX
  5
2ce
  8
Layer_0
  10
1248.4459
  20
1092.8859
  0
SEQEND
  0
POLYLINE
  5
2d0
  8
Layer_0
  62
7
  70
1
  66
1
  10
0
  20
0
  30
0
  0
VERTEX
  5
2d0
  8
Layer_0
  10
1243.036
  20
1073.8359
  0
VERTEX
  5
2d1
  8
Layer_0
  10
1239.0103
  20
1075.0959
  42
-0.23692945
  0
VERTEX
  5
2d2
  8
Layer_0
  10
1238.3676
  20
1075.7958
  0
VERTEX
  5
2d3
  8
Layer_0
  10
1237.186
  20
1080.6859
  42
-0.11224422
  0
VERTEX
  5
2d4
  8
Layer_0
  10
1237.186
  20
1081.6859
  0
VERTEX
  5
2d5
  8
Layer_0
  10
1238.3676
  20
1086.5762
  0
VERTEX
  5
2d6
  8
Layer_0
  10
1238.536
  20
1086.9359
  0
VERTEX
  5
2d7
  8
Layer_0
  10
1240.536
  20
1089.7859
  0
VERTEX
  5
2d8
  8
Layer_0
  10
1243.3359
  20
1089.7859
  0
VERTEX
  5
2d9
  8
Layer_0
  10
1245.843
  20
1086.5097
  42
-0.16749587
  0
VERTEX
  5
2da
  8
Layer_0
  10
1246.3159
  20
1085.1544
  0
VERTEX
  5
2db
  8
Layer_0
  10
1246.3159
  20
1076.6859
  0
VERTEX
  5
2dc
  8
Layer_0
  10
1245.936
  20
1073.8359
  0
SEQEND
  0
POLYLINE
  5
2de
  8
Layer_0
  62
7
  70
1
  66
1
  10
0
  20
0
  30
0
  0
VERTEX
  5
2de
  8
Layer_0
  10
1245.4459
  20
1054.7859
  0
VERTEX
  5
2df
  8
Layer_0
  10
1241.4203
  20
1056.046
  42
-0.23691819
  0
VERTEX
  5
2e0
  8
Layer_0
  10
1240.7776
  20
1056.7457
  0
VERTEX
  5
2e1
  8
Layer_0
  10
1239.5959
  20
1061.636
  42
-0.11215241
  0
VERTEX
  5
2e2
  8
Layer_0
  10
1239.5959
  20
1062.636
  0
VERTEX
  5
2e3
  8
Layer_0
  10
1240.7776
  20
1067.5261
  0
VERTEX
  5
2e4
  8
Layer_0
  10
1240.9459
  20
1067.886
  0
VERTEX
  5
2e5
  8
Layer_0
  10
1242.9459
  20
1070.736
  0
VERTEX
  5
2e6
  8
Layer_0
  10
1245.746
  20
1070.736
  0
VERTEX
  5
2e7
  8
Layer_0
  10
1248.2529
  20
1067.4597
  42
-0.16745904
  0
VERTEX
  5
2e8
  8
Layer_0
  10
1248.726
  20
1066.1044
  0
VERTEX
  5
2e9
  8
Layer_0
  10
1248.726
  20
1057.6359
  0
VERTEX
  5
2ea
  8
Layer_0
  10
1248.3459
  20
1054.7859
  0
SEQEND
  0
POLYLINE
  5
2ec
  8
Layer_0
  62
7
  70
1
  66
1
  10
0
  20
0
  30
0
  0
VERTEX
  5
2ec
  8
Layer_0
  10
1228.8459
  20
1035.736
  0
VERTEX
  5
2ed
  8
Layer_0
  10
1224.8203
  20
1036.996
  42
-0.23690692
  0
VERTEX
  5
2ee
  8
Layer_0
  10
1224.1776
  20
1037.6957
  0
VERTEX
  5
2ef
  8
Layer_0
  10
1222.996
  20
1042.5859
  42
-0.11215241
  0
VERTEX
  5
2f0
  8
Layer_0
  10
1222.996
  20
1043.5859
  0
VERTEX
  5
2f1
  8
Layer_0
  10
1224.1776
  20
1048.4761
  0
VERTEX
  5
2f2
  8
Layer_0
  10
1224.3459
  20
1048.8359
  0
VERTEX
  5
2f3
  8
Layer_0
  10
1226.3459
  20
1051.6859
  0
VERTEX
  5
2f4
  8
Layer_0
  10
1229.146
  20
1051.6859
  0
VERTEX
  5
2f5
  8
Layer_0
  10
1231.653
  20
1048.4097
  42
-0.1674959
  0
VERTEX
  5
2f6
  8
Layer_0
  10
1232.126
  20
1047.0544
  0
VERTEX
  5
2f7
  8
Layer_0
  10
1232.126
  20
1038.5859
  0
VERTEX
  5
2f8
  8
Layer_0
  10
1231.746
  20
1035.736
  0
SEQEND
  0
POLYLINE
  5
2fa
  8
Layer_0
  62
7
  70
1
  66
1
  10
0
  20
0
  30
0
  0
VERTEX
  5
2fa
  8
Layer_0
  10
1226.4459
  20
1054.7859
  0
VERTEX
  5
2fb
  8
Layer_0
  10
1222.4203
  20
1056.046
  42
-0.23691819
  0
VERTEX
  5
2fc
  8
Layer_0
  10
1221.7776
  20
1056.7457
  0
VERTEX
  5
2fd
  8
Layer_0
  10
1220.5959
  20
1061.636
  42
-0.11215241
  0
VERTEX
  5
2fe
  8
Layer_0
  10
1220.5959
  20
1062.636
  0
VERTEX
  5
2ff
  8
Layer_0
  10
1221.7776
  20
1067.5261
  0
VERTEX
  5
300
  8
Layer_0
  10
1221.9459
  20
1067.886
  0
VERTEX
  5
301
  8
Layer_0
  10
1223.9459
  20
1070.736
  0
VERTEX
  5
302
  8
Layer_0
  10
1226.746
  20
1070.736
  0
VERTEX
  5
303
  8
Layer_0
  10
1229.2529
  20
1067.4597
  42
-0.16745904
  0
VERTEX
  5
304
  8
Layer_0
  10
1229.726
  20
1066.1044
  0
VERTEX
  5
305
  8
Layer_0
  10
1229.726
  20
1057.636
  0
VERTEX
  5
306
  8
Layer_0
  10
1229.3459
  20
1054.7859
  0
SEQEND
  0
POLYLINE
  5
308
  8
Layer_0
  62
7
  70
1
  66
1
  10
0
  20
0
  30
0
  0
VERTEX
  5
308
  8
Layer_0
  10
1223.936
  20
1073.8359
  0
VERTEX
  5
309
  8
Layer_0
  10
1219.9103
  20
1075.0959
  42
-0.23692945
  0
VERTEX
  5
30a
  8
Layer_0
  10
1219.2676
  20
1075.7958
  0
VERTEX
  5
30b
  8
Layer_0
  10
1218.0859
  20
1080.6859
  42
-0.11215494
  0
VERTEX
  5
30c
  8
Layer_0
  10
1218.0859
  20
1081.6859
  0
VERTEX
  5
30d
  8
Layer_0
  10
1219.2676
  20
1086.5762
  0
VERTEX
  5
30e
  8
Layer_0
  10
1219.436
  20
1086.9359
  0
VERTEX
  5
30f
  8
Layer_0
  10
1221.436
  20
1089.7859
  0
VERTEX
  5
310
  8
Layer_0
  10
1224.236
  20
1089.7859
  0
VERTEX
  5
311
  8
Layer_0
  10
1226.7429
  20
1086.5098
  42
-0.16749587
  0
VERTEX
  5
312
  8
Layer_0
  10
1227.2159
  20
1085.1544
  0
VERTEX
  5
313
  8
Layer_0
  10
1227.2159
  20
1076.6859
  0
VERTEX
  5
314
  8
Layer_0
  10
1226.8359
  20
1073.8359
  0
SEQEND
  0
POLYLINE
  5
316
  8
Layer_0
  62
7
  70
1
  66
1
  10
0
  20
0
  30
0
  0
VERTEX
  5
316
  8
Layer_0
  10
1226.4459
  20
1092.886
  0
VERTEX
  5
317
  8
Layer_0
  10
1222.4203
  20
1094.1459
  42
-0.23690692
  0
VERTEX
  5
318
  8
Layer_0
  10
1221.7776
  20
1094.8458
  0
VERTEX
  5
319
  8
Layer_0
  10
1220.5959
  20
1099.736
  42
-0.11215494
  0
VERTEX
  5
31a
  8
Layer_0
  10
1220.5959
  20
1100.736
  0
VERTEX
  5
31b
  8
Layer_0
  10
1221.7776
  20
1105.6262
  0
VERTEX
  5
31c
  8
Layer_0
  10
1221.9459
  20
1105.986
  0
VERTEX
  5
31d
  8
Layer_0
  10
1223.9459
  20
1108.8359
  0
VERTEX
  5
31e
  8
Layer_0
  10
1226.746
  20
1108.8359
  0
VERTEX
  5
31f
  8
Layer_0
  10
1229.2529
  20
1105.5598
  42
-0.16746398
  0
VERTEX
  5
320
  8
Layer_0
  10
1229.726
  20
1104.2045
  0
VERTEX
  5
321
  8
Layer_0
  10
1229.726
  20
1095.736
  0
VERTEX
  5
322
  8
Layer_0
  10
1229.3459
  20
1092.886
  0
SEQEND
  0
POLYLINE
  5
324
  8
Layer_0
  62
7
  70
1
  66
1
  10
0
  20
0
  30
0
  0
VERTEX
  5
324
  8
Layer_0
  10
1204.936
  20
1073.8359
  0
VERTEX
  5
325
  8
Layer_0
  10
1200.9102
  20
1075.0959
  42
-0.23692945
  0
VERTEX
  5
326
  8
Layer_0
  10
1200.2675
  20
1075.7958
  0
VERTEX
  5
327
  8
Layer_0
  10
1199.086
  20
1080.6859
  42
-0.11224422
  0
VERTEX
  5
328
  8
Layer_0
  10
1199.086
  20
1081.6859
  0
VERTEX
  5
329
  8
Layer_0
  10
1200.2675
  20
1086.5762
  0
VERTEX
  5
32a
  8
Layer_0
  10
1200.4359
  20
1086.9359
  0
VERTEX
  5
32b
  8
Layer_0
  10
1202.436
  20
1089.7859
  0
VERTEX
  5
32c
  8
Layer_0
  10
1205.236
  20
1089.7859
  0
VERTEX
  5
32d
  8
Layer_0
  10
1207.743
  20
1086.5098
  42
-0.16749587
  0
VERTEX
  5
32e
  8
Layer_0
  10
1208.216
  20
1085.1544
  0
VERTEX
  5
32f
  8
Layer_0
  10
1208.216
  20
1076.6859
  0
VERTEX
  5
330
  8
Layer_0
  10
1207.836
  20
1073.8359
  0
SEQEND
  0
POLYLINE
  5
332
  8
Layer_0
  62
7
  70
1
  66
1
  10
0
  20
0
  30
0
  0
VERTEX
  5
332
  8
Layer_0
  10
1207.346
  20
1092.886
  0
VERTEX
  5
333
  8
Layer_0
  10
1203.3203
  20
1094.1459
  42
-0.23690692
  0
VERTEX
  5
334
  8
Layer_0
  10
1202.6776
  20
1094.8458
  0
VERTEX
  5
335
  8
Layer_0
  10
1201.4959
  20
1099.736
  42
-0.11215494
  0
VERTEX
  5
336
  8
Layer_0
  10
1201.4959
  20
1100.736
  0
VERTEX
  5
337
  8
Layer_0
  10
1202.6776
  20
1105.6262
  0
VERTEX
  5
338
  8
Layer_0
  10
1202.846
  20
1105.986
  0
VERTEX
  5
339
  8
Layer_0
  10
1204.846
  20
1108.8359
  0
VERTEX
  5
33a
  8
Layer_0
  10
1207.646
  20
1108.8359
  0
VERTEX
  5
33b
  8
Layer_0
  10
1210.153
  20
1105.5598
  42
-0.1674959
  0
VERTEX
  5
33c
  8
Layer_0
  10
1210.6259
  20
1104.2045
  0
VERTEX
  5
33d
  8
Layer_0
  10
1210.6259
  20
1095.736
  0
VERTEX
  5
33e
  8
Layer_0
  10
1210.2459
  20
1092.886
  0
SEQEND
  0
POLYLINE
  5
340
  8
Layer_0
  62
7
  70
1
  66
1
  10
0
  20
0
  30
0
  0
VERTEX
  5
340
  8
Layer_0
  10
1209.846
  20
1035.736
  0
VERTEX
  5
341
  8
Layer_0
  10
1205.8203
  20
1036.996
  42
-0.23690692
  0
VERTEX
  5
342
  8
Layer_0
  10
1205.1776
  20
1037.6957
  0
VERTEX
  5
343
  8
Layer_0
  10
1203.9959
  20
1042.5859
  42
-0.11215241
  0
VERTEX
  5
344
  8
Layer_0
  10
1203.9959
  20
1043.5859
  0
VERTEX
  5
345
  8
Layer_0
  10
1205.1776
  20
1048.4761
  0
VERTEX
  5
346
  8
Layer_0
  10
1205.346
  20
1048.8359
  0
VERTEX
  5
347
  8
Layer_0
  10
1207.346
  20
1051.6859
  0
VERTEX
  5
348
  8
Layer_0
  10
1210.146
  20
1051.6859
  0
VERTEX
  5
349
  8
Layer_0
  10
1212.653
  20
1048.4097
  42
-0.1674959
  0
VERTEX
  5
34a
  8
Layer_0
  10
1213.126
  20
1047.0544
  0
VERTEX
  5
34b
  8
Layer_0
  10
1213.126
  20
1038.5859
  0
VERTEX
  5
34c
  8
Layer_0
  10
1212.746
  20
1035.736
  0
SEQEND
  0
POLYLINE
  5
34e
  8
Layer_0
  62
7
  70
1
  66
1
  10
0
  20
0
  30
0
  0
VERTEX
  5
34e
  8
Layer_0
  10
1207.346
  20
1054.7859
  0
VERTEX
  5
34f
  8
Layer_0
  10
1203.3203
  20
1056.046
  42
-0.23691819
  0
VERTEX
  5
350
  8
Layer_0
  10
1202.6776
  20
1056.7457
  0
VERTEX
  5
351
  8
Layer_0
  10
1201.4959
  20
1061.636
  42
-0.11215241
  0
VERTEX
  5
352
  8
Layer_0
  10
1201.4959
  20
1062.636
  0
VERTEX
  5
353
  8
Layer_0
  10
1202.6776
  20
1067.5261
  0
VERTEX
  5
354
  8
Layer_0
  10
1202.846
  20
1067.886
  0
VERTEX
  5
355
  8
Layer_0
  10
1204.846
  20
1070.736
  0
VERTEX
  5
356
  8
Layer_0
  10
1207.646
  20
1070.736
  0
VERTEX
  5
357
  8
Layer_0
  10
1210.153
  20
1067.4597
  42
-0.16749093
  0
VERTEX
  5
358
  8
Layer_0
  10
1210.6259
  20
1066.1044
  0
VERTEX
  5
359
  8
Layer_0
  10
1210.6259
  20
1057.636
  0
VERTEX
  5
35a
  8
Layer_0
  10
1210.2459
  20
1054.7859
  0
SEQEND
  0
POLYLINE
  5
35c
  8
Layer_0
  62
7
  70
1
  66
1
  10
0
  20
0
  30
0
  0
VERTEX
  5
35c
  8
Layer_0
  10
1188.2459
  20
1092.886
  0
VERTEX
  5
35d
  8
Layer_0
  10
1184.2202
  20
1094.1459
  42
-0.23690692
  0
VERTEX
  5
35e
  8
Layer_0
  10
1183.5775
  20
1094.8458
  0
VERTEX
  5
35f
  8
Layer_0
  10
1182.396
  20
1099.736
  42
-0.11224422
  0
VERTEX
  5
360
  8
Layer_0
  10
1182.396
  20
1100.736
  0
VERTEX
  5
361
  8
Layer_0
  10
1183.5775
  20
1105.6262
  0
VERTEX
  5
362
  8
Layer_0
  10
1183.7459
  20
1105.986
  0
VERTEX
  5
363
  8
Layer_0
  10
1185.7459
  20
1108.8359
  0
VERTEX
  5
364
  8
Layer_0
  10
1188.546
  20
1108.8359
  0
VERTEX
  5
365
  8
Layer_0
  10
1191.0529
  20
1105.5598
  42
-0.16745904
  0
VERTEX
  5
366
  8
Layer_0
  10
1191.526
  20
1104.2045
  0
VERTEX
  5
367
  8
Layer_0
  10
1191.526
  20
1095.736
  0
VERTEX
  5
368
  8
Layer_0
  10
1191.146
  20
1092.886
  0
SEQEND
  0
POLYLINE
  5
36a
  8
Layer_0
  62
7
  70
1
  66
1
  10
0
  20
0
  30
0
  0
VERTEX
  5
36a
  8
Layer_0
  10
1185.836
  20
1073.8359
  0
VERTEX
  5
36b
  8
Layer_0
  10
1181.8103
  20
1075.0959
  42
-0.23692945
  0
VERTEX
  5
36c
  8
Layer_0
  10
1181.1676
  20
1075.7958
  0
VERTEX
  5
36d
  8
Layer_0
  10
1179.986
  20
1080.686
  42
-0.11224422
  0
VERTEX
  5
36e
  8
Layer_0
  10
1179.986
  20
1081.686
  0
VERTEX
  5
36f
  8
Layer_0
  10
1181.1676
  20
1086.5762
  0
VERTEX
  5
370
  8
Layer_0
  10
1181.336
  20
1086.936
  0
VERTEX
  5
371
  8
Layer_0
  10
1183.336
  20
1089.7859
  0
VERTEX
  5
372
  8
Layer_0
  10
1186.136
  20
1089.7859
  0
VERTEX
  5
373
  8
Layer_0
  10
1188.643
  20
1086.5098
  42
-0.1674959
  0
VERTEX
  5
374
  8
Layer_0
  10
1189.1159
  20
1085.1545
  0
VERTEX
  5
375
  8
Layer_0
  10
1189.1159
  20
1076.686
  0
VERTEX
  5
376
  8
Layer_0
  10
1188.736
  20
1073.8359
  0
SEQEND
  0
POLYLINE
  5
378
  8
Layer_0
  62
7
  70
1
  66
1
  10
0
  20
0
  30
0
  0
VERTEX
  5
378
  8
Layer_0
  10
1188.346
  20
1054.7859
  0
VERTEX
  5
379
  8
Layer_0
  10
1184.3203
  20
1056.046
  42
-0.23691819
  0
VERTEX
  5
37a
  8
Layer_0
  10
1183.6776
  20
1056.7457
  0
VERTEX
  5
37b
  8
Layer_0
  10
1182.4959
  20
1061.636
  42
-0.11215241
  0
VERTEX
  5
37c
  8
Layer_0
  10
1182.4959
  20
1062.636
  0
VERTEX
  5
37d
  8
Layer_0
  10
1183.6776
  20
1067.5262
  0
VERTEX
  5
37e
  8
Layer_0
  10
1183.846
  20
1067.886
  0
VERTEX
  5
37f
  8
Layer_0
  10
1185.846
  20
1070.736
  0
VERTEX
  5
380
  8
Layer_0
  10
1188.646
  20
1070.736
  0
VERTEX
  5
381
  8
Layer_0
  10
1191.153
  20
1067.4598
  42
-0.16749096
  0
VERTEX
  5
382
  8
Layer_0
  10
1191.6259
  20
1066.1045
  0
VERTEX
  5
383
  8
Layer_0
  10
1191.6259
  20
1057.636
  0
VERTEX
  5
384
  8
Layer_0
  10
1191.2459
  20
1054.7859
  0
SEQEND
  0
POLYLINE
  5
386
  8
Layer_0
  62
7
  70
1
  66
1
  10
0
  20
0
  30
0
  0
VERTEX
  5
386
  8
Layer_0
  10
1190.846
  20
1035.736
  0
VERTEX
  5
387
  8
Layer_0
  10
1186.8203
  20
1036.996
  42
-0.23690692
  0
VERTEX
  5
388
  8
Layer_0
  10
1186.1776
  20
1037.6957
  0
VERTEX
  5
389
  8
Layer_0
  10
1184.9959
  20
1042.5859
  42
-0.11215241
  0
VERTEX
  5
38a
  8
Layer_0
  10
1184.9959
  20
1043.5859
  0
VERTEX
  5
38b
  8
Layer_0
  10
1186.1776
  20
1048.4761
  0
VERTEX
  5
38c
  8
Layer_0
  10
1186.346
  20
1048.8359
  0
VERTEX
  5
38d
  8
Layer_0
  10
1188.346
  20
1051.686
  0
VERTEX
  5
38e
  8
Layer_0
  10
1191.146
  20
1051.686
  0
VERTEX
  5
38f
  8
Layer_0
  10
1193.653
  20
1048.4097
  42
-0.1674959
  0
VERTEX
  5
390
  8
Layer_0
  10
1194.1259
  20
1047.0544
  0
VERTEX
  5
391
  8
Layer_0
  10
1194.1259
  20
1038.5859
  0
VERTEX
  5
392
  8
Layer_0
  10
1193.7459
  20
1035.736
  0
SEQEND
  0
POLYLINE
  5
394
  8
Layer_0
  62
7
  70
1
  66
1
  10
0
  20
0
  30
0
  0
VERTEX
  5
394
  8
Layer_0
  10
1165.8539
  20
1042.8348
  0
VERTEX
  5
395
  8
Layer_0
  10
1165.8959
  20
1042.5861
  0
VERTEX
  5
396
  8
Layer_0
  10
1167.0775
  20
1037.6957
  0
VERTEX
  5
397
  8
Layer_0
  10
1167.1185
  20
1037.5782
  42
0.062047366
  0
VERTEX
  5
398
  8
Layer_0
  10
1167.316
  20
1037.2697
  0
VERTEX
  5
399
  8
Layer_0
  10
1167.4037
  20
1037.1847
  42
0.075603876
  0
VERTEX
  5
39a
  8
Layer_0
  10
1167.7201
  20
1036.996
  0
VERTEX
  5
39b
  8
Layer_0
  10
1171.746
  20
1035.736
  0
VERTEX
  5
39c
  8
Layer_0
  10
1174.6459
  20
1035.736
  0
VERTEX
  5
39d
  8
Layer_0
  10
1175.026
  20
1038.5861
  0
VERTEX
  5
39e
  8
Layer_0
  10
1175.026
  20
1039.5861
  0
VERTEX
  5
39f
  8
Layer_0
  10
1179.6959
  20
1039.5861
  0
VERTEX
  5
3a0
  8
Layer_0
  10
1183.1959
  20
1039.736
  0
VERTEX
  5
3a1
  8
Layer_0
  10
1184.1459
  20
1041.1859
  0
VERTEX
  5
3a2
  8
Layer_0
  10
1184.1459
  20
1044.986
  0
VERTEX
  5
3a3
  8
Layer_0
  10
1183.1959
  20
1046.4359
  42
0.0087533022
  0
VERTEX
  5
3a4
  8
Layer_0
  10
1175.026
  20
1046.5963
  42
0.074505714
  0
VERTEX
  5
3a5
  8
Layer_0
  10
1174.9557
  20
1047.5975
  42
0.10254085
  0
VERTEX
  5
3a6
  8
Layer_0
  10
1174.5529
  20
1048.4098
  0
VERTEX
  5
3a7
  8
Layer_0
  10
1172.046
  20
1051.6859
  0
VERTEX
  5
3a8
  8
Layer_0
  10
1169.246
  20
1051.6859
  0
VERTEX
  5
3a9
  8
Layer_0
  10
1167.246
  20
1048.8361
  0
VERTEX
  5
3aa
  8
Layer_0
  10
1167.0775
  20
1048.4762
  0
VERTEX
  5
3ab
  8
Layer_0
  10
1165.8959
  20
1043.5861
  42
0.088980927
  0
SEQEND
  0
POLYLINE
  5
3ad
  8
Layer_0
  62
7
  70
1
  66
1
  10
0
  20
0
  30
0
  0
VERTEX
  5
3ad
  8
Layer_0
  10
1160.8539
  20
1080.9349
  0
VERTEX
  5
3ae
  8
Layer_0
  10
1160.8959
  20
1080.6859
  0
VERTEX
  5
3af
  8
Layer_0
  10
1162.0776
  20
1075.7958
  0
VERTEX
  5
3b0
  8
Layer_0
  10
1162.1186
  20
1075.6783
  42
0.15702755
  0
VERTEX
  5
3b1
  8
Layer_0
  10
1162.6066
  20
1075.1469
  0
VERTEX
  5
3b2
  8
Layer_0
  10
1162.7202
  20
1075.0961
  0
VERTEX
  5
3b3
  8
Layer_0
  10
1166.746
  20
1073.8361
  0
VERTEX
  5
3b4
  8
Layer_0
  10
1169.6459
  20
1073.8361
  0
VERTEX
  5
3b5
  8
Layer_0
  10
1170.0261
  20
1076.6859
  0
VERTEX
  5
3b6
  8
Layer_0
  10
1170.0261
  20
1077.5861
  0
VERTEX
  5
3b7
  8
Layer_0
  10
1173.986
  20
1077.5861
  0
VERTEX
  5
3b8
  8
Layer_0
  10
1178.186
  20
1077.8361
  0
VERTEX
  5
3b9
  8
Layer_0
  10
1179.1359
  20
1079.286
  0
VERTEX
  5
3ba
  8
Layer_0
  10
1179.1359
  20
1083.0861
  0
VERTEX
  5
3bb
  8
Layer_0
  10
1178.186
  20
1084.536
  42
0.0058627938
  0
VERTEX
  5
3bc
  8
Layer_0
  10
1170.0261
  20
1084.5868
  42
0.053796596
  0
VERTEX
  5
3bd
  8
Layer_0
  10
1169.9941
  20
1085.5194
  42
0.13411123
  0
VERTEX
  5
3be
  8
Layer_0
  10
1169.5529
  20
1086.5099
  0
VERTEX
  5
3bf
  8
Layer_0
  10
1167.0461
  20
1089.786
  0
VERTEX
  5
3c0
  8
Layer_0
  10
1164.246
  20
1089.786
  0
VERTEX
  5
3c1
  8
Layer_0
  10
1162.246
  20
1086.9359
  0
VERTEX
  5
3c2
  8
Layer_0
  10
1162.0776
  20
1086.5763
  0
VERTEX
  5
3c3
  8
Layer_0
  10
1160.8959
  20
1081.6859
  42
0.080827612
  0
SEQEND
  0
POLYLINE
  5
3c5
  8
Layer_0
  62
7
  70
1
  66
1
  10
0
  20
0
  30
0
  0
VERTEX
  5
3c5
  8
Layer_0
  10
1172.3539
  20
1119.0348
  0
VERTEX
  5
3c6
  8
Layer_0
  10
1172.3959
  20
1118.786
  0
VERTEX
  5
3c7
  8
Layer_0
  10
1173.5776
  20
1113.8959
  42
0.1771628
  0
VERTEX
  5
3c8
  8
Layer_0
  10
1174.0009
  20
1113.3102
  42
0.042914539
  0
VERTEX
  5
3c9
  8
Layer_0
  10
1174.2202
  20
1113.1959
  0
VERTEX
  5
3ca
  8
Layer_0
  10
1178.246
  20
1111.9359
  0
VERTEX
  5
3cb
  8
Layer_0
  10
1181.1459
  20
1111.9359
  0
VERTEX
  5
3cc
  8
Layer_0
  10
1181.5261
  20
1114.786
  0
VERTEX
  5
3cd
  8
Layer_0
  10
1181.5261
  20
1116.5638
  0
VERTEX
  5
3ce
  8
Layer_0
  10
1186.6459
  20
1115.9359
  0
VERTEX
  5
3cf
  8
Layer_0
  10
1189.6459
  20
1115.9359
  0
VERTEX
  5
3d0
  8
Layer_0
  10
1190.5959
  20
1117.3859
  0
VERTEX
  5
3d1
  8
Layer_0
  10
1190.5959
  20
1121.1859
  0
VERTEX
  5
3d2
  8
Layer_0
  10
1189.6459
  20
1122.6359
  0
VERTEX
  5
3d3
  8
Layer_0
  10
1185.5458
  20
1123.5861
  0
VERTEX
  5
3d4
  8
Layer_0
  10
1181.4985
  20
1123.5861
  0
VERTEX
  5
3d5
  8
Layer_0
  10
1181.4941
  20
1123.6195
  42
0.12916637
  0
VERTEX
  5
3d6
  8
Layer_0
  10
1181.0529
  20
1124.6097
  0
VERTEX
  5
3d7
  8
Layer_0
  10
1178.5461
  20
1127.8859
  0
VERTEX
  5
3d8
  8
Layer_0
  10
1175.746
  20
1127.8859
  0
VERTEX
  5
3d9
  8
Layer_0
  10
1173.746
  20
1125.036
  0
VERTEX
  5
3da
  8
Layer_0
  10
1173.5776
  20
1124.6761
  0
VERTEX
  5
3db
  8
Layer_0
  10
1172.3959
  20
1119.786
  42
0.076929278
  0
SEQEND
  0
POLYLINE
  5
3dd
  8
Layer_0
  62
7
  70
1
  66
1
  10
0
  20
0
  30
0
  0
VERTEX
  5
3dd
  8
Layer_0
  10
1249.0364
  20
1027.056
  0
VERTEX
  5
3de
  8
Layer_0
  10
1246.0052
  20
1025.306
  0
VERTEX
  5
3df
  8
Layer_0
  10
1245.0947
  20
1023.6833
  0
VERTEX
  5
3e0
  8
Layer_0
  10
1246.5947
  20
1021.0852
  0
VERTEX
  5
3e1
  8
Layer_0
  10
1248.3254
  20
1020.9875
  0
VERTEX
  5
3e2
  8
Layer_0
  10
1251.6163
  20
1022.8875
  0
VERTEX
  5
3e3
  8
Layer_0
  10
1252.397
  20
1024.4352
  0
VERTEX
  5
3e4
  8
Layer_0
  10
1250.897
  20
1027.0333
  0
SEQEND
  0
POLYLINE
  5
3e6
  8
Layer_0
  62
7
  70
1
  66
1
  10
0
  20
0
  30
0
  0
VERTEX
  5
3e6
  8
Layer_0
  10
1255.6548
  20
1022.873
  0
VERTEX
  5
3e7
  8
Layer_0
  10
1256.0505
  20
1022.907
  0
VERTEX
  5
3e8
  8
Layer_0
  10
1259.5188
  20
1022.6
  0
VERTEX
  5
3e9
  8
Layer_0
  10
1260.9188
  20
1020.1752
  0
VERTEX
  5
3ea
  8
Layer_0
  10
1259.3351
  20
1016.3658
  42
-0.16749273
  0
VERTEX
  5
3eb
  8
Layer_0
  10
1258.3977
  20
1015.2787
  0
VERTEX
  5
3ec
  8
Layer_0
  10
1251.0637
  20
1011.0444
  0
VERTEX
  5
3ed
  8
Layer_0
  10
1248.4056
  20
1009.9485
  0
VERTEX
  5
3ee
  8
Layer_0
  10
1246.9557
  20
1012.46
  0
VERTEX
  5
3ef
  8
Layer_0
  10
1246.0339
  20
1016.5762
  42
-0.23695327
  0
VERTEX
  5
3f0
  8
Layer_0
  10
1246.3187
  20
1017.4828
  0
VERTEX
  5
3f1
  8
Layer_0
  10
1249.963
  20
1020.9512
  42
-0.11220978
  0
VERTEX
  5
3f2
  8
Layer_0
  10
1250.829
  20
1021.4512
  0
SEQEND
  0
POLYLINE
  5
3f4
  8
Layer_0
  62
7
  70
1
  66
1
  10
0
  20
0
  30
0
  0
VERTEX
  5
3f4
  8
Layer_0
  10
1193.9658
  20
1017.316
  0
VERTEX
  5
3f5
  8
Layer_0
  10
1194.1069
  20
1017.3302
  0
VERTEX
  5
3f6
  8
Layer_0
  10
1194.2383
  20
1017.371
  0
VERTEX
  5
3f7
  8
Layer_0
  10
1194.4232
  20
1017.4611
  0
VERTEX
  5
3f8
  8
Layer_0
  10
1194.5588
  20
1017.6112
  0
VERTEX
  5
3f9
  8
Layer_0
  10
1194.641
  20
1017.8024
  0
VERTEX
  5
3fa
  8
Layer_0
  10
1194.6658
  20
1018.016
  0
VERTEX
  5
3fb
  8
Layer_0
  10
1194.6658
  20
1028.176
  42
0.17687898
  0
VERTEX
  5
3fc
  8
Layer_0
  10
1194.4612
  20
1028.6828
  42
0.22467466
  0
VERTEX
  5
3fd
  8
Layer_0
  10
1193.9658
  20
1028.876
  42
0.060131049
  0
VERTEX
  5
3fe
  8
Layer_0
  10
1193.6934
  20
1028.821
  42
0.048132508
  0
VERTEX
  5
3ff
  8
Layer_0
  10
1193.4708
  20
1028.671
  42
0.040473155
  0
VERTEX
  5
400
  8
Layer_0
  10
1192.1154
  20
1027.2974
  42
0.063752594
  0
VERTEX
  5
401
  8
Layer_0
  10
1192.01
  20
1027.0471
  0
VERTEX
  5
402
  8
Layer_0
  10
1191.9958
  20
1026.906
  0
VERTEX
  5
403
  8
Layer_0
  10
1191.9958
  20
1019.286
  0
VERTEX
  5
404
  8
Layer_0
  10
1192.01
  20
1019.1449
  0
VERTEX
  5
405
  8
Layer_0
  10
1192.0508
  20
1019.0135
  42
0.089372363
  0
VERTEX
  5
406
  8
Layer_0
  10
1193.5745
  20
1017.4355
  42
0.21420892
  0
SEQEND
  0
POLYLINE
  5
408
  8
Layer_0
  62
7
  70
1
  66
1
  10
0
  20
0
  30
0
  0
VERTEX
  5
408
  8
Layer_0
  10
1291.2658
  20
1123.1945
  0
VERTEX
  5
409
  8
Layer_0
  10
1263.3258
  20
1123.1945
  42
-0.41378838
  0
VERTEX
  5
40a
  8
Layer_0
  10
1262.5269
  20
1123.9945
  42
-0.41380862
  0
VERTEX
  5
40b
  8
Layer_0
  10
1263.3258
  20
1124.7944
  0
VERTEX
  5
40c
  8
Layer_0
  10
1291.2658
  20
1124.7944
  42
-0.41380862
  0
VERTEX
  5
40d
  8
Layer_0
  10
1292.0647
  20
1123.9945
  42
-0.41378838
  0
SEQEND
  0
POLYLINE
  5
40f
  8
Layer_0
  62
7
  70
1
  66
1
  10
0
  20
0
  30
0
  0
VERTEX
  5
40f
  8
Layer_0
  10
1291.2658
  20
1138.4344
  0
VERTEX
  5
410
  8
Layer_0
  10
1263.3258
  20
1138.4344
  42
-0.41421356
  0
VERTEX
  5
411
  8
Layer_0
  10
1262.5258
  20
1139.2345
  42
-0.41421356
  0
VERTEX
  5
412
  8
Layer_0
  10
1263.3258
  20
1140.0344
  0
VERTEX
  5
413
  8
Layer_0
  10
1291.2658
  20
1140.0344
  42
-0.41421356
  0
VERTEX
  5
414
  8
Layer_0
  10
1292.0658
  20
1139.2345
  42
-0.41421356
  0
SEQEND
  0
CIRCLE
  5
416
  8
Layer_0
  62
7
  10
1294.7461
  20
1123.9642
  30
0
  40
0.69999999
  0
CIRCLE
  5
416
  8
Layer_0
  62
7
  10
1294.7461
  20
1137.9642
  30
0
  40
0.69999999
  0
CIRCLE
  5
416
  8
Layer_0
  62
7
  10
1288.1211
  20
1025.1893
  30
0
  40
2.0499964
  0
CIRCLE
  5
416
  8
Layer_0
  62
7
  10
1326.2211
  20
1025.1893
  30
0
  40
2.0499964
  0
CIRCLE
  5
416
  8
Layer_0
  62
7
  10
1341.0961
  20
1128.4142
  30
0
  40
2.0499964
  0
CIRCLE
  5
416
  8
Layer_0
  62
7
  10
1319.7211
  20
1101.3892
  30
0
  40
2.0499964
  0
CIRCLE
  5
416
  8
Layer_0
  62
7
  10
1279.1211
  20
1101.3892
  30
0
  40
2.0499964
  0
CIRCLE
  5
416
  8
Layer_0
  62
7
  10
1315.5961
  20
1128.5392
  30
0
  40
1.0499982
  0
CIRCLE
  5
416
  8
Layer_0
  62
7
  10
1315.5961
  20
1135.0391
  30
0
  40
1.0499982
  0
CIRCLE
  5
416
  8
Layer_0
  62
7
  10
1315.5961
  20
1123.6642
  30
0
  40
2.0999963
  0
CIRCLE
  5
416
  8
Layer_0
  62
7
  10
1315.5961
  20
1139.9141
  30
0
  40
2.0999963
  0
POLYLINE
  5
416
  8
Layer_0
  62
7
  70
1
  66
1
  10
0
  20
0
  30
0
  0
VERTEX
  5
416
  8
Layer_0
  10
1344.796
  20
1133.2142
  0
VERTEX
  5
417
  8
Layer_0
  10
1344.796
  20
1128.0142
  0
VERTEX
  5
418
  8
Layer_0
  10
1346.5961
  20
1128.0142
  0
VERTEX
  5
419
  8
Layer_0
  10
1346.5961
  20
1133.2142
  0
SEQEND
  0
POLYLINE
  5
41b
  8
Layer_0
  62
7
  70
1
  66
1
  10
0
  20
0
  30
0
  0
VERTEX
  5
41b
  8
Layer_0
  10
1328.771
  20
1022.3143
  0
VERTEX
  5
41c
  8
Layer_0
  10
1328.771
  20
1024.1144
  0
VERTEX
  5
41d
  8
Layer_0
  10
1333.971
  20
1024.1144
  0
VERTEX
  5
41e
  8
Layer_0
  10
1333.971
  20
1022.3143
  0
SEQEND
  0
POLYLINE
  5
420
  8
Layer_0
  62
7
  70
1
  66
1
  10
0
  20
0
  30
0
  0
VERTEX
  5
420
  8
Layer_0
  10
1330.346
  20
1042.0143
  0
VERTEX
  5
421
  8
Layer_0
  10
1330.346
  20
1043.8143
  0
VERTEX
  5
422
  8
Layer_0
  10
1335.546
  20
1043.8143
  0
VERTEX
  5
423
  8
Layer_0
  10
1335.546
  20
1042.0143
  0
SEQEND
  0
POLYLINE
  5
425
  8
Layer_0
  62
7
  70
1
  66
1
  10
0
  20
0
  30
0
  0
VERTEX
  5
425
  8
Layer_0
  10
1321.646
  20
1061.2643
  0
VERTEX
  5
426
  8
Layer_0
  10
1321.646
  20
1063.0643
  0
VERTEX
  5
427
  8
Layer_0
  10
1326.8461
  20
1063.0643
  0
VERTEX
  5
428
  8
Layer_0
  10
1326.846
  20
1061.2643
  0
SEQEND
  0
POLYLINE
  5
42a
  8
Layer_0
  62
7
  70
1
  66
1
  10
0
  20
0
  30
0
  0
VERTEX
  5
42a
  8
Layer_0
  10
1318.061
  20
1080.5143
  0
VERTEX
  5
42b
  8
Layer_0
  10
1318.061
  20
1082.3143
  0
VERTEX
  5
42c
  8
Layer_0
  10
1323.261
  20
1082.3143
  0
VERTEX
  5
42d
  8
Layer_0
  10
1323.261
  20
1080.5143
  0
SEQEND
  0
POLYLINE
  5
42f
  8
Layer_0
  62
7
  70
1
  66
1
  10
0
  20
0
  30
0
  0
VERTEX
  5
42f
  8
Layer_0
  10
1322.671
  20
1099.5142
  0
VERTEX
  5
430
  8
Layer_0
  10
1322.671
  20
1101.3142
  0
VERTEX
  5
431
  8
Layer_0
  10
1327.871
  20
1101.3142
  0
VERTEX
  5
432
  8
Layer_0
  10
1327.871
  20
1099.5142
  0
SEQEND
  0
POLYLINE
  5
434
  8
Layer_0
  62
7
  70
1
  66
1
  10
0
  20
0
  30
0
  0
VERTEX
  5
434
  8
Layer_0
  10
1309.871
  20
1022.7643
  0
VERTEX
  5
435
  8
Layer_0
  10
1309.871
  20
1024.5643
  0
VERTEX
  5
436
  8
Layer_0
  10
1315.071
  20
1024.5643
  0
VERTEX
  5
437
  8
Layer_0
  10
1315.071
  20
1022.7643
  0
SEQEND
  0
POLYLINE
  5
439
  8
Layer_0
  62
7
  70
1
  66
1
  10
0
  20
0
  30
0
  0
VERTEX
  5
439
  8
Layer_0
  10
1312.371
  20
1042.0143
  0
VERTEX
  5
43a
  8
Layer_0
  10
1312.371
  20
1043.8143
  0
VERTEX
  5
43b
  8
Layer_0
  10
1317.571
  20
1043.8143
  0
VERTEX
  5
43c
  8
Layer_0
  10
1317.571
  20
1042.0143
  0
SEQEND
  0
POLYLINE
  5
43e
  8
Layer_0
  62
7
  70
1
  66
1
  10
0
  20
0
  30
0
  0
VERTEX
  5
43e
  8
Layer_0
  10
1302.921
  20
1060.7893
  0
VERTEX
  5
43f
  8
Layer_0
  10
1302.921
  20
1062.5893
  0
VERTEX
  5
440
  8
Layer_0
  10
1308.121
  20
1062.5893
  0
VERTEX
  5
441
  8
Layer_0
  10
1308.121
  20
1060.7893
  0
SEQEND
  0
POLYLINE
  5
443
  8
Layer_0
  62
7
  70
1
  66
1
  10
0
  20
0
  30
0
  0
VERTEX
  5
443
  8
Layer_0
  10
1301.061
  20
1080.7643
  0
VERTEX
  5
444
  8
Layer_0
  10
1301.061
  20
1082.5643
  0
VERTEX
  5
445
  8
Layer_0
  10
1306.261
  20
1082.5643
  0
VERTEX
  5
446
  8
Layer_0
  10
1306.261
  20
1080.7643
  0
SEQEND
  0
POLYLINE
  5
448
  8
Layer_0
  62
7
  70
1
  66
1
  10
0
  20
0
  30
0
  0
VERTEX
  5
448
  8
Layer_0
  10
1290.871
  20
1022.7643
  0
VERTEX
  5
449
  8
Layer_0
  10
1290.871
  20
1024.5643
  0
VERTEX
  5
44a
  8
Layer_0
  10
1296.071
  20
1024.5643
  0
VERTEX
  5
44b
  8
Layer_0
  10
1296.071
  20
1022.7643
  0
SEQEND
  0
POLYLINE
  5
44d
  8
Layer_0
  62
7
  70
1
  66
1
  10
0
  20
0
  30
0
  0
VERTEX
  5
44d
  8
Layer_0
  10
1290.371
  20
1042.2643
  0
VERTEX
  5
44e
  8
Layer_0
  10
1290.371
  20
1044.0643
  0
VERTEX
  5
44f
  8
Layer_0
  10
1295.571
  20
1044.0643
  0
VERTEX
  5
450
  8
Layer_0
  10
1295.571
  20
1042.2643
  0
SEQEND
  0
POLYLINE
  5
452
  8
Layer_0
  62
7
  70
1
  66
1
  10
0
  20
0
  30
0
  0
VERTEX
  5
452
  8
Layer_0
  10
1283.146
  20
1061.0143
  0
VERTEX
  5
453
  8
Layer_0
  10
1283.146
  20
1062.8143
  0
VERTEX
  5
454
  8
Layer_0
  10
1288.346
  20
1062.8143
  0
VERTEX
  5
455
  8
Layer_0
  10
1288.346
  20
1061.0143
  0
SEQEND
  0
POLYLINE
  5
457
  8
Layer_0
  62
7
  70
1
  66
1
  10
0
  20
0
  30
0
  0
VERTEX
  5
457
  8
Layer_0
  10
1280.561
  20
1080.2643
  0
VERTEX
  5
458
  8
Layer_0
  10
1280.561
  20
1082.0643
  0
VERTEX
  5
459
  8
Layer_0
  10
1285.761
  20
1082.0643
  0
VERTEX
  5
45a
  8
Layer_0
  10
1285.761
  20
1080.2643
  0
SEQEND
  0
POLYLINE
  5
45c
  8
Layer_0
  62
7
  70
1
  66
1
  10
0
  20
0
  30
0
  0
VERTEX
  5
45c
  8
Layer_0
  10
1273.621
  20
1022.7643
  0
VERTEX
  5
45d
  8
Layer_0
  10
1273.621
  20
1024.5643
  0
VERTEX
  5
45e
  8
Layer_0
  10
1278.821
  20
1024.5643
  0
VERTEX
  5
45f
  8
Layer_0
  10
1278.821
  20
1022.7643
  0
SEQEND
  0
POLYLINE
  5
461
  8
Layer_0
  62
7
  70
1
  66
1
  10
0
  20
0
  30
0
  0
VERTEX
  5
461
  8
Layer_0
  10
1273.846
  20
1042.5143
  0
VERTEX
  5
462
  8
Layer_0
  10
1273.846
  20
1044.3143
  0
VERTEX
  5
463
  8
Layer_0
  10
1279.046
  20
1044.3143
  0
VERTEX
  5
464
  8
Layer_0
  10
1279.046
  20
1042.5143
  0
SEQEND
  0
POLYLINE
  5
466
  8
Layer_0
  62
7
  70
1
  66
1
  10
0
  20
0
  30
0
  0
VERTEX
  5
466
  8
Layer_0
  10
1264.921
  20
1061.2643
  0
VERTEX
  5
467
  8
Layer_0
  10
1264.921
  20
1063.0643
  0
VERTEX
  5
468
  8
Layer_0
  10
1270.121
  20
1063.0643
  0
VERTEX
  5
469
  8
Layer_0
  10
1270.121
  20
1061.2643
  0
SEQEND
  0
POLYLINE
  5
46b
  8
Layer_0
  62
7
  70
1
  66
1
  10
0
  20
0
  30
0
  0
VERTEX
  5
46b
  8
Layer_0
  10
1319.8961
  20
1133.4891
  0
VERTEX
  5
46c
  8
Layer_0
  10
1319.8961
  20
1130.0892
  0
VERTEX
  5
46d
  8
Layer_0
  10
1322.0961
  20
1130.0892
  0
VERTEX
  5
46e
  8
Layer_0
  10
1322.0961
  20
1133.4891
  0
SEQEND
  0
POLYLINE
  5
470
  8
Layer_0
  62
7
  70
1
  66
1
  10
0
  20
0
  30
0
  0
VERTEX
  5
470
  8
Layer_0
  10
1331.0961
  20
1133.4891
  0
VERTEX
  5
471
  8
Layer_0
  10
1331.0961
  20
1130.0892
  0
VERTEX
  5
472
  8
Layer_0
  10
1333.296
  20
1130.0892
  0
VERTEX
  5
473
  8
Layer_0
  10
1333.296
  20
1133.4891
  0
SEQEND
  0
CIRCLE
  5
475
  8
Layer_0
  62
7
  10
1324.0961
  20
1139.2891
  30
0
  40
1.0999981
  0
CIRCLE
  5
475
  8
Layer_0
  62
7
  10
1326.5961
  20
1139.2891
  30
0
  40
1.0999981
  0
CIRCLE
  5
475
  8
Layer_0
  62
7
  10
1329.0961
  20
1139.2891
  30
0
  40
1.0999981
  0
CIRCLE
  5
475
  8
Layer_0
  62
7
  10
1324.0961
  20
1124.7892
  30
0
  40
1.0999981
  0
CIRCLE
  5
475
  8
Layer_0
  62
7
  10
1329.0961
  20
1124.7892
  30
0
  40
1.0999981
  0
POLYLINE
  5
475
  8
Layer_0
  62
7
  70
1
  66
1
  10
0
  20
0
  30
0
  0
VERTEX
  5
475
  8
Layer_0
  10
1308.7461
  20
1017.4144
  0
VERTEX
  5
476
  8
Layer_0
  10
1308.7461
  20
1013.9144
  0
VERTEX
  5
477
  8
Layer_0
  10
1309.696
  20
1012.3144
  0
VERTEX
  5
478
  8
Layer_0
  10
1312.696
  20
1012.3144
  0
VERTEX
  5
479
  8
Layer_0
  10
1313.6461
  20
1013.7644
  0
VERTEX
  5
47a
  8
Layer_0
  10
1313.6461
  20
1017.5644
  0
VERTEX
  5
47b
  8
Layer_0
  10
1312.696
  20
1019.0144
  0
VERTEX
  5
47c
  8
Layer_0
  10
1309.696
  20
1019.0144
  0
SEQEND
  0
POLYLINE
  5
47e
  8
Layer_0
  62
7
  70
1
  66
1
  10
0
  20
0
  30
0
  0
VERTEX
  5
47e
  8
Layer_0
  10
1280.7461
  20
1093.6143
  0
VERTEX
  5
47f
  8
Layer_0
  10
1280.7461
  20
1090.1143
  0
VERTEX
  5
480
  8
Layer_0
  10
1281.696
  20
1088.5143
  0
VERTEX
  5
481
  8
Layer_0
  10
1284.696
  20
1088.5143
  0
VERTEX
  5
482
  8
Layer_0
  10
1285.6461
  20
1089.9643
  0
VERTEX
  5
483
  8
Layer_0
  10
1285.6461
  20
1093.7643
  0
VERTEX
  5
484
  8
Layer_0
  10
1284.696
  20
1095.2143
  0
VERTEX
  5
485
  8
Layer_0
  10
1281.696
  20
1095.2143
  0
SEQEND
  0
POLYLINE
  5
487
  8
Layer_0
  62
7
  70
1
  66
1
  10
0
  20
0
  30
0
  0
VERTEX
  5
487
  8
Layer_0
  10
1337.8461
  20
1093.6143
  0
VERTEX
  5
488
  8
Layer_0
  10
1337.8461
  20
1090.1143
  0
VERTEX
  5
489
  8
Layer_0
  10
1338.7961
  20
1088.5143
  0
VERTEX
  5
48a
  8
Layer_0
  10
1341.7961
  20
1088.5143
  0
VERTEX
  5
48b
  8
Layer_0
  10
1342.7461
  20
1089.9643
  0
VERTEX
  5
48c
  8
Layer_0
  10
1342.7461
  20
1093.7643
  0
VERTEX
  5
48d
  8
Layer_0
  10
1341.7961
  20
1095.2143
  0
VERTEX
  5
48e
  8
Layer_0
  10
1338.7961
  20
1095.2143
  0
SEQEND
  0
POLYLINE
  5
490
  8
Layer_0
  62
7
  70
1
  66
1
  10
0
  20
0
  30
0
  0
VERTEX
  5
490
  8
Layer_0
  10
1289.696
  20
1017.4144
  0
VERTEX
  5
491
  8
Layer_0
  10
1289.696
  20
1013.9144
  0
VERTEX
  5
492
  8
Layer_0
  10
1290.6461
  20
1012.3144
  0
VERTEX
  5
493
  8
Layer_0
  10
1293.6461
  20
1012.3144
  0
VERTEX
  5
494
  8
Layer_0
  10
1294.5961
  20
1013.7644
  0
VERTEX
  5
495
  8
Layer_0
  10
1294.5961
  20
1017.5644
  0
VERTEX
  5
496
  8
Layer_0
  10
1293.6461
  20
1019.0144
  0
VERTEX
  5
497
  8
Layer_0
  10
1290.6461
  20
1019.0144
  0
SEQEND
  0
POLYLINE
  5
499
  8
Layer_0
  62
7
  70
1
  66
1
  10
0
  20
0
  30
0
  0
VERTEX
  5
499
  8
Layer_0
  10
1264.1461
  20
1109.1642
  0
VERTEX
  5
49a
  8
Layer_0
  10
1264.1461
  20
1112.6642
  0
VERTEX
  5
49b
  8
Layer_0
  10
1265.0961
  20
1114.2642
  0
VERTEX
  5
49c
  8
Layer_0
  10
1268.0961
  20
1114.2642
  0
VERTEX
  5
49d
  8
Layer_0
  10
1269.0461
  20
1112.8143
  0
VERTEX
  5
49e
  8
Layer_0
  10
1269.0461
  20
1109.0142
  0
VERTEX
  5
49f
  8
Layer_0
  10
1268.0961
  20
1107.5643
  0
VERTEX
  5
4a0
  8
Layer_0
  10
1265.0961
  20
1107.5643
  0
SEQEND
  0
POLYLINE
  5
4a2
  8
Layer_0
  62
7
  70
1
  66
1
  10
0
  20
0
  30
0
  0
VERTEX
  5
4a2
  8
Layer_0
  10
1318.8461
  20
1093.6143
  0
VERTEX
  5
4a3
  8
Layer_0
  10
1318.8461
  20
1090.1143
  0
VERTEX
  5
4a4
  8
Layer_0
  10
1319.7961
  20
1088.5143
  0
VERTEX
  5
4a5
  8
Layer_0
  10
1322.7961
  20
1088.5143
  0
VERTEX
  5
4a6
  8
Layer_0
  10
1323.7461
  20
1089.9643
  0
VERTEX
  5
4a7
  8
Layer_0
  10
1323.7461
  20
1093.7643
  0
VERTEX
  5
4a8
  8
Layer_0
  10
1322.7961
  20
1095.2143
  0
VERTEX
  5
4a9
  8
Layer_0
  10
1319.7961
  20
1095.2143
  0
SEQEND
  0
POLYLINE
  5
4ab
  8
Layer_0
  62
7
  70
1
  66
1
  10
0
  20
0
  30
0
  0
VERTEX
  5
4ab
  8
Layer_0
  10
1316.3361
  20
1071.0643
  0
VERTEX
  5
4ac
  8
Layer_0
  10
1316.3361
  20
1074.5643
  0
VERTEX
  5
4ad
  8
Layer_0
  10
1317.2861
  20
1076.1643
  0
VERTEX
  5
4ae
  8
Layer_0
  10
1320.2861
  20
1076.1643
  0
VERTEX
  5
4af
  8
Layer_0
  10
1321.2361
  20
1074.7143
  0
VERTEX
  5
4b0
  8
Layer_0
  10
1321.2361
  20
1070.9143
  0
VERTEX
  5
4b1
  8
Layer_0
  10
1320.2861
  20
1069.4643
  0
VERTEX
  5
4b2
  8
Layer_0
  10
1317.2861
  20
1069.4643
  0
SEQEND
  0
POLYLINE
  5
4b4
  8
Layer_0
  62
7
  70
1
  66
1
  10
0
  20
0
  30
0
  0
VERTEX
  5
4b4
  8
Layer_0
  10
1310.696
  20
1132.7142
  0
VERTEX
  5
4b5
  8
Layer_0
  10
1310.696
  20
1133.5142
  42
-0.41414163
  0
VERTEX
  5
4b6
  8
Layer_0
  10
1311.5961
  20
1134.4141
  42
-0.41414163
  0
VERTEX
  5
4b7
  8
Layer_0
  10
1312.4961
  20
1133.5142
  0
VERTEX
  5
4b8
  8
Layer_0
  10
1312.4961
  20
1132.7142
  42
-0.41414163
  0
VERTEX
  5
4b9
  8
Layer_0
  10
1311.5961
  20
1131.8143
  42
-0.41414163
  0
SEQEND
  0
POLYLINE
  5
4bb
  8
Layer_0
  62
7
  70
1
  66
1
  10
0
  20
0
  30
0
  0
VERTEX
  5
4bb
  8
Layer_0
  10
1270.6461
  20
1017.4144
  0
VERTEX
  5
4bc
  8
Layer_0
  10
1270.6461
  20
1013.9144
  0
VERTEX
  5
4bd
  8
Layer_0
  10
1271.5961
  20
1012.3144
  0
VERTEX
  5
4be
  8
Layer_0
  10
1274.5961
  20
1012.3144
  0
VERTEX
  5
4bf
  8
Layer_0
  10
1275.5461
  20
1013.7644
  0
VERTEX
  5
4c0
  8
Layer_0
  10
1275.5461
  20
1017.5644
  0
VERTEX
  5
4c1
  8
Layer_0
  10
1274.5961
  20
1019.0144
  0
VERTEX
  5
4c2
  8
Layer_0
  10
1271.5961
  20
1019.0144
  0
SEQEND
  0
POLYLINE
  5
4c4
  8
Layer_0
  62
7
  70
1
  66
1
  10
0
  20
0
  30
0
  0
VERTEX
  5
4c4
  8
Layer_0
  10
1321.2461
  20
1109.1642
  0
VERTEX
  5
4c5
  8
Layer_0
  10
1321.2461
  20
1112.6642
  0
VERTEX
  5
4c6
  8
Layer_0
  10
1322.196
  20
1114.2642
  0
VERTEX
  5
4c7
  8
Layer_0
  10
1325.196
  20
1114.2642
  0
VERTEX
  5
4c8
  8
Layer_0
  10
1326.1461
  20
1112.8143
  0
VERTEX
  5
4c9
  8
Layer_0
  10
1326.1461
  20
1109.0142
  0
VERTEX
  5
4ca
  8
Layer_0
  10
1325.196
  20
1107.5643
  0
VERTEX
  5
4cb
  8
Layer_0
  10
1322.196
  20
1107.5643
  0
SEQEND
  0
POLYLINE
  5
4cd
  8
Layer_0
  62
7
  70
1
  66
1
  10
0
  20
0
  30
0
  0
VERTEX
  5
4cd
  8
Layer_0
  10
1318.8461
  20
1052.0143
  0
VERTEX
  5
4ce
  8
Layer_0
  10
1318.8461
  20
1055.5143
  0
VERTEX
  5
4cf
  8
Layer_0
  10
1319.7961
  20
1057.1143
  0
VERTEX
  5
4d0
  8
Layer_0
  10
1322.7961
  20
1057.1143
  0
VERTEX
  5
4d1
  8
Layer_0
  10
1323.7461
  20
1055.6644
  0
VERTEX
  5
4d2
  8
Layer_0
  10
1323.7461
  20
1051.8643
  0
VERTEX
  5
4d3
  8
Layer_0
  10
1322.7961
  20
1050.4144
  0
VERTEX
  5
4d4
  8
Layer_0
  10
1319.7961
  20
1050.4144
  0
SEQEND
  0
POLYLINE
  5
4d6
  8
Layer_0
  62
7
  70
1
  66
1
  10
0
  20
0
  30
0
  0
VERTEX
  5
4d6
  8
Layer_0
  10
1310.696
  20
1136.7142
  0
VERTEX
  5
4d7
  8
Layer_0
  10
1310.696
  20
1137.5142
  42
-0.41414163
  0
VERTEX
  5
4d8
  8
Layer_0
  10
1311.5961
  20
1138.4141
  42
-0.41414163
  0
VERTEX
  5
4d9
  8
Layer_0
  10
1312.4961
  20
1137.5142
  0
VERTEX
  5
4da
  8
Layer_0
  10
1312.4961
  20
1136.7142
  42
-0.41414162
  0
VERTEX
  5
4db
  8
Layer_0
  10
1311.5961
  20
1135.8143
  42
-0.41414162
  0
SEQEND
  0
POLYLINE
  5
4dd
  8
Layer_0
  62
7
  70
1
  66
1
  10
0
  20
0
  30
0
  0
VERTEX
  5
4dd
  8
Layer_0
  10
1306.4961
  20
1131.2142
  0
VERTEX
  5
4de
  8
Layer_0
  10
1306.4961
  20
1132.0142
  42
-0.41421356
  0
VERTEX
  5
4df
  8
Layer_0
  10
1307.3961
  20
1132.9141
  42
-0.41417759
  0
VERTEX
  5
4e0
  8
Layer_0
  10
1308.2961
  20
1132.0142
  0
VERTEX
  5
4e1
  8
Layer_0
  10
1308.2961
  20
1131.2142
  42
-0.41417759
  0
VERTEX
  5
4e2
  8
Layer_0
  10
1307.3961
  20
1130.3143
  42
-0.41421356
  0
SEQEND
  0
POLYLINE
  5
4e4
  8
Layer_0
  62
7
  70
1
  66
1
  10
0
  20
0
  30
0
  0
VERTEX
  5
4e4
  8
Layer_0
  10
1327.7961
  20
1017.4144
  0
VERTEX
  5
4e5
  8
Layer_0
  10
1327.7961
  20
1013.9144
  0
VERTEX
  5
4e6
  8
Layer_0
  10
1328.7461
  20
1012.3144
  0
VERTEX
  5
4e7
  8
Layer_0
  10
1331.7461
  20
1012.3144
  0
VERTEX
  5
4e8
  8
Layer_0
  10
1332.696
  20
1013.7644
  0
VERTEX
  5
4e9
  8
Layer_0
  10
1332.696
  20
1017.5644
  0
VERTEX
  5
4ea
  8
Layer_0
  10
1331.7461
  20
1019.0144
  0
VERTEX
  5
4eb
  8
Layer_0
  10
1328.7461
  20
1019.0144
  0
SEQEND
  0
POLYLINE
  5
4ed
  8
Layer_0
  62
7
  70
1
  66
1
  10
0
  20
0
  30
0
  0
VERTEX
  5
4ed
  8
Layer_0
  10
1261.6461
  20
1052.0143
  0
VERTEX
  5
4ee
  8
Layer_0
  10
1261.6461
  20
1055.5143
  0
VERTEX
  5
4ef
  8
Layer_0
  10
1262.5961
  20
1057.1143
  0
VERTEX
  5
4f0
  8
Layer_0
  10
1265.5961
  20
1057.1143
  0
VERTEX
  5
4f1
  8
Layer_0
  10
1266.5461
  20
1055.6644
  0
VERTEX
  5
4f2
  8
Layer_0
  10
1266.5461
  20
1051.8643
  0
VERTEX
  5
4f3
  8
Layer_0
  10
1265.5961
  20
1050.4144
  0
VERTEX
  5
4f4
  8
Layer_0
  10
1262.5961
  20
1050.4144
  0
SEQEND
  0
POLYLINE
  5
4f6
  8
Layer_0
  62
7
  70
1
  66
1
  10
0
  20
0
  30
0
  0
VERTEX
  5
4f6
  8
Layer_0
  10
1327.7961
  20
1036.4644
  0
VERTEX
  5
4f7
  8
Layer_0
  10
1327.7961
  20
1032.9644
  0
VERTEX
  5
4f8
  8
Layer_0
  10
1328.7461
  20
1031.3644
  0
VERTEX
  5
4f9
  8
Layer_0
  10
1331.7461
  20
1031.3644
  0
VERTEX
  5
4fa
  8
Layer_0
  10
1332.696
  20
1032.8144
  0
VERTEX
  5
4fb
  8
Layer_0
  10
1332.696
  20
1036.6144
  0
VERTEX
  5
4fc
  8
Layer_0
  10
1331.7461
  20
1038.0644
  0
VERTEX
  5
4fd
  8
Layer_0
  10
1328.7461
  20
1038.0644
  0
SEQEND
  0
POLYLINE
  5
4ff
  8
Layer_0
  62
7
  70
1
  66
1
  10
0
  20
0
  30
0
  0
VERTEX
  5
4ff
  8
Layer_0
  10
1260.5743
  20
1143.1401
  0
VERTEX
  5
500
  8
Layer_0
  10
1336.4961
  20
1143.1389
  0
VERTEX
  5
501
  8
Layer_0
  10
1351.7148
  20
1148.0159
  42
-0.20029484
  0
VERTEX
  5
502
  8
Layer_0
  10
1352.5696
  20
1147.9188
  0
VERTEX
  5
503
  8
Layer_0
  10
1368.3558
  20
1138.8256
  42
-0.3447866
  0
VERTEX
  5
504
  8
Layer_0
  10
1368.8625
  20
1137.568
  0
VERTEX
  5
505
  8
Layer_0
  10
1356.0961
  20
1093.2602
  0
VERTEX
  5
506
  8
Layer_0
  10
1356.0961
  20
1043.9144
  0
VERTEX
  5
507
  8
Layer_0
  10
1345.4625
  20
1006.738
  42
-0.33360907
  0
VERTEX
  5
508
  8
Layer_0
  10
1344.4061
  20
1005.9442
  0
VERTEX
  5
509
  8
Layer_0
  10
1270.178
  20
1005.9713
  42
-0.34500276
  0
VERTEX
  5
50a
  8
Layer_0
  10
1269.11
  20
1006.8076
  0
VERTEX
  5
50b
  8
Layer_0
  10
1257.0961
  20
1055.4644
  0
VERTEX
  5
50c
  8
Layer_0
  10
1257.0961
  20
1082.4143
  0
VERTEX
  5
50d
  8
Layer_0
  10
1259.4749
  20
1142.0915
  42
-0.40098238
  0
SEQEND
  0
POLYLINE
  5
50f
  8
Layer_0
  62
7
  70
1
  66
1
  10
0
  20
0
  30
0
  0
VERTEX
  5
50f
  8
Layer_0
  10
1310.696
  20
1139.7142
  0
VERTEX
  5
510
  8
Layer_0
  10
1310.696
  20
1140.5142
  42
-0.41414162
  0
VERTEX
  5
511
  8
Layer_0
  10
1311.5961
  20
1141.4141
  42
-0.41414162
  0
VERTEX
  5
512
  8
Layer_0
  10
1312.4961
  20
1140.5142
  0
VERTEX
  5
513
  8
Layer_0
  10
1312.4961
  20
1139.7142
  42
-0.41414163
  0
VERTEX
  5
514
  8
Layer_0
  10
1311.5961
  20
1138.8143
  42
-0.41414163
  0
SEQEND
  0
POLYLINE
  5
516
  8
Layer_0
  62
7
  70
1
  66
1
  10
0
  20
0
  30
0
  0
VERTEX
  5
516
  8
Layer_0
  10
1350.0055
  20
1128.6943
  0
VERTEX
  5
517
  8
Layer_0
  10
1353.0366
  20
1126.9443
  0
VERTEX
  5
518
  8
Layer_0
  10
1354.8972
  20
1126.967
  0
VERTEX
  5
519
  8
Layer_0
  10
1356.3972
  20
1129.5651
  0
VERTEX
  5
51a
  8
Layer_0
  10
1355.6165
  20
1131.1128
  0
VERTEX
  5
51b
  8
Layer_0
  10
1352.3256
  20
1133.0128
  0
VERTEX
  5
51c
  8
Layer_0
  10
1350.5948
  20
1132.9151
  0
VERTEX
  5
51d
  8
Layer_0
  10
1349.0948
  20
1130.317
  0
SEQEND
  0
POLYLINE
  5
51f
  8
Layer_0
  62
7
  70
1
  66
1
  10
0
  20
0
  30
0
  0
VERTEX
  5
51f
  8
Layer_0
  10
1259.1461
  20
1071.0643
  0
VERTEX
  5
520
  8
Layer_0
  10
1259.1461
  20
1074.5643
  0
VERTEX
  5
521
  8
Layer_0
  10
1260.0961
  20
1076.1643
  0
VERTEX
  5
522
  8
Layer_0
  10
1263.0961
  20
1076.1643
  0
VERTEX
  5
523
  8
Layer_0
  10
1264.0461
  20
1074.7143
  0
VERTEX
  5
524
  8
Layer_0
  10
1264.0461
  20
1070.9143
  0
VERTEX
  5
525
  8
Layer_0
  10
1263.0961
  20
1069.4643
  0
VERTEX
  5
526
  8
Layer_0
  10
1260.0961
  20
1069.4643
  0
SEQEND
  0
POLYLINE
  5
528
  8
Layer_0
  62
7
  70
1
  66
1
  10
0
  20
0
  30
0
  0
VERTEX
  5
528
  8
Layer_0
  10
1280.6461
  20
1052.0143
  0
VERTEX
  5
529
  8
Layer_0
  10
1280.6461
  20
1055.5143
  0
VERTEX
  5
52a
  8
Layer_0
  10
1281.5961
  20
1057.1143
  0
VERTEX
  5
52b
  8
Layer_0
  10
1284.5961
  20
1057.1143
  0
VERTEX
  5
52c
  8
Layer_0
  10
1285.5461
  20
1055.6644
  0
VERTEX
  5
52d
  8
Layer_0
  10
1285.5461
  20
1051.8643
  0
VERTEX
  5
52e
  8
Layer_0
  10
1284.5961
  20
1050.4144
  0
VERTEX
  5
52f
  8
Layer_0
  10
1281.5961
  20
1050.4144
  0
SEQEND
  0
POLYLINE
  5
531
  8
Layer_0
  62
7
  70
1
  66
1
  10
0
  20
0
  30
0
  0
VERTEX
  5
531
  8
Layer_0
  10
1297.3361
  20
1071.0643
  0
VERTEX
  5
532
  8
Layer_0
  10
1297.3361
  20
1074.5643
  0
VERTEX
  5
533
  8
Layer_0
  10
1298.2861
  20
1076.1643
  0
VERTEX
  5
534
  8
Layer_0
  10
1301.2861
  20
1076.1643
  0
VERTEX
  5
535
  8
Layer_0
  10
1302.2361
  20
1074.7143
  0
VERTEX
  5
536
  8
Layer_0
  10
1302.2361
  20
1070.9143
  0
VERTEX
  5
537
  8
Layer_0
  10
1301.2861
  20
1069.4643
  0
VERTEX
  5
538
  8
Layer_0
  10
1298.2861
  20
1069.4643
  0
SEQEND
  0
POLYLINE
  5
53a
  8
Layer_0
  62
7
  70
1
  66
1
  10
0
  20
0
  30
0
  0
VERTEX
  5
53a
  8
Layer_0
  10
1302.2461
  20
1109.1642
  0
VERTEX
  5
53b
  8
Layer_0
  10
1302.2461
  20
1112.6642
  0
VERTEX
  5
53c
  8
Layer_0
  10
1303.196
  20
1114.2642
  0
VERTEX
  5
53d
  8
Layer_0
  10
1306.196
  20
1114.2642
  0
VERTEX
  5
53e
  8
Layer_0
  10
1307.1461
  20
1112.8143
  0
VERTEX
  5
53f
  8
Layer_0
  10
1307.1461
  20
1109.0142
  0
VERTEX
  5
540
  8
Layer_0
  10
1306.196
  20
1107.5643
  0
VERTEX
  5
541
  8
Layer_0
  10
1303.196
  20
1107.5643
  0
SEQEND
  0
POLYLINE
  5
543
  8
Layer_0
  62
7
  70
1
  66
1
  10
0
  20
0
  30
0
  0
VERTEX
  5
543
  8
Layer_0
  10
1335.436
  20
1071.0643
  0
VERTEX
  5
544
  8
Layer_0
  10
1335.436
  20
1074.5643
  0
VERTEX
  5
545
  8
Layer_0
  10
1336.386
  20
1076.1643
  0
VERTEX
  5
546
  8
Layer_0
  10
1339.386
  20
1076.1643
  0
VERTEX
  5
547
  8
Layer_0
  10
1340.3361
  20
1074.7143
  0
VERTEX
  5
548
  8
Layer_0
  10
1340.3361
  20
1070.9143
  0
VERTEX
  5
549
  8
Layer_0
  10
1339.386
  20
1069.4643
  0
VERTEX
  5
54a
  8
Layer_0
  10
1336.386
  20
1069.4643
  0
SEQEND
  0
POLYLINE
  5
54c
  8
Layer_0
  62
7
  70
1
  66
1
  10
0
  20
0
  30
0
  0
VERTEX
  5
54c
  8
Layer_0
  10
1261.6461
  20
1093.6143
  0
VERTEX
  5
54d
  8
Layer_0
  10
1261.6461
  20
1090.1143
  0
VERTEX
  5
54e
  8
Layer_0
  10
1262.5961
  20
1088.5143
  0
VERTEX
  5
54f
  8
Layer_0
  10
1265.5961
  20
1088.5143
  0
VERTEX
  5
550
  8
Layer_0
  10
1266.5461
  20
1089.9643
  0
VERTEX
  5
551
  8
Layer_0
  10
1266.5461
  20
1093.7643
  0
VERTEX
  5
552
  8
Layer_0
  10
1265.5961
  20
1095.2143
  0
VERTEX
  5
553
  8
Layer_0
  10
1262.5961
  20
1095.2143
  0
SEQEND
  0
POLYLINE
  5
555
  8
Layer_0
  62
7
  70
1
  66
1
  10
0
  20
0
  30
0
  0
VERTEX
  5
555
  8
Layer_0
  10
1299.7461
  20
1093.6143
  0
VERTEX
  5
556
  8
Layer_0
  10
1299.7461
  20
1090.1143
  0
VERTEX
  5
557
  8
Layer_0
  10
1300.696
  20
1088.5143
  0
VERTEX
  5
558
  8
Layer_0
  10
1303.696
  20
1088.5143
  0
VERTEX
  5
559
  8
Layer_0
  10
1304.6461
  20
1089.9643
  0
VERTEX
  5
55a
  8
Layer_0
  10
1304.6461
  20
1093.7643
  0
VERTEX
  5
55b
  8
Layer_0
  10
1303.696
  20
1095.2143
  0
VERTEX
  5
55c
  8
Layer_0
  10
1300.696
  20
1095.2143
  0
SEQEND
  0
POLYLINE
  5
55e
  8
Layer_0
  62
7
  70
1
  66
1
  10
0
  20
0
  30
0
  0
VERTEX
  5
55e
  8
Layer_0
  10
1308.7461
  20
1036.4644
  0
VERTEX
  5
55f
  8
Layer_0
  10
1308.7461
  20
1032.9644
  0
VERTEX
  5
560
  8
Layer_0
  10
1309.696
  20
1031.3644
  0
VERTEX
  5
561
  8
Layer_0
  10
1312.696
  20
1031.3644
  0
VERTEX
  5
562
  8
Layer_0
  10
1313.6461
  20
1032.8144
  0
VERTEX
  5
563
  8
Layer_0
  10
1313.6461
  20
1036.6144
  0
VERTEX
  5
564
  8
Layer_0
  10
1312.696
  20
1038.0644
  0
VERTEX
  5
565
  8
Layer_0
  10
1309.696
  20
1038.0644
  0
SEQEND
  0
POLYLINE
  5
567
  8
Layer_0
  62
7
  70
1
  66
1
  10
0
  20
0
  30
0
  0
VERTEX
  5
567
  8
Layer_0
  10
1299.7461
  20
1052.0143
  0
VERTEX
  5
568
  8
Layer_0
  10
1299.7461
  20
1055.5143
  0
VERTEX
  5
569
  8
Layer_0
  10
1300.696
  20
1057.1143
  0
VERTEX
  5
56a
  8
Layer_0
  10
1303.696
  20
1057.1143
  0
VERTEX
  5
56b
  8
Layer_0
  10
1304.6461
  20
1055.6644
  0
VERTEX
  5
56c
  8
Layer_0
  10
1304.6461
  20
1051.8643
  0
VERTEX
  5
56d
  8
Layer_0
  10
1303.696
  20
1050.4144
  0
VERTEX
  5
56e
  8
Layer_0
  10
1300.696
  20
1050.4144
  0
SEQEND
  0
POLYLINE
  5
570
  8
Layer_0
  62
7
  70
1
  66
1
  10
0
  20
0
  30
0
  0
VERTEX
  5
570
  8
Layer_0
  10
1270.6461
  20
1036.4644
  0
VERTEX
  5
571
  8
Layer_0
  10
1270.6461
  20
1032.9644
  0
VERTEX
  5
572
  8
Layer_0
  10
1271.5961
  20
1031.3644
  0
VERTEX
  5
573
  8
Layer_0
  10
1274.5961
  20
1031.3644
  0
VERTEX
  5
574
  8
Layer_0
  10
1275.5461
  20
1032.8144
  0
VERTEX
  5
575
  8
Layer_0
  10
1275.5461
  20
1036.6144
  0
VERTEX
  5
576
  8
Layer_0
  10
1274.5961
  20
1038.0644
  0
VERTEX
  5
577
  8
Layer_0
  10
1271.5961
  20
1038.0644
  0
SEQEND
  0
POLYLINE
  5
579
  8
Layer_0
  62
7
  70
1
  66
1
  10
0
  20
0
  30
0
  0
VERTEX
  5
579
  8
Layer_0
  10
1337.946
  20
1052.0143
  0
VERTEX
  5
57a
  8
Layer_0
  10
1337.946
  20
1055.5143
  0
VERTEX
  5
57b
  8
Layer_0
  10
1338.8961
  20
1057.1143
  0
VERTEX
  5
57c
  8
Layer_0
  10
1341.8961
  20
1057.1143
  0
VERTEX
  5
57d
  8
Layer_0
  10
1342.8461
  20
1055.6644
  0
VERTEX
  5
57e
  8
Layer_0
  10
1342.8461
  20
1051.8643
  0
VERTEX
  5
57f
  8
Layer_0
  10
1341.8961
  20
1050.4144
  0
VERTEX
  5
580
  8
Layer_0
  10
1338.8961
  20
1050.4144
  0
SEQEND
  0
POLYLINE
  5
582
  8
Layer_0
  62
7
  70
1
  66
1
  10
0
  20
0
  30
0
  0
VERTEX
  5
582
  8
Layer_0
  10
1342.0161
  20
1103.0093
  0
VERTEX
  5
583
  8
Layer_0
  10
1347.196
  20
1103.0392
  0
VERTEX
  5
584
  8
Layer_0
  10
1347.196
  20
1108.2393
  42
0.0058090359
  0
VERTEX
  5
585
  8
Layer_0
  10
1340.2161
  20
1108.2092
  0
VERTEX
  5
586
  8
Layer_0
  10
1340.2161
  20
1103.0093
  0
SEQEND
  0
POLYLINE
  5
588
  8
Layer_0
  62
7
  70
1
  66
1
  10
0
  20
0
  30
0
  0
VERTEX
  5
588
  8
Layer_0
  10
1306.496
  20
1129.1642
  0
VERTEX
  5
589
  8
Layer_0
  10
1306.496
  20
1122.1642
  0
VERTEX
  5
58a
  8
Layer_0
  10
1310.696
  20
1122.1642
  0
VERTEX
  5
58b
  8
Layer_0
  10
1310.696
  20
1129.1642
  0
SEQEND
  0
POLYLINE
  5
58d
  8
Layer_0
  62
7
  70
1
  66
1
  10
0
  20
0
  30
0
  0
VERTEX
  5
58d
  8
Layer_0
  10
1340.316
  20
1049.8643
  0
VERTEX
  5
58e
  8
Layer_0
  10
1340.316
  20
1042.8643
  0
VERTEX
  5
58f
  8
Layer_0
  10
1344.516
  20
1042.8643
  0
VERTEX
  5
590
  8
Layer_0
  10
1344.516
  20
1049.8643
  0
SEQEND
  0
POLYLINE
  5
592
  8
Layer_0
  62
7
  70
1
  66
1
  10
0
  20
0
  30
0
  0
VERTEX
  5
592
  8
Layer_0
  10
1338.2587
  20
1085.8306
  0
VERTEX
  5
593
  8
Layer_0
  10
1338.2587
  20
1078.8306
  0
VERTEX
  5
594
  8
Layer_0
  10
1342.4586
  20
1078.8306
  0
VERTEX
  5
595
  8
Layer_0
  10
1342.4586
  20
1085.8306
  0
SEQEND
  0
POLYLINE
  5
597
  8
Layer_0
  62
7
  70
1
  66
1
  10
0
  20
0
  30
0
  0
VERTEX
  5
597
  8
Layer_0
  10
1327.446
  20
1118.5142
  0
VERTEX
  5
598
  8
Layer_0
  10
1327.446
  20
1122.8542
  0
VERTEX
  5
599
  8
Layer_0
  10
1322.2461
  20
1122.8542
  0
VERTEX
  5
59a
  8
Layer_0
  10
1322.2461
  20
1118.5142
  0
VERTEX
  5
59b
  8
Layer_0
  10
1327.446
  20
1118.5142
  0
SEQEND
  0
POLYLINE
  5
59d
  8
Layer_0
  62
7
  70
1
  66
1
  10
0
  20
0
  30
0
  0
VERTEX
  5
59d
  8
Layer_0
  10
1308.3711
  20
1099.2643
  42
0.018169792
  0
VERTEX
  5
59e
  8
Layer_0
  10
1308.4711
  20
1103.8143
  0
VERTEX
  5
59f
  8
Layer_0
  10
1303.2711
  20
1103.8143
  42
0.018199964
  0
VERTEX
  5
5a0
  8
Layer_0
  10
1303.1711
  20
1099.2643
  0
SEQEND
  0
POLYLINE
  5
5a2
  8
Layer_0
  62
7
  70
1
  66
1
  10
0
  20
0
  30
0
  0
VERTEX
  5
5a2
  8
Layer_0
  10
1288.4961
  20
1100.7143
  42
0.0041616199
  0
VERTEX
  5
5a3
  8
Layer_0
  10
1288.4711
  20
1105.5142
  0
VERTEX
  5
5a4
  8
Layer_0
  10
1283.2711
  20
1105.5142
  42
0.0041802298
  0
VERTEX
  5
5a5
  8
Layer_0
  10
1283.2961
  20
1100.7143
  0
SEQEND
  0
POLYLINE
  5
5a7
  8
Layer_0
  62
7
  70
1
  66
1
  10
0
  20
0
  30
0
  0
VERTEX
  5
5a7
  8
Layer_0
  10
1345.7653
  20
1111.6136
  0
VERTEX
  5
5a8
  8
Layer_0
  10
1347.0582
  20
1112.7684
  0
VERTEX
  5
5a9
  8
Layer_0
  10
1348.0416
  20
1116.4389
  0
VERTEX
  5
5aa
  8
Layer_0
  10
1348.326
  20
1119.0643
  0
VERTEX
  5
5ab
  8
Layer_0
  10
1348.326
  20
1126.0643
  0
VERTEX
  5
5ac
  8
Layer_0
  10
1344.1261
  20
1126.0643
  0
VERTEX
  5
5ad
  8
Layer_0
  10
1341.8209
  20
1123.5894
  0
VERTEX
  5
5ae
  8
Layer_0
  10
1341.8209
  20
1118.3894
  0
VERTEX
  5
5af
  8
Layer_0
  10
1342.364
  20
1114.1815
  0
VERTEX
  5
5b0
  8
Layer_0
  10
1342.8674
  20
1112.3901
  0
VERTEX
  5
5b1
  8
Layer_0
  10
1345.7653
  20
1111.6136
  0
SEQEND
  0
POLYLINE
  5
5b3
  8
Layer_0
  62
7
  70
1
  66
1
  10
0
  20
0
  30
0
  0
VERTEX
  5
5b3
  8
Layer_0
  10
1270.4766
  20
1099.5143
  42
0.0012339066
  0
VERTEX
  5
5b4
  8
Layer_0
  10
1270.4711
  20
1103.5643
  0
VERTEX
  5
5b5
  8
Layer_0
  10
1265.2711
  20
1103.5643
  42
0.0012321877
  0
VERTEX
  5
5b6
  8
Layer_0
  10
1265.2766
  20
1099.5143
  0
SEQEND
  0
POLYLINE
  5
5b8
  8
Layer_0
  62
7
  70
1
  66
1
  10
0
  20
0
  30
0
  0
VERTEX
  5
5b8
  8
Layer_0
  10
1273.2462
  20
1084.5142
  0
VERTEX
  5
5b9
  8
Layer_0
  10
1269.2205
  20
1085.7742
  42
-0.23691353
  0
VERTEX
  5
5ba
  8
Layer_0
  10
1268.5778
  20
1086.4741
  0
VERTEX
  5
5bb
  8
Layer_0
  10
1267.3962
  20
1091.3643
  42
-0.11224422
  0
VERTEX
  5
5bc
  8
Layer_0
  10
1267.3962
  20
1092.3643
  0
VERTEX
  5
5bd
  8
Layer_0
  10
1268.5778
  20
1097.2545
  0
VERTEX
  5
5be
  8
Layer_0
  10
1268.7462
  20
1097.6143
  0
VERTEX
  5
5bf
  8
Layer_0
  10
1270.7462
  20
1100.4642
  0
VERTEX
  5
5c0
  8
Layer_0
  10
1273.5462
  20
1100.4642
  0
VERTEX
  5
5c1
  8
Layer_0
  10
1276.0532
  20
1097.188
  42
-0.16750619
  0
VERTEX
  5
5c2
  8
Layer_0
  10
1276.5262
  20
1095.8326
  0
VERTEX
  5
5c3
  8
Layer_0
  10
1276.5262
  20
1087.3643
  0
VERTEX
  5
5c4
  8
Layer_0
  10
1276.1462
  20
1084.5142
  0
SEQEND
  0
POLYLINE
  5
5c6
  8
Layer_0
  62
7
  70
1
  66
1
  10
0
  20
0
  30
0
  0
VERTEX
  5
5c6
  8
Layer_0
  10
1273.2462
  20
1046.4142
  0
VERTEX
  5
5c7
  8
Layer_0
  10
1269.2205
  20
1047.6742
  42
-0.23691353
  0
VERTEX
  5
5c8
  8
Layer_0
  10
1268.5778
  20
1048.374
  0
VERTEX
  5
5c9
  8
Layer_0
  10
1267.3962
  20
1053.2643
  42
-0.11224422
  0
VERTEX
  5
5ca
  8
Layer_0
  10
1267.3962
  20
1054.2643
  0
VERTEX
  5
5cb
  8
Layer_0
  10
1268.5778
  20
1059.1544
  0
VERTEX
  5
5cc
  8
Layer_0
  10
1268.7462
  20
1059.5143
  0
VERTEX
  5
5cd
  8
Layer_0
  10
1270.7462
  20
1062.3643
  0
VERTEX
  5
5ce
  8
Layer_0
  10
1273.5462
  20
1062.3643
  0
VERTEX
  5
5cf
  8
Layer_0
  10
1276.0532
  20
1059.088
  42
-0.16750619
  0
VERTEX
  5
5d0
  8
Layer_0
  10
1276.5262
  20
1057.7327
  0
VERTEX
  5
5d1
  8
Layer_0
  10
1276.5262
  20
1049.2642
  0
VERTEX
  5
5d2
  8
Layer_0
  10
1276.1462
  20
1046.4142
  0
SEQEND
  0
POLYLINE
  5
5d4
  8
Layer_0
  62
7
  70
1
  66
1
  10
0
  20
0
  30
0
  0
VERTEX
  5
5d4
  8
Layer_0
  10
1282.2462
  20
1008.3142
  0
VERTEX
  5
5d5
  8
Layer_0
  10
1278.2205
  20
1009.5742
  42
-0.23693605
  0
VERTEX
  5
5d6
  8
Layer_0
  10
1277.5778
  20
1010.274
  0
VERTEX
  5
5d7
  8
Layer_0
  10
1276.3962
  20
1015.1642
  42
-0.11224422
  0
VERTEX
  5
5d8
  8
Layer_0
  10
1276.3962
  20
1016.1642
  0
VERTEX
  5
5d9
  8
Layer_0
  10
1277.5778
  20
1021.0544
  0
VERTEX
  5
5da
  8
Layer_0
  10
1277.7462
  20
1021.4142
  0
VERTEX
  5
5db
  8
Layer_0
  10
1279.7462
  20
1024.2642
  0
VERTEX
  5
5dc
  8
Layer_0
  10
1282.5462
  20
1024.2642
  0
VERTEX
  5
5dd
  8
Layer_0
  10
1285.0532
  20
1020.988
  42
-0.16750619
  0
VERTEX
  5
5de
  8
Layer_0
  10
1285.5262
  20
1019.6326
  0
VERTEX
  5
5df
  8
Layer_0
  10
1285.5262
  20
1011.1642
  0
VERTEX
  5
5e0
  8
Layer_0
  10
1285.1462
  20
1008.3142
  0
SEQEND
  0
POLYLINE
  5
5e2
  8
Layer_0
  62
7
  70
1
  66
1
  10
0
  20
0
  30
0
  0
VERTEX
  5
5e2
  8
Layer_0
  10
1301.2962
  20
1027.3643
  0
VERTEX
  5
5e3
  8
Layer_0
  10
1297.2705
  20
1028.6241
  42
-0.23699947
  0
VERTEX
  5
5e4
  8
Layer_0
  10
1296.6278
  20
1029.324
  0
VERTEX
  5
5e5
  8
Layer_0
  10
1295.4462
  20
1034.2142
  42
-0.11215494
  0
VERTEX
  5
5e6
  8
Layer_0
  10
1295.4462
  20
1035.2142
  0
VERTEX
  5
5e7
  8
Layer_0
  10
1296.6278
  20
1040.1044
  0
VERTEX
  5
5e8
  8
Layer_0
  10
1296.7962
  20
1040.4642
  0
VERTEX
  5
5e9
  8
Layer_0
  10
1298.7962
  20
1043.3142
  0
VERTEX
  5
5ea
  8
Layer_0
  10
1301.5962
  20
1043.3142
  0
VERTEX
  5
5eb
  8
Layer_0
  10
1304.1032
  20
1040.038
  42
-0.16749102
  0
VERTEX
  5
5ec
  8
Layer_0
  10
1304.5762
  20
1038.6826
  0
VERTEX
  5
5ed
  8
Layer_0
  10
1304.5762
  20
1030.2142
  0
VERTEX
  5
5ee
  8
Layer_0
  10
1304.1962
  20
1027.3643
  0
SEQEND
  0
POLYLINE
  5
5f0
  8
Layer_0
  62
7
  70
1
  66
1
  10
0
  20
0
  30
0
  0
VERTEX
  5
5f0
  8
Layer_0
  10
1301.2962
  20
1008.3142
  0
VERTEX
  5
5f1
  8
Layer_0
  10
1297.2705
  20
1009.5742
  42
-0.23699947
  0
VERTEX
  5
5f2
  8
Layer_0
  10
1296.6278
  20
1010.274
  0
VERTEX
  5
5f3
  8
Layer_0
  10
1295.4462
  20
1015.1642
  42
-0.11215494
  0
VERTEX
  5
5f4
  8
Layer_0
  10
1295.4462
  20
1016.1642
  0
VERTEX
  5
5f5
  8
Layer_0
  10
1296.6278
  20
1021.0544
  0
VERTEX
  5
5f6
  8
Layer_0
  10
1296.7962
  20
1021.4142
  0
VERTEX
  5
5f7
  8
Layer_0
  10
1298.7962
  20
1024.2642
  0
VERTEX
  5
5f8
  8
Layer_0
  10
1301.5962
  20
1024.2642
  0
VERTEX
  5
5f9
  8
Layer_0
  10
1304.1032
  20
1020.988
  42
-0.16748115
  0
VERTEX
  5
5fa
  8
Layer_0
  10
1304.5762
  20
1019.6326
  0
VERTEX
  5
5fb
  8
Layer_0
  10
1304.5762
  20
1011.1642
  0
VERTEX
  5
5fc
  8
Layer_0
  10
1304.1962
  20
1008.3142
  0
SEQEND
  0
POLYLINE
  5
5fe
  8
Layer_0
  62
7
  70
1
  66
1
  10
0
  20
0
  30
0
  0
VERTEX
  5
5fe
  8
Layer_0
  10
1289.8362
  20
1065.4642
  0
VERTEX
  5
5ff
  8
Layer_0
  10
1285.8105
  20
1066.7241
  42
-0.23689761
  0
VERTEX
  5
600
  8
Layer_0
  10
1285.1678
  20
1067.4241
  0
VERTEX
  5
601
  8
Layer_0
  10
1283.9862
  20
1072.3142
  42
-0.11224422
  0
VERTEX
  5
602
  8
Layer_0
  10
1283.9862
  20
1073.3142
  0
VERTEX
  5
603
  8
Layer_0
  10
1285.1678
  20
1078.2045
  0
VERTEX
  5
604
  8
Layer_0
  10
1285.3362
  20
1078.5642
  0
VERTEX
  5
605
  8
Layer_0
  10
1287.3362
  20
1081.4142
  0
VERTEX
  5
606
  8
Layer_0
  10
1290.1362
  20
1081.4142
  0
VERTEX
  5
607
  8
Layer_0
  10
1292.6432
  20
1078.1381
  42
-0.16749102
  0
VERTEX
  5
608
  8
Layer_0
  10
1293.1161
  20
1076.7827
  0
VERTEX
  5
609
  8
Layer_0
  10
1293.1161
  20
1068.3142
  0
VERTEX
  5
60a
  8
Layer_0
  10
1292.7362
  20
1065.4642
  0
SEQEND
  0
POLYLINE
  5
60c
  8
Layer_0
  62
7
  70
1
  66
1
  10
0
  20
0
  30
0
  0
VERTEX
  5
60c
  8
Layer_0
  10
1292.2462
  20
1046.4142
  0
VERTEX
  5
60d
  8
Layer_0
  10
1288.2205
  20
1047.6741
  42
-0.23691353
  0
VERTEX
  5
60e
  8
Layer_0
  10
1287.5778
  20
1048.374
  0
VERTEX
  5
60f
  8
Layer_0
  10
1286.3962
  20
1053.2642
  42
-0.11224422
  0
VERTEX
  5
610
  8
Layer_0
  10
1286.3962
  20
1054.2642
  0
VERTEX
  5
611
  8
Layer_0
  10
1287.5778
  20
1059.1544
  0
VERTEX
  5
612
  8
Layer_0
  10
1287.7462
  20
1059.5142
  0
VERTEX
  5
613
  8
Layer_0
  10
1289.7462
  20
1062.3643
  0
VERTEX
  5
614
  8
Layer_0
  10
1292.5462
  20
1062.3643
  0
VERTEX
  5
615
  8
Layer_0
  10
1295.0532
  20
1059.088
  42
-0.16750619
  0
VERTEX
  5
616
  8
Layer_0
  10
1295.5262
  20
1057.7327
  0
VERTEX
  5
617
  8
Layer_0
  10
1295.5262
  20
1049.2642
  0
VERTEX
  5
618
  8
Layer_0
  10
1295.1462
  20
1046.4142
  0
SEQEND
  0
POLYLINE
  5
61a
  8
Layer_0
  62
7
  70
1
  66
1
  10
0
  20
0
  30
0
  0
VERTEX
  5
61a
  8
Layer_0
  10
1294.8462
  20
1103.5642
  0
VERTEX
  5
61b
  8
Layer_0
  10
1290.8205
  20
1104.8241
  42
-0.23695986
  0
VERTEX
  5
61c
  8
Layer_0
  10
1290.1778
  20
1105.524
  0
VERTEX
  5
61d
  8
Layer_0
  10
1288.9962
  20
1110.4142
  42
-0.11214987
  0
VERTEX
  5
61e
  8
Layer_0
  10
1288.9962
  20
1111.4142
  0
VERTEX
  5
61f
  8
Layer_0
  10
1290.1778
  20
1116.3044
  0
VERTEX
  5
620
  8
Layer_0
  10
1290.3462
  20
1116.6642
  0
VERTEX
  5
621
  8
Layer_0
  10
1292.3462
  20
1119.5142
  0
VERTEX
  5
622
  8
Layer_0
  10
1295.1462
  20
1119.5142
  0
VERTEX
  5
623
  8
Layer_0
  10
1297.6532
  20
1116.238
  42
-0.16749102
  0
VERTEX
  5
624
  8
Layer_0
  10
1298.1262
  20
1114.8826
  0
VERTEX
  5
625
  8
Layer_0
  10
1298.1262
  20
1106.4142
  0
VERTEX
  5
626
  8
Layer_0
  10
1297.7462
  20
1103.5642
  0
SEQEND
  0
POLYLINE
  5
628
  8
Layer_0
  62
7
  70
1
  66
1
  10
0
  20
0
  30
0
  0
VERTEX
  5
628
  8
Layer_0
  10
1292.3462
  20
1084.5142
  0
VERTEX
  5
629
  8
Layer_0
  10
1288.3205
  20
1085.7742
  42
-0.23695986
  0
VERTEX
  5
62a
  8
Layer_0
  10
1287.6778
  20
1086.474
  0
VERTEX
  5
62b
  8
Layer_0
  10
1286.4962
  20
1091.3643
  42
-0.11215494
  0
VERTEX
  5
62c
  8
Layer_0
  10
1286.4962
  20
1092.3643
  0
VERTEX
  5
62d
  8
Layer_0
  10
1287.6778
  20
1097.2545
  0
VERTEX
  5
62e
  8
Layer_0
  10
1287.8462
  20
1097.6143
  0
VERTEX
  5
62f
  8
Layer_0
  10
1289.8462
  20
1100.4642
  0
VERTEX
  5
630
  8
Layer_0
  10
1292.6462
  20
1100.4642
  0
VERTEX
  5
631
  8
Layer_0
  10
1295.1532
  20
1097.188
  42
-0.16748115
  0
VERTEX
  5
632
  8
Layer_0
  10
1295.6262
  20
1095.8326
  0
VERTEX
  5
633
  8
Layer_0
  10
1295.6262
  20
1087.3643
  0
VERTEX
  5
634
  8
Layer_0
  10
1295.2462
  20
1084.5142
  0
SEQEND
  0
POLYLINE
  5
636
  8
Layer_0
  62
7
  70
1
  66
1
  10
0
  20
0
  30
0
  0
VERTEX
  5
636
  8
Layer_0
  10
1311.3462
  20
1084.5142
  0
VERTEX
  5
637
  8
Layer_0
  10
1307.3205
  20
1085.7742
  42
-0.23691353
  0
VERTEX
  5
638
  8
Layer_0
  10
1306.6778
  20
1086.474
  0
VERTEX
  5
639
  8
Layer_0
  10
1305.4962
  20
1091.3643
  42
-0.11215494
  0
VERTEX
  5
63a
  8
Layer_0
  10
1305.4962
  20
1092.3643
  0
VERTEX
  5
63b
  8
Layer_0
  10
1306.6778
  20
1097.2545
  0
VERTEX
  5
63c
  8
Layer_0
  10
1306.8462
  20
1097.6143
  0
VERTEX
  5
63d
  8
Layer_0
  10
1308.8462
  20
1100.4642
  0
VERTEX
  5
63e
  8
Layer_0
  10
1311.6462
  20
1100.4642
  0
VERTEX
  5
63f
  8
Layer_0
  10
1314.1532
  20
1097.188
  42
-0.16748115
  0
VERTEX
  5
640
  8
Layer_0
  10
1314.6262
  20
1095.8326
  0
VERTEX
  5
641
  8
Layer_0
  10
1314.6262
  20
1087.3643
  0
VERTEX
  5
642
  8
Layer_0
  10
1314.2462
  20
1084.5142
  0
SEQEND
  0
POLYLINE
  5
644
  8
Layer_0
  62
7
  70
1
  66
1
  10
0
  20
0
  30
0
  0
VERTEX
  5
644
  8
Layer_0
  10
1313.8462
  20
1103.5642
  0
VERTEX
  5
645
  8
Layer_0
  10
1309.8205
  20
1104.8241
  42
-0.23691353
  0
VERTEX
  5
646
  8
Layer_0
  10
1309.1778
  20
1105.524
  0
VERTEX
  5
647
  8
Layer_0
  10
1307.9962
  20
1110.4142
  42
-0.11214987
  0
VERTEX
  5
648
  8
Layer_0
  10
1307.9962
  20
1111.4142
  0
VERTEX
  5
649
  8
Layer_0
  10
1309.1778
  20
1116.3044
  0
VERTEX
  5
64a
  8
Layer_0
  10
1309.3462
  20
1116.6642
  0
VERTEX
  5
64b
  8
Layer_0
  10
1311.3462
  20
1119.5142
  0
VERTEX
  5
64c
  8
Layer_0
  10
1314.1462
  20
1119.5142
  0
VERTEX
  5
64d
  8
Layer_0
  10
1316.6532
  20
1116.238
  42
-0.16748115
  0
VERTEX
  5
64e
  8
Layer_0
  10
1317.1262
  20
1114.8826
  0
VERTEX
  5
64f
  8
Layer_0
  10
1317.1262
  20
1106.4142
  0
VERTEX
  5
650
  8
Layer_0
  10
1316.7462
  20
1103.5642
  0
SEQEND
  0
POLYLINE
  5
652
  8
Layer_0
  62
7
  70
1
  66
1
  10
0
  20
0
  30
0
  0
VERTEX
  5
652
  8
Layer_0
  10
1330.4462
  20
1084.5142
  0
VERTEX
  5
653
  8
Layer_0
  10
1326.4205
  20
1085.7742
  42
-0.23691353
  0
VERTEX
  5
654
  8
Layer_0
  10
1325.7778
  20
1086.474
  0
VERTEX
  5
655
  8
Layer_0
  10
1324.5962
  20
1091.3643
  42
-0.11215494
  0
VERTEX
  5
656
  8
Layer_0
  10
1324.5962
  20
1092.3643
  0
VERTEX
  5
657
  8
Layer_0
  10
1325.7778
  20
1097.2545
  0
VERTEX
  5
658
  8
Layer_0
  10
1325.9462
  20
1097.6143
  0
VERTEX
  5
659
  8
Layer_0
  10
1327.9462
  20
1100.4642
  0
VERTEX
  5
65a
  8
Layer_0
  10
1330.7462
  20
1100.4642
  0
VERTEX
  5
65b
  8
Layer_0
  10
1333.2532
  20
1097.188
  42
-0.16750619
  0
VERTEX
  5
65c
  8
Layer_0
  10
1333.7262
  20
1095.8326
  0
VERTEX
  5
65d
  8
Layer_0
  10
1333.7262
  20
1087.3643
  0
VERTEX
  5
65e
  8
Layer_0
  10
1333.3462
  20
1084.5142
  0
SEQEND
  0
POLYLINE
  5
660
  8
Layer_0
  62
7
  70
1
  66
1
  10
0
  20
0
  30
0
  0
VERTEX
  5
660
  8
Layer_0
  10
1332.8462
  20
1103.5642
  0
VERTEX
  5
661
  8
Layer_0
  10
1328.8205
  20
1104.8241
  42
-0.23691353
  0
VERTEX
  5
662
  8
Layer_0
  10
1328.1778
  20
1105.524
  0
VERTEX
  5
663
  8
Layer_0
  10
1326.9962
  20
1110.4142
  42
-0.11214987
  0
VERTEX
  5
664
  8
Layer_0
  10
1326.9962
  20
1111.4142
  0
VERTEX
  5
665
  8
Layer_0
  10
1328.1778
  20
1116.3044
  0
VERTEX
  5
666
  8
Layer_0
  10
1328.3462
  20
1116.6642
  0
VERTEX
  5
667
  8
Layer_0
  10
1330.3462
  20
1119.5142
  0
VERTEX
  5
668
  8
Layer_0
  10
1333.1462
  20
1119.5142
  0
VERTEX
  5
669
  8
Layer_0
  10
1335.6532
  20
1116.238
  42
-0.16748115
  0
VERTEX
  5
66a
  8
Layer_0
  10
1336.1262
  20
1114.8826
  0
VERTEX
  5
66b
  8
Layer_0
  10
1336.1262
  20
1106.4142
  0
VERTEX
  5
66c
  8
Layer_0
  10
1335.7462
  20
1103.5642
  0
SEQEND
  0
POLYLINE
  5
66e
  8
Layer_0
  62
7
  70
1
  66
1
  10
0
  20
0
  30
0
  0
VERTEX
  5
66e
  8
Layer_0
  10
1352.1194
  20
1105.7699
  0
VERTEX
  5
66f
  8
Layer_0
  10
1348.5571
  20
1108.0289
  42
-0.23693565
  0
VERTEX
  5
670
  8
Layer_0
  10
1348.1174
  20
1108.8713
  0
VERTEX
  5
671
  8
Layer_0
  10
1348.2417
  20
1113.9006
  42
-0.11225774
  0
VERTEX
  5
672
  8
Layer_0
  10
1348.5005
  20
1114.8666
  0
VERTEX
  5
673
  8
Layer_0
  10
1350.9075
  20
1119.2843
  0
VERTEX
  5
674
  8
Layer_0
  10
1351.1633
  20
1119.5884
  0
VERTEX
  5
675
  8
Layer_0
  10
1353.8328
  20
1121.8235
  0
VERTEX
  5
676
  8
Layer_0
  10
1356.5374
  20
1121.0989
  0
VERTEX
  5
677
  8
Layer_0
  10
1358.1111
  20
1117.2854
  42
-0.16745749
  0
VERTEX
  5
678
  8
Layer_0
  10
1358.2171
  20
1115.8538
  0
VERTEX
  5
679
  8
Layer_0
  10
1356.0253
  20
1107.674
  0
VERTEX
  5
67a
  8
Layer_0
  10
1354.9207
  20
1105.0194
  0
SEQEND
  0
POLYLINE
  5
67c
  8
Layer_0
  62
7
  70
1
  66
1
  10
0
  20
0
  30
0
  0
VERTEX
  5
67c
  8
Layer_0
  10
1349.4462
  20
1084.5142
  0
VERTEX
  5
67d
  8
Layer_0
  10
1345.4205
  20
1085.7742
  42
-0.23691353
  0
VERTEX
  5
67e
  8
Layer_0
  10
1344.7778
  20
1086.474
  0
VERTEX
  5
67f
  8
Layer_0
  10
1343.5962
  20
1091.3643
  42
-0.11215494
  0
VERTEX
  5
680
  8
Layer_0
  10
1343.5962
  20
1092.3643
  0
VERTEX
  5
681
  8
Layer_0
  10
1344.7778
  20
1097.2545
  0
VERTEX
  5
682
  8
Layer_0
  10
1344.9462
  20
1097.6143
  0
VERTEX
  5
683
  8
Layer_0
  10
1346.9462
  20
1100.4642
  0
VERTEX
  5
684
  8
Layer_0
  10
1349.7462
  20
1100.4642
  0
VERTEX
  5
685
  8
Layer_0
  10
1352.2532
  20
1097.188
  42
-0.16750619
  0
VERTEX
  5
686
  8
Layer_0
  10
1352.7262
  20
1095.8326
  0
VERTEX
  5
687
  8
Layer_0
  10
1352.7262
  20
1087.3643
  0
VERTEX
  5
688
  8
Layer_0
  10
1352.3462
  20
1084.5142
  0
SEQEND
  0
POLYLINE
  5
68a
  8
Layer_0
  62
7
  70
1
  66
1
  10
0
  20
0
  30
0
  0
VERTEX
  5
68a
  8
Layer_0
  10
1363.6865
  20
1134.1902
  0
VERTEX
  5
68b
  8
Layer_0
  10
1360.5825
  20
1131.3339
  42
-0.23695578
  0
VERTEX
  5
68c
  8
Layer_0
  10
1359.655
  20
1131.1272
  0
VERTEX
  5
68d
  8
Layer_0
  10
1354.8292
  20
1132.549
  42
-0.11220978
  0
VERTEX
  5
68e
  8
Layer_0
  10
1353.9632
  20
1133.049
  0
VERTEX
  5
68f
  8
Layer_0
  10
1350.3189
  20
1136.5173
  0
VERTEX
  5
690
  8
Layer_0
  10
1350.0915
  20
1136.8431
  0
VERTEX
  5
691
  8
Layer_0
  10
1348.6233
  20
1140.0001
  0
VERTEX
  5
692
  8
Layer_0
  10
1350.0233
  20
1142.425
  0
VERTEX
  5
693
  8
Layer_0
  10
1354.1141
  20
1142.9581
  42
-0.16749413
  0
VERTEX
  5
694
  8
Layer_0
  10
1355.5244
  20
1142.6901
  0
VERTEX
  5
695
  8
Layer_0
  10
1362.8583
  20
1138.4557
  0
VERTEX
  5
696
  8
Layer_0
  10
1365.1365
  20
1136.7017
  0
SEQEND
  0
POLYLINE
  5
698
  8
Layer_0
  62
7
  70
1
  66
1
  10
0
  20
0
  30
0
  0
VERTEX
  5
698
  8
Layer_0
  10
1347.0362
  20
1065.4642
  0
VERTEX
  5
699
  8
Layer_0
  10
1343.0105
  20
1066.7241
  42
-0.23696103
  0
VERTEX
  5
69a
  8
Layer_0
  10
1342.3678
  20
1067.4241
  0
VERTEX
  5
69b
  8
Layer_0
  10
1341.1862
  20
1072.3142
  42
-0.11224422
  0
VERTEX
  5
69c
  8
Layer_0
  10
1341.1862
  20
1073.3142
  0
VERTEX
  5
69d
  8
Layer_0
  10
1342.3678
  20
1078.2045
  0
VERTEX
  5
69e
  8
Layer_0
  10
1342.5362
  20
1078.5642
  0
VERTEX
  5
69f
  8
Layer_0
  10
1344.5362
  20
1081.4142
  0
VERTEX
  5
6a0
  8
Layer_0
  10
1347.3362
  20
1081.4142
  0
VERTEX
  5
6a1
  8
Layer_0
  10
1349.8432
  20
1078.1381
  42
-0.16748115
  0
VERTEX
  5
6a2
  8
Layer_0
  10
1350.3162
  20
1076.7827
  0
VERTEX
  5
6a3
  8
Layer_0
  10
1350.3162
  20
1068.3142
  0
VERTEX
  5
6a4
  8
Layer_0
  10
1349.9362
  20
1065.4642
  0
SEQEND
  0
POLYLINE
  5
6a6
  8
Layer_0
  62
7
  70
1
  66
1
  10
0
  20
0
  30
0
  0
VERTEX
  5
6a6
  8
Layer_0
  10
1339.3962
  20
1027.3643
  0
VERTEX
  5
6a7
  8
Layer_0
  10
1335.3705
  20
1028.6241
  42
-0.23693605
  0
VERTEX
  5
6a8
  8
Layer_0
  10
1334.7278
  20
1029.324
  0
VERTEX
  5
6a9
  8
Layer_0
  10
1333.5462
  20
1034.2142
  42
-0.11224422
  0
VERTEX
  5
6aa
  8
Layer_0
  10
1333.5462
  20
1035.2142
  0
VERTEX
  5
6ab
  8
Layer_0
  10
1334.7278
  20
1040.1044
  0
VERTEX
  5
6ac
  8
Layer_0
  10
1334.8962
  20
1040.4642
  0
VERTEX
  5
6ad
  8
Layer_0
  10
1336.8962
  20
1043.3142
  0
VERTEX
  5
6ae
  8
Layer_0
  10
1339.6962
  20
1043.3142
  0
VERTEX
  5
6af
  8
Layer_0
  10
1342.2032
  20
1040.038
  42
-0.16745914
  0
VERTEX
  5
6b0
  8
Layer_0
  10
1342.6762
  20
1038.6826
  0
VERTEX
  5
6b1
  8
Layer_0
  10
1342.6762
  20
1030.2142
  0
VERTEX
  5
6b2
  8
Layer_0
  10
1342.2962
  20
1027.3643
  0
SEQEND
  0
POLYLINE
  5
6b4
  8
Layer_0
  62
7
  70
1
  66
1
  10
0
  20
0
  30
0
  0
VERTEX
  5
6b4
  8
Layer_0
  10
1349.5462
  20
1046.4142
  0
VERTEX
  5
6b5
  8
Layer_0
  10
1345.5204
  20
1047.6741
  42
-0.23691353
  0
VERTEX
  5
6b6
  8
Layer_0
  10
1344.8777
  20
1048.374
  0
VERTEX
  5
6b7
  8
Layer_0
  10
1343.6962
  20
1053.2642
  42
-0.11215494
  0
VERTEX
  5
6b8
  8
Layer_0
  10
1343.6962
  20
1054.2642
  0
VERTEX
  5
6b9
  8
Layer_0
  10
1344.8777
  20
1059.1544
  0
VERTEX
  5
6ba
  8
Layer_0
  10
1345.0462
  20
1059.5142
  0
VERTEX
  5
6bb
  8
Layer_0
  10
1347.0462
  20
1062.3643
  0
VERTEX
  5
6bc
  8
Layer_0
  10
1349.8462
  20
1062.3643
  0
VERTEX
  5
6bd
  8
Layer_0
  10
1352.3532
  20
1059.088
  42
-0.16748115
  0
VERTEX
  5
6be
  8
Layer_0
  10
1352.8262
  20
1057.7327
  0
VERTEX
  5
6bf
  8
Layer_0
  10
1352.8262
  20
1049.2642
  0
VERTEX
  5
6c0
  8
Layer_0
  10
1352.4462
  20
1046.4142
  0
SEQEND
  0
POLYLINE
  5
6c2
  8
Layer_0
  62
7
  70
1
  66
1
  10
0
  20
0
  30
0
  0
VERTEX
  5
6c2
  8
Layer_0
  10
1339.3962
  20
1008.3142
  0
VERTEX
  5
6c3
  8
Layer_0
  10
1335.3705
  20
1009.5742
  42
-0.23698238
  0
VERTEX
  5
6c4
  8
Layer_0
  10
1334.7278
  20
1010.274
  0
VERTEX
  5
6c5
  8
Layer_0
  10
1333.5462
  20
1015.1642
  42
-0.11224422
  0
VERTEX
  5
6c6
  8
Layer_0
  10
1333.5462
  20
1016.1642
  0
VERTEX
  5
6c7
  8
Layer_0
  10
1334.7278
  20
1021.0544
  0
VERTEX
  5
6c8
  8
Layer_0
  10
1334.8962
  20
1021.4142
  0
VERTEX
  5
6c9
  8
Layer_0
  10
1336.8962
  20
1024.2642
  0
VERTEX
  5
6ca
  8
Layer_0
  10
1339.6962
  20
1024.2642
  0
VERTEX
  5
6cb
  8
Layer_0
  10
1342.2032
  20
1020.988
  42
-0.16745914
  0
VERTEX
  5
6cc
  8
Layer_0
  10
1342.6762
  20
1019.6326
  0
VERTEX
  5
6cd
  8
Layer_0
  10
1342.6762
  20
1011.1642
  0
VERTEX
  5
6ce
  8
Layer_0
  10
1342.2962
  20
1008.3142
  0
SEQEND
  0
POLYLINE
  5
6d0
  8
Layer_0
  62
7
  70
1
  66
1
  10
0
  20
0
  30
0
  0
VERTEX
  5
6d0
  8
Layer_0
  10
1320.3462
  20
1008.3142
  0
VERTEX
  5
6d1
  8
Layer_0
  10
1316.3205
  20
1009.5742
  42
-0.23698238
  0
VERTEX
  5
6d2
  8
Layer_0
  10
1315.6778
  20
1010.274
  0
VERTEX
  5
6d3
  8
Layer_0
  10
1314.4962
  20
1015.1642
  42
-0.11215494
  0
VERTEX
  5
6d4
  8
Layer_0
  10
1314.4962
  20
1016.1642
  0
VERTEX
  5
6d5
  8
Layer_0
  10
1315.6778
  20
1021.0544
  0
VERTEX
  5
6d6
  8
Layer_0
  10
1315.8462
  20
1021.4142
  0
VERTEX
  5
6d7
  8
Layer_0
  10
1317.8462
  20
1024.2642
  0
VERTEX
  5
6d8
  8
Layer_0
  10
1320.6462
  20
1024.2642
  0
VERTEX
  5
6d9
  8
Layer_0
  10
1323.1532
  20
1020.988
  42
-0.16749102
  0
VERTEX
  5
6da
  8
Layer_0
  10
1323.6262
  20
1019.6326
  0
VERTEX
  5
6db
  8
Layer_0
  10
1323.6262
  20
1011.1642
  0
VERTEX
  5
6dc
  8
Layer_0
  10
1323.2462
  20
1008.3142
  0
SEQEND
  0
POLYLINE
  5
6de
  8
Layer_0
  62
7
  70
1
  66
1
  10
0
  20
0
  30
0
  0
VERTEX
  5
6de
  8
Layer_0
  10
1320.3462
  20
1027.3643
  0
VERTEX
  5
6df
  8
Layer_0
  10
1316.3205
  20
1028.6241
  42
-0.23693605
  0
VERTEX
  5
6e0
  8
Layer_0
  10
1315.6778
  20
1029.324
  0
VERTEX
  5
6e1
  8
Layer_0
  10
1314.4962
  20
1034.2142
  42
-0.11215494
  0
VERTEX
  5
6e2
  8
Layer_0
  10
1314.4962
  20
1035.2142
  0
VERTEX
  5
6e3
  8
Layer_0
  10
1315.6778
  20
1040.1044
  0
VERTEX
  5
6e4
  8
Layer_0
  10
1315.8462
  20
1040.4642
  0
VERTEX
  5
6e5
  8
Layer_0
  10
1317.8462
  20
1043.3142
  0
VERTEX
  5
6e6
  8
Layer_0
  10
1320.6462
  20
1043.3142
  0
VERTEX
  5
6e7
  8
Layer_0
  10
1323.1532
  20
1040.038
  42
-0.16752291
  0
VERTEX
  5
6e8
  8
Layer_0
  10
1323.6262
  20
1038.6826
  0
VERTEX
  5
6e9
  8
Layer_0
  10
1323.6262
  20
1030.2142
  0
VERTEX
  5
6ea
  8
Layer_0
  10
1323.2462
  20
1027.3643
  0
SEQEND
  0
POLYLINE
  5
6ec
  8
Layer_0
  62
7
  70
1
  66
1
  10
0
  20
0
  30
0
  0
VERTEX
  5
6ec
  8
Layer_0
  10
1311.3462
  20
1046.4142
  0
VERTEX
  5
6ed
  8
Layer_0
  10
1307.3205
  20
1047.6741
  42
-0.23691353
  0
VERTEX
  5
6ee
  8
Layer_0
  10
1306.6778
  20
1048.374
  0
VERTEX
  5
6ef
  8
Layer_0
  10
1305.4962
  20
1053.2642
  42
-0.11215494
  0
VERTEX
  5
6f0
  8
Layer_0
  10
1305.4962
  20
1054.2642
  0
VERTEX
  5
6f1
  8
Layer_0
  10
1306.6778
  20
1059.1544
  0
VERTEX
  5
6f2
  8
Layer_0
  10
1306.8462
  20
1059.5142
  0
VERTEX
  5
6f3
  8
Layer_0
  10
1308.8462
  20
1062.3643
  0
VERTEX
  5
6f4
  8
Layer_0
  10
1311.6462
  20
1062.3643
  0
VERTEX
  5
6f5
  8
Layer_0
  10
1314.1532
  20
1059.088
  42
-0.16748115
  0
VERTEX
  5
6f6
  8
Layer_0
  10
1314.6262
  20
1057.7327
  0
VERTEX
  5
6f7
  8
Layer_0
  10
1314.6262
  20
1049.2642
  0
VERTEX
  5
6f8
  8
Layer_0
  10
1314.2462
  20
1046.4142
  0
SEQEND
  0
POLYLINE
  5
6fa
  8
Layer_0
  62
7
  70
1
  66
1
  10
0
  20
0
  30
0
  0
VERTEX
  5
6fa
  8
Layer_0
  10
1308.9362
  20
1065.4642
  0
VERTEX
  5
6fb
  8
Layer_0
  10
1304.9105
  20
1066.7241
  42
-0.23689761
  0
VERTEX
  5
6fc
  8
Layer_0
  10
1304.2678
  20
1067.4241
  0
VERTEX
  5
6fd
  8
Layer_0
  10
1303.0862
  20
1072.3142
  42
-0.11224422
  0
VERTEX
  5
6fe
  8
Layer_0
  10
1303.0862
  20
1073.3142
  0
VERTEX
  5
6ff
  8
Layer_0
  10
1304.2678
  20
1078.2045
  0
VERTEX
  5
700
  8
Layer_0
  10
1304.4362
  20
1078.5642
  0
VERTEX
  5
701
  8
Layer_0
  10
1306.4362
  20
1081.4142
  0
VERTEX
  5
702
  8
Layer_0
  10
1309.2362
  20
1081.4142
  0
VERTEX
  5
703
  8
Layer_0
  10
1311.7432
  20
1078.1381
  42
-0.16750613
  0
VERTEX
  5
704
  8
Layer_0
  10
1312.2162
  20
1076.7827
  0
VERTEX
  5
705
  8
Layer_0
  10
1312.2162
  20
1068.3142
  0
VERTEX
  5
706
  8
Layer_0
  10
1311.8362
  20
1065.4642
  0
SEQEND
  0
POLYLINE
  5
708
  8
Layer_0
  62
7
  70
1
  66
1
  10
0
  20
0
  30
0
  0
VERTEX
  5
708
  8
Layer_0
  10
1330.4462
  20
1046.4142
  0
VERTEX
  5
709
  8
Layer_0
  10
1326.4205
  20
1047.6741
  42
-0.23691353
  0
VERTEX
  5
70a
  8
Layer_0
  10
1325.7778
  20
1048.374
  0
VERTEX
  5
70b
  8
Layer_0
  10
1324.5962
  20
1053.2642
  42
-0.11215494
  0
VERTEX
  5
70c
  8
Layer_0
  10
1324.5962
  20
1054.2642
  0
VERTEX
  5
70d
  8
Layer_0
  10
1325.7778
  20
1059.1544
  0
VERTEX
  5
70e
  8
Layer_0
  10
1325.9462
  20
1059.5142
  0
VERTEX
  5
70f
  8
Layer_0
  10
1327.9462
  20
1062.3643
  0
VERTEX
  5
710
  8
Layer_0
  10
1330.7462
  20
1062.3643
  0
VERTEX
  5
711
  8
Layer_0
  10
1333.2532
  20
1059.088
  42
-0.16750619
  0
VERTEX
  5
712
  8
Layer_0
  10
1333.7262
  20
1057.7327
  0
VERTEX
  5
713
  8
Layer_0
  10
1333.7262
  20
1049.2642
  0
VERTEX
  5
714
  8
Layer_0
  10
1333.3462
  20
1046.4142
  0
SEQEND
  0
POLYLINE
  5
716
  8
Layer_0
  62
7
  70
1
  66
1
  10
0
  20
0
  30
0
  0
VERTEX
  5
716
  8
Layer_0
  10
1327.9362
  20
1065.4642
  0
VERTEX
  5
717
  8
Layer_0
  10
1323.9105
  20
1066.7241
  42
-0.23689761
  0
VERTEX
  5
718
  8
Layer_0
  10
1323.2678
  20
1067.4241
  0
VERTEX
  5
719
  8
Layer_0
  10
1322.0862
  20
1072.3142
  42
-0.11215494
  0
VERTEX
  5
71a
  8
Layer_0
  10
1322.0862
  20
1073.3142
  0
VERTEX
  5
71b
  8
Layer_0
  10
1323.2678
  20
1078.2045
  0
VERTEX
  5
71c
  8
Layer_0
  10
1323.4362
  20
1078.5642
  0
VERTEX
  5
71d
  8
Layer_0
  10
1325.4362
  20
1081.4142
  0
VERTEX
  5
71e
  8
Layer_0
  10
1328.2362
  20
1081.4142
  0
VERTEX
  5
71f
  8
Layer_0
  10
1330.7432
  20
1078.1381
  42
-0.16750613
  0
VERTEX
  5
720
  8
Layer_0
  10
1331.2162
  20
1076.7827
  0
VERTEX
  5
721
  8
Layer_0
  10
1331.2162
  20
1068.3142
  0
VERTEX
  5
722
  8
Layer_0
  10
1330.8362
  20
1065.4642
  0
SEQEND
  0
POLYLINE
  5
724
  8
Layer_0
  62
7
  70
1
  66
1
  10
0
  20
0
  30
0
  0
VERTEX
  5
724
  8
Layer_0
  10
1266.3419
  20
1080.0143
  0
VERTEX
  5
725
  8
Layer_0
  10
1266.7848
  20
1079.3317
  0
VERTEX
  5
726
  8
Layer_0
  10
1266.2462
  20
1078.5641
  0
VERTEX
  5
727
  8
Layer_0
  10
1266.0778
  20
1078.2045
  0
VERTEX
  5
728
  8
Layer_0
  10
1264.8961
  20
1073.3141
  42
0.11014961
  0
VERTEX
  5
729
  8
Layer_0
  10
1264.8961
  20
1072.3141
  0
VERTEX
  5
72a
  8
Layer_0
  10
1266.0778
  20
1067.424
  0
VERTEX
  5
72b
  8
Layer_0
  10
1266.1188
  20
1067.3065
  0
VERTEX
  5
72c
  8
Layer_0
  10
1266.173
  20
1067.1957
  0
VERTEX
  5
72d
  8
Layer_0
  10
1266.2389
  20
1067.0924
  0
VERTEX
  5
72e
  8
Layer_0
  10
1266.3163
  20
1066.9979
  0
VERTEX
  5
72f
  8
Layer_0
  10
1266.4061
  20
1066.9152
  0
VERTEX
  5
730
  8
Layer_0
  10
1266.5009
  20
1066.8383
  42
0.031505818
  0
VERTEX
  5
731
  8
Layer_0
  10
1266.7203
  20
1066.724
  0
VERTEX
  5
732
  8
Layer_0
  10
1270.7462
  20
1065.4642
  0
VERTEX
  5
733
  8
Layer_0
  10
1273.6461
  20
1065.4642
  0
VERTEX
  5
734
  8
Layer_0
  10
1274.0262
  20
1068.3141
  0
VERTEX
  5
735
  8
Layer_0
  10
1274.0262
  20
1069.4142
  0
VERTEX
  5
736
  8
Layer_0
  10
1277.9862
  20
1069.4142
  0
VERTEX
  5
737
  8
Layer_0
  10
1282.1862
  20
1069.4642
  0
VERTEX
  5
738
  8
Layer_0
  10
1283.1361
  20
1070.9142
  0
VERTEX
  5
739
  8
Layer_0
  10
1283.1361
  20
1074.7142
  0
VERTEX
  5
73a
  8
Layer_0
  10
1282.1862
  20
1076.1642
  42
0.029087525
  0
VERTEX
  5
73b
  8
Layer_0
  10
1274.0262
  20
1076.4196
  42
0.096744242
  0
VERTEX
  5
73c
  8
Layer_0
  10
1273.9039
  20
1077.5004
  42
0.082018258
  0
VERTEX
  5
73d
  8
Layer_0
  10
1273.5531
  20
1078.1381
  0
VERTEX
  5
73e
  8
Layer_0
  10
1271.0463
  20
1081.4142
  0
VERTEX
  5
73f
  8
Layer_0
  10
1268.2462
  20
1081.4142
  0
VERTEX
  5
740
  8
Layer_0
  10
1267.7362
  20
1081.8141
  0
VERTEX
  5
741
  8
Layer_0
  10
1262.536
  20
1081.8141
  0
VERTEX
  5
742
  8
Layer_0
  10
1262.536
  20
1080.0143
  0
SEQEND
  0
POLYLINE
  5
744
  8
Layer_0
  62
7
  70
1
  66
1
  10
0
  20
0
  30
0
  0
VERTEX
  5
744
  8
Layer_0
  10
1269.8541
  20
1110.663
  0
VERTEX
  5
745
  8
Layer_0
  10
1269.8961
  20
1110.4142
  0
VERTEX
  5
746
  8
Layer_0
  10
1271.0778
  20
1105.524
  0
VERTEX
  5
747
  8
Layer_0
  10
1271.1188
  20
1105.4064
  42
0.070609329
  0
VERTEX
  5
748
  8
Layer_0
  10
1271.3163
  20
1105.098
  42
0.063807193
  0
VERTEX
  5
749
  8
Layer_0
  10
1271.5009
  20
1104.9384
  42
0.041022386
  0
VERTEX
  5
74a
  8
Layer_0
  10
1271.7203
  20
1104.8241
  0
VERTEX
  5
74b
  8
Layer_0
  10
1275.7462
  20
1103.5641
  0
VERTEX
  5
74c
  8
Layer_0
  10
1278.6461
  20
1103.5641
  0
VERTEX
  5
74d
  8
Layer_0
  10
1279.0262
  20
1106.4142
  0
VERTEX
  5
74e
  8
Layer_0
  10
1279.0262
  20
1107.4142
  0
VERTEX
  5
74f
  8
Layer_0
  10
1283.6962
  20
1107.4142
  0
VERTEX
  5
750
  8
Layer_0
  10
1287.1962
  20
1107.5641
  0
VERTEX
  5
751
  8
Layer_0
  10
1288.1461
  20
1109.014
  0
VERTEX
  5
752
  8
Layer_0
  10
1288.1461
  20
1112.8141
  0
VERTEX
  5
753
  8
Layer_0
  10
1287.1962
  20
1114.264
  42
0.016488705
  0
VERTEX
  5
754
  8
Layer_0
  10
1279.0262
  20
1114.4608
  42
0.10169971
  0
VERTEX
  5
755
  8
Layer_0
  10
1278.9032
  20
1115.6
  42
0.072122197
  0
VERTEX
  5
756
  8
Layer_0
  10
1278.5531
  20
1116.2379
  0
VERTEX
  5
757
  8
Layer_0
  10
1276.0463
  20
1119.5143
  0
VERTEX
  5
758
  8
Layer_0
  10
1273.2462
  20
1119.5143
  0
VERTEX
  5
759
  8
Layer_0
  10
1271.2462
  20
1116.6642
  0
VERTEX
  5
75a
  8
Layer_0
  10
1271.0778
  20
1116.3043
  0
VERTEX
  5
75b
  8
Layer_0
  10
1269.8961
  20
1111.4142
  42
0.10275341
  0
SEQEND
  0
POLYLINE
  5
75d
  8
Layer_0
  62
7
  70
1
  66
1
  10
0
  20
0
  30
0
  0
VERTEX
  5
75d
  8
Layer_0
  10
1276.3541
  20
1034.463
  0
VERTEX
  5
75e
  8
Layer_0
  10
1276.3961
  20
1034.2142
  0
VERTEX
  5
75f
  8
Layer_0
  10
1277.5778
  20
1029.3241
  0
VERTEX
  5
760
  8
Layer_0
  10
1277.6188
  20
1029.2064
  0
VERTEX
  5
761
  8
Layer_0
  10
1277.673
  20
1029.0956
  0
VERTEX
  5
762
  8
Layer_0
  10
1277.7389
  20
1028.9926
  42
0.18002833
  0
VERTEX
  5
763
  8
Layer_0
  10
1278.2203
  20
1028.6241
  0
VERTEX
  5
764
  8
Layer_0
  10
1282.2462
  20
1027.3641
  0
VERTEX
  5
765
  8
Layer_0
  10
1285.1461
  20
1027.3641
  0
VERTEX
  5
766
  8
Layer_0
  10
1285.5262
  20
1030.2142
  0
VERTEX
  5
767
  8
Layer_0
  10
1285.5262
  20
1030.4142
  0
VERTEX
  5
768
  8
Layer_0
  10
1289.546
  20
1030.4142
  0
VERTEX
  5
769
  8
Layer_0
  10
1293.6461
  20
1031.3644
  0
VERTEX
  5
76a
  8
Layer_0
  10
1294.5961
  20
1032.8143
  0
VERTEX
  5
76b
  8
Layer_0
  10
1294.5961
  20
1036.6144
  0
VERTEX
  5
76c
  8
Layer_0
  10
1293.6461
  20
1038.0643
  0
VERTEX
  5
76d
  8
Layer_0
  10
1290.6461
  20
1038.0643
  0
VERTEX
  5
76e
  8
Layer_0
  10
1285.5262
  20
1037.4364
  0
VERTEX
  5
76f
  8
Layer_0
  10
1285.5262
  20
1038.6825
  42
0.16438096
  0
VERTEX
  5
770
  8
Layer_0
  10
1285.0531
  20
1040.038
  0
VERTEX
  5
771
  8
Layer_0
  10
1282.5463
  20
1043.3141
  0
VERTEX
  5
772
  8
Layer_0
  10
1279.7462
  20
1043.3141
  0
VERTEX
  5
773
  8
Layer_0
  10
1277.7462
  20
1040.4642
  0
VERTEX
  5
774
  8
Layer_0
  10
1277.5778
  20
1040.1044
  0
VERTEX
  5
775
  8
Layer_0
  10
1276.3961
  20
1035.2142
  42
0.084464416
  0
SEQEND
  0
POLYLINE
  5
777
  8
Layer_0
  62
7
  70
1
  66
1
  10
0
  20
0
  30
0
  0
VERTEX
  5
777
  8
Layer_0
  10
1297.9661
  20
1125.1242
  0
VERTEX
  5
778
  8
Layer_0
  10
1298.1072
  20
1125.1384
  0
VERTEX
  5
779
  8
Layer_0
  10
1298.2385
  20
1125.1792
  0
VERTEX
  5
77a
  8
Layer_0
  10
1298.3574
  20
1125.2438
  0
VERTEX
  5
77b
  8
Layer_0
  10
1298.4611
  20
1125.3292
  0
VERTEX
  5
77c
  8
Layer_0
  10
1298.5465
  20
1125.4329
  42
0.13621949
  0
VERTEX
  5
77d
  8
Layer_0
  10
1298.6661
  20
1125.8242
  0
VERTEX
  5
77e
  8
Layer_0
  10
1298.6661
  20
1135.9843
  42
0.41287238
  0
VERTEX
  5
77f
  8
Layer_0
  10
1297.9661
  20
1136.6843
  42
0.052801237
  0
VERTEX
  5
780
  8
Layer_0
  10
1297.6936
  20
1136.6293
  42
0.095760023
  0
VERTEX
  5
781
  8
Layer_0
  10
1296.1156
  20
1135.1056
  0
VERTEX
  5
782
  8
Layer_0
  10
1296.0408
  20
1134.9862
  0
VERTEX
  5
783
  8
Layer_0
  10
1296.0103
  20
1134.8554
  0
VERTEX
  5
784
  8
Layer_0
  10
1295.996
  20
1134.7142
  0
VERTEX
  5
785
  8
Layer_0
  10
1295.996
  20
1127.0942
  42
0.051376998
  0
VERTEX
  5
786
  8
Layer_0
  10
1296.051
  20
1126.8218
  42
0.041748013
  0
VERTEX
  5
787
  8
Layer_0
  10
1296.201
  20
1126.5992
  42
0.047887796
  0
VERTEX
  5
788
  8
Layer_0
  10
1297.5747
  20
1125.2438
  0
VERTEX
  5
789
  8
Layer_0
  10
1297.6936
  20
1125.1792
  0
VERTEX
  5
78a
  8
Layer_0
  10
1297.825
  20
1125.1384
  0
SEQEND
  0
ENDSEC
  0
EOF
