  0
SECTION
  2
HEADER
  9
$ACADVER
  1
AC1009
  0
ENDSEC
  0
SECTION
  2
TABLES
  0
TABLE
  2
LAYER
  70
1
  0
LAYER
  2
Layer_0
  70
0
  62
7
  6
CONTINUOUS
  0
ENDTAB
  0
ENDSEC
  0
SECTION
  2
ENTITIES
  0
POLYLINE
  5
90
  8
Layer_0
  62
7
  70
1
  66
1
  10
0
  20
0
  30
0
  0
VERTEX
  5
90
  8
Layer_0
  10
939.18985
  20
1021.2859
  0
VERTEX
  5
91
  8
Layer_0
  10
939.18985
  20
1020.4859
  42
0.41414163
  0
VERTEX
  5
92
  8
Layer_0
  10
940.08987
  20
1019.586
  42
0.41414163
  0
VERTEX
  5
93
  8
Layer_0
  10
940.9899
  20
1020.4859
  0
VERTEX
  5
94
  8
Layer_0
  10
940.9899
  20
1021.2859
  42
0.41414163
  0
VERTEX
  5
95
  8
Layer_0
  10
940.08987
  20
1022.1858
  42
0.41414163
  0
SEQEND
  0
POLYLINE
  5
97
  8
Layer_0
  62
7
  70
1
  66
1
  10
0
  20
0
  30
0
  0
VERTEX
  5
97
  8
Layer_0
  10
931.77988
  20
1086.9358
  0
VERTEX
  5
98
  8
Layer_0
  10
931.77988
  20
1083.4358
  0
VERTEX
  5
99
  8
Layer_0
  10
932.72989
  20
1081.8358
  0
VERTEX
  5
9a
  8
Layer_0
  10
935.72989
  20
1081.8358
  0
VERTEX
  5
9b
  8
Layer_0
  10
936.6799
  20
1083.2858
  0
VERTEX
  5
9c
  8
Layer_0
  10
936.6799
  20
1087.0858
  0
VERTEX
  5
9d
  8
Layer_0
  10
935.72989
  20
1088.5358
  0
VERTEX
  5
9e
  8
Layer_0
  10
932.72989
  20
1088.5358
  0
SEQEND
  0
POLYLINE
  5
a0
  8
Layer_0
  62
7
  70
1
  66
1
  10
0
  20
0
  30
0
  0
VERTEX
  5
a0
  8
Layer_0
  10
915.18985
  20
1064.3858
  0
VERTEX
  5
a1
  8
Layer_0
  10
915.18985
  20
1067.8858
  0
VERTEX
  5
a2
  8
Layer_0
  10
916.13986
  20
1069.4858
  0
VERTEX
  5
a3
  8
Layer_0
  10
919.13986
  20
1069.4858
  0
VERTEX
  5
a4
  8
Layer_0
  10
920.08987
  20
1068.0358
  0
VERTEX
  5
a5
  8
Layer_0
  10
920.08987
  20
1064.2358
  0
VERTEX
  5
a6
  8
Layer_0
  10
919.13986
  20
1062.7858
  0
VERTEX
  5
a7
  8
Layer_0
  10
916.13986
  20
1062.7858
  0
SEQEND
  0
POLYLINE
  5
a9
  8
Layer_0
  62
7
  70
1
  66
1
  10
0
  20
0
  30
0
  0
VERTEX
  5
a9
  8
Layer_0
  10
905.08987
  20
1121.5358
  0
VERTEX
  5
aa
  8
Layer_0
  10
905.08987
  20
1125.0358
  0
VERTEX
  5
ab
  8
Layer_0
  10
906.03989
  20
1126.6357
  0
VERTEX
  5
ac
  8
Layer_0
  10
909.03989
  20
1126.6357
  0
VERTEX
  5
ad
  8
Layer_0
  10
909.9899
  20
1125.1857
  0
VERTEX
  5
ae
  8
Layer_0
  10
909.9899
  20
1121.3857
  0
VERTEX
  5
af
  8
Layer_0
  10
909.03989
  20
1119.9357
  0
VERTEX
  5
b0
  8
Layer_0
  10
906.03989
  20
1119.9357
  0
SEQEND
  0
POLYLINE
  5
b2
  8
Layer_0
  62
7
  70
1
  66
1
  10
0
  20
0
  30
0
  0
VERTEX
  5
b2
  8
Layer_0
  10
915.08987
  20
1102.4857
  0
VERTEX
  5
b3
  8
Layer_0
  10
915.08987
  20
1105.9857
  0
VERTEX
  5
b4
  8
Layer_0
  10
916.03989
  20
1107.5857
  0
VERTEX
  5
b5
  8
Layer_0
  10
919.03989
  20
1107.5857
  0
VERTEX
  5
b6
  8
Layer_0
  10
919.9899
  20
1106.1357
  0
VERTEX
  5
b7
  8
Layer_0
  10
919.9899
  20
1102.3358
  0
VERTEX
  5
b8
  8
Layer_0
  10
919.03989
  20
1100.8857
  0
VERTEX
  5
b9
  8
Layer_0
  10
916.03989
  20
1100.8857
  0
SEQEND
  0
POLYLINE
  5
bb
  8
Layer_0
  62
7
  70
1
  66
1
  10
0
  20
0
  30
0
  0
VERTEX
  5
bb
  8
Layer_0
  10
950.77988
  20
1086.9358
  0
VERTEX
  5
bc
  8
Layer_0
  10
950.77988
  20
1083.4358
  0
VERTEX
  5
bd
  8
Layer_0
  10
951.72989
  20
1081.8358
  0
VERTEX
  5
be
  8
Layer_0
  10
954.72989
  20
1081.8358
  0
VERTEX
  5
bf
  8
Layer_0
  10
955.6799
  20
1083.2858
  0
VERTEX
  5
c0
  8
Layer_0
  10
955.6799
  20
1087.0858
  0
VERTEX
  5
c1
  8
Layer_0
  10
954.72989
  20
1088.5358
  0
VERTEX
  5
c2
  8
Layer_0
  10
951.72989
  20
1088.5358
  0
SEQEND
  0
POLYLINE
  5
c4
  8
Layer_0
  62
7
  70
1
  66
1
  10
0
  20
0
  30
0
  0
VERTEX
  5
c4
  8
Layer_0
  10
953.28989
  20
1102.4857
  0
VERTEX
  5
c5
  8
Layer_0
  10
953.28989
  20
1105.9857
  0
VERTEX
  5
c6
  8
Layer_0
  10
954.2399
  20
1107.5857
  0
VERTEX
  5
c7
  8
Layer_0
  10
957.2399
  20
1107.5857
  0
VERTEX
  5
c8
  8
Layer_0
  10
958.18985
  20
1106.1357
  0
VERTEX
  5
c9
  8
Layer_0
  10
958.18985
  20
1102.3358
  0
VERTEX
  5
ca
  8
Layer_0
  10
957.2399
  20
1100.8857
  0
VERTEX
  5
cb
  8
Layer_0
  10
954.2399
  20
1100.8857
  0
SEQEND
  0
POLYLINE
  5
cd
  8
Layer_0
  62
7
  70
1
  66
1
  10
0
  20
0
  30
0
  0
VERTEX
  5
cd
  8
Layer_0
  10
893.58987
  20
1086.9358
  0
VERTEX
  5
ce
  8
Layer_0
  10
893.58987
  20
1083.4358
  0
VERTEX
  5
cf
  8
Layer_0
  10
894.53989
  20
1081.8358
  0
VERTEX
  5
d0
  8
Layer_0
  10
897.53989
  20
1081.8358
  0
VERTEX
  5
d1
  8
Layer_0
  10
898.4899
  20
1083.2858
  0
VERTEX
  5
d2
  8
Layer_0
  10
898.4899
  20
1087.0858
  0
VERTEX
  5
d3
  8
Layer_0
  10
897.53989
  20
1088.5358
  0
VERTEX
  5
d4
  8
Layer_0
  10
894.53989
  20
1088.5358
  0
SEQEND
  0
POLYLINE
  5
d6
  8
Layer_0
  62
7
  70
1
  66
1
  10
0
  20
0
  30
0
  0
VERTEX
  5
d6
  8
Layer_0
  10
972.28989
  20
1064.3858
  0
VERTEX
  5
d7
  8
Layer_0
  10
972.28989
  20
1067.8858
  0
VERTEX
  5
d8
  8
Layer_0
  10
973.2399
  20
1069.4858
  0
VERTEX
  5
d9
  8
Layer_0
  10
976.2399
  20
1069.4858
  0
VERTEX
  5
da
  8
Layer_0
  10
977.18985
  20
1068.0358
  0
VERTEX
  5
db
  8
Layer_0
  10
977.18985
  20
1064.2358
  0
VERTEX
  5
dc
  8
Layer_0
  10
976.2399
  20
1062.7858
  0
VERTEX
  5
dd
  8
Layer_0
  10
973.2399
  20
1062.7858
  0
SEQEND
  0
POLYLINE
  5
df
  8
Layer_0
  62
7
  70
1
  66
1
  10
0
  20
0
  30
0
  0
VERTEX
  5
df
  8
Layer_0
  10
943.18985
  20
1140.5857
  0
VERTEX
  5
e0
  8
Layer_0
  10
943.18985
  20
1144.0857
  0
VERTEX
  5
e1
  8
Layer_0
  10
944.13986
  20
1145.6857
  0
VERTEX
  5
e2
  8
Layer_0
  10
947.13986
  20
1145.6857
  0
VERTEX
  5
e3
  8
Layer_0
  10
948.08987
  20
1144.2357
  0
VERTEX
  5
e4
  8
Layer_0
  10
948.08987
  20
1140.4357
  0
VERTEX
  5
e5
  8
Layer_0
  10
947.13986
  20
1138.9857
  0
VERTEX
  5
e6
  8
Layer_0
  10
944.13986
  20
1138.9857
  0
SEQEND
  0
POLYLINE
  5
e8
  8
Layer_0
  62
7
  70
1
  66
1
  10
0
  20
0
  30
0
  0
VERTEX
  5
e8
  8
Layer_0
  10
955.68985
  20
1048.8358
  0
VERTEX
  5
e9
  8
Layer_0
  10
955.68985
  20
1045.3358
  0
VERTEX
  5
ea
  8
Layer_0
  10
956.63986
  20
1043.7358
  0
VERTEX
  5
eb
  8
Layer_0
  10
959.63986
  20
1043.7358
  0
VERTEX
  5
ec
  8
Layer_0
  10
960.58987
  20
1045.1858
  0
VERTEX
  5
ed
  8
Layer_0
  10
960.58987
  20
1048.9858
  0
VERTEX
  5
ee
  8
Layer_0
  10
959.63986
  20
1050.4358
  0
VERTEX
  5
ef
  8
Layer_0
  10
956.63986
  20
1050.4358
  0
SEQEND
  0
POLYLINE
  5
f1
  8
Layer_0
  62
7
  70
1
  66
1
  10
0
  20
0
  30
0
  0
VERTEX
  5
f1
  8
Layer_0
  10
953.28989
  20
1064.3858
  0
VERTEX
  5
f2
  8
Layer_0
  10
953.28989
  20
1067.8858
  0
VERTEX
  5
f3
  8
Layer_0
  10
954.2399
  20
1069.4858
  0
VERTEX
  5
f4
  8
Layer_0
  10
957.2399
  20
1069.4858
  0
VERTEX
  5
f5
  8
Layer_0
  10
958.18985
  20
1068.0358
  0
VERTEX
  5
f6
  8
Layer_0
  10
958.18985
  20
1064.2358
  0
VERTEX
  5
f7
  8
Layer_0
  10
957.2399
  20
1062.7858
  0
VERTEX
  5
f8
  8
Layer_0
  10
954.2399
  20
1062.7858
  0
SEQEND
  0
POLYLINE
  5
fa
  8
Layer_0
  62
7
  70
1
  66
1
  10
0
  20
0
  30
0
  0
VERTEX
  5
fa
  8
Layer_0
  10
939.18985
  20
1025.2859
  0
VERTEX
  5
fb
  8
Layer_0
  10
939.18985
  20
1024.4859
  42
0.41414163
  0
VERTEX
  5
fc
  8
Layer_0
  10
940.08987
  20
1023.586
  42
0.41414163
  0
VERTEX
  5
fd
  8
Layer_0
  10
940.9899
  20
1024.4859
  0
VERTEX
  5
fe
  8
Layer_0
  10
940.9899
  20
1025.2859
  42
0.41414163
  0
VERTEX
  5
ff
  8
Layer_0
  10
940.08987
  20
1026.1857
  42
0.41414163
  0
SEQEND
  0
POLYLINE
  5
101
  8
Layer_0
  62
7
  70
1
  66
1
  10
0
  20
0
  30
0
  0
VERTEX
  5
101
  8
Layer_0
  10
962.2399
  20
1121.5358
  0
VERTEX
  5
102
  8
Layer_0
  10
962.2399
  20
1125.0358
  0
VERTEX
  5
103
  8
Layer_0
  10
963.18985
  20
1126.6357
  0
VERTEX
  5
104
  8
Layer_0
  10
966.18985
  20
1126.6357
  0
VERTEX
  5
105
  8
Layer_0
  10
967.13986
  20
1125.1857
  0
VERTEX
  5
106
  8
Layer_0
  10
967.13986
  20
1121.3857
  0
VERTEX
  5
107
  8
Layer_0
  10
966.18985
  20
1119.9357
  0
VERTEX
  5
108
  8
Layer_0
  10
963.18985
  20
1119.9357
  0
SEQEND
  0
POLYLINE
  5
10a
  8
Layer_0
  62
7
  70
1
  66
1
  10
0
  20
0
  30
0
  0
VERTEX
  5
10a
  8
Layer_0
  10
896.08987
  20
1064.3859
  0
VERTEX
  5
10b
  8
Layer_0
  10
896.08987
  20
1067.8859
  0
VERTEX
  5
10c
  8
Layer_0
  10
897.03989
  20
1069.4858
  0
VERTEX
  5
10d
  8
Layer_0
  10
900.03989
  20
1069.4858
  0
VERTEX
  5
10e
  8
Layer_0
  10
900.9899
  20
1068.0358
  0
VERTEX
  5
10f
  8
Layer_0
  10
900.9899
  20
1064.2358
  0
VERTEX
  5
110
  8
Layer_0
  10
900.03989
  20
1062.7858
  0
VERTEX
  5
111
  8
Layer_0
  10
897.03989
  20
1062.7858
  0
SEQEND
  0
POLYLINE
  5
113
  8
Layer_0
  62
7
  70
1
  66
1
  10
0
  20
0
  30
0
  0
VERTEX
  5
113
  8
Layer_0
  10
943.18985
  20
1121.5358
  0
VERTEX
  5
114
  8
Layer_0
  10
943.18985
  20
1125.0358
  0
VERTEX
  5
115
  8
Layer_0
  10
944.13986
  20
1126.6357
  0
VERTEX
  5
116
  8
Layer_0
  10
947.13986
  20
1126.6357
  0
VERTEX
  5
117
  8
Layer_0
  10
948.08987
  20
1125.1857
  0
VERTEX
  5
118
  8
Layer_0
  10
948.08987
  20
1121.3857
  0
VERTEX
  5
119
  8
Layer_0
  10
947.13986
  20
1119.9357
  0
VERTEX
  5
11a
  8
Layer_0
  10
944.13986
  20
1119.9357
  0
SEQEND
  0
POLYLINE
  5
11c
  8
Layer_0
  62
7
  70
1
  66
1
  10
0
  20
0
  30
0
  0
VERTEX
  5
11c
  8
Layer_0
  10
934.18985
  20
1064.3858
  0
VERTEX
  5
11d
  8
Layer_0
  10
934.18985
  20
1067.8858
  0
VERTEX
  5
11e
  8
Layer_0
  10
935.13986
  20
1069.4858
  0
VERTEX
  5
11f
  8
Layer_0
  10
938.13986
  20
1069.4858
  0
VERTEX
  5
120
  8
Layer_0
  10
939.08987
  20
1068.0358
  0
VERTEX
  5
121
  8
Layer_0
  10
939.08987
  20
1064.2358
  0
VERTEX
  5
122
  8
Layer_0
  10
938.13986
  20
1062.7858
  0
VERTEX
  5
123
  8
Layer_0
  10
935.13986
  20
1062.7858
  0
SEQEND
  0
POLYLINE
  5
125
  8
Layer_0
  62
7
  70
1
  66
1
  10
0
  20
0
  30
0
  0
VERTEX
  5
125
  8
Layer_0
  10
939.18985
  20
1018.2859
  0
VERTEX
  5
126
  8
Layer_0
  10
939.18985
  20
1017.4859
  42
0.41414163
  0
VERTEX
  5
127
  8
Layer_0
  10
940.08987
  20
1016.586
  42
0.41414163
  0
VERTEX
  5
128
  8
Layer_0
  10
940.9899
  20
1017.4859
  0
VERTEX
  5
129
  8
Layer_0
  10
940.9899
  20
1018.2859
  42
0.41414163
  0
VERTEX
  5
12a
  8
Layer_0
  10
940.08987
  20
1019.1858
  42
0.41414163
  0
SEQEND
  0
POLYLINE
  5
12c
  8
Layer_0
  62
7
  70
1
  66
1
  10
0
  20
0
  30
0
  0
VERTEX
  5
12c
  8
Layer_0
  10
895.01816
  20
1014.86
  0
VERTEX
  5
12d
  8
Layer_0
  10
970.93985
  20
1014.8612
  0
VERTEX
  5
12e
  8
Layer_0
  10
986.15866
  20
1009.9842
  42
0.20029484
  0
VERTEX
  5
12f
  8
Layer_0
  10
987.01346
  20
1010.0813
  0
VERTEX
  5
130
  8
Layer_0
  10
1002.7997
  20
1019.1745
  42
0.34483139
  0
VERTEX
  5
131
  8
Layer_0
  10
1003.3064
  20
1020.4321
  0
VERTEX
  5
132
  8
Layer_0
  10
990.53989
  20
1064.7399
  0
VERTEX
  5
133
  8
Layer_0
  10
990.53989
  20
1114.0857
  0
VERTEX
  5
134
  8
Layer_0
  10
979.90628
  20
1151.2621
  42
0.33360907
  0
VERTEX
  5
135
  8
Layer_0
  10
978.84988
  20
1152.0559
  0
VERTEX
  5
136
  8
Layer_0
  10
904.6218
  20
1152.0289
  42
0.34496901
  0
VERTEX
  5
137
  8
Layer_0
  10
903.5538
  20
1151.1926
  0
VERTEX
  5
138
  8
Layer_0
  10
891.53989
  20
1102.5358
  0
VERTEX
  5
139
  8
Layer_0
  10
891.53989
  20
1075.5858
  0
VERTEX
  5
13a
  8
Layer_0
  10
893.91867
  20
1015.9086
  42
0.40095088
  0
SEQEND
  0
POLYLINE
  5
13c
  8
Layer_0
  62
7
  70
1
  66
1
  10
0
  20
0
  30
0
  0
VERTEX
  5
13c
  8
Layer_0
  10
924.13986
  20
1140.5857
  0
VERTEX
  5
13d
  8
Layer_0
  10
924.13986
  20
1144.0857
  0
VERTEX
  5
13e
  8
Layer_0
  10
925.08987
  20
1145.6857
  0
VERTEX
  5
13f
  8
Layer_0
  10
928.08987
  20
1145.6857
  0
VERTEX
  5
140
  8
Layer_0
  10
929.03989
  20
1144.2357
  0
VERTEX
  5
141
  8
Layer_0
  10
929.03989
  20
1140.4357
  0
VERTEX
  5
142
  8
Layer_0
  10
928.08987
  20
1138.9857
  0
VERTEX
  5
143
  8
Layer_0
  10
925.08987
  20
1138.9857
  0
SEQEND
  0
POLYLINE
  5
145
  8
Layer_0
  62
7
  70
1
  66
1
  10
0
  20
0
  30
0
  0
VERTEX
  5
145
  8
Layer_0
  10
962.2399
  20
1140.5857
  0
VERTEX
  5
146
  8
Layer_0
  10
962.2399
  20
1144.0857
  0
VERTEX
  5
147
  8
Layer_0
  10
963.18985
  20
1145.6857
  0
VERTEX
  5
148
  8
Layer_0
  10
966.18985
  20
1145.6857
  0
VERTEX
  5
149
  8
Layer_0
  10
967.13986
  20
1144.2357
  0
VERTEX
  5
14a
  8
Layer_0
  10
967.13986
  20
1140.4357
  0
VERTEX
  5
14b
  8
Layer_0
  10
966.18985
  20
1138.9857
  0
VERTEX
  5
14c
  8
Layer_0
  10
963.18985
  20
1138.9857
  0
SEQEND
  0
POLYLINE
  5
14e
  8
Layer_0
  62
7
  70
1
  66
1
  10
0
  20
0
  30
0
  0
VERTEX
  5
14e
  8
Layer_0
  10
943.38986
  20
1026.7859
  0
VERTEX
  5
14f
  8
Layer_0
  10
943.38986
  20
1025.9859
  42
0.41417759
  0
VERTEX
  5
150
  8
Layer_0
  10
944.28989
  20
1025.086
  42
0.41421356
  0
VERTEX
  5
151
  8
Layer_0
  10
945.18985
  20
1025.9859
  0
VERTEX
  5
152
  8
Layer_0
  10
945.18985
  20
1026.7859
  42
0.41421356
  0
VERTEX
  5
153
  8
Layer_0
  10
944.28989
  20
1027.6857
  42
0.41417759
  0
SEQEND
  0
POLYLINE
  5
155
  8
Layer_0
  62
7
  70
1
  66
1
  10
0
  20
0
  30
0
  0
VERTEX
  5
155
  8
Layer_0
  10
987.48038
  20
1031.0558
  0
VERTEX
  5
156
  8
Layer_0
  10
984.44925
  20
1029.3058
  0
VERTEX
  5
157
  8
Layer_0
  10
983.53867
  20
1027.683
  0
VERTEX
  5
158
  8
Layer_0
  10
985.03867
  20
1025.085
  0
VERTEX
  5
159
  8
Layer_0
  10
986.76938
  20
1024.9873
  0
VERTEX
  5
15a
  8
Layer_0
  10
990.06027
  20
1026.8873
  0
VERTEX
  5
15b
  8
Layer_0
  10
990.84097
  20
1028.435
  0
VERTEX
  5
15c
  8
Layer_0
  10
989.34097
  20
1031.0331
  0
SEQEND
  0
POLYLINE
  5
15e
  8
Layer_0
  62
7
  70
1
  66
1
  10
0
  20
0
  30
0
  0
VERTEX
  5
15e
  8
Layer_0
  10
934.18985
  20
1102.4857
  0
VERTEX
  5
15f
  8
Layer_0
  10
934.18985
  20
1105.9857
  0
VERTEX
  5
160
  8
Layer_0
  10
935.13986
  20
1107.5857
  0
VERTEX
  5
161
  8
Layer_0
  10
938.13986
  20
1107.5857
  0
VERTEX
  5
162
  8
Layer_0
  10
939.08987
  20
1106.1357
  0
VERTEX
  5
163
  8
Layer_0
  10
939.08987
  20
1102.3358
  0
VERTEX
  5
164
  8
Layer_0
  10
938.13986
  20
1100.8857
  0
VERTEX
  5
165
  8
Layer_0
  10
935.13986
  20
1100.8857
  0
SEQEND
  0
POLYLINE
  5
167
  8
Layer_0
  62
7
  70
1
  66
1
  10
0
  20
0
  30
0
  0
VERTEX
  5
167
  8
Layer_0
  10
936.68985
  20
1048.8358
  0
VERTEX
  5
168
  8
Layer_0
  10
936.68985
  20
1045.3358
  0
VERTEX
  5
169
  8
Layer_0
  10
937.63986
  20
1043.7358
  0
VERTEX
  5
16a
  8
Layer_0
  10
940.63986
  20
1043.7358
  0
VERTEX
  5
16b
  8
Layer_0
  10
941.58987
  20
1045.1858
  0
VERTEX
  5
16c
  8
Layer_0
  10
941.58987
  20
1048.9858
  0
VERTEX
  5
16d
  8
Layer_0
  10
940.63986
  20
1050.4358
  0
VERTEX
  5
16e
  8
Layer_0
  10
937.63986
  20
1050.4358
  0
SEQEND
  0
POLYLINE
  5
170
  8
Layer_0
  62
7
  70
1
  66
1
  10
0
  20
0
  30
0
  0
VERTEX
  5
170
  8
Layer_0
  10
972.38986
  20
1102.4857
  0
VERTEX
  5
171
  8
Layer_0
  10
972.38986
  20
1105.9857
  0
VERTEX
  5
172
  8
Layer_0
  10
973.33987
  20
1107.5857
  0
VERTEX
  5
173
  8
Layer_0
  10
976.33987
  20
1107.5857
  0
VERTEX
  5
174
  8
Layer_0
  10
977.28989
  20
1106.1357
  0
VERTEX
  5
175
  8
Layer_0
  10
977.28989
  20
1102.3358
  0
VERTEX
  5
176
  8
Layer_0
  10
976.33987
  20
1100.8857
  0
VERTEX
  5
177
  8
Layer_0
  10
973.33987
  20
1100.8857
  0
SEQEND
  0
POLYLINE
  5
179
  8
Layer_0
  62
7
  70
1
  66
1
  10
0
  20
0
  30
0
  0
VERTEX
  5
179
  8
Layer_0
  10
969.87991
  20
1086.9358
  0
VERTEX
  5
17a
  8
Layer_0
  10
969.87991
  20
1083.4358
  0
VERTEX
  5
17b
  8
Layer_0
  10
970.82986
  20
1081.8358
  0
VERTEX
  5
17c
  8
Layer_0
  10
973.82986
  20
1081.8358
  0
VERTEX
  5
17d
  8
Layer_0
  10
974.77988
  20
1083.2858
  0
VERTEX
  5
17e
  8
Layer_0
  10
974.77988
  20
1087.0858
  0
VERTEX
  5
17f
  8
Layer_0
  10
973.82986
  20
1088.5358
  0
VERTEX
  5
180
  8
Layer_0
  10
970.82986
  20
1088.5358
  0
SEQEND
  0
POLYLINE
  5
182
  8
Layer_0
  62
7
  70
1
  66
1
  10
0
  20
0
  30
0
  0
VERTEX
  5
182
  8
Layer_0
  10
905.08987
  20
1140.5857
  0
VERTEX
  5
183
  8
Layer_0
  10
905.08987
  20
1144.0857
  0
VERTEX
  5
184
  8
Layer_0
  10
906.03989
  20
1145.6857
  0
VERTEX
  5
185
  8
Layer_0
  10
909.03989
  20
1145.6857
  0
VERTEX
  5
186
  8
Layer_0
  10
909.9899
  20
1144.2357
  0
VERTEX
  5
187
  8
Layer_0
  10
909.9899
  20
1140.4357
  0
VERTEX
  5
188
  8
Layer_0
  10
909.03989
  20
1138.9857
  0
VERTEX
  5
189
  8
Layer_0
  10
906.03989
  20
1138.9857
  0
SEQEND
  0
POLYLINE
  5
18b
  8
Layer_0
  62
7
  70
1
  66
1
  10
0
  20
0
  30
0
  0
VERTEX
  5
18b
  8
Layer_0
  10
898.58987
  20
1048.8358
  0
VERTEX
  5
18c
  8
Layer_0
  10
898.58987
  20
1045.3358
  0
VERTEX
  5
18d
  8
Layer_0
  10
899.53989
  20
1043.7358
  0
VERTEX
  5
18e
  8
Layer_0
  10
902.53989
  20
1043.7358
  0
VERTEX
  5
18f
  8
Layer_0
  10
903.4899
  20
1045.1858
  0
VERTEX
  5
190
  8
Layer_0
  10
903.4899
  20
1048.9858
  0
VERTEX
  5
191
  8
Layer_0
  10
902.53989
  20
1050.4358
  0
VERTEX
  5
192
  8
Layer_0
  10
899.53989
  20
1050.4358
  0
SEQEND
  0
POLYLINE
  5
194
  8
Layer_0
  62
7
  70
1
  66
1
  10
0
  20
0
  30
0
  0
VERTEX
  5
194
  8
Layer_0
  10
896.08987
  20
1102.4858
  0
VERTEX
  5
195
  8
Layer_0
  10
896.08987
  20
1105.9858
  0
VERTEX
  5
196
  8
Layer_0
  10
897.03989
  20
1107.5858
  0
VERTEX
  5
197
  8
Layer_0
  10
900.03989
  20
1107.5857
  0
VERTEX
  5
198
  8
Layer_0
  10
900.9899
  20
1106.1357
  0
VERTEX
  5
199
  8
Layer_0
  10
900.9899
  20
1102.3358
  0
VERTEX
  5
19a
  8
Layer_0
  10
900.03989
  20
1100.8857
  0
VERTEX
  5
19b
  8
Layer_0
  10
897.03989
  20
1100.8857
  0
SEQEND
  0
CIRCLE
  5
19d
  8
Layer_0
  62
7
  10
922.56482
  20
1132.8108
  30
0
  40
2.0499973
  0
CIRCLE
  5
19d
  8
Layer_0
  62
7
  10
960.66492
  20
1132.8108
  30
0
  40
2.0499973
  0
CIRCLE
  5
19d
  8
Layer_0
  62
7
  10
975.53992
  20
1029.5859
  30
0
  40
2.0499973
  0
CIRCLE
  5
19d
  8
Layer_0
  62
7
  10
954.16492
  20
1056.6108
  30
0
  40
2.0499973
  0
CIRCLE
  5
19d
  8
Layer_0
  62
7
  10
913.56482
  20
1056.6108
  30
0
  40
2.0499973
  0
CIRCLE
  5
19d
  8
Layer_0
  62
7
  10
950.03992
  20
1029.4609
  30
0
  40
1.0499985
  0
CIRCLE
  5
19d
  8
Layer_0
  62
7
  10
950.03992
  20
1022.9609
  30
0
  40
1.0499985
  0
CIRCLE
  5
19d
  8
Layer_0
  62
7
  10
950.03992
  20
1034.3359
  30
0
  40
2.099997
  0
CIRCLE
  5
19d
  8
Layer_0
  62
7
  10
950.03992
  20
1018.0859
  30
0
  40
2.099997
  0
POLYLINE
  5
19d
  8
Layer_0
  62
7
  70
1
  66
1
  10
0
  20
0
  30
0
  0
VERTEX
  5
19d
  8
Layer_0
  10
963.21487
  20
1135.6857
  0
VERTEX
  5
19e
  8
Layer_0
  10
963.21487
  20
1133.8857
  0
VERTEX
  5
19f
  8
Layer_0
  10
968.41489
  20
1133.8857
  0
VERTEX
  5
1a0
  8
Layer_0
  10
968.41489
  20
1135.6857
  0
SEQEND
  0
POLYLINE
  5
1a2
  8
Layer_0
  62
7
  70
1
  66
1
  10
0
  20
0
  30
0
  0
VERTEX
  5
1a2
  8
Layer_0
  10
964.78989
  20
1115.9858
  0
VERTEX
  5
1a3
  8
Layer_0
  10
964.78989
  20
1114.1858
  0
VERTEX
  5
1a4
  8
Layer_0
  10
969.98987
  20
1114.1858
  0
VERTEX
  5
1a5
  8
Layer_0
  10
969.98987
  20
1115.9858
  0
SEQEND
  0
POLYLINE
  5
1a7
  8
Layer_0
  62
7
  70
1
  66
1
  10
0
  20
0
  30
0
  0
VERTEX
  5
1a7
  8
Layer_0
  10
956.08987
  20
1096.7358
  0
VERTEX
  5
1a8
  8
Layer_0
  10
956.08987
  20
1094.9358
  0
VERTEX
  5
1a9
  8
Layer_0
  10
961.28989
  20
1094.9358
  0
VERTEX
  5
1aa
  8
Layer_0
  10
961.28989
  20
1096.7358
  0
SEQEND
  0
POLYLINE
  5
1ac
  8
Layer_0
  62
7
  70
1
  66
1
  10
0
  20
0
  30
0
  0
VERTEX
  5
1ac
  8
Layer_0
  10
952.50488
  20
1077.4858
  0
VERTEX
  5
1ad
  8
Layer_0
  10
952.50488
  20
1075.6858
  0
VERTEX
  5
1ae
  8
Layer_0
  10
957.7049
  20
1075.6858
  0
VERTEX
  5
1af
  8
Layer_0
  10
957.7049
  20
1077.4858
  0
SEQEND
  0
POLYLINE
  5
1b1
  8
Layer_0
  62
7
  70
1
  66
1
  10
0
  20
0
  30
0
  0
VERTEX
  5
1b1
  8
Layer_0
  10
957.11487
  20
1058.4858
  0
VERTEX
  5
1b2
  8
Layer_0
  10
957.11487
  20
1056.6859
  0
VERTEX
  5
1b3
  8
Layer_0
  10
962.31488
  20
1056.6859
  0
VERTEX
  5
1b4
  8
Layer_0
  10
962.31488
  20
1058.4858
  0
SEQEND
  0
POLYLINE
  5
1b6
  8
Layer_0
  62
7
  70
1
  66
1
  10
0
  20
0
  30
0
  0
VERTEX
  5
1b6
  8
Layer_0
  10
944.31488
  20
1135.2357
  0
VERTEX
  5
1b7
  8
Layer_0
  10
944.31488
  20
1133.4357
  0
VERTEX
  5
1b8
  8
Layer_0
  10
949.51488
  20
1133.4357
  0
VERTEX
  5
1b9
  8
Layer_0
  10
949.51488
  20
1135.2357
  0
SEQEND
  0
POLYLINE
  5
1bb
  8
Layer_0
  62
7
  70
1
  66
1
  10
0
  20
0
  30
0
  0
VERTEX
  5
1bb
  8
Layer_0
  10
946.81488
  20
1115.9858
  0
VERTEX
  5
1bc
  8
Layer_0
  10
946.81488
  20
1114.1858
  0
VERTEX
  5
1bd
  8
Layer_0
  10
952.01488
  20
1114.1858
  0
VERTEX
  5
1be
  8
Layer_0
  10
952.01488
  20
1115.9858
  0
SEQEND
  0
POLYLINE
  5
1c0
  8
Layer_0
  62
7
  70
1
  66
1
  10
0
  20
0
  30
0
  0
VERTEX
  5
1c0
  8
Layer_0
  10
937.36487
  20
1097.2108
  0
VERTEX
  5
1c1
  8
Layer_0
  10
937.36487
  20
1095.4108
  0
VERTEX
  5
1c2
  8
Layer_0
  10
942.56488
  20
1095.4108
  0
VERTEX
  5
1c3
  8
Layer_0
  10
942.56488
  20
1097.2108
  0
SEQEND
  0
POLYLINE
  5
1c5
  8
Layer_0
  62
7
  70
1
  66
1
  10
0
  20
0
  30
0
  0
VERTEX
  5
1c5
  8
Layer_0
  10
935.50488
  20
1077.2358
  0
VERTEX
  5
1c6
  8
Layer_0
  10
935.50488
  20
1075.4358
  0
VERTEX
  5
1c7
  8
Layer_0
  10
940.70488
  20
1075.4358
  0
VERTEX
  5
1c8
  8
Layer_0
  10
940.70488
  20
1077.2358
  0
SEQEND
  0
POLYLINE
  5
1ca
  8
Layer_0
  62
7
  70
1
  66
1
  10
0
  20
0
  30
0
  0
VERTEX
  5
1ca
  8
Layer_0
  10
925.31488
  20
1135.2357
  0
VERTEX
  5
1cb
  8
Layer_0
  10
925.31488
  20
1133.4357
  0
VERTEX
  5
1cc
  8
Layer_0
  10
930.51489
  20
1133.4357
  0
VERTEX
  5
1cd
  8
Layer_0
  10
930.51489
  20
1135.2357
  0
SEQEND
  0
POLYLINE
  5
1cf
  8
Layer_0
  62
7
  70
1
  66
1
  10
0
  20
0
  30
0
  0
VERTEX
  5
1cf
  8
Layer_0
  10
924.81488
  20
1115.7358
  0
VERTEX
  5
1d0
  8
Layer_0
  10
924.81488
  20
1113.9358
  0
VERTEX
  5
1d1
  8
Layer_0
  10
930.01488
  20
1113.9358
  0
VERTEX
  5
1d2
  8
Layer_0
  10
930.01488
  20
1115.7358
  0
SEQEND
  0
POLYLINE
  5
1d4
  8
Layer_0
  62
7
  70
1
  66
1
  10
0
  20
0
  30
0
  0
VERTEX
  5
1d4
  8
Layer_0
  10
917.58987
  20
1096.9858
  0
VERTEX
  5
1d5
  8
Layer_0
  10
917.58987
  20
1095.1858
  0
VERTEX
  5
1d6
  8
Layer_0
  10
922.78989
  20
1095.1858
  0
VERTEX
  5
1d7
  8
Layer_0
  10
922.78989
  20
1096.9858
  0
SEQEND
  0
POLYLINE
  5
1d9
  8
Layer_0
  62
7
  70
1
  66
1
  10
0
  20
0
  30
0
  0
VERTEX
  5
1d9
  8
Layer_0
  10
915.00488
  20
1077.7358
  0
VERTEX
  5
1da
  8
Layer_0
  10
915.00488
  20
1075.9358
  0
VERTEX
  5
1db
  8
Layer_0
  10
920.20488
  20
1075.9358
  0
VERTEX
  5
1dc
  8
Layer_0
  10
920.20488
  20
1077.7358
  0
SEQEND
  0
POLYLINE
  5
1de
  8
Layer_0
  62
7
  70
1
  66
1
  10
0
  20
0
  30
0
  0
VERTEX
  5
1de
  8
Layer_0
  10
908.06488
  20
1135.2357
  0
VERTEX
  5
1df
  8
Layer_0
  10
908.06488
  20
1133.4357
  0
VERTEX
  5
1e0
  8
Layer_0
  10
913.26489
  20
1133.4357
  0
VERTEX
  5
1e1
  8
Layer_0
  10
913.26489
  20
1135.2357
  0
SEQEND
  0
POLYLINE
  5
1e3
  8
Layer_0
  62
7
  70
1
  66
1
  10
0
  20
0
  30
0
  0
VERTEX
  5
1e3
  8
Layer_0
  10
908.28989
  20
1115.4858
  0
VERTEX
  5
1e4
  8
Layer_0
  10
908.28989
  20
1113.6858
  0
VERTEX
  5
1e5
  8
Layer_0
  10
913.48987
  20
1113.6858
  0
VERTEX
  5
1e6
  8
Layer_0
  10
913.48987
  20
1115.4858
  0
SEQEND
  0
POLYLINE
  5
1e8
  8
Layer_0
  62
7
  70
1
  66
1
  10
0
  20
0
  30
0
  0
VERTEX
  5
1e8
  8
Layer_0
  10
899.36487
  20
1096.7358
  0
VERTEX
  5
1e9
  8
Layer_0
  10
899.36487
  20
1094.9358
  0
VERTEX
  5
1ea
  8
Layer_0
  10
904.56488
  20
1094.9358
  0
VERTEX
  5
1eb
  8
Layer_0
  10
904.56488
  20
1096.7358
  0
SEQEND
  0
POLYLINE
  5
1ed
  8
Layer_0
  62
7
  70
1
  66
1
  10
0
  20
0
  30
0
  0
VERTEX
  5
1ed
  8
Layer_0
  10
896.97989
  20
1077.9858
  0
VERTEX
  5
1ee
  8
Layer_0
  10
896.97989
  20
1076.1859
  0
VERTEX
  5
1ef
  8
Layer_0
  10
902.17987
  20
1076.1858
  0
VERTEX
  5
1f0
  8
Layer_0
  10
902.17987
  20
1077.9858
  0
SEQEND
  0
POLYLINE
  5
1f2
  8
Layer_0
  62
7
  70
1
  66
1
  10
0
  20
0
  30
0
  0
VERTEX
  5
1f2
  8
Layer_0
  10
954.33986
  20
1024.5109
  0
VERTEX
  5
1f3
  8
Layer_0
  10
954.33986
  20
1027.9109
  0
VERTEX
  5
1f4
  8
Layer_0
  10
956.53986
  20
1027.9109
  0
VERTEX
  5
1f5
  8
Layer_0
  10
956.53986
  20
1024.5109
  0
SEQEND
  0
POLYLINE
  5
1f7
  8
Layer_0
  62
7
  70
1
  66
1
  10
0
  20
0
  30
0
  0
VERTEX
  5
1f7
  8
Layer_0
  10
965.53986
  20
1024.5109
  0
VERTEX
  5
1f8
  8
Layer_0
  10
965.53986
  20
1027.9109
  0
VERTEX
  5
1f9
  8
Layer_0
  10
967.73987
  20
1027.9109
  0
VERTEX
  5
1fa
  8
Layer_0
  10
967.73987
  20
1024.5109
  0
SEQEND
  0
CIRCLE
  5
1fc
  8
Layer_0
  62
7
  10
958.53992
  20
1018.7109
  30
0
  40
1.0999986
  0
CIRCLE
  5
1fc
  8
Layer_0
  62
7
  10
961.03992
  20
1018.7109
  30
0
  40
1.0999986
  0
CIRCLE
  5
1fc
  8
Layer_0
  62
7
  10
963.53992
  20
1018.7109
  30
0
  40
1.0999986
  0
CIRCLE
  5
1fc
  8
Layer_0
  62
7
  10
958.53992
  20
1033.2109
  30
0
  40
1.0999986
  0
CIRCLE
  5
1fc
  8
Layer_0
  62
7
  10
963.53992
  20
1033.2109
  30
0
  40
1.0999986
  0
POLYLINE
  5
1fc
  8
Layer_0
  62
7
  70
1
  66
1
  10
0
  20
0
  30
0
  0
VERTEX
  5
1fc
  8
Layer_0
  10
975.53754
  20
1048.8832
  0
VERTEX
  5
1fd
  8
Layer_0
  10
980.73752
  20
1048.8832
  42
0.0029117843
  0
VERTEX
  5
1fe
  8
Layer_0
  10
980.76752
  20
1055.8632
  0
VERTEX
  5
1ff
  8
Layer_0
  10
975.5675
  20
1055.8632
  42
0.0058031288
  0
SEQEND
  0
POLYLINE
  5
201
  8
Layer_0
  62
7
  70
1
  66
1
  10
0
  20
0
  30
0
  0
VERTEX
  5
201
  8
Layer_0
  10
974.75983
  20
1108.1359
  0
VERTEX
  5
202
  8
Layer_0
  10
974.75983
  20
1115.1359
  0
VERTEX
  5
203
  8
Layer_0
  10
978.95984
  20
1115.1359
  0
VERTEX
  5
204
  8
Layer_0
  10
978.95984
  20
1108.1359
  0
SEQEND
  0
POLYLINE
  5
206
  8
Layer_0
  62
7
  70
1
  66
1
  10
0
  20
0
  30
0
  0
VERTEX
  5
206
  8
Layer_0
  10
940.9398
  20
1028.8358
  0
VERTEX
  5
207
  8
Layer_0
  10
940.93982
  20
1035.8358
  0
VERTEX
  5
208
  8
Layer_0
  10
945.13982
  20
1035.8358
  0
VERTEX
  5
209
  8
Layer_0
  10
945.1398
  20
1028.8358
  0
SEQEND
  0
POLYLINE
  5
20b
  8
Layer_0
  62
7
  70
1
  66
1
  10
0
  20
0
  30
0
  0
VERTEX
  5
20b
  8
Layer_0
  10
961.88986
  20
1035.1459
  0
VERTEX
  5
20c
  8
Layer_0
  10
961.88986
  20
1039.4858
  0
VERTEX
  5
20d
  8
Layer_0
  10
956.68985
  20
1039.4858
  0
VERTEX
  5
20e
  8
Layer_0
  10
956.68985
  20
1035.1459
  0
VERTEX
  5
20f
  8
Layer_0
  10
961.88986
  20
1035.1459
  0
SEQEND
  0
POLYLINE
  5
211
  8
Layer_0
  62
7
  70
1
  66
1
  10
0
  20
0
  30
0
  0
VERTEX
  5
211
  8
Layer_0
  10
942.91489
  20
1054.1858
  42
0.018209494
  0
VERTEX
  5
212
  8
Layer_0
  10
942.81485
  20
1058.7358
  0
VERTEX
  5
213
  8
Layer_0
  10
937.6149
  20
1058.7358
  42
0.018048347
  0
VERTEX
  5
214
  8
Layer_0
  10
937.71487
  20
1054.1858
  0
SEQEND
  0
POLYLINE
  5
216
  8
Layer_0
  62
7
  70
1
  66
1
  10
0
  20
0
  30
0
  0
VERTEX
  5
216
  8
Layer_0
  10
922.91489
  20
1052.4858
  42
0.004165563
  0
VERTEX
  5
217
  8
Layer_0
  10
922.93985
  20
1057.2858
  0
VERTEX
  5
218
  8
Layer_0
  10
917.7399
  20
1057.2858
  42
0.0041778966
  0
VERTEX
  5
219
  8
Layer_0
  10
917.71487
  20
1052.4858
  0
SEQEND
  0
POLYLINE
  5
21b
  8
Layer_0
  62
7
  70
1
  66
1
  10
0
  20
0
  30
0
  0
VERTEX
  5
21b
  8
Layer_0
  10
904.91489
  20
1054.4358
  42
0.0012388386
  0
VERTEX
  5
21c
  8
Layer_0
  10
904.92038
  20
1058.4858
  0
VERTEX
  5
21d
  8
Layer_0
  10
899.72037
  20
1058.4858
  42
0.001202462
  0
VERTEX
  5
21e
  8
Layer_0
  10
899.71487
  20
1054.4358
  0
SEQEND
  0
POLYLINE
  5
220
  8
Layer_0
  62
7
  70
1
  66
1
  10
0
  20
0
  30
0
  0
VERTEX
  5
220
  8
Layer_0
  10
907.68988
  20
1058.7859
  0
VERTEX
  5
221
  8
Layer_0
  10
903.66418
  20
1060.0458
  42
-0.23685476
  0
VERTEX
  5
222
  8
Layer_0
  10
903.02148
  20
1060.7457
  0
VERTEX
  5
223
  8
Layer_0
  10
901.83997
  20
1065.6359
  42
-0.11224168
  0
VERTEX
  5
224
  8
Layer_0
  10
901.83997
  20
1066.6359
  0
VERTEX
  5
225
  8
Layer_0
  10
903.02155
  20
1071.5261
  0
VERTEX
  5
226
  8
Layer_0
  10
903.18994
  20
1071.8859
  0
VERTEX
  5
227
  8
Layer_0
  10
905.18994
  20
1074.7358
  0
VERTEX
  5
228
  8
Layer_0
  10
907.98999
  20
1074.7358
  0
VERTEX
  5
229
  8
Layer_0
  10
910.49695
  20
1071.4597
  42
-0.16745907
  0
VERTEX
  5
22a
  8
Layer_0
  10
910.96997
  20
1070.1044
  0
VERTEX
  5
22b
  8
Layer_0
  10
910.96991
  20
1061.6359
  0
VERTEX
  5
22c
  8
Layer_0
  10
910.5899
  20
1058.7859
  0
SEQEND
  0
POLYLINE
  5
22e
  8
Layer_0
  62
7
  70
1
  66
1
  10
0
  20
0
  30
0
  0
VERTEX
  5
22e
  8
Layer_0
  10
907.68994
  20
1096.8859
  0
VERTEX
  5
22f
  8
Layer_0
  10
903.66425
  20
1098.1459
  42
-0.23690692
  0
VERTEX
  5
230
  8
Layer_0
  10
903.02155
  20
1098.8456
  0
VERTEX
  5
231
  8
Layer_0
  10
901.83997
  20
1103.7358
  42
-0.11224422
  0
VERTEX
  5
232
  8
Layer_0
  10
901.83997
  20
1104.7358
  0
VERTEX
  5
233
  8
Layer_0
  10
903.02155
  20
1109.626
  0
VERTEX
  5
234
  8
Layer_0
  10
903.18994
  20
1109.9858
  0
VERTEX
  5
235
  8
Layer_0
  10
905.18994
  20
1112.8359
  0
VERTEX
  5
236
  8
Layer_0
  10
907.98999
  20
1112.8359
  0
VERTEX
  5
237
  8
Layer_0
  10
910.49695
  20
1109.5596
  42
-0.16745904
  0
VERTEX
  5
238
  8
Layer_0
  10
910.96997
  20
1108.2043
  0
VERTEX
  5
239
  8
Layer_0
  10
910.96997
  20
1099.7358
  0
VERTEX
  5
23a
  8
Layer_0
  10
910.58997
  20
1096.8859
  0
SEQEND
  0
POLYLINE
  5
23c
  8
Layer_0
  62
7
  70
1
  66
1
  10
0
  20
0
  30
0
  0
VERTEX
  5
23c
  8
Layer_0
  10
916.68994
  20
1134.9858
  0
VERTEX
  5
23d
  8
Layer_0
  10
912.66425
  20
1136.2458
  42
-0.23685146
  0
VERTEX
  5
23e
  8
Layer_0
  10
912.02155
  20
1136.9457
  0
VERTEX
  5
23f
  8
Layer_0
  10
910.83997
  20
1141.8359
  42
-0.11224422
  0
VERTEX
  5
240
  8
Layer_0
  10
910.83997
  20
1142.8359
  0
VERTEX
  5
241
  8
Layer_0
  10
912.02155
  20
1147.7261
  0
VERTEX
  5
242
  8
Layer_0
  10
912.18994
  20
1148.0859
  0
VERTEX
  5
243
  8
Layer_0
  10
914.18994
  20
1150.9359
  0
VERTEX
  5
244
  8
Layer_0
  10
916.98999
  20
1150.9359
  0
VERTEX
  5
245
  8
Layer_0
  10
919.49695
  20
1147.6597
  42
-0.16745904
  0
VERTEX
  5
246
  8
Layer_0
  10
919.96997
  20
1146.3043
  0
VERTEX
  5
247
  8
Layer_0
  10
919.96997
  20
1137.8358
  0
VERTEX
  5
248
  8
Layer_0
  10
919.58997
  20
1134.9858
  0
SEQEND
  0
POLYLINE
  5
24a
  8
Layer_0
  62
7
  70
1
  66
1
  10
0
  20
0
  30
0
  0
VERTEX
  5
24a
  8
Layer_0
  10
935.73999
  20
1134.9858
  0
VERTEX
  5
24b
  8
Layer_0
  10
931.71429
  20
1136.2458
  42
-0.23691488
  0
VERTEX
  5
24c
  8
Layer_0
  10
931.07159
  20
1136.9456
  0
VERTEX
  5
24d
  8
Layer_0
  10
929.88995
  20
1141.8358
  42
-0.11215494
  0
VERTEX
  5
24e
  8
Layer_0
  10
929.88995
  20
1142.8358
  0
VERTEX
  5
24f
  8
Layer_0
  10
931.07159
  20
1147.7261
  0
VERTEX
  5
250
  8
Layer_0
  10
931.23999
  20
1148.0858
  0
VERTEX
  5
251
  8
Layer_0
  10
933.23999
  20
1150.9359
  0
VERTEX
  5
252
  8
Layer_0
  10
936.03998
  20
1150.9359
  0
VERTEX
  5
253
  8
Layer_0
  10
938.547
  20
1147.6597
  42
-0.16749093
  0
VERTEX
  5
254
  8
Layer_0
  10
939.01996
  20
1146.3043
  0
VERTEX
  5
255
  8
Layer_0
  10
939.01996
  20
1137.8358
  0
VERTEX
  5
256
  8
Layer_0
  10
938.63995
  20
1134.9858
  0
SEQEND
  0
POLYLINE
  5
258
  8
Layer_0
  62
7
  70
1
  66
1
  10
0
  20
0
  30
0
  0
VERTEX
  5
258
  8
Layer_0
  10
935.73999
  20
1115.9359
  0
VERTEX
  5
259
  8
Layer_0
  10
931.71429
  20
1117.1958
  42
-0.23693275
  0
VERTEX
  5
25a
  8
Layer_0
  10
931.07159
  20
1117.8956
  0
VERTEX
  5
25b
  8
Layer_0
  10
929.88995
  20
1122.7858
  42
-0.11215494
  0
VERTEX
  5
25c
  8
Layer_0
  10
929.88995
  20
1123.7858
  0
VERTEX
  5
25d
  8
Layer_0
  10
931.07159
  20
1128.676
  0
VERTEX
  5
25e
  8
Layer_0
  10
931.23999
  20
1129.0358
  0
VERTEX
  5
25f
  8
Layer_0
  10
933.23999
  20
1131.8859
  0
VERTEX
  5
260
  8
Layer_0
  10
936.03998
  20
1131.8859
  0
VERTEX
  5
261
  8
Layer_0
  10
938.547
  20
1128.6096
  42
-0.16749093
  0
VERTEX
  5
262
  8
Layer_0
  10
939.01996
  20
1127.2543
  0
VERTEX
  5
263
  8
Layer_0
  10
939.01996
  20
1118.7858
  0
VERTEX
  5
264
  8
Layer_0
  10
938.63995
  20
1115.9359
  0
SEQEND
  0
POLYLINE
  5
266
  8
Layer_0
  62
7
  70
1
  66
1
  10
0
  20
0
  30
0
  0
VERTEX
  5
266
  8
Layer_0
  10
954.78998
  20
1115.9359
  0
VERTEX
  5
267
  8
Layer_0
  10
950.76428
  20
1117.1958
  42
-0.23693275
  0
VERTEX
  5
268
  8
Layer_0
  10
950.12158
  20
1117.8956
  0
VERTEX
  5
269
  8
Layer_0
  10
948.93994
  20
1122.7858
  42
-0.11215494
  0
VERTEX
  5
26a
  8
Layer_0
  10
948.93994
  20
1123.7858
  0
VERTEX
  5
26b
  8
Layer_0
  10
950.12158
  20
1128.676
  0
VERTEX
  5
26c
  8
Layer_0
  10
950.28998
  20
1129.0358
  0
VERTEX
  5
26d
  8
Layer_0
  10
952.28998
  20
1131.8859
  0
VERTEX
  5
26e
  8
Layer_0
  10
955.08997
  20
1131.8859
  0
VERTEX
  5
26f
  8
Layer_0
  10
957.59698
  20
1128.6096
  42
-0.1674959
  0
VERTEX
  5
270
  8
Layer_0
  10
958.06995
  20
1127.2543
  0
VERTEX
  5
271
  8
Layer_0
  10
958.06995
  20
1118.7858
  0
VERTEX
  5
272
  8
Layer_0
  10
957.68994
  20
1115.9359
  0
SEQEND
  0
POLYLINE
  5
274
  8
Layer_0
  62
7
  70
1
  66
1
  10
0
  20
0
  30
0
  0
VERTEX
  5
274
  8
Layer_0
  10
954.78998
  20
1134.9858
  0
VERTEX
  5
275
  8
Layer_0
  10
950.76428
  20
1136.2458
  42
-0.23691488
  0
VERTEX
  5
276
  8
Layer_0
  10
950.12158
  20
1136.9456
  0
VERTEX
  5
277
  8
Layer_0
  10
948.93994
  20
1141.8358
  42
-0.11215494
  0
VERTEX
  5
278
  8
Layer_0
  10
948.93994
  20
1142.8358
  0
VERTEX
  5
279
  8
Layer_0
  10
950.12158
  20
1147.7261
  0
VERTEX
  5
27a
  8
Layer_0
  10
950.28998
  20
1148.0858
  0
VERTEX
  5
27b
  8
Layer_0
  10
952.28998
  20
1150.9359
  0
VERTEX
  5
27c
  8
Layer_0
  10
955.08997
  20
1150.9359
  0
VERTEX
  5
27d
  8
Layer_0
  10
957.59698
  20
1147.6597
  42
-0.1674959
  0
VERTEX
  5
27e
  8
Layer_0
  10
958.06995
  20
1146.3043
  0
VERTEX
  5
27f
  8
Layer_0
  10
958.06995
  20
1137.8358
  0
VERTEX
  5
280
  8
Layer_0
  10
957.68994
  20
1134.9858
  0
SEQEND
  0
POLYLINE
  5
282
  8
Layer_0
  62
7
  70
1
  66
1
  10
0
  20
0
  30
0
  0
VERTEX
  5
282
  8
Layer_0
  10
973.83997
  20
1134.9858
  0
VERTEX
  5
283
  8
Layer_0
  10
969.81427
  20
1136.2458
  42
-0.23691488
  0
VERTEX
  5
284
  8
Layer_0
  10
969.17157
  20
1136.9456
  0
VERTEX
  5
285
  8
Layer_0
  10
967.98999
  20
1141.8358
  42
-0.11224422
  0
VERTEX
  5
286
  8
Layer_0
  10
967.98999
  20
1142.8358
  0
VERTEX
  5
287
  8
Layer_0
  10
969.17157
  20
1147.7261
  0
VERTEX
  5
288
  8
Layer_0
  10
969.33997
  20
1148.0858
  0
VERTEX
  5
289
  8
Layer_0
  10
971.33997
  20
1150.9359
  0
VERTEX
  5
28a
  8
Layer_0
  10
974.13995
  20
1150.9359
  0
VERTEX
  5
28b
  8
Layer_0
  10
976.64697
  20
1147.6597
  42
-0.16745907
  0
VERTEX
  5
28c
  8
Layer_0
  10
977.12
  20
1146.3043
  0
VERTEX
  5
28d
  8
Layer_0
  10
977.12
  20
1137.8358
  0
VERTEX
  5
28e
  8
Layer_0
  10
976.73999
  20
1134.9858
  0
SEQEND
  0
POLYLINE
  5
290
  8
Layer_0
  62
7
  70
1
  66
1
  10
0
  20
0
  30
0
  0
VERTEX
  5
290
  8
Layer_0
  10
973.83997
  20
1115.9359
  0
VERTEX
  5
291
  8
Layer_0
  10
969.81427
  20
1117.1958
  42
-0.23693275
  0
VERTEX
  5
292
  8
Layer_0
  10
969.17157
  20
1117.8956
  0
VERTEX
  5
293
  8
Layer_0
  10
967.98999
  20
1122.7858
  42
-0.11224422
  0
VERTEX
  5
294
  8
Layer_0
  10
967.98999
  20
1123.7858
  0
VERTEX
  5
295
  8
Layer_0
  10
969.17157
  20
1128.676
  0
VERTEX
  5
296
  8
Layer_0
  10
969.33997
  20
1129.0358
  0
VERTEX
  5
297
  8
Layer_0
  10
971.33997
  20
1131.8859
  0
VERTEX
  5
298
  8
Layer_0
  10
974.13995
  20
1131.8859
  0
VERTEX
  5
299
  8
Layer_0
  10
976.64697
  20
1128.6096
  42
-0.16745907
  0
VERTEX
  5
29a
  8
Layer_0
  10
977.12
  20
1127.2543
  0
VERTEX
  5
29b
  8
Layer_0
  10
977.12
  20
1118.7858
  0
VERTEX
  5
29c
  8
Layer_0
  10
976.73999
  20
1115.9359
  0
SEQEND
  0
POLYLINE
  5
29e
  8
Layer_0
  62
7
  70
1
  66
1
  10
0
  20
0
  30
0
  0
VERTEX
  5
29e
  8
Layer_0
  10
990.3678
  20
1038.0309
  0
VERTEX
  5
29f
  8
Layer_0
  10
986.1532
  20
1038.2061
  42
-0.23695264
  0
VERTEX
  5
2a0
  8
Layer_0
  10
985.3512
  20
1038.7157
  0
VERTEX
  5
2a1
  8
Layer_0
  10
982.94421
  20
1043.1334
  42
-0.11225774
  0
VERTEX
  5
2a2
  8
Layer_0
  10
982.68542
  20
1044.0994
  0
VERTEX
  5
2a3
  8
Layer_0
  10
982.5611
  20
1049.1287
  0
VERTEX
  5
2a4
  8
Layer_0
  10
982.63062
  20
1049.52
  0
VERTEX
  5
2a5
  8
Layer_0
  10
983.82483
  20
1052.7904
  0
VERTEX
  5
2a6
  8
Layer_0
  10
986.52942
  20
1053.5151
  0
VERTEX
  5
2a7
  8
Layer_0
  10
989.79901
  20
1050.9995
  42
-0.16747995
  0
VERTEX
  5
2a8
  8
Layer_0
  10
990.60663
  20
1049.8127
  0
VERTEX
  5
2a9
  8
Layer_0
  10
992.7984
  20
1041.6328
  0
VERTEX
  5
2aa
  8
Layer_0
  10
993.16901
  20
1038.7815
  0
SEQEND
  0
POLYLINE
  5
2ac
  8
Layer_0
  62
7
  70
1
  66
1
  10
0
  20
0
  30
0
  0
VERTEX
  5
2ac
  8
Layer_0
  10
983.98999
  20
1096.8859
  0
VERTEX
  5
2ad
  8
Layer_0
  10
979.96423
  20
1098.1458
  42
-0.23688983
  0
VERTEX
  5
2ae
  8
Layer_0
  10
979.32153
  20
1098.8456
  0
VERTEX
  5
2af
  8
Layer_0
  10
978.13995
  20
1103.7358
  42
-0.11215494
  0
VERTEX
  5
2b0
  8
Layer_0
  10
978.13995
  20
1104.7358
  0
VERTEX
  5
2b1
  8
Layer_0
  10
979.32153
  20
1109.626
  0
VERTEX
  5
2b2
  8
Layer_0
  10
979.48999
  20
1109.9858
  0
VERTEX
  5
2b3
  8
Layer_0
  10
981.48999
  20
1112.8358
  0
VERTEX
  5
2b4
  8
Layer_0
  10
984.28998
  20
1112.8358
  0
VERTEX
  5
2b5
  8
Layer_0
  10
986.797
  20
1109.5596
  42
-0.1674959
  0
VERTEX
  5
2b6
  8
Layer_0
  10
987.26996
  20
1108.2043
  0
VERTEX
  5
2b7
  8
Layer_0
  10
987.26996
  20
1099.7358
  0
VERTEX
  5
2b8
  8
Layer_0
  10
986.88995
  20
1096.8859
  0
SEQEND
  0
POLYLINE
  5
2ba
  8
Layer_0
  62
7
  70
1
  66
1
  10
0
  20
0
  30
0
  0
VERTEX
  5
2ba
  8
Layer_0
  10
981.47998
  20
1077.8358
  0
VERTEX
  5
2bb
  8
Layer_0
  10
977.45428
  20
1079.0958
  42
-0.23692945
  0
VERTEX
  5
2bc
  8
Layer_0
  10
976.81158
  20
1079.7957
  0
VERTEX
  5
2bd
  8
Layer_0
  10
975.63
  20
1084.6859
  42
-0.11224422
  0
VERTEX
  5
2be
  8
Layer_0
  10
975.63
  20
1085.6859
  0
VERTEX
  5
2bf
  8
Layer_0
  10
976.81158
  20
1090.576
  0
VERTEX
  5
2c0
  8
Layer_0
  10
976.97998
  20
1090.9359
  0
VERTEX
  5
2c1
  8
Layer_0
  10
978.97998
  20
1093.7858
  0
VERTEX
  5
2c2
  8
Layer_0
  10
981.77997
  20
1093.7858
  0
VERTEX
  5
2c3
  8
Layer_0
  10
984.28699
  20
1090.5096
  42
-0.16749587
  0
VERTEX
  5
2c4
  8
Layer_0
  10
984.75995
  20
1089.1544
  0
VERTEX
  5
2c5
  8
Layer_0
  10
984.75995
  20
1080.6859
  0
VERTEX
  5
2c6
  8
Layer_0
  10
984.38
  20
1077.8358
  0
SEQEND
  0
POLYLINE
  5
2c8
  8
Layer_0
  62
7
  70
1
  66
1
  10
0
  20
0
  30
0
  0
VERTEX
  5
2c8
  8
Layer_0
  10
983.88989
  20
1058.7858
  0
VERTEX
  5
2c9
  8
Layer_0
  10
979.8642
  20
1060.0458
  42
-0.23691819
  0
VERTEX
  5
2ca
  8
Layer_0
  10
979.2215
  20
1060.7456
  0
VERTEX
  5
2cb
  8
Layer_0
  10
978.03998
  20
1065.6359
  42
-0.11215241
  0
VERTEX
  5
2cc
  8
Layer_0
  10
978.03998
  20
1066.6359
  0
VERTEX
  5
2cd
  8
Layer_0
  10
979.22156
  20
1071.5261
  0
VERTEX
  5
2ce
  8
Layer_0
  10
979.38995
  20
1071.8859
  0
VERTEX
  5
2cf
  8
Layer_0
  10
981.38995
  20
1074.7358
  0
VERTEX
  5
2d0
  8
Layer_0
  10
984.18994
  20
1074.7358
  0
VERTEX
  5
2d1
  8
Layer_0
  10
986.69696
  20
1071.4597
  42
-0.16745904
  0
VERTEX
  5
2d2
  8
Layer_0
  10
987.16998
  20
1070.1044
  0
VERTEX
  5
2d3
  8
Layer_0
  10
987.16992
  20
1061.6359
  0
VERTEX
  5
2d4
  8
Layer_0
  10
986.78992
  20
1058.7858
  0
SEQEND
  0
POLYLINE
  5
2d6
  8
Layer_0
  62
7
  70
1
  66
1
  10
0
  20
0
  30
0
  0
VERTEX
  5
2d6
  8
Layer_0
  10
994.09869
  20
1026.8729
  0
VERTEX
  5
2d7
  8
Layer_0
  10
994.49451
  20
1026.9069
  0
VERTEX
  5
2d8
  8
Layer_0
  10
997.96271
  20
1026.5999
  0
VERTEX
  5
2d9
  8
Layer_0
  10
999.36273
  20
1024.175
  0
VERTEX
  5
2da
  8
Layer_0
  10
997.77899
  20
1020.3657
  42
-0.16749273
  0
VERTEX
  5
2db
  8
Layer_0
  10
996.84161
  20
1019.2786
  0
VERTEX
  5
2dc
  8
Layer_0
  10
989.50769
  20
1015.0443
  0
VERTEX
  5
2dd
  8
Layer_0
  10
986.84961
  20
1013.9484
  0
VERTEX
  5
2de
  8
Layer_0
  10
985.3996
  20
1016.4598
  0
VERTEX
  5
2df
  8
Layer_0
  10
984.47791
  20
1020.5761
  42
-0.23695327
  0
VERTEX
  5
2e0
  8
Layer_0
  10
984.76263
  20
1021.4827
  0
VERTEX
  5
2e1
  8
Layer_0
  10
988.40692
  20
1024.9511
  42
-0.11220978
  0
VERTEX
  5
2e2
  8
Layer_0
  10
989.27289
  20
1025.4511
  0
SEQEND
  0
POLYLINE
  5
2e4
  8
Layer_0
  62
7
  70
1
  66
1
  10
0
  20
0
  30
0
  0
VERTEX
  5
2e4
  8
Layer_0
  10
967.28992
  20
1039.7358
  0
VERTEX
  5
2e5
  8
Layer_0
  10
963.26422
  20
1040.9958
  42
-0.23690692
  0
VERTEX
  5
2e6
  8
Layer_0
  10
962.62152
  20
1041.6956
  0
VERTEX
  5
2e7
  8
Layer_0
  10
961.43988
  20
1046.5858
  42
-0.11215241
  0
VERTEX
  5
2e8
  8
Layer_0
  10
961.43988
  20
1047.5858
  0
VERTEX
  5
2e9
  8
Layer_0
  10
962.62152
  20
1052.476
  0
VERTEX
  5
2ea
  8
Layer_0
  10
962.78992
  20
1052.8358
  0
VERTEX
  5
2eb
  8
Layer_0
  10
964.78992
  20
1055.6859
  0
VERTEX
  5
2ec
  8
Layer_0
  10
967.5899
  20
1055.6859
  0
VERTEX
  5
2ed
  8
Layer_0
  10
970.09692
  20
1052.4097
  42
-0.1674959
  0
VERTEX
  5
2ee
  8
Layer_0
  10
970.56989
  20
1051.0543
  0
VERTEX
  5
2ef
  8
Layer_0
  10
970.56989
  20
1042.5858
  0
VERTEX
  5
2f0
  8
Layer_0
  10
970.18988
  20
1039.7358
  0
SEQEND
  0
POLYLINE
  5
2f2
  8
Layer_0
  62
7
  70
1
  66
1
  10
0
  20
0
  30
0
  0
VERTEX
  5
2f2
  8
Layer_0
  10
964.88989
  20
1058.7858
  0
VERTEX
  5
2f3
  8
Layer_0
  10
960.8642
  20
1060.0458
  42
-0.23691819
  0
VERTEX
  5
2f4
  8
Layer_0
  10
960.2215
  20
1060.7456
  0
VERTEX
  5
2f5
  8
Layer_0
  10
959.03998
  20
1065.6359
  42
-0.11215241
  0
VERTEX
  5
2f6
  8
Layer_0
  10
959.03998
  20
1066.6359
  0
VERTEX
  5
2f7
  8
Layer_0
  10
960.22156
  20
1071.5261
  0
VERTEX
  5
2f8
  8
Layer_0
  10
960.38995
  20
1071.8859
  0
VERTEX
  5
2f9
  8
Layer_0
  10
962.38995
  20
1074.7358
  0
VERTEX
  5
2fa
  8
Layer_0
  10
965.18994
  20
1074.7358
  0
VERTEX
  5
2fb
  8
Layer_0
  10
967.69696
  20
1071.4597
  42
-0.16745904
  0
VERTEX
  5
2fc
  8
Layer_0
  10
968.16998
  20
1070.1044
  0
VERTEX
  5
2fd
  8
Layer_0
  10
968.16992
  20
1061.6359
  0
VERTEX
  5
2fe
  8
Layer_0
  10
967.78992
  20
1058.7858
  0
SEQEND
  0
POLYLINE
  5
300
  8
Layer_0
  62
7
  70
1
  66
1
  10
0
  20
0
  30
0
  0
VERTEX
  5
300
  8
Layer_0
  10
962.38
  20
1077.8358
  0
VERTEX
  5
301
  8
Layer_0
  10
958.35425
  20
1079.0958
  42
-0.23692945
  0
VERTEX
  5
302
  8
Layer_0
  10
957.71155
  20
1079.7957
  0
VERTEX
  5
303
  8
Layer_0
  10
956.52997
  20
1084.6859
  42
-0.11215494
  0
VERTEX
  5
304
  8
Layer_0
  10
956.52997
  20
1085.6859
  0
VERTEX
  5
305
  8
Layer_0
  10
957.71155
  20
1090.576
  0
VERTEX
  5
306
  8
Layer_0
  10
957.88
  20
1090.9359
  0
VERTEX
  5
307
  8
Layer_0
  10
959.88
  20
1093.7858
  0
VERTEX
  5
308
  8
Layer_0
  10
962.67999
  20
1093.7858
  0
VERTEX
  5
309
  8
Layer_0
  10
965.18695
  20
1090.5096
  42
-0.16749587
  0
VERTEX
  5
30a
  8
Layer_0
  10
965.65997
  20
1089.1544
  0
VERTEX
  5
30b
  8
Layer_0
  10
965.65997
  20
1080.6859
  0
VERTEX
  5
30c
  8
Layer_0
  10
965.27997
  20
1077.8358
  0
SEQEND
  0
POLYLINE
  5
30e
  8
Layer_0
  62
7
  70
1
  66
1
  10
0
  20
0
  30
0
  0
VERTEX
  5
30e
  8
Layer_0
  10
964.88995
  20
1096.8859
  0
VERTEX
  5
30f
  8
Layer_0
  10
960.86426
  20
1098.1458
  42
-0.23690692
  0
VERTEX
  5
310
  8
Layer_0
  10
960.22156
  20
1098.8456
  0
VERTEX
  5
311
  8
Layer_0
  10
959.03998
  20
1103.7358
  42
-0.11215494
  0
VERTEX
  5
312
  8
Layer_0
  10
959.03998
  20
1104.7358
  0
VERTEX
  5
313
  8
Layer_0
  10
960.22156
  20
1109.626
  0
VERTEX
  5
314
  8
Layer_0
  10
960.38995
  20
1109.9858
  0
VERTEX
  5
315
  8
Layer_0
  10
962.38995
  20
1112.8358
  0
VERTEX
  5
316
  8
Layer_0
  10
965.18994
  20
1112.8358
  0
VERTEX
  5
317
  8
Layer_0
  10
967.69696
  20
1109.5596
  42
-0.16746398
  0
VERTEX
  5
318
  8
Layer_0
  10
968.16998
  20
1108.2043
  0
VERTEX
  5
319
  8
Layer_0
  10
968.16998
  20
1099.7358
  0
VERTEX
  5
31a
  8
Layer_0
  10
967.78998
  20
1096.8859
  0
SEQEND
  0
POLYLINE
  5
31c
  8
Layer_0
  62
7
  70
1
  66
1
  10
0
  20
0
  30
0
  0
VERTEX
  5
31c
  8
Layer_0
  10
943.38
  20
1077.8358
  0
VERTEX
  5
31d
  8
Layer_0
  10
939.35425
  20
1079.0958
  42
-0.23692945
  0
VERTEX
  5
31e
  8
Layer_0
  10
938.71155
  20
1079.7957
  0
VERTEX
  5
31f
  8
Layer_0
  10
937.52997
  20
1084.6859
  42
-0.11224422
  0
VERTEX
  5
320
  8
Layer_0
  10
937.52997
  20
1085.6859
  0
VERTEX
  5
321
  8
Layer_0
  10
938.71155
  20
1090.576
  0
VERTEX
  5
322
  8
Layer_0
  10
938.87994
  20
1090.9359
  0
VERTEX
  5
323
  8
Layer_0
  10
940.88
  20
1093.7858
  0
VERTEX
  5
324
  8
Layer_0
  10
943.67999
  20
1093.7858
  0
VERTEX
  5
325
  8
Layer_0
  10
946.18695
  20
1090.5096
  42
-0.16749587
  0
VERTEX
  5
326
  8
Layer_0
  10
946.65997
  20
1089.1544
  0
VERTEX
  5
327
  8
Layer_0
  10
946.65997
  20
1080.6859
  0
VERTEX
  5
328
  8
Layer_0
  10
946.27997
  20
1077.8358
  0
SEQEND
  0
POLYLINE
  5
32a
  8
Layer_0
  62
7
  70
1
  66
1
  10
0
  20
0
  30
0
  0
VERTEX
  5
32a
  8
Layer_0
  10
945.78998
  20
1096.8859
  0
VERTEX
  5
32b
  8
Layer_0
  10
941.76428
  20
1098.1458
  42
-0.23690692
  0
VERTEX
  5
32c
  8
Layer_0
  10
941.12158
  20
1098.8456
  0
VERTEX
  5
32d
  8
Layer_0
  10
939.93994
  20
1103.7358
  42
-0.11215494
  0
VERTEX
  5
32e
  8
Layer_0
  10
939.93994
  20
1104.7358
  0
VERTEX
  5
32f
  8
Layer_0
  10
941.12158
  20
1109.626
  0
VERTEX
  5
330
  8
Layer_0
  10
941.28998
  20
1109.9858
  0
VERTEX
  5
331
  8
Layer_0
  10
943.28998
  20
1112.8358
  0
VERTEX
  5
332
  8
Layer_0
  10
946.08997
  20
1112.8358
  0
VERTEX
  5
333
  8
Layer_0
  10
948.59698
  20
1109.5596
  42
-0.1674959
  0
VERTEX
  5
334
  8
Layer_0
  10
949.06995
  20
1108.2043
  0
VERTEX
  5
335
  8
Layer_0
  10
949.06995
  20
1099.7358
  0
VERTEX
  5
336
  8
Layer_0
  10
948.68994
  20
1096.8859
  0
SEQEND
  0
POLYLINE
  5
338
  8
Layer_0
  62
7
  70
1
  66
1
  10
0
  20
0
  30
0
  0
VERTEX
  5
338
  8
Layer_0
  10
948.28992
  20
1039.7358
  0
VERTEX
  5
339
  8
Layer_0
  10
944.26422
  20
1040.9958
  42
-0.23690692
  0
VERTEX
  5
33a
  8
Layer_0
  10
943.62152
  20
1041.6956
  0
VERTEX
  5
33b
  8
Layer_0
  10
942.43988
  20
1046.5858
  42
-0.11215241
  0
VERTEX
  5
33c
  8
Layer_0
  10
942.43988
  20
1047.5858
  0
VERTEX
  5
33d
  8
Layer_0
  10
943.62152
  20
1052.476
  0
VERTEX
  5
33e
  8
Layer_0
  10
943.78992
  20
1052.8358
  0
VERTEX
  5
33f
  8
Layer_0
  10
945.78992
  20
1055.6859
  0
VERTEX
  5
340
  8
Layer_0
  10
948.5899
  20
1055.6859
  0
VERTEX
  5
341
  8
Layer_0
  10
951.09692
  20
1052.4097
  42
-0.1674959
  0
VERTEX
  5
342
  8
Layer_0
  10
951.56989
  20
1051.0543
  0
VERTEX
  5
343
  8
Layer_0
  10
951.56989
  20
1042.5858
  0
VERTEX
  5
344
  8
Layer_0
  10
951.18988
  20
1039.7358
  0
SEQEND
  0
POLYLINE
  5
346
  8
Layer_0
  62
7
  70
1
  66
1
  10
0
  20
0
  30
0
  0
VERTEX
  5
346
  8
Layer_0
  10
945.78992
  20
1058.7858
  0
VERTEX
  5
347
  8
Layer_0
  10
941.76422
  20
1060.0458
  42
-0.23691819
  0
VERTEX
  5
348
  8
Layer_0
  10
941.12152
  20
1060.7456
  0
VERTEX
  5
349
  8
Layer_0
  10
939.93994
  20
1065.6359
  42
-0.11215241
  0
VERTEX
  5
34a
  8
Layer_0
  10
939.93994
  20
1066.6359
  0
VERTEX
  5
34b
  8
Layer_0
  10
941.12158
  20
1071.5261
  0
VERTEX
  5
34c
  8
Layer_0
  10
941.28998
  20
1071.8859
  0
VERTEX
  5
34d
  8
Layer_0
  10
943.28998
  20
1074.7358
  0
VERTEX
  5
34e
  8
Layer_0
  10
946.08997
  20
1074.7358
  0
VERTEX
  5
34f
  8
Layer_0
  10
948.59698
  20
1071.4597
  42
-0.16749093
  0
VERTEX
  5
350
  8
Layer_0
  10
949.06995
  20
1070.1044
  0
VERTEX
  5
351
  8
Layer_0
  10
949.06989
  20
1061.6359
  0
VERTEX
  5
352
  8
Layer_0
  10
948.68988
  20
1058.7858
  0
SEQEND
  0
POLYLINE
  5
354
  8
Layer_0
  62
7
  70
1
  66
1
  10
0
  20
0
  30
0
  0
VERTEX
  5
354
  8
Layer_0
  10
926.68994
  20
1096.8859
  0
VERTEX
  5
355
  8
Layer_0
  10
922.66425
  20
1098.1458
  42
-0.23690692
  0
VERTEX
  5
356
  8
Layer_0
  10
922.02155
  20
1098.8456
  0
VERTEX
  5
357
  8
Layer_0
  10
920.83997
  20
1103.7358
  42
-0.11224422
  0
VERTEX
  5
358
  8
Layer_0
  10
920.83997
  20
1104.7358
  0
VERTEX
  5
359
  8
Layer_0
  10
922.02155
  20
1109.626
  0
VERTEX
  5
35a
  8
Layer_0
  10
922.18994
  20
1109.9858
  0
VERTEX
  5
35b
  8
Layer_0
  10
924.18994
  20
1112.8358
  0
VERTEX
  5
35c
  8
Layer_0
  10
926.98999
  20
1112.8358
  0
VERTEX
  5
35d
  8
Layer_0
  10
929.49695
  20
1109.5596
  42
-0.16745904
  0
VERTEX
  5
35e
  8
Layer_0
  10
929.96997
  20
1108.2043
  0
VERTEX
  5
35f
  8
Layer_0
  10
929.96997
  20
1099.7358
  0
VERTEX
  5
360
  8
Layer_0
  10
929.58997
  20
1096.8859
  0
SEQEND
  0
POLYLINE
  5
362
  8
Layer_0
  62
7
  70
1
  66
1
  10
0
  20
0
  30
0
  0
VERTEX
  5
362
  8
Layer_0
  10
924.27997
  20
1077.8358
  0
VERTEX
  5
363
  8
Layer_0
  10
920.25427
  20
1079.0958
  42
-0.23692945
  0
VERTEX
  5
364
  8
Layer_0
  10
919.61157
  20
1079.7957
  0
VERTEX
  5
365
  8
Layer_0
  10
918.42999
  20
1084.6859
  42
-0.11224422
  0
VERTEX
  5
366
  8
Layer_0
  10
918.42999
  20
1085.6859
  0
VERTEX
  5
367
  8
Layer_0
  10
919.61157
  20
1090.576
  0
VERTEX
  5
368
  8
Layer_0
  10
919.77997
  20
1090.9359
  0
VERTEX
  5
369
  8
Layer_0
  10
921.77997
  20
1093.7858
  0
VERTEX
  5
36a
  8
Layer_0
  10
924.57996
  20
1093.7858
  0
VERTEX
  5
36b
  8
Layer_0
  10
927.08698
  20
1090.5096
  42
-0.1674959
  0
VERTEX
  5
36c
  8
Layer_0
  10
927.55994
  20
1089.1544
  0
VERTEX
  5
36d
  8
Layer_0
  10
927.55994
  20
1080.6859
  0
VERTEX
  5
36e
  8
Layer_0
  10
927.17999
  20
1077.8358
  0
SEQEND
  0
POLYLINE
  5
370
  8
Layer_0
  62
7
  70
1
  66
1
  10
0
  20
0
  30
0
  0
VERTEX
  5
370
  8
Layer_0
  10
926.78992
  20
1058.7858
  0
VERTEX
  5
371
  8
Layer_0
  10
922.76422
  20
1060.0458
  42
-0.23691819
  0
VERTEX
  5
372
  8
Layer_0
  10
922.12152
  20
1060.7456
  0
VERTEX
  5
373
  8
Layer_0
  10
920.93994
  20
1065.6359
  42
-0.11215241
  0
VERTEX
  5
374
  8
Layer_0
  10
920.93994
  20
1066.6359
  0
VERTEX
  5
375
  8
Layer_0
  10
922.12158
  20
1071.5261
  0
VERTEX
  5
376
  8
Layer_0
  10
922.28998
  20
1071.8859
  0
VERTEX
  5
377
  8
Layer_0
  10
924.28998
  20
1074.7358
  0
VERTEX
  5
378
  8
Layer_0
  10
927.08997
  20
1074.7358
  0
VERTEX
  5
379
  8
Layer_0
  10
929.59698
  20
1071.4597
  42
-0.16749096
  0
VERTEX
  5
37a
  8
Layer_0
  10
930.06995
  20
1070.1044
  0
VERTEX
  5
37b
  8
Layer_0
  10
930.06989
  20
1061.6359
  0
VERTEX
  5
37c
  8
Layer_0
  10
929.68988
  20
1058.7858
  0
SEQEND
  0
POLYLINE
  5
37e
  8
Layer_0
  62
7
  70
1
  66
1
  10
0
  20
0
  30
0
  0
VERTEX
  5
37e
  8
Layer_0
  10
929.28992
  20
1039.7358
  0
VERTEX
  5
37f
  8
Layer_0
  10
925.26422
  20
1040.9958
  42
-0.23690692
  0
VERTEX
  5
380
  8
Layer_0
  10
924.62152
  20
1041.6956
  0
VERTEX
  5
381
  8
Layer_0
  10
923.43988
  20
1046.5858
  42
-0.11215241
  0
VERTEX
  5
382
  8
Layer_0
  10
923.43988
  20
1047.5858
  0
VERTEX
  5
383
  8
Layer_0
  10
924.62152
  20
1052.476
  0
VERTEX
  5
384
  8
Layer_0
  10
924.78992
  20
1052.8358
  0
VERTEX
  5
385
  8
Layer_0
  10
926.78992
  20
1055.6859
  0
VERTEX
  5
386
  8
Layer_0
  10
929.5899
  20
1055.6859
  0
VERTEX
  5
387
  8
Layer_0
  10
932.09692
  20
1052.4097
  42
-0.1674959
  0
VERTEX
  5
388
  8
Layer_0
  10
932.56989
  20
1051.0543
  0
VERTEX
  5
389
  8
Layer_0
  10
932.56989
  20
1042.5858
  0
VERTEX
  5
38a
  8
Layer_0
  10
932.18988
  20
1039.7358
  0
SEQEND
  0
POLYLINE
  5
38c
  8
Layer_0
  62
7
  70
1
  66
1
  10
0
  20
0
  30
0
  0
VERTEX
  5
38c
  8
Layer_0
  10
926.90561
  20
1017.9658
  42
0.13364108
  0
VERTEX
  5
38d
  8
Layer_0
  10
927.35287
  20
1018.1024
  42
0.0028028607
  0
VERTEX
  5
38e
  8
Layer_0
  10
932.80124
  20
1021.4354
  42
0.23760074
  0
VERTEX
  5
38f
  8
Layer_0
  10
933.10989
  20
1022.0159
  0
VERTEX
  5
390
  8
Layer_0
  10
933.10989
  20
1032.1759
  42
0.25374172
  0
VERTEX
  5
391
  8
Layer_0
  10
932.80124
  20
1032.7563
  42
0.017289164
  0
VERTEX
  5
392
  8
Layer_0
  10
927.21701
  20
1036.0419
  42
0.1038179
  0
VERTEX
  5
393
  8
Layer_0
  10
926.90561
  20
1036.1047
  0
VERTEX
  5
394
  8
Layer_0
  10
897.76962
  20
1036.1047
  42
0.19340946
  0
VERTEX
  5
395
  8
Layer_0
  10
897.20163
  20
1035.8699
  42
0.2051233
  0
VERTEX
  5
396
  8
Layer_0
  10
896.96964
  20
1035.3047
  0
VERTEX
  5
397
  8
Layer_0
  10
896.96964
  20
1018.7657
  42
0.41206835
  0
VERTEX
  5
398
  8
Layer_0
  10
897.76962
  20
1017.9658
  0
SEQEND
  0
POLYLINE
  5
39a
  8
Layer_0
  62
7
  70
1
  66
1
  10
0
  20
0
  30
0
  0
VERTEX
  5
39a
  8
Layer_0
  10
904.29788
  20
1046.8346
  0
VERTEX
  5
39b
  8
Layer_0
  10
904.33987
  20
1046.5858
  0
VERTEX
  5
39c
  8
Layer_0
  10
905.52151
  20
1041.6954
  0
VERTEX
  5
39d
  8
Layer_0
  10
905.56253
  20
1041.578
  42
0.062047366
  0
VERTEX
  5
39e
  8
Layer_0
  10
905.76004
  20
1041.2694
  0
VERTEX
  5
39f
  8
Layer_0
  10
905.84769
  20
1041.1844
  42
0.075603876
  0
VERTEX
  5
3a0
  8
Layer_0
  10
906.16409
  20
1040.9957
  0
VERTEX
  5
3a1
  8
Layer_0
  10
910.18997
  20
1039.7357
  0
VERTEX
  5
3a2
  8
Layer_0
  10
913.08987
  20
1039.7357
  0
VERTEX
  5
3a3
  8
Layer_0
  10
913.47
  20
1042.5858
  0
VERTEX
  5
3a4
  8
Layer_0
  10
913.47
  20
1043.5858
  0
VERTEX
  5
3a5
  8
Layer_0
  10
918.13992
  20
1043.5858
  0
VERTEX
  5
3a6
  8
Layer_0
  10
921.63992
  20
1043.7357
  0
VERTEX
  5
3a7
  8
Layer_0
  10
922.58987
  20
1045.1857
  0
VERTEX
  5
3a8
  8
Layer_0
  10
922.58987
  20
1048.9857
  0
VERTEX
  5
3a9
  8
Layer_0
  10
921.63992
  20
1050.4357
  42
0.0087533022
  0
VERTEX
  5
3aa
  8
Layer_0
  10
913.47
  20
1050.5961
  42
0.074505714
  0
VERTEX
  5
3ab
  8
Layer_0
  10
913.39969
  20
1051.5973
  42
0.10254085
  0
VERTEX
  5
3ac
  8
Layer_0
  10
912.99686
  20
1052.4095
  0
VERTEX
  5
3ad
  8
Layer_0
  10
910.49002
  20
1055.6857
  0
VERTEX
  5
3ae
  8
Layer_0
  10
907.68997
  20
1055.6857
  0
VERTEX
  5
3af
  8
Layer_0
  10
905.68997
  20
1052.8358
  0
VERTEX
  5
3b0
  8
Layer_0
  10
905.52151
  20
1052.476
  0
VERTEX
  5
3b1
  8
Layer_0
  10
904.33987
  20
1047.5858
  42
0.088980927
  0
SEQEND
  0
POLYLINE
  5
3b3
  8
Layer_0
  62
7
  70
1
  66
1
  10
0
  20
0
  30
0
  0
VERTEX
  5
3b3
  8
Layer_0
  10
899.29788
  20
1084.9347
  0
VERTEX
  5
3b4
  8
Layer_0
  10
899.33987
  20
1084.6857
  0
VERTEX
  5
3b5
  8
Layer_0
  10
900.52151
  20
1079.7955
  0
VERTEX
  5
3b6
  8
Layer_0
  10
900.56253
  20
1079.6781
  42
0.15702755
  0
VERTEX
  5
3b7
  8
Layer_0
  10
901.05057
  20
1079.1466
  0
VERTEX
  5
3b8
  8
Layer_0
  10
901.16409
  20
1079.0958
  0
VERTEX
  5
3b9
  8
Layer_0
  10
905.18997
  20
1077.8358
  0
VERTEX
  5
3ba
  8
Layer_0
  10
908.08987
  20
1077.8358
  0
VERTEX
  5
3bb
  8
Layer_0
  10
908.47
  20
1080.6857
  0
VERTEX
  5
3bc
  8
Layer_0
  10
908.47
  20
1081.5858
  0
VERTEX
  5
3bd
  8
Layer_0
  10
912.42996
  20
1081.5858
  0
VERTEX
  5
3be
  8
Layer_0
  10
916.62991
  20
1081.8358
  0
VERTEX
  5
3bf
  8
Layer_0
  10
917.57986
  20
1083.2858
  0
VERTEX
  5
3c0
  8
Layer_0
  10
917.57986
  20
1087.0858
  0
VERTEX
  5
3c1
  8
Layer_0
  10
916.62991
  20
1088.5358
  42
0.0058627938
  0
VERTEX
  5
3c2
  8
Layer_0
  10
908.47
  20
1088.5865
  42
0.053796596
  0
VERTEX
  5
3c3
  8
Layer_0
  10
908.43802
  20
1089.5192
  42
0.13411123
  0
VERTEX
  5
3c4
  8
Layer_0
  10
907.99686
  20
1090.5096
  0
VERTEX
  5
3c5
  8
Layer_0
  10
905.49002
  20
1093.7858
  0
VERTEX
  5
3c6
  8
Layer_0
  10
902.68997
  20
1093.7858
  0
VERTEX
  5
3c7
  8
Layer_0
  10
900.68997
  20
1090.9357
  0
VERTEX
  5
3c8
  8
Layer_0
  10
900.52151
  20
1090.576
  0
VERTEX
  5
3c9
  8
Layer_0
  10
899.33987
  20
1085.6857
  42
0.080827612
  0
SEQEND
  0
POLYLINE
  5
3cb
  8
Layer_0
  62
7
  70
1
  66
1
  10
0
  20
0
  30
0
  0
VERTEX
  5
3cb
  8
Layer_0
  10
910.79788
  20
1123.0345
  0
VERTEX
  5
3cc
  8
Layer_0
  10
910.83987
  20
1122.7858
  0
VERTEX
  5
3cd
  8
Layer_0
  10
912.02151
  20
1117.8956
  42
0.1771628
  0
VERTEX
  5
3ce
  8
Layer_0
  10
912.44485
  20
1117.3099
  42
0.042914539
  0
VERTEX
  5
3cf
  8
Layer_0
  10
912.66409
  20
1117.1957
  0
VERTEX
  5
3d0
  8
Layer_0
  10
916.68997
  20
1115.9357
  0
VERTEX
  5
3d1
  8
Layer_0
  10
919.58987
  20
1115.9357
  0
VERTEX
  5
3d2
  8
Layer_0
  10
919.97
  20
1118.7858
  0
VERTEX
  5
3d3
  8
Layer_0
  10
919.97
  20
1120.5636
  0
VERTEX
  5
3d4
  8
Layer_0
  10
925.08987
  20
1119.9357
  0
VERTEX
  5
3d5
  8
Layer_0
  10
928.08987
  20
1119.9357
  0
VERTEX
  5
3d6
  8
Layer_0
  10
929.03983
  20
1121.3856
  0
VERTEX
  5
3d7
  8
Layer_0
  10
929.03983
  20
1125.1857
  0
VERTEX
  5
3d8
  8
Layer_0
  10
928.08987
  20
1126.6356
  0
VERTEX
  5
3d9
  8
Layer_0
  10
923.98978
  20
1127.5858
  0
VERTEX
  5
3da
  8
Layer_0
  10
919.94241
  20
1127.5858
  0
VERTEX
  5
3db
  8
Layer_0
  10
919.93802
  20
1127.6193
  42
0.12916637
  0
VERTEX
  5
3dc
  8
Layer_0
  10
919.49686
  20
1128.6095
  0
VERTEX
  5
3dd
  8
Layer_0
  10
916.99002
  20
1131.8856
  0
VERTEX
  5
3de
  8
Layer_0
  10
914.18997
  20
1131.8856
  0
VERTEX
  5
3df
  8
Layer_0
  10
912.18997
  20
1129.0358
  0
VERTEX
  5
3e0
  8
Layer_0
  10
912.02151
  20
1128.6759
  0
VERTEX
  5
3e1
  8
Layer_0
  10
910.83987
  20
1123.7858
  42
0.076929278
  0
SEQEND
  0
POLYLINE
  5
3e3
  8
Layer_0
  62
7
  70
1
  66
1
  10
0
  20
0
  30
0
  0
VERTEX
  5
3e3
  8
Layer_0
  10
972.70273
  20
1072.1695
  0
VERTEX
  5
3e4
  8
Layer_0
  10
972.70273
  20
1079.1695
  0
VERTEX
  5
3e5
  8
Layer_0
  10
976.90271
  20
1079.1695
  0
VERTEX
  5
3e6
  8
Layer_0
  10
976.90271
  20
1072.1695
  0
SEQEND
  0
POLYLINE
  5
3e8
  8
Layer_0
  62
7
  70
1
  66
1
  10
0
  20
0
  30
0
  0
VERTEX
  5
3e8
  8
Layer_0
  10
977.31128
  20
1045.61
  0
VERTEX
  5
3e9
  8
Layer_0
  10
976.80762
  20
1043.8187
  0
VERTEX
  5
3ea
  8
Layer_0
  10
976.26465
  20
1039.6107
  0
VERTEX
  5
3eb
  8
Layer_0
  10
976.26465
  20
1039.4857
  0
VERTEX
  5
3ec
  8
Layer_0
  10
972.38989
  20
1039.4857
  0
VERTEX
  5
3ed
  8
Layer_0
  10
972.38989
  20
1035.1456
  0
VERTEX
  5
3ee
  8
Layer_0
  10
976.26465
  20
1035.1456
  0
VERTEX
  5
3ef
  8
Layer_0
  10
976.26465
  20
1034.4108
  0
VERTEX
  5
3f0
  8
Layer_0
  10
978.56982
  20
1031.9359
  0
VERTEX
  5
3f1
  8
Layer_0
  10
982.76978
  20
1031.9359
  0
VERTEX
  5
3f2
  8
Layer_0
  10
982.76978
  20
1038.9359
  0
VERTEX
  5
3f3
  8
Layer_0
  10
982.48535
  20
1041.5612
  0
VERTEX
  5
3f4
  8
Layer_0
  10
981.50195
  20
1045.2318
  0
VERTEX
  5
3f5
  8
Layer_0
  10
980.20898
  20
1046.3864
  0
SEQEND
  0
CIRCLE
  5
3f7
  8
Layer_0
  62
7
  10
1027.677
  20
1029.1892
  30
0
  40
2.0499964
  0
CIRCLE
  5
3f7
  8
Layer_0
  62
7
  10
1065.777
  20
1029.1892
  30
0
  40
2.0499964
  0
CIRCLE
  5
3f7
  8
Layer_0
  62
7
  10
1080.652
  20
1132.4141
  30
0
  40
2.0499964
  0
CIRCLE
  5
3f7
  8
Layer_0
  62
7
  10
1059.277
  20
1105.389
  30
0
  40
2.0499964
  0
CIRCLE
  5
3f7
  8
Layer_0
  62
7
  10
1018.677
  20
1105.389
  30
0
  40
2.0499964
  0
CIRCLE
  5
3f7
  8
Layer_0
  62
7
  10
1055.152
  20
1132.5391
  30
0
  40
1.0499982
  0
CIRCLE
  5
3f7
  8
Layer_0
  62
7
  10
1055.152
  20
1139.0389
  30
0
  40
1.0499982
  0
CIRCLE
  5
3f7
  8
Layer_0
  62
7
  10
1055.152
  20
1127.6641
  30
0
  40
2.0999963
  0
CIRCLE
  5
3f7
  8
Layer_0
  62
7
  10
1055.152
  20
1143.9139
  30
0
  40
2.0999963
  0
POLYLINE
  5
3f7
  8
Layer_0
  62
7
  70
1
  66
1
  10
0
  20
0
  30
0
  0
VERTEX
  5
3f7
  8
Layer_0
  10
1068.327
  20
1026.3141
  0
VERTEX
  5
3f8
  8
Layer_0
  10
1068.327
  20
1028.1141
  0
VERTEX
  5
3f9
  8
Layer_0
  10
1073.527
  20
1028.1141
  0
VERTEX
  5
3fa
  8
Layer_0
  10
1073.527
  20
1026.3141
  0
SEQEND
  0
POLYLINE
  5
3fc
  8
Layer_0
  62
7
  70
1
  66
1
  10
0
  20
0
  30
0
  0
VERTEX
  5
3fc
  8
Layer_0
  10
1069.902
  20
1046.0141
  0
VERTEX
  5
3fd
  8
Layer_0
  10
1069.902
  20
1047.8141
  0
VERTEX
  5
3fe
  8
Layer_0
  10
1075.102
  20
1047.8141
  0
VERTEX
  5
3ff
  8
Layer_0
  10
1075.102
  20
1046.0141
  0
SEQEND
  0
POLYLINE
  5
401
  8
Layer_0
  62
7
  70
1
  66
1
  10
0
  20
0
  30
0
  0
VERTEX
  5
401
  8
Layer_0
  10
1061.202
  20
1065.264
  0
VERTEX
  5
402
  8
Layer_0
  10
1061.202
  20
1067.0641
  0
VERTEX
  5
403
  8
Layer_0
  10
1066.402
  20
1067.0641
  0
VERTEX
  5
404
  8
Layer_0
  10
1066.402
  20
1065.264
  0
SEQEND
  0
POLYLINE
  5
406
  8
Layer_0
  62
7
  70
1
  66
1
  10
0
  20
0
  30
0
  0
VERTEX
  5
406
  8
Layer_0
  10
1057.617
  20
1084.514
  0
VERTEX
  5
407
  8
Layer_0
  10
1057.617
  20
1086.314
  0
VERTEX
  5
408
  8
Layer_0
  10
1062.817
  20
1086.314
  0
VERTEX
  5
409
  8
Layer_0
  10
1062.817
  20
1084.514
  0
SEQEND
  0
POLYLINE
  5
40b
  8
Layer_0
  62
7
  70
1
  66
1
  10
0
  20
0
  30
0
  0
VERTEX
  5
40b
  8
Layer_0
  10
1062.227
  20
1103.514
  0
VERTEX
  5
40c
  8
Layer_0
  10
1062.227
  20
1105.314
  0
VERTEX
  5
40d
  8
Layer_0
  10
1067.427
  20
1105.314
  0
VERTEX
  5
40e
  8
Layer_0
  10
1067.427
  20
1103.514
  0
SEQEND
  0
POLYLINE
  5
410
  8
Layer_0
  62
7
  70
1
  66
1
  10
0
  20
0
  30
0
  0
VERTEX
  5
410
  8
Layer_0
  10
1049.427
  20
1026.7642
  0
VERTEX
  5
411
  8
Layer_0
  10
1049.427
  20
1028.5641
  0
VERTEX
  5
412
  8
Layer_0
  10
1054.627
  20
1028.5641
  0
VERTEX
  5
413
  8
Layer_0
  10
1054.627
  20
1026.7642
  0
SEQEND
  0
POLYLINE
  5
415
  8
Layer_0
  62
7
  70
1
  66
1
  10
0
  20
0
  30
0
  0
VERTEX
  5
415
  8
Layer_0
  10
1051.927
  20
1046.0141
  0
VERTEX
  5
416
  8
Layer_0
  10
1051.927
  20
1047.8141
  0
VERTEX
  5
417
  8
Layer_0
  10
1057.127
  20
1047.8141
  0
VERTEX
  5
418
  8
Layer_0
  10
1057.127
  20
1046.0141
  0
SEQEND
  0
POLYLINE
  5
41a
  8
Layer_0
  62
7
  70
1
  66
1
  10
0
  20
0
  30
0
  0
VERTEX
  5
41a
  8
Layer_0
  10
1042.477
  20
1064.7891
  0
VERTEX
  5
41b
  8
Layer_0
  10
1042.477
  20
1066.5891
  0
VERTEX
  5
41c
  8
Layer_0
  10
1047.677
  20
1066.5891
  0
VERTEX
  5
41d
  8
Layer_0
  10
1047.677
  20
1064.7891
  0
SEQEND
  0
POLYLINE
  5
41f
  8
Layer_0
  62
7
  70
1
  66
1
  10
0
  20
0
  30
0
  0
VERTEX
  5
41f
  8
Layer_0
  10
1040.617
  20
1084.764
  0
VERTEX
  5
420
  8
Layer_0
  10
1040.617
  20
1086.564
  0
VERTEX
  5
421
  8
Layer_0
  10
1045.817
  20
1086.564
  0
VERTEX
  5
422
  8
Layer_0
  10
1045.817
  20
1084.764
  0
SEQEND
  0
POLYLINE
  5
424
  8
Layer_0
  62
7
  70
1
  66
1
  10
0
  20
0
  30
0
  0
VERTEX
  5
424
  8
Layer_0
  10
1030.427
  20
1026.7642
  0
VERTEX
  5
425
  8
Layer_0
  10
1030.427
  20
1028.5641
  0
VERTEX
  5
426
  8
Layer_0
  10
1035.627
  20
1028.5641
  0
VERTEX
  5
427
  8
Layer_0
  10
1035.627
  20
1026.7642
  0
SEQEND
  0
POLYLINE
  5
429
  8
Layer_0
  62
7
  70
1
  66
1
  10
0
  20
0
  30
0
  0
VERTEX
  5
429
  8
Layer_0
  10
1029.927
  20
1046.2641
  0
VERTEX
  5
42a
  8
Layer_0
  10
1029.927
  20
1048.0641
  0
VERTEX
  5
42b
  8
Layer_0
  10
1035.127
  20
1048.0641
  0
VERTEX
  5
42c
  8
Layer_0
  10
1035.127
  20
1046.2641
  0
SEQEND
  0
POLYLINE
  5
42e
  8
Layer_0
  62
7
  70
1
  66
1
  10
0
  20
0
  30
0
  0
VERTEX
  5
42e
  8
Layer_0
  10
1022.702
  20
1065.014
  0
VERTEX
  5
42f
  8
Layer_0
  10
1022.702
  20
1066.8141
  0
VERTEX
  5
430
  8
Layer_0
  10
1027.902
  20
1066.8141
  0
VERTEX
  5
431
  8
Layer_0
  10
1027.902
  20
1065.014
  0
SEQEND
  0
POLYLINE
  5
433
  8
Layer_0
  62
7
  70
1
  66
1
  10
0
  20
0
  30
0
  0
VERTEX
  5
433
  8
Layer_0
  10
1020.117
  20
1084.264
  0
VERTEX
  5
434
  8
Layer_0
  10
1020.117
  20
1086.064
  0
VERTEX
  5
435
  8
Layer_0
  10
1025.317
  20
1086.064
  0
VERTEX
  5
436
  8
Layer_0
  10
1025.317
  20
1084.264
  0
SEQEND
  0
POLYLINE
  5
438
  8
Layer_0
  62
7
  70
1
  66
1
  10
0
  20
0
  30
0
  0
VERTEX
  5
438
  8
Layer_0
  10
1013.177
  20
1026.7642
  0
VERTEX
  5
439
  8
Layer_0
  10
1013.177
  20
1028.5641
  0
VERTEX
  5
43a
  8
Layer_0
  10
1018.377
  20
1028.5641
  0
VERTEX
  5
43b
  8
Layer_0
  10
1018.377
  20
1026.7642
  0
SEQEND
  0
POLYLINE
  5
43d
  8
Layer_0
  62
7
  70
1
  66
1
  10
0
  20
0
  30
0
  0
VERTEX
  5
43d
  8
Layer_0
  10
1013.402
  20
1046.5141
  0
VERTEX
  5
43e
  8
Layer_0
  10
1013.402
  20
1048.3141
  0
VERTEX
  5
43f
  8
Layer_0
  10
1018.602
  20
1048.3141
  0
VERTEX
  5
440
  8
Layer_0
  10
1018.602
  20
1046.5141
  0
SEQEND
  0
POLYLINE
  5
442
  8
Layer_0
  62
7
  70
1
  66
1
  10
0
  20
0
  30
0
  0
VERTEX
  5
442
  8
Layer_0
  10
1004.477
  20
1065.264
  0
VERTEX
  5
443
  8
Layer_0
  10
1004.477
  20
1067.0641
  0
VERTEX
  5
444
  8
Layer_0
  10
1009.677
  20
1067.0641
  0
VERTEX
  5
445
  8
Layer_0
  10
1009.677
  20
1065.264
  0
SEQEND
  0
POLYLINE
  5
447
  8
Layer_0
  62
7
  70
1
  66
1
  10
0
  20
0
  30
0
  0
VERTEX
  5
447
  8
Layer_0
  10
1059.452
  20
1137.489
  0
VERTEX
  5
448
  8
Layer_0
  10
1059.452
  20
1134.0889
  0
VERTEX
  5
449
  8
Layer_0
  10
1061.652
  20
1134.0889
  0
VERTEX
  5
44a
  8
Layer_0
  10
1061.652
  20
1137.489
  0
SEQEND
  0
POLYLINE
  5
44c
  8
Layer_0
  62
7
  70
1
  66
1
  10
0
  20
0
  30
0
  0
VERTEX
  5
44c
  8
Layer_0
  10
1070.652
  20
1137.489
  0
VERTEX
  5
44d
  8
Layer_0
  10
1070.652
  20
1134.0889
  0
VERTEX
  5
44e
  8
Layer_0
  10
1072.852
  20
1134.0889
  0
VERTEX
  5
44f
  8
Layer_0
  10
1072.852
  20
1137.489
  0
SEQEND
  0
CIRCLE
  5
451
  8
Layer_0
  62
7
  10
1063.652
  20
1143.2889
  30
0
  40
1.0999981
  0
CIRCLE
  5
451
  8
Layer_0
  62
7
  10
1066.152
  20
1143.2889
  30
0
  40
1.0999981
  0
CIRCLE
  5
451
  8
Layer_0
  62
7
  10
1068.652
  20
1143.2889
  30
0
  40
1.0999981
  0
CIRCLE
  5
451
  8
Layer_0
  62
7
  10
1063.652
  20
1128.7891
  30
0
  40
1.0999981
  0
CIRCLE
  5
451
  8
Layer_0
  62
7
  10
1068.652
  20
1128.7891
  30
0
  40
1.0999981
  0
POLYLINE
  5
451
  8
Layer_0
  62
7
  70
1
  66
1
  10
0
  20
0
  30
0
  0
VERTEX
  5
451
  8
Layer_0
  10
1048.302
  20
1021.4141
  0
VERTEX
  5
452
  8
Layer_0
  10
1048.302
  20
1017.9141
  0
VERTEX
  5
453
  8
Layer_0
  10
1049.252
  20
1016.3141
  0
VERTEX
  5
454
  8
Layer_0
  10
1052.252
  20
1016.3141
  0
VERTEX
  5
455
  8
Layer_0
  10
1053.202
  20
1017.7642
  0
VERTEX
  5
456
  8
Layer_0
  10
1053.202
  20
1021.5641
  0
VERTEX
  5
457
  8
Layer_0
  10
1052.252
  20
1023.0142
  0
VERTEX
  5
458
  8
Layer_0
  10
1049.252
  20
1023.0142
  0
SEQEND
  0
POLYLINE
  5
45a
  8
Layer_0
  62
7
  70
1
  66
1
  10
0
  20
0
  30
0
  0
VERTEX
  5
45a
  8
Layer_0
  10
1020.302
  20
1097.614
  0
VERTEX
  5
45b
  8
Layer_0
  10
1020.302
  20
1094.114
  0
VERTEX
  5
45c
  8
Layer_0
  10
1021.252
  20
1092.514
  0
VERTEX
  5
45d
  8
Layer_0
  10
1024.252
  20
1092.514
  0
VERTEX
  5
45e
  8
Layer_0
  10
1025.202
  20
1093.9641
  0
VERTEX
  5
45f
  8
Layer_0
  10
1025.202
  20
1097.764
  0
VERTEX
  5
460
  8
Layer_0
  10
1024.252
  20
1099.2141
  0
VERTEX
  5
461
  8
Layer_0
  10
1021.252
  20
1099.2141
  0
SEQEND
  0
POLYLINE
  5
463
  8
Layer_0
  62
7
  70
1
  66
1
  10
0
  20
0
  30
0
  0
VERTEX
  5
463
  8
Layer_0
  10
1077.402
  20
1097.614
  0
VERTEX
  5
464
  8
Layer_0
  10
1077.402
  20
1094.114
  0
VERTEX
  5
465
  8
Layer_0
  10
1078.352
  20
1092.514
  0
VERTEX
  5
466
  8
Layer_0
  10
1081.352
  20
1092.514
  0
VERTEX
  5
467
  8
Layer_0
  10
1082.302
  20
1093.9641
  0
VERTEX
  5
468
  8
Layer_0
  10
1082.302
  20
1097.764
  0
VERTEX
  5
469
  8
Layer_0
  10
1081.352
  20
1099.2141
  0
VERTEX
  5
46a
  8
Layer_0
  10
1078.352
  20
1099.2141
  0
SEQEND
  0
POLYLINE
  5
46c
  8
Layer_0
  62
7
  70
1
  66
1
  10
0
  20
0
  30
0
  0
VERTEX
  5
46c
  8
Layer_0
  10
1029.252
  20
1021.4141
  0
VERTEX
  5
46d
  8
Layer_0
  10
1029.252
  20
1017.9141
  0
VERTEX
  5
46e
  8
Layer_0
  10
1030.202
  20
1016.3141
  0
VERTEX
  5
46f
  8
Layer_0
  10
1033.202
  20
1016.3141
  0
VERTEX
  5
470
  8
Layer_0
  10
1034.152
  20
1017.7642
  0
VERTEX
  5
471
  8
Layer_0
  10
1034.152
  20
1021.5641
  0
VERTEX
  5
472
  8
Layer_0
  10
1033.202
  20
1023.0142
  0
VERTEX
  5
473
  8
Layer_0
  10
1030.202
  20
1023.0142
  0
SEQEND
  0
POLYLINE
  5
475
  8
Layer_0
  62
7
  70
1
  66
1
  10
0
  20
0
  30
0
  0
VERTEX
  5
475
  8
Layer_0
  10
1003.702
  20
1113.164
  0
VERTEX
  5
476
  8
Layer_0
  10
1003.702
  20
1116.664
  0
VERTEX
  5
477
  8
Layer_0
  10
1004.652
  20
1118.264
  0
VERTEX
  5
478
  8
Layer_0
  10
1007.652
  20
1118.264
  0
VERTEX
  5
479
  8
Layer_0
  10
1008.602
  20
1116.814
  0
VERTEX
  5
47a
  8
Layer_0
  10
1008.602
  20
1113.014
  0
VERTEX
  5
47b
  8
Layer_0
  10
1007.652
  20
1111.564
  0
VERTEX
  5
47c
  8
Layer_0
  10
1004.652
  20
1111.564
  0
SEQEND
  0
POLYLINE
  5
47e
  8
Layer_0
  62
7
  70
1
  66
1
  10
0
  20
0
  30
0
  0
VERTEX
  5
47e
  8
Layer_0
  10
1058.402
  20
1097.614
  0
VERTEX
  5
47f
  8
Layer_0
  10
1058.402
  20
1094.114
  0
VERTEX
  5
480
  8
Layer_0
  10
1059.352
  20
1092.514
  0
VERTEX
  5
481
  8
Layer_0
  10
1062.352
  20
1092.514
  0
VERTEX
  5
482
  8
Layer_0
  10
1063.302
  20
1093.9641
  0
VERTEX
  5
483
  8
Layer_0
  10
1063.302
  20
1097.764
  0
VERTEX
  5
484
  8
Layer_0
  10
1062.352
  20
1099.2141
  0
VERTEX
  5
485
  8
Layer_0
  10
1059.352
  20
1099.2141
  0
SEQEND
  0
POLYLINE
  5
487
  8
Layer_0
  62
7
  70
1
  66
1
  10
0
  20
0
  30
0
  0
VERTEX
  5
487
  8
Layer_0
  10
1055.892
  20
1075.0641
  0
VERTEX
  5
488
  8
Layer_0
  10
1055.892
  20
1078.5641
  0
VERTEX
  5
489
  8
Layer_0
  10
1056.842
  20
1080.1641
  0
VERTEX
  5
48a
  8
Layer_0
  10
1059.842
  20
1080.1641
  0
VERTEX
  5
48b
  8
Layer_0
  10
1060.792
  20
1078.7141
  0
VERTEX
  5
48c
  8
Layer_0
  10
1060.792
  20
1074.9141
  0
VERTEX
  5
48d
  8
Layer_0
  10
1059.842
  20
1073.4641
  0
VERTEX
  5
48e
  8
Layer_0
  10
1056.842
  20
1073.4641
  0
SEQEND
  0
POLYLINE
  5
490
  8
Layer_0
  62
7
  70
1
  66
1
  10
0
  20
0
  30
0
  0
VERTEX
  5
490
  8
Layer_0
  10
1050.252
  20
1136.714
  0
VERTEX
  5
491
  8
Layer_0
  10
1050.252
  20
1137.514
  42
-0.41414163
  0
VERTEX
  5
492
  8
Layer_0
  10
1051.152
  20
1138.4138
  42
-0.41414163
  0
VERTEX
  5
493
  8
Layer_0
  10
1052.052
  20
1137.514
  0
VERTEX
  5
494
  8
Layer_0
  10
1052.052
  20
1136.714
  42
-0.41414163
  0
VERTEX
  5
495
  8
Layer_0
  10
1051.152
  20
1135.8141
  42
-0.41414163
  0
SEQEND
  0
POLYLINE
  5
497
  8
Layer_0
  62
7
  70
1
  66
1
  10
0
  20
0
  30
0
  0
VERTEX
  5
497
  8
Layer_0
  10
1010.202
  20
1021.4141
  0
VERTEX
  5
498
  8
Layer_0
  10
1010.202
  20
1017.9141
  0
VERTEX
  5
499
  8
Layer_0
  10
1011.152
  20
1016.3141
  0
VERTEX
  5
49a
  8
Layer_0
  10
1014.152
  20
1016.3141
  0
VERTEX
  5
49b
  8
Layer_0
  10
1015.102
  20
1017.7642
  0
VERTEX
  5
49c
  8
Layer_0
  10
1015.102
  20
1021.5641
  0
VERTEX
  5
49d
  8
Layer_0
  10
1014.152
  20
1023.0142
  0
VERTEX
  5
49e
  8
Layer_0
  10
1011.152
  20
1023.0142
  0
SEQEND
  0
POLYLINE
  5
4a0
  8
Layer_0
  62
7
  70
1
  66
1
  10
0
  20
0
  30
0
  0
VERTEX
  5
4a0
  8
Layer_0
  10
1060.802
  20
1113.164
  0
VERTEX
  5
4a1
  8
Layer_0
  10
1060.802
  20
1116.664
  0
VERTEX
  5
4a2
  8
Layer_0
  10
1061.752
  20
1118.264
  0
VERTEX
  5
4a3
  8
Layer_0
  10
1064.752
  20
1118.264
  0
VERTEX
  5
4a4
  8
Layer_0
  10
1065.702
  20
1116.814
  0
VERTEX
  5
4a5
  8
Layer_0
  10
1065.702
  20
1113.014
  0
VERTEX
  5
4a6
  8
Layer_0
  10
1064.752
  20
1111.564
  0
VERTEX
  5
4a7
  8
Layer_0
  10
1061.752
  20
1111.564
  0
SEQEND
  0
POLYLINE
  5
4a9
  8
Layer_0
  62
7
  70
1
  66
1
  10
0
  20
0
  30
0
  0
VERTEX
  5
4a9
  8
Layer_0
  10
1058.402
  20
1056.0141
  0
VERTEX
  5
4aa
  8
Layer_0
  10
1058.402
  20
1059.5141
  0
VERTEX
  5
4ab
  8
Layer_0
  10
1059.352
  20
1061.1141
  0
VERTEX
  5
4ac
  8
Layer_0
  10
1062.352
  20
1061.1141
  0
VERTEX
  5
4ad
  8
Layer_0
  10
1063.302
  20
1059.6641
  0
VERTEX
  5
4ae
  8
Layer_0
  10
1063.302
  20
1055.8641
  0
VERTEX
  5
4af
  8
Layer_0
  10
1062.352
  20
1054.4141
  0
VERTEX
  5
4b0
  8
Layer_0
  10
1059.352
  20
1054.4141
  0
SEQEND
  0
POLYLINE
  5
4b2
  8
Layer_0
  62
7
  70
1
  66
1
  10
0
  20
0
  30
0
  0
VERTEX
  5
4b2
  8
Layer_0
  10
1050.252
  20
1140.7139
  0
VERTEX
  5
4b3
  8
Layer_0
  10
1050.252
  20
1141.514
  42
-0.41414163
  0
VERTEX
  5
4b4
  8
Layer_0
  10
1051.152
  20
1142.4138
  42
-0.41414163
  0
VERTEX
  5
4b5
  8
Layer_0
  10
1052.052
  20
1141.514
  0
VERTEX
  5
4b6
  8
Layer_0
  10
1052.052
  20
1140.7139
  42
-0.41414162
  0
VERTEX
  5
4b7
  8
Layer_0
  10
1051.152
  20
1139.8141
  42
-0.41414162
  0
SEQEND
  0
POLYLINE
  5
4b9
  8
Layer_0
  62
7
  70
1
  66
1
  10
0
  20
0
  30
0
  0
VERTEX
  5
4b9
  8
Layer_0
  10
1046.052
  20
1135.214
  0
VERTEX
  5
4ba
  8
Layer_0
  10
1046.052
  20
1136.014
  42
-0.41421356
  0
VERTEX
  5
4bb
  8
Layer_0
  10
1046.952
  20
1136.9138
  42
-0.41417759
  0
VERTEX
  5
4bc
  8
Layer_0
  10
1047.852
  20
1136.014
  0
VERTEX
  5
4bd
  8
Layer_0
  10
1047.852
  20
1135.214
  42
-0.41417759
  0
VERTEX
  5
4be
  8
Layer_0
  10
1046.952
  20
1134.3141
  42
-0.41421356
  0
SEQEND
  0
POLYLINE
  5
4c0
  8
Layer_0
  62
7
  70
1
  66
1
  10
0
  20
0
  30
0
  0
VERTEX
  5
4c0
  8
Layer_0
  10
1067.352
  20
1021.4141
  0
VERTEX
  5
4c1
  8
Layer_0
  10
1067.352
  20
1017.9141
  0
VERTEX
  5
4c2
  8
Layer_0
  10
1068.302
  20
1016.3141
  0
VERTEX
  5
4c3
  8
Layer_0
  10
1071.302
  20
1016.3141
  0
VERTEX
  5
4c4
  8
Layer_0
  10
1072.252
  20
1017.7642
  0
VERTEX
  5
4c5
  8
Layer_0
  10
1072.252
  20
1021.5641
  0
VERTEX
  5
4c6
  8
Layer_0
  10
1071.302
  20
1023.0142
  0
VERTEX
  5
4c7
  8
Layer_0
  10
1068.302
  20
1023.0142
  0
SEQEND
  0
POLYLINE
  5
4c9
  8
Layer_0
  62
7
  70
1
  66
1
  10
0
  20
0
  30
0
  0
VERTEX
  5
4c9
  8
Layer_0
  10
1001.202
  20
1056.0141
  0
VERTEX
  5
4ca
  8
Layer_0
  10
1001.202
  20
1059.5141
  0
VERTEX
  5
4cb
  8
Layer_0
  10
1002.152
  20
1061.1141
  0
VERTEX
  5
4cc
  8
Layer_0
  10
1005.152
  20
1061.1141
  0
VERTEX
  5
4cd
  8
Layer_0
  10
1006.102
  20
1059.6641
  0
VERTEX
  5
4ce
  8
Layer_0
  10
1006.102
  20
1055.8641
  0
VERTEX
  5
4cf
  8
Layer_0
  10
1005.152
  20
1054.4141
  0
VERTEX
  5
4d0
  8
Layer_0
  10
1002.152
  20
1054.4141
  0
SEQEND
  0
POLYLINE
  5
4d2
  8
Layer_0
  62
7
  70
1
  66
1
  10
0
  20
0
  30
0
  0
VERTEX
  5
4d2
  8
Layer_0
  10
1067.352
  20
1040.4641
  0
VERTEX
  5
4d3
  8
Layer_0
  10
1067.352
  20
1036.9641
  0
VERTEX
  5
4d4
  8
Layer_0
  10
1068.302
  20
1035.3641
  0
VERTEX
  5
4d5
  8
Layer_0
  10
1071.302
  20
1035.3641
  0
VERTEX
  5
4d6
  8
Layer_0
  10
1072.252
  20
1036.8141
  0
VERTEX
  5
4d7
  8
Layer_0
  10
1072.252
  20
1040.6141
  0
VERTEX
  5
4d8
  8
Layer_0
  10
1071.302
  20
1042.0641
  0
VERTEX
  5
4d9
  8
Layer_0
  10
1068.302
  20
1042.0641
  0
SEQEND
  0
POLYLINE
  5
4db
  8
Layer_0
  62
7
  70
1
  66
1
  10
0
  20
0
  30
0
  0
VERTEX
  5
4db
  8
Layer_0
  10
1050.252
  20
1143.7139
  0
VERTEX
  5
4dc
  8
Layer_0
  10
1050.252
  20
1144.514
  42
-0.41414162
  0
VERTEX
  5
4dd
  8
Layer_0
  10
1051.152
  20
1145.4138
  42
-0.41414162
  0
VERTEX
  5
4de
  8
Layer_0
  10
1052.052
  20
1144.514
  0
VERTEX
  5
4df
  8
Layer_0
  10
1052.052
  20
1143.7139
  42
-0.41414163
  0
VERTEX
  5
4e0
  8
Layer_0
  10
1051.152
  20
1142.8141
  42
-0.41414163
  0
SEQEND
  0
POLYLINE
  5
4e2
  8
Layer_0
  62
7
  70
1
  66
1
  10
0
  20
0
  30
0
  0
VERTEX
  5
4e2
  8
Layer_0
  10
1089.5614
  20
1132.6941
  0
VERTEX
  5
4e3
  8
Layer_0
  10
1092.5925
  20
1130.9441
  0
VERTEX
  5
4e4
  8
Layer_0
  10
1094.4531
  20
1130.9668
  0
VERTEX
  5
4e5
  8
Layer_0
  10
1095.9531
  20
1133.5649
  0
VERTEX
  5
4e6
  8
Layer_0
  10
1095.1724
  20
1135.1125
  0
VERTEX
  5
4e7
  8
Layer_0
  10
1091.8815
  20
1137.0126
  0
VERTEX
  5
4e8
  8
Layer_0
  10
1090.1508
  20
1136.9149
  0
VERTEX
  5
4e9
  8
Layer_0
  10
1088.6508
  20
1134.3168
  0
SEQEND
  0
POLYLINE
  5
4eb
  8
Layer_0
  62
7
  70
1
  66
1
  10
0
  20
0
  30
0
  0
VERTEX
  5
4eb
  8
Layer_0
  10
998.702
  20
1075.0641
  0
VERTEX
  5
4ec
  8
Layer_0
  10
998.702
  20
1078.5641
  0
VERTEX
  5
4ed
  8
Layer_0
  10
999.65201
  20
1080.1641
  0
VERTEX
  5
4ee
  8
Layer_0
  10
1002.652
  20
1080.1641
  0
VERTEX
  5
4ef
  8
Layer_0
  10
1003.602
  20
1078.7141
  0
VERTEX
  5
4f0
  8
Layer_0
  10
1003.602
  20
1074.9141
  0
VERTEX
  5
4f1
  8
Layer_0
  10
1002.652
  20
1073.4641
  0
VERTEX
  5
4f2
  8
Layer_0
  10
999.65201
  20
1073.4641
  0
SEQEND
  0
POLYLINE
  5
4f4
  8
Layer_0
  62
7
  70
1
  66
1
  10
0
  20
0
  30
0
  0
VERTEX
  5
4f4
  8
Layer_0
  10
1020.202
  20
1056.0141
  0
VERTEX
  5
4f5
  8
Layer_0
  10
1020.202
  20
1059.5141
  0
VERTEX
  5
4f6
  8
Layer_0
  10
1021.152
  20
1061.1141
  0
VERTEX
  5
4f7
  8
Layer_0
  10
1024.152
  20
1061.1141
  0
VERTEX
  5
4f8
  8
Layer_0
  10
1025.102
  20
1059.6641
  0
VERTEX
  5
4f9
  8
Layer_0
  10
1025.102
  20
1055.8641
  0
VERTEX
  5
4fa
  8
Layer_0
  10
1024.152
  20
1054.4141
  0
VERTEX
  5
4fb
  8
Layer_0
  10
1021.152
  20
1054.4141
  0
SEQEND
  0
POLYLINE
  5
4fd
  8
Layer_0
  62
7
  70
1
  66
1
  10
0
  20
0
  30
0
  0
VERTEX
  5
4fd
  8
Layer_0
  10
1036.892
  20
1075.0641
  0
VERTEX
  5
4fe
  8
Layer_0
  10
1036.892
  20
1078.5641
  0
VERTEX
  5
4ff
  8
Layer_0
  10
1037.842
  20
1080.1641
  0
VERTEX
  5
500
  8
Layer_0
  10
1040.842
  20
1080.1641
  0
VERTEX
  5
501
  8
Layer_0
  10
1041.792
  20
1078.7141
  0
VERTEX
  5
502
  8
Layer_0
  10
1041.792
  20
1074.9141
  0
VERTEX
  5
503
  8
Layer_0
  10
1040.842
  20
1073.4641
  0
VERTEX
  5
504
  8
Layer_0
  10
1037.842
  20
1073.4641
  0
SEQEND
  0
POLYLINE
  5
506
  8
Layer_0
  62
7
  70
1
  66
1
  10
0
  20
0
  30
0
  0
VERTEX
  5
506
  8
Layer_0
  10
1041.802
  20
1113.164
  0
VERTEX
  5
507
  8
Layer_0
  10
1041.802
  20
1116.664
  0
VERTEX
  5
508
  8
Layer_0
  10
1042.752
  20
1118.264
  0
VERTEX
  5
509
  8
Layer_0
  10
1045.752
  20
1118.264
  0
VERTEX
  5
50a
  8
Layer_0
  10
1046.702
  20
1116.814
  0
VERTEX
  5
50b
  8
Layer_0
  10
1046.702
  20
1113.014
  0
VERTEX
  5
50c
  8
Layer_0
  10
1045.752
  20
1111.564
  0
VERTEX
  5
50d
  8
Layer_0
  10
1042.752
  20
1111.564
  0
SEQEND
  0
POLYLINE
  5
50f
  8
Layer_0
  62
7
  70
1
  66
1
  10
0
  20
0
  30
0
  0
VERTEX
  5
50f
  8
Layer_0
  10
1074.992
  20
1075.0641
  0
VERTEX
  5
510
  8
Layer_0
  10
1074.992
  20
1078.5641
  0
VERTEX
  5
511
  8
Layer_0
  10
1075.942
  20
1080.1641
  0
VERTEX
  5
512
  8
Layer_0
  10
1078.942
  20
1080.1641
  0
VERTEX
  5
513
  8
Layer_0
  10
1079.892
  20
1078.7141
  0
VERTEX
  5
514
  8
Layer_0
  10
1079.892
  20
1074.9141
  0
VERTEX
  5
515
  8
Layer_0
  10
1078.942
  20
1073.4641
  0
VERTEX
  5
516
  8
Layer_0
  10
1075.942
  20
1073.4641
  0
SEQEND
  0
POLYLINE
  5
518
  8
Layer_0
  62
7
  70
1
  66
1
  10
0
  20
0
  30
0
  0
VERTEX
  5
518
  8
Layer_0
  10
1001.202
  20
1097.614
  0
VERTEX
  5
519
  8
Layer_0
  10
1001.202
  20
1094.114
  0
VERTEX
  5
51a
  8
Layer_0
  10
1002.152
  20
1092.514
  0
VERTEX
  5
51b
  8
Layer_0
  10
1005.152
  20
1092.514
  0
VERTEX
  5
51c
  8
Layer_0
  10
1006.102
  20
1093.9641
  0
VERTEX
  5
51d
  8
Layer_0
  10
1006.102
  20
1097.764
  0
VERTEX
  5
51e
  8
Layer_0
  10
1005.152
  20
1099.2141
  0
VERTEX
  5
51f
  8
Layer_0
  10
1002.152
  20
1099.2141
  0
SEQEND
  0
POLYLINE
  5
521
  8
Layer_0
  62
7
  70
1
  66
1
  10
0
  20
0
  30
0
  0
VERTEX
  5
521
  8
Layer_0
  10
1039.302
  20
1097.614
  0
VERTEX
  5
522
  8
Layer_0
  10
1039.302
  20
1094.114
  0
VERTEX
  5
523
  8
Layer_0
  10
1040.252
  20
1092.514
  0
VERTEX
  5
524
  8
Layer_0
  10
1043.252
  20
1092.514
  0
VERTEX
  5
525
  8
Layer_0
  10
1044.202
  20
1093.9641
  0
VERTEX
  5
526
  8
Layer_0
  10
1044.202
  20
1097.764
  0
VERTEX
  5
527
  8
Layer_0
  10
1043.252
  20
1099.2141
  0
VERTEX
  5
528
  8
Layer_0
  10
1040.252
  20
1099.2141
  0
SEQEND
  0
POLYLINE
  5
52a
  8
Layer_0
  62
7
  70
1
  66
1
  10
0
  20
0
  30
0
  0
VERTEX
  5
52a
  8
Layer_0
  10
1048.302
  20
1040.4641
  0
VERTEX
  5
52b
  8
Layer_0
  10
1048.302
  20
1036.9641
  0
VERTEX
  5
52c
  8
Layer_0
  10
1049.252
  20
1035.3641
  0
VERTEX
  5
52d
  8
Layer_0
  10
1052.252
  20
1035.3641
  0
VERTEX
  5
52e
  8
Layer_0
  10
1053.202
  20
1036.8141
  0
VERTEX
  5
52f
  8
Layer_0
  10
1053.202
  20
1040.6141
  0
VERTEX
  5
530
  8
Layer_0
  10
1052.252
  20
1042.0641
  0
VERTEX
  5
531
  8
Layer_0
  10
1049.252
  20
1042.0641
  0
SEQEND
  0
POLYLINE
  5
533
  8
Layer_0
  62
7
  70
1
  66
1
  10
0
  20
0
  30
0
  0
VERTEX
  5
533
  8
Layer_0
  10
1039.302
  20
1056.0141
  0
VERTEX
  5
534
  8
Layer_0
  10
1039.302
  20
1059.5141
  0
VERTEX
  5
535
  8
Layer_0
  10
1040.252
  20
1061.1141
  0
VERTEX
  5
536
  8
Layer_0
  10
1043.252
  20
1061.1141
  0
VERTEX
  5
537
  8
Layer_0
  10
1044.202
  20
1059.6641
  0
VERTEX
  5
538
  8
Layer_0
  10
1044.202
  20
1055.8641
  0
VERTEX
  5
539
  8
Layer_0
  10
1043.252
  20
1054.4141
  0
VERTEX
  5
53a
  8
Layer_0
  10
1040.252
  20
1054.4141
  0
SEQEND
  0
POLYLINE
  5
53c
  8
Layer_0
  62
7
  70
1
  66
1
  10
0
  20
0
  30
0
  0
VERTEX
  5
53c
  8
Layer_0
  10
1010.202
  20
1040.4641
  0
VERTEX
  5
53d
  8
Layer_0
  10
1010.202
  20
1036.9641
  0
VERTEX
  5
53e
  8
Layer_0
  10
1011.152
  20
1035.3641
  0
VERTEX
  5
53f
  8
Layer_0
  10
1014.152
  20
1035.3641
  0
VERTEX
  5
540
  8
Layer_0
  10
1015.102
  20
1036.8141
  0
VERTEX
  5
541
  8
Layer_0
  10
1015.102
  20
1040.6141
  0
VERTEX
  5
542
  8
Layer_0
  10
1014.152
  20
1042.0641
  0
VERTEX
  5
543
  8
Layer_0
  10
1011.152
  20
1042.0641
  0
SEQEND
  0
POLYLINE
  5
545
  8
Layer_0
  62
7
  70
1
  66
1
  10
0
  20
0
  30
0
  0
VERTEX
  5
545
  8
Layer_0
  10
1077.502
  20
1056.0141
  0
VERTEX
  5
546
  8
Layer_0
  10
1077.502
  20
1059.5141
  0
VERTEX
  5
547
  8
Layer_0
  10
1078.452
  20
1061.1141
  0
VERTEX
  5
548
  8
Layer_0
  10
1081.452
  20
1061.1141
  0
VERTEX
  5
549
  8
Layer_0
  10
1082.402
  20
1059.6641
  0
VERTEX
  5
54a
  8
Layer_0
  10
1082.402
  20
1055.8641
  0
VERTEX
  5
54b
  8
Layer_0
  10
1081.452
  20
1054.4141
  0
VERTEX
  5
54c
  8
Layer_0
  10
1078.452
  20
1054.4141
  0
SEQEND
  0
POLYLINE
  5
54e
  8
Layer_0
  62
7
  70
1
  66
1
  10
0
  20
0
  30
0
  0
VERTEX
  5
54e
  8
Layer_0
  10
1080.6443
  20
1111.3167
  0
VERTEX
  5
54f
  8
Layer_0
  10
1080.6743
  20
1106.1367
  0
VERTEX
  5
550
  8
Layer_0
  10
1085.8743
  20
1106.1367
  42
0.0058090359
  0
VERTEX
  5
551
  8
Layer_0
  10
1085.8443
  20
1113.1167
  0
VERTEX
  5
552
  8
Layer_0
  10
1080.6443
  20
1113.1167
  0
SEQEND
  0
POLYLINE
  5
554
  8
Layer_0
  62
7
  70
1
  66
1
  10
0
  20
0
  30
0
  0
VERTEX
  5
554
  8
Layer_0
  10
1046.052
  20
1133.1641
  0
VERTEX
  5
555
  8
Layer_0
  10
1046.052
  20
1126.1641
  0
VERTEX
  5
556
  8
Layer_0
  10
1050.252
  20
1126.1641
  0
VERTEX
  5
557
  8
Layer_0
  10
1050.252
  20
1133.1641
  0
SEQEND
  0
POLYLINE
  5
559
  8
Layer_0
  62
7
  70
1
  66
1
  10
0
  20
0
  30
0
  0
VERTEX
  5
559
  8
Layer_0
  10
1079.872
  20
1053.864
  0
VERTEX
  5
55a
  8
Layer_0
  10
1079.872
  20
1046.864
  0
VERTEX
  5
55b
  8
Layer_0
  10
1084.072
  20
1046.864
  0
VERTEX
  5
55c
  8
Layer_0
  10
1084.072
  20
1053.864
  0
SEQEND
  0
POLYLINE
  5
55e
  8
Layer_0
  62
7
  70
1
  66
1
  10
0
  20
0
  30
0
  0
VERTEX
  5
55e
  8
Layer_0
  10
1077.8146
  20
1089.8304
  0
VERTEX
  5
55f
  8
Layer_0
  10
1077.8146
  20
1082.8304
  0
VERTEX
  5
560
  8
Layer_0
  10
1082.0146
  20
1082.8304
  0
VERTEX
  5
561
  8
Layer_0
  10
1082.0146
  20
1089.8304
  0
SEQEND
  0
POLYLINE
  5
563
  8
Layer_0
  62
7
  70
1
  66
1
  10
0
  20
0
  30
0
  0
VERTEX
  5
563
  8
Layer_0
  10
1067.002
  20
1122.514
  0
VERTEX
  5
564
  8
Layer_0
  10
1067.002
  20
1126.854
  0
VERTEX
  5
565
  8
Layer_0
  10
1061.802
  20
1126.854
  0
VERTEX
  5
566
  8
Layer_0
  10
1061.802
  20
1122.514
  0
VERTEX
  5
567
  8
Layer_0
  10
1067.002
  20
1122.514
  0
SEQEND
  0
POLYLINE
  5
569
  8
Layer_0
  62
7
  70
1
  66
1
  10
0
  20
0
  30
0
  0
VERTEX
  5
569
  8
Layer_0
  10
1047.927
  20
1103.264
  42
0.018169792
  0
VERTEX
  5
56a
  8
Layer_0
  10
1048.027
  20
1107.814
  0
VERTEX
  5
56b
  8
Layer_0
  10
1042.827
  20
1107.814
  42
0.018199964
  0
VERTEX
  5
56c
  8
Layer_0
  10
1042.727
  20
1103.264
  0
SEQEND
  0
POLYLINE
  5
56e
  8
Layer_0
  62
7
  70
1
  66
1
  10
0
  20
0
  30
0
  0
VERTEX
  5
56e
  8
Layer_0
  10
1028.052
  20
1104.7141
  42
0.0041616199
  0
VERTEX
  5
56f
  8
Layer_0
  10
1028.027
  20
1109.514
  0
VERTEX
  5
570
  8
Layer_0
  10
1022.827
  20
1109.514
  42
0.0041802298
  0
VERTEX
  5
571
  8
Layer_0
  10
1022.852
  20
1104.7141
  0
SEQEND
  0
POLYLINE
  5
573
  8
Layer_0
  62
7
  70
1
  66
1
  10
0
  20
0
  30
0
  0
VERTEX
  5
573
  8
Layer_0
  10
1010.0325
  20
1103.514
  42
0.0012339066
  0
VERTEX
  5
574
  8
Layer_0
  10
1010.027
  20
1107.564
  0
VERTEX
  5
575
  8
Layer_0
  10
1004.827
  20
1107.564
  42
0.0012321877
  0
VERTEX
  5
576
  8
Layer_0
  10
1004.8325
  20
1103.514
  0
SEQEND
  0
POLYLINE
  5
578
  8
Layer_0
  62
7
  70
1
  66
1
  10
0
  20
0
  30
0
  0
VERTEX
  5
578
  8
Layer_0
  10
1012.802
  20
1088.514
  0
VERTEX
  5
579
  8
Layer_0
  10
1008.7763
  20
1089.774
  42
-0.23691353
  0
VERTEX
  5
57a
  8
Layer_0
  10
1008.1336
  20
1090.4739
  0
VERTEX
  5
57b
  8
Layer_0
  10
1006.9521
  20
1095.3641
  42
-0.11224422
  0
VERTEX
  5
57c
  8
Layer_0
  10
1006.9521
  20
1096.3641
  0
VERTEX
  5
57d
  8
Layer_0
  10
1008.1336
  20
1101.2543
  0
VERTEX
  5
57e
  8
Layer_0
  10
1008.302
  20
1101.6141
  0
VERTEX
  5
57f
  8
Layer_0
  10
1010.302
  20
1104.4641
  0
VERTEX
  5
580
  8
Layer_0
  10
1013.1021
  20
1104.4641
  0
VERTEX
  5
581
  8
Layer_0
  10
1015.609
  20
1101.1879
  42
-0.16750619
  0
VERTEX
  5
582
  8
Layer_0
  10
1016.0821
  20
1099.8325
  0
VERTEX
  5
583
  8
Layer_0
  10
1016.0821
  20
1091.3641
  0
VERTEX
  5
584
  8
Layer_0
  10
1015.7021
  20
1088.514
  0
SEQEND
  0
POLYLINE
  5
586
  8
Layer_0
  62
7
  70
1
  66
1
  10
0
  20
0
  30
0
  0
VERTEX
  5
586
  8
Layer_0
  10
1012.802
  20
1050.4141
  0
VERTEX
  5
587
  8
Layer_0
  10
1008.7763
  20
1051.674
  42
-0.23691353
  0
VERTEX
  5
588
  8
Layer_0
  10
1008.1336
  20
1052.3739
  0
VERTEX
  5
589
  8
Layer_0
  10
1006.9521
  20
1057.264
  42
-0.11224422
  0
VERTEX
  5
58a
  8
Layer_0
  10
1006.9521
  20
1058.264
  0
VERTEX
  5
58b
  8
Layer_0
  10
1008.1336
  20
1063.1543
  0
VERTEX
  5
58c
  8
Layer_0
  10
1008.302
  20
1063.514
  0
VERTEX
  5
58d
  8
Layer_0
  10
1010.302
  20
1066.3641
  0
VERTEX
  5
58e
  8
Layer_0
  10
1013.1021
  20
1066.3641
  0
VERTEX
  5
58f
  8
Layer_0
  10
1015.609
  20
1063.0879
  42
-0.16750619
  0
VERTEX
  5
590
  8
Layer_0
  10
1016.0821
  20
1061.7325
  0
VERTEX
  5
591
  8
Layer_0
  10
1016.0821
  20
1053.264
  0
VERTEX
  5
592
  8
Layer_0
  10
1015.7021
  20
1050.4141
  0
SEQEND
  0
POLYLINE
  5
594
  8
Layer_0
  62
7
  70
1
  66
1
  10
0
  20
0
  30
0
  0
VERTEX
  5
594
  8
Layer_0
  10
1021.802
  20
1012.3141
  0
VERTEX
  5
595
  8
Layer_0
  10
1017.7763
  20
1013.574
  42
-0.23693605
  0
VERTEX
  5
596
  8
Layer_0
  10
1017.1336
  20
1014.2739
  0
VERTEX
  5
597
  8
Layer_0
  10
1015.9521
  20
1019.1641
  42
-0.11224422
  0
VERTEX
  5
598
  8
Layer_0
  10
1015.9521
  20
1020.1641
  0
VERTEX
  5
599
  8
Layer_0
  10
1017.1336
  20
1025.0543
  0
VERTEX
  5
59a
  8
Layer_0
  10
1017.302
  20
1025.4141
  0
VERTEX
  5
59b
  8
Layer_0
  10
1019.302
  20
1028.264
  0
VERTEX
  5
59c
  8
Layer_0
  10
1022.1021
  20
1028.264
  0
VERTEX
  5
59d
  8
Layer_0
  10
1024.609
  20
1024.9879
  42
-0.16750619
  0
VERTEX
  5
59e
  8
Layer_0
  10
1025.0821
  20
1023.6324
  0
VERTEX
  5
59f
  8
Layer_0
  10
1025.0821
  20
1015.1641
  0
VERTEX
  5
5a0
  8
Layer_0
  10
1024.7021
  20
1012.3141
  0
SEQEND
  0
POLYLINE
  5
5a2
  8
Layer_0
  62
7
  70
1
  66
1
  10
0
  20
0
  30
0
  0
VERTEX
  5
5a2
  8
Layer_0
  10
1040.8521
  20
1031.3641
  0
VERTEX
  5
5a3
  8
Layer_0
  10
1036.8264
  20
1032.624
  42
-0.23699947
  0
VERTEX
  5
5a4
  8
Layer_0
  10
1036.1837
  20
1033.3239
  0
VERTEX
  5
5a5
  8
Layer_0
  10
1035.002
  20
1038.2141
  42
-0.11215494
  0
VERTEX
  5
5a6
  8
Layer_0
  10
1035.002
  20
1039.2141
  0
VERTEX
  5
5a7
  8
Layer_0
  10
1036.1837
  20
1044.1042
  0
VERTEX
  5
5a8
  8
Layer_0
  10
1036.3521
  20
1044.4641
  0
VERTEX
  5
5a9
  8
Layer_0
  10
1038.3521
  20
1047.3141
  0
VERTEX
  5
5aa
  8
Layer_0
  10
1041.1521
  20
1047.3141
  0
VERTEX
  5
5ab
  8
Layer_0
  10
1043.6591
  20
1044.0378
  42
-0.16749102
  0
VERTEX
  5
5ac
  8
Layer_0
  10
1044.132
  20
1042.6825
  0
VERTEX
  5
5ad
  8
Layer_0
  10
1044.132
  20
1034.2141
  0
VERTEX
  5
5ae
  8
Layer_0
  10
1043.752
  20
1031.3641
  0
SEQEND
  0
POLYLINE
  5
5b0
  8
Layer_0
  62
7
  70
1
  66
1
  10
0
  20
0
  30
0
  0
VERTEX
  5
5b0
  8
Layer_0
  10
1040.8521
  20
1012.3141
  0
VERTEX
  5
5b1
  8
Layer_0
  10
1036.8264
  20
1013.574
  42
-0.23699947
  0
VERTEX
  5
5b2
  8
Layer_0
  10
1036.1837
  20
1014.2739
  0
VERTEX
  5
5b3
  8
Layer_0
  10
1035.002
  20
1019.1641
  42
-0.11215494
  0
VERTEX
  5
5b4
  8
Layer_0
  10
1035.002
  20
1020.1641
  0
VERTEX
  5
5b5
  8
Layer_0
  10
1036.1837
  20
1025.0543
  0
VERTEX
  5
5b6
  8
Layer_0
  10
1036.3521
  20
1025.4141
  0
VERTEX
  5
5b7
  8
Layer_0
  10
1038.3521
  20
1028.264
  0
VERTEX
  5
5b8
  8
Layer_0
  10
1041.1521
  20
1028.264
  0
VERTEX
  5
5b9
  8
Layer_0
  10
1043.6591
  20
1024.9879
  42
-0.16748115
  0
VERTEX
  5
5ba
  8
Layer_0
  10
1044.132
  20
1023.6324
  0
VERTEX
  5
5bb
  8
Layer_0
  10
1044.132
  20
1015.1641
  0
VERTEX
  5
5bc
  8
Layer_0
  10
1043.752
  20
1012.3141
  0
SEQEND
  0
POLYLINE
  5
5be
  8
Layer_0
  62
7
  70
1
  66
1
  10
0
  20
0
  30
0
  0
VERTEX
  5
5be
  8
Layer_0
  10
1029.3921
  20
1069.4641
  0
VERTEX
  5
5bf
  8
Layer_0
  10
1025.3664
  20
1070.724
  42
-0.23689761
  0
VERTEX
  5
5c0
  8
Layer_0
  10
1024.7237
  20
1071.4239
  0
VERTEX
  5
5c1
  8
Layer_0
  10
1023.5421
  20
1076.3141
  42
-0.11224422
  0
VERTEX
  5
5c2
  8
Layer_0
  10
1023.5421
  20
1077.3141
  0
VERTEX
  5
5c3
  8
Layer_0
  10
1024.7237
  20
1082.2043
  0
VERTEX
  5
5c4
  8
Layer_0
  10
1024.8921
  20
1082.5641
  0
VERTEX
  5
5c5
  8
Layer_0
  10
1026.8921
  20
1085.4141
  0
VERTEX
  5
5c6
  8
Layer_0
  10
1029.692
  20
1085.4141
  0
VERTEX
  5
5c7
  8
Layer_0
  10
1032.1991
  20
1082.1379
  42
-0.16749102
  0
VERTEX
  5
5c8
  8
Layer_0
  10
1032.672
  20
1080.7825
  0
VERTEX
  5
5c9
  8
Layer_0
  10
1032.672
  20
1072.3141
  0
VERTEX
  5
5ca
  8
Layer_0
  10
1032.2921
  20
1069.4641
  0
SEQEND
  0
POLYLINE
  5
5cc
  8
Layer_0
  62
7
  70
1
  66
1
  10
0
  20
0
  30
0
  0
VERTEX
  5
5cc
  8
Layer_0
  10
1031.802
  20
1050.4141
  0
VERTEX
  5
5cd
  8
Layer_0
  10
1027.7763
  20
1051.674
  42
-0.23691353
  0
VERTEX
  5
5ce
  8
Layer_0
  10
1027.1336
  20
1052.3739
  0
VERTEX
  5
5cf
  8
Layer_0
  10
1025.9521
  20
1057.264
  42
-0.11224422
  0
VERTEX
  5
5d0
  8
Layer_0
  10
1025.9521
  20
1058.264
  0
VERTEX
  5
5d1
  8
Layer_0
  10
1027.1336
  20
1063.1543
  0
VERTEX
  5
5d2
  8
Layer_0
  10
1027.302
  20
1063.514
  0
VERTEX
  5
5d3
  8
Layer_0
  10
1029.302
  20
1066.3641
  0
VERTEX
  5
5d4
  8
Layer_0
  10
1032.1021
  20
1066.3641
  0
VERTEX
  5
5d5
  8
Layer_0
  10
1034.609
  20
1063.0879
  42
-0.16750619
  0
VERTEX
  5
5d6
  8
Layer_0
  10
1035.0821
  20
1061.7325
  0
VERTEX
  5
5d7
  8
Layer_0
  10
1035.0821
  20
1053.264
  0
VERTEX
  5
5d8
  8
Layer_0
  10
1034.7021
  20
1050.4141
  0
SEQEND
  0
POLYLINE
  5
5da
  8
Layer_0
  62
7
  70
1
  66
1
  10
0
  20
0
  30
0
  0
VERTEX
  5
5da
  8
Layer_0
  10
1034.4021
  20
1107.5641
  0
VERTEX
  5
5db
  8
Layer_0
  10
1030.3764
  20
1108.824
  42
-0.23695986
  0
VERTEX
  5
5dc
  8
Layer_0
  10
1029.7337
  20
1109.5239
  0
VERTEX
  5
5dd
  8
Layer_0
  10
1028.552
  20
1114.4141
  42
-0.11214987
  0
VERTEX
  5
5de
  8
Layer_0
  10
1028.552
  20
1115.4141
  0
VERTEX
  5
5df
  8
Layer_0
  10
1029.7337
  20
1120.3043
  0
VERTEX
  5
5e0
  8
Layer_0
  10
1029.9021
  20
1120.6641
  0
VERTEX
  5
5e1
  8
Layer_0
  10
1031.9021
  20
1123.514
  0
VERTEX
  5
5e2
  8
Layer_0
  10
1034.7021
  20
1123.514
  0
VERTEX
  5
5e3
  8
Layer_0
  10
1037.2091
  20
1120.2379
  42
-0.16749102
  0
VERTEX
  5
5e4
  8
Layer_0
  10
1037.682
  20
1118.8824
  0
VERTEX
  5
5e5
  8
Layer_0
  10
1037.682
  20
1110.4141
  0
VERTEX
  5
5e6
  8
Layer_0
  10
1037.302
  20
1107.5641
  0
SEQEND
  0
POLYLINE
  5
5e8
  8
Layer_0
  62
7
  70
1
  66
1
  10
0
  20
0
  30
0
  0
VERTEX
  5
5e8
  8
Layer_0
  10
1031.9021
  20
1088.514
  0
VERTEX
  5
5e9
  8
Layer_0
  10
1027.8764
  20
1089.774
  42
-0.23695986
  0
VERTEX
  5
5ea
  8
Layer_0
  10
1027.2337
  20
1090.4739
  0
VERTEX
  5
5eb
  8
Layer_0
  10
1026.052
  20
1095.3641
  42
-0.11215494
  0
VERTEX
  5
5ec
  8
Layer_0
  10
1026.052
  20
1096.3641
  0
VERTEX
  5
5ed
  8
Layer_0
  10
1027.2337
  20
1101.2543
  0
VERTEX
  5
5ee
  8
Layer_0
  10
1027.4021
  20
1101.6141
  0
VERTEX
  5
5ef
  8
Layer_0
  10
1029.4021
  20
1104.4641
  0
VERTEX
  5
5f0
  8
Layer_0
  10
1032.2021
  20
1104.4641
  0
VERTEX
  5
5f1
  8
Layer_0
  10
1034.7091
  20
1101.1879
  42
-0.16748115
  0
VERTEX
  5
5f2
  8
Layer_0
  10
1035.182
  20
1099.8325
  0
VERTEX
  5
5f3
  8
Layer_0
  10
1035.182
  20
1091.3641
  0
VERTEX
  5
5f4
  8
Layer_0
  10
1034.802
  20
1088.514
  0
SEQEND
  0
POLYLINE
  5
5f6
  8
Layer_0
  62
7
  70
1
  66
1
  10
0
  20
0
  30
0
  0
VERTEX
  5
5f6
  8
Layer_0
  10
1050.9021
  20
1088.514
  0
VERTEX
  5
5f7
  8
Layer_0
  10
1046.8764
  20
1089.774
  42
-0.23691353
  0
VERTEX
  5
5f8
  8
Layer_0
  10
1046.2337
  20
1090.4739
  0
VERTEX
  5
5f9
  8
Layer_0
  10
1045.052
  20
1095.3641
  42
-0.11215494
  0
VERTEX
  5
5fa
  8
Layer_0
  10
1045.052
  20
1096.3641
  0
VERTEX
  5
5fb
  8
Layer_0
  10
1046.2337
  20
1101.2543
  0
VERTEX
  5
5fc
  8
Layer_0
  10
1046.4021
  20
1101.6141
  0
VERTEX
  5
5fd
  8
Layer_0
  10
1048.4021
  20
1104.4641
  0
VERTEX
  5
5fe
  8
Layer_0
  10
1051.2021
  20
1104.4641
  0
VERTEX
  5
5ff
  8
Layer_0
  10
1053.7091
  20
1101.1879
  42
-0.16748115
  0
VERTEX
  5
600
  8
Layer_0
  10
1054.182
  20
1099.8325
  0
VERTEX
  5
601
  8
Layer_0
  10
1054.182
  20
1091.3641
  0
VERTEX
  5
602
  8
Layer_0
  10
1053.802
  20
1088.514
  0
SEQEND
  0
POLYLINE
  5
604
  8
Layer_0
  62
7
  70
1
  66
1
  10
0
  20
0
  30
0
  0
VERTEX
  5
604
  8
Layer_0
  10
1053.4021
  20
1107.5641
  0
VERTEX
  5
605
  8
Layer_0
  10
1049.3764
  20
1108.824
  42
-0.23691353
  0
VERTEX
  5
606
  8
Layer_0
  10
1048.7337
  20
1109.5239
  0
VERTEX
  5
607
  8
Layer_0
  10
1047.552
  20
1114.4141
  42
-0.11214987
  0
VERTEX
  5
608
  8
Layer_0
  10
1047.552
  20
1115.4141
  0
VERTEX
  5
609
  8
Layer_0
  10
1048.7337
  20
1120.3043
  0
VERTEX
  5
60a
  8
Layer_0
  10
1048.9021
  20
1120.6641
  0
VERTEX
  5
60b
  8
Layer_0
  10
1050.9021
  20
1123.514
  0
VERTEX
  5
60c
  8
Layer_0
  10
1053.7021
  20
1123.514
  0
VERTEX
  5
60d
  8
Layer_0
  10
1056.2091
  20
1120.2379
  42
-0.16748115
  0
VERTEX
  5
60e
  8
Layer_0
  10
1056.682
  20
1118.8824
  0
VERTEX
  5
60f
  8
Layer_0
  10
1056.682
  20
1110.4141
  0
VERTEX
  5
610
  8
Layer_0
  10
1056.302
  20
1107.5641
  0
SEQEND
  0
POLYLINE
  5
612
  8
Layer_0
  62
7
  70
1
  66
1
  10
0
  20
0
  30
0
  0
VERTEX
  5
612
  8
Layer_0
  10
1070.002
  20
1088.514
  0
VERTEX
  5
613
  8
Layer_0
  10
1065.9763
  20
1089.774
  42
-0.23691353
  0
VERTEX
  5
614
  8
Layer_0
  10
1065.3336
  20
1090.4739
  0
VERTEX
  5
615
  8
Layer_0
  10
1064.1521
  20
1095.3641
  42
-0.11215494
  0
VERTEX
  5
616
  8
Layer_0
  10
1064.1521
  20
1096.3641
  0
VERTEX
  5
617
  8
Layer_0
  10
1065.3336
  20
1101.2543
  0
VERTEX
  5
618
  8
Layer_0
  10
1065.502
  20
1101.6141
  0
VERTEX
  5
619
  8
Layer_0
  10
1067.502
  20
1104.4641
  0
VERTEX
  5
61a
  8
Layer_0
  10
1070.302
  20
1104.4641
  0
VERTEX
  5
61b
  8
Layer_0
  10
1072.8091
  20
1101.1879
  42
-0.16750619
  0
VERTEX
  5
61c
  8
Layer_0
  10
1073.2821
  20
1099.8325
  0
VERTEX
  5
61d
  8
Layer_0
  10
1073.2821
  20
1091.3641
  0
VERTEX
  5
61e
  8
Layer_0
  10
1072.9021
  20
1088.514
  0
SEQEND
  0
POLYLINE
  5
620
  8
Layer_0
  62
7
  70
1
  66
1
  10
0
  20
0
  30
0
  0
VERTEX
  5
620
  8
Layer_0
  10
1072.4021
  20
1107.5641
  0
VERTEX
  5
621
  8
Layer_0
  10
1068.3764
  20
1108.824
  42
-0.23691353
  0
VERTEX
  5
622
  8
Layer_0
  10
1067.7337
  20
1109.5239
  0
VERTEX
  5
623
  8
Layer_0
  10
1066.552
  20
1114.4141
  42
-0.11214987
  0
VERTEX
  5
624
  8
Layer_0
  10
1066.552
  20
1115.4141
  0
VERTEX
  5
625
  8
Layer_0
  10
1067.7337
  20
1120.3043
  0
VERTEX
  5
626
  8
Layer_0
  10
1067.9021
  20
1120.6641
  0
VERTEX
  5
627
  8
Layer_0
  10
1069.9021
  20
1123.514
  0
VERTEX
  5
628
  8
Layer_0
  10
1072.7021
  20
1123.514
  0
VERTEX
  5
629
  8
Layer_0
  10
1075.2091
  20
1120.2379
  42
-0.16748115
  0
VERTEX
  5
62a
  8
Layer_0
  10
1075.682
  20
1118.8824
  0
VERTEX
  5
62b
  8
Layer_0
  10
1075.682
  20
1110.4141
  0
VERTEX
  5
62c
  8
Layer_0
  10
1075.302
  20
1107.5641
  0
SEQEND
  0
POLYLINE
  5
62e
  8
Layer_0
  62
7
  70
1
  66
1
  10
0
  20
0
  30
0
  0
VERTEX
  5
62e
  8
Layer_0
  10
1091.6753
  20
1109.7698
  0
VERTEX
  5
62f
  8
Layer_0
  10
1088.1129
  20
1112.0287
  42
-0.23693565
  0
VERTEX
  5
630
  8
Layer_0
  10
1087.6732
  20
1112.8712
  0
VERTEX
  5
631
  8
Layer_0
  10
1087.7976
  20
1117.9005
  42
-0.11225774
  0
VERTEX
  5
632
  8
Layer_0
  10
1088.0564
  20
1118.8665
  0
VERTEX
  5
633
  8
Layer_0
  10
1090.4633
  20
1123.2842
  0
VERTEX
  5
634
  8
Layer_0
  10
1090.7191
  20
1123.5881
  0
VERTEX
  5
635
  8
Layer_0
  10
1093.3886
  20
1125.8234
  0
VERTEX
  5
636
  8
Layer_0
  10
1096.0933
  20
1125.0986
  0
VERTEX
  5
637
  8
Layer_0
  10
1097.667
  20
1121.2853
  42
-0.16745749
  0
VERTEX
  5
638
  8
Layer_0
  10
1097.773
  20
1119.8536
  0
VERTEX
  5
639
  8
Layer_0
  10
1095.5811
  20
1111.6738
  0
VERTEX
  5
63a
  8
Layer_0
  10
1094.4766
  20
1109.0193
  0
SEQEND
  0
POLYLINE
  5
63c
  8
Layer_0
  62
7
  70
1
  66
1
  10
0
  20
0
  30
0
  0
VERTEX
  5
63c
  8
Layer_0
  10
1089.002
  20
1088.514
  0
VERTEX
  5
63d
  8
Layer_0
  10
1084.9763
  20
1089.7739
  42
-0.23691353
  0
VERTEX
  5
63e
  8
Layer_0
  10
1084.3336
  20
1090.4739
  0
VERTEX
  5
63f
  8
Layer_0
  10
1083.1521
  20
1095.364
  42
-0.11215494
  0
VERTEX
  5
640
  8
Layer_0
  10
1083.1521
  20
1096.364
  0
VERTEX
  5
641
  8
Layer_0
  10
1084.3336
  20
1101.2543
  0
VERTEX
  5
642
  8
Layer_0
  10
1084.502
  20
1101.614
  0
VERTEX
  5
643
  8
Layer_0
  10
1086.502
  20
1104.4641
  0
VERTEX
  5
644
  8
Layer_0
  10
1089.302
  20
1104.4641
  0
VERTEX
  5
645
  8
Layer_0
  10
1091.8091
  20
1101.1879
  42
-0.16750619
  0
VERTEX
  5
646
  8
Layer_0
  10
1092.2821
  20
1099.8325
  0
VERTEX
  5
647
  8
Layer_0
  10
1092.2821
  20
1091.364
  0
VERTEX
  5
648
  8
Layer_0
  10
1091.9021
  20
1088.514
  0
SEQEND
  0
POLYLINE
  5
64a
  8
Layer_0
  62
7
  70
1
  66
1
  10
0
  20
0
  30
0
  0
VERTEX
  5
64a
  8
Layer_0
  10
1103.2423
  20
1138.1901
  0
VERTEX
  5
64b
  8
Layer_0
  10
1100.1383
  20
1135.3336
  42
-0.23695578
  0
VERTEX
  5
64c
  8
Layer_0
  10
1099.2108
  20
1135.1271
  0
VERTEX
  5
64d
  8
Layer_0
  10
1094.385
  20
1136.5488
  42
-0.11220978
  0
VERTEX
  5
64e
  8
Layer_0
  10
1093.5191
  20
1137.0488
  0
VERTEX
  5
64f
  8
Layer_0
  10
1089.8748
  20
1140.5172
  0
VERTEX
  5
650
  8
Layer_0
  10
1089.6474
  20
1140.843
  0
VERTEX
  5
651
  8
Layer_0
  10
1088.1792
  20
1143.9999
  0
VERTEX
  5
652
  8
Layer_0
  10
1089.5791
  20
1146.4249
  0
VERTEX
  5
653
  8
Layer_0
  10
1093.67
  20
1146.9579
  42
-0.16749413
  0
VERTEX
  5
654
  8
Layer_0
  10
1095.0802
  20
1146.6898
  0
VERTEX
  5
655
  8
Layer_0
  10
1102.4142
  20
1142.4556
  0
VERTEX
  5
656
  8
Layer_0
  10
1104.6924
  20
1140.7015
  0
SEQEND
  0
POLYLINE
  5
658
  8
Layer_0
  62
7
  70
1
  66
1
  10
0
  20
0
  30
0
  0
VERTEX
  5
658
  8
Layer_0
  10
1086.5921
  20
1069.4641
  0
VERTEX
  5
659
  8
Layer_0
  10
1082.5664
  20
1070.7239
  42
-0.23696103
  0
VERTEX
  5
65a
  8
Layer_0
  10
1081.9237
  20
1071.4238
  0
VERTEX
  5
65b
  8
Layer_0
  10
1080.7421
  20
1076.3141
  42
-0.11224422
  0
VERTEX
  5
65c
  8
Layer_0
  10
1080.7421
  20
1077.3141
  0
VERTEX
  5
65d
  8
Layer_0
  10
1081.9237
  20
1082.2042
  0
VERTEX
  5
65e
  8
Layer_0
  10
1082.0921
  20
1082.5641
  0
VERTEX
  5
65f
  8
Layer_0
  10
1084.0921
  20
1085.4141
  0
VERTEX
  5
660
  8
Layer_0
  10
1086.8921
  20
1085.4141
  0
VERTEX
  5
661
  8
Layer_0
  10
1089.3991
  20
1082.1378
  42
-0.16748115
  0
VERTEX
  5
662
  8
Layer_0
  10
1089.872
  20
1080.7825
  0
VERTEX
  5
663
  8
Layer_0
  10
1089.872
  20
1072.3141
  0
VERTEX
  5
664
  8
Layer_0
  10
1089.4921
  20
1069.4641
  0
SEQEND
  0
POLYLINE
  5
666
  8
Layer_0
  62
7
  70
1
  66
1
  10
0
  20
0
  30
0
  0
VERTEX
  5
666
  8
Layer_0
  10
1078.9521
  20
1031.3641
  0
VERTEX
  5
667
  8
Layer_0
  10
1074.9264
  20
1032.624
  42
-0.23693605
  0
VERTEX
  5
668
  8
Layer_0
  10
1074.2837
  20
1033.3239
  0
VERTEX
  5
669
  8
Layer_0
  10
1073.1021
  20
1038.2141
  42
-0.11224422
  0
VERTEX
  5
66a
  8
Layer_0
  10
1073.1021
  20
1039.2141
  0
VERTEX
  5
66b
  8
Layer_0
  10
1074.2837
  20
1044.1042
  0
VERTEX
  5
66c
  8
Layer_0
  10
1074.4521
  20
1044.4641
  0
VERTEX
  5
66d
  8
Layer_0
  10
1076.4521
  20
1047.3141
  0
VERTEX
  5
66e
  8
Layer_0
  10
1079.252
  20
1047.3141
  0
VERTEX
  5
66f
  8
Layer_0
  10
1081.7591
  20
1044.0378
  42
-0.16745914
  0
VERTEX
  5
670
  8
Layer_0
  10
1082.2321
  20
1042.6824
  0
VERTEX
  5
671
  8
Layer_0
  10
1082.2321
  20
1034.2141
  0
VERTEX
  5
672
  8
Layer_0
  10
1081.8521
  20
1031.3641
  0
SEQEND
  0
POLYLINE
  5
674
  8
Layer_0
  62
7
  70
1
  66
1
  10
0
  20
0
  30
0
  0
VERTEX
  5
674
  8
Layer_0
  10
1089.1021
  20
1050.4141
  0
VERTEX
  5
675
  8
Layer_0
  10
1085.0763
  20
1051.674
  42
-0.23691353
  0
VERTEX
  5
676
  8
Layer_0
  10
1084.4336
  20
1052.3738
  0
VERTEX
  5
677
  8
Layer_0
  10
1083.252
  20
1057.264
  42
-0.11215494
  0
VERTEX
  5
678
  8
Layer_0
  10
1083.252
  20
1058.264
  0
VERTEX
  5
679
  8
Layer_0
  10
1084.4336
  20
1063.1542
  0
VERTEX
  5
67a
  8
Layer_0
  10
1084.6021
  20
1063.514
  0
VERTEX
  5
67b
  8
Layer_0
  10
1086.6021
  20
1066.364
  0
VERTEX
  5
67c
  8
Layer_0
  10
1089.4021
  20
1066.364
  0
VERTEX
  5
67d
  8
Layer_0
  10
1091.9091
  20
1063.0879
  42
-0.16748115
  0
VERTEX
  5
67e
  8
Layer_0
  10
1092.382
  20
1061.7324
  0
VERTEX
  5
67f
  8
Layer_0
  10
1092.382
  20
1053.264
  0
VERTEX
  5
680
  8
Layer_0
  10
1092.002
  20
1050.4141
  0
SEQEND
  0
POLYLINE
  5
682
  8
Layer_0
  62
7
  70
1
  66
1
  10
0
  20
0
  30
0
  0
VERTEX
  5
682
  8
Layer_0
  10
1078.9521
  20
1012.3141
  0
VERTEX
  5
683
  8
Layer_0
  10
1074.9264
  20
1013.574
  42
-0.23698238
  0
VERTEX
  5
684
  8
Layer_0
  10
1074.2837
  20
1014.2739
  0
VERTEX
  5
685
  8
Layer_0
  10
1073.1021
  20
1019.1641
  42
-0.11224422
  0
VERTEX
  5
686
  8
Layer_0
  10
1073.1021
  20
1020.1641
  0
VERTEX
  5
687
  8
Layer_0
  10
1074.2837
  20
1025.0543
  0
VERTEX
  5
688
  8
Layer_0
  10
1074.4521
  20
1025.4141
  0
VERTEX
  5
689
  8
Layer_0
  10
1076.4521
  20
1028.264
  0
VERTEX
  5
68a
  8
Layer_0
  10
1079.252
  20
1028.264
  0
VERTEX
  5
68b
  8
Layer_0
  10
1081.7591
  20
1024.9879
  42
-0.16745914
  0
VERTEX
  5
68c
  8
Layer_0
  10
1082.2321
  20
1023.6324
  0
VERTEX
  5
68d
  8
Layer_0
  10
1082.2321
  20
1015.1641
  0
VERTEX
  5
68e
  8
Layer_0
  10
1081.8521
  20
1012.3141
  0
SEQEND
  0
POLYLINE
  5
690
  8
Layer_0
  62
7
  70
1
  66
1
  10
0
  20
0
  30
0
  0
VERTEX
  5
690
  8
Layer_0
  10
1059.9021
  20
1012.3141
  0
VERTEX
  5
691
  8
Layer_0
  10
1055.8764
  20
1013.574
  42
-0.23698238
  0
VERTEX
  5
692
  8
Layer_0
  10
1055.2337
  20
1014.2739
  0
VERTEX
  5
693
  8
Layer_0
  10
1054.052
  20
1019.1641
  42
-0.11215494
  0
VERTEX
  5
694
  8
Layer_0
  10
1054.052
  20
1020.1641
  0
VERTEX
  5
695
  8
Layer_0
  10
1055.2337
  20
1025.0543
  0
VERTEX
  5
696
  8
Layer_0
  10
1055.4021
  20
1025.4141
  0
VERTEX
  5
697
  8
Layer_0
  10
1057.4021
  20
1028.264
  0
VERTEX
  5
698
  8
Layer_0
  10
1060.2021
  20
1028.264
  0
VERTEX
  5
699
  8
Layer_0
  10
1062.7091
  20
1024.9879
  42
-0.16749102
  0
VERTEX
  5
69a
  8
Layer_0
  10
1063.182
  20
1023.6324
  0
VERTEX
  5
69b
  8
Layer_0
  10
1063.182
  20
1015.1641
  0
VERTEX
  5
69c
  8
Layer_0
  10
1062.802
  20
1012.3141
  0
SEQEND
  0
POLYLINE
  5
69e
  8
Layer_0
  62
7
  70
1
  66
1
  10
0
  20
0
  30
0
  0
VERTEX
  5
69e
  8
Layer_0
  10
1059.9021
  20
1031.3641
  0
VERTEX
  5
69f
  8
Layer_0
  10
1055.8764
  20
1032.624
  42
-0.23693605
  0
VERTEX
  5
6a0
  8
Layer_0
  10
1055.2337
  20
1033.3239
  0
VERTEX
  5
6a1
  8
Layer_0
  10
1054.052
  20
1038.2141
  42
-0.11215494
  0
VERTEX
  5
6a2
  8
Layer_0
  10
1054.052
  20
1039.2141
  0
VERTEX
  5
6a3
  8
Layer_0
  10
1055.2337
  20
1044.1042
  0
VERTEX
  5
6a4
  8
Layer_0
  10
1055.4021
  20
1044.4641
  0
VERTEX
  5
6a5
  8
Layer_0
  10
1057.4021
  20
1047.3141
  0
VERTEX
  5
6a6
  8
Layer_0
  10
1060.2021
  20
1047.3141
  0
VERTEX
  5
6a7
  8
Layer_0
  10
1062.7091
  20
1044.0378
  42
-0.16752291
  0
VERTEX
  5
6a8
  8
Layer_0
  10
1063.182
  20
1042.6825
  0
VERTEX
  5
6a9
  8
Layer_0
  10
1063.182
  20
1034.2141
  0
VERTEX
  5
6aa
  8
Layer_0
  10
1062.802
  20
1031.3641
  0
SEQEND
  0
POLYLINE
  5
6ac
  8
Layer_0
  62
7
  70
1
  66
1
  10
0
  20
0
  30
0
  0
VERTEX
  5
6ac
  8
Layer_0
  10
1050.9021
  20
1050.4141
  0
VERTEX
  5
6ad
  8
Layer_0
  10
1046.8764
  20
1051.674
  42
-0.23691353
  0
VERTEX
  5
6ae
  8
Layer_0
  10
1046.2337
  20
1052.3739
  0
VERTEX
  5
6af
  8
Layer_0
  10
1045.052
  20
1057.264
  42
-0.11215494
  0
VERTEX
  5
6b0
  8
Layer_0
  10
1045.052
  20
1058.264
  0
VERTEX
  5
6b1
  8
Layer_0
  10
1046.2337
  20
1063.1543
  0
VERTEX
  5
6b2
  8
Layer_0
  10
1046.4021
  20
1063.514
  0
VERTEX
  5
6b3
  8
Layer_0
  10
1048.4021
  20
1066.3641
  0
VERTEX
  5
6b4
  8
Layer_0
  10
1051.2021
  20
1066.3641
  0
VERTEX
  5
6b5
  8
Layer_0
  10
1053.7091
  20
1063.0879
  42
-0.16748115
  0
VERTEX
  5
6b6
  8
Layer_0
  10
1054.182
  20
1061.7325
  0
VERTEX
  5
6b7
  8
Layer_0
  10
1054.182
  20
1053.264
  0
VERTEX
  5
6b8
  8
Layer_0
  10
1053.802
  20
1050.4141
  0
SEQEND
  0
POLYLINE
  5
6ba
  8
Layer_0
  62
7
  70
1
  66
1
  10
0
  20
0
  30
0
  0
VERTEX
  5
6ba
  8
Layer_0
  10
1048.4921
  20
1069.4641
  0
VERTEX
  5
6bb
  8
Layer_0
  10
1044.4663
  20
1070.724
  42
-0.23689761
  0
VERTEX
  5
6bc
  8
Layer_0
  10
1043.8236
  20
1071.4239
  0
VERTEX
  5
6bd
  8
Layer_0
  10
1042.6421
  20
1076.3141
  42
-0.11224422
  0
VERTEX
  5
6be
  8
Layer_0
  10
1042.6421
  20
1077.3141
  0
VERTEX
  5
6bf
  8
Layer_0
  10
1043.8236
  20
1082.2043
  0
VERTEX
  5
6c0
  8
Layer_0
  10
1043.992
  20
1082.5641
  0
VERTEX
  5
6c1
  8
Layer_0
  10
1045.9921
  20
1085.4141
  0
VERTEX
  5
6c2
  8
Layer_0
  10
1048.7921
  20
1085.4141
  0
VERTEX
  5
6c3
  8
Layer_0
  10
1051.299
  20
1082.1379
  42
-0.16750613
  0
VERTEX
  5
6c4
  8
Layer_0
  10
1051.7721
  20
1080.7825
  0
VERTEX
  5
6c5
  8
Layer_0
  10
1051.7721
  20
1072.3141
  0
VERTEX
  5
6c6
  8
Layer_0
  10
1051.3921
  20
1069.4641
  0
SEQEND
  0
POLYLINE
  5
6c8
  8
Layer_0
  62
7
  70
1
  66
1
  10
0
  20
0
  30
0
  0
VERTEX
  5
6c8
  8
Layer_0
  10
1070.002
  20
1050.4141
  0
VERTEX
  5
6c9
  8
Layer_0
  10
1065.9763
  20
1051.674
  42
-0.23691353
  0
VERTEX
  5
6ca
  8
Layer_0
  10
1065.3336
  20
1052.3739
  0
VERTEX
  5
6cb
  8
Layer_0
  10
1064.1521
  20
1057.264
  42
-0.11215494
  0
VERTEX
  5
6cc
  8
Layer_0
  10
1064.1521
  20
1058.264
  0
VERTEX
  5
6cd
  8
Layer_0
  10
1065.3336
  20
1063.1543
  0
VERTEX
  5
6ce
  8
Layer_0
  10
1065.502
  20
1063.514
  0
VERTEX
  5
6cf
  8
Layer_0
  10
1067.502
  20
1066.3641
  0
VERTEX
  5
6d0
  8
Layer_0
  10
1070.302
  20
1066.3641
  0
VERTEX
  5
6d1
  8
Layer_0
  10
1072.8091
  20
1063.0879
  42
-0.16750619
  0
VERTEX
  5
6d2
  8
Layer_0
  10
1073.2821
  20
1061.7325
  0
VERTEX
  5
6d3
  8
Layer_0
  10
1073.2821
  20
1053.264
  0
VERTEX
  5
6d4
  8
Layer_0
  10
1072.9021
  20
1050.4141
  0
SEQEND
  0
POLYLINE
  5
6d6
  8
Layer_0
  62
7
  70
1
  66
1
  10
0
  20
0
  30
0
  0
VERTEX
  5
6d6
  8
Layer_0
  10
1067.4921
  20
1069.4641
  0
VERTEX
  5
6d7
  8
Layer_0
  10
1063.4663
  20
1070.724
  42
-0.23689761
  0
VERTEX
  5
6d8
  8
Layer_0
  10
1062.8236
  20
1071.4239
  0
VERTEX
  5
6d9
  8
Layer_0
  10
1061.6421
  20
1076.3141
  42
-0.11215494
  0
VERTEX
  5
6da
  8
Layer_0
  10
1061.6421
  20
1077.3141
  0
VERTEX
  5
6db
  8
Layer_0
  10
1062.8236
  20
1082.2043
  0
VERTEX
  5
6dc
  8
Layer_0
  10
1062.9921
  20
1082.5641
  0
VERTEX
  5
6dd
  8
Layer_0
  10
1064.9921
  20
1085.4141
  0
VERTEX
  5
6de
  8
Layer_0
  10
1067.7921
  20
1085.4141
  0
VERTEX
  5
6df
  8
Layer_0
  10
1070.299
  20
1082.1379
  42
-0.16750613
  0
VERTEX
  5
6e0
  8
Layer_0
  10
1070.7721
  20
1080.7825
  0
VERTEX
  5
6e1
  8
Layer_0
  10
1070.7721
  20
1072.3141
  0
VERTEX
  5
6e2
  8
Layer_0
  10
1070.3921
  20
1069.4641
  0
SEQEND
  0
POLYLINE
  5
6e4
  8
Layer_0
  62
7
  70
1
  66
1
  10
0
  20
0
  30
0
  0
VERTEX
  5
6e4
  8
Layer_0
  10
1032.0177
  20
1125.8953
  42
0.18191801
  0
VERTEX
  5
6e5
  8
Layer_0
  10
1032.465
  20
1126.0319
  0
VERTEX
  5
6e6
  8
Layer_0
  10
1037.9134
  20
1129.2437
  42
0.24977547
  0
VERTEX
  5
6e7
  8
Layer_0
  10
1038.222
  20
1129.8241
  0
VERTEX
  5
6e8
  8
Layer_0
  10
1038.222
  20
1139.9841
  42
0.2487032
  0
VERTEX
  5
6e9
  8
Layer_0
  10
1037.9134
  20
1140.5646
  42
0.021743023
  0
VERTEX
  5
6ea
  8
Layer_0
  10
1032.3291
  20
1143.9714
  42
0.084169004
  0
VERTEX
  5
6eb
  8
Layer_0
  10
1032.0177
  20
1144.0342
  0
VERTEX
  5
6ec
  8
Layer_0
  10
1002.8817
  20
1144.0342
  42
0.41379851
  0
VERTEX
  5
6ed
  8
Layer_0
  10
1002.0817
  20
1143.2342
  0
VERTEX
  5
6ee
  8
Layer_0
  10
1002.0817
  20
1126.6953
  42
0.18738059
  0
VERTEX
  5
6ef
  8
Layer_0
  10
1002.3185
  20
1126.1263
  42
0.21091013
  0
VERTEX
  5
6f0
  8
Layer_0
  10
1002.8817
  20
1125.8953
  0
SEQEND
  0
POLYLINE
  5
6f2
  8
Layer_0
  62
7
  70
1
  66
1
  10
0
  20
0
  30
0
  0
VERTEX
  5
6f2
  8
Layer_0
  10
1005.8979
  20
1084.014
  0
VERTEX
  5
6f3
  8
Layer_0
  10
1006.3407
  20
1083.3314
  0
VERTEX
  5
6f4
  8
Layer_0
  10
1005.8022
  20
1082.5638
  0
VERTEX
  5
6f5
  8
Layer_0
  10
1005.6337
  20
1082.2042
  0
VERTEX
  5
6f6
  8
Layer_0
  10
1004.4521
  20
1077.3138
  42
0.11014961
  0
VERTEX
  5
6f7
  8
Layer_0
  10
1004.4521
  20
1076.3138
  0
VERTEX
  5
6f8
  8
Layer_0
  10
1005.6337
  20
1071.4237
  0
VERTEX
  5
6f9
  8
Layer_0
  10
1005.6747
  20
1071.3063
  0
VERTEX
  5
6fa
  8
Layer_0
  10
1005.7289
  20
1071.1954
  0
VERTEX
  5
6fb
  8
Layer_0
  10
1005.7948
  20
1071.0922
  0
VERTEX
  5
6fc
  8
Layer_0
  10
1005.8722
  20
1070.9977
  0
VERTEX
  5
6fd
  8
Layer_0
  10
1005.9621
  20
1070.9149
  0
VERTEX
  5
6fe
  8
Layer_0
  10
1006.0568
  20
1070.838
  42
0.031505818
  0
VERTEX
  5
6ff
  8
Layer_0
  10
1006.2763
  20
1070.7238
  0
VERTEX
  5
700
  8
Layer_0
  10
1010.3022
  20
1069.464
  0
VERTEX
  5
701
  8
Layer_0
  10
1013.2021
  20
1069.464
  0
VERTEX
  5
702
  8
Layer_0
  10
1013.5822
  20
1072.3138
  0
VERTEX
  5
703
  8
Layer_0
  10
1013.5822
  20
1073.4139
  0
VERTEX
  5
704
  8
Layer_0
  10
1017.5421
  20
1073.4139
  0
VERTEX
  5
705
  8
Layer_0
  10
1021.7421
  20
1073.464
  0
VERTEX
  5
706
  8
Layer_0
  10
1022.692
  20
1074.9139
  0
VERTEX
  5
707
  8
Layer_0
  10
1022.692
  20
1078.714
  0
VERTEX
  5
708
  8
Layer_0
  10
1021.7421
  20
1080.1639
  42
0.029087525
  0
VERTEX
  5
709
  8
Layer_0
  10
1013.5822
  20
1080.4193
  42
0.096744242
  0
VERTEX
  5
70a
  8
Layer_0
  10
1013.4599
  20
1081.5001
  42
0.082018258
  0
VERTEX
  5
70b
  8
Layer_0
  10
1013.109
  20
1082.1378
  0
VERTEX
  5
70c
  8
Layer_0
  10
1010.6022
  20
1085.4139
  0
VERTEX
  5
70d
  8
Layer_0
  10
1007.8022
  20
1085.4139
  0
VERTEX
  5
70e
  8
Layer_0
  10
1007.2921
  20
1085.8138
  0
VERTEX
  5
70f
  8
Layer_0
  10
1002.0919
  20
1085.8139
  0
VERTEX
  5
710
  8
Layer_0
  10
1002.0919
  20
1084.0141
  0
SEQEND
  0
POLYLINE
  5
712
  8
Layer_0
  62
7
  70
1
  66
1
  10
0
  20
0
  30
0
  0
VERTEX
  5
712
  8
Layer_0
  10
1009.4101
  20
1114.6627
  0
VERTEX
  5
713
  8
Layer_0
  10
1009.4521
  20
1114.4139
  0
VERTEX
  5
714
  8
Layer_0
  10
1010.6337
  20
1109.5238
  0
VERTEX
  5
715
  8
Layer_0
  10
1010.6747
  20
1109.4061
  42
0.070609329
  0
VERTEX
  5
716
  8
Layer_0
  10
1010.8722
  20
1109.0978
  42
0.063807193
  0
VERTEX
  5
717
  8
Layer_0
  10
1011.0568
  20
1108.9381
  42
0.041022386
  0
VERTEX
  5
718
  8
Layer_0
  10
1011.2763
  20
1108.8239
  0
VERTEX
  5
719
  8
Layer_0
  10
1015.3022
  20
1107.5638
  0
VERTEX
  5
71a
  8
Layer_0
  10
1018.2021
  20
1107.5638
  0
VERTEX
  5
71b
  8
Layer_0
  10
1018.5822
  20
1110.4139
  0
VERTEX
  5
71c
  8
Layer_0
  10
1018.5822
  20
1111.4139
  0
VERTEX
  5
71d
  8
Layer_0
  10
1023.2521
  20
1111.4139
  0
VERTEX
  5
71e
  8
Layer_0
  10
1026.7521
  20
1111.5638
  0
VERTEX
  5
71f
  8
Layer_0
  10
1027.7021
  20
1113.0138
  0
VERTEX
  5
720
  8
Layer_0
  10
1027.7021
  20
1116.8138
  0
VERTEX
  5
721
  8
Layer_0
  10
1026.7521
  20
1118.2638
  42
0.016488705
  0
VERTEX
  5
722
  8
Layer_0
  10
1018.5822
  20
1118.4606
  42
0.10169971
  0
VERTEX
  5
723
  8
Layer_0
  10
1018.4591
  20
1119.5997
  42
0.072122197
  0
VERTEX
  5
724
  8
Layer_0
  10
1018.109
  20
1120.2377
  0
VERTEX
  5
725
  8
Layer_0
  10
1015.6022
  20
1123.514
  0
VERTEX
  5
726
  8
Layer_0
  10
1012.8022
  20
1123.514
  0
VERTEX
  5
727
  8
Layer_0
  10
1010.8022
  20
1120.6639
  0
VERTEX
  5
728
  8
Layer_0
  10
1010.6337
  20
1120.3041
  0
VERTEX
  5
729
  8
Layer_0
  10
1009.4521
  20
1115.4139
  42
0.10275341
  0
SEQEND
  0
POLYLINE
  5
72b
  8
Layer_0
  62
7
  70
1
  66
1
  10
0
  20
0
  30
0
  0
VERTEX
  5
72b
  8
Layer_0
  10
1015.9101
  20
1038.4628
  0
VERTEX
  5
72c
  8
Layer_0
  10
1015.9521
  20
1038.214
  0
VERTEX
  5
72d
  8
Layer_0
  10
1017.1337
  20
1033.3239
  0
VERTEX
  5
72e
  8
Layer_0
  10
1017.1747
  20
1033.2062
  0
VERTEX
  5
72f
  8
Layer_0
  10
1017.2289
  20
1033.0953
  0
VERTEX
  5
730
  8
Layer_0
  10
1017.2948
  20
1032.9923
  42
0.18002833
  0
VERTEX
  5
731
  8
Layer_0
  10
1017.7763
  20
1032.6239
  0
VERTEX
  5
732
  8
Layer_0
  10
1021.8022
  20
1031.3639
  0
VERTEX
  5
733
  8
Layer_0
  10
1024.7021
  20
1031.3639
  0
VERTEX
  5
734
  8
Layer_0
  10
1025.0822
  20
1034.214
  0
VERTEX
  5
735
  8
Layer_0
  10
1025.0822
  20
1034.4139
  0
VERTEX
  5
736
  8
Layer_0
  10
1029.102
  20
1034.4139
  0
VERTEX
  5
737
  8
Layer_0
  10
1033.2021
  20
1035.3641
  0
VERTEX
  5
738
  8
Layer_0
  10
1034.152
  20
1036.8141
  0
VERTEX
  5
739
  8
Layer_0
  10
1034.152
  20
1040.6141
  0
VERTEX
  5
73a
  8
Layer_0
  10
1033.2021
  20
1042.0641
  0
VERTEX
  5
73b
  8
Layer_0
  10
1030.2021
  20
1042.0641
  0
VERTEX
  5
73c
  8
Layer_0
  10
1025.0822
  20
1041.4362
  0
VERTEX
  5
73d
  8
Layer_0
  10
1025.0822
  20
1042.6823
  42
0.16438096
  0
VERTEX
  5
73e
  8
Layer_0
  10
1024.609
  20
1044.0377
  0
VERTEX
  5
73f
  8
Layer_0
  10
1022.1022
  20
1047.3138
  0
VERTEX
  5
740
  8
Layer_0
  10
1019.3022
  20
1047.3138
  0
VERTEX
  5
741
  8
Layer_0
  10
1017.3022
  20
1044.464
  0
VERTEX
  5
742
  8
Layer_0
  10
1017.1337
  20
1044.1041
  0
VERTEX
  5
743
  8
Layer_0
  10
1015.9521
  20
1039.214
  42
0.084464416
  0
SEQEND
  0
POLYLINE
  5
745
  8
Layer_0
  62
7
  70
1
  66
1
  10
0
  20
0
  30
0
  0
VERTEX
  5
745
  8
Layer_0
  10
1000.1303
  20
1147.1398
  0
VERTEX
  5
746
  8
Layer_0
  10
1076.0521
  20
1147.1387
  0
VERTEX
  5
747
  8
Layer_0
  10
1091.2708
  20
1152.0156
  42
-0.20029484
  0
VERTEX
  5
748
  8
Layer_0
  10
1092.1256
  20
1151.9185
  0
VERTEX
  5
749
  8
Layer_0
  10
1107.9118
  20
1142.8254
  42
-0.3447866
  0
VERTEX
  5
74a
  8
Layer_0
  10
1108.4185
  20
1141.5677
  0
VERTEX
  5
74b
  8
Layer_0
  10
1095.652
  20
1097.2599
  0
VERTEX
  5
74c
  8
Layer_0
  10
1095.652
  20
1047.9141
  0
VERTEX
  5
74d
  8
Layer_0
  10
1085.0184
  20
1010.7378
  42
-0.33360907
  0
VERTEX
  5
74e
  8
Layer_0
  10
1083.962
  20
1009.944
  0
VERTEX
  5
74f
  8
Layer_0
  10
1009.7339
  20
1009.971
  42
-0.34500276
  0
VERTEX
  5
750
  8
Layer_0
  10
1008.666
  20
1010.8073
  0
VERTEX
  5
751
  8
Layer_0
  10
996.65204
  20
1059.4641
  0
VERTEX
  5
752
  8
Layer_0
  10
996.65204
  20
1086.4141
  0
VERTEX
  5
753
  8
Layer_0
  10
999.03082
  20
1146.0912
  42
-0.40098238
  0
SEQEND
  0
POLYLINE
  5
755
  8
Layer_0
  62
7
  70
1
  66
1
  10
0
  20
0
  30
0
  0
VERTEX
  5
755
  8
Layer_0
  10
1081.3767
  20
1127.5892
  0
VERTEX
  5
756
  8
Layer_0
  10
1081.3767
  20
1126.8544
  0
VERTEX
  5
757
  8
Layer_0
  10
1077.502
  20
1126.8544
  0
VERTEX
  5
758
  8
Layer_0
  10
1077.502
  20
1122.5143
  0
VERTEX
  5
759
  8
Layer_0
  10
1081.3767
  20
1122.5143
  0
VERTEX
  5
75a
  8
Layer_0
  10
1081.3767
  20
1122.3893
  0
VERTEX
  5
75b
  8
Layer_0
  10
1081.9199
  20
1118.1813
  0
VERTEX
  5
75c
  8
Layer_0
  10
1082.4233
  20
1116.39
  0
VERTEX
  5
75d
  8
Layer_0
  10
1085.3213
  20
1115.6134
  0
VERTEX
  5
75e
  8
Layer_0
  10
1086.614
  20
1116.7682
  0
VERTEX
  5
75f
  8
Layer_0
  10
1087.5977
  20
1120.4386
  0
VERTEX
  5
760
  8
Layer_0
  10
1087.8821
  20
1123.0641
  0
VERTEX
  5
761
  8
Layer_0
  10
1087.8821
  20
1130.0641
  0
VERTEX
  5
762
  8
Layer_0
  10
1083.6821
  20
1130.0641
  0
SEQEND
  0
ENDSEC
  0
EOF
