<?xml version="1.0" encoding="UTF-8" standalone="no"?>
<svg xmlns="http://www.w3.org/2000/svg" xmlns:xlink="http://www.w3.org/1999/xlink" width="215.808mm" height="142.112mm" viewBox="453.095947 -648.056152 215.808228 142.112000">
    <circle transform="matrix(0,-1,1,0,490.74585,-530.036011)" style="stroke:#000000;stroke-width:0.050000mm;fill:none" r="0.7" cx="0" cy="0"/>
    <circle transform="matrix(0,-1,1,0,490.74585,-516.036011)" style="stroke:#000000;stroke-width:0.050000mm;fill:none" r="0.7" cx="0" cy="0"/>
    <path transform="matrix(-0,1,1,0,-239.934036,-793.558411)" style="stroke:#000000;stroke-width:0.050000mm;fill:none" d="M276.693481,728.39563L276.693481,700.455688C276.693481,700.013855,277.051666,699.65564,277.493469,699.65564C277.935303,699.65564,278.293488,700.013855,278.293488,700.455688L278.293488,728.39563C278.293488,728.837463,277.935303,729.195679,277.493469,729.195679C277.051666,729.195679,276.693481,728.837463,276.693481,728.39563z"/>
    <path transform="matrix(-0,1,1,0,-239.934036,-793.558411)" style="stroke:#000000;stroke-width:0.050000mm;fill:none" d="M261.453491,728.39563L261.453491,700.455688C261.454102,700.014282,261.812103,699.656799,262.253479,699.656799C262.694885,699.656799,263.052856,700.014282,263.053467,700.455688L263.053467,728.39563C263.052856,728.837036,262.694885,729.194519,262.253479,729.194519C261.812103,729.194519,261.454102,728.837036,261.453491,728.39563z"/>
    <path transform="matrix(-0,1,1,0,-122.999924,-1053.000366)" style="stroke:#000000;stroke-width:0.050000mm;fill:none" d="M535.71405,623.745972L536.514038,623.745972C537.011047,623.746094,537.41394,624.148987,537.41394,624.645996C537.41394,625.143005,537.011047,625.545898,536.514038,625.546021L535.71405,625.546021C535.217041,625.545898,534.814148,625.143005,534.814148,624.645996C534.814148,624.148987,535.217041,623.746094,535.71405,623.745972z"/>
    <path transform="matrix(-0,1,1,0,-122.999924,-1053.000366)" style="stroke:#000000;stroke-width:0.050000mm;fill:none" d="M470.064148,616.335999L473.564148,616.335999L475.164124,617.286011L475.164124,620.286011L473.714142,621.236023L469.914154,621.236023L468.464142,620.286011L468.464142,617.286011L470.064148,616.335999z"/>
    <path transform="matrix(-0,1,1,0,-122.999924,-1053.000366)" style="stroke:#000000;stroke-width:0.050000mm;fill:none" d="M492.614105,599.745972L489.114105,599.745972L487.51413,600.695984L487.51413,603.695984L488.964111,604.645996L492.764099,604.645996L494.214111,603.695984L494.214111,600.695984L492.614105,599.745972z"/>
    <path transform="matrix(-0,1,1,0,-122.999924,-1053.000366)" style="stroke:#000000;stroke-width:0.050000mm;fill:none" d="M435.464172,589.645996L431.964172,589.645996L430.364197,590.596008L430.364197,593.596008L431.814209,594.546021L435.614197,594.546021L437.064209,593.596008L437.064209,590.596008L435.464172,589.645996z"/>
    <path transform="matrix(-0,1,1,0,-122.999924,-1053.000366)" style="stroke:#000000;stroke-width:0.050000mm;fill:none" d="M454.51416,599.645996L451.01416,599.645996L449.414185,600.596008L449.414185,603.596008L450.864197,604.546021L454.664154,604.546021L456.114166,603.596008L456.114166,600.596008L454.51416,599.645996z"/>
    <path transform="matrix(-0,1,1,0,-122.999924,-1053.000366)" style="stroke:#000000;stroke-width:0.050000mm;fill:none" d="M470.064148,635.335999L473.564148,635.335999L475.164124,636.286011L475.164124,639.286011L473.714142,640.236023L469.914154,640.236023L468.464142,639.286011L468.464142,636.286011L470.064148,635.335999z"/>
    <path transform="matrix(-0,1,1,0,-122.999924,-1053.000366)" style="stroke:#000000;stroke-width:0.050000mm;fill:none" d="M454.51416,637.846008L451.01416,637.846008L449.414185,638.796021L449.414185,641.796021L450.864197,642.745972L454.664154,642.745972L456.114166,641.796021L456.114166,638.796021L454.51416,637.846008z"/>
    <path transform="matrix(-0,1,1,0,-122.999924,-1053.000366)" style="stroke:#000000;stroke-width:0.050000mm;fill:none" d="M470.064148,578.145996L473.564148,578.145996L475.164124,579.096008L475.164124,582.096008L473.714142,583.046021L469.914154,583.046021L468.464142,582.096008L468.464142,579.096008L470.064148,578.145996z"/>
    <path transform="matrix(-0,1,1,0,-122.999924,-1053.000366)" style="stroke:#000000;stroke-width:0.050000mm;fill:none" d="M492.614105,656.846008L489.114105,656.846008L487.51413,657.796021L487.51413,660.796021L488.964111,661.745972L492.764099,661.745972L494.214111,660.796021L494.214111,657.796021L492.614105,656.846008z"/>
    <path transform="matrix(-0,1,1,0,-122.999924,-1053.000366)" style="stroke:#000000;stroke-width:0.050000mm;fill:none" d="M416.414185,627.745972L412.914215,627.745972L411.314209,628.695984L411.314209,631.695984L412.764221,632.645996L416.564209,632.645996L418.014221,631.695984L418.014221,628.695984L416.414185,627.745972z"/>
    <path transform="matrix(-0,1,1,0,-122.999924,-1053.000366)" style="stroke:#000000;stroke-width:0.050000mm;fill:none" d="M508.164093,640.245972L511.664093,640.245972L513.264099,641.195984L513.264099,644.195984L511.814087,645.145996L508.014099,645.145996L506.564087,644.195984L506.564087,641.195984L508.164093,640.245972z"/>
    <path transform="matrix(-0,1,1,0,-122.999924,-1053.000366)" style="stroke:#000000;stroke-width:0.050000mm;fill:none" d="M492.614105,637.846008L489.114105,637.846008L487.51413,638.796021L487.51413,641.796021L488.964111,642.745972L492.764099,642.745972L494.214111,641.796021L494.214111,638.796021L492.614105,637.846008z"/>
    <path transform="matrix(-0,1,1,0,-122.999924,-1053.000366)" style="stroke:#000000;stroke-width:0.050000mm;fill:none" d="M531.71405,623.745972L532.514038,623.745972C533.011047,623.746094,533.41394,624.148987,533.41394,624.645996C533.41394,625.143005,533.011047,625.545898,532.514038,625.546021L531.71405,625.546021C531.217041,625.545898,530.814209,625.143005,530.814209,624.645996C530.814209,624.148987,531.217041,623.746094,531.71405,623.745972z"/>
    <path transform="matrix(-0,1,1,0,-122.999924,-1053.000366)" style="stroke:#000000;stroke-width:0.050000mm;fill:none" d="M435.464172,646.796021L431.964172,646.796021L430.364197,647.745972L430.364197,650.745972L431.814209,651.695984L435.614197,651.695984L437.064209,650.745972L437.064209,647.745972L435.464172,646.796021z"/>
    <path transform="matrix(-0,1,1,0,-122.999924,-1053.000366)" style="stroke:#000000;stroke-width:0.050000mm;fill:none" d="M492.614105,580.645996L489.114105,580.645996L487.51413,581.596008L487.51413,584.596008L488.964111,585.546021L492.764099,585.546021L494.214111,584.596008L494.214111,581.596008L492.614105,580.645996z"/>
    <path transform="matrix(-0,1,1,0,-122.999924,-1053.000366)" style="stroke:#000000;stroke-width:0.050000mm;fill:none" d="M435.464172,627.745972L431.964172,627.745972L430.364197,628.695984L430.364197,631.695984L431.814209,632.645996L435.614197,632.645996L437.064209,631.695984L437.064209,628.695984L435.464172,627.745972z"/>
    <path transform="matrix(-0,1,1,0,-122.999924,-1053.000366)" style="stroke:#000000;stroke-width:0.050000mm;fill:none" d="M492.614105,618.745972L489.114105,618.745972L487.51413,619.695984L487.51413,622.695984L488.964111,623.645996L492.764099,623.645996L494.214111,622.695984L494.214111,619.695984L492.614105,618.745972z"/>
    <path transform="matrix(-0,1,1,0,-122.999924,-1053.000366)" style="stroke:#000000;stroke-width:0.050000mm;fill:none" d="M538.71405,623.745972L539.514038,623.745972C540.011047,623.746094,540.41394,624.148987,540.41394,624.645996C540.41394,625.143005,540.011047,625.545898,539.514038,625.546021L538.71405,625.546021C538.217041,625.545898,537.814148,625.143005,537.814148,624.645996C537.814148,624.148987,538.217041,623.746094,538.71405,623.745972z"/>
    <path transform="matrix(-0,1,1,0,-122.999924,-1053.000366)" style="stroke:#000000;stroke-width:0.050000mm;fill:none" d="M542.139954,579.57428L542.138733,655.495972L547.015747,670.714783C547.098816,671.001282,547.063843,671.309082,546.91864,671.56958L537.825439,687.355835C537.572571,687.793701,537.053711,688.002808,536.567871,687.862488L492.26001,675.096008L442.914185,675.096008L405.737823,664.462402C405.267731,664.325989,404.944214,663.895508,404.944031,663.406006L404.971008,589.177917C404.971008,588.671936,405.316101,588.231201,405.807312,588.109924L454.464172,576.096008L481.414124,576.096008L541.09137,578.474792C541.678589,578.502075,542.140503,578.98645,542.139954,579.57428z"/>
    <path transform="matrix(-0,1,1,0,-122.999924,-1053.000366)" style="stroke:#000000;stroke-width:0.050000mm;fill:none" d="M416.414185,608.695984L412.914215,608.695984L411.314209,609.645996L411.314209,612.645996L412.764221,613.596008L416.564209,613.596008L418.014221,612.645996L418.014221,609.645996L416.414185,608.695984z"/>
    <path transform="matrix(-0,1,1,0,-122.999924,-1053.000366)" style="stroke:#000000;stroke-width:0.050000mm;fill:none" d="M416.414185,646.796021L412.914215,646.796021L411.314209,647.745972L411.314209,650.745972L412.764221,651.695984L416.564209,651.695984L418.014221,650.745972L418.014221,647.745972L416.414185,646.796021z"/>
    <path transform="matrix(-0,1,1,0,-122.999924,-1053.000366)" style="stroke:#000000;stroke-width:0.050000mm;fill:none" d="M530.21405,627.945984L531.014038,627.945984C531.511047,627.946045,531.91394,628.348999,531.91394,628.846008C531.91394,629.343018,531.511047,629.745972,531.014038,629.745972L530.21405,629.745972C529.717041,629.745972,529.314209,629.343018,529.314209,628.846008C529.314209,628.348999,529.717041,627.946045,530.21405,627.945984z"/>
    <path transform="matrix(-0,1,1,0,-122.999924,-1053.000366)" style="stroke:#000000;stroke-width:0.050000mm;fill:none" d="M454.51416,618.745972L451.01416,618.745972L449.414185,619.695984L449.414185,622.695984L450.864197,623.645996L454.664154,623.645996L456.114166,622.695984L456.114166,619.695984L454.51416,618.745972z"/>
    <path transform="matrix(-0,1,1,0,-122.999924,-1053.000366)" style="stroke:#000000;stroke-width:0.050000mm;fill:none" d="M508.164093,621.245972L511.664093,621.245972L513.264099,622.195984L513.264099,625.195984L511.814087,626.145996L508.014099,626.145996L506.564087,625.195984L506.564087,622.195984L508.164093,621.245972z"/>
    <path transform="matrix(-0,1,1,0,-122.999924,-1053.000366)" style="stroke:#000000;stroke-width:0.050000mm;fill:none" d="M454.51416,656.945984L451.01416,656.945984L449.414185,657.895996L449.414185,660.895996L450.864197,661.846008L454.664154,661.846008L456.114166,660.895996L456.114166,657.895996L454.51416,656.945984z"/>
    <path transform="matrix(-0,1,1,0,-122.999924,-1053.000366)" style="stroke:#000000;stroke-width:0.050000mm;fill:none" d="M470.064148,654.436035L473.564148,654.436035L475.164124,655.385986L475.164124,658.385986L473.714142,659.335999L469.914154,659.335999L468.464142,658.385986L468.464142,655.385986L470.064148,654.436035z"/>
    <path transform="matrix(-0,1,1,0,-122.999924,-1053.000366)" style="stroke:#000000;stroke-width:0.050000mm;fill:none" d="M416.414185,589.645996L412.914215,589.645996L411.314209,590.596008L411.314209,593.596008L412.764221,594.546021L416.564209,594.546021L418.014221,593.596008L418.014221,590.596008L416.414185,589.645996z"/>
    <path transform="matrix(-0,1,1,0,-122.999924,-1053.000366)" style="stroke:#000000;stroke-width:0.050000mm;fill:none" d="M508.164093,583.145996L511.664093,583.145996L513.264099,584.096008L513.264099,587.096008L511.814087,588.046021L508.014099,588.046021L506.564087,587.096008L506.564087,584.096008L508.164093,583.145996z"/>
    <path transform="matrix(-0,1,1,0,-122.999924,-1053.000366)" style="stroke:#000000;stroke-width:0.050000mm;fill:none" d="M454.51416,580.645996L451.01416,580.645996L449.414185,581.596008L449.414185,584.596008L450.864197,585.546021L454.664154,585.546021L456.114166,584.596008L456.114166,581.596008L454.51416,580.645996z"/>
    <circle transform="matrix(0,-0.999999,1,0,484.12085,-628.810913)" style="stroke:#000000;stroke-width:0.050000mm;fill:none" r="2.05" cx="0" cy="0"/>
    <circle transform="matrix(0,-0.999999,1,0,522.220947,-628.810913)" style="stroke:#000000;stroke-width:0.050000mm;fill:none" r="2.05" cx="0" cy="0"/>
    <circle transform="matrix(0,-0.999999,1,0,537.095947,-525.58606)" style="stroke:#000000;stroke-width:0.050000mm;fill:none" r="2.05" cx="0" cy="0"/>
    <circle transform="matrix(0,-0.999999,1,0,515.720947,-552.611023)" style="stroke:#000000;stroke-width:0.050000mm;fill:none" r="2.05" cx="0" cy="0"/>
    <circle transform="matrix(0,-0.999999,1,0,475.12085,-552.611023)" style="stroke:#000000;stroke-width:0.050000mm;fill:none" r="2.05" cx="0" cy="0"/>
    <circle transform="matrix(0,-0.999999,1,0,511.595947,-525.46106)" style="stroke:#000000;stroke-width:0.050000mm;fill:none" r="1.05" cx="0" cy="0"/>
    <circle transform="matrix(0,-0.999999,1,0,511.595886,-518.96106)" style="stroke:#000000;stroke-width:0.050000mm;fill:none" r="1.05" cx="0" cy="0"/>
    <circle transform="matrix(0,-0.999999,1,0,511.595947,-530.33606)" style="stroke:#000000;stroke-width:0.050000mm;fill:none" r="2.1" cx="0" cy="0"/>
    <circle transform="matrix(0,-0.999999,1,0,511.595886,-514.08606)" style="stroke:#000000;stroke-width:0.050000mm;fill:none" r="2.1" cx="0" cy="0"/>
    <path transform="matrix(-0,0.999999,1,0,373.093079,-468.03949)" style="stroke:#000000;stroke-width:0.050000mm;fill:none" d="M-52.7467,167.702805L-57.946701,167.702805L-57.946701,169.502808L-52.7467,169.502808L-52.7467,167.702805z"/>
    <path transform="matrix(-0,0.999999,1,0,373.093079,-468.03949)" style="stroke:#000000;stroke-width:0.050000mm;fill:none" d="M-163.646698,151.677795L-161.846695,151.677795L-161.846695,156.877808L-163.646698,156.877808L-163.646698,151.677795z"/>
    <path transform="matrix(-0,0.999999,1,0,373.093079,-468.03949)" style="stroke:#000000;stroke-width:0.050000mm;fill:none" d="M-143.946701,153.252808L-142.146698,153.252808L-142.146698,158.452805L-143.946701,158.452805L-143.946701,153.252808z"/>
    <path transform="matrix(-0,0.999999,1,0,373.093079,-468.03949)" style="stroke:#000000;stroke-width:0.050000mm;fill:none" d="M-124.696701,144.552795L-122.896698,144.552795L-122.896698,149.752808L-124.696701,149.752808L-124.696701,144.552795z"/>
    <path transform="matrix(-0,0.999999,1,0,373.093079,-468.03949)" style="stroke:#000000;stroke-width:0.050000mm;fill:none" d="M-105.446701,140.967804L-103.646698,140.967804L-103.646698,146.167801L-105.446701,146.167801L-105.446701,140.967804z"/>
    <path transform="matrix(-0,0.999999,1,0,373.093079,-468.03949)" style="stroke:#000000;stroke-width:0.050000mm;fill:none" d="M-86.446701,145.577805L-84.646698,145.577805L-84.646698,150.777802L-86.446701,150.777802L-86.446701,145.577805z"/>
    <path transform="matrix(-0,0.999999,1,0,373.093079,-468.03949)" style="stroke:#000000;stroke-width:0.050000mm;fill:none" d="M-163.196701,132.777802L-161.396698,132.777802L-161.396698,137.977798L-163.196701,137.977798L-163.196701,132.777802z"/>
    <path transform="matrix(-0,0.999999,1,0,373.093079,-468.03949)" style="stroke:#000000;stroke-width:0.050000mm;fill:none" d="M-143.946701,135.277802L-142.146698,135.277802L-142.146698,140.477798L-143.946701,140.477798L-143.946701,135.277802z"/>
    <path transform="matrix(-0,0.999999,1,0,373.093079,-468.03949)" style="stroke:#000000;stroke-width:0.050000mm;fill:none" d="M-125.1717,125.827797L-123.371696,125.827797L-123.371696,131.027802L-125.1717,131.027802L-125.1717,125.827797z"/>
    <path transform="matrix(-0,0.999999,1,0,373.093079,-468.03949)" style="stroke:#000000;stroke-width:0.050000mm;fill:none" d="M-105.196701,123.967796L-103.396698,123.967796L-103.396698,129.167801L-105.196701,129.167801L-105.196701,123.967796z"/>
    <path transform="matrix(-0,0.999999,1,0,373.093079,-468.03949)" style="stroke:#000000;stroke-width:0.050000mm;fill:none" d="M-163.196701,113.777802L-161.396698,113.777802L-161.396698,118.977798L-163.196701,118.977798L-163.196701,113.777802z"/>
    <path transform="matrix(-0,0.999999,1,0,373.093079,-468.03949)" style="stroke:#000000;stroke-width:0.050000mm;fill:none" d="M-143.696701,113.277802L-141.896698,113.277802L-141.896698,118.477798L-143.696701,118.477798L-143.696701,113.277802z"/>
    <path transform="matrix(-0,0.999999,1,0,373.093079,-468.03949)" style="stroke:#000000;stroke-width:0.050000mm;fill:none" d="M-124.946701,106.052803L-123.146698,106.052803L-123.146698,111.2528L-124.946701,111.2528L-124.946701,106.052803z"/>
    <path transform="matrix(-0,0.999999,1,0,373.093079,-468.03949)" style="stroke:#000000;stroke-width:0.050000mm;fill:none" d="M-105.696701,103.467796L-103.896698,103.467796L-103.896698,108.667801L-105.696701,108.667801L-105.696701,103.467796z"/>
    <path transform="matrix(-0,0.999999,1,0,373.093079,-468.03949)" style="stroke:#000000;stroke-width:0.050000mm;fill:none" d="M-163.196701,96.527802L-161.396698,96.527802L-161.396698,101.727798L-163.196701,101.727798L-163.196701,96.527802z"/>
    <path transform="matrix(-0,0.999999,1,0,373.093079,-468.03949)" style="stroke:#000000;stroke-width:0.050000mm;fill:none" d="M-143.446701,96.7528L-141.646698,96.7528L-141.646698,101.952797L-143.446701,101.952797L-143.446701,96.7528z"/>
    <path transform="matrix(-0,0.999999,1,0,373.093079,-468.03949)" style="stroke:#000000;stroke-width:0.050000mm;fill:none" d="M-124.696701,87.827797L-122.896698,87.827797L-122.896698,93.027802L-124.696701,93.027802L-124.696701,87.827797z"/>
    <path transform="matrix(-0,0.999999,1,0,373.093079,-468.03949)" style="stroke:#000000;stroke-width:0.050000mm;fill:none" d="M-105.946701,85.442802L-104.146698,85.442802L-104.146698,90.642799L-105.946701,90.642799L-105.946701,85.442802z"/>
    <path transform="matrix(-0,0.999999,1,0,373.093079,-468.03949)" style="stroke:#000000;stroke-width:0.050000mm;fill:none" d="M-52.471699,142.802795L-55.8717,142.802795L-55.8717,145.002808L-52.471699,145.002808L-52.471699,142.802795z"/>
    <path transform="matrix(-0,0.999999,1,0,373.093079,-468.03949)" style="stroke:#000000;stroke-width:0.050000mm;fill:none" d="M-52.471699,154.002808L-55.8717,154.002808L-55.8717,156.202805L-52.471699,156.202805L-52.471699,154.002808z"/>
    <circle transform="matrix(0,-0.999999,1,0,520.095886,-514.71106)" style="stroke:#000000;stroke-width:0.050000mm;fill:none" r="1.1" cx="0" cy="0"/>
    <circle transform="matrix(0,-0.999999,1,0,522.595886,-514.71106)" style="stroke:#000000;stroke-width:0.050000mm;fill:none" r="1.1" cx="0" cy="0"/>
    <circle transform="matrix(0,-0.999999,1,0,525.095886,-514.71106)" style="stroke:#000000;stroke-width:0.050000mm;fill:none" r="1.1" cx="0" cy="0"/>
    <circle transform="matrix(0,-0.999999,1,0,520.095947,-529.21106)" style="stroke:#000000;stroke-width:0.050000mm;fill:none" r="1.1" cx="0" cy="0"/>
    <circle transform="matrix(0,-0.999999,1,0,525.095947,-529.21106)" style="stroke:#000000;stroke-width:0.050000mm;fill:none" r="1.1" cx="0" cy="0"/>
    <path transform="matrix(-0,1,1,0,-122.999924,-1053.000366)" style="stroke:#000000;stroke-width:0.050000mm;fill:none" d="M507.239075,666.195984L502.039093,666.195984C502.015564,663.871948,502.005554,661.540039,502.009094,659.216003L507.209106,659.216003C507.246094,661.542908,507.256104,663.86908,507.239075,666.195984z"/>
    <path transform="matrix(-0,1,1,0,373.093018,-468.039368)" style="stroke:#000000;stroke-width:0.050000mm;fill:none" d="M-136.096695,163.222794L-143.096695,163.222794L-143.096695,167.422806L-136.096695,167.422806L-136.096695,163.222794z"/>
    <path transform="matrix(-0,1,1,0,373.093018,-468.039368)" style="stroke:#000000;stroke-width:0.050000mm;fill:none" d="M-56.7967,129.402802L-63.7967,129.402802L-63.7967,133.602798L-56.7967,133.602798L-56.7967,129.402802z"/>
    <path transform="matrix(-0,1,1,0,-122.999924,-1053.000366)" style="stroke:#000000;stroke-width:0.050000mm;fill:none" d="M521.854065,646.445984L517.514099,646.445984L517.514099,641.245972L521.854065,641.245972L521.854065,646.445984L521.854065,646.445984z"/>
    <path transform="matrix(-0,1,1,0,-122.999924,-1053.000366)" style="stroke:#000000;stroke-width:0.050000mm;fill:none" d="M502.814087,627.471008C501.296661,627.49292,499.779083,627.459534,498.264099,627.370972L498.264099,622.171021C499.781555,622.149597,501.299072,622.182922,502.814087,622.270996L502.814087,627.471008z"/>
    <path transform="matrix(-0,1,1,0,-122.999924,-1053.000366)" style="stroke:#000000;stroke-width:0.050000mm;fill:none" d="M525.064087,667.325928L518.064087,667.325928L515.438782,667.041626L511.768188,666.058105L510.613495,664.765198L511.389984,661.867432L513.181274,661.363892L517.389282,660.820801L522.589294,660.820801L525.064087,663.125977L525.064087,667.325928L525.064087,667.325928z"/>
    <path transform="matrix(-0,1,1,0,-122.999924,-1053.000366)" style="stroke:#000000;stroke-width:0.050000mm;fill:none" d="M504.514099,607.471008C502.913422,607.492676,501.31488,607.500977,499.714111,607.495972L499.714111,602.296021C501.313721,602.274292,502.914429,602.265991,504.514099,602.270996L504.514099,607.471008z"/>
    <path transform="matrix(-0,1,1,0,-122.999924,-1053.000366)" style="stroke:#000000;stroke-width:0.050000mm;fill:none" d="M502.564087,589.471008C501.20929,589.476196,499.869202,589.478027,498.514099,589.476501L498.514099,584.276489C499.859314,584.271423,501.219421,584.269592,502.564087,584.270996L502.564087,589.471008z"/>
    <path transform="matrix(-0,1,1,0,-279.933929,-793.558472)" style="stroke:#000000;stroke-width:0.050000mm;fill:none" d="M238.772278,749.179932L237.512283,745.154236C237.393616,744.841553,237.134171,744.603271,236.812485,744.511536L231.922272,743.329956C231.59314,743.255127,231.251419,743.255127,230.922272,743.329956L226.032074,744.511536L225.672272,744.679932L222.822281,746.679932L222.822281,749.47998L226.09848,751.986938C226.484772,752.291504,226.961868,752.458008,227.453781,752.459961L235.922272,752.459961L238.772278,752.079956L238.772278,749.179932z"/>
    <path transform="matrix(-0,1,1,0,-279.933929,-793.558472)" style="stroke:#000000;stroke-width:0.050000mm;fill:none" d="M200.672272,749.179932L199.412292,745.154236C199.29361,744.841492,199.034164,744.60321,198.712479,744.511536L193.822281,743.329956C193.493149,743.255127,193.151413,743.255127,192.822281,743.329956L187.932083,744.511536L187.572281,744.679932L184.722275,746.679932L184.722275,749.47998L187.998489,751.986938C188.384781,752.291504,188.861877,752.458008,189.353775,752.459961L197.822281,752.459961L200.672272,752.079956L200.672272,749.179932z"/>
    <path transform="matrix(-0,1,1,0,-279.933929,-793.558472)" style="stroke:#000000;stroke-width:0.050000mm;fill:none" d="M162.572281,758.179932L161.312286,754.154236C161.193619,753.841553,160.934158,753.603271,160.612488,753.511536L155.722275,752.329956C155.393143,752.255127,155.051407,752.255127,154.722275,752.329956L149.832077,753.511536L149.472275,753.679932L146.622284,755.679932L146.622284,758.47998L149.898483,760.986938C150.284775,761.291504,150.761887,761.458008,151.253784,761.459961L159.722275,761.459961L162.572281,761.079956L162.572281,758.179932z"/>
    <path transform="matrix(-0,1,1,0,-279.933929,-793.558472)" style="stroke:#000000;stroke-width:0.050000mm;fill:none" d="M162.572281,777.22998L161.312286,773.204285C161.193619,772.891541,160.934158,772.653259,160.612488,772.561584L155.722275,771.379944C155.393143,771.305176,155.051407,771.305176,154.722275,771.379944L149.832077,772.561584L149.472275,772.72998L146.622284,774.72998L146.622284,777.529968L149.898483,780.036987C150.284775,780.341553,150.761887,780.508057,151.253784,780.509949L159.722275,780.509949L162.572281,780.129944L162.572281,777.22998z"/>
    <path transform="matrix(-0,1,1,0,-279.933929,-793.558472)" style="stroke:#000000;stroke-width:0.050000mm;fill:none" d="M181.622284,777.22998L180.362289,773.204285C180.243637,772.891541,179.984177,772.653259,179.662476,772.561584L174.772278,771.379944C174.443146,771.305176,174.10141,771.305176,173.772278,771.379944L168.88208,772.561584L168.522278,772.72998L165.672287,774.72998L165.672287,777.529968L168.948486,780.036987C169.334778,780.341553,169.81189,780.508057,170.303787,780.509949L178.772278,780.509949L181.622284,780.129944L181.622284,777.22998z"/>
    <path transform="matrix(-0,1,1,0,-279.933929,-793.558472)" style="stroke:#000000;stroke-width:0.050000mm;fill:none" d="M181.622284,796.279968L180.362289,792.254272C180.243637,791.941528,179.984177,791.703247,179.662476,791.611572L174.772278,790.429932C174.443146,790.355164,174.10141,790.355164,173.772278,790.429932L168.88208,791.611572L168.522278,791.779968L165.672287,793.779968L165.672287,796.579956L168.948486,799.086975C169.334763,799.391541,169.811874,799.558044,170.303787,799.559937L178.772278,799.559937L181.622284,799.179932L181.622284,796.279968z"/>
    <path transform="matrix(-0,1,1,0,-279.933929,-793.558472)" style="stroke:#000000;stroke-width:0.050000mm;fill:none" d="M162.572281,796.279968L161.312286,792.254272C161.193619,791.941528,160.934158,791.703247,160.612488,791.611572L155.722275,790.429932C155.393143,790.355164,155.051407,790.355164,154.722275,790.429932L149.832077,791.611572L149.472275,791.779968L146.622284,793.779968L146.622284,796.579956L149.898483,799.086975C150.28476,799.391541,150.761871,799.558044,151.253784,799.559937L159.722275,799.559937L162.572281,799.179932L162.572281,796.279968z"/>
    <path transform="matrix(-0,1,1,0,-279.933929,-793.558472)" style="stroke:#000000;stroke-width:0.050000mm;fill:none" d="M162.572281,815.329956L161.312286,811.30426C161.193619,810.991516,160.934158,810.753235,160.612488,810.66156L155.722275,809.47998C155.393143,809.405151,155.051407,809.405151,154.722275,809.47998L149.832077,810.66156L149.472275,810.829956L146.622284,812.829956L146.622284,815.629944L149.898483,818.136963C150.284775,818.441528,150.761871,818.608032,151.253784,818.609985L159.722275,818.609985L162.572281,818.22998L162.572281,815.329956z"/>
    <path transform="matrix(-0,1,1,0,-279.933929,-793.558472)" style="stroke:#000000;stroke-width:0.050000mm;fill:none" d="M181.622284,815.329956L180.362289,811.30426C180.243637,810.991516,179.984177,810.753235,179.662476,810.66156L174.772278,809.47998C174.443146,809.405151,174.10141,809.405151,173.772278,809.47998L168.88208,810.66156L168.522278,810.829956L165.672287,812.829956L165.672287,815.629944L168.948486,818.136963C169.334778,818.441528,169.811874,818.608032,170.303787,818.609985L178.772278,818.609985L181.622284,818.22998L181.622284,815.329956z"/>
    <path transform="matrix(-0,1,1,0,-279.933929,-793.558472)" style="stroke:#000000;stroke-width:0.050000mm;fill:none" d="M259.527191,831.857849L259.352081,827.64325C259.31842,827.310425,259.129425,827.013062,258.842377,826.841248L254.424683,824.434265C254.126099,824.276794,253.79599,824.188354,253.458679,824.175476L248.429382,824.051147L248.038177,824.120667L244.767685,825.31488L244.042984,828.01947L246.558685,831.289063C246.852997,831.683228,247.270752,831.967529,247.745392,832.09668L255.925293,834.288452L258.776581,834.659058L259.527191,831.857849z"/>
    <path transform="matrix(-0,1,1,0,-279.933929,-793.558472)" style="stroke:#000000;stroke-width:0.050000mm;fill:none" d="M200.672272,825.47998L199.412292,821.454224C199.29361,821.141541,199.034164,820.903198,198.712479,820.811523L193.822281,819.629944C193.493149,819.555176,193.151413,819.555176,192.822281,819.629944L187.932083,820.811523L187.572281,820.97998L184.722275,822.97998L184.722275,825.779968L187.998489,828.286987C188.384766,828.591553,188.861862,828.758057,189.353775,828.759949L197.822281,828.759949L200.672272,828.379944L200.672272,825.47998z"/>
    <path transform="matrix(-0,1,1,0,-279.933929,-793.558472)" style="stroke:#000000;stroke-width:0.050000mm;fill:none" d="M219.72229,822.969971L218.46228,818.944275C218.343628,818.631531,218.084167,818.39325,217.762482,818.301575L212.872284,817.119995C212.543152,817.045166,212.201416,817.045166,211.872284,817.119995L206.982086,818.301575L206.622284,818.469971L203.772278,820.469971L203.772278,823.269958L207.048492,825.776978C207.434769,826.081543,207.91188,826.248047,208.403778,826.249939L216.872284,826.249939L219.72229,825.869995L219.72229,822.969971z"/>
    <path transform="matrix(-0,1,1,0,-279.933929,-793.558472)" style="stroke:#000000;stroke-width:0.050000mm;fill:none" d="M238.772278,825.379944L237.512283,821.354248C237.393616,821.041504,237.134171,820.803223,236.812485,820.711548L231.922272,819.529968C231.59314,819.4552,231.251419,819.4552,230.922272,819.529968L226.032074,820.711548L225.672272,820.879944L222.822281,822.879944L222.822281,825.679932L226.09848,828.186951C226.484772,828.491516,226.961884,828.65802,227.453781,828.659973L235.922272,828.659973L238.772278,828.279968L238.772278,825.379944z"/>
    <path transform="matrix(-0,1,1,0,-279.933929,-793.558472)" style="stroke:#000000;stroke-width:0.050000mm;fill:none" d="M257.822266,808.779968L256.562286,804.754272C256.443604,804.441528,256.184174,804.203247,255.862488,804.111572L250.97229,802.929932C250.643143,802.855164,250.301422,802.855164,249.97229,802.929932L245.082092,804.111572L244.72229,804.279968L241.872284,806.279968L241.872284,809.079956L245.148483,811.586975C245.53476,811.891541,246.011871,812.058044,246.503784,812.059937L254.97229,812.059937L257.822266,811.679932L257.822266,808.779968z"/>
    <path transform="matrix(-0,1,1,0,-279.933929,-793.558472)" style="stroke:#000000;stroke-width:0.050000mm;fill:none" d="M238.772278,806.379944L237.512283,802.354248C237.393616,802.041504,237.134171,801.803223,236.812485,801.711548L231.922272,800.529968C231.59314,800.4552,231.251419,800.4552,230.922272,800.529968L226.032074,801.711548L225.672272,801.879944L222.822281,803.879944L222.822281,806.679932L226.09848,809.186951C226.484772,809.491516,226.961884,809.65802,227.453781,809.659973L235.922272,809.659973L238.772278,809.279968L238.772278,806.379944z"/>
    <path transform="matrix(-0,1,1,0,-279.933929,-793.558472)" style="stroke:#000000;stroke-width:0.050000mm;fill:none" d="M219.72229,803.869995L218.46228,799.844238C218.343628,799.531494,218.084167,799.293213,217.762482,799.201538L212.872284,798.019958C212.543152,797.94519,212.201416,797.94519,211.872284,798.019958L206.982086,799.201538L206.622284,799.369995L203.772278,801.369995L203.772278,804.169983L207.048492,806.676941C207.434769,806.981506,207.91188,807.148071,208.403778,807.149963L216.872284,807.149963L219.72229,806.769958L219.72229,803.869995z"/>
    <path transform="matrix(-0,1,1,0,-279.933929,-793.558472)" style="stroke:#000000;stroke-width:0.050000mm;fill:none" d="M200.672272,806.379944L199.412292,802.354248C199.29361,802.041504,199.034164,801.803223,198.712479,801.711548L193.822281,800.529968C193.493149,800.4552,193.151413,800.4552,192.822281,800.529968L187.932083,801.711548L187.572281,801.879944L184.722275,803.879944L184.722275,806.679932L187.998489,809.186951C188.384766,809.491516,188.861877,809.65802,189.353775,809.659973L197.822281,809.659973L200.672272,809.279968L200.672272,806.379944z"/>
    <path transform="matrix(-0,1,1,0,-279.933929,-793.558472)" style="stroke:#000000;stroke-width:0.050000mm;fill:none" d="M219.72229,784.869995L218.46228,780.844238C218.343628,780.531494,218.084167,780.293213,217.762482,780.201538L212.872284,779.019958C212.543152,778.945129,212.201416,778.945129,211.872284,779.019958L206.982086,780.201538L206.622284,780.369934L203.772278,782.369995L203.772278,785.169983L207.048492,787.676941C207.434769,787.981506,207.91188,788.148071,208.403778,788.149963L216.872284,788.149963L219.72229,787.769958L219.72229,784.869995z"/>
    <path transform="matrix(-0,1,1,0,-279.933929,-793.558472)" style="stroke:#000000;stroke-width:0.050000mm;fill:none" d="M200.672272,787.279968L199.412292,783.254272C199.29361,782.941528,199.034164,782.703247,198.712479,782.611572L193.822281,781.429932C193.493149,781.355164,193.151413,781.355164,192.822281,781.429932L187.932083,782.611572L187.572281,782.779968L184.722275,784.779968L184.722275,787.579956L187.998489,790.086975C188.384766,790.391541,188.861862,790.558044,189.353775,790.559937L197.822281,790.559937L200.672272,790.179932L200.672272,787.279968z"/>
    <path transform="matrix(-0,1,1,0,-279.933929,-793.558472)" style="stroke:#000000;stroke-width:0.050000mm;fill:none" d="M257.822266,789.779968L256.562286,785.754272C256.443604,785.441528,256.184174,785.203247,255.862488,785.111572L250.97229,783.929932C250.643143,783.855164,250.301422,783.855164,249.97229,783.929932L245.082092,785.111572L244.72229,785.279968L241.872284,787.279968L241.872284,790.079956L245.148483,792.586975C245.53476,792.891541,246.011871,793.058044,246.503784,793.059937L254.97229,793.059937L257.822266,792.679932L257.822266,789.779968z"/>
    <path transform="matrix(-0,1,1,0,-279.933929,-793.558472)" style="stroke:#000000;stroke-width:0.050000mm;fill:none" d="M238.772278,787.279968L237.512283,783.254272C237.393616,782.941528,237.134171,782.703247,236.812485,782.611572L231.922272,781.429932C231.59314,781.355164,231.251419,781.355164,230.922272,781.429932L226.032074,782.611572L225.672272,782.779968L222.822281,784.779968L222.822281,787.579956L226.09848,790.086975C226.484772,790.391541,226.961884,790.558044,227.453781,790.559937L235.922272,790.559937L238.772278,790.179932L238.772278,787.279968z"/>
    <path transform="matrix(-0,1,1,0,-279.933929,-793.558472)" style="stroke:#000000;stroke-width:0.050000mm;fill:none" d="M200.672272,768.179932L199.412292,764.154236C199.29361,763.841492,199.034164,763.60321,198.712479,763.511536L193.822281,762.329956C193.493149,762.255127,193.151413,762.255127,192.822281,762.329956L187.932083,763.511536L187.572281,763.679932L184.722275,765.679932L184.722275,768.47998L187.998489,770.986938C188.384781,771.291504,188.861877,771.458008,189.353775,771.459961L197.822281,771.459961L200.672272,771.079956L200.672272,768.179932z"/>
    <path transform="matrix(-0,1,1,0,-279.933929,-793.558472)" style="stroke:#000000;stroke-width:0.050000mm;fill:none" d="M219.72229,765.769958L218.46228,761.744263C218.343628,761.431519,218.084167,761.193237,217.762482,761.101563L212.872284,759.919983C212.543152,759.845154,212.201416,759.845154,211.872284,759.919983L206.982086,761.101563L206.622284,761.269958L203.772278,763.269958L203.772278,766.069946L207.048492,768.576965C207.434769,768.881531,207.911865,769.048035,208.403778,769.049927L216.872284,769.049927L219.72229,768.669983L219.72229,765.769958z"/>
    <path transform="matrix(-0,1,1,0,-279.933929,-793.558472)" style="stroke:#000000;stroke-width:0.050000mm;fill:none" d="M238.772278,768.279968L237.512283,764.254272C237.393616,763.941528,237.134171,763.703247,236.812485,763.611572L231.922272,762.429932C231.59314,762.355164,231.251419,762.355164,230.922272,762.429932L226.032074,763.611572L225.672272,763.779968L222.822281,765.779968L222.822281,768.579956L226.09848,771.086975C226.484772,771.391541,226.961868,771.558044,227.453781,771.559937L235.922272,771.559937L238.772278,771.179932L238.772278,768.279968z"/>
    <path transform="matrix(-0,1,1,0,-279.933929,-793.558472)" style="stroke:#000000;stroke-width:0.050000mm;fill:none" d="M257.822266,770.779968L256.562286,766.754272C256.443604,766.441528,256.184174,766.203247,255.862488,766.111572L250.97229,764.929932C250.643143,764.855164,250.301422,764.855164,249.97229,764.929932L245.082092,766.111572L244.72229,766.279968L241.872284,768.279968L241.872284,771.079956L245.148483,773.586975C245.53476,773.891541,246.011871,774.058044,246.503784,774.059937L254.97229,774.059937L257.822266,773.679932L257.822266,770.779968z"/>
    <path transform="matrix(-0,1,1,0,-237.999924,-1053.000366)" style="stroke:#000000;stroke-width:0.050000mm;fill:none" d="M510.165283,703.854004L510.414063,703.895996L515.304443,705.077637L515.421875,705.118652C515.533325,705.170288,515.635254,705.238892,515.730469,705.316162L515.81543,705.403809C515.895325,705.49823,515.955994,705.606445,516.00415,705.720215L517.26416,709.746094L517.26416,712.645996L514.414063,713.026123L513.414063,713.026123L513.414063,717.696045L513.26416,721.196045L511.814209,722.145996L508.01416,722.145996L506.564209,721.196045C506.463074,718.474304,506.409607,715.749756,506.403809,713.026123C506.068329,713.051147,505.730652,713.030212,505.402588,712.955811C505.107025,712.878906,504.830994,712.741028,504.590332,712.552979L501.314209,710.046143L501.314209,707.246094L504.164063,705.246094L504.523926,705.077637L509.414063,703.895996C509.659943,703.837463,509.914398,703.823425,510.165283,703.854004z"/>
    <path transform="matrix(-0,1,1,0,-237.999924,-1053.000366)" style="stroke:#000000;stroke-width:0.050000mm;fill:none" d="M472.065186,698.854004L472.314209,698.895996L477.204346,700.077637L477.321777,700.118652C477.546844,700.220337,477.72995,700.393005,477.853271,700.606689L477.904053,700.720215L479.164063,704.746094L479.164063,707.645996L476.314209,708.026123L475.414063,708.026123L475.414063,711.986084L475.164063,716.186035L473.714111,717.135986L469.914063,717.135986L468.464111,716.186035C468.415283,713.466553,468.398376,710.745972,468.41333,708.026123C468.102234,708.049072,467.789551,708.038086,467.480713,707.994141C467.117249,707.938232,466.774811,707.785889,466.490234,707.552979L463.214111,705.046143L463.214111,702.246094L466.064209,700.246094L466.423828,700.077637L471.314209,698.895996C471.560577,698.841248,471.814178,698.82782,472.065186,698.854004z"/>
    <path transform="matrix(-0,1,1,0,-237.999924,-1053.000366)" style="stroke:#000000;stroke-width:0.050000mm;fill:none" d="M433.965332,710.354004L434.214111,710.395996L439.104248,711.577637C439.343048,711.64624,439.551788,711.794495,439.689941,712.000977C439.736298,712.06958,439.770294,712.144836,439.804199,712.220215L441.064209,716.246094L441.064209,719.145996L438.214111,719.526123L436.436279,719.526123L437.064209,724.645996L437.064209,727.645996L435.614258,728.595947L431.814209,728.595947L430.364258,727.645996L429.414063,723.545898L429.414063,719.498535L429.380615,719.494141C429.017914,719.436279,428.677856,719.281677,428.390381,719.052979L425.114258,716.546143L425.114258,713.746094L427.964111,711.746094L428.323975,711.577637L433.214111,710.395996C433.461121,710.344482,433.714264,710.32843,433.965332,710.354004z"/>
    <path transform="matrix(-0,1,1,0,-122.999924,-1053.000366)" style="stroke:#000000;stroke-width:0.050000mm;fill:none" d="M525.944153,672.036499L527.694153,669.005371L529.316895,668.094788L531.914978,669.594788L532.012634,671.3255L530.112671,674.616394L528.564941,675.397095L525.966858,673.897095L525.944153,672.036499z"/>
    <path transform="matrix(-0,1,1,0,-279.933929,-793.558472)" style="stroke:#000000;stroke-width:0.050000mm;fill:none" d="M270.685181,835.588745L270.651184,835.984558L270.958191,839.452759L273.383087,840.852783L277.192383,839.269043C277.649292,839.086731,278.032013,838.756775,278.279572,838.331665L282.513794,830.997742L283.609772,828.339661L281.098267,826.889648L276.981995,825.967957C276.651764,825.914307,276.315643,826.019897,276.075378,826.252686L272.606995,829.896973C272.377625,830.144592,272.206787,830.440552,272.106995,830.762939L270.685181,835.588745z"/>
    <path transform="matrix(-0,1,1,0,-243,-1398.000244)" style="stroke:#000000;stroke-width:0.050000mm;fill:none" d="M880.684143,736.965942L880.669922,737.107056L880.62915,737.238403C880.55719,737.515991,880.275635,737.672913,879.984131,737.665955L869.824097,737.665955C869.635925,737.654236,869.452087,737.590027,869.317322,737.461304C869.182556,737.332581,869.109985,737.151855,869.124084,736.965942C869.133972,736.873474,869.147339,736.781311,869.179077,736.693481C869.218262,736.611633,869.275513,736.543091,869.329102,736.470947C869.749573,735.982727,870.209106,735.529602,870.702759,735.115479C870.782471,735.071716,870.864563,735.032471,870.953003,735.010132L871.094116,734.995911L878.714111,734.995911L878.855225,735.010132L878.986572,735.050903C879.600098,735.459473,880.132263,735.9776,880.564575,736.574585C880.661194,736.679199,880.698181,736.82373,880.684143,736.965942z"/>
    <path transform="matrix(-0,1,1,0,-177.350784,-935.766113)" style="stroke:#000000;stroke-width:0.050000mm;fill:none" d="M312.571564,768.616638L312.571564,740.676636C312.570923,740.235229,312.212952,739.877747,311.771545,739.877747C311.33017,739.877747,310.972168,740.235229,310.971558,740.676636L310.971558,768.616638C310.972168,769.058044,311.33017,769.415527,311.771545,769.415527C312.212952,769.415527,312.570923,769.058044,312.571564,768.616638z"/>
    <path transform="matrix(-0,1,1,0,-177.350784,-935.766113)" style="stroke:#000000;stroke-width:0.050000mm;fill:none" d="M297.331543,768.616638L297.331543,740.676636C297.331543,740.234802,296.973389,739.876648,296.531555,739.876648C296.089722,739.876648,295.731567,740.234802,295.731567,740.676636L295.731567,768.616638C295.731567,769.058472,296.089722,769.416626,296.531555,769.416626C296.973389,769.416626,297.331543,769.058472,297.331543,768.616638z"/>
    <circle transform="matrix(-0,1,1,0,594.746094,-623.964233)" style="stroke:#000000;stroke-width:0.050000mm;fill:none" r="0.7" cx="0" cy="0"/>
    <circle transform="matrix(-0,1,1,0,594.746094,-637.964233)" style="stroke:#000000;stroke-width:0.050000mm;fill:none" r="0.7" cx="0" cy="0"/>
    <circle transform="matrix(-0,0.999998,1,0,588.121094,-525.189331)" style="stroke:#000000;stroke-width:0.050000mm;fill:none" r="2.05" cx="0" cy="0"/>
    <circle transform="matrix(-0,0.999998,1,0,626.221069,-525.189331)" style="stroke:#000000;stroke-width:0.050000mm;fill:none" r="2.05" cx="0" cy="0"/>
    <circle transform="matrix(-0,0.999998,1,0,641.096069,-628.414185)" style="stroke:#000000;stroke-width:0.050000mm;fill:none" r="2.05" cx="0" cy="0"/>
    <circle transform="matrix(-0,0.999998,1,0,619.721069,-601.389221)" style="stroke:#000000;stroke-width:0.050000mm;fill:none" r="2.05" cx="0" cy="0"/>
    <circle transform="matrix(-0,0.999998,1,0,579.121094,-601.389221)" style="stroke:#000000;stroke-width:0.050000mm;fill:none" r="2.05" cx="0" cy="0"/>
    <circle transform="matrix(-0,0.999998,1,0,615.596069,-628.539185)" style="stroke:#000000;stroke-width:0.050000mm;fill:none" r="1.05" cx="0" cy="0"/>
    <circle transform="matrix(-0,0.999998,1,0,615.596069,-635.039124)" style="stroke:#000000;stroke-width:0.050000mm;fill:none" r="1.05" cx="0" cy="0"/>
    <circle transform="matrix(-0,0.999998,1,0,615.596069,-623.664185)" style="stroke:#000000;stroke-width:0.050000mm;fill:none" r="2.1" cx="0" cy="0"/>
    <circle transform="matrix(-0,0.999998,1,0,615.596069,-639.914124)" style="stroke:#000000;stroke-width:0.050000mm;fill:none" r="2.1" cx="0" cy="0"/>
    <path transform="matrix(0,-0.999998,1,0,477.093262,-685.960815)" style="stroke:#000000;stroke-width:0.050000mm;fill:none" d="M-52.7467,167.702805L-57.946701,167.702805L-57.946701,169.502808L-52.7467,169.502808L-52.7467,167.702805z"/>
    <path transform="matrix(0,-0.999998,1,0,477.093262,-685.960815)" style="stroke:#000000;stroke-width:0.050000mm;fill:none" d="M-163.646698,151.677795L-161.846695,151.677795L-161.846695,156.877808L-163.646698,156.877808L-163.646698,151.677795z"/>
    <path transform="matrix(0,-0.999998,1,0,477.093262,-685.960815)" style="stroke:#000000;stroke-width:0.050000mm;fill:none" d="M-143.946701,153.252808L-142.146698,153.252808L-142.146698,158.452805L-143.946701,158.452805L-143.946701,153.252808z"/>
    <path transform="matrix(0,-0.999998,1,0,477.093262,-685.960815)" style="stroke:#000000;stroke-width:0.050000mm;fill:none" d="M-124.696701,144.552795L-122.896698,144.552795L-122.896698,149.752808L-124.696701,149.752808L-124.696701,144.552795z"/>
    <path transform="matrix(0,-0.999998,1,0,477.093262,-685.960815)" style="stroke:#000000;stroke-width:0.050000mm;fill:none" d="M-105.446701,140.967804L-103.646698,140.967804L-103.646698,146.167801L-105.446701,146.167801L-105.446701,140.967804z"/>
    <path transform="matrix(0,-0.999998,1,0,477.093262,-685.960815)" style="stroke:#000000;stroke-width:0.050000mm;fill:none" d="M-86.446701,145.577805L-84.646698,145.577805L-84.646698,150.777802L-86.446701,150.777802L-86.446701,145.577805z"/>
    <path transform="matrix(0,-0.999998,1,0,477.093262,-685.960815)" style="stroke:#000000;stroke-width:0.050000mm;fill:none" d="M-163.196701,132.777802L-161.396698,132.777802L-161.396698,137.977798L-163.196701,137.977798L-163.196701,132.777802z"/>
    <path transform="matrix(0,-0.999998,1,0,477.093262,-685.960815)" style="stroke:#000000;stroke-width:0.050000mm;fill:none" d="M-143.946701,135.277802L-142.146698,135.277802L-142.146698,140.477798L-143.946701,140.477798L-143.946701,135.277802z"/>
    <path transform="matrix(0,-0.999998,1,0,477.093262,-685.960815)" style="stroke:#000000;stroke-width:0.050000mm;fill:none" d="M-125.1717,125.827797L-123.371696,125.827797L-123.371696,131.027802L-125.1717,131.027802L-125.1717,125.827797z"/>
    <path transform="matrix(0,-0.999998,1,0,477.093262,-685.960815)" style="stroke:#000000;stroke-width:0.050000mm;fill:none" d="M-105.196701,123.967796L-103.396698,123.967796L-103.396698,129.167801L-105.196701,129.167801L-105.196701,123.967796z"/>
    <path transform="matrix(0,-0.999998,1,0,477.093262,-685.960815)" style="stroke:#000000;stroke-width:0.050000mm;fill:none" d="M-163.196701,113.777802L-161.396698,113.777802L-161.396698,118.977798L-163.196701,118.977798L-163.196701,113.777802z"/>
    <path transform="matrix(0,-0.999998,1,0,477.093262,-685.960815)" style="stroke:#000000;stroke-width:0.050000mm;fill:none" d="M-143.696701,113.277802L-141.896698,113.277802L-141.896698,118.477798L-143.696701,118.477798L-143.696701,113.277802z"/>
    <path transform="matrix(0,-0.999998,1,0,477.093262,-685.960815)" style="stroke:#000000;stroke-width:0.050000mm;fill:none" d="M-124.946701,106.052803L-123.146698,106.052803L-123.146698,111.2528L-124.946701,111.2528L-124.946701,106.052803z"/>
    <path transform="matrix(0,-0.999998,1,0,477.093262,-685.960815)" style="stroke:#000000;stroke-width:0.050000mm;fill:none" d="M-105.696701,103.467796L-103.896698,103.467796L-103.896698,108.667801L-105.696701,108.667801L-105.696701,103.467796z"/>
    <path transform="matrix(0,-0.999998,1,0,477.093262,-685.960815)" style="stroke:#000000;stroke-width:0.050000mm;fill:none" d="M-163.196701,96.527802L-161.396698,96.527802L-161.396698,101.727798L-163.196701,101.727798L-163.196701,96.527802z"/>
    <path transform="matrix(0,-0.999998,1,0,477.093262,-685.960815)" style="stroke:#000000;stroke-width:0.050000mm;fill:none" d="M-143.446701,96.7528L-141.646698,96.7528L-141.646698,101.952797L-143.446701,101.952797L-143.446701,96.7528z"/>
    <path transform="matrix(0,-0.999998,1,0,477.093262,-685.960815)" style="stroke:#000000;stroke-width:0.050000mm;fill:none" d="M-124.696701,87.827797L-122.896698,87.827797L-122.896698,93.027802L-124.696701,93.027802L-124.696701,87.827797z"/>
    <path transform="matrix(0,-0.999998,1,0,477.093262,-685.960815)" style="stroke:#000000;stroke-width:0.050000mm;fill:none" d="M-52.471699,142.802795L-55.8717,142.802795L-55.8717,145.002808L-52.471699,145.002808L-52.471699,142.802795z"/>
    <path transform="matrix(0,-0.999998,1,0,477.093262,-685.960815)" style="stroke:#000000;stroke-width:0.050000mm;fill:none" d="M-52.471699,154.002808L-55.8717,154.002808L-55.8717,156.202805L-52.471699,156.202805L-52.471699,154.002808z"/>
    <circle transform="matrix(-0,0.999998,1,0,624.096069,-639.289124)" style="stroke:#000000;stroke-width:0.050000mm;fill:none" r="1.1" cx="0" cy="0"/>
    <circle transform="matrix(-0,0.999998,1,0,626.596069,-639.289124)" style="stroke:#000000;stroke-width:0.050000mm;fill:none" r="1.1" cx="0" cy="0"/>
    <circle transform="matrix(-0,0.999998,1,0,629.096069,-639.289124)" style="stroke:#000000;stroke-width:0.050000mm;fill:none" r="1.1" cx="0" cy="0"/>
    <circle transform="matrix(-0,0.999998,1,0,624.096069,-624.789185)" style="stroke:#000000;stroke-width:0.050000mm;fill:none" r="1.1" cx="0" cy="0"/>
    <circle transform="matrix(-0,0.999998,1,0,629.096069,-624.789185)" style="stroke:#000000;stroke-width:0.050000mm;fill:none" r="1.1" cx="0" cy="0"/>
    <path transform="matrix(-0,1,1,0,-18.99968,-1198.000366)" style="stroke:#000000;stroke-width:0.050000mm;fill:none" d="M680.585815,627.745972L684.085815,627.745972L685.685791,628.695923L685.685791,631.695923L684.235779,632.645935L680.435791,632.645935L678.985779,631.695923L678.985779,628.695923L680.585815,627.745972z"/>
    <path transform="matrix(-0,1,1,0,-18.99968,-1198.000366)" style="stroke:#000000;stroke-width:0.050000mm;fill:none" d="M604.385925,599.745972L607.885925,599.745972L609.485901,600.695923L609.485901,603.695923L608.035889,604.645935L604.235901,604.645935L602.785889,603.695923L602.785889,600.695923L604.385925,599.745972z"/>
    <path transform="matrix(-0,1,1,0,-18.99968,-1198.000366)" style="stroke:#000000;stroke-width:0.050000mm;fill:none" d="M604.385925,656.845947L607.885925,656.845947L609.485901,657.795959L609.485901,660.795959L608.035889,661.745972L604.235901,661.745972L602.785889,660.795959L602.785889,657.795959L604.385925,656.845947z"/>
    <path transform="matrix(-0,1,1,0,-18.99968,-1198.000366)" style="stroke:#000000;stroke-width:0.050000mm;fill:none" d="M680.585815,608.695923L684.085815,608.695923L685.685791,609.645935L685.685791,612.645935L684.235779,613.595947L680.435791,613.595947L678.985779,612.645935L678.985779,609.645935L680.585815,608.695923z"/>
    <path transform="matrix(-0,1,1,0,-18.99968,-1198.000366)" style="stroke:#000000;stroke-width:0.050000mm;fill:none" d="M588.835938,583.145935L585.335938,583.145935L583.735962,584.095947L583.735962,587.095947L585.185913,588.045959L588.985962,588.045959L590.435913,587.095947L590.435913,584.095947L588.835938,583.145935z"/>
    <path transform="matrix(-0,1,1,0,-18.99968,-1198.000366)" style="stroke:#000000;stroke-width:0.050000mm;fill:none" d="M604.385925,637.845947L607.885925,637.845947L609.485901,638.795959L609.485901,641.795959L608.035889,642.745972L604.235901,642.745972L602.785889,641.795959L602.785889,638.795959L604.385925,637.845947z"/>
    <path transform="matrix(-0,1,1,0,-18.99968,-1198.000366)" style="stroke:#000000;stroke-width:0.050000mm;fill:none" d="M626.935852,635.335938L623.435852,635.335938L621.835876,636.28595L621.835876,639.28595L623.285889,640.235962L627.085876,640.235962L628.535889,639.28595L628.535889,636.28595L626.935852,635.335938z"/>
    <path transform="matrix(-0,1,1,0,-18.99968,-1198.000366)" style="stroke:#000000;stroke-width:0.050000mm;fill:none" d="M565.28595,629.695923L564.485962,629.695923C563.988953,629.696045,563.586121,630.098938,563.586121,630.595947C563.586121,631.092957,563.988953,631.49585,564.485962,631.495972L565.28595,631.495972C565.782959,631.49585,566.185852,631.092957,566.185852,630.595947C566.185852,630.098938,565.782959,629.696045,565.28595,629.695923z"/>
    <path transform="matrix(-0,1,1,0,-18.99968,-1198.000366)" style="stroke:#000000;stroke-width:0.050000mm;fill:none" d="M680.585815,589.645935L684.085815,589.645935L685.685791,590.595947L685.685791,593.595947L684.235779,594.545959L680.435791,594.545959L678.985779,593.595947L678.985779,590.595947L680.585815,589.645935z"/>
    <path transform="matrix(-0,1,1,0,-18.99968,-1198.000366)" style="stroke:#000000;stroke-width:0.050000mm;fill:none" d="M588.835938,640.245972L585.335938,640.245972L583.735962,641.195923L583.735962,644.195923L585.185913,645.145935L588.985962,645.145935L590.435913,644.195923L590.435913,641.195923L588.835938,640.245972z"/>
    <path transform="matrix(-0,1,1,0,-18.99968,-1198.000366)" style="stroke:#000000;stroke-width:0.050000mm;fill:none" d="M645.98584,637.845947L642.48584,637.845947L640.885864,638.795959L640.885864,641.795959L642.335815,642.745972L646.135864,642.745972L647.585815,641.795959L647.585815,638.795959L645.98584,637.845947z"/>
    <path transform="matrix(-0,1,1,0,-18.99968,-1198.000366)" style="stroke:#000000;stroke-width:0.050000mm;fill:none" d="M561.286011,629.695923L560.485962,629.695923C559.988953,629.696045,559.586121,630.098938,559.586121,630.595947C559.586121,631.092957,559.988953,631.49585,560.485962,631.495972L561.286011,631.495972C561.782959,631.49585,562.185852,631.092957,562.185852,630.595947C562.185852,630.098938,561.782959,629.696045,561.286011,629.695923z"/>
    <path transform="matrix(-0,1,1,0,-18.99968,-1198.000366)" style="stroke:#000000;stroke-width:0.050000mm;fill:none" d="M566.78595,625.495972L565.985962,625.495972C565.488953,625.495972,565.086121,625.898926,565.086121,626.395935C565.086121,626.892944,565.488953,627.295898,565.985962,627.295959L566.78595,627.295959C567.282959,627.295898,567.685852,626.892944,567.685852,626.395935C567.685852,625.898926,567.282959,625.495972,566.78595,625.495972z"/>
    <path transform="matrix(-0,1,1,0,-18.99968,-1198.000366)" style="stroke:#000000;stroke-width:0.050000mm;fill:none" d="M680.585815,646.795959L684.085815,646.795959L685.685791,647.745972L685.685791,650.745972L684.235779,651.695923L680.435791,651.695923L678.985779,650.745972L678.985779,647.745972L680.585815,646.795959z"/>
    <path transform="matrix(-0,1,1,0,-18.99968,-1198.000366)" style="stroke:#000000;stroke-width:0.050000mm;fill:none" d="M645.98584,580.645935L642.48584,580.645935L640.885864,581.595947L640.885864,584.595947L642.335815,585.545959L646.135864,585.545959L647.585815,584.595947L647.585815,581.595947L645.98584,580.645935z"/>
    <path transform="matrix(-0,1,1,0,-18.99968,-1198.000366)" style="stroke:#000000;stroke-width:0.050000mm;fill:none" d="M661.535828,646.795959L665.035828,646.795959L666.635803,647.745972L666.635803,650.745972L665.185791,651.695923L661.385803,651.695923L659.935791,650.745972L659.935791,647.745972L661.535828,646.795959z"/>
    <path transform="matrix(-0,1,1,0,-18.99968,-1198.000366)" style="stroke:#000000;stroke-width:0.050000mm;fill:none" d="M554.860107,579.574219L554.861267,655.495972L549.984314,670.714722C549.901245,671.001221,549.936218,671.309021,550.081421,671.569519L559.174561,687.355713C559.42749,687.79364,559.94635,688.002686,560.43219,687.862427L604.73999,675.095947L654.085815,675.095947L691.262146,664.462341C691.732239,664.325928,692.055786,663.895447,692.055969,663.405945L692.028931,589.177856C692.028992,588.671875,691.683838,588.23114,691.192627,588.109863L642.535828,576.095947L615.585876,576.095947L555.908691,578.474731C555.321411,578.502014,554.859497,578.986328,554.860107,579.574219z"/>
    <path transform="matrix(-0,1,1,0,-18.99968,-1198.000366)" style="stroke:#000000;stroke-width:0.050000mm;fill:none" d="M558.286011,629.695923L557.485962,629.695923C556.989014,629.696045,556.586121,630.098938,556.586121,630.595947C556.586121,631.092957,556.989014,631.49585,557.485962,631.495972L558.286011,631.495972C558.78302,631.49585,559.185852,631.092957,559.185852,630.595947C559.185852,630.098938,558.78302,629.696045,558.286011,629.695923z"/>
    <path transform="matrix(-0,1,1,0,-18.99968,-1198.000366)" style="stroke:#000000;stroke-width:0.050000mm;fill:none" d="M569.305847,669.005371L571.055847,672.036438L571.033142,673.897034L568.435059,675.397034L566.88739,674.616333L564.987366,671.325439L565.085083,669.594727L567.683167,668.094727L569.305847,669.005371z"/>
    <path transform="matrix(-0,1,1,0,-18.99968,-1198.000366)" style="stroke:#000000;stroke-width:0.050000mm;fill:none" d="M626.935852,578.145935L623.435852,578.145935L621.835876,579.095947L621.835876,582.095947L623.285889,583.045959L627.085876,583.045959L628.535889,582.095947L628.535889,579.095947L626.935852,578.145935z"/>
    <path transform="matrix(-0,1,1,0,-18.99968,-1198.000366)" style="stroke:#000000;stroke-width:0.050000mm;fill:none" d="M645.98584,599.645935L642.48584,599.645935L640.885864,600.595947L640.885864,603.595947L642.335815,604.545959L646.135864,604.545959L647.585815,603.595947L647.585815,600.595947L645.98584,599.645935z"/>
    <path transform="matrix(-0,1,1,0,-18.99968,-1198.000366)" style="stroke:#000000;stroke-width:0.050000mm;fill:none" d="M626.935852,616.335938L623.435852,616.335938L621.835876,617.28595L621.835876,620.28595L623.285889,621.235962L627.085876,621.235962L628.535889,620.28595L628.535889,617.28595L626.935852,616.335938z"/>
    <path transform="matrix(-0,1,1,0,-18.99968,-1198.000366)" style="stroke:#000000;stroke-width:0.050000mm;fill:none" d="M588.835938,621.245972L585.335938,621.245972L583.735962,622.195923L583.735962,625.195923L585.185913,626.145935L588.985962,626.145935L590.435913,625.195923L590.435913,622.195923L588.835938,621.245972z"/>
    <path transform="matrix(-0,1,1,0,-18.99968,-1198.000366)" style="stroke:#000000;stroke-width:0.050000mm;fill:none" d="M626.935852,654.435913L623.435852,654.435913L621.835876,655.385925L621.835876,658.385925L623.285889,659.335938L627.085876,659.335938L628.535889,658.385925L628.535889,655.385925L626.935852,654.435913z"/>
    <path transform="matrix(-0,1,1,0,-18.99968,-1198.000366)" style="stroke:#000000;stroke-width:0.050000mm;fill:none" d="M604.385925,580.645935L607.885925,580.645935L609.485901,581.595947L609.485901,584.595947L608.035889,585.545959L604.235901,585.545959L602.785889,584.595947L602.785889,581.595947L604.385925,580.645935z"/>
    <path transform="matrix(-0,1,1,0,-18.99968,-1198.000366)" style="stroke:#000000;stroke-width:0.050000mm;fill:none" d="M604.385925,618.745972L607.885925,618.745972L609.485901,619.695923L609.485901,622.695923L608.035889,623.645935L604.235901,623.645935L602.785889,622.695923L602.785889,619.695923L604.385925,618.745972z"/>
    <path transform="matrix(-0,1,1,0,-18.99968,-1198.000366)" style="stroke:#000000;stroke-width:0.050000mm;fill:none" d="M661.535828,627.745972L665.035828,627.745972L666.635803,628.695923L666.635803,631.695923L665.185791,632.645935L661.385803,632.645935L659.935791,631.695923L659.935791,628.695923L661.535828,627.745972z"/>
    <path transform="matrix(-0,1,1,0,-18.99968,-1198.000366)" style="stroke:#000000;stroke-width:0.050000mm;fill:none" d="M645.98584,618.745972L642.48584,618.745972L640.885864,619.695923L640.885864,622.695923L642.335815,623.645935L646.135864,623.645935L647.585815,622.695923L647.585815,619.695923L645.98584,618.745972z"/>
    <path transform="matrix(-0,1,1,0,-18.99968,-1198.000366)" style="stroke:#000000;stroke-width:0.050000mm;fill:none" d="M661.535828,589.645935L665.035828,589.645935L666.635803,590.595947L666.635803,593.595947L665.185791,594.545959L661.385803,594.545959L659.935791,593.595947L659.935791,590.595947L661.535828,589.645935z"/>
    <path transform="matrix(-0,1,1,0,-18.99968,-1198.000366)" style="stroke:#000000;stroke-width:0.050000mm;fill:none" d="M645.98584,656.945923L642.48584,656.945923L640.885864,657.895935L640.885864,660.895935L642.335815,661.845947L646.135864,661.845947L647.585815,660.895935L647.585815,657.895935L645.98584,656.945923z"/>
    <path transform="matrix(-0,1,1,0,-18.99968,-1198.000366)" style="stroke:#000000;stroke-width:0.050000mm;fill:none" d="M594.990906,661.01593L594.960938,666.195923L589.760925,666.195923C589.743896,663.868591,589.753906,661.54303,589.790955,659.215942L594.990906,659.215942L594.990906,661.01593z"/>
    <path transform="matrix(0,-1,1,0,477.093262,-685.960999)" style="stroke:#000000;stroke-width:0.050000mm;fill:none" d="M-56.7967,129.402802L-63.7967,129.402802L-63.7967,133.602798L-56.7967,133.602798L-56.7967,129.402802z"/>
    <path transform="matrix(0,-1,1,0,477.093262,-685.960999)" style="stroke:#000000;stroke-width:0.050000mm;fill:none" d="M-136.096695,163.222794L-143.096695,163.222794L-143.096695,167.422806L-136.096695,167.422806L-136.096695,163.222794z"/>
    <path transform="matrix(0,-1,1,0,477.093262,-685.960999)" style="stroke:#000000;stroke-width:0.050000mm;fill:none" d="M-100.130302,161.165405L-107.130302,161.165405L-107.130302,165.365402L-100.130302,165.365402L-100.130302,161.165405z"/>
    <path transform="matrix(-0,1,1,0,-18.99968,-1198.000366)" style="stroke:#000000;stroke-width:0.050000mm;fill:none" d="M579.485962,646.445923L575.145935,646.445923L575.145935,641.245972L579.485962,641.245972L579.485962,646.445923L579.485962,646.445923z"/>
    <path transform="matrix(-0,1,1,0,-18.99968,-1198.000366)" style="stroke:#000000;stroke-width:0.050000mm;fill:none" d="M598.735901,627.370972C597.220947,627.459473,595.703247,627.492676,594.185913,627.470947L594.185913,622.270935C595.700867,622.182434,597.218567,622.149048,598.735901,622.170959L598.735901,627.370972z"/>
    <path transform="matrix(-0,1,1,0,-18.99968,-1198.000366)" style="stroke:#000000;stroke-width:0.050000mm;fill:none" d="M597.285889,607.495972C595.687195,607.500977,594.084473,607.492554,592.485962,607.470947L592.485962,602.270935C594.084839,602.265869,595.687195,602.274292,597.285889,602.295959L597.285889,607.495972z"/>
    <path transform="matrix(-0,1,1,0,-18.99968,-1198.000366)" style="stroke:#000000;stroke-width:0.050000mm;fill:none" d="M586.386536,664.765137L585.231812,666.058044L581.561279,667.041504L578.935913,667.325928L571.935913,667.325928L571.935913,663.125977L574.410767,660.82074L579.610779,660.82074L583.818726,661.363831L585.610046,661.86731L586.386536,664.765137L586.386536,664.765137z"/>
    <path transform="matrix(-0,1,1,0,-18.99968,-1198.000366)" style="stroke:#000000;stroke-width:0.050000mm;fill:none" d="M598.485901,589.47644C597.125854,589.477966,595.796265,589.476135,594.435913,589.470947L594.435913,584.270935C595.798706,584.269409,597.123901,584.27124,598.485901,584.276428L598.485901,589.47644z"/>
    <path transform="matrix(-0,1,1,0,-177.350662,-960.766235)" style="stroke:#000000;stroke-width:0.050000mm;fill:none" d="M376.25177,750.596924L374.991852,746.571228C374.873169,746.258484,374.613678,746.020203,374.291962,745.928528L369.401764,744.746948C369.072632,744.672119,368.730896,744.672119,368.401764,744.746948L363.511536,745.928528L363.151764,746.096924L360.301758,748.096924L360.301758,750.896973L363.577942,753.403931C363.964264,753.708557,364.441406,753.875061,364.93335,753.876953L373.401764,753.876953L376.25177,753.496948L376.25177,750.596924z"/>
    <path transform="matrix(-0,1,1,0,-177.350662,-960.766235)" style="stroke:#000000;stroke-width:0.050000mm;fill:none" d="M414.351746,750.596924L413.091858,746.571228C412.973175,746.258484,412.713684,746.020203,412.391968,745.928528L407.50177,744.746948C407.172607,744.672119,406.830872,744.672119,406.50177,744.746948L401.611572,745.928528L401.25177,746.096924L398.401764,748.096924L398.401764,750.896973L401.677948,753.403931C402.06427,753.708557,402.541412,753.875061,403.033356,753.876953L411.50177,753.876953L414.351746,753.496948L414.351746,750.596924z"/>
    <path transform="matrix(-0,1,1,0,-177.350662,-960.766235)" style="stroke:#000000;stroke-width:0.050000mm;fill:none" d="M452.451752,759.596924L451.191833,755.571228C451.073181,755.258484,450.81366,755.020203,450.491943,754.928528L445.601746,753.746948C445.272644,753.672119,444.930908,753.672119,444.601746,753.746948L439.711548,754.928528L439.351746,755.096924L436.50177,757.096924L436.50177,759.896973L439.777954,762.403931C440.164276,762.708557,440.641418,762.875061,441.133362,762.876953L449.601746,762.876953L452.451752,762.496948L452.451752,759.596924z"/>
    <path transform="matrix(-0,1,1,0,-177.350662,-960.766235)" style="stroke:#000000;stroke-width:0.050000mm;fill:none" d="M433.401733,778.646973L432.141846,774.621277C432.023193,774.308472,431.763672,774.07019,431.441956,773.978577L426.551758,772.796936C426.222626,772.722168,425.88089,772.722168,425.551758,772.796936L420.66156,773.978577L420.301758,774.146973L417.451752,776.146973L417.451752,778.94696L420.727966,781.453979C421.114258,781.758545,421.591431,781.925049,422.083374,781.926941L430.551758,781.926941L433.401733,781.546936L433.401733,778.646973z"/>
    <path transform="matrix(-0,1,1,0,-177.350662,-960.766235)" style="stroke:#000000;stroke-width:0.050000mm;fill:none" d="M452.451752,778.646973L451.191833,774.621277C451.073181,774.308472,450.81366,774.07019,450.491943,773.978577L445.601746,772.796936C445.272644,772.722168,444.930908,772.722168,444.601746,772.796936L439.711548,773.978577L439.351746,774.146973L436.50177,776.146973L436.50177,778.94696L439.777954,781.453979C440.164276,781.758545,440.641418,781.925049,441.133362,781.926941L449.601746,781.926941L452.451752,781.546936L452.451752,778.646973z"/>
    <path transform="matrix(-0,1,1,0,-177.350662,-960.766235)" style="stroke:#000000;stroke-width:0.050000mm;fill:none" d="M395.301758,767.186951L394.04187,763.161255C393.923157,762.848511,393.663696,762.610229,393.341949,762.518555L388.451752,761.336975C388.12262,761.262146,387.780884,761.262146,387.451752,761.336975L382.561554,762.518555L382.201752,762.686951L379.351746,764.686951L379.351746,767.486938L382.62796,769.993958C383.014252,770.298523,383.491394,770.465027,383.983337,770.466919L392.451752,770.466919L395.301758,770.086975L395.301758,767.186951z"/>
    <path transform="matrix(-0,1,1,0,-177.350662,-960.766235)" style="stroke:#000000;stroke-width:0.050000mm;fill:none" d="M414.351746,769.596924L413.091858,765.571228C412.973175,765.258484,412.713684,765.020203,412.391968,764.928528L407.50177,763.746948C407.172607,763.672119,406.830872,763.672119,406.50177,763.746948L401.611572,764.928528L401.25177,765.096924L398.401764,767.096924L398.401764,769.896973L401.677948,772.403931C402.06427,772.708557,402.541412,772.875061,403.033356,772.876953L411.50177,772.876953L414.351746,772.496948L414.351746,769.596924z"/>
    <path transform="matrix(-0,1,1,0,-177.350662,-960.766235)" style="stroke:#000000;stroke-width:0.050000mm;fill:none" d="M357.201752,772.19696L355.941864,768.171265C355.823181,767.858521,355.56366,767.620178,355.241943,767.528564L350.351746,766.346924C350.022614,766.272156,349.680908,766.272156,349.351746,766.346924L344.461548,767.528564L344.101746,767.69696L341.25177,769.69696L341.25177,772.496948L344.527954,775.003967C344.914246,775.308533,345.391418,775.475037,345.883362,775.476929L354.351746,775.476929L357.201752,775.096924L357.201752,772.19696z"/>
    <path transform="matrix(-0,1,1,0,-177.350662,-960.766235)" style="stroke:#000000;stroke-width:0.050000mm;fill:none" d="M376.25177,769.69696L374.991852,765.671265C374.873169,765.358521,374.613678,765.120178,374.291962,765.028564L369.401764,763.846924C369.072632,763.772156,368.730896,763.772156,368.401764,763.846924L363.511536,765.028564L363.151764,765.19696L360.301758,767.19696L360.301758,769.996948L363.577942,772.503967C363.964264,772.808533,364.441406,772.975037,364.93335,772.976929L373.401764,772.976929L376.25177,772.596924L376.25177,769.69696z"/>
    <path transform="matrix(-0,1,1,0,-177.350662,-960.766235)" style="stroke:#000000;stroke-width:0.050000mm;fill:none" d="M376.25177,788.69696L374.991852,784.671265C374.873169,784.358521,374.613678,784.120239,374.291962,784.028564L369.401764,782.846924C369.072632,782.772156,368.730896,782.772156,368.401764,782.846924L363.511536,784.028564L363.151764,784.19696L360.301758,786.19696L360.301758,788.996948L363.577942,791.503967C363.964264,791.808533,364.441406,791.975037,364.93335,791.976929L373.401764,791.976929L376.25177,791.596924L376.25177,788.69696z"/>
    <path transform="matrix(-0,1,1,0,-177.350662,-960.766235)" style="stroke:#000000;stroke-width:0.050000mm;fill:none" d="M357.201752,791.19696L355.941864,787.171265C355.823181,786.858521,355.56366,786.620239,355.241943,786.528564L350.351746,785.346924C350.022614,785.272156,349.680908,785.272156,349.351746,785.346924L344.461548,786.528564L344.101746,786.69696L341.25177,788.69696L341.25177,791.496948L344.527954,794.003967C344.914276,794.308533,345.391418,794.475037,345.883362,794.476929L354.351746,794.476929L357.201752,794.096924L357.201752,791.19696z"/>
    <path transform="matrix(-0,1,1,0,-177.350662,-960.766235)" style="stroke:#000000;stroke-width:0.050000mm;fill:none" d="M376.25177,807.796936L374.991852,803.77124C374.873169,803.458496,374.613678,803.220215,374.291962,803.12854L369.401764,801.94696C369.072632,801.872192,368.730896,801.872192,368.401764,801.94696L363.511536,803.12854L363.151764,803.296936L360.301758,805.296936L360.301758,808.096924L363.577942,810.603943C363.964264,810.908569,364.441406,811.075073,364.93335,811.076965L373.401764,811.076965L376.25177,810.69696L376.25177,807.796936z"/>
    <path transform="matrix(-0,1,1,0,-177.350662,-960.766235)" style="stroke:#000000;stroke-width:0.050000mm;fill:none" d="M357.201752,810.19696L355.941864,806.171265C355.823181,805.858521,355.56366,805.620239,355.241943,805.528564L350.351746,804.346924C350.022614,804.272156,349.680908,804.272156,349.351746,804.346924L344.461548,805.528564L344.101746,805.69696L341.25177,807.69696L341.25177,810.496948L344.527954,813.003967C344.914276,813.308533,345.391418,813.475037,345.883362,813.476929L354.351746,813.476929L357.201752,813.096924L357.201752,810.19696z"/>
    <path transform="matrix(-0,1,1,0,-177.350662,-960.766235)" style="stroke:#000000;stroke-width:0.050000mm;fill:none" d="M354.996063,829.470215L352.737061,825.907837C352.541473,825.636475,352.229156,825.473389,351.894653,825.46814L346.865356,825.592468C346.528046,825.605347,346.197937,825.693787,345.899353,825.851257L341.481659,828.25824L341.177643,828.514038L338.942444,831.183533L339.667145,833.888184L343.48056,835.461853C343.932526,835.656006,344.436493,835.693359,344.91217,835.567871L353.092041,833.376038L355.746552,832.271484L354.996063,829.470215z"/>
    <path transform="matrix(-0,1,1,0,-177.350662,-960.766235)" style="stroke:#000000;stroke-width:0.050000mm;fill:none" d="M376.25177,826.796936L374.991852,822.77124C374.873169,822.458496,374.613678,822.220215,374.291962,822.12854L369.401764,820.94696C369.072632,820.872192,368.730896,820.872192,368.401764,820.94696L363.511536,822.12854L363.151764,822.296936L360.301758,824.296936L360.301758,827.096924L363.577942,829.603943C363.964264,829.908569,364.441406,830.075073,364.93335,830.076965L373.401764,830.076965L376.25177,829.69696L376.25177,826.796936z"/>
    <path transform="matrix(-0,1,1,0,-177.350662,-960.766235)" style="stroke:#000000;stroke-width:0.050000mm;fill:none" d="M326.575745,841.037231L329.432159,837.933228C329.643677,837.674072,329.720276,837.3302,329.638763,837.005737L328.217041,832.179932C328.117249,831.857544,327.946411,831.561584,327.717041,831.313965L324.248657,827.669678L323.922852,827.442261L320.765869,825.97406L318.340942,827.374023L317.807861,831.464844C317.737244,831.951721,317.831635,832.448181,318.075958,832.875122L322.310242,840.209045L324.06427,842.487244L326.575745,841.037231z"/>
    <path transform="matrix(-0,1,1,0,-177.350662,-960.766235)" style="stroke:#000000;stroke-width:0.050000mm;fill:none" d="M395.301758,824.386963L394.04187,820.361267C393.923157,820.048462,393.663696,819.810181,393.341949,819.718567L388.451752,818.536987C388.12262,818.462158,387.780884,818.462158,387.451752,818.536987L382.561554,819.718567L382.201752,819.886963L379.351746,821.886963L379.351746,824.686951L382.62796,827.19397C383.014282,827.498535,383.491394,827.665039,383.983337,827.666931L392.451752,827.666931L395.301758,827.286987L395.301758,824.386963z"/>
    <path transform="matrix(-0,1,1,0,-177.350662,-960.766235)" style="stroke:#000000;stroke-width:0.050000mm;fill:none" d="M433.401733,816.746948L432.141846,812.721252C432.023193,812.408508,431.763672,812.170227,431.441956,812.078552L426.551758,810.896973C426.222626,810.822144,425.88089,810.822144,425.551758,810.896973L420.66156,812.078552L420.301758,812.246948L417.451752,814.246948L417.451752,817.046936L420.727966,819.553955C421.114258,819.858521,421.591431,820.025024,422.083374,820.026978L430.551758,820.026978L433.401733,819.646973L433.401733,816.746948z"/>
    <path transform="matrix(-0,1,1,0,-177.350662,-960.766235)" style="stroke:#000000;stroke-width:0.050000mm;fill:none" d="M414.351746,826.896973L413.091858,822.871216C412.973175,822.558472,412.713684,822.32019,412.391968,822.228516L407.50177,821.046936C407.172607,820.972168,406.830872,820.972168,406.50177,821.046936L401.611572,822.228516L401.25177,822.396973L398.401764,824.396973L398.401764,827.19696L401.677948,829.703979C402.06427,830.008545,402.541412,830.175049,403.033356,830.176941L411.50177,830.176941L414.351746,829.796936L414.351746,826.896973z"/>
    <path transform="matrix(-0,1,1,0,-177.350662,-960.766235)" style="stroke:#000000;stroke-width:0.050000mm;fill:none" d="M452.451752,816.746948L451.191833,812.721252C451.073181,812.408508,450.81366,812.170166,450.491943,812.078552L445.601746,810.896973C445.272644,810.822144,444.930908,810.822144,444.601746,810.896973L439.711548,812.078552L439.351746,812.246948L436.50177,814.246948L436.50177,817.046936L439.777954,819.553955C440.164246,819.858521,440.641418,820.025024,441.133362,820.026978L449.601746,820.026978L452.451752,819.646973L452.451752,816.746948z"/>
    <path transform="matrix(-0,1,1,0,-177.350662,-960.766235)" style="stroke:#000000;stroke-width:0.050000mm;fill:none" d="M452.451752,797.69696L451.191833,793.671265C451.073181,793.358521,450.81366,793.120178,450.491943,793.028564L445.601746,791.846924C445.272644,791.772156,444.930908,791.772156,444.601746,791.846924L439.711548,793.028564L439.351746,793.19696L436.50177,795.19696L436.50177,797.996948L439.777954,800.503967C440.164246,800.808533,440.641418,800.975037,441.133362,800.976929L449.601746,800.976929L452.451752,800.596924L452.451752,797.69696z"/>
    <path transform="matrix(-0,1,1,0,-177.350662,-960.766235)" style="stroke:#000000;stroke-width:0.050000mm;fill:none" d="M433.401733,797.69696L432.141846,793.671265C432.023193,793.358521,431.763672,793.120239,431.441956,793.028564L426.551758,791.846924C426.222626,791.772156,425.88089,791.772156,425.551758,791.846924L420.66156,793.028564L420.301758,793.19696L417.451752,795.19696L417.451752,797.996948L420.727966,800.503967C421.114258,800.808533,421.591431,800.975098,422.083374,800.976929L430.551758,800.976929L433.401733,800.596924L433.401733,797.69696z"/>
    <path transform="matrix(-0,1,1,0,-177.350662,-960.766235)" style="stroke:#000000;stroke-width:0.050000mm;fill:none" d="M414.351746,788.69696L413.091858,784.671265C412.973175,784.358521,412.713684,784.120239,412.391968,784.028564L407.50177,782.846924C407.172607,782.772156,406.830872,782.772156,406.50177,782.846924L401.611572,784.028564L401.25177,784.19696L398.401764,786.19696L398.401764,788.996948L401.677948,791.503967C402.06427,791.808533,402.541412,791.975037,403.033356,791.976929L411.50177,791.976929L414.351746,791.596924L414.351746,788.69696z"/>
    <path transform="matrix(-0,1,1,0,-177.350662,-960.766235)" style="stroke:#000000;stroke-width:0.050000mm;fill:none" d="M395.301758,786.286987L394.04187,782.26123C393.923157,781.948486,393.663696,781.710205,393.341949,781.61853L388.451752,780.436951C388.12262,780.362122,387.780884,780.362122,387.451752,780.436951L382.561554,781.61853L382.201752,781.786926L379.351746,783.786987L379.351746,786.586975L382.62796,789.093933C383.014282,789.39856,383.491425,789.565063,383.983337,789.566956L392.451752,789.566956L395.301758,789.186951L395.301758,786.286987z"/>
    <path transform="matrix(-0,1,1,0,-177.350662,-960.766235)" style="stroke:#000000;stroke-width:0.050000mm;fill:none" d="M414.351746,807.796936L413.091858,803.77124C412.973175,803.458496,412.713684,803.220215,412.391968,803.12854L407.50177,801.94696C407.172607,801.872192,406.830872,801.872192,406.50177,801.94696L401.611572,803.12854L401.25177,803.296936L398.401764,805.296936L398.401764,808.096924L401.677948,810.603943C402.06427,810.908569,402.541412,811.075073,403.033356,811.076965L411.50177,811.076965L414.351746,810.69696L414.351746,807.796936z"/>
    <path transform="matrix(-0,1,1,0,-177.350662,-960.766235)" style="stroke:#000000;stroke-width:0.050000mm;fill:none" d="M395.301758,805.286987L394.04187,801.26123C393.923157,800.948486,393.663696,800.710205,393.341949,800.61853L388.451752,799.436951C388.12262,799.362183,387.780884,799.362183,387.451752,799.436951L382.561554,800.61853L382.201752,800.786987L379.351746,802.786987L379.351746,805.586975L382.62796,808.093933C383.014282,808.39856,383.491425,808.565063,383.983337,808.566956L392.451752,808.566956L395.301758,808.186951L395.301758,805.286987z"/>
    <path transform="matrix(-0,1,1,0,-133.99968,-1198.000366)" style="stroke:#000000;stroke-width:0.050000mm;fill:none" d="M617.98584,700.341797L618.668457,700.784668L619.436035,700.246094L619.795654,700.077637L624.686035,698.895996C625.01532,698.822693,625.356812,698.822449,625.686035,698.895996L630.576172,700.077637L630.693604,700.118652L630.804443,700.172852L630.907715,700.23877L631.002197,700.316162L631.084961,700.406006L631.161865,700.500732C631.205811,700.57074,631.241333,700.645264,631.276123,700.720215L632.535889,704.746094L632.535889,707.645996L629.686035,708.026123L628.585938,708.026123L628.585938,711.986084L628.535889,716.186035L627.085938,717.135986L623.285889,717.135986L621.835938,716.186035C621.592651,713.473328,621.507385,710.748718,621.580566,708.026123C621.215698,708.054932,620.848633,708.014404,620.499756,707.903809C620.269348,707.822693,620.054138,707.703857,619.862061,707.552979L616.585938,705.046143L616.585938,702.246094L616.186035,701.736084L616.186035,696.535889L617.98584,696.535889L617.98584,700.341797z"/>
    <path transform="matrix(-0,1,1,0,-133.99968,-1198.000366)" style="stroke:#000000;stroke-width:0.050000mm;fill:none" d="M587.337158,703.854004L587.585938,703.895996L592.476074,705.077637L592.59375,705.118652C592.707092,705.166748,592.806885,705.238647,592.9021,705.316162C592.963257,705.3703,593.016235,705.432922,593.061768,705.500732C593.106873,705.570068,593.142883,705.644531,593.176025,705.720215L594.436035,709.746094L594.436035,712.645996L591.585938,713.026123L590.585938,713.026123L590.585938,717.696045L590.436035,721.196045L588.986084,722.145996L585.186035,722.145996L583.736084,721.196045C583.580688,718.475464,583.515076,715.750977,583.539307,713.026123C583.155151,713.062073,582.767334,713.021545,582.400146,712.903076C582.171265,712.818604,581.957581,712.698914,581.762207,712.552979L578.48584,710.046143L578.48584,707.246094L581.335938,705.246094L581.695801,705.077637L586.585938,703.895996C586.830505,703.8302,587.086548,703.816956,587.337158,703.854004z"/>
    <path transform="matrix(-0,1,1,0,-133.99968,-1198.000366)" style="stroke:#000000;stroke-width:0.050000mm;fill:none" d="M663.537109,710.354004L663.785889,710.395996L668.676025,711.577637L668.793701,711.618652L668.904541,711.672852L669.007568,711.73877C669.184021,711.84906,669.314514,712.021301,669.375977,712.220215L670.635986,716.246094L670.635986,719.145996L667.785889,719.526123L667.585938,719.526123L667.585938,723.545898L666.635742,727.645996L665.185791,728.595947L661.385742,728.595947L659.935791,727.645996L659.935791,724.645996L660.563721,719.526123L659.317627,719.526123C658.825989,719.523621,658.351501,719.353149,657.962158,719.052979L654.686035,716.546143L654.686035,713.746094L657.535889,711.746094L657.895752,711.577637L662.785889,710.395996C663.032043,710.339294,663.286072,710.326111,663.537109,710.354004z"/>
    <path transform="matrix(-0,1,1,0,-138.999756,-1543.000244)" style="stroke:#000000;stroke-width:0.050000mm;fill:none" d="M917.875916,736.965942L917.861694,737.107056L917.820923,737.238403L917.756348,737.3573L917.670898,737.460938L917.567261,737.546387C917.448425,737.618652,917.315186,737.665283,917.175903,737.665955L907.015869,737.665955C906.629517,737.666687,906.318359,737.352295,906.315857,736.965942C906.322632,736.872925,906.344849,736.782654,906.37085,736.693481C906.773743,736.075256,907.290222,735.539063,907.894531,735.115479C907.973511,735.059875,908.050476,735.006775,908.144775,735.010132L908.285889,734.995911L915.905884,734.995911C915.998535,735.004333,916.089478,735.023804,916.178345,735.050903C916.256775,735.094421,916.330811,735.14502,916.400879,735.200928C916.895447,735.614624,917.349548,736.074402,917.756348,736.574585L917.820923,736.693481L917.861694,736.824829L917.875916,736.965942z"/>
</svg>
