  0
SECTION
  2
HEADER
  9
$ACADVER
  1
AC1009
  0
ENDSEC
  0
SECTION
  2
TABLES
  0
TABLE
  2
LAYER
  70
1
  0
LAYER
  2
Layer_0
  70
0
  62
7
  6
CONTINUOUS
  0
ENDTAB
  0
ENDSEC
  0
SECTION
  2
ENTITIES
  0
POLYLINE
  5
90
  8
Layer_0
  62
7
  70
1
  66
1
  10
0
  20
0
  30
0
  0
VERTEX
  5
90
  8
Layer_0
  10
-210.45288
  20
1042.2158
  42
0.30371312
  0
VERTEX
  5
91
  8
Layer_0
  10
-210.21387
  20
1043.4161
  42
0.3033124
  0
VERTEX
  5
92
  8
Layer_0
  10
-211.23242
  20
1044.0961
  42
0.07539746
  0
VERTEX
  5
93
  8
Layer_0
  10
-211.56024
  20
1044.0466
  42
0.32849281
  0
VERTEX
  5
94
  8
Layer_0
  10
-212.33484
  20
1042.9946
  0
VERTEX
  5
95
  8
Layer_0
  10
-212.33405
  20
1042.953
  42
0.29317522
  0
VERTEX
  5
96
  8
Layer_0
  10
-211.6543
  20
1041.9771
  0
VERTEX
  5
97
  8
Layer_0
  10
-211.61548
  20
1041.9619
  42
0.29294733
  0
SEQEND
  0
POLYLINE
  5
99
  8
Layer_0
  62
7
  70
1
  66
1
  10
0
  20
0
  30
0
  0
VERTEX
  5
99
  8
Layer_0
  10
-263.42682
  20
1145.4413
  0
VERTEX
  5
9a
  8
Layer_0
  10
-263.39789
  20
1145.4713
  42
0.29340987
  0
VERTEX
  5
9b
  8
Layer_0
  10
-263.18768
  20
1146.6414
  42
0.30312561
  0
VERTEX
  5
9c
  8
Layer_0
  10
-264.20673
  20
1147.3212
  42
0.19894697
  0
VERTEX
  5
9d
  8
Layer_0
  10
-264.98669
  20
1146.9987
  42
0.036842069
  0
VERTEX
  5
9e
  8
Layer_0
  10
-265.09332
  20
1146.8751
  42
0.16091887
  0
VERTEX
  5
9f
  8
Layer_0
  10
-265.30975
  20
1146.22
  0
VERTEX
  5
a0
  8
Layer_0
  10
-265.30896
  20
1146.1783
  42
0.29329284
  0
VERTEX
  5
a1
  8
Layer_0
  10
-264.62885
  20
1145.2026
  0
VERTEX
  5
a2
  8
Layer_0
  10
-264.59003
  20
1145.1874
  42
0.29272372
  0
SEQEND
  0
POLYLINE
  5
a4
  8
Layer_0
  62
7
  70
1
  66
1
  10
0
  20
0
  30
0
  0
VERTEX
  5
a4
  8
Layer_0
  10
-272.42786
  20
1069.241
  42
0.30370753
  0
VERTEX
  5
a5
  8
Layer_0
  10
-272.1889
  20
1070.441
  42
0.30325679
  0
VERTEX
  5
a6
  8
Layer_0
  10
-273.2074
  20
1071.1208
  42
0.17468157
  0
VERTEX
  5
a7
  8
Layer_0
  10
-273.90869
  20
1070.8693
  42
0.22467592
  0
VERTEX
  5
a8
  8
Layer_0
  10
-274.30988
  20
1070.0196
  0
VERTEX
  5
a9
  8
Layer_0
  10
-274.30908
  20
1069.978
  42
0.29312255
  0
VERTEX
  5
aa
  8
Layer_0
  10
-273.62933
  20
1069.0023
  0
VERTEX
  5
ab
  8
Layer_0
  10
-273.59052
  20
1068.9871
  42
0.29287539
  0
SEQEND
  0
POLYLINE
  5
ad
  8
Layer_0
  62
7
  70
1
  66
1
  10
0
  20
0
  30
0
  0
VERTEX
  5
ad
  8
Layer_0
  10
-231.82819
  20
1069.2416
  42
0.30359404
  0
VERTEX
  5
ae
  8
Layer_0
  10
-231.58923
  20
1070.4414
  42
0.30323795
  0
VERTEX
  5
af
  8
Layer_0
  10
-232.60779
  20
1071.121
  42
0.1374657
  0
VERTEX
  5
b0
  8
Layer_0
  10
-233.1795
  20
1070.9617
  42
0.26255492
  0
VERTEX
  5
b1
  8
Layer_0
  10
-233.71033
  20
1070.0201
  0
VERTEX
  5
b2
  8
Layer_0
  10
-233.70953
  20
1069.9785
  42
0.29314853
  0
VERTEX
  5
b3
  8
Layer_0
  10
-233.02972
  20
1069.0029
  0
VERTEX
  5
b4
  8
Layer_0
  10
-232.99091
  20
1068.9877
  42
0.2927511
  0
SEQEND
  0
POLYLINE
  5
b6
  8
Layer_0
  62
7
  70
1
  66
1
  10
0
  20
0
  30
0
  0
VERTEX
  5
b6
  8
Layer_0
  10
-225.0907
  20
1146.6406
  42
0.30325198
  0
VERTEX
  5
b7
  8
Layer_0
  10
-226.10767
  20
1147.3204
  42
0.19904834
  0
VERTEX
  5
b8
  8
Layer_0
  10
-226.88599
  20
1146.9979
  0
VERTEX
  5
b9
  8
Layer_0
  10
-226.92358
  20
1146.9583
  42
0.1861464
  0
VERTEX
  5
ba
  8
Layer_0
  10
-227.20837
  20
1146.2192
  0
VERTEX
  5
bb
  8
Layer_0
  10
-227.20758
  20
1146.1776
  42
0.29309684
  0
VERTEX
  5
bc
  8
Layer_0
  10
-226.52887
  20
1145.2018
  0
VERTEX
  5
bd
  8
Layer_0
  10
-226.49011
  20
1145.1866
  42
0.29321331
  0
VERTEX
  5
be
  8
Layer_0
  10
-225.32935
  20
1145.4406
  42
0.30325907
  0
SEQEND
  0
POLYLINE
  5
c0
  8
Layer_0
  62
7
  70
1
  66
1
  10
0
  20
0
  30
0
  0
VERTEX
  5
c0
  8
Layer_0
  10
-183.97217
  20
1032.582
  0
VERTEX
  5
c1
  8
Layer_0
  10
-199.7583
  20
1023.4888
  42
-0.19381883
  0
VERTEX
  5
c2
  8
Layer_0
  10
-200.58618
  20
1023.3843
  0
VERTEX
  5
c3
  8
Layer_0
  10
-200.6131
  20
1023.3917
  0
VERTEX
  5
c4
  8
Layer_0
  10
-215.83191
  20
1028.2687
  0
VERTEX
  5
c5
  8
Layer_0
  10
-291.75342
  20
1028.2676
  42
-0.38669003
  0
VERTEX
  5
c6
  8
Layer_0
  10
-292.849
  20
1029.2615
  0
VERTEX
  5
c7
  8
Layer_0
  10
-292.85291
  20
1029.3162
  0
VERTEX
  5
c8
  8
Layer_0
  10
-295.23169
  20
1088.9934
  0
VERTEX
  5
c9
  8
Layer_0
  10
-295.23169
  20
1115.9434
  0
VERTEX
  5
ca
  8
Layer_0
  10
-283.21771
  20
1164.6002
  42
-0.062937881
  0
VERTEX
  5
cb
  8
Layer_0
  10
-283.11743
  20
1164.8597
  42
-0.27475288
  0
VERTEX
  5
cc
  8
Layer_0
  10
-282.14978
  20
1165.4365
  0
VERTEX
  5
cd
  8
Layer_0
  10
-207.92181
  20
1165.4634
  42
-0.33434885
  0
VERTEX
  5
ce
  8
Layer_0
  10
-206.86536
  20
1164.6696
  0
VERTEX
  5
cf
  8
Layer_0
  10
-196.23187
  20
1127.4933
  0
VERTEX
  5
d0
  8
Layer_0
  10
-196.23193
  20
1078.1475
  0
VERTEX
  5
d1
  8
Layer_0
  10
-183.46539
  20
1033.8396
  42
-0.34500361
  0
SEQEND
  0
POLYLINE
  5
d3
  8
Layer_0
  62
7
  70
1
  66
1
  10
0
  20
0
  30
0
  0
VERTEX
  5
d3
  8
Layer_0
  10
-106.64453
  20
1146.5975
  42
-0.30371312
  0
VERTEX
  5
d4
  8
Layer_0
  10
-106.40552
  20
1145.3972
  42
-0.3033124
  0
VERTEX
  5
d5
  8
Layer_0
  10
-107.42407
  20
1144.7173
  42
-0.07539746
  0
VERTEX
  5
d6
  8
Layer_0
  10
-107.75189
  20
1144.7668
  42
-0.32849281
  0
VERTEX
  5
d7
  8
Layer_0
  10
-108.52649
  20
1145.8187
  0
VERTEX
  5
d8
  8
Layer_0
  10
-108.5257
  20
1145.8604
  42
-0.29317522
  0
VERTEX
  5
d9
  8
Layer_0
  10
-107.84595
  20
1146.8363
  0
VERTEX
  5
da
  8
Layer_0
  10
-107.80713
  20
1146.8515
  42
-0.29294733
  0
SEQEND
  0
POLYLINE
  5
dc
  8
Layer_0
  62
7
  70
1
  66
1
  10
0
  20
0
  30
0
  0
VERTEX
  5
dc
  8
Layer_0
  10
-159.61847
  20
1043.3721
  0
VERTEX
  5
dd
  8
Layer_0
  10
-159.58954
  20
1043.3422
  42
-0.29340987
  0
VERTEX
  5
de
  8
Layer_0
  10
-159.37933
  20
1042.1721
  42
-0.30312561
  0
VERTEX
  5
df
  8
Layer_0
  10
-160.39838
  20
1041.4922
  42
-0.19894697
  0
VERTEX
  5
e0
  8
Layer_0
  10
-161.17834
  20
1041.8148
  42
-0.036842069
  0
VERTEX
  5
e1
  8
Layer_0
  10
-161.28497
  20
1041.9383
  42
-0.16091887
  0
VERTEX
  5
e2
  8
Layer_0
  10
-161.5014
  20
1042.5934
  0
VERTEX
  5
e3
  8
Layer_0
  10
-161.50061
  20
1042.6351
  42
-0.29329284
  0
VERTEX
  5
e4
  8
Layer_0
  10
-160.8205
  20
1043.6108
  0
VERTEX
  5
e5
  8
Layer_0
  10
-160.78168
  20
1043.626
  42
-0.29272372
  0
SEQEND
  0
POLYLINE
  5
e7
  8
Layer_0
  62
7
  70
1
  66
1
  10
0
  20
0
  30
0
  0
VERTEX
  5
e7
  8
Layer_0
  10
-168.61951
  20
1119.5724
  42
-0.30370753
  0
VERTEX
  5
e8
  8
Layer_0
  10
-168.38055
  20
1118.3724
  42
-0.30325679
  0
VERTEX
  5
e9
  8
Layer_0
  10
-169.39905
  20
1117.6926
  42
-0.17468157
  0
VERTEX
  5
ea
  8
Layer_0
  10
-170.10034
  20
1117.9441
  42
-0.22467592
  0
VERTEX
  5
eb
  8
Layer_0
  10
-170.50153
  20
1118.7938
  0
VERTEX
  5
ec
  8
Layer_0
  10
-170.50073
  20
1118.8354
  42
-0.29312255
  0
VERTEX
  5
ed
  8
Layer_0
  10
-169.82098
  20
1119.8112
  0
VERTEX
  5
ee
  8
Layer_0
  10
-169.78217
  20
1119.8264
  42
-0.29287539
  0
SEQEND
  0
POLYLINE
  5
f0
  8
Layer_0
  62
7
  70
1
  66
1
  10
0
  20
0
  30
0
  0
VERTEX
  5
f0
  8
Layer_0
  10
-128.01984
  20
1119.5719
  42
-0.30359404
  0
VERTEX
  5
f1
  8
Layer_0
  10
-127.78088
  20
1118.372
  42
-0.30323795
  0
VERTEX
  5
f2
  8
Layer_0
  10
-128.79944
  20
1117.6924
  42
-0.1374657
  0
VERTEX
  5
f3
  8
Layer_0
  10
-129.37115
  20
1117.8517
  42
-0.26255492
  0
VERTEX
  5
f4
  8
Layer_0
  10
-129.90198
  20
1118.7933
  0
VERTEX
  5
f5
  8
Layer_0
  10
-129.90118
  20
1118.835
  42
-0.29314853
  0
VERTEX
  5
f6
  8
Layer_0
  10
-129.22137
  20
1119.8105
  0
VERTEX
  5
f7
  8
Layer_0
  10
-129.18256
  20
1119.8257
  42
-0.2927511
  0
SEQEND
  0
POLYLINE
  5
f9
  8
Layer_0
  62
7
  70
1
  66
1
  10
0
  20
0
  30
0
  0
VERTEX
  5
f9
  8
Layer_0
  10
-121.28235
  20
1042.1729
  42
-0.30325198
  0
VERTEX
  5
fa
  8
Layer_0
  10
-122.29932
  20
1041.493
  42
-0.19904834
  0
VERTEX
  5
fb
  8
Layer_0
  10
-123.07764
  20
1041.8156
  0
VERTEX
  5
fc
  8
Layer_0
  10
-123.11523
  20
1041.8552
  42
-0.1861464
  0
VERTEX
  5
fd
  8
Layer_0
  10
-123.40002
  20
1042.5942
  0
VERTEX
  5
fe
  8
Layer_0
  10
-123.39923
  20
1042.6359
  42
-0.29309684
  0
VERTEX
  5
ff
  8
Layer_0
  10
-122.72052
  20
1043.6116
  0
VERTEX
  5
100
  8
Layer_0
  10
-122.68176
  20
1043.6268
  42
-0.29321331
  0
VERTEX
  5
101
  8
Layer_0
  10
-121.521
  20
1043.3729
  42
-0.30325907
  0
SEQEND
  0
POLYLINE
  5
103
  8
Layer_0
  62
7
  70
1
  66
1
  10
0
  20
0
  30
0
  0
VERTEX
  5
103
  8
Layer_0
  10
-80.163818
  20
1156.2313
  0
VERTEX
  5
104
  8
Layer_0
  10
-95.949951
  20
1165.3245
  42
0.19381883
  0
VERTEX
  5
105
  8
Layer_0
  10
-96.777832
  20
1165.4291
  0
VERTEX
  5
106
  8
Layer_0
  10
-96.804749
  20
1165.4216
  0
VERTEX
  5
107
  8
Layer_0
  10
-112.02356
  20
1160.5447
  0
VERTEX
  5
108
  8
Layer_0
  10
-187.94507
  20
1160.5458
  42
0.38669003
  0
VERTEX
  5
109
  8
Layer_0
  10
-189.04065
  20
1159.5518
  0
VERTEX
  5
10a
  8
Layer_0
  10
-189.04456
  20
1159.4971
  0
VERTEX
  5
10b
  8
Layer_0
  10
-191.42334
  20
1099.8199
  0
VERTEX
  5
10c
  8
Layer_0
  10
-191.42334
  20
1072.87
  0
VERTEX
  5
10d
  8
Layer_0
  10
-179.40936
  20
1024.2132
  42
0.062937881
  0
VERTEX
  5
10e
  8
Layer_0
  10
-179.30908
  20
1023.9536
  42
0.27475288
  0
VERTEX
  5
10f
  8
Layer_0
  10
-178.34143
  20
1023.3769
  0
VERTEX
  5
110
  8
Layer_0
  10
-104.11346
  20
1023.35
  42
0.33434885
  0
VERTEX
  5
111
  8
Layer_0
  10
-103.05701
  20
1024.1437
  0
VERTEX
  5
112
  8
Layer_0
  10
-92.423523
  20
1061.3201
  0
VERTEX
  5
113
  8
Layer_0
  10
-92.423584
  20
1110.6659
  0
VERTEX
  5
114
  8
Layer_0
  10
-79.657043
  20
1154.9738
  42
0.34500361
  0
SEQEND
  0
ENDSEC
  0
EOF
