  0
SECTION
  2
HEADER
  9
$ACADVER
  1
AC1009
  0
ENDSEC
  0
SECTION
  2
TABLES
  0
TABLE
  2
LAYER
  70
1
  0
LAYER
  2
Layer_0
  70
0
  62
7
  6
CONTINUOUS
  0
ENDTAB
  0
ENDSEC
  0
SECTION
  2
ENTITIES
  0
CIRCLE
  5
90
  8
Layer_0
  62
7
  10
578.69165
  20
1152.2799
  30
0
  40
2.6000903
  0
CIRCLE
  5
90
  8
Layer_0
  62
7
  10
635.84155
  20
1152.28
  30
0
  40
2.6000903
  0
ELLIPSE
  5
90
  8
Layer_0
  62
7
  10
553.43048
  20
1042.4277
  30
0
  11
2.5979919
  21
0.10437012
  31
0
  40
0.99994087
  41
0
  42
6.2831855
  0
CIRCLE
  5
90
  8
Layer_0
  62
7
  10
663.01892
  20
1005.7261
  30
0
  40
2.600024
  0
POLYLINE
  5
90
  8
Layer_0
  62
7
  70
1
  66
1
  10
0
  20
0
  30
0
  0
VERTEX
  5
90
  8
Layer_0
  10
642.32463
  20
1023.8002
  42
0.3033851
  0
VERTEX
  5
91
  8
Layer_0
  10
642.67167
  20
1025.5458
  42
0.30344812
  0
VERTEX
  5
92
  8
Layer_0
  10
641.19258
  20
1026.5345
  42
0.075497698
  0
VERTEX
  5
93
  8
Layer_0
  10
640.71651
  20
1026.4625
  42
0.32838207
  0
VERTEX
  5
94
  8
Layer_0
  10
639.59164
  20
1024.9328
  0
VERTEX
  5
95
  8
Layer_0
  10
639.59277
  20
1024.8723
  42
0.29305464
  0
VERTEX
  5
96
  8
Layer_0
  10
640.57993
  20
1023.453
  0
VERTEX
  5
97
  8
Layer_0
  10
640.63626
  20
1023.4308
  42
0.29326279
  0
SEQEND
  0
POLYLINE
  5
99
  8
Layer_0
  62
7
  70
1
  66
1
  10
0
  20
0
  30
0
  0
VERTEX
  5
99
  8
Layer_0
  10
589.35035
  20
1127.0255
  0
VERTEX
  5
9a
  8
Layer_0
  10
589.39233
  20
1127.0691
  42
0.29285414
  0
VERTEX
  5
9b
  8
Layer_0
  10
589.6973
  20
1128.7711
  42
0.30335726
  0
VERTEX
  5
9c
  8
Layer_0
  10
588.21861
  20
1129.7599
  42
0.19925937
  0
VERTEX
  5
9d
  8
Layer_0
  10
587.08688
  20
1129.2908
  42
0.036829094
  0
VERTEX
  5
9e
  8
Layer_0
  10
586.93214
  20
1129.1111
  42
0.16062419
  0
VERTEX
  5
9f
  8
Layer_0
  10
586.61809
  20
1128.1581
  0
VERTEX
  5
a0
  8
Layer_0
  10
586.61922
  20
1128.0976
  42
0.29308692
  0
VERTEX
  5
a1
  8
Layer_0
  10
587.60612
  20
1126.6783
  0
VERTEX
  5
a2
  8
Layer_0
  10
587.66244
  20
1126.6561
  42
0.29326203
  0
SEQEND
  0
POLYLINE
  5
a4
  8
Layer_0
  62
7
  70
1
  66
1
  10
0
  20
0
  30
0
  0
VERTEX
  5
a4
  8
Layer_0
  10
580.34959
  20
1050.8252
  42
0.30333187
  0
VERTEX
  5
a5
  8
Layer_0
  10
580.69663
  20
1052.5707
  42
0.30341248
  0
VERTEX
  5
a6
  8
Layer_0
  10
579.21751
  20
1053.5595
  42
0.17488607
  0
VERTEX
  5
a7
  8
Layer_0
  10
578.19913
  20
1053.1938
  42
0.22446784
  0
VERTEX
  5
a8
  8
Layer_0
  10
577.61652
  20
1051.9578
  0
VERTEX
  5
a9
  8
Layer_0
  10
577.61765
  20
1051.8972
  42
0.29298446
  0
VERTEX
  5
aa
  8
Layer_0
  10
578.60484
  20
1050.478
  0
VERTEX
  5
ab
  8
Layer_0
  10
578.66118
  20
1050.4559
  42
0.29323671
  0
SEQEND
  0
POLYLINE
  5
ad
  8
Layer_0
  62
7
  70
1
  66
1
  10
0
  20
0
  30
0
  0
VERTEX
  5
ad
  8
Layer_0
  10
620.9493
  20
1050.8256
  42
0.30316714
  0
VERTEX
  5
ae
  8
Layer_0
  10
621.29636
  20
1052.5712
  42
0.3034149
  0
VERTEX
  5
af
  8
Layer_0
  10
619.81719
  20
1053.5599
  42
0.13767329
  0
VERTEX
  5
b0
  8
Layer_0
  10
618.98699
  20
1053.3281
  42
0.26233762
  0
VERTEX
  5
b1
  8
Layer_0
  10
618.21616
  20
1051.9582
  0
VERTEX
  5
b2
  8
Layer_0
  10
618.21729
  20
1051.8976
  42
0.29299157
  0
VERTEX
  5
b3
  8
Layer_0
  10
619.2045
  20
1050.4784
  0
VERTEX
  5
b4
  8
Layer_0
  10
619.26084
  20
1050.4562
  42
0.29316178
  0
SEQEND
  0
POLYLINE
  5
b6
  8
Layer_0
  62
7
  70
1
  66
1
  10
0
  20
0
  30
0
  0
VERTEX
  5
b6
  8
Layer_0
  10
627.79665
  20
1128.7704
  42
0.30325206
  0
VERTEX
  5
b7
  8
Layer_0
  10
626.31748
  20
1129.7592
  42
0.19904844
  0
VERTEX
  5
b8
  8
Layer_0
  10
625.18538
  20
1129.29
  0
VERTEX
  5
b9
  8
Layer_0
  10
625.13063
  20
1129.2325
  42
0.18614631
  0
VERTEX
  5
ba
  8
Layer_0
  10
624.71645
  20
1128.1574
  0
VERTEX
  5
bb
  8
Layer_0
  10
624.71759
  20
1128.0969
  42
0.29309678
  0
VERTEX
  5
bc
  8
Layer_0
  10
625.70479
  20
1126.6776
  0
VERTEX
  5
bd
  8
Layer_0
  10
625.76113
  20
1126.6555
  42
0.29321348
  0
VERTEX
  5
be
  8
Layer_0
  10
627.44958
  20
1127.0248
  42
0.3032589
  0
SEQEND
  0
POLYLINE
  5
c0
  8
Layer_0
  62
7
  70
1
  66
1
  10
0
  20
0
  30
0
  0
VERTEX
  5
c0
  8
Layer_0
  10
548.43311
  20
1042.6006
  42
-0.34001941
  0
VERTEX
  5
c1
  8
Layer_0
  10
552.2749
  20
1047.2967
  42
-0.042169374
  0
VERTEX
  5
c2
  8
Layer_0
  10
553.22974
  20
1047.4241
  0
VERTEX
  5
c3
  8
Layer_0
  10
555.12469
  20
1047.5003
  42
0.41412687
  0
VERTEX
  5
c4
  8
Layer_0
  10
558.00189
  20
1050.6174
  0
VERTEX
  5
c5
  8
Layer_0
  10
557.19214
  20
1070.9322
  0
VERTEX
  5
c6
  8
Layer_0
  10
557.19214
  20
1097.8821
  0
VERTEX
  5
c7
  8
Layer_0
  10
569.20605
  20
1146.5389
  0
VERTEX
  5
c8
  8
Layer_0
  10
569.28687
  20
1146.7386
  0
VERTEX
  5
c9
  8
Layer_0
  10
569.38989
  20
1146.9276
  0
VERTEX
  5
ca
  8
Layer_0
  10
569.47266
  20
1147.025
  0
VERTEX
  5
cb
  8
Layer_0
  10
569.5647
  20
1147.1129
  0
VERTEX
  5
cc
  8
Layer_0
  10
569.68188
  20
1147.2095
  0
VERTEX
  5
cd
  8
Layer_0
  10
569.81421
  20
1147.2823
  0
VERTEX
  5
ce
  8
Layer_0
  10
569.95752
  20
1147.3314
  0
VERTEX
  5
cf
  8
Layer_0
  10
570.10815
  20
1147.3563
  0
VERTEX
  5
d0
  8
Layer_0
  10
570.27393
  20
1147.3753
  0
VERTEX
  5
d1
  8
Layer_0
  10
570.69324
  20
1147.3754
  42
0.41410564
  0
VERTEX
  5
d2
  8
Layer_0
  10
573.69214
  20
1150.3754
  0
VERTEX
  5
d3
  8
Layer_0
  10
573.69214
  20
1152.2801
  42
-0.33278189
  0
VERTEX
  5
d4
  8
Layer_0
  10
577.30731
  20
1157.0848
  42
-0.40987095
  0
VERTEX
  5
d5
  8
Layer_0
  10
583.47583
  20
1153.7513
  42
-0.073022908
  0
VERTEX
  5
d6
  8
Layer_0
  10
583.69214
  20
1152.2801
  0
VERTEX
  5
d7
  8
Layer_0
  10
583.69214
  20
1150.3813
  42
0.19896874
  0
VERTEX
  5
d8
  8
Layer_0
  10
584.57123
  20
1148.2596
  42
0.19896974
  0
VERTEX
  5
d9
  8
Layer_0
  10
586.69324
  20
1147.3813
  0
VERTEX
  5
da
  8
Layer_0
  10
627.84314
  20
1147.3962
  42
0.41410564
  0
VERTEX
  5
db
  8
Layer_0
  10
630.84204
  20
1150.3962
  0
VERTEX
  5
dc
  8
Layer_0
  10
630.84204
  20
1152.2802
  42
-0.20051125
  0
VERTEX
  5
dd
  8
Layer_0
  10
632.33844
  20
1155.8491
  42
-0.20211642
  0
VERTEX
  5
de
  8
Layer_0
  10
635.93109
  20
1157.2791
  42
-0.12906732
  0
VERTEX
  5
df
  8
Layer_0
  10
638.4314
  20
1156.5638
  42
-0.26362096
  0
VERTEX
  5
e0
  8
Layer_0
  10
640.84204
  20
1152.2802
  0
VERTEX
  5
e1
  8
Layer_0
  10
640.84204
  20
1150.4019
  42
0.19894056
  0
VERTEX
  5
e2
  8
Layer_0
  10
641.72107
  20
1148.2803
  42
0.19894982
  0
VERTEX
  5
e3
  8
Layer_0
  10
643.84302
  20
1147.402
  0
VERTEX
  5
e4
  8
Layer_0
  10
644.50195
  20
1147.4022
  0
VERTEX
  5
e5
  8
Layer_0
  10
644.59229
  20
1147.3998
  0
VERTEX
  5
e6
  8
Layer_0
  10
644.68115
  20
1147.3883
  42
-0.036974126
  0
VERTEX
  5
e7
  8
Layer_0
  10
644.8728
  20
1147.337
  42
-0.031441522
  0
VERTEX
  5
e8
  8
Layer_0
  10
645.06738
  20
1147.2372
  42
-0.12712763
  0
VERTEX
  5
e9
  8
Layer_0
  10
645.40503
  20
1146.931
  42
-0.011630303
  0
VERTEX
  5
ea
  8
Layer_0
  10
645.55835
  20
1146.6083
  0
VERTEX
  5
eb
  8
Layer_0
  10
656.19189
  20
1109.432
  0
VERTEX
  5
ec
  8
Layer_0
  10
656.19189
  20
1060.0863
  0
VERTEX
  5
ed
  8
Layer_0
  10
668.95825
  20
1015.7784
  0
VERTEX
  5
ee
  8
Layer_0
  10
668.98877
  20
1015.5966
  0
VERTEX
  5
ef
  8
Layer_0
  10
669
  20
1015.4125
  0
VERTEX
  5
f0
  8
Layer_0
  10
668.97534
  20
1015.2335
  42
-0.071029958
  0
VERTEX
  5
f1
  8
Layer_0
  10
668.73535
  20
1014.7557
  0
VERTEX
  5
f2
  8
Layer_0
  10
668.60498
  20
1014.6276
  0
VERTEX
  5
f3
  8
Layer_0
  10
668.45166
  20
1014.5209
  0
VERTEX
  5
f4
  8
Layer_0
  10
667.50201
  20
1013.9739
  42
0.41397657
  0
VERTEX
  5
f5
  8
Layer_0
  10
666.39868
  20
1009.879
  0
VERTEX
  5
f6
  8
Layer_0
  10
667.35352
  20
1008.2184
  42
-0.32341523
  0
VERTEX
  5
f7
  8
Layer_0
  10
666.73804
  20
1002.3824
  42
-0.39833021
  0
VERTEX
  5
f8
  8
Layer_0
  10
659.9021
  20
1001.8085
  42
-0.091321543
  0
VERTEX
  5
f9
  8
Layer_0
  10
658.68457
  20
1003.2335
  0
VERTEX
  5
fa
  8
Layer_0
  10
657.73578
  20
1004.8835
  42
0.19901502
  0
VERTEX
  5
fb
  8
Layer_0
  10
655.91553
  20
1006.2848
  42
0.19901207
  0
VERTEX
  5
fc
  8
Layer_0
  10
653.6377
  20
1005.9877
  0
VERTEX
  5
fd
  8
Layer_0
  10
652.66528
  20
1005.4276
  42
-0.015646806
  0
VERTEX
  5
fe
  8
Layer_0
  10
652.36426
  20
1005.3273
  42
-0.031260662
  0
VERTEX
  5
ff
  8
Layer_0
  10
652.04907
  20
1005.2887
  0
VERTEX
  5
100
  8
Layer_0
  10
651.81055
  20
1005.3304
  0
VERTEX
  5
101
  8
Layer_0
  10
636.5918
  20
1010.2074
  0
VERTEX
  5
102
  8
Layer_0
  10
560.67041
  20
1010.2064
  42
-0.0197751
  0
VERTEX
  5
103
  8
Layer_0
  10
560.26758
  20
1010.282
  0
VERTEX
  5
104
  8
Layer_0
  10
560.08887
  20
1010.3719
  0
VERTEX
  5
105
  8
Layer_0
  10
559.93042
  20
1010.4915
  0
VERTEX
  5
106
  8
Layer_0
  10
559.7981
  20
1010.6436
  0
VERTEX
  5
107
  8
Layer_0
  10
559.68823
  20
1010.8128
  0
VERTEX
  5
108
  8
Layer_0
  10
559.61011
  20
1010.9988
  0
VERTEX
  5
109
  8
Layer_0
  10
559.57471
  20
1011.2003
  0
VERTEX
  5
10a
  8
Layer_0
  10
559.5708
  20
1011.2549
  0
VERTEX
  5
10b
  8
Layer_0
  10
558.63904
  20
1034.6302
  42
0.19895572
  0
VERTEX
  5
10c
  8
Layer_0
  10
557.67627
  20
1036.7151
  42
0.19896973
  0
VERTEX
  5
10d
  8
Layer_0
  10
555.52106
  20
1037.5083
  0
VERTEX
  5
10e
  8
Layer_0
  10
553.6311
  20
1037.4324
  42
-0.12713636
  0
VERTEX
  5
10f
  8
Layer_0
  10
551.22974
  20
1037.94
  42
-0.29769618
  0
SEQEND
  0
CIRCLE
  5
111
  8
Layer_0
  62
7
  10
687.25903
  20
1005.7201
  30
0
  40
2.6000903
  0
CIRCLE
  5
111
  8
Layer_0
  62
7
  10
744.40894
  20
1005.7201
  30
0
  40
2.6000903
  0
ELLIPSE
  5
111
  8
Layer_0
  62
7
  10
661.9978
  20
1115.5721
  30
0
  11
2.5979958
  21
-0.10437012
  31
0
  40
0.9999395
  41
0
  42
6.2831855
  0
CIRCLE
  5
111
  8
Layer_0
  62
7
  10
771.5863
  20
1152.2739
  30
0
  40
2.600024
  0
POLYLINE
  5
111
  8
Layer_0
  62
7
  70
1
  66
1
  10
0
  20
0
  30
0
  0
VERTEX
  5
111
  8
Layer_0
  10
750.89191
  20
1134.1998
  42
-0.3033851
  0
VERTEX
  5
112
  8
Layer_0
  10
751.23895
  20
1132.4542
  42
-0.30344812
  0
VERTEX
  5
113
  8
Layer_0
  10
749.75986
  20
1131.4655
  42
-0.075497698
  0
VERTEX
  5
114
  8
Layer_0
  10
749.2838
  20
1131.5375
  42
-0.32838207
  0
VERTEX
  5
115
  8
Layer_0
  10
748.15892
  20
1133.0672
  0
VERTEX
  5
116
  8
Layer_0
  10
748.16006
  20
1133.1277
  42
-0.29305464
  0
VERTEX
  5
117
  8
Layer_0
  10
749.14721
  20
1134.5471
  0
VERTEX
  5
118
  8
Layer_0
  10
749.20354
  20
1134.5692
  42
-0.29326279
  0
SEQEND
  0
POLYLINE
  5
11a
  8
Layer_0
  62
7
  70
1
  66
1
  10
0
  20
0
  30
0
  0
VERTEX
  5
11a
  8
Layer_0
  10
697.91775
  20
1030.9745
  0
VERTEX
  5
11b
  8
Layer_0
  10
697.95972
  20
1030.9309
  42
-0.29285414
  0
VERTEX
  5
11c
  8
Layer_0
  10
698.2647
  20
1029.2289
  42
-0.30335726
  0
VERTEX
  5
11d
  8
Layer_0
  10
696.786
  20
1028.2401
  42
-0.19925937
  0
VERTEX
  5
11e
  8
Layer_0
  10
695.65427
  20
1028.7092
  42
-0.036829094
  0
VERTEX
  5
11f
  8
Layer_0
  10
695.49954
  20
1028.8889
  42
-0.16062419
  0
VERTEX
  5
120
  8
Layer_0
  10
695.18549
  20
1029.8419
  0
VERTEX
  5
121
  8
Layer_0
  10
695.18661
  20
1029.9024
  42
-0.29308692
  0
VERTEX
  5
122
  8
Layer_0
  10
696.17352
  20
1031.3217
  0
VERTEX
  5
123
  8
Layer_0
  10
696.22984
  20
1031.3438
  42
-0.29326203
  0
SEQEND
  0
POLYLINE
  5
125
  8
Layer_0
  62
7
  70
1
  66
1
  10
0
  20
0
  30
0
  0
VERTEX
  5
125
  8
Layer_0
  10
688.91689
  20
1107.1748
  42
-0.30333187
  0
VERTEX
  5
126
  8
Layer_0
  10
689.26393
  20
1105.4293
  42
-0.30341248
  0
VERTEX
  5
127
  8
Layer_0
  10
687.78481
  20
1104.4405
  42
-0.17488607
  0
VERTEX
  5
128
  8
Layer_0
  10
686.76643
  20
1104.8062
  42
-0.22446784
  0
VERTEX
  5
129
  8
Layer_0
  10
686.18382
  20
1106.0422
  0
VERTEX
  5
12a
  8
Layer_0
  10
686.18495
  20
1106.1027
  42
-0.29298446
  0
VERTEX
  5
12b
  8
Layer_0
  10
687.17213
  20
1107.522
  0
VERTEX
  5
12c
  8
Layer_0
  10
687.22848
  20
1107.5441
  42
-0.29323671
  0
SEQEND
  0
POLYLINE
  5
12e
  8
Layer_0
  62
7
  70
1
  66
1
  10
0
  20
0
  30
0
  0
VERTEX
  5
12e
  8
Layer_0
  10
729.5166
  20
1107.1744
  42
-0.30316714
  0
VERTEX
  5
12f
  8
Layer_0
  10
729.86366
  20
1105.4288
  42
-0.3034149
  0
VERTEX
  5
130
  8
Layer_0
  10
728.38449
  20
1104.4401
  42
-0.13767329
  0
VERTEX
  5
131
  8
Layer_0
  10
727.55429
  20
1104.6719
  42
-0.26233762
  0
VERTEX
  5
132
  8
Layer_0
  10
726.78345
  20
1106.0418
  0
VERTEX
  5
133
  8
Layer_0
  10
726.78458
  20
1106.1024
  42
-0.29299157
  0
VERTEX
  5
134
  8
Layer_0
  10
727.7718
  20
1107.5217
  0
VERTEX
  5
135
  8
Layer_0
  10
727.82814
  20
1107.5438
  42
-0.29316178
  0
SEQEND
  0
POLYLINE
  5
137
  8
Layer_0
  62
7
  70
1
  66
1
  10
0
  20
0
  30
0
  0
VERTEX
  5
137
  8
Layer_0
  10
736.36404
  20
1029.2296
  42
-0.30325206
  0
VERTEX
  5
138
  8
Layer_0
  10
734.88488
  20
1028.2408
  42
-0.19904844
  0
VERTEX
  5
139
  8
Layer_0
  10
733.75278
  20
1028.71
  0
VERTEX
  5
13a
  8
Layer_0
  10
733.69803
  20
1028.7675
  42
-0.18614631
  0
VERTEX
  5
13b
  8
Layer_0
  10
733.28384
  20
1029.8426
  0
VERTEX
  5
13c
  8
Layer_0
  10
733.28499
  20
1029.9031
  42
-0.29309678
  0
VERTEX
  5
13d
  8
Layer_0
  10
734.27219
  20
1031.3224
  0
VERTEX
  5
13e
  8
Layer_0
  10
734.32853
  20
1031.3445
  42
-0.29321348
  0
VERTEX
  5
13f
  8
Layer_0
  10
736.01698
  20
1030.9752
  42
-0.3032589
  0
SEQEND
  0
POLYLINE
  5
141
  8
Layer_0
  62
7
  70
1
  66
1
  10
0
  20
0
  30
0
  0
VERTEX
  5
141
  8
Layer_0
  10
657.00043
  20
1115.3994
  42
0.34001941
  0
VERTEX
  5
142
  8
Layer_0
  10
660.84222
  20
1110.7033
  42
0.042169374
  0
VERTEX
  5
143
  8
Layer_0
  10
661.79706
  20
1110.5759
  0
VERTEX
  5
144
  8
Layer_0
  10
663.69202
  20
1110.4997
  42
-0.41412687
  0
VERTEX
  5
145
  8
Layer_0
  10
666.56921
  20
1107.3826
  0
VERTEX
  5
146
  8
Layer_0
  10
665.75946
  20
1087.0678
  0
VERTEX
  5
147
  8
Layer_0
  10
665.75946
  20
1060.1179
  0
VERTEX
  5
148
  8
Layer_0
  10
677.77344
  20
1011.4611
  0
VERTEX
  5
149
  8
Layer_0
  10
677.85425
  20
1011.2614
  0
VERTEX
  5
14a
  8
Layer_0
  10
677.95728
  20
1011.0724
  0
VERTEX
  5
14b
  8
Layer_0
  10
678.04004
  20
1010.975
  0
VERTEX
  5
14c
  8
Layer_0
  10
678.13208
  20
1010.8871
  0
VERTEX
  5
14d
  8
Layer_0
  10
678.24927
  20
1010.7905
  0
VERTEX
  5
14e
  8
Layer_0
  10
678.38159
  20
1010.7177
  0
VERTEX
  5
14f
  8
Layer_0
  10
678.5249
  20
1010.6686
  0
VERTEX
  5
150
  8
Layer_0
  10
678.67554
  20
1010.6437
  0
VERTEX
  5
151
  8
Layer_0
  10
678.84131
  20
1010.6247
  0
VERTEX
  5
152
  8
Layer_0
  10
679.26062
  20
1010.6246
  42
-0.41410564
  0
VERTEX
  5
153
  8
Layer_0
  10
682.25952
  20
1007.6246
  0
VERTEX
  5
154
  8
Layer_0
  10
682.25952
  20
1005.7199
  42
0.33278189
  0
VERTEX
  5
155
  8
Layer_0
  10
685.87476
  20
1000.9152
  42
0.40987095
  0
VERTEX
  5
156
  8
Layer_0
  10
692.04321
  20
1004.2487
  42
0.073022908
  0
VERTEX
  5
157
  8
Layer_0
  10
692.25952
  20
1005.7199
  0
VERTEX
  5
158
  8
Layer_0
  10
692.25952
  20
1007.6187
  42
-0.19896874
  0
VERTEX
  5
159
  8
Layer_0
  10
693.13861
  20
1009.7404
  42
-0.19896974
  0
VERTEX
  5
15a
  8
Layer_0
  10
695.26062
  20
1010.6187
  0
VERTEX
  5
15b
  8
Layer_0
  10
736.41052
  20
1010.6038
  42
-0.41410564
  0
VERTEX
  5
15c
  8
Layer_0
  10
739.40942
  20
1007.6038
  0
VERTEX
  5
15d
  8
Layer_0
  10
739.40942
  20
1005.7199
  42
0.20051125
  0
VERTEX
  5
15e
  8
Layer_0
  10
740.90582
  20
1002.1509
  42
0.20211642
  0
VERTEX
  5
15f
  8
Layer_0
  10
744.49854
  20
1000.7209
  42
0.12906732
  0
VERTEX
  5
160
  8
Layer_0
  10
746.99878
  20
1001.4362
  42
0.26362096
  0
VERTEX
  5
161
  8
Layer_0
  10
749.40942
  20
1005.7199
  0
VERTEX
  5
162
  8
Layer_0
  10
749.40942
  20
1007.5981
  42
-0.19894056
  0
VERTEX
  5
163
  8
Layer_0
  10
750.28845
  20
1009.7198
  42
-0.19894982
  0
VERTEX
  5
164
  8
Layer_0
  10
752.4104
  20
1010.5981
  0
VERTEX
  5
165
  8
Layer_0
  10
753.06934
  20
1010.5978
  0
VERTEX
  5
166
  8
Layer_0
  10
753.15967
  20
1010.6003
  0
VERTEX
  5
167
  8
Layer_0
  10
753.24854
  20
1010.6118
  42
0.036974126
  0
VERTEX
  5
168
  8
Layer_0
  10
753.44019
  20
1010.663
  42
0.031441522
  0
VERTEX
  5
169
  8
Layer_0
  10
753.63477
  20
1010.7629
  42
0.12712763
  0
VERTEX
  5
16a
  8
Layer_0
  10
753.97241
  20
1011.069
  42
0.011630303
  0
VERTEX
  5
16b
  8
Layer_0
  10
754.12573
  20
1011.3918
  0
VERTEX
  5
16c
  8
Layer_0
  10
764.75922
  20
1048.5681
  0
VERTEX
  5
16d
  8
Layer_0
  10
764.75922
  20
1097.9138
  0
VERTEX
  5
16e
  8
Layer_0
  10
777.52557
  20
1142.2216
  0
VERTEX
  5
16f
  8
Layer_0
  10
777.55609
  20
1142.4035
  0
VERTEX
  5
170
  8
Layer_0
  10
777.56732
  20
1142.5876
  0
VERTEX
  5
171
  8
Layer_0
  10
777.54266
  20
1142.7665
  42
0.071029958
  0
VERTEX
  5
172
  8
Layer_0
  10
777.30267
  20
1143.2443
  0
VERTEX
  5
173
  8
Layer_0
  10
777.1723
  20
1143.3725
  0
VERTEX
  5
174
  8
Layer_0
  10
777.01898
  20
1143.4792
  0
VERTEX
  5
175
  8
Layer_0
  10
776.06934
  20
1144.0262
  42
-0.41397657
  0
VERTEX
  5
176
  8
Layer_0
  10
774.966
  20
1148.1211
  0
VERTEX
  5
177
  8
Layer_0
  10
775.92084
  20
1149.7817
  42
0.32341523
  0
VERTEX
  5
178
  8
Layer_0
  10
775.30536
  20
1155.6176
  42
0.39833021
  0
VERTEX
  5
179
  8
Layer_0
  10
768.46942
  20
1156.1916
  42
0.091321543
  0
VERTEX
  5
17a
  8
Layer_0
  10
767.25189
  20
1154.7665
  0
VERTEX
  5
17b
  8
Layer_0
  10
766.3031
  20
1153.1165
  42
-0.19901502
  0
VERTEX
  5
17c
  8
Layer_0
  10
764.48285
  20
1151.7153
  42
-0.19901207
  0
VERTEX
  5
17d
  8
Layer_0
  10
762.20502
  20
1152.0123
  0
VERTEX
  5
17e
  8
Layer_0
  10
761.2326
  20
1152.5724
  42
0.015646806
  0
VERTEX
  5
17f
  8
Layer_0
  10
760.93158
  20
1152.6728
  42
0.031260662
  0
VERTEX
  5
180
  8
Layer_0
  10
760.61639
  20
1152.7114
  0
VERTEX
  5
181
  8
Layer_0
  10
760.37787
  20
1152.6696
  0
VERTEX
  5
182
  8
Layer_0
  10
745.15912
  20
1147.7927
  0
VERTEX
  5
183
  8
Layer_0
  10
669.23773
  20
1147.7936
  42
0.0197751
  0
VERTEX
  5
184
  8
Layer_0
  10
668.8349
  20
1147.718
  0
VERTEX
  5
185
  8
Layer_0
  10
668.65619
  20
1147.6281
  0
VERTEX
  5
186
  8
Layer_0
  10
668.49774
  20
1147.5085
  0
VERTEX
  5
187
  8
Layer_0
  10
668.36542
  20
1147.3564
  0
VERTEX
  5
188
  8
Layer_0
  10
668.25555
  20
1147.1872
  0
VERTEX
  5
189
  8
Layer_0
  10
668.17743
  20
1147.0012
  0
VERTEX
  5
18a
  8
Layer_0
  10
668.14203
  20
1146.7997
  0
VERTEX
  5
18b
  8
Layer_0
  10
668.13812
  20
1146.7451
  0
VERTEX
  5
18c
  8
Layer_0
  10
667.20636
  20
1123.3698
  42
-0.19895572
  0
VERTEX
  5
18d
  8
Layer_0
  10
666.24359
  20
1121.2849
  42
-0.19896973
  0
VERTEX
  5
18e
  8
Layer_0
  10
664.08838
  20
1120.4917
  0
VERTEX
  5
18f
  8
Layer_0
  10
662.19843
  20
1120.5676
  42
0.12713636
  0
VERTEX
  5
190
  8
Layer_0
  10
659.79706
  20
1120.06
  42
0.29769618
  0
SEQEND
  0
ENDSEC
  0
EOF
