%TF.GenerationSoftware,KiCad,Pcbnew,8.0.2-8.0.2-0~ubuntu24.04.1*%
%TF.CreationDate,2024-05-31T13:03:20+02:00*%
%TF.ProjectId,SofleKeyboard,536f666c-654b-4657-9962-6f6172642e6b,rev?*%
%TF.SameCoordinates,Original*%
%TF.FileFunction,Soldermask,Top*%
%TF.FilePolarity,Negative*%
%FSLAX46Y46*%
G04 Gerber Fmt 4.6, Leading zero omitted, Abs format (unit mm)*
G04 Created by KiCad (PCBNEW 8.0.2-8.0.2-0~ubuntu24.04.1) date 2024-05-31 13:03:20*
%MOMM*%
%LPD*%
G01*
G04 APERTURE LIST*
G04 Aperture macros list*
%AMRoundRect*
0 Rectangle with rounded corners*
0 $1 Rounding radius*
0 $2 $3 $4 $5 $6 $7 $8 $9 X,Y pos of 4 corners*
0 Add a 4 corners polygon primitive as box body*
4,1,4,$2,$3,$4,$5,$6,$7,$8,$9,$2,$3,0*
0 Add four circle primitives for the rounded corners*
1,1,$1+$1,$2,$3*
1,1,$1+$1,$4,$5*
1,1,$1+$1,$6,$7*
1,1,$1+$1,$8,$9*
0 Add four rect primitives between the rounded corners*
20,1,$1+$1,$2,$3,$4,$5,0*
20,1,$1+$1,$4,$5,$6,$7,0*
20,1,$1+$1,$6,$7,$8,$9,0*
20,1,$1+$1,$8,$9,$2,$3,0*%
%AMFreePoly0*
4,1,40,0.636777,0.930194,0.706366,0.874698,0.744986,0.794504,0.750000,0.750000,0.750000,-0.750000,0.730194,-0.836777,0.674698,-0.906366,0.594504,-0.944986,0.550000,-0.950000,0.000000,-0.950000,-0.022297,-0.944911,-0.071157,-0.944911,-0.127504,-0.936810,-0.264055,-0.896715,-0.315837,-0.873066,-0.435559,-0.796125,-0.478580,-0.758847,-0.571777,-0.651292,-0.602554,-0.603402,-0.661673,-0.473948,
-0.677710,-0.419330,-0.697964,-0.278464,-0.700000,-0.250000,-0.700000,0.250000,-0.697964,0.278464,-0.677710,0.419330,-0.661673,0.473948,-0.602554,0.603402,-0.571777,0.651292,-0.478580,0.758847,-0.435559,0.796125,-0.315837,0.873066,-0.264055,0.896715,-0.127504,0.936810,-0.071157,0.944911,-0.044660,0.944911,-0.044504,0.944986,0.000000,0.950000,0.550000,0.950000,0.636777,0.930194,
0.636777,0.930194,$1*%
%AMFreePoly1*
4,1,40,0.022297,0.944911,0.071157,0.944911,0.127504,0.936810,0.264055,0.896715,0.315837,0.873066,0.435559,0.796125,0.478580,0.758847,0.571777,0.651292,0.602554,0.603402,0.661673,0.473948,0.677710,0.419330,0.697964,0.278464,0.700000,0.250000,0.700000,-0.250000,0.697964,-0.278464,0.677710,-0.419330,0.661673,-0.473948,0.602554,-0.603402,0.571777,-0.651292,0.478580,-0.758847,
0.435559,-0.796125,0.315837,-0.873066,0.264055,-0.896715,0.127504,-0.936810,0.071157,-0.944911,0.044660,-0.944911,0.044504,-0.944986,0.000000,-0.950000,-0.550000,-0.950000,-0.636777,-0.930194,-0.706366,-0.874698,-0.744986,-0.794504,-0.750000,-0.750000,-0.750000,0.750000,-0.730194,0.836777,-0.674698,0.906366,-0.594504,0.944986,-0.550000,0.950000,0.000000,0.950000,0.022297,0.944911,
0.022297,0.944911,$1*%
G04 Aperture macros list end*
%ADD10RoundRect,0.200000X-0.400000X0.500000X-0.400000X-0.500000X0.400000X-0.500000X0.400000X0.500000X0*%
%ADD11C,1.300000*%
%ADD12RoundRect,0.200000X-0.750000X0.350000X-0.750000X-0.350000X0.750000X-0.350000X0.750000X0.350000X0*%
%ADD13RoundRect,0.200000X0.571500X-0.317500X0.571500X0.317500X-0.571500X0.317500X-0.571500X-0.317500X0*%
%ADD14RoundRect,0.200000X-0.571500X0.317500X-0.571500X-0.317500X0.571500X-0.317500X0.571500X0.317500X0*%
%ADD15RoundRect,0.200000X-0.850000X-0.850000X0.850000X-0.850000X0.850000X0.850000X-0.850000X0.850000X0*%
%ADD16C,2.200000*%
%ADD17C,1.400000*%
%ADD18C,3.400000*%
%ADD19C,3.800000*%
%ADD20RoundRect,0.200000X0.850000X0.500000X-0.850000X0.500000X-0.850000X-0.500000X0.850000X-0.500000X0*%
%ADD21RoundRect,0.200000X0.800000X1.100000X-0.800000X1.100000X-0.800000X-1.100000X0.800000X-1.100000X0*%
%ADD22RoundRect,0.200000X0.858013X-0.486122X0.008013X0.986122X-0.858013X0.486122X-0.008013X-0.986122X0*%
%ADD23RoundRect,0.200000X1.352628X-0.142820X0.552628X1.242820X-1.352628X0.142820X-0.552628X-1.242820X0*%
%ADD24RoundRect,0.200000X0.691627X0.702959X-0.950446X0.262967X-0.691627X-0.702959X0.950446X-0.262967X0*%
%ADD25RoundRect,0.200000X0.488040X1.269574X-1.057442X0.855463X-0.488040X-1.269574X1.057442X-0.855463X0*%
%ADD26RoundRect,0.200000X-0.475000X0.650000X-0.475000X-0.650000X0.475000X-0.650000X0.475000X0.650000X0*%
%ADD27C,1.924000*%
%ADD28C,2.400000*%
%ADD29C,1.797000*%
%ADD30O,2.900000X2.100000*%
%ADD31C,1.600000*%
%ADD32FreePoly0,0.000000*%
%ADD33RoundRect,0.200000X-0.500000X-0.750000X0.500000X-0.750000X0.500000X0.750000X-0.500000X0.750000X0*%
%ADD34FreePoly1,0.000000*%
%ADD35C,4.600000*%
%ADD36C,3.900000*%
%ADD37RoundRect,0.200000X-1.600000X-1.000000X1.600000X-1.000000X1.600000X1.000000X-1.600000X1.000000X0*%
G04 APERTURE END LIST*
D10*
X91105000Y-73550000D03*
X88895000Y-73550000D03*
D11*
X89995000Y-75700000D03*
X89995000Y-78700000D03*
D10*
X91105000Y-80850000D03*
X88895000Y-80850000D03*
D12*
X91755000Y-74950000D03*
X91755000Y-77950000D03*
X91755000Y-79450000D03*
D11*
X89995000Y-78700000D03*
X89995000Y-75700000D03*
D13*
X96700000Y-69800379D03*
X96700000Y-68799619D03*
X99200000Y-69800380D03*
X99200000Y-68799620D03*
X101700000Y-69800379D03*
X101700000Y-68799619D03*
X104300000Y-69800379D03*
X104300000Y-68799619D03*
D14*
X95430000Y-78000000D03*
X95430000Y-79000760D03*
X103050000Y-78000000D03*
X103050000Y-79000760D03*
X97970000Y-78000000D03*
X97970000Y-79000760D03*
X105590000Y-78000000D03*
X105590000Y-79000760D03*
D15*
X93450000Y-72700000D03*
X106850000Y-72700000D03*
D16*
X126050000Y-50000000D03*
D17*
X125770000Y-45800000D03*
D18*
X125550000Y-53700000D03*
X120550000Y-55900000D03*
D19*
X120550000Y-50000000D03*
D18*
X115550000Y-53700000D03*
D17*
X115330000Y-45800000D03*
D16*
X115050000Y-50000000D03*
D20*
X117800000Y-46001000D03*
X117800000Y-44601000D03*
X123300000Y-44601000D03*
X123300000Y-46001000D03*
D21*
X117750000Y-55900000D03*
X128450000Y-53700000D03*
D16*
X164150000Y-45000000D03*
D17*
X163870000Y-40800000D03*
D18*
X163650000Y-48700000D03*
X158650000Y-50900000D03*
D19*
X158650000Y-45000000D03*
D18*
X153650000Y-48700000D03*
D17*
X153430000Y-40800000D03*
D16*
X153150000Y-45000000D03*
D20*
X155900000Y-41001000D03*
X155900000Y-39601000D03*
X161400000Y-39601000D03*
X161400000Y-41001000D03*
D21*
X155850000Y-50900000D03*
X166550000Y-48700000D03*
D16*
X126049999Y-88100000D03*
D17*
X125769999Y-83900000D03*
D18*
X125549999Y-91800000D03*
X120549999Y-94000000D03*
D19*
X120549999Y-88100000D03*
D18*
X115549999Y-91800000D03*
D17*
X115329999Y-83900000D03*
D16*
X115049999Y-88100000D03*
D20*
X117799999Y-84101000D03*
X117799999Y-82701000D03*
X123299999Y-82701000D03*
X123299999Y-84101000D03*
D21*
X117749999Y-94000000D03*
X128449999Y-91800000D03*
D16*
X145100000Y-85600001D03*
D17*
X144820000Y-81400001D03*
D18*
X144600000Y-89300001D03*
X139600000Y-91500001D03*
D19*
X139600000Y-85600001D03*
D18*
X134600000Y-89300001D03*
D17*
X134380000Y-81400001D03*
D16*
X134100000Y-85600001D03*
D20*
X136850000Y-81601001D03*
X136850000Y-80201001D03*
X142350000Y-80201001D03*
X142350000Y-81601001D03*
D21*
X136800000Y-91500001D03*
X147500000Y-89300001D03*
D16*
X126050000Y-107150000D03*
D17*
X125770000Y-102950000D03*
D18*
X125550000Y-110850000D03*
X120550000Y-113050000D03*
D19*
X120550000Y-107150000D03*
D18*
X115550000Y-110850000D03*
D17*
X115330000Y-102950000D03*
D16*
X115050000Y-107150000D03*
D20*
X117800000Y-103151000D03*
X117800000Y-101751000D03*
X123300000Y-101751000D03*
X123300000Y-103151000D03*
D21*
X117750000Y-113050000D03*
X128450000Y-110850000D03*
D16*
X164150000Y-102150000D03*
D17*
X163870000Y-97950000D03*
D18*
X163650000Y-105850000D03*
X158650000Y-108050000D03*
D19*
X158650000Y-102150000D03*
D18*
X153650000Y-105850000D03*
D17*
X153430000Y-97950000D03*
D16*
X153150000Y-102150000D03*
D20*
X155900000Y-98151000D03*
X155900000Y-96751000D03*
X161400000Y-96751000D03*
X161400000Y-98151000D03*
D21*
X155850000Y-108050000D03*
X166550000Y-105850000D03*
D16*
X202250000Y-113650000D03*
D17*
X201970000Y-109450000D03*
D18*
X201750000Y-117350000D03*
X196750000Y-119550000D03*
D19*
X196750000Y-113650000D03*
D18*
X191750000Y-117350000D03*
D17*
X191530000Y-109450000D03*
D16*
X191250000Y-113650000D03*
D20*
X194000000Y-109651000D03*
X194000000Y-108251000D03*
X199500000Y-108251000D03*
X199500000Y-109651000D03*
D21*
X193950000Y-119550000D03*
X204650000Y-117350000D03*
D16*
X99460000Y-138163140D03*
D17*
X102957307Y-135820653D03*
D18*
X96005706Y-139580127D03*
X91600450Y-136350000D03*
D19*
X96710000Y-133400000D03*
D18*
X91005706Y-130919873D03*
D17*
X97737307Y-126779347D03*
D16*
X93960000Y-128636860D03*
D22*
X98798236Y-129018930D03*
X100010671Y-128318930D03*
X102760671Y-133082070D03*
X101548236Y-133782070D03*
D23*
X90200450Y-133925129D03*
X97455706Y-142091601D03*
D16*
X122912592Y-126976495D03*
D17*
X121555093Y-122992076D03*
D18*
X123387260Y-130679830D03*
X119127032Y-134098962D03*
D19*
X117600000Y-128400000D03*
D18*
X113728001Y-133268021D03*
D17*
X111470827Y-125694147D03*
D16*
X112287408Y-129823505D03*
D24*
X113908687Y-125249015D03*
X113546340Y-123896719D03*
X118858932Y-122473214D03*
X119221279Y-123825510D03*
D25*
X116422440Y-134823656D03*
X126188444Y-129929255D03*
D16*
X221300000Y-75550000D03*
D17*
X221020000Y-71350000D03*
D18*
X220800000Y-79250000D03*
X215800000Y-81450000D03*
D19*
X215800000Y-75550000D03*
D18*
X210800000Y-79250000D03*
D17*
X210580000Y-71350000D03*
D16*
X210300000Y-75550000D03*
D20*
X213050000Y-71551000D03*
X213050000Y-70151000D03*
X218550000Y-70151000D03*
X218550000Y-71551000D03*
D21*
X213000000Y-81450000D03*
X223700000Y-79250000D03*
D16*
X221300000Y-94600000D03*
D17*
X221020000Y-90400000D03*
D18*
X220800000Y-98300000D03*
X215800000Y-100500000D03*
D19*
X215800000Y-94600000D03*
D18*
X210800000Y-98300000D03*
D17*
X210580000Y-90400000D03*
D16*
X210300000Y-94600000D03*
D20*
X213050000Y-90601000D03*
X213050000Y-89201000D03*
X218550000Y-89201000D03*
X218550000Y-90601000D03*
D21*
X213000000Y-100500000D03*
X223700000Y-98300000D03*
D16*
X221300000Y-113650000D03*
D17*
X221020000Y-109450000D03*
D18*
X220800000Y-117350000D03*
X215800000Y-119550000D03*
D19*
X215800000Y-113650000D03*
D18*
X210800000Y-117350000D03*
D17*
X210580000Y-109450000D03*
D16*
X210300000Y-113650000D03*
D20*
X213050000Y-109651000D03*
X213050000Y-108251000D03*
X218550000Y-108251000D03*
X218550000Y-109651000D03*
D21*
X213000000Y-119550000D03*
X223700000Y-117350000D03*
D16*
X183200000Y-47500000D03*
D17*
X182920000Y-43300000D03*
D18*
X182700000Y-51200000D03*
X177700000Y-53400000D03*
D19*
X177700000Y-47500000D03*
D18*
X172700000Y-51200000D03*
D17*
X172480000Y-43300000D03*
D16*
X172200000Y-47500000D03*
D20*
X174950000Y-43501000D03*
X174950000Y-42101000D03*
X180450000Y-42101000D03*
X180450000Y-43501000D03*
D21*
X174900000Y-53400000D03*
X185600000Y-51200000D03*
D16*
X202250000Y-56500000D03*
D17*
X201970000Y-52300000D03*
D18*
X201750000Y-60200000D03*
X196750000Y-62400000D03*
D19*
X196750000Y-56500000D03*
D18*
X191750000Y-60200000D03*
D17*
X191530000Y-52300000D03*
D16*
X191250000Y-56500000D03*
D20*
X194000000Y-52501000D03*
X194000000Y-51101000D03*
X199500000Y-51101000D03*
X199500000Y-52501000D03*
D21*
X193950000Y-62400000D03*
X204650000Y-60200000D03*
D16*
X145100000Y-66550001D03*
D17*
X144820000Y-62350001D03*
D18*
X144600000Y-70250001D03*
X139600000Y-72450001D03*
D19*
X139600000Y-66550001D03*
D18*
X134600000Y-70250001D03*
D17*
X134380000Y-62350001D03*
D16*
X134100000Y-66550001D03*
D20*
X136850000Y-62551001D03*
X136850000Y-61151001D03*
X142350000Y-61151001D03*
X142350000Y-62551001D03*
D21*
X136800000Y-72450001D03*
X147500000Y-70250001D03*
D16*
X183200000Y-66550000D03*
D17*
X182920000Y-62350000D03*
D18*
X182700000Y-70250000D03*
X177700000Y-72450000D03*
D19*
X177700000Y-66550000D03*
D18*
X172700000Y-70250000D03*
D17*
X172480000Y-62350000D03*
D16*
X172200000Y-66550000D03*
D20*
X174950000Y-62551000D03*
X174950000Y-61151000D03*
X180450000Y-61151000D03*
X180450000Y-62551000D03*
D21*
X174900000Y-72450000D03*
X185600000Y-70250000D03*
D16*
X164150001Y-64050000D03*
D17*
X163870001Y-59850000D03*
D18*
X163650001Y-67750000D03*
X158650001Y-69950000D03*
D19*
X158650001Y-64050000D03*
D18*
X153650001Y-67750000D03*
D17*
X153430001Y-59850000D03*
D16*
X153150001Y-64050000D03*
D20*
X155900001Y-60051000D03*
X155900001Y-58651000D03*
X161400001Y-58651000D03*
X161400001Y-60051000D03*
D21*
X155850001Y-69950000D03*
X166550001Y-67750000D03*
D16*
X183200000Y-85600001D03*
D17*
X182920000Y-81400001D03*
D18*
X182700000Y-89300001D03*
X177700000Y-91500001D03*
D19*
X177700000Y-85600001D03*
D18*
X172700000Y-89300001D03*
D17*
X172480000Y-81400001D03*
D16*
X172200000Y-85600001D03*
D20*
X174950000Y-81601001D03*
X174950000Y-80201001D03*
X180450000Y-80201001D03*
X180450000Y-81601001D03*
D21*
X174900000Y-91500001D03*
X185600000Y-89300001D03*
D16*
X221300000Y-56500000D03*
D17*
X221020000Y-52300000D03*
D18*
X220800000Y-60200000D03*
X215800000Y-62400000D03*
D19*
X215800000Y-56500000D03*
D18*
X210800000Y-60200000D03*
D17*
X210580000Y-52300000D03*
D16*
X210300000Y-56500000D03*
D20*
X213050000Y-52501000D03*
X213050000Y-51101000D03*
X218550000Y-51101000D03*
X218550000Y-52501000D03*
D21*
X213000000Y-62400000D03*
X223700000Y-60200000D03*
D16*
X126049999Y-69100000D03*
D17*
X125769999Y-64900000D03*
D18*
X125549999Y-72800000D03*
X120549999Y-75000000D03*
D19*
X120549999Y-69100000D03*
D18*
X115549999Y-72800000D03*
D17*
X115329999Y-64900000D03*
D16*
X115049999Y-69100000D03*
D20*
X117799999Y-65101000D03*
X117799999Y-63701000D03*
X123299999Y-63701000D03*
X123299999Y-65101000D03*
D21*
X117749999Y-75000000D03*
X128449999Y-72800000D03*
D16*
X183200000Y-123699999D03*
D17*
X182920000Y-119499999D03*
D18*
X182700000Y-127399999D03*
X177700000Y-129599999D03*
D19*
X177700000Y-123699999D03*
D18*
X172700000Y-127399999D03*
D17*
X172480000Y-119499999D03*
D16*
X172200000Y-123699999D03*
D20*
X174950000Y-119700999D03*
X174950000Y-118300999D03*
X180450000Y-118300999D03*
X180450000Y-119700999D03*
D21*
X174900000Y-129599999D03*
X185600000Y-127399999D03*
D16*
X202250000Y-75549999D03*
D17*
X201970000Y-71349999D03*
D18*
X201750000Y-79249999D03*
X196750000Y-81449999D03*
D19*
X196750000Y-75549999D03*
D18*
X191750000Y-79249999D03*
D17*
X191530000Y-71349999D03*
D16*
X191250000Y-75549999D03*
D20*
X194000000Y-71550999D03*
X194000000Y-70150999D03*
X199500000Y-70150999D03*
X199500000Y-71550999D03*
D21*
X193950000Y-81449999D03*
X204650000Y-79249999D03*
D16*
X183200000Y-104650001D03*
D17*
X182920000Y-100450001D03*
D18*
X182700000Y-108350001D03*
X177700000Y-110550001D03*
D19*
X177700000Y-104650001D03*
D18*
X172700000Y-108350001D03*
D17*
X172480000Y-100450001D03*
D16*
X172200000Y-104650001D03*
D20*
X174950000Y-100651001D03*
X174950000Y-99251001D03*
X180450000Y-99251001D03*
X180450000Y-100651001D03*
D21*
X174900000Y-110550001D03*
X185600000Y-108350001D03*
D16*
X202250000Y-94600000D03*
D17*
X201970000Y-90400000D03*
D18*
X201750000Y-98300000D03*
X196750000Y-100500000D03*
D19*
X196750000Y-94600000D03*
D18*
X191750000Y-98300000D03*
D17*
X191530000Y-90400000D03*
D16*
X191250000Y-94600000D03*
D20*
X194000000Y-90601000D03*
X194000000Y-89201000D03*
X199500000Y-89201000D03*
X199500000Y-90601000D03*
D21*
X193950000Y-100500000D03*
X204650000Y-98300000D03*
D16*
X164150000Y-121200000D03*
D17*
X163870000Y-117000000D03*
D18*
X163650000Y-124900000D03*
X158650000Y-127100000D03*
D19*
X158650000Y-121200000D03*
D18*
X153650000Y-124900000D03*
D17*
X153430000Y-117000000D03*
D16*
X153150000Y-121200000D03*
D20*
X155900000Y-117201000D03*
X155900000Y-115801000D03*
X161400000Y-115801000D03*
X161400000Y-117201000D03*
D21*
X155850000Y-127100000D03*
X166550000Y-124900000D03*
D16*
X164150000Y-83100000D03*
D17*
X163870000Y-78900000D03*
D18*
X163650000Y-86800000D03*
X158650000Y-89000000D03*
D19*
X158650000Y-83100000D03*
D18*
X153650000Y-86800000D03*
D17*
X153430000Y-78900000D03*
D16*
X153150000Y-83100000D03*
D20*
X155900000Y-79101000D03*
X155900000Y-77701000D03*
X161400000Y-77701000D03*
X161400000Y-79101000D03*
D21*
X155850000Y-89000000D03*
X166550000Y-86800000D03*
D16*
X145100000Y-47500000D03*
D17*
X144820000Y-43300000D03*
D18*
X144600000Y-51200000D03*
X139600000Y-53400000D03*
D19*
X139600000Y-47500000D03*
D18*
X134600000Y-51200000D03*
D17*
X134380000Y-43300000D03*
D16*
X134100000Y-47500000D03*
D20*
X136850000Y-43501000D03*
X136850000Y-42101000D03*
X142350000Y-42101000D03*
X142350000Y-43501000D03*
D21*
X136800000Y-53400000D03*
X147500000Y-51200000D03*
D16*
X145100000Y-104650001D03*
D17*
X144820000Y-100450001D03*
D18*
X144600000Y-108350001D03*
X139600000Y-110550001D03*
D19*
X139600000Y-104650001D03*
D18*
X134600000Y-108350001D03*
D17*
X134380000Y-100450001D03*
D16*
X134100000Y-104650001D03*
D20*
X136850000Y-100651001D03*
X136850000Y-99251001D03*
X142350000Y-99251001D03*
X142350000Y-100651001D03*
D21*
X136800000Y-110550001D03*
X147500000Y-108350001D03*
D16*
X145099999Y-123700000D03*
D17*
X144819999Y-119500000D03*
D18*
X144599999Y-127400000D03*
X139599999Y-129600000D03*
D19*
X139599999Y-123700000D03*
D18*
X134599999Y-127400000D03*
D17*
X134379999Y-119500000D03*
D16*
X134099999Y-123700000D03*
D20*
X136849999Y-119701000D03*
X136849999Y-118301000D03*
X142349999Y-118301000D03*
X142349999Y-119701000D03*
D21*
X136799999Y-129600000D03*
X147499999Y-127400000D03*
D26*
X169345000Y-120755000D03*
X169345000Y-124305000D03*
X150345000Y-118245000D03*
X150345000Y-121795000D03*
X131245000Y-120655000D03*
X131245000Y-124205000D03*
X128705000Y-120655000D03*
X128705000Y-124205000D03*
X106399120Y-127527640D03*
X106399120Y-131077640D03*
X109550000Y-102757640D03*
X109550000Y-106307640D03*
X207495000Y-110555000D03*
X207495000Y-114105000D03*
X188445000Y-110555000D03*
X188445000Y-114105000D03*
X169344999Y-101655000D03*
X169344999Y-105205000D03*
X150345000Y-99145000D03*
X150345000Y-102695000D03*
X131245000Y-101655000D03*
X131245000Y-105205000D03*
X128705001Y-101655000D03*
X128705001Y-105205000D03*
X207445000Y-91555000D03*
X207445000Y-95105000D03*
X188445000Y-91555000D03*
X188445000Y-95105000D03*
X169345000Y-82555000D03*
X169345000Y-86105000D03*
X150345000Y-80145000D03*
X150345000Y-83695000D03*
X131245000Y-82555001D03*
X131245000Y-86105001D03*
X128705000Y-82555000D03*
X128705000Y-86105000D03*
X207445001Y-72355001D03*
X207445001Y-75905001D03*
X188445000Y-72354999D03*
X188445000Y-75904999D03*
X169345000Y-63455000D03*
X169345000Y-67005000D03*
X150345000Y-61045000D03*
X150345000Y-64595000D03*
X131245000Y-63555000D03*
X131245000Y-67105000D03*
X128705001Y-63555000D03*
X128705001Y-67105000D03*
X207545000Y-53455000D03*
X207545000Y-57005000D03*
X188445000Y-53325000D03*
X188445000Y-56875000D03*
X169345000Y-44455000D03*
X169345000Y-48005000D03*
X150345001Y-41955000D03*
X150345001Y-45505000D03*
X131245000Y-44455000D03*
X131245000Y-48005000D03*
X128704999Y-44452000D03*
X128704999Y-48002000D03*
D27*
X107420000Y-41230000D03*
X107420000Y-43770000D03*
X107420000Y-46310000D03*
X107420000Y-48850000D03*
X107420000Y-51390000D03*
X107420000Y-53930000D03*
X107420000Y-56470000D03*
X107420000Y-59010000D03*
X107420000Y-61550000D03*
X107420000Y-64090000D03*
X107420000Y-66630000D03*
X107420000Y-69170000D03*
X92180000Y-69170000D03*
X92180000Y-66630000D03*
X92180000Y-64090000D03*
X92180000Y-61550000D03*
X92180000Y-59010000D03*
X92180000Y-56470000D03*
X92180000Y-53930000D03*
X92180000Y-51390000D03*
X92180000Y-48850000D03*
X92180000Y-46310000D03*
X92180000Y-43770000D03*
X92180000Y-41230000D03*
X108718815Y-52585745D03*
X108718815Y-57665745D03*
X93478815Y-42425745D03*
X108718815Y-44965745D03*
X108718815Y-67825745D03*
X93478815Y-70365745D03*
X108718815Y-60205745D03*
X108718815Y-62745745D03*
X93478815Y-60205745D03*
X93478815Y-65285745D03*
X93478815Y-52585745D03*
X93478815Y-50045745D03*
X93478815Y-44965745D03*
X93478815Y-55125745D03*
X108718815Y-70365745D03*
X93478815Y-62745745D03*
X108718815Y-42425745D03*
X108718815Y-47505745D03*
X93478815Y-67825745D03*
X108718815Y-50045745D03*
X108718815Y-55125745D03*
X93478815Y-57665745D03*
X108718815Y-65285745D03*
X93478815Y-47505745D03*
D28*
X103000000Y-93000000D03*
X96500000Y-93000000D03*
D29*
X96700000Y-74600000D03*
X99240000Y-74600000D03*
X101780000Y-74600000D03*
X104320000Y-74600000D03*
D30*
X99800000Y-87750000D03*
X98300000Y-83550000D03*
X94300000Y-83550000D03*
X91300000Y-83550000D03*
D31*
X96500000Y-85650000D03*
X89500000Y-85650000D03*
D30*
X94300000Y-89500000D03*
X91300000Y-89500000D03*
X99800000Y-85300000D03*
X98300000Y-89500000D03*
D31*
X89500000Y-87400000D03*
X96500000Y-87400000D03*
D32*
X119300000Y-39757500D03*
D33*
X120600000Y-39757500D03*
D34*
X121900000Y-39757500D03*
D35*
X103000000Y-119000000D03*
D36*
X91499999Y-93000000D03*
X108000000Y-93000000D03*
D28*
X107000000Y-102000000D03*
X107000000Y-107000000D03*
D37*
X100000000Y-110100000D03*
X100000000Y-98900000D03*
D28*
X92500000Y-104500000D03*
X92500000Y-107000000D03*
X92500000Y-102000000D03*
D35*
X206275000Y-66025000D03*
X206275000Y-104125000D03*
X130700000Y-57024999D03*
X130700000Y-95125000D03*
D29*
X95430000Y-75870000D03*
X97970000Y-75870000D03*
X100510000Y-75870000D03*
X103050000Y-75870000D03*
X105590000Y-75870000D03*
M02*
