M48
; DRILL file {KiCad 8.0.2-8.0.2-0~ubuntu24.04.1} date 2024-05-31T13:03:25+0200
; FORMAT={-:-/ absolute / metric / decimal}
; #@! TF.CreationDate,2024-05-31T13:03:25+02:00
; #@! TF.GenerationSoftware,Kicad,Pcbnew,8.0.2-8.0.2-0~ubuntu24.04.1
; #@! TF.FileFunction,NonPlated,1,2,NPTH
FMAT,2
METRIC
; #@! TA.AperFunction,NonPlated,NPTH,ComponentDrill
T1C0.900
; #@! TA.AperFunction,NonPlated,NPTH,ComponentDrill
T2C1.000
; #@! TA.AperFunction,NonPlated,NPTH,ComponentDrill
T3C1.200
; #@! TA.AperFunction,NonPlated,NPTH,ComponentDrill
T4C1.800
; #@! TA.AperFunction,NonPlated,NPTH,ComponentDrill
T5C3.000
; #@! TA.AperFunction,NonPlated,NPTH,ComponentDrill
T6C3.400
%
G90
G05
T1
X89.995Y-75.7
X89.995Y-75.7
X89.995Y-78.7
X89.995Y-78.7
T2
X97.737Y-126.779
X102.957Y-135.821
X111.471Y-125.694
X115.33Y-64.9
X115.33Y-83.9
X115.33Y-45.8
X115.33Y-102.95
X121.555Y-122.992
X125.77Y-64.9
X125.77Y-83.9
X125.77Y-45.8
X125.77Y-102.95
X134.38Y-119.5
X134.38Y-43.3
X134.38Y-62.35
X134.38Y-81.4
X134.38Y-100.45
X144.82Y-119.5
X144.82Y-43.3
X144.82Y-62.35
X144.82Y-81.4
X144.82Y-100.45
X153.43Y-40.8
X153.43Y-78.9
X153.43Y-97.95
X153.43Y-117.0
X153.43Y-59.85
X163.87Y-40.8
X163.87Y-78.9
X163.87Y-97.95
X163.87Y-117.0
X163.87Y-59.85
X172.48Y-43.3
X172.48Y-62.35
X172.48Y-81.4
X172.48Y-100.45
X172.48Y-119.5
X182.92Y-43.3
X182.92Y-62.35
X182.92Y-81.4
X182.92Y-100.45
X182.92Y-119.5
X191.53Y-52.3
X191.53Y-71.35
X191.53Y-90.4
X191.53Y-109.45
X201.97Y-52.3
X201.97Y-71.35
X201.97Y-90.4
X201.97Y-109.45
X210.58Y-52.3
X210.58Y-71.35
X210.58Y-90.4
X210.58Y-109.45
X221.02Y-52.3
X221.02Y-71.35
X221.02Y-90.4
X221.02Y-109.45
T3
X89.5Y-85.65
X89.5Y-87.4
X96.5Y-85.65
X96.5Y-87.4
T4
X93.96Y-128.637
X99.46Y-138.163
X112.287Y-129.824
X115.05Y-69.1
X115.05Y-88.1
X115.05Y-50.0
X115.05Y-107.15
X122.913Y-126.976
X126.05Y-69.1
X126.05Y-88.1
X126.05Y-50.0
X126.05Y-107.15
X134.1Y-123.7
X134.1Y-47.5
X134.1Y-66.55
X134.1Y-85.6
X134.1Y-104.65
X145.1Y-123.7
X145.1Y-47.5
X145.1Y-66.55
X145.1Y-85.6
X145.1Y-104.65
X153.15Y-45.0
X153.15Y-83.1
X153.15Y-102.15
X153.15Y-121.2
X153.15Y-64.05
X164.15Y-45.0
X164.15Y-83.1
X164.15Y-102.15
X164.15Y-121.2
X164.15Y-64.05
X172.2Y-47.5
X172.2Y-66.55
X172.2Y-85.6
X172.2Y-104.65
X172.2Y-123.7
X183.2Y-47.5
X183.2Y-66.55
X183.2Y-85.6
X183.2Y-104.65
X183.2Y-123.7
X191.25Y-56.5
X191.25Y-75.55
X191.25Y-94.6
X191.25Y-113.65
X202.25Y-56.5
X202.25Y-75.55
X202.25Y-94.6
X202.25Y-113.65
X210.3Y-56.5
X210.3Y-75.55
X210.3Y-94.6
X210.3Y-113.65
X221.3Y-56.5
X221.3Y-75.55
X221.3Y-94.6
X221.3Y-113.65
T5
X91.006Y-130.92
X91.6Y-136.35
X96.006Y-139.58
X113.728Y-133.268
X115.55Y-72.8
X115.55Y-91.8
X115.55Y-53.7
X115.55Y-110.85
X119.127Y-134.099
X120.55Y-75.0
X120.55Y-94.0
X120.55Y-55.9
X120.55Y-113.05
X123.387Y-130.68
X125.55Y-72.8
X125.55Y-91.8
X125.55Y-53.7
X125.55Y-110.85
X134.6Y-127.4
X134.6Y-51.2
X134.6Y-70.25
X134.6Y-89.3
X134.6Y-108.35
X139.6Y-129.6
X139.6Y-53.4
X139.6Y-72.45
X139.6Y-91.5
X139.6Y-110.55
X144.6Y-127.4
X144.6Y-51.2
X144.6Y-70.25
X144.6Y-89.3
X144.6Y-108.35
X153.65Y-48.7
X153.65Y-86.8
X153.65Y-105.85
X153.65Y-124.9
X153.65Y-67.75
X158.65Y-50.9
X158.65Y-89.0
X158.65Y-108.05
X158.65Y-127.1
X158.65Y-69.95
X163.65Y-48.7
X163.65Y-86.8
X163.65Y-105.85
X163.65Y-124.9
X163.65Y-67.75
X172.7Y-51.2
X172.7Y-70.25
X172.7Y-89.3
X172.7Y-108.35
X172.7Y-127.4
X177.7Y-53.4
X177.7Y-72.45
X177.7Y-91.5
X177.7Y-110.55
X177.7Y-129.6
X182.7Y-51.2
X182.7Y-70.25
X182.7Y-89.3
X182.7Y-108.35
X182.7Y-127.4
X191.75Y-60.2
X191.75Y-79.25
X191.75Y-98.3
X191.75Y-117.35
X196.75Y-62.4
X196.75Y-81.45
X196.75Y-100.5
X196.75Y-119.55
X201.75Y-60.2
X201.75Y-79.25
X201.75Y-98.3
X201.75Y-117.35
X210.8Y-60.2
X210.8Y-79.25
X210.8Y-98.3
X210.8Y-117.35
X215.8Y-62.4
X215.8Y-81.45
X215.8Y-100.5
X215.8Y-119.55
X220.8Y-60.2
X220.8Y-79.25
X220.8Y-98.3
X220.8Y-117.35
T6
X96.71Y-133.4
X117.6Y-128.4
X120.55Y-69.1
X120.55Y-88.1
X120.55Y-50.0
X120.55Y-107.15
X139.6Y-123.7
X139.6Y-47.5
X139.6Y-66.55
X139.6Y-85.6
X139.6Y-104.65
X158.65Y-45.0
X158.65Y-83.1
X158.65Y-102.15
X158.65Y-121.2
X158.65Y-64.05
X177.7Y-47.5
X177.7Y-66.55
X177.7Y-85.6
X177.7Y-104.65
X177.7Y-123.7
X196.75Y-56.5
X196.75Y-75.55
X196.75Y-94.6
X196.75Y-113.65
X215.8Y-56.5
X215.8Y-75.55
X215.8Y-94.6
X215.8Y-113.65
M30
