%TF.GenerationSoftware,KiCad,Pcbnew,8.0.2-8.0.2-0~ubuntu24.04.1*%
%TF.CreationDate,2024-05-31T13:03:21+02:00*%
%TF.ProjectId,SofleKeyboard,536f666c-654b-4657-9962-6f6172642e6b,rev?*%
%TF.SameCoordinates,Original*%
%TF.FileFunction,Profile,NP*%
%FSLAX46Y46*%
G04 Gerber Fmt 4.6, Leading zero omitted, Abs format (unit mm)*
G04 Created by KiCad (PCBNEW 8.0.2-8.0.2-0~ubuntu24.04.1) date 2024-05-31 13:03:21*
%MOMM*%
%LPD*%
G01*
G04 APERTURE LIST*
%TA.AperFunction,Profile*%
%ADD10C,0.100000*%
%TD*%
%TA.AperFunction,Profile*%
%ADD11C,0.120000*%
%TD*%
G04 APERTURE END LIST*
D10*
X149097200Y-35249100D02*
X176047200Y-35249100D01*
X224809380Y-123372775D02*
X187225000Y-133449500D01*
X82290056Y-126397417D02*
X88097200Y-115653100D01*
X94620000Y-146579500D02*
G75*
G02*
X92331467Y-145654653I-554500J1921800D01*
G01*
X88400000Y-114403101D02*
X88400000Y-39400000D01*
X149097200Y-35249100D02*
X90326655Y-37401345D01*
X88297200Y-115053100D02*
X88097200Y-115653100D01*
X224757209Y-46721203D02*
G75*
G02*
X225550074Y-47699500I-207609J-978697D01*
G01*
X88400000Y-114403101D02*
X88297200Y-115053100D01*
X225550000Y-122407000D02*
G75*
G02*
X224809378Y-123372769I-999600J-300D01*
G01*
X92331436Y-145654671D02*
X82341192Y-128315144D01*
X82341192Y-128315144D02*
G75*
G02*
X82290072Y-126397425I1729508J1005644D01*
G01*
X138251328Y-133449500D02*
X94620000Y-146579500D01*
X176047200Y-35249100D02*
X224757209Y-46721203D01*
X88400000Y-39400000D02*
G75*
G02*
X90326655Y-37401345I2000000J0D01*
G01*
X138251328Y-133449500D02*
X187225000Y-133449500D01*
X225550000Y-47699500D02*
X225550000Y-122407000D01*
D11*
X122350000Y-46851000D02*
X122350000Y-43751000D01*
X122350000Y-43751000D02*
X118750000Y-43751000D01*
X118750000Y-46851000D02*
X122350000Y-46851000D01*
X118750000Y-43751000D02*
X118750000Y-46851000D01*
X160450000Y-41851000D02*
X160450000Y-38751000D01*
X160450000Y-38751000D02*
X156850000Y-38751000D01*
X156850000Y-41851000D02*
X160450000Y-41851000D01*
X156850000Y-38751000D02*
X156850000Y-41851000D01*
X122349999Y-84951000D02*
X122349999Y-81851000D01*
X122349999Y-81851000D02*
X118749999Y-81851000D01*
X118749999Y-84951000D02*
X122349999Y-84951000D01*
X118749999Y-81851000D02*
X118749999Y-84951000D01*
X141400000Y-82451001D02*
X141400000Y-79351001D01*
X141400000Y-79351001D02*
X137800000Y-79351001D01*
X137800000Y-82451001D02*
X141400000Y-82451001D01*
X137800000Y-79351001D02*
X137800000Y-82451001D01*
X122350000Y-104001000D02*
X122350000Y-100901000D01*
X122350000Y-100901000D02*
X118750000Y-100901000D01*
X118750000Y-104001000D02*
X122350000Y-104001000D01*
X118750000Y-100901000D02*
X118750000Y-104001000D01*
X160450000Y-99001000D02*
X160450000Y-95901000D01*
X160450000Y-95901000D02*
X156850000Y-95901000D01*
X156850000Y-99001000D02*
X160450000Y-99001000D01*
X156850000Y-95901000D02*
X156850000Y-99001000D01*
X198550000Y-110501000D02*
X198550000Y-107401000D01*
X198550000Y-107401000D02*
X194950000Y-107401000D01*
X194950000Y-110501000D02*
X198550000Y-110501000D01*
X194950000Y-107401000D02*
X194950000Y-110501000D01*
X100337114Y-133384346D02*
X103021793Y-131834346D01*
X103021793Y-131834346D02*
X101221793Y-128716654D01*
X98537114Y-130266654D02*
X100337114Y-133384346D01*
X101221793Y-128716654D02*
X98537114Y-130266654D01*
X118523645Y-124892425D02*
X117721306Y-121898055D01*
X117721306Y-121898055D02*
X114243973Y-122829804D01*
X115046312Y-125824174D02*
X118523645Y-124892425D01*
X114243973Y-122829804D02*
X115046312Y-125824174D01*
X217600000Y-72401000D02*
X217600000Y-69301000D01*
X217600000Y-69301000D02*
X214000000Y-69301000D01*
X214000000Y-72401000D02*
X217600000Y-72401000D01*
X214000000Y-69301000D02*
X214000000Y-72401000D01*
X217600000Y-91451000D02*
X217600000Y-88351000D01*
X217600000Y-88351000D02*
X214000000Y-88351000D01*
X214000000Y-91451000D02*
X217600000Y-91451000D01*
X214000000Y-88351000D02*
X214000000Y-91451000D01*
X217600000Y-110501000D02*
X217600000Y-107401000D01*
X217600000Y-107401000D02*
X214000000Y-107401000D01*
X214000000Y-110501000D02*
X217600000Y-110501000D01*
X214000000Y-107401000D02*
X214000000Y-110501000D01*
X179500000Y-44351000D02*
X179500000Y-41251000D01*
X179500000Y-41251000D02*
X175900000Y-41251000D01*
X175900000Y-44351000D02*
X179500000Y-44351000D01*
X175900000Y-41251000D02*
X175900000Y-44351000D01*
X198550000Y-53351000D02*
X198550000Y-50251000D01*
X198550000Y-50251000D02*
X194950000Y-50251000D01*
X194950000Y-53351000D02*
X198550000Y-53351000D01*
X194950000Y-50251000D02*
X194950000Y-53351000D01*
X141400000Y-63401001D02*
X141400000Y-60301001D01*
X141400000Y-60301001D02*
X137800000Y-60301001D01*
X137800000Y-63401001D02*
X141400000Y-63401001D01*
X137800000Y-60301001D02*
X137800000Y-63401001D01*
X179500000Y-63401000D02*
X179500000Y-60301000D01*
X179500000Y-60301000D02*
X175900000Y-60301000D01*
X175900000Y-63401000D02*
X179500000Y-63401000D01*
X175900000Y-60301000D02*
X175900000Y-63401000D01*
X160450001Y-60901000D02*
X160450001Y-57801000D01*
X160450001Y-57801000D02*
X156850001Y-57801000D01*
X156850001Y-60901000D02*
X160450001Y-60901000D01*
X156850001Y-57801000D02*
X156850001Y-60901000D01*
X179500000Y-82451001D02*
X179500000Y-79351001D01*
X179500000Y-79351001D02*
X175900000Y-79351001D01*
X175900000Y-82451001D02*
X179500000Y-82451001D01*
X175900000Y-79351001D02*
X175900000Y-82451001D01*
X217600000Y-53351000D02*
X217600000Y-50251000D01*
X217600000Y-50251000D02*
X214000000Y-50251000D01*
X214000000Y-53351000D02*
X217600000Y-53351000D01*
X214000000Y-50251000D02*
X214000000Y-53351000D01*
X122349999Y-65951000D02*
X122349999Y-62851000D01*
X122349999Y-62851000D02*
X118749999Y-62851000D01*
X118749999Y-65951000D02*
X122349999Y-65951000D01*
X118749999Y-62851000D02*
X118749999Y-65951000D01*
X179500000Y-120550999D02*
X179500000Y-117450999D01*
X179500000Y-117450999D02*
X175900000Y-117450999D01*
X175900000Y-120550999D02*
X179500000Y-120550999D01*
X175900000Y-117450999D02*
X175900000Y-120550999D01*
X198550000Y-72400999D02*
X198550000Y-69300999D01*
X198550000Y-69300999D02*
X194950000Y-69300999D01*
X194950000Y-72400999D02*
X198550000Y-72400999D01*
X194950000Y-69300999D02*
X194950000Y-72400999D01*
X179500000Y-101501001D02*
X179500000Y-98401001D01*
X179500000Y-98401001D02*
X175900000Y-98401001D01*
X175900000Y-101501001D02*
X179500000Y-101501001D01*
X175900000Y-98401001D02*
X175900000Y-101501001D01*
X198550000Y-91451000D02*
X198550000Y-88351000D01*
X198550000Y-88351000D02*
X194950000Y-88351000D01*
X194950000Y-91451000D02*
X198550000Y-91451000D01*
X194950000Y-88351000D02*
X194950000Y-91451000D01*
X160450000Y-118051000D02*
X160450000Y-114951000D01*
X160450000Y-114951000D02*
X156850000Y-114951000D01*
X156850000Y-118051000D02*
X160450000Y-118051000D01*
X156850000Y-114951000D02*
X156850000Y-118051000D01*
X160450000Y-79951000D02*
X160450000Y-76851000D01*
X160450000Y-76851000D02*
X156850000Y-76851000D01*
X156850000Y-79951000D02*
X160450000Y-79951000D01*
X156850000Y-76851000D02*
X156850000Y-79951000D01*
X141400000Y-44351000D02*
X141400000Y-41251000D01*
X141400000Y-41251000D02*
X137800000Y-41251000D01*
X137800000Y-44351000D02*
X141400000Y-44351000D01*
X137800000Y-41251000D02*
X137800000Y-44351000D01*
X141400000Y-101501001D02*
X141400000Y-98401001D01*
X141400000Y-98401001D02*
X137800000Y-98401001D01*
X137800000Y-101501001D02*
X141400000Y-101501001D01*
X137800000Y-98401001D02*
X137800000Y-101501001D01*
X141399999Y-120551000D02*
X141399999Y-117451000D01*
X141399999Y-117451000D02*
X137799999Y-117451000D01*
X137799999Y-120551000D02*
X141399999Y-120551000D01*
X137799999Y-117451000D02*
X137799999Y-120551000D01*
M02*
