M48
; DRILL file {KiCad 8.0.7-8.0.7-0~ubuntu24.04.1} date 2024-12-06T11:00:42+0100
; FORMAT={-:-/ absolute / metric / decimal}
; #@! TF.CreationDate,2024-12-06T11:00:42+01:00
; #@! TF.GenerationSoftware,Kicad,Pcbnew,8.0.7-8.0.7-0~ubuntu24.04.1
; #@! TF.FileFunction,NonPlated,1,2,NPTH
FMAT,2
METRIC
; #@! TA.AperFunction,NonPlated,NPTH,ComponentDrill
T1C0.900
; #@! TA.AperFunction,NonPlated,NPTH,ComponentDrill
T2C1.200
; #@! TA.AperFunction,NonPlated,NPTH,ComponentDrill
T3C1.800
; #@! TA.AperFunction,NonPlated,NPTH,ComponentDrill
T4C3.000
; #@! TA.AperFunction,NonPlated,NPTH,ComponentDrill
T5C3.400
%
G90
G05
T1
X89.995Y-75.7
X89.995Y-75.7
X89.995Y-78.7
X89.995Y-78.7
T2
X89.5Y-85.65
X89.5Y-87.4
X96.5Y-85.65
X96.5Y-87.4
T3
X93.96Y-128.637
X94.5Y-105.65
X99.46Y-138.163
X105.5Y-105.65
X112.287Y-129.824
X115.05Y-69.1
X115.05Y-88.1
X115.05Y-50.0
X115.05Y-107.15
X122.913Y-126.976
X126.05Y-69.1
X126.05Y-88.1
X126.05Y-50.0
X126.05Y-107.15
X134.1Y-123.7
X134.1Y-47.5
X134.1Y-66.55
X134.1Y-85.6
X134.1Y-104.65
X145.1Y-123.7
X145.1Y-47.5
X145.1Y-66.55
X145.1Y-85.6
X145.1Y-104.65
X153.15Y-45.0
X153.15Y-83.1
X153.15Y-102.15
X153.15Y-121.2
X153.15Y-64.05
X164.15Y-45.0
X164.15Y-83.1
X164.15Y-102.15
X164.15Y-121.2
X164.15Y-64.05
X172.2Y-47.5
X172.2Y-66.55
X172.2Y-85.6
X172.2Y-104.65
X172.2Y-123.7
X183.2Y-47.5
X183.2Y-66.55
X183.2Y-85.6
X183.2Y-104.65
X183.2Y-123.7
X191.25Y-56.5
X191.25Y-75.55
X191.25Y-94.6
X191.25Y-113.65
X202.25Y-56.5
X202.25Y-75.55
X202.25Y-94.6
X202.25Y-113.65
X210.3Y-56.5
X210.3Y-75.55
X210.3Y-94.6
X210.3Y-113.65
X221.3Y-56.5
X221.3Y-75.55
X221.3Y-94.6
X221.3Y-113.65
T4
X91.006Y-130.92
X91.6Y-136.35
X95.0Y-109.35
X96.006Y-139.58
X100.0Y-111.55
X105.0Y-109.35
X113.728Y-133.268
X115.55Y-72.8
X115.55Y-91.8
X115.55Y-53.7
X115.55Y-110.85
X119.127Y-134.099
X120.55Y-75.0
X120.55Y-94.0
X120.55Y-55.9
X120.55Y-113.05
X123.387Y-130.68
X125.55Y-72.8
X125.55Y-91.8
X125.55Y-53.7
X125.55Y-110.85
X134.6Y-127.4
X134.6Y-51.2
X134.6Y-70.25
X134.6Y-89.3
X134.6Y-108.35
X139.6Y-129.6
X139.6Y-53.4
X139.6Y-72.45
X139.6Y-91.5
X139.6Y-110.55
X144.6Y-127.4
X144.6Y-51.2
X144.6Y-70.25
X144.6Y-89.3
X144.6Y-108.35
X153.65Y-48.7
X153.65Y-86.8
X153.65Y-105.85
X153.65Y-124.9
X153.65Y-67.75
X158.65Y-50.9
X158.65Y-89.0
X158.65Y-108.05
X158.65Y-127.1
X158.65Y-69.95
X163.65Y-48.7
X163.65Y-86.8
X163.65Y-105.85
X163.65Y-124.9
X163.65Y-67.75
X172.7Y-51.2
X172.7Y-70.25
X172.7Y-89.3
X172.7Y-108.35
X172.7Y-127.4
X177.7Y-53.4
X177.7Y-72.45
X177.7Y-91.5
X177.7Y-110.55
X177.7Y-129.6
X182.7Y-51.2
X182.7Y-70.25
X182.7Y-89.3
X182.7Y-108.35
X182.7Y-127.4
X191.75Y-60.2
X191.75Y-79.25
X191.75Y-98.3
X191.75Y-117.35
X196.75Y-62.4
X196.75Y-81.45
X196.75Y-100.5
X196.75Y-119.55
X201.75Y-60.2
X201.75Y-79.25
X201.75Y-98.3
X201.75Y-117.35
X210.8Y-60.2
X210.8Y-79.25
X210.8Y-98.3
X210.8Y-117.35
X215.8Y-62.4
X215.8Y-81.45
X215.8Y-100.5
X215.8Y-119.55
X220.8Y-60.2
X220.8Y-79.25
X220.8Y-98.3
X220.8Y-117.35
T5
X96.71Y-133.4
X100.0Y-105.65
X117.6Y-128.4
X120.55Y-69.1
X120.55Y-88.1
X120.55Y-50.0
X120.55Y-107.15
X139.6Y-123.7
X139.6Y-47.5
X139.6Y-66.55
X139.6Y-85.6
X139.6Y-104.65
X158.65Y-45.0
X158.65Y-83.1
X158.65Y-102.15
X158.65Y-121.2
X158.65Y-64.05
X177.7Y-47.5
X177.7Y-66.55
X177.7Y-85.6
X177.7Y-104.65
X177.7Y-123.7
X196.75Y-56.5
X196.75Y-75.55
X196.75Y-94.6
X196.75Y-113.65
X215.8Y-56.5
X215.8Y-75.55
X215.8Y-94.6
X215.8Y-113.65
M30
