M48
; DRILL file {KiCad 8.0.7-8.0.7-0~ubuntu24.04.1} date 2024-12-06T11:00:42+0100
; FORMAT={-:-/ absolute / metric / decimal}
; #@! TF.CreationDate,2024-12-06T11:00:42+01:00
; #@! TF.GenerationSoftware,Kicad,Pcbnew,8.0.7-8.0.7-0~ubuntu24.04.1
; #@! TF.FileFunction,Plated,1,2,PTH
FMAT,2
METRIC
; #@! TA.AperFunction,Plated,PTH,ViaDrill
T1C0.300
; #@! TA.AperFunction,Plated,PTH,ComponentDrill
T2C0.813
; #@! TA.AperFunction,Plated,PTH,ComponentDrill
T3C1.000
; #@! TA.AperFunction,Plated,PTH,ComponentDrill
T4C1.300
; #@! TA.AperFunction,Plated,PTH,ComponentDrill
T5C1.500
; #@! TA.AperFunction,Plated,PTH,ComponentDrill
T6C2.200
; #@! TA.AperFunction,Plated,PTH,ComponentDrill
T7C3.800
%
G90
G05
T1
X90.6Y-77.25
X91.762Y-128.101
X93.2Y-74.2
X94.456Y-137.101
X94.693Y-69.893
X95.05Y-100.301
X95.1Y-44.2
X95.7Y-100.975
X95.7Y-102.65
X95.9Y-42.425
X96.05Y-67.3
X96.1Y-51.39
X96.7Y-67.8
X96.7Y-70.75
X96.7Y-81.1
X96.9Y-44.966
X96.9Y-48.8
X97.7Y-80.575
X97.724Y-71.566
X98.0Y-50.046
X98.999Y-126.216
X99.2Y-70.75
X99.4Y-79.0
X99.446Y-127.058
X99.65Y-47.506
X99.675Y-39.9
X100.325Y-67.075
X100.469Y-53.93
X100.525Y-68.8
X101.0Y-55.126
X101.063Y-128.059
X101.542Y-52.586
X101.7Y-70.75
X101.7Y-79.0
X101.7Y-80.0
X101.7Y-68.05
X102.117Y-57.701
X102.251Y-67.814
X102.439Y-126.703
X102.642Y-60.241
X102.95Y-71.55
X103.167Y-62.781
X103.469Y-134.175
X103.535Y-124.064
X103.713Y-63.874
X103.953Y-66.48
X103.96Y-134.906
X104.238Y-64.924
X104.3Y-70.75
X104.6Y-100.95
X105.239Y-66.711
X105.287Y-63.35
X105.6Y-51.4
X105.639Y-41.553
X105.7Y-56.7
X105.7Y-44.0
X105.7Y-59.0
X105.7Y-61.9
X105.7Y-54.2
X105.8Y-64.95
X106.2Y-99.3
X106.389Y-132.478
X107.379Y-127.543
X109.374Y-79.0
X109.55Y-106.5
X109.755Y-125.986
X109.85Y-48.902
X110.498Y-66.643
X110.498Y-76.348
X110.498Y-83.796
X110.625Y-101.6
X111.2Y-108.41
X111.252Y-82.35
X111.252Y-89.652
X111.252Y-99.175
X111.252Y-124.365
X111.3Y-45.3
X111.444Y-131.937
X111.902Y-75.176
X111.922Y-51.605
X111.959Y-122.729
X112.05Y-64.3
X112.182Y-124.151
X112.247Y-89.756
X112.7Y-70.655
X112.7Y-108.8
X113.001Y-89.768
X113.489Y-56.503
X114.2Y-94.5
X114.271Y-75.608
X114.3Y-46.2
X114.8Y-101.05
X115.47Y-44.452
X115.47Y-63.488
X115.47Y-82.552
X115.55Y-100.332
X115.9Y-116.5
X116.471Y-44.513
X116.471Y-63.549
X116.471Y-82.613
X116.493Y-101.706
X117.905Y-120.463
X118.35Y-41.85
X118.674Y-111.011
X118.674Y-53.861
X118.674Y-72.897
X118.674Y-91.961
X120.096Y-122.108
X120.5Y-42.1
X120.93Y-121.823
X121.437Y-131.907
X122.9Y-40.7
X123.288Y-120.04
X123.65Y-49.75
X124.602Y-63.629
X124.602Y-44.592
X124.602Y-82.692
X124.602Y-101.742
X124.964Y-128.275
X125.117Y-96.867
X125.6Y-75.8
X125.664Y-44.45
X125.664Y-63.486
X125.664Y-82.55
X125.664Y-101.6
X127.463Y-67.047
X127.463Y-86.11
X127.463Y-105.16
X127.754Y-120.748
X128.14Y-98.7
X128.241Y-60.586
X128.241Y-79.646
X128.705Y-49.21
X128.705Y-125.429
X130.003Y-63.491
X130.003Y-82.554
X130.003Y-44.454
X130.003Y-101.604
X130.019Y-117.75
X130.506Y-49.252
X130.506Y-52.919
X130.506Y-68.288
X130.506Y-71.956
X130.506Y-87.352
X130.506Y-91.019
X130.506Y-106.402
X130.506Y-110.069
X130.506Y-125.452
X130.506Y-129.119
X131.797Y-116.375
X132.592Y-49.204
X132.592Y-68.241
X132.592Y-87.304
X132.592Y-106.354
X132.592Y-125.404
X133.575Y-39.921
X134.52Y-42.039
X134.52Y-61.076
X134.52Y-80.139
X134.52Y-118.239
X134.619Y-99.093
X135.471Y-99.203
X135.529Y-80.173
X135.529Y-118.273
X135.55Y-61.187
X135.562Y-42.073
X137.674Y-70.397
X137.674Y-51.361
X137.674Y-89.461
X137.674Y-127.561
X137.674Y-108.511
X141.957Y-115.74
X142.8Y-47.4
X142.85Y-104.6
X142.9Y-66.5
X142.9Y-85.4
X143.608Y-61.184
X143.627Y-42.147
X143.627Y-80.247
X143.627Y-99.297
X143.627Y-118.327
X143.725Y-43.908
X143.829Y-81.983
X143.859Y-101.103
X143.989Y-63.248
X144.526Y-42.088
X144.526Y-61.124
X144.526Y-80.188
X144.526Y-99.238
X144.526Y-118.288
X144.6Y-73.3
X146.8Y-111.85
X149.008Y-126.667
X149.139Y-99.329
X149.217Y-42.101
X149.266Y-80.145
X149.309Y-61.045
X149.514Y-115.105
X149.606Y-69.455
X149.606Y-50.419
X149.606Y-65.788
X149.606Y-122.952
X149.606Y-46.752
X149.606Y-88.519
X149.606Y-103.902
X149.606Y-107.569
X149.606Y-126.619
X149.606Y-84.852
X149.768Y-36.746
X150.844Y-113.705
X151.412Y-118.392
X151.692Y-46.704
X151.692Y-65.74
X151.692Y-84.804
X151.692Y-103.854
X151.692Y-122.904
X152.589Y-52.403
X153.3Y-71.2
X153.5Y-90.525
X153.61Y-39.624
X153.61Y-58.66
X153.61Y-96.725
X153.61Y-115.824
X153.617Y-77.667
X154.55Y-77.654
X154.584Y-39.599
X154.585Y-115.82
X154.613Y-58.657
X154.623Y-96.771
X155.165Y-113.534
X156.774Y-48.861
X156.774Y-67.897
X156.774Y-125.061
X156.774Y-86.961
X157.024Y-106.011
X160.753Y-37.325
X161.9Y-44.9
X161.9Y-82.9
X161.9Y-102.1
X161.95Y-63.95
X162.65Y-115.83
X162.65Y-39.63
X162.65Y-58.666
X162.65Y-77.73
X162.65Y-96.78
X163.389Y-128.003
X163.7Y-70.8
X163.845Y-39.638
X163.845Y-58.674
X163.845Y-77.738
X163.845Y-96.788
X163.845Y-115.838
X168.119Y-116.756
X168.119Y-124.122
X168.606Y-52.919
X168.606Y-71.956
X168.606Y-87.352
X168.606Y-91.019
X168.606Y-106.402
X168.606Y-110.069
X168.606Y-125.452
X168.606Y-129.119
X168.606Y-49.252
X168.606Y-68.288
X168.881Y-62.418
X168.907Y-43.382
X168.907Y-81.482
X168.907Y-100.532
X169.58Y-112.946
X170.485Y-120.655
X170.692Y-49.204
X170.692Y-68.24
X170.692Y-87.304
X170.692Y-106.354
X170.692Y-125.404
X171.284Y-40.197
X172.499Y-99.06
X172.499Y-118.11
X172.499Y-41.91
X172.499Y-60.947
X172.499Y-80.01
X173.577Y-61.105
X173.615Y-80.169
X173.638Y-99.219
X173.648Y-118.269
X173.673Y-42.127
X175.774Y-51.361
X175.774Y-70.397
X175.774Y-89.461
X175.774Y-108.511
X175.774Y-127.561
X179.93Y-117.073
X180.85Y-47.45
X180.85Y-85.35
X180.85Y-104.5
X181.0Y-66.5
X181.727Y-80.233
X181.729Y-99.263
X181.747Y-118.294
X181.748Y-42.092
X181.782Y-61.12
X181.979Y-101.103
X182.009Y-81.973
X182.026Y-63.162
X182.089Y-44.112
X182.782Y-42.164
X182.782Y-61.2
X182.782Y-80.264
X182.782Y-99.314
X182.782Y-118.364
X187.706Y-80.956
X187.706Y-115.402
X187.706Y-58.252
X187.706Y-61.919
X187.706Y-77.288
X187.706Y-96.352
X187.706Y-100.019
X187.706Y-119.069
X188.445Y-71.106
X188.445Y-109.355
X188.445Y-51.901
X188.445Y-90.338
X189.792Y-58.204
X189.792Y-96.304
X189.792Y-115.354
X189.792Y-77.24
X190.689Y-63.853
X190.739Y-82.853
X191.548Y-50.86
X191.548Y-69.896
X191.548Y-88.96
X191.548Y-108.01
X191.7Y-101.8
X192.6Y-106.2
X192.623Y-70.051
X192.623Y-89.114
X192.623Y-51.014
X192.75Y-108.283
X194.874Y-60.361
X194.874Y-79.398
X194.874Y-98.461
X195.5Y-117.5
X198.917Y-48.918
X200.762Y-51.144
X200.762Y-89.244
X200.762Y-108.294
X200.777Y-70.128
X201.8Y-120.5
X201.876Y-51.138
X201.876Y-70.174
X201.876Y-89.238
X201.876Y-108.288
X205.2Y-119.6
X206.556Y-54.267
X206.556Y-73.304
X206.556Y-92.367
X206.556Y-111.417
X206.615Y-58.252
X206.615Y-61.919
X206.615Y-77.288
X206.615Y-80.956
X206.615Y-96.352
X206.615Y-100.019
X207.495Y-115.505
X208.6Y-58.2
X208.892Y-96.304
X208.892Y-115.354
X208.892Y-77.24
X210.566Y-50.88
X210.566Y-69.916
X210.566Y-88.98
X210.566Y-108.03
X211.722Y-70.153
X211.773Y-108.266
X211.773Y-89.216
X213.974Y-60.361
X213.974Y-79.397
X213.974Y-117.511
X213.974Y-98.461
X217.967Y-107.013
X219.807Y-70.224
X219.827Y-51.113
X219.827Y-89.223
X219.868Y-108.223
X220.126Y-72.278
X220.189Y-91.392
X220.253Y-53.228
X220.824Y-51.09
X220.824Y-70.126
X220.824Y-89.19
X220.824Y-108.24
T2
X92.18Y-41.23
X92.18Y-43.77
X92.18Y-46.31
X92.18Y-48.85
X92.18Y-51.39
X92.18Y-53.93
X92.18Y-56.47
X92.18Y-59.01
X92.18Y-61.55
X92.18Y-64.09
X92.18Y-66.63
X92.18Y-69.17
X93.479Y-42.426
X93.479Y-44.966
X93.479Y-47.506
X93.479Y-50.046
X93.479Y-52.586
X93.479Y-55.126
X93.479Y-57.666
X93.479Y-60.206
X93.479Y-62.746
X93.479Y-65.286
X93.479Y-67.826
X93.479Y-70.366
X95.43Y-75.92
X96.7Y-74.6
X97.97Y-75.92
X99.24Y-74.6
X100.51Y-75.92
X101.78Y-74.6
X103.05Y-75.92
X104.32Y-74.6
X105.59Y-75.92
X107.42Y-41.23
X107.42Y-43.77
X107.42Y-46.31
X107.42Y-48.85
X107.42Y-51.39
X107.42Y-53.93
X107.42Y-56.47
X107.42Y-59.01
X107.42Y-61.55
X107.42Y-64.09
X107.42Y-66.63
X107.42Y-69.17
X108.719Y-42.426
X108.719Y-44.966
X108.719Y-47.506
X108.719Y-50.046
X108.719Y-52.586
X108.719Y-55.126
X108.719Y-57.666
X108.719Y-60.206
X108.719Y-62.746
X108.719Y-65.286
X108.719Y-67.826
X108.719Y-70.366
T3
X93.45Y-72.7
X97.5Y-98.15
X97.5Y-112.65
X100.0Y-98.15
X102.5Y-98.15
X102.5Y-112.65
X106.85Y-72.7
T4
X96.5Y-93.0
X103.0Y-93.0
T6
X91.5Y-93.0
X108.0Y-93.0
T7
X103.0Y-119.0
X130.7Y-57.025
X130.7Y-95.125
X206.275Y-66.025
X206.275Y-104.125
T3
G00X91.05Y-83.55
M15
G01X91.55Y-83.55
M16
G05
G00X91.05Y-89.5
M15
G01X91.55Y-89.5
M16
G05
G00X94.05Y-83.55
M15
G01X94.55Y-83.55
M16
G05
G00X94.05Y-89.5
M15
G01X94.55Y-89.5
M16
G05
G00X98.05Y-83.55
M15
G01X98.55Y-83.55
M16
G05
G00X98.05Y-89.5
M15
G01X98.55Y-89.5
M16
G05
G00X99.55Y-85.3
M15
G01X100.05Y-85.3
M16
G05
G00X99.55Y-87.75
M15
G01X100.05Y-87.75
M16
G05
T5
G00X94.4Y-105.0
M15
G01X94.4Y-106.3
M16
G05
G00X105.6Y-105.0
M15
G01X105.6Y-106.3
M16
G05
M30
