%TF.GenerationSoftware,KiCad,Pcbnew,8.0.4-8.0.4-0~ubuntu24.04.1*%
%TF.CreationDate,2024-08-12T14:45:40+02:00*%
%TF.ProjectId,SofleKeyboardTopPlate,536f666c-654b-4657-9962-6f617264546f,rev?*%
%TF.SameCoordinates,Original*%
%TF.FileFunction,Copper,L2,Bot*%
%TF.FilePolarity,Positive*%
%FSLAX46Y46*%
G04 Gerber Fmt 4.6, Leading zero omitted, Abs format (unit mm)*
G04 Created by KiCad (PCBNEW 8.0.4-8.0.4-0~ubuntu24.04.1) date 2024-08-12 14:45:40*
%MOMM*%
%LPD*%
G01*
G04 APERTURE LIST*
%ADD10C,0.150000*%
%TA.AperFunction,NonConductor*%
%ADD11C,0.150000*%
%TD*%
%ADD12C,0.200000*%
%TA.AperFunction,NonConductor*%
%ADD13C,0.200000*%
%TD*%
%TA.AperFunction,ComponentPad*%
%ADD14C,3.500000*%
%TD*%
G04 APERTURE END LIST*
D10*
D11*
X148845180Y-92514286D02*
X149845180Y-92514286D01*
X148845180Y-92085715D02*
X149368990Y-92085715D01*
X149368990Y-92085715D02*
X149464228Y-92133334D01*
X149464228Y-92133334D02*
X149511847Y-92228572D01*
X149511847Y-92228572D02*
X149511847Y-92371429D01*
X149511847Y-92371429D02*
X149464228Y-92466667D01*
X149464228Y-92466667D02*
X149416609Y-92514286D01*
X149511847Y-91752381D02*
X149511847Y-91371429D01*
X149845180Y-91609524D02*
X148988038Y-91609524D01*
X148988038Y-91609524D02*
X148892800Y-91561905D01*
X148892800Y-91561905D02*
X148845180Y-91466667D01*
X148845180Y-91466667D02*
X148845180Y-91371429D01*
X149511847Y-91180952D02*
X149511847Y-90800000D01*
X149845180Y-91038095D02*
X148988038Y-91038095D01*
X148988038Y-91038095D02*
X148892800Y-90990476D01*
X148892800Y-90990476D02*
X148845180Y-90895238D01*
X148845180Y-90895238D02*
X148845180Y-90800000D01*
X149511847Y-90466666D02*
X148511847Y-90466666D01*
X149464228Y-90466666D02*
X149511847Y-90371428D01*
X149511847Y-90371428D02*
X149511847Y-90180952D01*
X149511847Y-90180952D02*
X149464228Y-90085714D01*
X149464228Y-90085714D02*
X149416609Y-90038095D01*
X149416609Y-90038095D02*
X149321371Y-89990476D01*
X149321371Y-89990476D02*
X149035657Y-89990476D01*
X149035657Y-89990476D02*
X148940419Y-90038095D01*
X148940419Y-90038095D02*
X148892800Y-90085714D01*
X148892800Y-90085714D02*
X148845180Y-90180952D01*
X148845180Y-90180952D02*
X148845180Y-90371428D01*
X148845180Y-90371428D02*
X148892800Y-90466666D01*
X148892800Y-89609523D02*
X148845180Y-89514285D01*
X148845180Y-89514285D02*
X148845180Y-89323809D01*
X148845180Y-89323809D02*
X148892800Y-89228571D01*
X148892800Y-89228571D02*
X148988038Y-89180952D01*
X148988038Y-89180952D02*
X149035657Y-89180952D01*
X149035657Y-89180952D02*
X149130895Y-89228571D01*
X149130895Y-89228571D02*
X149178514Y-89323809D01*
X149178514Y-89323809D02*
X149178514Y-89466666D01*
X149178514Y-89466666D02*
X149226133Y-89561904D01*
X149226133Y-89561904D02*
X149321371Y-89609523D01*
X149321371Y-89609523D02*
X149368990Y-89609523D01*
X149368990Y-89609523D02*
X149464228Y-89561904D01*
X149464228Y-89561904D02*
X149511847Y-89466666D01*
X149511847Y-89466666D02*
X149511847Y-89323809D01*
X149511847Y-89323809D02*
X149464228Y-89228571D01*
X148940419Y-88752380D02*
X148892800Y-88704761D01*
X148892800Y-88704761D02*
X148845180Y-88752380D01*
X148845180Y-88752380D02*
X148892800Y-88799999D01*
X148892800Y-88799999D02*
X148940419Y-88752380D01*
X148940419Y-88752380D02*
X148845180Y-88752380D01*
X149464228Y-88752380D02*
X149416609Y-88704761D01*
X149416609Y-88704761D02*
X149368990Y-88752380D01*
X149368990Y-88752380D02*
X149416609Y-88799999D01*
X149416609Y-88799999D02*
X149464228Y-88752380D01*
X149464228Y-88752380D02*
X149368990Y-88752380D01*
X149892800Y-87561905D02*
X148607085Y-88419047D01*
X149892800Y-86514286D02*
X148607085Y-87371428D01*
X149511847Y-86180952D02*
X148654704Y-86180952D01*
X148654704Y-86180952D02*
X148559466Y-86228571D01*
X148559466Y-86228571D02*
X148511847Y-86323809D01*
X148511847Y-86323809D02*
X148511847Y-86371428D01*
X149845180Y-86180952D02*
X149797561Y-86228571D01*
X149797561Y-86228571D02*
X149749942Y-86180952D01*
X149749942Y-86180952D02*
X149797561Y-86133333D01*
X149797561Y-86133333D02*
X149845180Y-86180952D01*
X149845180Y-86180952D02*
X149749942Y-86180952D01*
X148845180Y-85561905D02*
X148892800Y-85657143D01*
X148892800Y-85657143D02*
X148940419Y-85704762D01*
X148940419Y-85704762D02*
X149035657Y-85752381D01*
X149035657Y-85752381D02*
X149321371Y-85752381D01*
X149321371Y-85752381D02*
X149416609Y-85704762D01*
X149416609Y-85704762D02*
X149464228Y-85657143D01*
X149464228Y-85657143D02*
X149511847Y-85561905D01*
X149511847Y-85561905D02*
X149511847Y-85419048D01*
X149511847Y-85419048D02*
X149464228Y-85323810D01*
X149464228Y-85323810D02*
X149416609Y-85276191D01*
X149416609Y-85276191D02*
X149321371Y-85228572D01*
X149321371Y-85228572D02*
X149035657Y-85228572D01*
X149035657Y-85228572D02*
X148940419Y-85276191D01*
X148940419Y-85276191D02*
X148892800Y-85323810D01*
X148892800Y-85323810D02*
X148845180Y-85419048D01*
X148845180Y-85419048D02*
X148845180Y-85561905D01*
X148892800Y-84847619D02*
X148845180Y-84752381D01*
X148845180Y-84752381D02*
X148845180Y-84561905D01*
X148845180Y-84561905D02*
X148892800Y-84466667D01*
X148892800Y-84466667D02*
X148988038Y-84419048D01*
X148988038Y-84419048D02*
X149035657Y-84419048D01*
X149035657Y-84419048D02*
X149130895Y-84466667D01*
X149130895Y-84466667D02*
X149178514Y-84561905D01*
X149178514Y-84561905D02*
X149178514Y-84704762D01*
X149178514Y-84704762D02*
X149226133Y-84800000D01*
X149226133Y-84800000D02*
X149321371Y-84847619D01*
X149321371Y-84847619D02*
X149368990Y-84847619D01*
X149368990Y-84847619D02*
X149464228Y-84800000D01*
X149464228Y-84800000D02*
X149511847Y-84704762D01*
X149511847Y-84704762D02*
X149511847Y-84561905D01*
X149511847Y-84561905D02*
X149464228Y-84466667D01*
X148892800Y-83609524D02*
X148845180Y-83704762D01*
X148845180Y-83704762D02*
X148845180Y-83895238D01*
X148845180Y-83895238D02*
X148892800Y-83990476D01*
X148892800Y-83990476D02*
X148988038Y-84038095D01*
X148988038Y-84038095D02*
X149368990Y-84038095D01*
X149368990Y-84038095D02*
X149464228Y-83990476D01*
X149464228Y-83990476D02*
X149511847Y-83895238D01*
X149511847Y-83895238D02*
X149511847Y-83704762D01*
X149511847Y-83704762D02*
X149464228Y-83609524D01*
X149464228Y-83609524D02*
X149368990Y-83561905D01*
X149368990Y-83561905D02*
X149273752Y-83561905D01*
X149273752Y-83561905D02*
X149178514Y-84038095D01*
X149511847Y-83276190D02*
X149511847Y-82895238D01*
X148845180Y-83133333D02*
X149702323Y-83133333D01*
X149702323Y-83133333D02*
X149797561Y-83085714D01*
X149797561Y-83085714D02*
X149845180Y-82990476D01*
X149845180Y-82990476D02*
X149845180Y-82895238D01*
X148845180Y-82133333D02*
X149368990Y-82133333D01*
X149368990Y-82133333D02*
X149464228Y-82180952D01*
X149464228Y-82180952D02*
X149511847Y-82276190D01*
X149511847Y-82276190D02*
X149511847Y-82466666D01*
X149511847Y-82466666D02*
X149464228Y-82561904D01*
X148892800Y-82133333D02*
X148845180Y-82228571D01*
X148845180Y-82228571D02*
X148845180Y-82466666D01*
X148845180Y-82466666D02*
X148892800Y-82561904D01*
X148892800Y-82561904D02*
X148988038Y-82609523D01*
X148988038Y-82609523D02*
X149083276Y-82609523D01*
X149083276Y-82609523D02*
X149178514Y-82561904D01*
X149178514Y-82561904D02*
X149226133Y-82466666D01*
X149226133Y-82466666D02*
X149226133Y-82228571D01*
X149226133Y-82228571D02*
X149273752Y-82133333D01*
X148845180Y-81228571D02*
X149845180Y-81228571D01*
X148892800Y-81228571D02*
X148845180Y-81323809D01*
X148845180Y-81323809D02*
X148845180Y-81514285D01*
X148845180Y-81514285D02*
X148892800Y-81609523D01*
X148892800Y-81609523D02*
X148940419Y-81657142D01*
X148940419Y-81657142D02*
X149035657Y-81704761D01*
X149035657Y-81704761D02*
X149321371Y-81704761D01*
X149321371Y-81704761D02*
X149416609Y-81657142D01*
X149416609Y-81657142D02*
X149464228Y-81609523D01*
X149464228Y-81609523D02*
X149511847Y-81514285D01*
X149511847Y-81514285D02*
X149511847Y-81323809D01*
X149511847Y-81323809D02*
X149464228Y-81228571D01*
X148845180Y-80323809D02*
X149368990Y-80323809D01*
X149368990Y-80323809D02*
X149464228Y-80371428D01*
X149464228Y-80371428D02*
X149511847Y-80466666D01*
X149511847Y-80466666D02*
X149511847Y-80657142D01*
X149511847Y-80657142D02*
X149464228Y-80752380D01*
X148892800Y-80323809D02*
X148845180Y-80419047D01*
X148845180Y-80419047D02*
X148845180Y-80657142D01*
X148845180Y-80657142D02*
X148892800Y-80752380D01*
X148892800Y-80752380D02*
X148988038Y-80799999D01*
X148988038Y-80799999D02*
X149083276Y-80799999D01*
X149083276Y-80799999D02*
X149178514Y-80752380D01*
X149178514Y-80752380D02*
X149226133Y-80657142D01*
X149226133Y-80657142D02*
X149226133Y-80419047D01*
X149226133Y-80419047D02*
X149273752Y-80323809D01*
X148845180Y-79847618D02*
X149511847Y-79847618D01*
X149416609Y-79847618D02*
X149464228Y-79799999D01*
X149464228Y-79799999D02*
X149511847Y-79704761D01*
X149511847Y-79704761D02*
X149511847Y-79561904D01*
X149511847Y-79561904D02*
X149464228Y-79466666D01*
X149464228Y-79466666D02*
X149368990Y-79419047D01*
X149368990Y-79419047D02*
X148845180Y-79419047D01*
X149368990Y-79419047D02*
X149464228Y-79371428D01*
X149464228Y-79371428D02*
X149511847Y-79276190D01*
X149511847Y-79276190D02*
X149511847Y-79133333D01*
X149511847Y-79133333D02*
X149464228Y-79038094D01*
X149464228Y-79038094D02*
X149368990Y-78990475D01*
X149368990Y-78990475D02*
X148845180Y-78990475D01*
X148892800Y-78085714D02*
X148845180Y-78180952D01*
X148845180Y-78180952D02*
X148845180Y-78371428D01*
X148845180Y-78371428D02*
X148892800Y-78466666D01*
X148892800Y-78466666D02*
X148940419Y-78514285D01*
X148940419Y-78514285D02*
X149035657Y-78561904D01*
X149035657Y-78561904D02*
X149321371Y-78561904D01*
X149321371Y-78561904D02*
X149416609Y-78514285D01*
X149416609Y-78514285D02*
X149464228Y-78466666D01*
X149464228Y-78466666D02*
X149511847Y-78371428D01*
X149511847Y-78371428D02*
X149511847Y-78180952D01*
X149511847Y-78180952D02*
X149464228Y-78085714D01*
X148845180Y-77657142D02*
X149511847Y-77657142D01*
X149845180Y-77657142D02*
X149797561Y-77704761D01*
X149797561Y-77704761D02*
X149749942Y-77657142D01*
X149749942Y-77657142D02*
X149797561Y-77609523D01*
X149797561Y-77609523D02*
X149845180Y-77657142D01*
X149845180Y-77657142D02*
X149749942Y-77657142D01*
X148845180Y-77180952D02*
X149845180Y-77180952D01*
X149226133Y-77085714D02*
X148845180Y-76800000D01*
X149511847Y-76800000D02*
X149130895Y-77180952D01*
X148940419Y-76371428D02*
X148892800Y-76323809D01*
X148892800Y-76323809D02*
X148845180Y-76371428D01*
X148845180Y-76371428D02*
X148892800Y-76419047D01*
X148892800Y-76419047D02*
X148940419Y-76371428D01*
X148940419Y-76371428D02*
X148845180Y-76371428D01*
X149511847Y-75466667D02*
X148702323Y-75466667D01*
X148702323Y-75466667D02*
X148607085Y-75514286D01*
X148607085Y-75514286D02*
X148559466Y-75561905D01*
X148559466Y-75561905D02*
X148511847Y-75657143D01*
X148511847Y-75657143D02*
X148511847Y-75800000D01*
X148511847Y-75800000D02*
X148559466Y-75895238D01*
X148892800Y-75466667D02*
X148845180Y-75561905D01*
X148845180Y-75561905D02*
X148845180Y-75752381D01*
X148845180Y-75752381D02*
X148892800Y-75847619D01*
X148892800Y-75847619D02*
X148940419Y-75895238D01*
X148940419Y-75895238D02*
X149035657Y-75942857D01*
X149035657Y-75942857D02*
X149321371Y-75942857D01*
X149321371Y-75942857D02*
X149416609Y-75895238D01*
X149416609Y-75895238D02*
X149464228Y-75847619D01*
X149464228Y-75847619D02*
X149511847Y-75752381D01*
X149511847Y-75752381D02*
X149511847Y-75561905D01*
X149511847Y-75561905D02*
X149464228Y-75466667D01*
X148845180Y-74990476D02*
X149511847Y-74990476D01*
X149845180Y-74990476D02*
X149797561Y-75038095D01*
X149797561Y-75038095D02*
X149749942Y-74990476D01*
X149749942Y-74990476D02*
X149797561Y-74942857D01*
X149797561Y-74942857D02*
X149845180Y-74990476D01*
X149845180Y-74990476D02*
X149749942Y-74990476D01*
X149511847Y-74657143D02*
X149511847Y-74276191D01*
X149845180Y-74514286D02*
X148988038Y-74514286D01*
X148988038Y-74514286D02*
X148892800Y-74466667D01*
X148892800Y-74466667D02*
X148845180Y-74371429D01*
X148845180Y-74371429D02*
X148845180Y-74276191D01*
X148845180Y-73942857D02*
X149845180Y-73942857D01*
X148845180Y-73514286D02*
X149368990Y-73514286D01*
X149368990Y-73514286D02*
X149464228Y-73561905D01*
X149464228Y-73561905D02*
X149511847Y-73657143D01*
X149511847Y-73657143D02*
X149511847Y-73800000D01*
X149511847Y-73800000D02*
X149464228Y-73895238D01*
X149464228Y-73895238D02*
X149416609Y-73942857D01*
X149511847Y-72609524D02*
X148845180Y-72609524D01*
X149511847Y-73038095D02*
X148988038Y-73038095D01*
X148988038Y-73038095D02*
X148892800Y-72990476D01*
X148892800Y-72990476D02*
X148845180Y-72895238D01*
X148845180Y-72895238D02*
X148845180Y-72752381D01*
X148845180Y-72752381D02*
X148892800Y-72657143D01*
X148892800Y-72657143D02*
X148940419Y-72609524D01*
X148845180Y-72133333D02*
X149845180Y-72133333D01*
X149464228Y-72133333D02*
X149511847Y-72038095D01*
X149511847Y-72038095D02*
X149511847Y-71847619D01*
X149511847Y-71847619D02*
X149464228Y-71752381D01*
X149464228Y-71752381D02*
X149416609Y-71704762D01*
X149416609Y-71704762D02*
X149321371Y-71657143D01*
X149321371Y-71657143D02*
X149035657Y-71657143D01*
X149035657Y-71657143D02*
X148940419Y-71704762D01*
X148940419Y-71704762D02*
X148892800Y-71752381D01*
X148892800Y-71752381D02*
X148845180Y-71847619D01*
X148845180Y-71847619D02*
X148845180Y-72038095D01*
X148845180Y-72038095D02*
X148892800Y-72133333D01*
X148940419Y-71228571D02*
X148892800Y-71180952D01*
X148892800Y-71180952D02*
X148845180Y-71228571D01*
X148845180Y-71228571D02*
X148892800Y-71276190D01*
X148892800Y-71276190D02*
X148940419Y-71228571D01*
X148940419Y-71228571D02*
X148845180Y-71228571D01*
X148845180Y-70752381D02*
X149511847Y-70752381D01*
X149845180Y-70752381D02*
X149797561Y-70800000D01*
X149797561Y-70800000D02*
X149749942Y-70752381D01*
X149749942Y-70752381D02*
X149797561Y-70704762D01*
X149797561Y-70704762D02*
X149845180Y-70752381D01*
X149845180Y-70752381D02*
X149749942Y-70752381D01*
X148845180Y-70133334D02*
X148892800Y-70228572D01*
X148892800Y-70228572D02*
X148940419Y-70276191D01*
X148940419Y-70276191D02*
X149035657Y-70323810D01*
X149035657Y-70323810D02*
X149321371Y-70323810D01*
X149321371Y-70323810D02*
X149416609Y-70276191D01*
X149416609Y-70276191D02*
X149464228Y-70228572D01*
X149464228Y-70228572D02*
X149511847Y-70133334D01*
X149511847Y-70133334D02*
X149511847Y-69990477D01*
X149511847Y-69990477D02*
X149464228Y-69895239D01*
X149464228Y-69895239D02*
X149416609Y-69847620D01*
X149416609Y-69847620D02*
X149321371Y-69800001D01*
X149321371Y-69800001D02*
X149035657Y-69800001D01*
X149035657Y-69800001D02*
X148940419Y-69847620D01*
X148940419Y-69847620D02*
X148892800Y-69895239D01*
X148892800Y-69895239D02*
X148845180Y-69990477D01*
X148845180Y-69990477D02*
X148845180Y-70133334D01*
X149892800Y-68657144D02*
X148607085Y-69514286D01*
X148892800Y-68371429D02*
X148845180Y-68228572D01*
X148845180Y-68228572D02*
X148845180Y-67990477D01*
X148845180Y-67990477D02*
X148892800Y-67895239D01*
X148892800Y-67895239D02*
X148940419Y-67847620D01*
X148940419Y-67847620D02*
X149035657Y-67800001D01*
X149035657Y-67800001D02*
X149130895Y-67800001D01*
X149130895Y-67800001D02*
X149226133Y-67847620D01*
X149226133Y-67847620D02*
X149273752Y-67895239D01*
X149273752Y-67895239D02*
X149321371Y-67990477D01*
X149321371Y-67990477D02*
X149368990Y-68180953D01*
X149368990Y-68180953D02*
X149416609Y-68276191D01*
X149416609Y-68276191D02*
X149464228Y-68323810D01*
X149464228Y-68323810D02*
X149559466Y-68371429D01*
X149559466Y-68371429D02*
X149654704Y-68371429D01*
X149654704Y-68371429D02*
X149749942Y-68323810D01*
X149749942Y-68323810D02*
X149797561Y-68276191D01*
X149797561Y-68276191D02*
X149845180Y-68180953D01*
X149845180Y-68180953D02*
X149845180Y-67942858D01*
X149845180Y-67942858D02*
X149797561Y-67800001D01*
X148845180Y-67228572D02*
X148892800Y-67323810D01*
X148892800Y-67323810D02*
X148940419Y-67371429D01*
X148940419Y-67371429D02*
X149035657Y-67419048D01*
X149035657Y-67419048D02*
X149321371Y-67419048D01*
X149321371Y-67419048D02*
X149416609Y-67371429D01*
X149416609Y-67371429D02*
X149464228Y-67323810D01*
X149464228Y-67323810D02*
X149511847Y-67228572D01*
X149511847Y-67228572D02*
X149511847Y-67085715D01*
X149511847Y-67085715D02*
X149464228Y-66990477D01*
X149464228Y-66990477D02*
X149416609Y-66942858D01*
X149416609Y-66942858D02*
X149321371Y-66895239D01*
X149321371Y-66895239D02*
X149035657Y-66895239D01*
X149035657Y-66895239D02*
X148940419Y-66942858D01*
X148940419Y-66942858D02*
X148892800Y-66990477D01*
X148892800Y-66990477D02*
X148845180Y-67085715D01*
X148845180Y-67085715D02*
X148845180Y-67228572D01*
X149511847Y-66609524D02*
X149511847Y-66228572D01*
X148845180Y-66466667D02*
X149702323Y-66466667D01*
X149702323Y-66466667D02*
X149797561Y-66419048D01*
X149797561Y-66419048D02*
X149845180Y-66323810D01*
X149845180Y-66323810D02*
X149845180Y-66228572D01*
X148845180Y-65752381D02*
X148892800Y-65847619D01*
X148892800Y-65847619D02*
X148988038Y-65895238D01*
X148988038Y-65895238D02*
X149845180Y-65895238D01*
X148892800Y-64990476D02*
X148845180Y-65085714D01*
X148845180Y-65085714D02*
X148845180Y-65276190D01*
X148845180Y-65276190D02*
X148892800Y-65371428D01*
X148892800Y-65371428D02*
X148988038Y-65419047D01*
X148988038Y-65419047D02*
X149368990Y-65419047D01*
X149368990Y-65419047D02*
X149464228Y-65371428D01*
X149464228Y-65371428D02*
X149511847Y-65276190D01*
X149511847Y-65276190D02*
X149511847Y-65085714D01*
X149511847Y-65085714D02*
X149464228Y-64990476D01*
X149464228Y-64990476D02*
X149368990Y-64942857D01*
X149368990Y-64942857D02*
X149273752Y-64942857D01*
X149273752Y-64942857D02*
X149178514Y-65419047D01*
X148845180Y-64514285D02*
X149845180Y-64514285D01*
X148845180Y-63942857D02*
X149416609Y-64371428D01*
X149845180Y-63942857D02*
X149273752Y-64514285D01*
X148892800Y-63133333D02*
X148845180Y-63228571D01*
X148845180Y-63228571D02*
X148845180Y-63419047D01*
X148845180Y-63419047D02*
X148892800Y-63514285D01*
X148892800Y-63514285D02*
X148988038Y-63561904D01*
X148988038Y-63561904D02*
X149368990Y-63561904D01*
X149368990Y-63561904D02*
X149464228Y-63514285D01*
X149464228Y-63514285D02*
X149511847Y-63419047D01*
X149511847Y-63419047D02*
X149511847Y-63228571D01*
X149511847Y-63228571D02*
X149464228Y-63133333D01*
X149464228Y-63133333D02*
X149368990Y-63085714D01*
X149368990Y-63085714D02*
X149273752Y-63085714D01*
X149273752Y-63085714D02*
X149178514Y-63561904D01*
X149511847Y-62752380D02*
X148845180Y-62514285D01*
X149511847Y-62276190D02*
X148845180Y-62514285D01*
X148845180Y-62514285D02*
X148607085Y-62609523D01*
X148607085Y-62609523D02*
X148559466Y-62657142D01*
X148559466Y-62657142D02*
X148511847Y-62752380D01*
X148845180Y-61895237D02*
X149845180Y-61895237D01*
X149464228Y-61895237D02*
X149511847Y-61799999D01*
X149511847Y-61799999D02*
X149511847Y-61609523D01*
X149511847Y-61609523D02*
X149464228Y-61514285D01*
X149464228Y-61514285D02*
X149416609Y-61466666D01*
X149416609Y-61466666D02*
X149321371Y-61419047D01*
X149321371Y-61419047D02*
X149035657Y-61419047D01*
X149035657Y-61419047D02*
X148940419Y-61466666D01*
X148940419Y-61466666D02*
X148892800Y-61514285D01*
X148892800Y-61514285D02*
X148845180Y-61609523D01*
X148845180Y-61609523D02*
X148845180Y-61799999D01*
X148845180Y-61799999D02*
X148892800Y-61895237D01*
X148845180Y-60847618D02*
X148892800Y-60942856D01*
X148892800Y-60942856D02*
X148940419Y-60990475D01*
X148940419Y-60990475D02*
X149035657Y-61038094D01*
X149035657Y-61038094D02*
X149321371Y-61038094D01*
X149321371Y-61038094D02*
X149416609Y-60990475D01*
X149416609Y-60990475D02*
X149464228Y-60942856D01*
X149464228Y-60942856D02*
X149511847Y-60847618D01*
X149511847Y-60847618D02*
X149511847Y-60704761D01*
X149511847Y-60704761D02*
X149464228Y-60609523D01*
X149464228Y-60609523D02*
X149416609Y-60561904D01*
X149416609Y-60561904D02*
X149321371Y-60514285D01*
X149321371Y-60514285D02*
X149035657Y-60514285D01*
X149035657Y-60514285D02*
X148940419Y-60561904D01*
X148940419Y-60561904D02*
X148892800Y-60609523D01*
X148892800Y-60609523D02*
X148845180Y-60704761D01*
X148845180Y-60704761D02*
X148845180Y-60847618D01*
X148845180Y-59657142D02*
X149368990Y-59657142D01*
X149368990Y-59657142D02*
X149464228Y-59704761D01*
X149464228Y-59704761D02*
X149511847Y-59799999D01*
X149511847Y-59799999D02*
X149511847Y-59990475D01*
X149511847Y-59990475D02*
X149464228Y-60085713D01*
X148892800Y-59657142D02*
X148845180Y-59752380D01*
X148845180Y-59752380D02*
X148845180Y-59990475D01*
X148845180Y-59990475D02*
X148892800Y-60085713D01*
X148892800Y-60085713D02*
X148988038Y-60133332D01*
X148988038Y-60133332D02*
X149083276Y-60133332D01*
X149083276Y-60133332D02*
X149178514Y-60085713D01*
X149178514Y-60085713D02*
X149226133Y-59990475D01*
X149226133Y-59990475D02*
X149226133Y-59752380D01*
X149226133Y-59752380D02*
X149273752Y-59657142D01*
X148845180Y-59180951D02*
X149511847Y-59180951D01*
X149321371Y-59180951D02*
X149416609Y-59133332D01*
X149416609Y-59133332D02*
X149464228Y-59085713D01*
X149464228Y-59085713D02*
X149511847Y-58990475D01*
X149511847Y-58990475D02*
X149511847Y-58895237D01*
X148845180Y-58133332D02*
X149845180Y-58133332D01*
X148892800Y-58133332D02*
X148845180Y-58228570D01*
X148845180Y-58228570D02*
X148845180Y-58419046D01*
X148845180Y-58419046D02*
X148892800Y-58514284D01*
X148892800Y-58514284D02*
X148940419Y-58561903D01*
X148940419Y-58561903D02*
X149035657Y-58609522D01*
X149035657Y-58609522D02*
X149321371Y-58609522D01*
X149321371Y-58609522D02*
X149416609Y-58561903D01*
X149416609Y-58561903D02*
X149464228Y-58514284D01*
X149464228Y-58514284D02*
X149511847Y-58419046D01*
X149511847Y-58419046D02*
X149511847Y-58228570D01*
X149511847Y-58228570D02*
X149464228Y-58133332D01*
X149892800Y-56942856D02*
X148607085Y-57799998D01*
D12*
D13*
X130647780Y-88761905D02*
X130647780Y-88571429D01*
X130647780Y-88571429D02*
X130600161Y-88476191D01*
X130600161Y-88476191D02*
X130504923Y-88380953D01*
X130504923Y-88380953D02*
X130314447Y-88333334D01*
X130314447Y-88333334D02*
X129981114Y-88333334D01*
X129981114Y-88333334D02*
X129790638Y-88380953D01*
X129790638Y-88380953D02*
X129695400Y-88476191D01*
X129695400Y-88476191D02*
X129647780Y-88571429D01*
X129647780Y-88571429D02*
X129647780Y-88761905D01*
X129647780Y-88761905D02*
X129695400Y-88857143D01*
X129695400Y-88857143D02*
X129790638Y-88952381D01*
X129790638Y-88952381D02*
X129981114Y-89000000D01*
X129981114Y-89000000D02*
X130314447Y-89000000D01*
X130314447Y-89000000D02*
X130504923Y-88952381D01*
X130504923Y-88952381D02*
X130600161Y-88857143D01*
X130600161Y-88857143D02*
X130647780Y-88761905D01*
X129647780Y-87904762D02*
X130314447Y-87904762D01*
X130123971Y-87904762D02*
X130219209Y-87857143D01*
X130219209Y-87857143D02*
X130266828Y-87809524D01*
X130266828Y-87809524D02*
X130314447Y-87714286D01*
X130314447Y-87714286D02*
X130314447Y-87619048D01*
X129647780Y-87285714D02*
X130314447Y-87285714D01*
X130647780Y-87285714D02*
X130600161Y-87333333D01*
X130600161Y-87333333D02*
X130552542Y-87285714D01*
X130552542Y-87285714D02*
X130600161Y-87238095D01*
X130600161Y-87238095D02*
X130647780Y-87285714D01*
X130647780Y-87285714D02*
X130552542Y-87285714D01*
X130314447Y-86380953D02*
X129504923Y-86380953D01*
X129504923Y-86380953D02*
X129409685Y-86428572D01*
X129409685Y-86428572D02*
X129362066Y-86476191D01*
X129362066Y-86476191D02*
X129314447Y-86571429D01*
X129314447Y-86571429D02*
X129314447Y-86714286D01*
X129314447Y-86714286D02*
X129362066Y-86809524D01*
X129695400Y-86380953D02*
X129647780Y-86476191D01*
X129647780Y-86476191D02*
X129647780Y-86666667D01*
X129647780Y-86666667D02*
X129695400Y-86761905D01*
X129695400Y-86761905D02*
X129743019Y-86809524D01*
X129743019Y-86809524D02*
X129838257Y-86857143D01*
X129838257Y-86857143D02*
X130123971Y-86857143D01*
X130123971Y-86857143D02*
X130219209Y-86809524D01*
X130219209Y-86809524D02*
X130266828Y-86761905D01*
X130266828Y-86761905D02*
X130314447Y-86666667D01*
X130314447Y-86666667D02*
X130314447Y-86476191D01*
X130314447Y-86476191D02*
X130266828Y-86380953D01*
X129647780Y-85904762D02*
X130314447Y-85904762D01*
X130647780Y-85904762D02*
X130600161Y-85952381D01*
X130600161Y-85952381D02*
X130552542Y-85904762D01*
X130552542Y-85904762D02*
X130600161Y-85857143D01*
X130600161Y-85857143D02*
X130647780Y-85904762D01*
X130647780Y-85904762D02*
X130552542Y-85904762D01*
X130314447Y-85428572D02*
X129647780Y-85428572D01*
X130219209Y-85428572D02*
X130266828Y-85380953D01*
X130266828Y-85380953D02*
X130314447Y-85285715D01*
X130314447Y-85285715D02*
X130314447Y-85142858D01*
X130314447Y-85142858D02*
X130266828Y-85047620D01*
X130266828Y-85047620D02*
X130171590Y-85000001D01*
X130171590Y-85000001D02*
X129647780Y-85000001D01*
X129647780Y-84095239D02*
X130171590Y-84095239D01*
X130171590Y-84095239D02*
X130266828Y-84142858D01*
X130266828Y-84142858D02*
X130314447Y-84238096D01*
X130314447Y-84238096D02*
X130314447Y-84428572D01*
X130314447Y-84428572D02*
X130266828Y-84523810D01*
X129695400Y-84095239D02*
X129647780Y-84190477D01*
X129647780Y-84190477D02*
X129647780Y-84428572D01*
X129647780Y-84428572D02*
X129695400Y-84523810D01*
X129695400Y-84523810D02*
X129790638Y-84571429D01*
X129790638Y-84571429D02*
X129885876Y-84571429D01*
X129885876Y-84571429D02*
X129981114Y-84523810D01*
X129981114Y-84523810D02*
X130028733Y-84428572D01*
X130028733Y-84428572D02*
X130028733Y-84190477D01*
X130028733Y-84190477D02*
X130076352Y-84095239D01*
X129647780Y-83476191D02*
X129695400Y-83571429D01*
X129695400Y-83571429D02*
X129790638Y-83619048D01*
X129790638Y-83619048D02*
X130647780Y-83619048D01*
X129647780Y-81904762D02*
X130647780Y-81904762D01*
X129695400Y-81904762D02*
X129647780Y-82000000D01*
X129647780Y-82000000D02*
X129647780Y-82190476D01*
X129647780Y-82190476D02*
X129695400Y-82285714D01*
X129695400Y-82285714D02*
X129743019Y-82333333D01*
X129743019Y-82333333D02*
X129838257Y-82380952D01*
X129838257Y-82380952D02*
X130123971Y-82380952D01*
X130123971Y-82380952D02*
X130219209Y-82333333D01*
X130219209Y-82333333D02*
X130266828Y-82285714D01*
X130266828Y-82285714D02*
X130314447Y-82190476D01*
X130314447Y-82190476D02*
X130314447Y-82000000D01*
X130314447Y-82000000D02*
X130266828Y-81904762D01*
X129695400Y-81047619D02*
X129647780Y-81142857D01*
X129647780Y-81142857D02*
X129647780Y-81333333D01*
X129647780Y-81333333D02*
X129695400Y-81428571D01*
X129695400Y-81428571D02*
X129790638Y-81476190D01*
X129790638Y-81476190D02*
X130171590Y-81476190D01*
X130171590Y-81476190D02*
X130266828Y-81428571D01*
X130266828Y-81428571D02*
X130314447Y-81333333D01*
X130314447Y-81333333D02*
X130314447Y-81142857D01*
X130314447Y-81142857D02*
X130266828Y-81047619D01*
X130266828Y-81047619D02*
X130171590Y-81000000D01*
X130171590Y-81000000D02*
X130076352Y-81000000D01*
X130076352Y-81000000D02*
X129981114Y-81476190D01*
X129695400Y-80619047D02*
X129647780Y-80523809D01*
X129647780Y-80523809D02*
X129647780Y-80333333D01*
X129647780Y-80333333D02*
X129695400Y-80238095D01*
X129695400Y-80238095D02*
X129790638Y-80190476D01*
X129790638Y-80190476D02*
X129838257Y-80190476D01*
X129838257Y-80190476D02*
X129933495Y-80238095D01*
X129933495Y-80238095D02*
X129981114Y-80333333D01*
X129981114Y-80333333D02*
X129981114Y-80476190D01*
X129981114Y-80476190D02*
X130028733Y-80571428D01*
X130028733Y-80571428D02*
X130123971Y-80619047D01*
X130123971Y-80619047D02*
X130171590Y-80619047D01*
X130171590Y-80619047D02*
X130266828Y-80571428D01*
X130266828Y-80571428D02*
X130314447Y-80476190D01*
X130314447Y-80476190D02*
X130314447Y-80333333D01*
X130314447Y-80333333D02*
X130266828Y-80238095D01*
X129647780Y-79761904D02*
X130314447Y-79761904D01*
X130647780Y-79761904D02*
X130600161Y-79809523D01*
X130600161Y-79809523D02*
X130552542Y-79761904D01*
X130552542Y-79761904D02*
X130600161Y-79714285D01*
X130600161Y-79714285D02*
X130647780Y-79761904D01*
X130647780Y-79761904D02*
X130552542Y-79761904D01*
X130314447Y-78857143D02*
X129504923Y-78857143D01*
X129504923Y-78857143D02*
X129409685Y-78904762D01*
X129409685Y-78904762D02*
X129362066Y-78952381D01*
X129362066Y-78952381D02*
X129314447Y-79047619D01*
X129314447Y-79047619D02*
X129314447Y-79190476D01*
X129314447Y-79190476D02*
X129362066Y-79285714D01*
X129695400Y-78857143D02*
X129647780Y-78952381D01*
X129647780Y-78952381D02*
X129647780Y-79142857D01*
X129647780Y-79142857D02*
X129695400Y-79238095D01*
X129695400Y-79238095D02*
X129743019Y-79285714D01*
X129743019Y-79285714D02*
X129838257Y-79333333D01*
X129838257Y-79333333D02*
X130123971Y-79333333D01*
X130123971Y-79333333D02*
X130219209Y-79285714D01*
X130219209Y-79285714D02*
X130266828Y-79238095D01*
X130266828Y-79238095D02*
X130314447Y-79142857D01*
X130314447Y-79142857D02*
X130314447Y-78952381D01*
X130314447Y-78952381D02*
X130266828Y-78857143D01*
X130314447Y-78380952D02*
X129647780Y-78380952D01*
X130219209Y-78380952D02*
X130266828Y-78333333D01*
X130266828Y-78333333D02*
X130314447Y-78238095D01*
X130314447Y-78238095D02*
X130314447Y-78095238D01*
X130314447Y-78095238D02*
X130266828Y-78000000D01*
X130266828Y-78000000D02*
X130171590Y-77952381D01*
X130171590Y-77952381D02*
X129647780Y-77952381D01*
X129647780Y-76714285D02*
X130647780Y-76714285D01*
X130266828Y-76714285D02*
X130314447Y-76619047D01*
X130314447Y-76619047D02*
X130314447Y-76428571D01*
X130314447Y-76428571D02*
X130266828Y-76333333D01*
X130266828Y-76333333D02*
X130219209Y-76285714D01*
X130219209Y-76285714D02*
X130123971Y-76238095D01*
X130123971Y-76238095D02*
X129838257Y-76238095D01*
X129838257Y-76238095D02*
X129743019Y-76285714D01*
X129743019Y-76285714D02*
X129695400Y-76333333D01*
X129695400Y-76333333D02*
X129647780Y-76428571D01*
X129647780Y-76428571D02*
X129647780Y-76619047D01*
X129647780Y-76619047D02*
X129695400Y-76714285D01*
X130314447Y-75904761D02*
X129647780Y-75666666D01*
X130314447Y-75428571D02*
X129647780Y-75666666D01*
X129647780Y-75666666D02*
X129409685Y-75761904D01*
X129409685Y-75761904D02*
X129362066Y-75809523D01*
X129362066Y-75809523D02*
X129314447Y-75904761D01*
X130647780Y-73999999D02*
X129933495Y-73999999D01*
X129933495Y-73999999D02*
X129790638Y-74047618D01*
X129790638Y-74047618D02*
X129695400Y-74142856D01*
X129695400Y-74142856D02*
X129647780Y-74285713D01*
X129647780Y-74285713D02*
X129647780Y-74380951D01*
X129647780Y-73380951D02*
X129695400Y-73476189D01*
X129695400Y-73476189D02*
X129743019Y-73523808D01*
X129743019Y-73523808D02*
X129838257Y-73571427D01*
X129838257Y-73571427D02*
X130123971Y-73571427D01*
X130123971Y-73571427D02*
X130219209Y-73523808D01*
X130219209Y-73523808D02*
X130266828Y-73476189D01*
X130266828Y-73476189D02*
X130314447Y-73380951D01*
X130314447Y-73380951D02*
X130314447Y-73238094D01*
X130314447Y-73238094D02*
X130266828Y-73142856D01*
X130266828Y-73142856D02*
X130219209Y-73095237D01*
X130219209Y-73095237D02*
X130123971Y-73047618D01*
X130123971Y-73047618D02*
X129838257Y-73047618D01*
X129838257Y-73047618D02*
X129743019Y-73095237D01*
X129743019Y-73095237D02*
X129695400Y-73142856D01*
X129695400Y-73142856D02*
X129647780Y-73238094D01*
X129647780Y-73238094D02*
X129647780Y-73380951D01*
X129695400Y-72666665D02*
X129647780Y-72571427D01*
X129647780Y-72571427D02*
X129647780Y-72380951D01*
X129647780Y-72380951D02*
X129695400Y-72285713D01*
X129695400Y-72285713D02*
X129790638Y-72238094D01*
X129790638Y-72238094D02*
X129838257Y-72238094D01*
X129838257Y-72238094D02*
X129933495Y-72285713D01*
X129933495Y-72285713D02*
X129981114Y-72380951D01*
X129981114Y-72380951D02*
X129981114Y-72523808D01*
X129981114Y-72523808D02*
X130028733Y-72619046D01*
X130028733Y-72619046D02*
X130123971Y-72666665D01*
X130123971Y-72666665D02*
X130171590Y-72666665D01*
X130171590Y-72666665D02*
X130266828Y-72619046D01*
X130266828Y-72619046D02*
X130314447Y-72523808D01*
X130314447Y-72523808D02*
X130314447Y-72380951D01*
X130314447Y-72380951D02*
X130266828Y-72285713D01*
X129695400Y-71428570D02*
X129647780Y-71523808D01*
X129647780Y-71523808D02*
X129647780Y-71714284D01*
X129647780Y-71714284D02*
X129695400Y-71809522D01*
X129695400Y-71809522D02*
X129790638Y-71857141D01*
X129790638Y-71857141D02*
X130171590Y-71857141D01*
X130171590Y-71857141D02*
X130266828Y-71809522D01*
X130266828Y-71809522D02*
X130314447Y-71714284D01*
X130314447Y-71714284D02*
X130314447Y-71523808D01*
X130314447Y-71523808D02*
X130266828Y-71428570D01*
X130266828Y-71428570D02*
X130171590Y-71380951D01*
X130171590Y-71380951D02*
X130076352Y-71380951D01*
X130076352Y-71380951D02*
X129981114Y-71857141D01*
X130314447Y-71095236D02*
X130314447Y-70714284D01*
X129647780Y-70952379D02*
X130504923Y-70952379D01*
X130504923Y-70952379D02*
X130600161Y-70904760D01*
X130600161Y-70904760D02*
X130647780Y-70809522D01*
X130647780Y-70809522D02*
X130647780Y-70714284D01*
X129933495Y-69666664D02*
X129933495Y-69190474D01*
X129647780Y-69761902D02*
X130647780Y-69428569D01*
X130647780Y-69428569D02*
X129647780Y-69095236D01*
X129647780Y-68333331D02*
X130647780Y-68333331D01*
X129695400Y-68333331D02*
X129647780Y-68428569D01*
X129647780Y-68428569D02*
X129647780Y-68619045D01*
X129647780Y-68619045D02*
X129695400Y-68714283D01*
X129695400Y-68714283D02*
X129743019Y-68761902D01*
X129743019Y-68761902D02*
X129838257Y-68809521D01*
X129838257Y-68809521D02*
X130123971Y-68809521D01*
X130123971Y-68809521D02*
X130219209Y-68761902D01*
X130219209Y-68761902D02*
X130266828Y-68714283D01*
X130266828Y-68714283D02*
X130314447Y-68619045D01*
X130314447Y-68619045D02*
X130314447Y-68428569D01*
X130314447Y-68428569D02*
X130266828Y-68333331D01*
X129647780Y-67428569D02*
X130171590Y-67428569D01*
X130171590Y-67428569D02*
X130266828Y-67476188D01*
X130266828Y-67476188D02*
X130314447Y-67571426D01*
X130314447Y-67571426D02*
X130314447Y-67761902D01*
X130314447Y-67761902D02*
X130266828Y-67857140D01*
X129695400Y-67428569D02*
X129647780Y-67523807D01*
X129647780Y-67523807D02*
X129647780Y-67761902D01*
X129647780Y-67761902D02*
X129695400Y-67857140D01*
X129695400Y-67857140D02*
X129790638Y-67904759D01*
X129790638Y-67904759D02*
X129885876Y-67904759D01*
X129885876Y-67904759D02*
X129981114Y-67857140D01*
X129981114Y-67857140D02*
X130028733Y-67761902D01*
X130028733Y-67761902D02*
X130028733Y-67523807D01*
X130028733Y-67523807D02*
X130076352Y-67428569D01*
X129647780Y-66952378D02*
X130314447Y-66952378D01*
X130219209Y-66952378D02*
X130266828Y-66904759D01*
X130266828Y-66904759D02*
X130314447Y-66809521D01*
X130314447Y-66809521D02*
X130314447Y-66666664D01*
X130314447Y-66666664D02*
X130266828Y-66571426D01*
X130266828Y-66571426D02*
X130171590Y-66523807D01*
X130171590Y-66523807D02*
X129647780Y-66523807D01*
X130171590Y-66523807D02*
X130266828Y-66476188D01*
X130266828Y-66476188D02*
X130314447Y-66380950D01*
X130314447Y-66380950D02*
X130314447Y-66238093D01*
X130314447Y-66238093D02*
X130266828Y-66142854D01*
X130266828Y-66142854D02*
X130171590Y-66095235D01*
X130171590Y-66095235D02*
X129647780Y-66095235D01*
X129647780Y-65190474D02*
X130171590Y-65190474D01*
X130171590Y-65190474D02*
X130266828Y-65238093D01*
X130266828Y-65238093D02*
X130314447Y-65333331D01*
X130314447Y-65333331D02*
X130314447Y-65523807D01*
X130314447Y-65523807D02*
X130266828Y-65619045D01*
X129695400Y-65190474D02*
X129647780Y-65285712D01*
X129647780Y-65285712D02*
X129647780Y-65523807D01*
X129647780Y-65523807D02*
X129695400Y-65619045D01*
X129695400Y-65619045D02*
X129790638Y-65666664D01*
X129790638Y-65666664D02*
X129885876Y-65666664D01*
X129885876Y-65666664D02*
X129981114Y-65619045D01*
X129981114Y-65619045D02*
X130028733Y-65523807D01*
X130028733Y-65523807D02*
X130028733Y-65285712D01*
X130028733Y-65285712D02*
X130076352Y-65190474D01*
X129695400Y-64285712D02*
X129647780Y-64380950D01*
X129647780Y-64380950D02*
X129647780Y-64571426D01*
X129647780Y-64571426D02*
X129695400Y-64666664D01*
X129695400Y-64666664D02*
X129743019Y-64714283D01*
X129743019Y-64714283D02*
X129838257Y-64761902D01*
X129838257Y-64761902D02*
X130123971Y-64761902D01*
X130123971Y-64761902D02*
X130219209Y-64714283D01*
X130219209Y-64714283D02*
X130266828Y-64666664D01*
X130266828Y-64666664D02*
X130314447Y-64571426D01*
X130314447Y-64571426D02*
X130314447Y-64380950D01*
X130314447Y-64380950D02*
X130266828Y-64285712D01*
X129647780Y-63857140D02*
X130314447Y-63857140D01*
X130647780Y-63857140D02*
X130600161Y-63904759D01*
X130600161Y-63904759D02*
X130552542Y-63857140D01*
X130552542Y-63857140D02*
X130600161Y-63809521D01*
X130600161Y-63809521D02*
X130647780Y-63857140D01*
X130647780Y-63857140D02*
X130552542Y-63857140D01*
X129647780Y-63380950D02*
X130647780Y-63380950D01*
X130028733Y-63285712D02*
X129647780Y-62999998D01*
X130314447Y-62999998D02*
X129933495Y-63380950D01*
D12*
D13*
X167695400Y-87813425D02*
X167647780Y-87670568D01*
X167647780Y-87670568D02*
X167647780Y-87432473D01*
X167647780Y-87432473D02*
X167695400Y-87337235D01*
X167695400Y-87337235D02*
X167743019Y-87289616D01*
X167743019Y-87289616D02*
X167838257Y-87241997D01*
X167838257Y-87241997D02*
X167933495Y-87241997D01*
X167933495Y-87241997D02*
X168028733Y-87289616D01*
X168028733Y-87289616D02*
X168076352Y-87337235D01*
X168076352Y-87337235D02*
X168123971Y-87432473D01*
X168123971Y-87432473D02*
X168171590Y-87622949D01*
X168171590Y-87622949D02*
X168219209Y-87718187D01*
X168219209Y-87718187D02*
X168266828Y-87765806D01*
X168266828Y-87765806D02*
X168362066Y-87813425D01*
X168362066Y-87813425D02*
X168457304Y-87813425D01*
X168457304Y-87813425D02*
X168552542Y-87765806D01*
X168552542Y-87765806D02*
X168600161Y-87718187D01*
X168600161Y-87718187D02*
X168647780Y-87622949D01*
X168647780Y-87622949D02*
X168647780Y-87384854D01*
X168647780Y-87384854D02*
X168600161Y-87241997D01*
X167647780Y-86670568D02*
X167695400Y-86765806D01*
X167695400Y-86765806D02*
X167743019Y-86813425D01*
X167743019Y-86813425D02*
X167838257Y-86861044D01*
X167838257Y-86861044D02*
X168123971Y-86861044D01*
X168123971Y-86861044D02*
X168219209Y-86813425D01*
X168219209Y-86813425D02*
X168266828Y-86765806D01*
X168266828Y-86765806D02*
X168314447Y-86670568D01*
X168314447Y-86670568D02*
X168314447Y-86527711D01*
X168314447Y-86527711D02*
X168266828Y-86432473D01*
X168266828Y-86432473D02*
X168219209Y-86384854D01*
X168219209Y-86384854D02*
X168123971Y-86337235D01*
X168123971Y-86337235D02*
X167838257Y-86337235D01*
X167838257Y-86337235D02*
X167743019Y-86384854D01*
X167743019Y-86384854D02*
X167695400Y-86432473D01*
X167695400Y-86432473D02*
X167647780Y-86527711D01*
X167647780Y-86527711D02*
X167647780Y-86670568D01*
X168314447Y-86051520D02*
X168314447Y-85670568D01*
X167647780Y-85908663D02*
X168504923Y-85908663D01*
X168504923Y-85908663D02*
X168600161Y-85861044D01*
X168600161Y-85861044D02*
X168647780Y-85765806D01*
X168647780Y-85765806D02*
X168647780Y-85670568D01*
X167647780Y-85194377D02*
X167695400Y-85289615D01*
X167695400Y-85289615D02*
X167790638Y-85337234D01*
X167790638Y-85337234D02*
X168647780Y-85337234D01*
X167695400Y-84432472D02*
X167647780Y-84527710D01*
X167647780Y-84527710D02*
X167647780Y-84718186D01*
X167647780Y-84718186D02*
X167695400Y-84813424D01*
X167695400Y-84813424D02*
X167790638Y-84861043D01*
X167790638Y-84861043D02*
X168171590Y-84861043D01*
X168171590Y-84861043D02*
X168266828Y-84813424D01*
X168266828Y-84813424D02*
X168314447Y-84718186D01*
X168314447Y-84718186D02*
X168314447Y-84527710D01*
X168314447Y-84527710D02*
X168266828Y-84432472D01*
X168266828Y-84432472D02*
X168171590Y-84384853D01*
X168171590Y-84384853D02*
X168076352Y-84384853D01*
X168076352Y-84384853D02*
X167981114Y-84861043D01*
X167743019Y-82622948D02*
X167695400Y-82670567D01*
X167695400Y-82670567D02*
X167647780Y-82813424D01*
X167647780Y-82813424D02*
X167647780Y-82908662D01*
X167647780Y-82908662D02*
X167695400Y-83051519D01*
X167695400Y-83051519D02*
X167790638Y-83146757D01*
X167790638Y-83146757D02*
X167885876Y-83194376D01*
X167885876Y-83194376D02*
X168076352Y-83241995D01*
X168076352Y-83241995D02*
X168219209Y-83241995D01*
X168219209Y-83241995D02*
X168409685Y-83194376D01*
X168409685Y-83194376D02*
X168504923Y-83146757D01*
X168504923Y-83146757D02*
X168600161Y-83051519D01*
X168600161Y-83051519D02*
X168647780Y-82908662D01*
X168647780Y-82908662D02*
X168647780Y-82813424D01*
X168647780Y-82813424D02*
X168600161Y-82670567D01*
X168600161Y-82670567D02*
X168552542Y-82622948D01*
X167647780Y-82194376D02*
X168647780Y-82194376D01*
X167647780Y-81765805D02*
X168171590Y-81765805D01*
X168171590Y-81765805D02*
X168266828Y-81813424D01*
X168266828Y-81813424D02*
X168314447Y-81908662D01*
X168314447Y-81908662D02*
X168314447Y-82051519D01*
X168314447Y-82051519D02*
X168266828Y-82146757D01*
X168266828Y-82146757D02*
X168219209Y-82194376D01*
X167647780Y-81146757D02*
X167695400Y-81241995D01*
X167695400Y-81241995D02*
X167743019Y-81289614D01*
X167743019Y-81289614D02*
X167838257Y-81337233D01*
X167838257Y-81337233D02*
X168123971Y-81337233D01*
X168123971Y-81337233D02*
X168219209Y-81289614D01*
X168219209Y-81289614D02*
X168266828Y-81241995D01*
X168266828Y-81241995D02*
X168314447Y-81146757D01*
X168314447Y-81146757D02*
X168314447Y-81003900D01*
X168314447Y-81003900D02*
X168266828Y-80908662D01*
X168266828Y-80908662D02*
X168219209Y-80861043D01*
X168219209Y-80861043D02*
X168123971Y-80813424D01*
X168123971Y-80813424D02*
X167838257Y-80813424D01*
X167838257Y-80813424D02*
X167743019Y-80861043D01*
X167743019Y-80861043D02*
X167695400Y-80908662D01*
X167695400Y-80908662D02*
X167647780Y-81003900D01*
X167647780Y-81003900D02*
X167647780Y-81146757D01*
X167695400Y-79956281D02*
X167647780Y-80051519D01*
X167647780Y-80051519D02*
X167647780Y-80241995D01*
X167647780Y-80241995D02*
X167695400Y-80337233D01*
X167695400Y-80337233D02*
X167743019Y-80384852D01*
X167743019Y-80384852D02*
X167838257Y-80432471D01*
X167838257Y-80432471D02*
X168123971Y-80432471D01*
X168123971Y-80432471D02*
X168219209Y-80384852D01*
X168219209Y-80384852D02*
X168266828Y-80337233D01*
X168266828Y-80337233D02*
X168314447Y-80241995D01*
X168314447Y-80241995D02*
X168314447Y-80051519D01*
X168314447Y-80051519D02*
X168266828Y-79956281D01*
X168314447Y-78861042D02*
X167647780Y-78622947D01*
X167647780Y-78622947D02*
X168314447Y-78384852D01*
X168647780Y-78099137D02*
X168647780Y-77480090D01*
X168647780Y-77480090D02*
X168266828Y-77813423D01*
X168266828Y-77813423D02*
X168266828Y-77670566D01*
X168266828Y-77670566D02*
X168219209Y-77575328D01*
X168219209Y-77575328D02*
X168171590Y-77527709D01*
X168171590Y-77527709D02*
X168076352Y-77480090D01*
X168076352Y-77480090D02*
X167838257Y-77480090D01*
X167838257Y-77480090D02*
X167743019Y-77527709D01*
X167743019Y-77527709D02*
X167695400Y-77575328D01*
X167695400Y-77575328D02*
X167647780Y-77670566D01*
X167647780Y-77670566D02*
X167647780Y-77956280D01*
X167647780Y-77956280D02*
X167695400Y-78051518D01*
X167695400Y-78051518D02*
X167743019Y-78099137D01*
X167647780Y-76289613D02*
X168647780Y-76289613D01*
X168266828Y-76289613D02*
X168314447Y-76194375D01*
X168314447Y-76194375D02*
X168314447Y-76003899D01*
X168314447Y-76003899D02*
X168266828Y-75908661D01*
X168266828Y-75908661D02*
X168219209Y-75861042D01*
X168219209Y-75861042D02*
X168123971Y-75813423D01*
X168123971Y-75813423D02*
X167838257Y-75813423D01*
X167838257Y-75813423D02*
X167743019Y-75861042D01*
X167743019Y-75861042D02*
X167695400Y-75908661D01*
X167695400Y-75908661D02*
X167647780Y-76003899D01*
X167647780Y-76003899D02*
X167647780Y-76194375D01*
X167647780Y-76194375D02*
X167695400Y-76289613D01*
X168314447Y-75480089D02*
X167647780Y-75241994D01*
X168314447Y-75003899D02*
X167647780Y-75241994D01*
X167647780Y-75241994D02*
X167409685Y-75337232D01*
X167409685Y-75337232D02*
X167362066Y-75384851D01*
X167362066Y-75384851D02*
X167314447Y-75480089D01*
X168171590Y-73527708D02*
X168123971Y-73384851D01*
X168123971Y-73384851D02*
X168076352Y-73337232D01*
X168076352Y-73337232D02*
X167981114Y-73289613D01*
X167981114Y-73289613D02*
X167838257Y-73289613D01*
X167838257Y-73289613D02*
X167743019Y-73337232D01*
X167743019Y-73337232D02*
X167695400Y-73384851D01*
X167695400Y-73384851D02*
X167647780Y-73480089D01*
X167647780Y-73480089D02*
X167647780Y-73861041D01*
X167647780Y-73861041D02*
X168647780Y-73861041D01*
X168647780Y-73861041D02*
X168647780Y-73527708D01*
X168647780Y-73527708D02*
X168600161Y-73432470D01*
X168600161Y-73432470D02*
X168552542Y-73384851D01*
X168552542Y-73384851D02*
X168457304Y-73337232D01*
X168457304Y-73337232D02*
X168362066Y-73337232D01*
X168362066Y-73337232D02*
X168266828Y-73384851D01*
X168266828Y-73384851D02*
X168219209Y-73432470D01*
X168219209Y-73432470D02*
X168171590Y-73527708D01*
X168171590Y-73527708D02*
X168171590Y-73861041D01*
X167647780Y-72861041D02*
X168314447Y-72861041D01*
X168123971Y-72861041D02*
X168219209Y-72813422D01*
X168219209Y-72813422D02*
X168266828Y-72765803D01*
X168266828Y-72765803D02*
X168314447Y-72670565D01*
X168314447Y-72670565D02*
X168314447Y-72575327D01*
X167647780Y-72241993D02*
X168314447Y-72241993D01*
X168647780Y-72241993D02*
X168600161Y-72289612D01*
X168600161Y-72289612D02*
X168552542Y-72241993D01*
X168552542Y-72241993D02*
X168600161Y-72194374D01*
X168600161Y-72194374D02*
X168647780Y-72241993D01*
X168647780Y-72241993D02*
X168552542Y-72241993D01*
X167647780Y-71337232D02*
X168171590Y-71337232D01*
X168171590Y-71337232D02*
X168266828Y-71384851D01*
X168266828Y-71384851D02*
X168314447Y-71480089D01*
X168314447Y-71480089D02*
X168314447Y-71670565D01*
X168314447Y-71670565D02*
X168266828Y-71765803D01*
X167695400Y-71337232D02*
X167647780Y-71432470D01*
X167647780Y-71432470D02*
X167647780Y-71670565D01*
X167647780Y-71670565D02*
X167695400Y-71765803D01*
X167695400Y-71765803D02*
X167790638Y-71813422D01*
X167790638Y-71813422D02*
X167885876Y-71813422D01*
X167885876Y-71813422D02*
X167981114Y-71765803D01*
X167981114Y-71765803D02*
X168028733Y-71670565D01*
X168028733Y-71670565D02*
X168028733Y-71432470D01*
X168028733Y-71432470D02*
X168076352Y-71337232D01*
X168314447Y-70861041D02*
X167647780Y-70861041D01*
X168219209Y-70861041D02*
X168266828Y-70813422D01*
X168266828Y-70813422D02*
X168314447Y-70718184D01*
X168314447Y-70718184D02*
X168314447Y-70575327D01*
X168314447Y-70575327D02*
X168266828Y-70480089D01*
X168266828Y-70480089D02*
X168171590Y-70432470D01*
X168171590Y-70432470D02*
X167647780Y-70432470D01*
X167647780Y-68718184D02*
X167647780Y-69194374D01*
X167647780Y-69194374D02*
X168647780Y-69194374D01*
X167647780Y-68241993D02*
X167695400Y-68337231D01*
X167695400Y-68337231D02*
X167743019Y-68384850D01*
X167743019Y-68384850D02*
X167838257Y-68432469D01*
X167838257Y-68432469D02*
X168123971Y-68432469D01*
X168123971Y-68432469D02*
X168219209Y-68384850D01*
X168219209Y-68384850D02*
X168266828Y-68337231D01*
X168266828Y-68337231D02*
X168314447Y-68241993D01*
X168314447Y-68241993D02*
X168314447Y-68099136D01*
X168314447Y-68099136D02*
X168266828Y-68003898D01*
X168266828Y-68003898D02*
X168219209Y-67956279D01*
X168219209Y-67956279D02*
X168123971Y-67908660D01*
X168123971Y-67908660D02*
X167838257Y-67908660D01*
X167838257Y-67908660D02*
X167743019Y-67956279D01*
X167743019Y-67956279D02*
X167695400Y-68003898D01*
X167695400Y-68003898D02*
X167647780Y-68099136D01*
X167647780Y-68099136D02*
X167647780Y-68241993D01*
X168314447Y-67575326D02*
X167647780Y-67384850D01*
X167647780Y-67384850D02*
X168123971Y-67194374D01*
X168123971Y-67194374D02*
X167647780Y-67003898D01*
X167647780Y-67003898D02*
X168314447Y-66813422D01*
X167647780Y-65765802D02*
X168314447Y-65241993D01*
X168314447Y-65765802D02*
X167647780Y-65241993D01*
X168314447Y-64099135D02*
X167314447Y-64099135D01*
X168266828Y-64099135D02*
X168314447Y-64003897D01*
X168314447Y-64003897D02*
X168314447Y-63813421D01*
X168314447Y-63813421D02*
X168266828Y-63718183D01*
X168266828Y-63718183D02*
X168219209Y-63670564D01*
X168219209Y-63670564D02*
X168123971Y-63622945D01*
X168123971Y-63622945D02*
X167838257Y-63622945D01*
X167838257Y-63622945D02*
X167743019Y-63670564D01*
X167743019Y-63670564D02*
X167695400Y-63718183D01*
X167695400Y-63718183D02*
X167647780Y-63813421D01*
X167647780Y-63813421D02*
X167647780Y-64003897D01*
X167647780Y-64003897D02*
X167695400Y-64099135D01*
X167647780Y-63194373D02*
X168314447Y-63194373D01*
X168647780Y-63194373D02*
X168600161Y-63241992D01*
X168600161Y-63241992D02*
X168552542Y-63194373D01*
X168552542Y-63194373D02*
X168600161Y-63146754D01*
X168600161Y-63146754D02*
X168647780Y-63194373D01*
X168647780Y-63194373D02*
X168552542Y-63194373D01*
X167647780Y-62718183D02*
X168314447Y-62718183D01*
X168647780Y-62718183D02*
X168600161Y-62765802D01*
X168600161Y-62765802D02*
X168552542Y-62718183D01*
X168552542Y-62718183D02*
X168600161Y-62670564D01*
X168600161Y-62670564D02*
X168647780Y-62718183D01*
X168647780Y-62718183D02*
X168552542Y-62718183D01*
X168314447Y-62384850D02*
X168314447Y-62003898D01*
X168647780Y-62241993D02*
X167790638Y-62241993D01*
X167790638Y-62241993D02*
X167695400Y-62194374D01*
X167695400Y-62194374D02*
X167647780Y-62099136D01*
X167647780Y-62099136D02*
X167647780Y-62003898D01*
X168647780Y-61765802D02*
X168647780Y-61099136D01*
X168647780Y-61099136D02*
X167647780Y-61527707D01*
X167647780Y-60670564D02*
X167647780Y-60480088D01*
X167647780Y-60480088D02*
X167695400Y-60384850D01*
X167695400Y-60384850D02*
X167743019Y-60337231D01*
X167743019Y-60337231D02*
X167885876Y-60241993D01*
X167885876Y-60241993D02*
X168076352Y-60194374D01*
X168076352Y-60194374D02*
X168457304Y-60194374D01*
X168457304Y-60194374D02*
X168552542Y-60241993D01*
X168552542Y-60241993D02*
X168600161Y-60289612D01*
X168600161Y-60289612D02*
X168647780Y-60384850D01*
X168647780Y-60384850D02*
X168647780Y-60575326D01*
X168647780Y-60575326D02*
X168600161Y-60670564D01*
X168600161Y-60670564D02*
X168552542Y-60718183D01*
X168552542Y-60718183D02*
X168457304Y-60765802D01*
X168457304Y-60765802D02*
X168219209Y-60765802D01*
X168219209Y-60765802D02*
X168123971Y-60718183D01*
X168123971Y-60718183D02*
X168076352Y-60670564D01*
X168076352Y-60670564D02*
X168028733Y-60575326D01*
X168028733Y-60575326D02*
X168028733Y-60384850D01*
X168028733Y-60384850D02*
X168076352Y-60289612D01*
X168076352Y-60289612D02*
X168123971Y-60241993D01*
X168123971Y-60241993D02*
X168219209Y-60194374D01*
D14*
X206275000Y-66025000D03*
X130725000Y-56950000D03*
X206275000Y-104125000D03*
X130675000Y-95050000D03*
X103000000Y-119000000D03*
%TA.AperFunction,NonConductor*%
G36*
X176052680Y-35328456D02*
G01*
X224697928Y-46785556D01*
X224703368Y-46787711D01*
X224717543Y-46790717D01*
X224717544Y-46790718D01*
X224736290Y-46794694D01*
X224746642Y-46797354D01*
X224881722Y-46838272D01*
X224901603Y-46846195D01*
X225022957Y-46906972D01*
X225041221Y-46918155D01*
X225150525Y-46998602D01*
X225166628Y-47012712D01*
X225245317Y-47094491D01*
X225260732Y-47110511D01*
X225274217Y-47127151D01*
X225350394Y-47239470D01*
X225360865Y-47258151D01*
X225416922Y-47381751D01*
X225424078Y-47401936D01*
X225458393Y-47533244D01*
X225462027Y-47554350D01*
X225474040Y-47694612D01*
X225474500Y-47705364D01*
X225474500Y-122364567D01*
X225474489Y-122364642D01*
X225474498Y-122401872D01*
X225473951Y-122413635D01*
X225459532Y-122567813D01*
X225455163Y-122590931D01*
X225413973Y-122734040D01*
X225405383Y-122755943D01*
X225338304Y-122888903D01*
X225325792Y-122908827D01*
X225235165Y-123026997D01*
X225219167Y-123044248D01*
X225108147Y-123143513D01*
X225089223Y-123157487D01*
X224988203Y-123218393D01*
X224961686Y-123234381D01*
X224940491Y-123244594D01*
X224794800Y-123298695D01*
X224783567Y-123302278D01*
X196585059Y-130862564D01*
X187435303Y-133315700D01*
X187232020Y-133370202D01*
X187199391Y-133374500D01*
X138261452Y-133374500D01*
X138248829Y-133373866D01*
X138243950Y-133373374D01*
X138240102Y-133373745D01*
X138236306Y-133374500D01*
X138231785Y-133376373D01*
X138219882Y-133380617D01*
X94603710Y-146506056D01*
X94594210Y-146508516D01*
X94357347Y-146560094D01*
X94340785Y-146562562D01*
X94102571Y-146582000D01*
X94085828Y-146582249D01*
X93847158Y-146569927D01*
X93830530Y-146567955D01*
X93595586Y-146524093D01*
X93579367Y-146519933D01*
X93352320Y-146445308D01*
X93336802Y-146439037D01*
X93121643Y-146334956D01*
X93107092Y-146326682D01*
X92907641Y-146194996D01*
X92894312Y-146184862D01*
X92714093Y-146027900D01*
X92702224Y-146016088D01*
X92544400Y-145836603D01*
X92534207Y-145823327D01*
X92398921Y-145620520D01*
X92394520Y-145613421D01*
X92374973Y-145579419D01*
X92374805Y-145579210D01*
X90911247Y-143038992D01*
X85375764Y-133431352D01*
X83878592Y-130832791D01*
X87071007Y-130832791D01*
X87074926Y-130862562D01*
X87074927Y-130862564D01*
X87074927Y-130862565D01*
X87074928Y-130862566D01*
X94074928Y-142986922D01*
X94089946Y-143012934D01*
X94113775Y-143031218D01*
X94142788Y-143038992D01*
X94142789Y-143038991D01*
X94142791Y-143038992D01*
X94172562Y-143035073D01*
X94172563Y-143035072D01*
X94172566Y-143035072D01*
X106322934Y-136020054D01*
X106341218Y-135996225D01*
X106348992Y-135967212D01*
X106348991Y-135967209D01*
X106348992Y-135967208D01*
X106345073Y-135937437D01*
X106345072Y-135937436D01*
X106345072Y-135937434D01*
X106330054Y-135911422D01*
X106330053Y-135911421D01*
X99330054Y-123787066D01*
X99306225Y-123768782D01*
X99306222Y-123768781D01*
X99277212Y-123761008D01*
X99277208Y-123761007D01*
X99247437Y-123764926D01*
X99247435Y-123764927D01*
X87366306Y-130624500D01*
X87123078Y-130764928D01*
X87115349Y-130769390D01*
X87097066Y-130779945D01*
X87097065Y-130779946D01*
X87078782Y-130803774D01*
X87078781Y-130803777D01*
X87071008Y-130832787D01*
X87071007Y-130832791D01*
X83878592Y-130832791D01*
X82428718Y-128316323D01*
X82428319Y-128315285D01*
X82408443Y-128281102D01*
X82404700Y-128274175D01*
X82302324Y-128069693D01*
X82296173Y-128055214D01*
X82221399Y-127843268D01*
X82217107Y-127828155D01*
X82169344Y-127608547D01*
X82166966Y-127592988D01*
X82158226Y-127495215D01*
X82146955Y-127369138D01*
X82146537Y-127353427D01*
X82154592Y-127128827D01*
X82156137Y-127113178D01*
X82192133Y-126891338D01*
X82195612Y-126876019D01*
X82258995Y-126660372D01*
X82264358Y-126645606D01*
X82355144Y-126437222D01*
X82359796Y-126427671D01*
X83966327Y-123455284D01*
X108949971Y-123455284D01*
X108949972Y-123455285D01*
X108949972Y-123455288D01*
X112581213Y-137007262D01*
X112599497Y-137031090D01*
X112625509Y-137046108D01*
X112655288Y-137050029D01*
X112655288Y-137050028D01*
X112655289Y-137050029D01*
X112710375Y-137035268D01*
X112710398Y-137035260D01*
X126160368Y-133431351D01*
X126160371Y-133431351D01*
X126178247Y-133426561D01*
X126178249Y-133426562D01*
X126207261Y-133418788D01*
X126231090Y-133400504D01*
X126246108Y-133374491D01*
X126246255Y-133373375D01*
X126250029Y-133344712D01*
X126242255Y-133315700D01*
X126242254Y-133315698D01*
X126239592Y-133305764D01*
X126239587Y-133305747D01*
X125521149Y-130624500D01*
X122631351Y-119839629D01*
X122626561Y-119821752D01*
X122626562Y-119821751D01*
X122618788Y-119792739D01*
X122600504Y-119768910D01*
X122574491Y-119753892D01*
X122574490Y-119753891D01*
X122574489Y-119753891D01*
X122544723Y-119749972D01*
X122544713Y-119749972D01*
X122544712Y-119749972D01*
X122530087Y-119753891D01*
X122530083Y-119753892D01*
X109021750Y-123373439D01*
X109021749Y-123373438D01*
X108992742Y-123381211D01*
X108992738Y-123381213D01*
X108968910Y-123399496D01*
X108968910Y-123399497D01*
X108953891Y-123425511D01*
X108953890Y-123425512D01*
X108949971Y-123455284D01*
X83966327Y-123455284D01*
X86374343Y-118999996D01*
X100736654Y-118999996D01*
X100736654Y-119000003D01*
X100756016Y-119295421D01*
X100756018Y-119295435D01*
X100813776Y-119585795D01*
X100813778Y-119585805D01*
X100908938Y-119866137D01*
X100908944Y-119866151D01*
X101039883Y-120131670D01*
X101204359Y-120377827D01*
X101204361Y-120377830D01*
X101204367Y-120377838D01*
X101399573Y-120600427D01*
X101622162Y-120795633D01*
X101868327Y-120960115D01*
X102133855Y-121091059D01*
X102414203Y-121186224D01*
X102704574Y-121243983D01*
X102873388Y-121255047D01*
X102999997Y-121263346D01*
X103000000Y-121263346D01*
X103000003Y-121263346D01*
X103110784Y-121256084D01*
X103295426Y-121243983D01*
X103585797Y-121186224D01*
X103866145Y-121091059D01*
X104131673Y-120960115D01*
X104377838Y-120795633D01*
X104600427Y-120600427D01*
X104795633Y-120377838D01*
X104960115Y-120131673D01*
X105091059Y-119866145D01*
X105186224Y-119585797D01*
X105243983Y-119295426D01*
X105263346Y-119000000D01*
X105243983Y-118704574D01*
X105186224Y-118414203D01*
X105091059Y-118133855D01*
X104960115Y-117868327D01*
X104795633Y-117622162D01*
X104600427Y-117399573D01*
X104377838Y-117204367D01*
X104377830Y-117204361D01*
X104377827Y-117204359D01*
X104131670Y-117039883D01*
X103866151Y-116908944D01*
X103866145Y-116908941D01*
X103866140Y-116908939D01*
X103866137Y-116908938D01*
X103585805Y-116813778D01*
X103585799Y-116813776D01*
X103585797Y-116813776D01*
X103488566Y-116794435D01*
X103295435Y-116756018D01*
X103295421Y-116756016D01*
X103000003Y-116736654D01*
X102999997Y-116736654D01*
X102704578Y-116756016D01*
X102704564Y-116756018D01*
X102462818Y-116804105D01*
X102414203Y-116813776D01*
X102414201Y-116813776D01*
X102414194Y-116813778D01*
X102133862Y-116908938D01*
X102133848Y-116908944D01*
X101868329Y-117039883D01*
X101622172Y-117204359D01*
X101622165Y-117204364D01*
X101622162Y-117204367D01*
X101399573Y-117399573D01*
X101204367Y-117622162D01*
X101204364Y-117622165D01*
X101204359Y-117622172D01*
X101039883Y-117868329D01*
X100908944Y-118133848D01*
X100908938Y-118133862D01*
X100813778Y-118414194D01*
X100813776Y-118414204D01*
X100756018Y-118704564D01*
X100756016Y-118704578D01*
X100736654Y-118999996D01*
X86374343Y-118999996D01*
X87625574Y-116684981D01*
X132524500Y-116684981D01*
X132524500Y-130715018D01*
X132535993Y-130742766D01*
X132535996Y-130742770D01*
X132557229Y-130764003D01*
X132557233Y-130764006D01*
X132584982Y-130775500D01*
X146615018Y-130775500D01*
X146642767Y-130764006D01*
X146664006Y-130742767D01*
X146675500Y-130715018D01*
X146675500Y-116684982D01*
X146664006Y-116657233D01*
X146664003Y-116657229D01*
X146642770Y-116635996D01*
X146642766Y-116635993D01*
X146615018Y-116624500D01*
X132615018Y-116624500D01*
X132584982Y-116624500D01*
X132557233Y-116635993D01*
X132557229Y-116635996D01*
X132535996Y-116657229D01*
X132535993Y-116657233D01*
X132524500Y-116684981D01*
X87625574Y-116684981D01*
X88153088Y-115708980D01*
X88159625Y-115699529D01*
X88164070Y-115691728D01*
X88164076Y-115691723D01*
X88164078Y-115691715D01*
X88165078Y-115689962D01*
X88170163Y-115678219D01*
X88170757Y-115676292D01*
X88170760Y-115676287D01*
X88170760Y-115676281D01*
X88173408Y-115667697D01*
X88175830Y-115656457D01*
X88361537Y-115099338D01*
X88365591Y-115090632D01*
X88369838Y-115079113D01*
X88373425Y-115064412D01*
X88373573Y-115063230D01*
X88373575Y-115063227D01*
X88373574Y-115063223D01*
X88374961Y-115052223D01*
X88375374Y-115042618D01*
X88376477Y-115035644D01*
X88470842Y-114438978D01*
X88473146Y-114430808D01*
X88473077Y-114430795D01*
X88475606Y-114418083D01*
X88476940Y-114401110D01*
X88476918Y-114400563D01*
X88476919Y-114400560D01*
X88476918Y-114400556D01*
X88476429Y-114388161D01*
X88476498Y-114388158D01*
X88475500Y-114379728D01*
X88475500Y-97984781D01*
X91874500Y-97984781D01*
X91874500Y-111014818D01*
X91885993Y-111042566D01*
X91885996Y-111042570D01*
X91907229Y-111063803D01*
X91907233Y-111063806D01*
X91934982Y-111075300D01*
X107565018Y-111075300D01*
X107592767Y-111063806D01*
X107614006Y-111042567D01*
X107625500Y-111014818D01*
X107625500Y-100134981D01*
X113474500Y-100134981D01*
X113474500Y-114165018D01*
X113485993Y-114192766D01*
X113485996Y-114192770D01*
X113507229Y-114214003D01*
X113507233Y-114214006D01*
X113534982Y-114225500D01*
X127565018Y-114225500D01*
X127592767Y-114214006D01*
X127614006Y-114192767D01*
X127617231Y-114184981D01*
X151574500Y-114184981D01*
X151574500Y-128215018D01*
X151585993Y-128242766D01*
X151585996Y-128242770D01*
X151607229Y-128264003D01*
X151607233Y-128264006D01*
X151634982Y-128275500D01*
X165665018Y-128275500D01*
X165692767Y-128264006D01*
X165714006Y-128242767D01*
X165725500Y-128215018D01*
X165725500Y-116684981D01*
X170624500Y-116684981D01*
X170624500Y-130715018D01*
X170635993Y-130742766D01*
X170635996Y-130742770D01*
X170657229Y-130764003D01*
X170657233Y-130764006D01*
X170684982Y-130775500D01*
X184715018Y-130775500D01*
X184742767Y-130764006D01*
X184764006Y-130742767D01*
X184775500Y-130715018D01*
X184775500Y-116684982D01*
X184764006Y-116657233D01*
X184764003Y-116657229D01*
X184742770Y-116635996D01*
X184742766Y-116635993D01*
X184715018Y-116624500D01*
X170715018Y-116624500D01*
X170684982Y-116624500D01*
X170657233Y-116635993D01*
X170657229Y-116635996D01*
X170635996Y-116657229D01*
X170635993Y-116657233D01*
X170624500Y-116684981D01*
X165725500Y-116684981D01*
X165725500Y-114184982D01*
X165714006Y-114157233D01*
X165714003Y-114157229D01*
X165692770Y-114135996D01*
X165692766Y-114135993D01*
X165665018Y-114124500D01*
X151665018Y-114124500D01*
X151634982Y-114124500D01*
X151607233Y-114135993D01*
X151607229Y-114135996D01*
X151585996Y-114157229D01*
X151585993Y-114157233D01*
X151574500Y-114184981D01*
X127617231Y-114184981D01*
X127625500Y-114165018D01*
X127625500Y-100134982D01*
X127614006Y-100107233D01*
X127614003Y-100107229D01*
X127592770Y-100085996D01*
X127592766Y-100085993D01*
X127565018Y-100074500D01*
X113565018Y-100074500D01*
X113534982Y-100074500D01*
X113507233Y-100085993D01*
X113507229Y-100085996D01*
X113485996Y-100107229D01*
X113485993Y-100107233D01*
X113474500Y-100134981D01*
X107625500Y-100134981D01*
X107625500Y-97984782D01*
X107614006Y-97957033D01*
X107614003Y-97957029D01*
X107592770Y-97935796D01*
X107592766Y-97935793D01*
X107565018Y-97924300D01*
X91965018Y-97924300D01*
X91934982Y-97924300D01*
X91907233Y-97935793D01*
X91907229Y-97935796D01*
X91885996Y-97957029D01*
X91885993Y-97957033D01*
X91874500Y-97984781D01*
X88475500Y-97984781D01*
X88475500Y-97634981D01*
X132524500Y-97634981D01*
X132524500Y-111665018D01*
X132535993Y-111692766D01*
X132535996Y-111692770D01*
X132557229Y-111714003D01*
X132557233Y-111714006D01*
X132584982Y-111725500D01*
X146615018Y-111725500D01*
X146642767Y-111714006D01*
X146664006Y-111692767D01*
X146675500Y-111665018D01*
X146675500Y-97634982D01*
X146664006Y-97607233D01*
X146664003Y-97607229D01*
X146642770Y-97585996D01*
X146642766Y-97585993D01*
X146615018Y-97574500D01*
X132615018Y-97574500D01*
X132584982Y-97574500D01*
X132557233Y-97585993D01*
X132557229Y-97585996D01*
X132535996Y-97607229D01*
X132535993Y-97607233D01*
X132524500Y-97634981D01*
X88475500Y-97634981D01*
X88475500Y-96504105D01*
X88475979Y-96493124D01*
X88488584Y-96349043D01*
X88492398Y-96327413D01*
X88528403Y-96193040D01*
X88535908Y-96172420D01*
X88594706Y-96046328D01*
X88605676Y-96027329D01*
X88685478Y-95913359D01*
X88699581Y-95896553D01*
X88797953Y-95798181D01*
X88814759Y-95784078D01*
X88928729Y-95704276D01*
X88947728Y-95693306D01*
X89073820Y-95634508D01*
X89094440Y-95627003D01*
X89228817Y-95590997D01*
X89250439Y-95587184D01*
X89394525Y-95574579D01*
X89405506Y-95574100D01*
X110191292Y-95574100D01*
X110191294Y-95574100D01*
X110376623Y-95541421D01*
X110376628Y-95541419D01*
X110376629Y-95541419D01*
X110553454Y-95477060D01*
X110553454Y-95477059D01*
X110553462Y-95477057D01*
X110716438Y-95382963D01*
X110860598Y-95261998D01*
X110942826Y-95164003D01*
X110981558Y-95117844D01*
X110981565Y-95117835D01*
X111020731Y-95049996D01*
X111075657Y-94954862D01*
X111140021Y-94778023D01*
X111172700Y-94592694D01*
X111172700Y-94498600D01*
X111172700Y-94474069D01*
X111172700Y-81084981D01*
X113474500Y-81084981D01*
X113474500Y-95115018D01*
X113485993Y-95142766D01*
X113485996Y-95142770D01*
X113507229Y-95164003D01*
X113507233Y-95164006D01*
X113534982Y-95175500D01*
X127565018Y-95175500D01*
X127592767Y-95164006D01*
X127614006Y-95142767D01*
X127625500Y-95115018D01*
X127625500Y-95049996D01*
X128411654Y-95049996D01*
X128411654Y-95050003D01*
X128431016Y-95345421D01*
X128431018Y-95345435D01*
X128457200Y-95477057D01*
X128488520Y-95634512D01*
X128488776Y-95635795D01*
X128488778Y-95635805D01*
X128583938Y-95916137D01*
X128583944Y-95916151D01*
X128714883Y-96181670D01*
X128879359Y-96427827D01*
X128879361Y-96427830D01*
X128879367Y-96427838D01*
X129074573Y-96650427D01*
X129297162Y-96845633D01*
X129543327Y-97010115D01*
X129808855Y-97141059D01*
X130089203Y-97236224D01*
X130379574Y-97293983D01*
X130548388Y-97305047D01*
X130674997Y-97313346D01*
X130675000Y-97313346D01*
X130675003Y-97313346D01*
X130785784Y-97306084D01*
X130970426Y-97293983D01*
X131260797Y-97236224D01*
X131541145Y-97141059D01*
X131806673Y-97010115D01*
X132052838Y-96845633D01*
X132275427Y-96650427D01*
X132470633Y-96427838D01*
X132635115Y-96181673D01*
X132766059Y-95916145D01*
X132861224Y-95635797D01*
X132918983Y-95345426D01*
X132932776Y-95134981D01*
X151574500Y-95134981D01*
X151574500Y-109165018D01*
X151585993Y-109192766D01*
X151585996Y-109192770D01*
X151607229Y-109214003D01*
X151607233Y-109214006D01*
X151634982Y-109225500D01*
X165665018Y-109225500D01*
X165692767Y-109214006D01*
X165714006Y-109192767D01*
X165725500Y-109165018D01*
X165725500Y-97634981D01*
X170624500Y-97634981D01*
X170624500Y-111665018D01*
X170635993Y-111692766D01*
X170635996Y-111692770D01*
X170657229Y-111714003D01*
X170657233Y-111714006D01*
X170684982Y-111725500D01*
X184715018Y-111725500D01*
X184742767Y-111714006D01*
X184764006Y-111692767D01*
X184775500Y-111665018D01*
X184775500Y-106634981D01*
X189674500Y-106634981D01*
X189674500Y-120665018D01*
X189685993Y-120692766D01*
X189685996Y-120692770D01*
X189707229Y-120714003D01*
X189707233Y-120714006D01*
X189734982Y-120725500D01*
X203765018Y-120725500D01*
X203792767Y-120714006D01*
X203814006Y-120692767D01*
X203825500Y-120665018D01*
X203825500Y-106634982D01*
X203825500Y-106634981D01*
X208724500Y-106634981D01*
X208724500Y-120665018D01*
X208735993Y-120692766D01*
X208735996Y-120692770D01*
X208757229Y-120714003D01*
X208757233Y-120714006D01*
X208784982Y-120725500D01*
X222815018Y-120725500D01*
X222842767Y-120714006D01*
X222864006Y-120692767D01*
X222875500Y-120665018D01*
X222875500Y-106634982D01*
X222864006Y-106607233D01*
X222864003Y-106607229D01*
X222842770Y-106585996D01*
X222842766Y-106585993D01*
X222815018Y-106574500D01*
X208815018Y-106574500D01*
X208784982Y-106574500D01*
X208757233Y-106585993D01*
X208757229Y-106585996D01*
X208735996Y-106607229D01*
X208735993Y-106607233D01*
X208724500Y-106634981D01*
X203825500Y-106634981D01*
X203814006Y-106607233D01*
X203814003Y-106607229D01*
X203792770Y-106585996D01*
X203792766Y-106585993D01*
X203765018Y-106574500D01*
X189765018Y-106574500D01*
X189734982Y-106574500D01*
X189707233Y-106585993D01*
X189707229Y-106585996D01*
X189685996Y-106607229D01*
X189685993Y-106607233D01*
X189674500Y-106634981D01*
X184775500Y-106634981D01*
X184775500Y-104124996D01*
X204011654Y-104124996D01*
X204011654Y-104125003D01*
X204031016Y-104420421D01*
X204031018Y-104420435D01*
X204088776Y-104710795D01*
X204088778Y-104710805D01*
X204183938Y-104991137D01*
X204183944Y-104991151D01*
X204314883Y-105256670D01*
X204479359Y-105502827D01*
X204479361Y-105502830D01*
X204479367Y-105502838D01*
X204674573Y-105725427D01*
X204897162Y-105920633D01*
X205143327Y-106085115D01*
X205408855Y-106216059D01*
X205689203Y-106311224D01*
X205979574Y-106368983D01*
X206148388Y-106380047D01*
X206274997Y-106388346D01*
X206275000Y-106388346D01*
X206275003Y-106388346D01*
X206385784Y-106381084D01*
X206570426Y-106368983D01*
X206860797Y-106311224D01*
X207141145Y-106216059D01*
X207406673Y-106085115D01*
X207652838Y-105920633D01*
X207875427Y-105725427D01*
X208070633Y-105502838D01*
X208235115Y-105256673D01*
X208366059Y-104991145D01*
X208461224Y-104710797D01*
X208518983Y-104420426D01*
X208538346Y-104125000D01*
X208518983Y-103829574D01*
X208461224Y-103539203D01*
X208366059Y-103258855D01*
X208235115Y-102993327D01*
X208070633Y-102747162D01*
X207875427Y-102524573D01*
X207652838Y-102329367D01*
X207652830Y-102329361D01*
X207652827Y-102329359D01*
X207406670Y-102164883D01*
X207141151Y-102033944D01*
X207141145Y-102033941D01*
X207141140Y-102033939D01*
X207141137Y-102033938D01*
X206860805Y-101938778D01*
X206860799Y-101938776D01*
X206860797Y-101938776D01*
X206763566Y-101919435D01*
X206570435Y-101881018D01*
X206570421Y-101881016D01*
X206275003Y-101861654D01*
X206274997Y-101861654D01*
X205979578Y-101881016D01*
X205979564Y-101881018D01*
X205737818Y-101929105D01*
X205689203Y-101938776D01*
X205689201Y-101938776D01*
X205689194Y-101938778D01*
X205408862Y-102033938D01*
X205408848Y-102033944D01*
X205143329Y-102164883D01*
X204897172Y-102329359D01*
X204897165Y-102329364D01*
X204897162Y-102329367D01*
X204674573Y-102524573D01*
X204479367Y-102747162D01*
X204479364Y-102747165D01*
X204479359Y-102747172D01*
X204314883Y-102993329D01*
X204183944Y-103258848D01*
X204183938Y-103258862D01*
X204088778Y-103539194D01*
X204088776Y-103539204D01*
X204031018Y-103829564D01*
X204031016Y-103829578D01*
X204011654Y-104124996D01*
X184775500Y-104124996D01*
X184775500Y-97634982D01*
X184764006Y-97607233D01*
X184764003Y-97607229D01*
X184742770Y-97585996D01*
X184742766Y-97585993D01*
X184715018Y-97574500D01*
X170715018Y-97574500D01*
X170684982Y-97574500D01*
X170657233Y-97585993D01*
X170657229Y-97585996D01*
X170635996Y-97607229D01*
X170635993Y-97607233D01*
X170624500Y-97634981D01*
X165725500Y-97634981D01*
X165725500Y-95134982D01*
X165718397Y-95117835D01*
X165714006Y-95107233D01*
X165714003Y-95107229D01*
X165692770Y-95085996D01*
X165692766Y-95085993D01*
X165665018Y-95074500D01*
X151665018Y-95074500D01*
X151634982Y-95074500D01*
X151607233Y-95085993D01*
X151607229Y-95085996D01*
X151585996Y-95107229D01*
X151585993Y-95107233D01*
X151574500Y-95134981D01*
X132932776Y-95134981D01*
X132938346Y-95050000D01*
X132918983Y-94754574D01*
X132861224Y-94464203D01*
X132766059Y-94183855D01*
X132635115Y-93918327D01*
X132470633Y-93672162D01*
X132275427Y-93449573D01*
X132052838Y-93254367D01*
X132052830Y-93254361D01*
X132052827Y-93254359D01*
X131825981Y-93102786D01*
X147922491Y-93102786D01*
X150482674Y-93102786D01*
X150482674Y-76084981D01*
X151574500Y-76084981D01*
X151574500Y-90115018D01*
X151585993Y-90142766D01*
X151585996Y-90142770D01*
X151607229Y-90164003D01*
X151607233Y-90164006D01*
X151634982Y-90175500D01*
X165665018Y-90175500D01*
X165692767Y-90164006D01*
X165714006Y-90142767D01*
X165725500Y-90115018D01*
X165725500Y-88428071D01*
X166699802Y-88428071D01*
X169262425Y-88428071D01*
X169262425Y-78584981D01*
X170624500Y-78584981D01*
X170624500Y-92615018D01*
X170635993Y-92642766D01*
X170635996Y-92642770D01*
X170657229Y-92664003D01*
X170657233Y-92664006D01*
X170684982Y-92675500D01*
X184715018Y-92675500D01*
X184742767Y-92664006D01*
X184764006Y-92642767D01*
X184775500Y-92615018D01*
X184775500Y-87584981D01*
X189674500Y-87584981D01*
X189674500Y-101615018D01*
X189685993Y-101642766D01*
X189685996Y-101642770D01*
X189707229Y-101664003D01*
X189707233Y-101664006D01*
X189734982Y-101675500D01*
X203765018Y-101675500D01*
X203792767Y-101664006D01*
X203814006Y-101642767D01*
X203825500Y-101615018D01*
X203825500Y-87584982D01*
X203825500Y-87584981D01*
X208724500Y-87584981D01*
X208724500Y-101615018D01*
X208735993Y-101642766D01*
X208735996Y-101642770D01*
X208757229Y-101664003D01*
X208757233Y-101664006D01*
X208784982Y-101675500D01*
X222815018Y-101675500D01*
X222842767Y-101664006D01*
X222864006Y-101642767D01*
X222875500Y-101615018D01*
X222875500Y-87584982D01*
X222864006Y-87557233D01*
X222864003Y-87557229D01*
X222842770Y-87535996D01*
X222842766Y-87535993D01*
X222815018Y-87524500D01*
X208815018Y-87524500D01*
X208784982Y-87524500D01*
X208757233Y-87535993D01*
X208757229Y-87535996D01*
X208735996Y-87557229D01*
X208735993Y-87557233D01*
X208724500Y-87584981D01*
X203825500Y-87584981D01*
X203814006Y-87557233D01*
X203814003Y-87557229D01*
X203792770Y-87535996D01*
X203792766Y-87535993D01*
X203765018Y-87524500D01*
X189765018Y-87524500D01*
X189734982Y-87524500D01*
X189707233Y-87535993D01*
X189707229Y-87535996D01*
X189685996Y-87557229D01*
X189685993Y-87557233D01*
X189674500Y-87584981D01*
X184775500Y-87584981D01*
X184775500Y-78584982D01*
X184764006Y-78557233D01*
X184764003Y-78557229D01*
X184742770Y-78535996D01*
X184742766Y-78535993D01*
X184715018Y-78524500D01*
X170715018Y-78524500D01*
X170684982Y-78524500D01*
X170657233Y-78535993D01*
X170657229Y-78535996D01*
X170635996Y-78557229D01*
X170635993Y-78557233D01*
X170624500Y-78584981D01*
X169262425Y-78584981D01*
X169262425Y-59579090D01*
X166699802Y-59579090D01*
X166699802Y-88428071D01*
X165725500Y-88428071D01*
X165725500Y-76084982D01*
X165714006Y-76057233D01*
X165714003Y-76057229D01*
X165692770Y-76035996D01*
X165692766Y-76035993D01*
X165665018Y-76024500D01*
X151665018Y-76024500D01*
X151634982Y-76024500D01*
X151607233Y-76035993D01*
X151607229Y-76035996D01*
X151585996Y-76057229D01*
X151585993Y-76057233D01*
X151574500Y-76084981D01*
X150482674Y-76084981D01*
X150482674Y-57034981D01*
X151574500Y-57034981D01*
X151574500Y-71065018D01*
X151585993Y-71092766D01*
X151585996Y-71092770D01*
X151607229Y-71114003D01*
X151607233Y-71114006D01*
X151634982Y-71125500D01*
X165665018Y-71125500D01*
X165692767Y-71114006D01*
X165714006Y-71092767D01*
X165725500Y-71065018D01*
X165725500Y-59534981D01*
X170624500Y-59534981D01*
X170624500Y-73565018D01*
X170635993Y-73592766D01*
X170635996Y-73592770D01*
X170657229Y-73614003D01*
X170657233Y-73614006D01*
X170684982Y-73625500D01*
X184715018Y-73625500D01*
X184742767Y-73614006D01*
X184764006Y-73592767D01*
X184775500Y-73565018D01*
X184775500Y-68534981D01*
X189674500Y-68534981D01*
X189674500Y-82565018D01*
X189685993Y-82592766D01*
X189685996Y-82592770D01*
X189707229Y-82614003D01*
X189707233Y-82614006D01*
X189734982Y-82625500D01*
X203765018Y-82625500D01*
X203792767Y-82614006D01*
X203814006Y-82592767D01*
X203825500Y-82565018D01*
X203825500Y-68534982D01*
X203825500Y-68534981D01*
X208724500Y-68534981D01*
X208724500Y-82565018D01*
X208735993Y-82592766D01*
X208735996Y-82592770D01*
X208757229Y-82614003D01*
X208757233Y-82614006D01*
X208784982Y-82625500D01*
X222815018Y-82625500D01*
X222842767Y-82614006D01*
X222864006Y-82592767D01*
X222875500Y-82565018D01*
X222875500Y-68534982D01*
X222864006Y-68507233D01*
X222864003Y-68507229D01*
X222842770Y-68485996D01*
X222842766Y-68485993D01*
X222815018Y-68474500D01*
X208815018Y-68474500D01*
X208784982Y-68474500D01*
X208757233Y-68485993D01*
X208757229Y-68485996D01*
X208735996Y-68507229D01*
X208735993Y-68507233D01*
X208724500Y-68534981D01*
X203825500Y-68534981D01*
X203814006Y-68507233D01*
X203814003Y-68507229D01*
X203792770Y-68485996D01*
X203792766Y-68485993D01*
X203765018Y-68474500D01*
X189765018Y-68474500D01*
X189734982Y-68474500D01*
X189707233Y-68485993D01*
X189707229Y-68485996D01*
X189685996Y-68507229D01*
X189685993Y-68507233D01*
X189674500Y-68534981D01*
X184775500Y-68534981D01*
X184775500Y-66024996D01*
X204011654Y-66024996D01*
X204011654Y-66025003D01*
X204031016Y-66320421D01*
X204031018Y-66320435D01*
X204088776Y-66610795D01*
X204088778Y-66610805D01*
X204183938Y-66891137D01*
X204183944Y-66891151D01*
X204314883Y-67156670D01*
X204479359Y-67402827D01*
X204479361Y-67402830D01*
X204479367Y-67402838D01*
X204674573Y-67625427D01*
X204897162Y-67820633D01*
X205143327Y-67985115D01*
X205408855Y-68116059D01*
X205689203Y-68211224D01*
X205979574Y-68268983D01*
X206148388Y-68280047D01*
X206274997Y-68288346D01*
X206275000Y-68288346D01*
X206275003Y-68288346D01*
X206385784Y-68281084D01*
X206570426Y-68268983D01*
X206860797Y-68211224D01*
X207141145Y-68116059D01*
X207406673Y-67985115D01*
X207652838Y-67820633D01*
X207875427Y-67625427D01*
X208070633Y-67402838D01*
X208235115Y-67156673D01*
X208366059Y-66891145D01*
X208461224Y-66610797D01*
X208518983Y-66320426D01*
X208538346Y-66025000D01*
X208518983Y-65729574D01*
X208461224Y-65439203D01*
X208366059Y-65158855D01*
X208235115Y-64893327D01*
X208070633Y-64647162D01*
X207875427Y-64424573D01*
X207652838Y-64229367D01*
X207652830Y-64229361D01*
X207652827Y-64229359D01*
X207406670Y-64064883D01*
X207141151Y-63933944D01*
X207141145Y-63933941D01*
X207141140Y-63933939D01*
X207141137Y-63933938D01*
X206860805Y-63838778D01*
X206860799Y-63838776D01*
X206860797Y-63838776D01*
X206763566Y-63819435D01*
X206570435Y-63781018D01*
X206570421Y-63781016D01*
X206275003Y-63761654D01*
X206274997Y-63761654D01*
X205979578Y-63781016D01*
X205979564Y-63781018D01*
X205737818Y-63829105D01*
X205689203Y-63838776D01*
X205689201Y-63838776D01*
X205689194Y-63838778D01*
X205408862Y-63933938D01*
X205408848Y-63933944D01*
X205143329Y-64064883D01*
X204897172Y-64229359D01*
X204897165Y-64229364D01*
X204897162Y-64229367D01*
X204674573Y-64424573D01*
X204479367Y-64647162D01*
X204479364Y-64647165D01*
X204479359Y-64647172D01*
X204314883Y-64893329D01*
X204183944Y-65158848D01*
X204183938Y-65158862D01*
X204088778Y-65439194D01*
X204088776Y-65439204D01*
X204031018Y-65729564D01*
X204031016Y-65729578D01*
X204011654Y-66024996D01*
X184775500Y-66024996D01*
X184775500Y-59534982D01*
X184764006Y-59507233D01*
X184764003Y-59507229D01*
X184742770Y-59485996D01*
X184742766Y-59485993D01*
X184715018Y-59474500D01*
X170715018Y-59474500D01*
X170684982Y-59474500D01*
X170657233Y-59485993D01*
X170657229Y-59485996D01*
X170635996Y-59507229D01*
X170635993Y-59507233D01*
X170624500Y-59534981D01*
X165725500Y-59534981D01*
X165725500Y-57034982D01*
X165714006Y-57007233D01*
X165714003Y-57007229D01*
X165692770Y-56985996D01*
X165692766Y-56985993D01*
X165665018Y-56974500D01*
X151665018Y-56974500D01*
X151634982Y-56974500D01*
X151607233Y-56985993D01*
X151607229Y-56985996D01*
X151585996Y-57007229D01*
X151585993Y-57007233D01*
X151574500Y-57034981D01*
X150482674Y-57034981D01*
X150482674Y-56352982D01*
X147922491Y-56352982D01*
X147922491Y-93102786D01*
X131825981Y-93102786D01*
X131806670Y-93089883D01*
X131541151Y-92958944D01*
X131541145Y-92958941D01*
X131541140Y-92958939D01*
X131541137Y-92958938D01*
X131260805Y-92863778D01*
X131260799Y-92863776D01*
X131260797Y-92863776D01*
X131163566Y-92844435D01*
X130970435Y-92806018D01*
X130970421Y-92806016D01*
X130675003Y-92786654D01*
X130674997Y-92786654D01*
X130379578Y-92806016D01*
X130379564Y-92806018D01*
X130137818Y-92854105D01*
X130089203Y-92863776D01*
X130089201Y-92863776D01*
X130089194Y-92863778D01*
X129808862Y-92958938D01*
X129808848Y-92958944D01*
X129543329Y-93089883D01*
X129297172Y-93254359D01*
X129297165Y-93254364D01*
X129297162Y-93254367D01*
X129074573Y-93449573D01*
X128879367Y-93672162D01*
X128879364Y-93672165D01*
X128879359Y-93672172D01*
X128714883Y-93918329D01*
X128583944Y-94183848D01*
X128583938Y-94183862D01*
X128488778Y-94464194D01*
X128488776Y-94464204D01*
X128431018Y-94754564D01*
X128431016Y-94754578D01*
X128411654Y-95049996D01*
X127625500Y-95049996D01*
X127625500Y-89615285D01*
X128699802Y-89615285D01*
X131262425Y-89615285D01*
X131262425Y-78584981D01*
X132524500Y-78584981D01*
X132524500Y-92615018D01*
X132535993Y-92642766D01*
X132535996Y-92642770D01*
X132557229Y-92664003D01*
X132557233Y-92664006D01*
X132584982Y-92675500D01*
X146615018Y-92675500D01*
X146642767Y-92664006D01*
X146664006Y-92642767D01*
X146675500Y-92615018D01*
X146675500Y-78584982D01*
X146664006Y-78557233D01*
X146664003Y-78557229D01*
X146642770Y-78535996D01*
X146642766Y-78535993D01*
X146615018Y-78524500D01*
X132615018Y-78524500D01*
X132584982Y-78524500D01*
X132557233Y-78535993D01*
X132557229Y-78535996D01*
X132535996Y-78557229D01*
X132535993Y-78557233D01*
X132524500Y-78584981D01*
X131262425Y-78584981D01*
X131262425Y-62384740D01*
X128699802Y-62384740D01*
X128699802Y-89615285D01*
X127625500Y-89615285D01*
X127625500Y-81084982D01*
X127614006Y-81057233D01*
X127614003Y-81057229D01*
X127592770Y-81035996D01*
X127592766Y-81035993D01*
X127565018Y-81024500D01*
X113565018Y-81024500D01*
X113534982Y-81024500D01*
X113507233Y-81035993D01*
X113507229Y-81035996D01*
X113485996Y-81057229D01*
X113485993Y-81057233D01*
X113474500Y-81084981D01*
X111172700Y-81084981D01*
X111172700Y-62034981D01*
X113474500Y-62034981D01*
X113474500Y-76065018D01*
X113485993Y-76092766D01*
X113485996Y-76092770D01*
X113507229Y-76114003D01*
X113507233Y-76114006D01*
X113534982Y-76125500D01*
X127565018Y-76125500D01*
X127592767Y-76114006D01*
X127614006Y-76092767D01*
X127625500Y-76065018D01*
X127625500Y-62034982D01*
X127614006Y-62007233D01*
X127614003Y-62007229D01*
X127592770Y-61985996D01*
X127592766Y-61985993D01*
X127565018Y-61974500D01*
X113565018Y-61974500D01*
X113534982Y-61974500D01*
X113507233Y-61985993D01*
X113507229Y-61985996D01*
X113485996Y-62007229D01*
X113485993Y-62007233D01*
X113474500Y-62034981D01*
X111172700Y-62034981D01*
X111172700Y-59534981D01*
X132524500Y-59534981D01*
X132524500Y-73565018D01*
X132535993Y-73592766D01*
X132535996Y-73592770D01*
X132557229Y-73614003D01*
X132557233Y-73614006D01*
X132584982Y-73625500D01*
X146615018Y-73625500D01*
X146642767Y-73614006D01*
X146664006Y-73592767D01*
X146675500Y-73565018D01*
X146675500Y-59534982D01*
X146664006Y-59507233D01*
X146664003Y-59507229D01*
X146642770Y-59485996D01*
X146642766Y-59485993D01*
X146615018Y-59474500D01*
X132615018Y-59474500D01*
X132584982Y-59474500D01*
X132557233Y-59485993D01*
X132557229Y-59485996D01*
X132535996Y-59507229D01*
X132535993Y-59507233D01*
X132524500Y-59534981D01*
X111172700Y-59534981D01*
X111172700Y-42984981D01*
X113474500Y-42984981D01*
X113474500Y-57015018D01*
X113485993Y-57042766D01*
X113485996Y-57042770D01*
X113507229Y-57064003D01*
X113507233Y-57064006D01*
X113534982Y-57075500D01*
X127565018Y-57075500D01*
X127592767Y-57064006D01*
X127614006Y-57042767D01*
X127625500Y-57015018D01*
X127625500Y-56949996D01*
X128461654Y-56949996D01*
X128461654Y-56950003D01*
X128481016Y-57245421D01*
X128481018Y-57245435D01*
X128538776Y-57535795D01*
X128538778Y-57535805D01*
X128633938Y-57816137D01*
X128633944Y-57816151D01*
X128764883Y-58081670D01*
X128929359Y-58327827D01*
X128929361Y-58327830D01*
X128929367Y-58327838D01*
X129124573Y-58550427D01*
X129347162Y-58745633D01*
X129593327Y-58910115D01*
X129858855Y-59041059D01*
X130139203Y-59136224D01*
X130429574Y-59193983D01*
X130598388Y-59205047D01*
X130724997Y-59213346D01*
X130725000Y-59213346D01*
X130725003Y-59213346D01*
X130835784Y-59206084D01*
X131020426Y-59193983D01*
X131310797Y-59136224D01*
X131591145Y-59041059D01*
X131856673Y-58910115D01*
X132102838Y-58745633D01*
X132325427Y-58550427D01*
X132520633Y-58327838D01*
X132685115Y-58081673D01*
X132816059Y-57816145D01*
X132911224Y-57535797D01*
X132968983Y-57245426D01*
X132988346Y-56950000D01*
X132968983Y-56654574D01*
X132911224Y-56364203D01*
X132816059Y-56083855D01*
X132685115Y-55818327D01*
X132520633Y-55572162D01*
X132325427Y-55349573D01*
X132102838Y-55154367D01*
X132102830Y-55154361D01*
X132102827Y-55154359D01*
X131856670Y-54989883D01*
X131591151Y-54858944D01*
X131591145Y-54858941D01*
X131591140Y-54858939D01*
X131591137Y-54858938D01*
X131310805Y-54763778D01*
X131310799Y-54763776D01*
X131310797Y-54763776D01*
X131213566Y-54744435D01*
X131020435Y-54706018D01*
X131020421Y-54706016D01*
X130725003Y-54686654D01*
X130724997Y-54686654D01*
X130429578Y-54706016D01*
X130429564Y-54706018D01*
X130187818Y-54754105D01*
X130139203Y-54763776D01*
X130139201Y-54763776D01*
X130139194Y-54763778D01*
X129858862Y-54858938D01*
X129858848Y-54858944D01*
X129593329Y-54989883D01*
X129347172Y-55154359D01*
X129347165Y-55154364D01*
X129347162Y-55154367D01*
X129124573Y-55349573D01*
X128929367Y-55572162D01*
X128929364Y-55572165D01*
X128929359Y-55572172D01*
X128764883Y-55818329D01*
X128633944Y-56083848D01*
X128633938Y-56083862D01*
X128538778Y-56364194D01*
X128538776Y-56364204D01*
X128481018Y-56654564D01*
X128481016Y-56654578D01*
X128461654Y-56949996D01*
X127625500Y-56949996D01*
X127625500Y-42984982D01*
X127614006Y-42957233D01*
X127614003Y-42957229D01*
X127592770Y-42935996D01*
X127592766Y-42935993D01*
X127565018Y-42924500D01*
X113565018Y-42924500D01*
X113534982Y-42924500D01*
X113507233Y-42935993D01*
X113507229Y-42935996D01*
X113485996Y-42957229D01*
X113485993Y-42957233D01*
X113474500Y-42984981D01*
X111172700Y-42984981D01*
X111172700Y-40484981D01*
X132524500Y-40484981D01*
X132524500Y-54515018D01*
X132535993Y-54542766D01*
X132535996Y-54542770D01*
X132557229Y-54564003D01*
X132557233Y-54564006D01*
X132584982Y-54575500D01*
X146615018Y-54575500D01*
X146642767Y-54564006D01*
X146664006Y-54542767D01*
X146675500Y-54515018D01*
X146675500Y-40484982D01*
X146664006Y-40457233D01*
X146664003Y-40457229D01*
X146642770Y-40435996D01*
X146642766Y-40435993D01*
X146615018Y-40424500D01*
X132615018Y-40424500D01*
X132584982Y-40424500D01*
X132557233Y-40435993D01*
X132557229Y-40435996D01*
X132535996Y-40457229D01*
X132535993Y-40457233D01*
X132524500Y-40484981D01*
X111172700Y-40484981D01*
X111172700Y-37984981D01*
X151574500Y-37984981D01*
X151574500Y-52015018D01*
X151585993Y-52042766D01*
X151585996Y-52042770D01*
X151607229Y-52064003D01*
X151607233Y-52064006D01*
X151634982Y-52075500D01*
X165665018Y-52075500D01*
X165692767Y-52064006D01*
X165714006Y-52042767D01*
X165725500Y-52015018D01*
X165725500Y-40484981D01*
X170624500Y-40484981D01*
X170624500Y-54515018D01*
X170635993Y-54542766D01*
X170635996Y-54542770D01*
X170657229Y-54564003D01*
X170657233Y-54564006D01*
X170684982Y-54575500D01*
X184715018Y-54575500D01*
X184742767Y-54564006D01*
X184764006Y-54542767D01*
X184775500Y-54515018D01*
X184775500Y-49484981D01*
X189674500Y-49484981D01*
X189674500Y-63515018D01*
X189685993Y-63542766D01*
X189685996Y-63542770D01*
X189707229Y-63564003D01*
X189707233Y-63564006D01*
X189734982Y-63575500D01*
X203765018Y-63575500D01*
X203792767Y-63564006D01*
X203814006Y-63542767D01*
X203825500Y-63515018D01*
X203825500Y-49484982D01*
X203825500Y-49484981D01*
X208724500Y-49484981D01*
X208724500Y-63515018D01*
X208735993Y-63542766D01*
X208735996Y-63542770D01*
X208757229Y-63564003D01*
X208757233Y-63564006D01*
X208784982Y-63575500D01*
X222815018Y-63575500D01*
X222842767Y-63564006D01*
X222864006Y-63542767D01*
X222875500Y-63515018D01*
X222875500Y-49484982D01*
X222864006Y-49457233D01*
X222864003Y-49457229D01*
X222842770Y-49435996D01*
X222842766Y-49435993D01*
X222815018Y-49424500D01*
X208815018Y-49424500D01*
X208784982Y-49424500D01*
X208757233Y-49435993D01*
X208757229Y-49435996D01*
X208735996Y-49457229D01*
X208735993Y-49457233D01*
X208724500Y-49484981D01*
X203825500Y-49484981D01*
X203814006Y-49457233D01*
X203814003Y-49457229D01*
X203792770Y-49435996D01*
X203792766Y-49435993D01*
X203765018Y-49424500D01*
X189765018Y-49424500D01*
X189734982Y-49424500D01*
X189707233Y-49435993D01*
X189707229Y-49435996D01*
X189685996Y-49457229D01*
X189685993Y-49457233D01*
X189674500Y-49484981D01*
X184775500Y-49484981D01*
X184775500Y-40484982D01*
X184764006Y-40457233D01*
X184764003Y-40457229D01*
X184742770Y-40435996D01*
X184742766Y-40435993D01*
X184715018Y-40424500D01*
X170715018Y-40424500D01*
X170684982Y-40424500D01*
X170657233Y-40435993D01*
X170657229Y-40435996D01*
X170635996Y-40457229D01*
X170635993Y-40457233D01*
X170624500Y-40484981D01*
X165725500Y-40484981D01*
X165725500Y-37984982D01*
X165714006Y-37957233D01*
X165714003Y-37957229D01*
X165692770Y-37935996D01*
X165692766Y-37935993D01*
X165665018Y-37924500D01*
X151665018Y-37924500D01*
X151634982Y-37924500D01*
X151607233Y-37935993D01*
X151607229Y-37935996D01*
X151585996Y-37957229D01*
X151585993Y-37957233D01*
X151574500Y-37984981D01*
X111172700Y-37984981D01*
X111172700Y-37609662D01*
X111173277Y-37597616D01*
X111174146Y-37588573D01*
X111188401Y-37440151D01*
X111192961Y-37416588D01*
X111235988Y-37270623D01*
X111244936Y-37248355D01*
X111314876Y-37113210D01*
X111327889Y-37093041D01*
X111422202Y-36973622D01*
X111438799Y-36956297D01*
X111554062Y-36856939D01*
X111573652Y-36843072D01*
X111705672Y-36767391D01*
X111727534Y-36757495D01*
X111871503Y-36708243D01*
X111894864Y-36702671D01*
X112051256Y-36680837D01*
X112064046Y-36679713D01*
X149096294Y-35325183D01*
X149100900Y-35325100D01*
X176023794Y-35325100D01*
X176052680Y-35328456D01*
G37*
%TD.AperFunction*%
M02*
