  0
SECTION
  2
HEADER
  9
$ANGBASE
  50
0.0
  9
$ANGDIR
  70
1
  9
$MEASUREMENT
  70
1
  0
ENDSEC
  0
SECTION
  2
TABLES
  0
TABLE
  2
LTYPE
  70
4
  0
LTYPE
  5
40F
  2
CONTINUOUS
  70
0
  3
Solid line
  72
65
  73
0
  40
0.0
  0
LTYPE
  5
410
  2
DASHDOT
 70
0
  3
Dash Dot ____ _ ____ _
 72
65
 73
4
 40
2.0
 49
1.25
 49
-0.25
 49
0.25
 49
-0.25
  0
LTYPE
  5
411
  2
DASHED
 70
0
  3
Dashed __ __ __ __ __
 72
65
 73
2
 40
0.75
 49
0.5
 49
-0.25
  0
LTYPE
  5
43B
  2
DOTTED
 70
0
  3
Dotted .  .  .  .
 72
65
 73
2
 40
0.2
 49
0.0
 49
-0.2
  0
ENDTAB
  0
TABLE
  2
STYLE
  70
4
  0
STYLE
  2
KICAD
  70
0
  40
0
  41
1
  42
1
  50
0
  71
0
  3
isocp.shx
  0
STYLE
  2
KICADB
  70
0
  40
0
  41
1
  42
1
  50
0
  71
0
  3
isocp.shx
  0
STYLE
  2
KICADI
  70
0
  40
0
  41
1
  42
1
  50
15
  71
0
  3
isocp.shx
  0
STYLE
  2
KICADBI
  70
0
  40
0
  41
1
  42
1
  50
15
  71
0
  3
isocp.shx
  0
ENDTAB
  0
TABLE
  2
LAYER
  70
1
  0
LAYER
  2
BLACK
  70
0
  62
7
  6
CONTINUOUS
  0
ENDTAB
  0
ENDSEC
  0
SECTION
  2
ENTITIES
0
LINE
8
BLACK
6
CONTINUOUS
10
92.3314359999999965
20
-145.6551709999999957
11
82.3411919999999924
21
-128.3156439999999918
0
LINE
8
BLACK
6
CONTINUOUS
10
88.3999999999999915
20
-114.4035999999999973
11
88.2971999999999895
21
-115.0535999999999888
0
LINE
8
BLACK
6
CONTINUOUS
10
88.2971999999999895
20
-115.0535999999999888
11
88.0972000000000008
21
-115.6535999999999973
0
LINE
8
BLACK
6
CONTINUOUS
10
82.2900559999999928
20
-126.3979169999999925
11
88.0972000000000008
21
-115.6535999999999973
0
LINE
8
BLACK
6
CONTINUOUS
10
149.0971999999999866
20
-35.2496000000000009
11
112.054239999999993
21
-36.6045230000000004
0
LINE
8
BLACK
6
CONTINUOUS
10
138.2513280000000009
20
-133.4499999999999886
11
187.2249999999999943
21
-133.4499999999999886
0
LINE
8
BLACK
6
CONTINUOUS
10
138.2513280000000009
20
-133.4499999999999886
11
94.6199999999999903
21
-146.5799999999999841
0
LINE
8
BLACK
6
CONTINUOUS
10
149.0971999999999866
20
-35.2496000000000009
11
176.0472000000000037
21
-35.2496000000000009
0
LINE
8
BLACK
6
CONTINUOUS
10
88.3999999999999915
20
-114.4035999999999973
11
88.3999999999999915
21
-96.4985999999999962
0
LINE
8
BLACK
6
CONTINUOUS
10
91.9500000000000028
20
-110.9997999999999934
11
107.5499999999999972
21
-110.9997999999999934
0
LINE
8
BLACK
6
CONTINUOUS
10
224.809379999999976
20
-123.3735250000000008
11
187.2249999999999943
21
-133.4502499999999827
0
LINE
8
BLACK
6
CONTINUOUS
10
89.3999999999999915
20
-95.4985999999999962
11
110.0972000000000008
21
-95.4985999999999962
0
LINE
8
BLACK
6
CONTINUOUS
10
176.0472000000000037
20
-35.2496000000000009
11
224.7572089999999889
21
-46.7219529999999992
0
ARC
8
BLACK
10
110.0972000000000008
20
-94.4985999999999962
40
1.
50
-90.00000000
51
-0.00000000
0
ARC
8
BLACK
10
224.5495999999999981
20
-47.7005999999999943
40
1.0004256331632051
50
0.02004550
51
78.02290325
0
LINE
8
BLACK
6
CONTINUOUS
10
91.9500000000000028
20
-97.9997999999999934
11
91.9500000000000028
21
-110.9997999999999934
0
LINE
8
BLACK
6
CONTINUOUS
10
107.5499999999999972
20
-97.9997999999999934
11
91.9500000000000028
21
-97.9997999999999934
0
LINE
8
BLACK
6
CONTINUOUS
10
107.5499999999999972
20
-110.9997999999999934
11
107.5499999999999972
21
-97.9997999999999934
0
LINE
8
BLACK
6
CONTINUOUS
10
225.5499999999999829
20
-47.7002499999999969
11
225.5499999999999829
21
-122.407749999999993
0
ARC
8
BLACK
10
89.3999999999999915
20
-96.4985999999999962
40
1.
50
90.00000000
51
180.00000000
0
ARC
8
BLACK
10
84.0707000000000022
20
-127.3099999999999881
40
2.0006293451811605
50
-207.12247157
51
-149.82360568
0
ARC
8
BLACK
10
224.5503999999999962
20
-122.4080000000000013
40
0.9996000312625045
50
-74.98514312
51
0.01432968
0
ARC
8
BLACK
10
94.0655000000000001
20
-144.6581999999999937
40
2.0001963628604065
50
-150.10397372
51
-73.90547865
0
ARC
8
BLACK
10
112.0974999999999966
20
-37.6038999999999959
40
1.0003000449865029
50
92.47861322
51
179.98281642
0
LINE
8
BLACK
6
CONTINUOUS
10
111.0972000000000008
20
-94.4985999999999962
11
111.0972000000000008
21
-37.6036000000000001
0
LINE
8
BLACK
6
CONTINUOUS
10
208.7999999999999829
20
-63.5
11
222.7999999999999829
21
-63.5
0
LINE
8
BLACK
6
CONTINUOUS
10
222.7999999999999829
20
-49.5
11
208.7999999999999829
21
-49.5
0
LINE
8
BLACK
6
CONTINUOUS
10
222.7999999999999829
20
-63.5
11
222.7999999999999829
21
-49.5
0
LINE
8
BLACK
6
CONTINUOUS
10
208.7999999999999829
20
-49.5
11
208.7999999999999829
21
-63.5
0
LINE
8
BLACK
6
CONTINUOUS
10
189.75
20
-49.5
11
189.75
21
-63.5
0
LINE
8
BLACK
6
CONTINUOUS
10
203.75
20
-63.5
11
203.75
21
-49.5
0
LINE
8
BLACK
6
CONTINUOUS
10
203.75
20
-49.5
11
189.75
21
-49.5
0
LINE
8
BLACK
6
CONTINUOUS
10
189.75
20
-63.5
11
203.75
21
-63.5
0
LINE
8
BLACK
6
CONTINUOUS
10
189.75
20
-82.5499999999999972
11
203.75
21
-82.5499999999999972
0
LINE
8
BLACK
6
CONTINUOUS
10
203.75
20
-68.5499999999999972
11
189.75
21
-68.5499999999999972
0
LINE
8
BLACK
6
CONTINUOUS
10
189.75
20
-68.5499999999999972
11
189.75
21
-82.5499999999999972
0
LINE
8
BLACK
6
CONTINUOUS
10
203.75
20
-82.5499999999999972
11
203.75
21
-68.5499999999999972
0
LINE
8
BLACK
6
CONTINUOUS
10
208.7999999999999829
20
-68.5499999999999972
11
208.7999999999999829
21
-82.5499999999999972
0
LINE
8
BLACK
6
CONTINUOUS
10
222.7999999999999829
20
-68.5499999999999972
11
208.7999999999999829
21
-68.5499999999999972
0
LINE
8
BLACK
6
CONTINUOUS
10
222.7999999999999829
20
-82.5499999999999972
11
222.7999999999999829
21
-68.5499999999999972
0
LINE
8
BLACK
6
CONTINUOUS
10
208.7999999999999829
20
-82.5499999999999972
11
222.7999999999999829
21
-82.5499999999999972
0
LINE
8
BLACK
6
CONTINUOUS
10
189.75
20
-87.5999999999999943
11
189.75
21
-101.5999999999999943
0
LINE
8
BLACK
6
CONTINUOUS
10
203.75
20
-101.5999999999999943
11
203.75
21
-87.5999999999999943
0
LINE
8
BLACK
6
CONTINUOUS
10
189.75
20
-101.5999999999999943
11
203.75
21
-101.5999999999999943
0
LINE
8
BLACK
6
CONTINUOUS
10
203.75
20
-87.5999999999999943
11
189.75
21
-87.5999999999999943
0
LINE
8
BLACK
6
CONTINUOUS
10
222.7999999999999829
20
-101.5999999999999943
11
222.7999999999999829
21
-87.5999999999999943
0
LINE
8
BLACK
6
CONTINUOUS
10
208.7999999999999829
20
-101.5999999999999943
11
222.7999999999999829
21
-101.5999999999999943
0
LINE
8
BLACK
6
CONTINUOUS
10
208.7999999999999829
20
-87.5999999999999943
11
208.7999999999999829
21
-101.5999999999999943
0
LINE
8
BLACK
6
CONTINUOUS
10
222.7999999999999829
20
-87.5999999999999943
11
208.7999999999999829
21
-87.5999999999999943
0
LINE
8
BLACK
6
CONTINUOUS
10
203.75
20
-120.6499999999999915
11
203.75
21
-106.6499999999999915
0
LINE
8
BLACK
6
CONTINUOUS
10
203.75
20
-106.6499999999999915
11
189.75
21
-106.6499999999999915
0
LINE
8
BLACK
6
CONTINUOUS
10
189.75
20
-106.6499999999999915
11
189.75
21
-120.6499999999999915
0
LINE
8
BLACK
6
CONTINUOUS
10
189.75
20
-120.6499999999999915
11
203.75
21
-120.6499999999999915
0
LINE
8
BLACK
6
CONTINUOUS
10
184.6999999999999886
20
-54.5
11
184.6999999999999886
21
-40.5
0
LINE
8
BLACK
6
CONTINUOUS
10
184.6999999999999886
20
-40.5
11
170.6999999999999886
21
-40.5
0
LINE
8
BLACK
6
CONTINUOUS
10
170.6999999999999886
20
-40.5
11
170.6999999999999886
21
-54.5
0
LINE
8
BLACK
6
CONTINUOUS
10
170.6999999999999886
20
-54.5
11
184.6999999999999886
21
-54.5
0
LINE
8
BLACK
6
CONTINUOUS
10
184.6999999999999886
20
-59.5499999999999972
11
170.6999999999999886
21
-59.5499999999999972
0
LINE
8
BLACK
6
CONTINUOUS
10
184.6999999999999886
20
-73.5499999999999972
11
184.6999999999999886
21
-59.5499999999999972
0
LINE
8
BLACK
6
CONTINUOUS
10
170.6999999999999886
20
-59.5499999999999972
11
170.6999999999999886
21
-73.5499999999999972
0
LINE
8
BLACK
6
CONTINUOUS
10
170.6999999999999886
20
-73.5499999999999972
11
184.6999999999999886
21
-73.5499999999999972
0
LINE
8
BLACK
6
CONTINUOUS
10
184.6999999999999886
20
-92.5999999999999943
11
184.6999999999999886
21
-78.5999999999999943
0
LINE
8
BLACK
6
CONTINUOUS
10
170.6999999999999886
20
-92.5999999999999943
11
184.6999999999999886
21
-92.5999999999999943
0
LINE
8
BLACK
6
CONTINUOUS
10
170.6999999999999886
20
-78.5999999999999943
11
170.6999999999999886
21
-92.5999999999999943
0
LINE
8
BLACK
6
CONTINUOUS
10
184.6999999999999886
20
-78.5999999999999943
11
170.6999999999999886
21
-78.5999999999999943
0
LINE
8
BLACK
6
CONTINUOUS
10
170.6999999999999886
20
-111.6499999999999915
11
184.6999999999999886
21
-111.6499999999999915
0
LINE
8
BLACK
6
CONTINUOUS
10
170.6999999999999886
20
-97.6499999999999915
11
170.6999999999999886
21
-111.6499999999999915
0
LINE
8
BLACK
6
CONTINUOUS
10
184.6999999999999886
20
-111.6499999999999915
11
184.6999999999999886
21
-97.6499999999999915
0
LINE
8
BLACK
6
CONTINUOUS
10
184.6999999999999886
20
-97.6499999999999915
11
170.6999999999999886
21
-97.6499999999999915
0
LINE
8
BLACK
6
CONTINUOUS
10
184.6999999999999886
20
-130.6999999999999886
11
184.6999999999999886
21
-116.6999999999999886
0
LINE
8
BLACK
6
CONTINUOUS
10
170.6999999999999886
20
-116.6999999999999886
11
170.6999999999999886
21
-130.6999999999999886
0
LINE
8
BLACK
6
CONTINUOUS
10
184.6999999999999886
20
-116.6999999999999886
11
170.6999999999999886
21
-116.6999999999999886
0
LINE
8
BLACK
6
CONTINUOUS
10
170.6999999999999886
20
-130.6999999999999886
11
184.6999999999999886
21
-130.6999999999999886
0
LINE
8
BLACK
6
CONTINUOUS
10
151.6500000000000057
20
-52.
11
165.6500000000000057
21
-52.
0
LINE
8
BLACK
6
CONTINUOUS
10
165.6500000000000057
20
-52.
11
165.6500000000000057
21
-38.
0
LINE
8
BLACK
6
CONTINUOUS
10
151.6500000000000057
20
-38.
11
151.6500000000000057
21
-52.
0
LINE
8
BLACK
6
CONTINUOUS
10
165.6500000000000057
20
-38.
11
151.6500000000000057
21
-38.
0
LINE
8
BLACK
6
CONTINUOUS
10
165.6500000000000057
20
-71.0499999999999972
11
165.6500000000000057
21
-57.0499999999999972
0
LINE
8
BLACK
6
CONTINUOUS
10
151.6500000000000057
20
-71.0499999999999972
11
165.6500000000000057
21
-71.0499999999999972
0
LINE
8
BLACK
6
CONTINUOUS
10
165.6500000000000057
20
-57.0499999999999972
11
151.6500000000000057
21
-57.0499999999999972
0
LINE
8
BLACK
6
CONTINUOUS
10
151.6500000000000057
20
-57.0499999999999972
11
151.6500000000000057
21
-71.0499999999999972
0
LINE
8
BLACK
6
CONTINUOUS
10
151.6500000000000057
20
-90.0999999999999943
11
165.6500000000000057
21
-90.0999999999999943
0
LINE
8
BLACK
6
CONTINUOUS
10
165.6500000000000057
20
-90.0999999999999943
11
165.6500000000000057
21
-76.0999999999999943
0
LINE
8
BLACK
6
CONTINUOUS
10
165.6500000000000057
20
-76.0999999999999943
11
151.6500000000000057
21
-76.0999999999999943
0
LINE
8
BLACK
6
CONTINUOUS
10
151.6500000000000057
20
-76.0999999999999943
11
151.6500000000000057
21
-90.0999999999999943
0
LINE
8
BLACK
6
CONTINUOUS
10
151.6500000000000057
20
-109.1499999999999915
11
165.6500000000000057
21
-109.1499999999999915
0
LINE
8
BLACK
6
CONTINUOUS
10
165.6500000000000057
20
-109.1499999999999915
11
165.6500000000000057
21
-95.1499999999999915
0
LINE
8
BLACK
6
CONTINUOUS
10
151.6500000000000057
20
-95.1499999999999915
11
151.6500000000000057
21
-109.1499999999999915
0
LINE
8
BLACK
6
CONTINUOUS
10
165.6500000000000057
20
-95.1499999999999915
11
151.6500000000000057
21
-95.1499999999999915
0
LINE
8
BLACK
6
CONTINUOUS
10
151.6500000000000057
20
-128.1999999999999886
11
165.6500000000000057
21
-128.1999999999999886
0
LINE
8
BLACK
6
CONTINUOUS
10
165.6500000000000057
20
-114.1999999999999886
11
151.6500000000000057
21
-114.1999999999999886
0
LINE
8
BLACK
6
CONTINUOUS
10
165.6500000000000057
20
-128.1999999999999886
11
165.6500000000000057
21
-114.1999999999999886
0
LINE
8
BLACK
6
CONTINUOUS
10
151.6500000000000057
20
-114.1999999999999886
11
151.6500000000000057
21
-128.1999999999999886
0
LINE
8
BLACK
6
CONTINUOUS
10
146.5999999999999943
20
-54.5
11
146.5999999999999943
21
-40.5
0
LINE
8
BLACK
6
CONTINUOUS
10
132.5999999999999943
20
-54.5
11
146.5999999999999943
21
-54.5
0
LINE
8
BLACK
6
CONTINUOUS
10
132.5999999999999943
20
-40.5
11
132.5999999999999943
21
-54.5
0
LINE
8
BLACK
6
CONTINUOUS
10
146.5999999999999943
20
-40.5
11
132.5999999999999943
21
-40.5
0
LINE
8
BLACK
6
CONTINUOUS
10
146.5999999999999943
20
-73.5499999999999972
11
146.5999999999999943
21
-59.5499999999999972
0
LINE
8
BLACK
6
CONTINUOUS
10
132.5999999999999943
20
-59.5499999999999972
11
132.5999999999999943
21
-73.5499999999999972
0
LINE
8
BLACK
6
CONTINUOUS
10
146.5999999999999943
20
-59.5499999999999972
11
132.5999999999999943
21
-59.5499999999999972
0
LINE
8
BLACK
6
CONTINUOUS
10
132.5999999999999943
20
-73.5499999999999972
11
146.5999999999999943
21
-73.5499999999999972
0
LINE
8
BLACK
6
CONTINUOUS
10
146.5999999999999943
20
-92.5999999999999943
11
146.5999999999999943
21
-78.5999999999999943
0
LINE
8
BLACK
6
CONTINUOUS
10
146.5999999999999943
20
-78.5999999999999943
11
132.5999999999999943
21
-78.5999999999999943
0
LINE
8
BLACK
6
CONTINUOUS
10
132.5999999999999943
20
-78.5999999999999943
11
132.5999999999999943
21
-92.5999999999999943
0
LINE
8
BLACK
6
CONTINUOUS
10
132.5999999999999943
20
-92.5999999999999943
11
146.5999999999999943
21
-92.5999999999999943
0
LINE
8
BLACK
6
CONTINUOUS
10
132.5999999999999943
20
-97.6499999999999915
11
132.5999999999999943
21
-111.6499999999999915
0
LINE
8
BLACK
6
CONTINUOUS
10
146.5999999999999943
20
-111.6499999999999915
11
146.5999999999999943
21
-97.6499999999999915
0
LINE
8
BLACK
6
CONTINUOUS
10
146.5999999999999943
20
-97.6499999999999915
11
132.5999999999999943
21
-97.6499999999999915
0
LINE
8
BLACK
6
CONTINUOUS
10
132.5999999999999943
20
-111.6499999999999915
11
146.5999999999999943
21
-111.6499999999999915
0
LINE
8
BLACK
6
CONTINUOUS
10
146.5999999999999943
20
-130.6999999999999886
11
146.5999999999999943
21
-116.6999999999999886
0
LINE
8
BLACK
6
CONTINUOUS
10
132.5999999999999943
20
-116.6999999999999886
11
132.5999999999999943
21
-130.6999999999999886
0
LINE
8
BLACK
6
CONTINUOUS
10
146.5999999999999943
20
-116.6999999999999886
11
132.5999999999999943
21
-116.6999999999999886
0
LINE
8
BLACK
6
CONTINUOUS
10
132.5999999999999943
20
-130.6999999999999886
11
146.5999999999999943
21
-130.6999999999999886
0
LINE
8
BLACK
6
CONTINUOUS
10
113.5499999999999972
20
-43.
11
113.5499999999999972
21
-57.
0
LINE
8
BLACK
6
CONTINUOUS
10
113.5499999999999972
20
-57.
11
127.5499999999999972
21
-57.
0
LINE
8
BLACK
6
CONTINUOUS
10
127.5499999999999972
20
-43.
11
113.5499999999999972
21
-43.
0
LINE
8
BLACK
6
CONTINUOUS
10
127.5499999999999972
20
-57.
11
127.5499999999999972
21
-43.
0
LINE
8
BLACK
6
CONTINUOUS
10
113.5499999999999972
20
-76.0499999999999972
11
127.5499999999999972
21
-76.0499999999999972
0
LINE
8
BLACK
6
CONTINUOUS
10
127.5499999999999972
20
-76.0499999999999972
11
127.5499999999999972
21
-62.0499999999999972
0
LINE
8
BLACK
6
CONTINUOUS
10
113.5499999999999972
20
-62.0499999999999972
11
113.5499999999999972
21
-76.0499999999999972
0
LINE
8
BLACK
6
CONTINUOUS
10
127.5499999999999972
20
-62.0499999999999972
11
113.5499999999999972
21
-62.0499999999999972
0
LINE
8
BLACK
6
CONTINUOUS
10
113.5499999999999972
20
-81.0999999999999943
11
113.5499999999999972
21
-95.0999999999999943
0
LINE
8
BLACK
6
CONTINUOUS
10
113.5499999999999972
20
-95.0999999999999943
11
127.5499999999999972
21
-95.0999999999999943
0
LINE
8
BLACK
6
CONTINUOUS
10
127.5499999999999972
20
-95.0999999999999943
11
127.5499999999999972
21
-81.0999999999999943
0
LINE
8
BLACK
6
CONTINUOUS
10
127.5499999999999972
20
-81.0999999999999943
11
113.5499999999999972
21
-81.0999999999999943
0
LINE
8
BLACK
6
CONTINUOUS
10
113.5499999999999972
20
-100.1499999999999915
11
113.5499999999999972
21
-114.1499999999999915
0
LINE
8
BLACK
6
CONTINUOUS
10
113.5499999999999972
20
-114.1499999999999915
11
127.5499999999999972
21
-114.1499999999999915
0
LINE
8
BLACK
6
CONTINUOUS
10
127.5499999999999972
20
-114.1499999999999915
11
127.5499999999999972
21
-100.1499999999999915
0
LINE
8
BLACK
6
CONTINUOUS
10
127.5499999999999972
20
-100.1499999999999915
11
113.5499999999999972
21
-100.1499999999999915
0
LINE
8
BLACK
6
CONTINUOUS
10
109.0267860000000013
20
-123.4502529999999894
11
112.6502529999999922
21
-136.9732139999999845
0
LINE
8
BLACK
6
CONTINUOUS
10
126.1732139999999873
20
-133.3497470000000078
11
122.5497469999999964
21
-119.8267859999999985
0
LINE
8
BLACK
6
CONTINUOUS
10
112.6502529999999922
20
-136.9732139999999845
11
126.1732139999999873
21
-133.3497470000000078
0
LINE
8
BLACK
6
CONTINUOUS
10
122.5497469999999964
20
-119.8267859999999985
11
109.0267860000000013
21
-123.4502529999999894
0
LINE
8
BLACK
6
CONTINUOUS
10
87.1478219999999908
20
-130.8378219999999885
11
94.1478219999999908
21
-142.9621779999999944
0
LINE
8
BLACK
6
CONTINUOUS
10
99.2721779999999967
20
-123.8378219999999885
11
87.1478219999999908
21
-130.8378219999999885
0
LINE
8
BLACK
6
CONTINUOUS
10
94.1478219999999908
20
-142.9621779999999944
11
106.2721779999999967
21
-135.9621779999999944
0
LINE
8
BLACK
6
CONTINUOUS
10
106.2721779999999967
20
-135.9621779999999944
11
99.2721779999999967
21
-123.8378219999999885
0
LINE
8
BLACK
6
CONTINUOUS
10
208.7999999999999829
20
-120.6499999999999915
11
222.7999999999999829
21
-120.6499999999999915
0
LINE
8
BLACK
6
CONTINUOUS
10
222.7999999999999829
20
-120.6499999999999915
11
222.7999999999999829
21
-106.6499999999999915
0
LINE
8
BLACK
6
CONTINUOUS
10
208.7999999999999829
20
-106.6499999999999915
11
208.7999999999999829
21
-120.6499999999999915
0
LINE
8
BLACK
6
CONTINUOUS
10
222.7999999999999829
20
-106.6499999999999915
11
208.7999999999999829
21
-106.6499999999999915
0
LINE
8
BLACK
6
CONTINUOUS
10
84.6278389999999945
20
-149.8232339999999851
11
84.6278389999999945
21
-147.8232339999999851
0
LINE
8
BLACK
6
CONTINUOUS
10
84.6278389999999945
20
-147.8232339999999851
11
85.104028999999997
21
-147.8232339999999851
0
LINE
8
BLACK
6
CONTINUOUS
10
85.104028999999997
20
-147.8232339999999851
11
85.3897439999999932
21
-147.91847199999998
0
LINE
8
BLACK
6
CONTINUOUS
10
85.3897439999999932
20
-147.91847199999998
11
85.5802199999999971
21
-148.108947999999998
0
LINE
8
BLACK
6
CONTINUOUS
10
85.5802199999999971
20
-148.108947999999998
11
85.6754579999999919
21
-148.2994239999999877
0
LINE
8
BLACK
6
CONTINUOUS
10
85.6754579999999919
20
-148.2994239999999877
11
85.7706960000000009
21
-148.6803759999999954
0
LINE
8
BLACK
6
CONTINUOUS
10
85.7706960000000009
20
-148.6803759999999954
11
85.7706960000000009
21
-148.9660910000000058
0
LINE
8
BLACK
6
CONTINUOUS
10
85.7706960000000009
20
-148.9660910000000058
11
85.6754579999999919
21
-149.3470429999999851
0
LINE
8
BLACK
6
CONTINUOUS
10
85.6754579999999919
20
-149.3470429999999851
11
85.5802199999999971
21
-149.5375190000000032
0
LINE
8
BLACK
6
CONTINUOUS
10
85.5802199999999971
20
-149.5375190000000032
11
85.3897439999999932
21
-149.7279959999999903
0
LINE
8
BLACK
6
CONTINUOUS
10
85.3897439999999932
20
-149.7279959999999903
11
85.104028999999997
21
-149.8232339999999851
0
LINE
8
BLACK
6
CONTINUOUS
10
85.104028999999997
20
-149.8232339999999851
11
84.6278389999999945
21
-149.8232339999999851
0
LINE
8
BLACK
6
CONTINUOUS
10
86.6278389999999945
20
-149.8232339999999851
11
86.6278389999999945
21
-148.4899000000000058
0
LINE
8
BLACK
6
CONTINUOUS
10
86.6278389999999945
20
-148.8708529999999826
11
86.7230769999999893
21
-148.6803759999999954
0
LINE
8
BLACK
6
CONTINUOUS
10
86.7230769999999893
20
-148.6803759999999954
11
86.8183149999999983
21
-148.5851380000000006
0
LINE
8
BLACK
6
CONTINUOUS
10
86.8183149999999983
20
-148.5851380000000006
11
87.0087910000000022
21
-148.4899000000000058
0
LINE
8
BLACK
6
CONTINUOUS
10
87.0087910000000022
20
-148.4899000000000058
11
87.1992679999999893
21
-148.4899000000000058
0
LINE
8
BLACK
6
CONTINUOUS
10
87.8659339999999958
20
-149.8232339999999851
11
87.8659339999999958
21
-148.4899000000000058
0
LINE
8
BLACK
6
CONTINUOUS
10
87.8659339999999958
20
-147.8232339999999851
11
87.7706960000000009
21
-147.91847199999998
0
LINE
8
BLACK
6
CONTINUOUS
10
87.7706960000000009
20
-147.91847199999998
11
87.8659339999999958
21
-148.0137100000000032
0
LINE
8
BLACK
6
CONTINUOUS
10
87.8659339999999958
20
-148.0137100000000032
11
87.9611719999999906
21
-147.91847199999998
0
LINE
8
BLACK
6
CONTINUOUS
10
87.9611719999999906
20
-147.91847199999998
11
87.8659339999999958
21
-147.8232339999999851
0
LINE
8
BLACK
6
CONTINUOUS
10
87.8659339999999958
20
-147.8232339999999851
11
87.8659339999999958
21
-148.0137100000000032
0
LINE
8
BLACK
6
CONTINUOUS
10
89.104028999999997
20
-149.8232339999999851
11
88.9135529999999932
21
-149.7279959999999903
0
LINE
8
BLACK
6
CONTINUOUS
10
88.9135529999999932
20
-149.7279959999999903
11
88.8183149999999983
21
-149.5375190000000032
0
LINE
8
BLACK
6
CONTINUOUS
10
88.8183149999999983
20
-149.5375190000000032
11
88.8183149999999983
21
-147.8232339999999851
0
LINE
8
BLACK
6
CONTINUOUS
10
90.1516479999999945
20
-149.8232339999999851
11
89.9611719999999906
21
-149.7279959999999903
0
LINE
8
BLACK
6
CONTINUOUS
10
89.9611719999999906
20
-149.7279959999999903
11
89.8659339999999958
21
-149.5375190000000032
0
LINE
8
BLACK
6
CONTINUOUS
10
89.8659339999999958
20
-149.5375190000000032
11
89.8659339999999958
21
-147.8232339999999851
0
LINE
8
BLACK
6
CONTINUOUS
10
92.4373629999999906
20
-149.8232339999999851
11
92.4373629999999906
21
-147.8232339999999851
0
LINE
8
BLACK
6
CONTINUOUS
10
92.4373629999999906
20
-147.8232339999999851
11
93.1040299999999945
21
-149.2518049999999903
0
LINE
8
BLACK
6
CONTINUOUS
10
93.1040299999999945
20
-149.2518049999999903
11
93.7706960000000009
21
-147.8232339999999851
0
LINE
8
BLACK
6
CONTINUOUS
10
93.7706960000000009
20
-147.8232339999999851
11
93.7706960000000009
21
-149.8232339999999851
0
LINE
8
BLACK
6
CONTINUOUS
10
95.5802199999999971
20
-149.8232339999999851
11
95.5802199999999971
21
-148.7756149999999877
0
LINE
8
BLACK
6
CONTINUOUS
10
95.5802199999999971
20
-148.7756149999999877
11
95.4849820000000022
21
-148.5851380000000006
0
LINE
8
BLACK
6
CONTINUOUS
10
95.4849820000000022
20
-148.5851380000000006
11
95.2945059999999984
21
-148.4899000000000058
0
LINE
8
BLACK
6
CONTINUOUS
10
95.2945059999999984
20
-148.4899000000000058
11
94.9135529999999932
21
-148.4899000000000058
0
LINE
8
BLACK
6
CONTINUOUS
10
94.9135529999999932
20
-148.4899000000000058
11
94.7230769999999893
21
-148.5851380000000006
0
LINE
8
BLACK
6
CONTINUOUS
10
95.5802199999999971
20
-149.7279959999999903
11
95.3897439999999932
21
-149.8232339999999851
0
LINE
8
BLACK
6
CONTINUOUS
10
95.3897439999999932
20
-149.8232339999999851
11
94.9135529999999932
21
-149.8232339999999851
0
LINE
8
BLACK
6
CONTINUOUS
10
94.9135529999999932
20
-149.8232339999999851
11
94.7230769999999893
21
-149.7279959999999903
0
LINE
8
BLACK
6
CONTINUOUS
10
94.7230769999999893
20
-149.7279959999999903
11
94.6278389999999945
21
-149.5375190000000032
0
LINE
8
BLACK
6
CONTINUOUS
10
94.6278389999999945
20
-149.5375190000000032
11
94.6278389999999945
21
-149.3470429999999851
0
LINE
8
BLACK
6
CONTINUOUS
10
94.6278389999999945
20
-149.3470429999999851
11
94.7230769999999893
21
-149.1565669999999955
0
LINE
8
BLACK
6
CONTINUOUS
10
94.7230769999999893
20
-149.1565669999999955
11
94.9135529999999932
21
-149.0613290000000006
0
LINE
8
BLACK
6
CONTINUOUS
10
94.9135529999999932
20
-149.0613290000000006
11
95.3897439999999932
21
-149.0613290000000006
0
LINE
8
BLACK
6
CONTINUOUS
10
95.3897439999999932
20
-149.0613290000000006
11
95.5802199999999971
21
-148.9660910000000058
0
LINE
8
BLACK
6
CONTINUOUS
10
96.5326009999999997
20
-148.4899000000000058
11
96.5326009999999997
21
-150.4899000000000058
0
LINE
8
BLACK
6
CONTINUOUS
10
96.5326009999999997
20
-148.5851380000000006
11
96.7230769999999893
21
-148.4899000000000058
0
LINE
8
BLACK
6
CONTINUOUS
10
96.7230769999999893
20
-148.4899000000000058
11
97.1040299999999945
21
-148.4899000000000058
0
LINE
8
BLACK
6
CONTINUOUS
10
97.1040299999999945
20
-148.4899000000000058
11
97.2945059999999984
21
-148.5851380000000006
0
LINE
8
BLACK
6
CONTINUOUS
10
97.2945059999999984
20
-148.5851380000000006
11
97.3897439999999932
21
-148.6803759999999954
0
LINE
8
BLACK
6
CONTINUOUS
10
97.3897439999999932
20
-148.6803759999999954
11
97.4849820000000022
21
-148.8708529999999826
0
LINE
8
BLACK
6
CONTINUOUS
10
97.4849820000000022
20
-148.8708529999999826
11
97.4849820000000022
21
-149.4422809999999799
0
LINE
8
BLACK
6
CONTINUOUS
10
97.4849820000000022
20
-149.4422809999999799
11
97.3897439999999932
21
-149.632756999999998
0
LINE
8
BLACK
6
CONTINUOUS
10
97.3897439999999932
20
-149.632756999999998
11
97.2945059999999984
21
-149.7279959999999903
0
LINE
8
BLACK
6
CONTINUOUS
10
97.2945059999999984
20
-149.7279959999999903
11
97.1040299999999945
21
-149.8232339999999851
0
LINE
8
BLACK
6
CONTINUOUS
10
97.1040299999999945
20
-149.8232339999999851
11
96.7230769999999893
21
-149.8232339999999851
0
LINE
8
BLACK
6
CONTINUOUS
10
96.7230769999999893
20
-149.8232339999999851
11
96.5326009999999997
21
-149.7279959999999903
0
LINE
8
BLACK
6
CONTINUOUS
10
98.3421249999999958
20
-149.632756999999998
11
98.4373629999999906
21
-149.7279959999999903
0
LINE
8
BLACK
6
CONTINUOUS
10
98.4373629999999906
20
-149.7279959999999903
11
98.3421249999999958
21
-149.8232339999999851
0
LINE
8
BLACK
6
CONTINUOUS
10
98.3421249999999958
20
-149.8232339999999851
11
98.246887000000001
21
-149.7279959999999903
0
LINE
8
BLACK
6
CONTINUOUS
10
98.246887000000001
20
-149.7279959999999903
11
98.3421249999999958
21
-149.632756999999998
0
LINE
8
BLACK
6
CONTINUOUS
10
98.3421249999999958
20
-149.632756999999998
11
98.3421249999999958
21
-149.8232339999999851
0
LINE
8
BLACK
6
CONTINUOUS
10
98.3421249999999958
20
-148.5851380000000006
11
98.4373629999999906
21
-148.6803759999999954
0
LINE
8
BLACK
6
CONTINUOUS
10
98.4373629999999906
20
-148.6803759999999954
11
98.3421249999999958
21
-148.7756149999999877
0
LINE
8
BLACK
6
CONTINUOUS
10
98.3421249999999958
20
-148.7756149999999877
11
98.246887000000001
21
-148.6803759999999954
0
LINE
8
BLACK
6
CONTINUOUS
10
98.246887000000001
20
-148.6803759999999954
11
98.3421249999999958
21
-148.5851380000000006
0
LINE
8
BLACK
6
CONTINUOUS
10
98.3421249999999958
20
-148.5851380000000006
11
98.3421249999999958
21
-148.7756149999999877
  0
ENDSEC
  0
EOF
