  0
SECTION
  2
HEADER
  9
$ANGBASE
  50
0.0
  9
$ANGDIR
  70
1
  9
$MEASUREMENT
  70
1
  0
ENDSEC
  0
SECTION
  2
TABLES
  0
TABLE
  2
LTYPE
  70
4
  0
LTYPE
  5
40F
  2
CONTINUOUS
  70
0
  3
Solid line
  72
65
  73
0
  40
0.0
  0
LTYPE
  5
410
  2
DASHDOT
 70
0
  3
Dash Dot ____ _ ____ _
 72
65
 73
4
 40
2.0
 49
1.25
 49
-0.25
 49
0.25
 49
-0.25
  0
LTYPE
  5
411
  2
DASHED
 70
0
  3
Dashed __ __ __ __ __
 72
65
 73
2
 40
0.75
 49
0.5
 49
-0.25
  0
LTYPE
  5
43B
  2
DOTTED
 70
0
  3
Dotted .  .  .  .
 72
65
 73
2
 40
0.2
 49
0.0
 49
-0.2
  0
ENDTAB
  0
TABLE
  2
STYLE
  70
4
  0
STYLE
  2
KICAD
  70
0
  40
0
  41
1
  42
1
  50
0
  71
0
  3
isocp.shx
  0
STYLE
  2
KICADB
  70
0
  40
0
  41
1
  42
1
  50
0
  71
0
  3
isocp.shx
  0
STYLE
  2
KICADI
  70
0
  40
0
  41
1
  42
1
  50
15
  71
0
  3
isocp.shx
  0
STYLE
  2
KICADBI
  70
0
  40
0
  41
1
  42
1
  50
15
  71
0
  3
isocp.shx
  0
ENDTAB
  0
TABLE
  2
LAYER
  70
1
  0
LAYER
  2
BLACK
  70
0
  62
7
  6
CONTINUOUS
  0
ENDTAB
  0
ENDSEC
  0
SECTION
  2
ENTITIES
0
LINE
8
BLACK
6
CONTINUOUS
10
92.3314359999999965
20
-145.6551709999999957
11
82.3411919999999924
21
-128.3156439999999918
0
LINE
8
BLACK
6
CONTINUOUS
10
88.3999999999999915
20
-114.4035999999999973
11
88.2971999999999895
21
-115.0535999999999888
0
LINE
8
BLACK
6
CONTINUOUS
10
88.2971999999999895
20
-115.0535999999999888
11
88.0972000000000008
21
-115.6535999999999973
0
LINE
8
BLACK
6
CONTINUOUS
10
82.2900559999999928
20
-126.3979169999999925
11
88.0972000000000008
21
-115.6535999999999973
0
LINE
8
BLACK
6
CONTINUOUS
10
149.0971999999999866
20
-35.2496000000000009
11
112.054239999999993
21
-36.6045230000000004
0
LINE
8
BLACK
6
CONTINUOUS
10
138.2513280000000009
20
-133.4499999999999886
11
187.2249999999999943
21
-133.4499999999999886
0
LINE
8
BLACK
6
CONTINUOUS
10
138.2513280000000009
20
-133.4499999999999886
11
94.6199999999999903
21
-146.5799999999999841
0
LINE
8
BLACK
6
CONTINUOUS
10
149.0971999999999866
20
-35.2496000000000009
11
176.0472000000000037
21
-35.2496000000000009
0
LINE
8
BLACK
6
CONTINUOUS
10
88.3999999999999915
20
-114.4035999999999973
11
88.3999999999999915
21
-96.4985999999999962
0
LINE
8
BLACK
6
CONTINUOUS
10
91.9500000000000028
20
-110.9997999999999934
11
107.5499999999999972
21
-110.9997999999999934
0
LINE
8
BLACK
6
CONTINUOUS
10
224.809379999999976
20
-123.3735250000000008
11
187.2249999999999943
21
-133.4502499999999827
0
LINE
8
BLACK
6
CONTINUOUS
10
89.3999999999999915
20
-95.4985999999999962
11
110.0972000000000008
21
-95.4985999999999962
0
LINE
8
BLACK
6
CONTINUOUS
10
176.0472000000000037
20
-35.2496000000000009
11
224.7572089999999889
21
-46.7219529999999992
0
ARC
8
BLACK
10
110.0972000000000008
20
-94.4985999999999962
40
1.
50
-90.00000000
51
-0.00000000
0
ARC
8
BLACK
10
224.5495999999999981
20
-47.7005999999999943
40
1.0004256331632051
50
0.02004550
51
78.02290325
0
LINE
8
BLACK
6
CONTINUOUS
10
91.9500000000000028
20
-97.9997999999999934
11
91.9500000000000028
21
-110.9997999999999934
0
LINE
8
BLACK
6
CONTINUOUS
10
107.5499999999999972
20
-97.9997999999999934
11
91.9500000000000028
21
-97.9997999999999934
0
LINE
8
BLACK
6
CONTINUOUS
10
107.5499999999999972
20
-110.9997999999999934
11
107.5499999999999972
21
-97.9997999999999934
0
LINE
8
BLACK
6
CONTINUOUS
10
225.5499999999999829
20
-47.7002499999999969
11
225.5499999999999829
21
-122.407749999999993
0
ARC
8
BLACK
10
89.3999999999999915
20
-96.4985999999999962
40
1.
50
90.00000000
51
180.00000000
0
ARC
8
BLACK
10
84.0707000000000022
20
-127.3099999999999881
40
2.0006293451811605
50
-207.12247157
51
-149.82360568
0
ARC
8
BLACK
10
224.5503999999999962
20
-122.4080000000000013
40
0.9996000312625045
50
-74.98514312
51
0.01432968
0
ARC
8
BLACK
10
94.0655000000000001
20
-144.6581999999999937
40
2.0001963628604065
50
-150.10397372
51
-73.90547865
0
ARC
8
BLACK
10
112.0974999999999966
20
-37.6038999999999959
40
1.0003000449865029
50
92.47861322
51
179.98281642
0
LINE
8
BLACK
6
CONTINUOUS
10
111.0972000000000008
20
-94.4985999999999962
11
111.0972000000000008
21
-37.6036000000000001
0
LINE
8
BLACK
6
CONTINUOUS
10
208.7999999999999829
20
-63.5
11
222.7999999999999829
21
-63.5
0
LINE
8
BLACK
6
CONTINUOUS
10
222.7999999999999829
20
-49.5
11
208.7999999999999829
21
-49.5
0
LINE
8
BLACK
6
CONTINUOUS
10
222.7999999999999829
20
-63.5
11
222.7999999999999829
21
-49.5
0
LINE
8
BLACK
6
CONTINUOUS
10
208.7999999999999829
20
-49.5
11
208.7999999999999829
21
-63.5
0
LINE
8
BLACK
6
CONTINUOUS
10
189.75
20
-49.5
11
189.75
21
-63.5
0
LINE
8
BLACK
6
CONTINUOUS
10
203.75
20
-63.5
11
203.75
21
-49.5
0
LINE
8
BLACK
6
CONTINUOUS
10
203.75
20
-49.5
11
189.75
21
-49.5
0
LINE
8
BLACK
6
CONTINUOUS
10
189.75
20
-63.5
11
203.75
21
-63.5
0
LINE
8
BLACK
6
CONTINUOUS
10
189.75
20
-82.5499999999999972
11
203.75
21
-82.5499999999999972
0
LINE
8
BLACK
6
CONTINUOUS
10
203.75
20
-68.5499999999999972
11
189.75
21
-68.5499999999999972
0
LINE
8
BLACK
6
CONTINUOUS
10
189.75
20
-68.5499999999999972
11
189.75
21
-82.5499999999999972
0
LINE
8
BLACK
6
CONTINUOUS
10
203.75
20
-82.5499999999999972
11
203.75
21
-68.5499999999999972
0
LINE
8
BLACK
6
CONTINUOUS
10
208.7999999999999829
20
-68.5499999999999972
11
208.7999999999999829
21
-82.5499999999999972
0
LINE
8
BLACK
6
CONTINUOUS
10
222.7999999999999829
20
-68.5499999999999972
11
208.7999999999999829
21
-68.5499999999999972
0
LINE
8
BLACK
6
CONTINUOUS
10
222.7999999999999829
20
-82.5499999999999972
11
222.7999999999999829
21
-68.5499999999999972
0
LINE
8
BLACK
6
CONTINUOUS
10
208.7999999999999829
20
-82.5499999999999972
11
222.7999999999999829
21
-82.5499999999999972
0
LINE
8
BLACK
6
CONTINUOUS
10
189.75
20
-87.5999999999999943
11
189.75
21
-101.5999999999999943
0
LINE
8
BLACK
6
CONTINUOUS
10
203.75
20
-101.5999999999999943
11
203.75
21
-87.5999999999999943
0
LINE
8
BLACK
6
CONTINUOUS
10
189.75
20
-101.5999999999999943
11
203.75
21
-101.5999999999999943
0
LINE
8
BLACK
6
CONTINUOUS
10
203.75
20
-87.5999999999999943
11
189.75
21
-87.5999999999999943
0
LINE
8
BLACK
6
CONTINUOUS
10
222.7999999999999829
20
-101.5999999999999943
11
222.7999999999999829
21
-87.5999999999999943
0
LINE
8
BLACK
6
CONTINUOUS
10
208.7999999999999829
20
-101.5999999999999943
11
222.7999999999999829
21
-101.5999999999999943
0
LINE
8
BLACK
6
CONTINUOUS
10
208.7999999999999829
20
-87.5999999999999943
11
208.7999999999999829
21
-101.5999999999999943
0
LINE
8
BLACK
6
CONTINUOUS
10
222.7999999999999829
20
-87.5999999999999943
11
208.7999999999999829
21
-87.5999999999999943
0
LINE
8
BLACK
6
CONTINUOUS
10
203.75
20
-120.6499999999999915
11
203.75
21
-106.6499999999999915
0
LINE
8
BLACK
6
CONTINUOUS
10
203.75
20
-106.6499999999999915
11
189.75
21
-106.6499999999999915
0
LINE
8
BLACK
6
CONTINUOUS
10
189.75
20
-106.6499999999999915
11
189.75
21
-120.6499999999999915
0
LINE
8
BLACK
6
CONTINUOUS
10
189.75
20
-120.6499999999999915
11
203.75
21
-120.6499999999999915
0
LINE
8
BLACK
6
CONTINUOUS
10
184.6999999999999886
20
-54.5
11
184.6999999999999886
21
-40.5
0
LINE
8
BLACK
6
CONTINUOUS
10
184.6999999999999886
20
-40.5
11
170.6999999999999886
21
-40.5
0
LINE
8
BLACK
6
CONTINUOUS
10
170.6999999999999886
20
-40.5
11
170.6999999999999886
21
-54.5
0
LINE
8
BLACK
6
CONTINUOUS
10
170.6999999999999886
20
-54.5
11
184.6999999999999886
21
-54.5
0
LINE
8
BLACK
6
CONTINUOUS
10
184.6999999999999886
20
-59.5499999999999972
11
170.6999999999999886
21
-59.5499999999999972
0
LINE
8
BLACK
6
CONTINUOUS
10
184.6999999999999886
20
-73.5499999999999972
11
184.6999999999999886
21
-59.5499999999999972
0
LINE
8
BLACK
6
CONTINUOUS
10
170.6999999999999886
20
-59.5499999999999972
11
170.6999999999999886
21
-73.5499999999999972
0
LINE
8
BLACK
6
CONTINUOUS
10
170.6999999999999886
20
-73.5499999999999972
11
184.6999999999999886
21
-73.5499999999999972
0
LINE
8
BLACK
6
CONTINUOUS
10
184.6999999999999886
20
-92.5999999999999943
11
184.6999999999999886
21
-78.5999999999999943
0
LINE
8
BLACK
6
CONTINUOUS
10
170.6999999999999886
20
-92.5999999999999943
11
184.6999999999999886
21
-92.5999999999999943
0
LINE
8
BLACK
6
CONTINUOUS
10
170.6999999999999886
20
-78.5999999999999943
11
170.6999999999999886
21
-92.5999999999999943
0
LINE
8
BLACK
6
CONTINUOUS
10
184.6999999999999886
20
-78.5999999999999943
11
170.6999999999999886
21
-78.5999999999999943
0
LINE
8
BLACK
6
CONTINUOUS
10
170.6999999999999886
20
-111.6499999999999915
11
184.6999999999999886
21
-111.6499999999999915
0
LINE
8
BLACK
6
CONTINUOUS
10
170.6999999999999886
20
-97.6499999999999915
11
170.6999999999999886
21
-111.6499999999999915
0
LINE
8
BLACK
6
CONTINUOUS
10
184.6999999999999886
20
-111.6499999999999915
11
184.6999999999999886
21
-97.6499999999999915
0
LINE
8
BLACK
6
CONTINUOUS
10
184.6999999999999886
20
-97.6499999999999915
11
170.6999999999999886
21
-97.6499999999999915
0
LINE
8
BLACK
6
CONTINUOUS
10
184.6999999999999886
20
-130.6999999999999886
11
184.6999999999999886
21
-116.6999999999999886
0
LINE
8
BLACK
6
CONTINUOUS
10
170.6999999999999886
20
-116.6999999999999886
11
170.6999999999999886
21
-130.6999999999999886
0
LINE
8
BLACK
6
CONTINUOUS
10
184.6999999999999886
20
-116.6999999999999886
11
170.6999999999999886
21
-116.6999999999999886
0
LINE
8
BLACK
6
CONTINUOUS
10
170.6999999999999886
20
-130.6999999999999886
11
184.6999999999999886
21
-130.6999999999999886
0
LINE
8
BLACK
6
CONTINUOUS
10
151.6500000000000057
20
-52.
11
165.6500000000000057
21
-52.
0
LINE
8
BLACK
6
CONTINUOUS
10
165.6500000000000057
20
-52.
11
165.6500000000000057
21
-38.
0
LINE
8
BLACK
6
CONTINUOUS
10
151.6500000000000057
20
-38.
11
151.6500000000000057
21
-52.
0
LINE
8
BLACK
6
CONTINUOUS
10
165.6500000000000057
20
-38.
11
151.6500000000000057
21
-38.
0
LINE
8
BLACK
6
CONTINUOUS
10
165.6500000000000057
20
-71.0499999999999972
11
165.6500000000000057
21
-57.0499999999999972
0
LINE
8
BLACK
6
CONTINUOUS
10
151.6500000000000057
20
-71.0499999999999972
11
165.6500000000000057
21
-71.0499999999999972
0
LINE
8
BLACK
6
CONTINUOUS
10
165.6500000000000057
20
-57.0499999999999972
11
151.6500000000000057
21
-57.0499999999999972
0
LINE
8
BLACK
6
CONTINUOUS
10
151.6500000000000057
20
-57.0499999999999972
11
151.6500000000000057
21
-71.0499999999999972
0
LINE
8
BLACK
6
CONTINUOUS
10
151.6500000000000057
20
-90.0999999999999943
11
165.6500000000000057
21
-90.0999999999999943
0
LINE
8
BLACK
6
CONTINUOUS
10
165.6500000000000057
20
-90.0999999999999943
11
165.6500000000000057
21
-76.0999999999999943
0
LINE
8
BLACK
6
CONTINUOUS
10
165.6500000000000057
20
-76.0999999999999943
11
151.6500000000000057
21
-76.0999999999999943
0
LINE
8
BLACK
6
CONTINUOUS
10
151.6500000000000057
20
-76.0999999999999943
11
151.6500000000000057
21
-90.0999999999999943
0
LINE
8
BLACK
6
CONTINUOUS
10
151.6500000000000057
20
-109.1499999999999915
11
165.6500000000000057
21
-109.1499999999999915
0
LINE
8
BLACK
6
CONTINUOUS
10
165.6500000000000057
20
-109.1499999999999915
11
165.6500000000000057
21
-95.1499999999999915
0
LINE
8
BLACK
6
CONTINUOUS
10
151.6500000000000057
20
-95.1499999999999915
11
151.6500000000000057
21
-109.1499999999999915
0
LINE
8
BLACK
6
CONTINUOUS
10
165.6500000000000057
20
-95.1499999999999915
11
151.6500000000000057
21
-95.1499999999999915
0
LINE
8
BLACK
6
CONTINUOUS
10
151.6500000000000057
20
-128.1999999999999886
11
165.6500000000000057
21
-128.1999999999999886
0
LINE
8
BLACK
6
CONTINUOUS
10
165.6500000000000057
20
-114.1999999999999886
11
151.6500000000000057
21
-114.1999999999999886
0
LINE
8
BLACK
6
CONTINUOUS
10
165.6500000000000057
20
-128.1999999999999886
11
165.6500000000000057
21
-114.1999999999999886
0
LINE
8
BLACK
6
CONTINUOUS
10
151.6500000000000057
20
-114.1999999999999886
11
151.6500000000000057
21
-128.1999999999999886
0
LINE
8
BLACK
6
CONTINUOUS
10
146.5999999999999943
20
-54.5
11
146.5999999999999943
21
-40.5
0
LINE
8
BLACK
6
CONTINUOUS
10
132.5999999999999943
20
-54.5
11
146.5999999999999943
21
-54.5
0
LINE
8
BLACK
6
CONTINUOUS
10
132.5999999999999943
20
-40.5
11
132.5999999999999943
21
-54.5
0
LINE
8
BLACK
6
CONTINUOUS
10
146.5999999999999943
20
-40.5
11
132.5999999999999943
21
-40.5
0
LINE
8
BLACK
6
CONTINUOUS
10
146.5999999999999943
20
-73.5499999999999972
11
146.5999999999999943
21
-59.5499999999999972
0
LINE
8
BLACK
6
CONTINUOUS
10
132.5999999999999943
20
-59.5499999999999972
11
132.5999999999999943
21
-73.5499999999999972
0
LINE
8
BLACK
6
CONTINUOUS
10
146.5999999999999943
20
-59.5499999999999972
11
132.5999999999999943
21
-59.5499999999999972
0
LINE
8
BLACK
6
CONTINUOUS
10
132.5999999999999943
20
-73.5499999999999972
11
146.5999999999999943
21
-73.5499999999999972
0
LINE
8
BLACK
6
CONTINUOUS
10
146.5999999999999943
20
-92.5999999999999943
11
146.5999999999999943
21
-78.5999999999999943
0
LINE
8
BLACK
6
CONTINUOUS
10
146.5999999999999943
20
-78.5999999999999943
11
132.5999999999999943
21
-78.5999999999999943
0
LINE
8
BLACK
6
CONTINUOUS
10
132.5999999999999943
20
-78.5999999999999943
11
132.5999999999999943
21
-92.5999999999999943
0
LINE
8
BLACK
6
CONTINUOUS
10
132.5999999999999943
20
-92.5999999999999943
11
146.5999999999999943
21
-92.5999999999999943
0
LINE
8
BLACK
6
CONTINUOUS
10
132.5999999999999943
20
-97.6499999999999915
11
132.5999999999999943
21
-111.6499999999999915
0
LINE
8
BLACK
6
CONTINUOUS
10
146.5999999999999943
20
-111.6499999999999915
11
146.5999999999999943
21
-97.6499999999999915
0
LINE
8
BLACK
6
CONTINUOUS
10
146.5999999999999943
20
-97.6499999999999915
11
132.5999999999999943
21
-97.6499999999999915
0
LINE
8
BLACK
6
CONTINUOUS
10
132.5999999999999943
20
-111.6499999999999915
11
146.5999999999999943
21
-111.6499999999999915
0
LINE
8
BLACK
6
CONTINUOUS
10
146.5999999999999943
20
-130.6999999999999886
11
146.5999999999999943
21
-116.6999999999999886
0
LINE
8
BLACK
6
CONTINUOUS
10
132.5999999999999943
20
-116.6999999999999886
11
132.5999999999999943
21
-130.6999999999999886
0
LINE
8
BLACK
6
CONTINUOUS
10
146.5999999999999943
20
-116.6999999999999886
11
132.5999999999999943
21
-116.6999999999999886
0
LINE
8
BLACK
6
CONTINUOUS
10
132.5999999999999943
20
-130.6999999999999886
11
146.5999999999999943
21
-130.6999999999999886
0
LINE
8
BLACK
6
CONTINUOUS
10
113.5499999999999972
20
-43.
11
113.5499999999999972
21
-57.
0
LINE
8
BLACK
6
CONTINUOUS
10
113.5499999999999972
20
-57.
11
127.5499999999999972
21
-57.
0
LINE
8
BLACK
6
CONTINUOUS
10
127.5499999999999972
20
-43.
11
113.5499999999999972
21
-43.
0
LINE
8
BLACK
6
CONTINUOUS
10
127.5499999999999972
20
-57.
11
127.5499999999999972
21
-43.
0
LINE
8
BLACK
6
CONTINUOUS
10
113.5499999999999972
20
-76.0499999999999972
11
127.5499999999999972
21
-76.0499999999999972
0
LINE
8
BLACK
6
CONTINUOUS
10
127.5499999999999972
20
-76.0499999999999972
11
127.5499999999999972
21
-62.0499999999999972
0
LINE
8
BLACK
6
CONTINUOUS
10
113.5499999999999972
20
-62.0499999999999972
11
113.5499999999999972
21
-76.0499999999999972
0
LINE
8
BLACK
6
CONTINUOUS
10
127.5499999999999972
20
-62.0499999999999972
11
113.5499999999999972
21
-62.0499999999999972
0
LINE
8
BLACK
6
CONTINUOUS
10
113.5499999999999972
20
-81.0999999999999943
11
113.5499999999999972
21
-95.0999999999999943
0
LINE
8
BLACK
6
CONTINUOUS
10
113.5499999999999972
20
-95.0999999999999943
11
127.5499999999999972
21
-95.0999999999999943
0
LINE
8
BLACK
6
CONTINUOUS
10
127.5499999999999972
20
-95.0999999999999943
11
127.5499999999999972
21
-81.0999999999999943
0
LINE
8
BLACK
6
CONTINUOUS
10
127.5499999999999972
20
-81.0999999999999943
11
113.5499999999999972
21
-81.0999999999999943
0
LINE
8
BLACK
6
CONTINUOUS
10
113.5499999999999972
20
-100.1499999999999915
11
113.5499999999999972
21
-114.1499999999999915
0
LINE
8
BLACK
6
CONTINUOUS
10
113.5499999999999972
20
-114.1499999999999915
11
127.5499999999999972
21
-114.1499999999999915
0
LINE
8
BLACK
6
CONTINUOUS
10
127.5499999999999972
20
-114.1499999999999915
11
127.5499999999999972
21
-100.1499999999999915
0
LINE
8
BLACK
6
CONTINUOUS
10
127.5499999999999972
20
-100.1499999999999915
11
113.5499999999999972
21
-100.1499999999999915
0
LINE
8
BLACK
6
CONTINUOUS
10
109.0267860000000013
20
-123.4502529999999894
11
112.6502529999999922
21
-136.9732139999999845
0
LINE
8
BLACK
6
CONTINUOUS
10
126.1732139999999873
20
-133.3497470000000078
11
122.5497469999999964
21
-119.8267859999999985
0
LINE
8
BLACK
6
CONTINUOUS
10
112.6502529999999922
20
-136.9732139999999845
11
126.1732139999999873
21
-133.3497470000000078
0
LINE
8
BLACK
6
CONTINUOUS
10
122.5497469999999964
20
-119.8267859999999985
11
109.0267860000000013
21
-123.4502529999999894
0
LINE
8
BLACK
6
CONTINUOUS
10
87.1478219999999908
20
-130.8378219999999885
11
94.1478219999999908
21
-142.9621779999999944
0
LINE
8
BLACK
6
CONTINUOUS
10
99.2721779999999967
20
-123.8378219999999885
11
87.1478219999999908
21
-130.8378219999999885
0
LINE
8
BLACK
6
CONTINUOUS
10
94.1478219999999908
20
-142.9621779999999944
11
106.2721779999999967
21
-135.9621779999999944
0
LINE
8
BLACK
6
CONTINUOUS
10
106.2721779999999967
20
-135.9621779999999944
11
99.2721779999999967
21
-123.8378219999999885
0
LINE
8
BLACK
6
CONTINUOUS
10
208.7999999999999829
20
-120.6499999999999915
11
222.7999999999999829
21
-120.6499999999999915
0
LINE
8
BLACK
6
CONTINUOUS
10
222.7999999999999829
20
-120.6499999999999915
11
222.7999999999999829
21
-106.6499999999999915
0
LINE
8
BLACK
6
CONTINUOUS
10
208.7999999999999829
20
-106.6499999999999915
11
208.7999999999999829
21
-120.6499999999999915
0
LINE
8
BLACK
6
CONTINUOUS
10
222.7999999999999829
20
-106.6499999999999915
11
208.7999999999999829
21
-106.6499999999999915
0
LINE
8
BLACK
6
CONTINUOUS
10
101.8999999999999915
20
-117.8999999999999915
11
104.0999999999999943
21
-120.0999999999999943
0
LINE
8
BLACK
6
CONTINUOUS
10
104.0999999999999943
20
-117.8999999999999915
11
101.8999999999999915
21
-120.0999999999999943
0
LINE
8
BLACK
6
CONTINUOUS
10
129.5749999999999886
20
-93.9500000000000028
11
131.7750000000000057
21
-96.1499999999999915
0
LINE
8
BLACK
6
CONTINUOUS
10
131.7750000000000057
20
-93.9500000000000028
11
129.5749999999999886
21
-96.1499999999999915
0
LINE
8
BLACK
6
CONTINUOUS
10
129.625
20
-55.8499999999999943
11
131.8249999999999886
21
-58.0499999999999972
0
LINE
8
BLACK
6
CONTINUOUS
10
131.8249999999999886
20
-55.8499999999999943
11
129.625
21
-58.0499999999999972
0
LINE
8
BLACK
6
CONTINUOUS
10
205.1749999999999829
20
-64.9249999999999972
11
207.375
21
-67.125
0
LINE
8
BLACK
6
CONTINUOUS
10
207.375
20
-64.9249999999999972
11
205.1749999999999829
21
-67.125
0
LINE
8
BLACK
6
CONTINUOUS
10
205.1749999999999829
20
-103.0249999999999915
11
207.375
21
-105.2249999999999943
0
LINE
8
BLACK
6
CONTINUOUS
10
207.375
20
-103.0249999999999915
11
205.1749999999999829
21
-105.2249999999999943
0
LINE
8
BLACK
6
CONTINUOUS
10
84.6278389999999945
20
-149.8232339999999851
11
84.6278389999999945
21
-147.8232339999999851
0
LINE
8
BLACK
6
CONTINUOUS
10
84.6278389999999945
20
-147.8232339999999851
11
85.104028999999997
21
-147.8232339999999851
0
LINE
8
BLACK
6
CONTINUOUS
10
85.104028999999997
20
-147.8232339999999851
11
85.3897439999999932
21
-147.91847199999998
0
LINE
8
BLACK
6
CONTINUOUS
10
85.3897439999999932
20
-147.91847199999998
11
85.5802199999999971
21
-148.108947999999998
0
LINE
8
BLACK
6
CONTINUOUS
10
85.5802199999999971
20
-148.108947999999998
11
85.6754579999999919
21
-148.2994239999999877
0
LINE
8
BLACK
6
CONTINUOUS
10
85.6754579999999919
20
-148.2994239999999877
11
85.7706960000000009
21
-148.6803759999999954
0
LINE
8
BLACK
6
CONTINUOUS
10
85.7706960000000009
20
-148.6803759999999954
11
85.7706960000000009
21
-148.9660910000000058
0
LINE
8
BLACK
6
CONTINUOUS
10
85.7706960000000009
20
-148.9660910000000058
11
85.6754579999999919
21
-149.3470429999999851
0
LINE
8
BLACK
6
CONTINUOUS
10
85.6754579999999919
20
-149.3470429999999851
11
85.5802199999999971
21
-149.5375190000000032
0
LINE
8
BLACK
6
CONTINUOUS
10
85.5802199999999971
20
-149.5375190000000032
11
85.3897439999999932
21
-149.7279959999999903
0
LINE
8
BLACK
6
CONTINUOUS
10
85.3897439999999932
20
-149.7279959999999903
11
85.104028999999997
21
-149.8232339999999851
0
LINE
8
BLACK
6
CONTINUOUS
10
85.104028999999997
20
-149.8232339999999851
11
84.6278389999999945
21
-149.8232339999999851
0
LINE
8
BLACK
6
CONTINUOUS
10
86.6278389999999945
20
-149.8232339999999851
11
86.6278389999999945
21
-148.4899000000000058
0
LINE
8
BLACK
6
CONTINUOUS
10
86.6278389999999945
20
-148.8708529999999826
11
86.7230769999999893
21
-148.6803759999999954
0
LINE
8
BLACK
6
CONTINUOUS
10
86.7230769999999893
20
-148.6803759999999954
11
86.8183149999999983
21
-148.5851380000000006
0
LINE
8
BLACK
6
CONTINUOUS
10
86.8183149999999983
20
-148.5851380000000006
11
87.0087910000000022
21
-148.4899000000000058
0
LINE
8
BLACK
6
CONTINUOUS
10
87.0087910000000022
20
-148.4899000000000058
11
87.1992679999999893
21
-148.4899000000000058
0
LINE
8
BLACK
6
CONTINUOUS
10
87.8659339999999958
20
-149.8232339999999851
11
87.8659339999999958
21
-148.4899000000000058
0
LINE
8
BLACK
6
CONTINUOUS
10
87.8659339999999958
20
-147.8232339999999851
11
87.7706960000000009
21
-147.91847199999998
0
LINE
8
BLACK
6
CONTINUOUS
10
87.7706960000000009
20
-147.91847199999998
11
87.8659339999999958
21
-148.0137100000000032
0
LINE
8
BLACK
6
CONTINUOUS
10
87.8659339999999958
20
-148.0137100000000032
11
87.9611719999999906
21
-147.91847199999998
0
LINE
8
BLACK
6
CONTINUOUS
10
87.9611719999999906
20
-147.91847199999998
11
87.8659339999999958
21
-147.8232339999999851
0
LINE
8
BLACK
6
CONTINUOUS
10
87.8659339999999958
20
-147.8232339999999851
11
87.8659339999999958
21
-148.0137100000000032
0
LINE
8
BLACK
6
CONTINUOUS
10
89.104028999999997
20
-149.8232339999999851
11
88.9135529999999932
21
-149.7279959999999903
0
LINE
8
BLACK
6
CONTINUOUS
10
88.9135529999999932
20
-149.7279959999999903
11
88.8183149999999983
21
-149.5375190000000032
0
LINE
8
BLACK
6
CONTINUOUS
10
88.8183149999999983
20
-149.5375190000000032
11
88.8183149999999983
21
-147.8232339999999851
0
LINE
8
BLACK
6
CONTINUOUS
10
90.1516479999999945
20
-149.8232339999999851
11
89.9611719999999906
21
-149.7279959999999903
0
LINE
8
BLACK
6
CONTINUOUS
10
89.9611719999999906
20
-149.7279959999999903
11
89.8659339999999958
21
-149.5375190000000032
0
LINE
8
BLACK
6
CONTINUOUS
10
89.8659339999999958
20
-149.5375190000000032
11
89.8659339999999958
21
-147.8232339999999851
0
LINE
8
BLACK
6
CONTINUOUS
10
92.4373629999999906
20
-149.8232339999999851
11
92.4373629999999906
21
-147.8232339999999851
0
LINE
8
BLACK
6
CONTINUOUS
10
92.4373629999999906
20
-147.8232339999999851
11
93.1040299999999945
21
-149.2518049999999903
0
LINE
8
BLACK
6
CONTINUOUS
10
93.1040299999999945
20
-149.2518049999999903
11
93.7706960000000009
21
-147.8232339999999851
0
LINE
8
BLACK
6
CONTINUOUS
10
93.7706960000000009
20
-147.8232339999999851
11
93.7706960000000009
21
-149.8232339999999851
0
LINE
8
BLACK
6
CONTINUOUS
10
95.5802199999999971
20
-149.8232339999999851
11
95.5802199999999971
21
-148.7756149999999877
0
LINE
8
BLACK
6
CONTINUOUS
10
95.5802199999999971
20
-148.7756149999999877
11
95.4849820000000022
21
-148.5851380000000006
0
LINE
8
BLACK
6
CONTINUOUS
10
95.4849820000000022
20
-148.5851380000000006
11
95.2945059999999984
21
-148.4899000000000058
0
LINE
8
BLACK
6
CONTINUOUS
10
95.2945059999999984
20
-148.4899000000000058
11
94.9135529999999932
21
-148.4899000000000058
0
LINE
8
BLACK
6
CONTINUOUS
10
94.9135529999999932
20
-148.4899000000000058
11
94.7230769999999893
21
-148.5851380000000006
0
LINE
8
BLACK
6
CONTINUOUS
10
95.5802199999999971
20
-149.7279959999999903
11
95.3897439999999932
21
-149.8232339999999851
0
LINE
8
BLACK
6
CONTINUOUS
10
95.3897439999999932
20
-149.8232339999999851
11
94.9135529999999932
21
-149.8232339999999851
0
LINE
8
BLACK
6
CONTINUOUS
10
94.9135529999999932
20
-149.8232339999999851
11
94.7230769999999893
21
-149.7279959999999903
0
LINE
8
BLACK
6
CONTINUOUS
10
94.7230769999999893
20
-149.7279959999999903
11
94.6278389999999945
21
-149.5375190000000032
0
LINE
8
BLACK
6
CONTINUOUS
10
94.6278389999999945
20
-149.5375190000000032
11
94.6278389999999945
21
-149.3470429999999851
0
LINE
8
BLACK
6
CONTINUOUS
10
94.6278389999999945
20
-149.3470429999999851
11
94.7230769999999893
21
-149.1565669999999955
0
LINE
8
BLACK
6
CONTINUOUS
10
94.7230769999999893
20
-149.1565669999999955
11
94.9135529999999932
21
-149.0613290000000006
0
LINE
8
BLACK
6
CONTINUOUS
10
94.9135529999999932
20
-149.0613290000000006
11
95.3897439999999932
21
-149.0613290000000006
0
LINE
8
BLACK
6
CONTINUOUS
10
95.3897439999999932
20
-149.0613290000000006
11
95.5802199999999971
21
-148.9660910000000058
0
LINE
8
BLACK
6
CONTINUOUS
10
96.5326009999999997
20
-148.4899000000000058
11
96.5326009999999997
21
-150.4899000000000058
0
LINE
8
BLACK
6
CONTINUOUS
10
96.5326009999999997
20
-148.5851380000000006
11
96.7230769999999893
21
-148.4899000000000058
0
LINE
8
BLACK
6
CONTINUOUS
10
96.7230769999999893
20
-148.4899000000000058
11
97.1040299999999945
21
-148.4899000000000058
0
LINE
8
BLACK
6
CONTINUOUS
10
97.1040299999999945
20
-148.4899000000000058
11
97.2945059999999984
21
-148.5851380000000006
0
LINE
8
BLACK
6
CONTINUOUS
10
97.2945059999999984
20
-148.5851380000000006
11
97.3897439999999932
21
-148.6803759999999954
0
LINE
8
BLACK
6
CONTINUOUS
10
97.3897439999999932
20
-148.6803759999999954
11
97.4849820000000022
21
-148.8708529999999826
0
LINE
8
BLACK
6
CONTINUOUS
10
97.4849820000000022
20
-148.8708529999999826
11
97.4849820000000022
21
-149.4422809999999799
0
LINE
8
BLACK
6
CONTINUOUS
10
97.4849820000000022
20
-149.4422809999999799
11
97.3897439999999932
21
-149.632756999999998
0
LINE
8
BLACK
6
CONTINUOUS
10
97.3897439999999932
20
-149.632756999999998
11
97.2945059999999984
21
-149.7279959999999903
0
LINE
8
BLACK
6
CONTINUOUS
10
97.2945059999999984
20
-149.7279959999999903
11
97.1040299999999945
21
-149.8232339999999851
0
LINE
8
BLACK
6
CONTINUOUS
10
97.1040299999999945
20
-149.8232339999999851
11
96.7230769999999893
21
-149.8232339999999851
0
LINE
8
BLACK
6
CONTINUOUS
10
96.7230769999999893
20
-149.8232339999999851
11
96.5326009999999997
21
-149.7279959999999903
0
LINE
8
BLACK
6
CONTINUOUS
10
98.3421249999999958
20
-149.632756999999998
11
98.4373629999999906
21
-149.7279959999999903
0
LINE
8
BLACK
6
CONTINUOUS
10
98.4373629999999906
20
-149.7279959999999903
11
98.3421249999999958
21
-149.8232339999999851
0
LINE
8
BLACK
6
CONTINUOUS
10
98.3421249999999958
20
-149.8232339999999851
11
98.246887000000001
21
-149.7279959999999903
0
LINE
8
BLACK
6
CONTINUOUS
10
98.246887000000001
20
-149.7279959999999903
11
98.3421249999999958
21
-149.632756999999998
0
LINE
8
BLACK
6
CONTINUOUS
10
98.3421249999999958
20
-149.632756999999998
11
98.3421249999999958
21
-149.8232339999999851
0
LINE
8
BLACK
6
CONTINUOUS
10
98.3421249999999958
20
-148.5851380000000006
11
98.4373629999999906
21
-148.6803759999999954
0
LINE
8
BLACK
6
CONTINUOUS
10
98.4373629999999906
20
-148.6803759999999954
11
98.3421249999999958
21
-148.7756149999999877
0
LINE
8
BLACK
6
CONTINUOUS
10
98.3421249999999958
20
-148.7756149999999877
11
98.246887000000001
21
-148.6803759999999954
0
LINE
8
BLACK
6
CONTINUOUS
10
98.246887000000001
20
-148.6803759999999954
11
98.3421249999999958
21
-148.5851380000000006
0
LINE
8
BLACK
6
CONTINUOUS
10
98.3421249999999958
20
-148.5851380000000006
11
98.3421249999999958
21
-148.7756149999999877
0
LINE
8
BLACK
6
CONTINUOUS
10
80.0200710000000015
20
-152.108395999999999
11
82.0200710000000015
21
-154.108395999999999
0
LINE
8
BLACK
6
CONTINUOUS
10
82.0200710000000015
20
-152.108395999999999
11
80.0200710000000015
21
-154.108395999999999
0
LINE
8
BLACK
6
CONTINUOUS
10
84.5326009999999997
20
-152.2137099999999919
11
84.6278389999999945
21
-152.118471999999997
0
LINE
8
BLACK
6
CONTINUOUS
10
84.6278389999999945
20
-152.118471999999997
11
84.8183149999999983
21
-152.0232340000000022
0
LINE
8
BLACK
6
CONTINUOUS
10
84.8183149999999983
20
-152.0232340000000022
11
85.2945059999999984
21
-152.0232340000000022
0
LINE
8
BLACK
6
CONTINUOUS
10
85.2945059999999984
20
-152.0232340000000022
11
85.4849820000000022
21
-152.118471999999997
0
LINE
8
BLACK
6
CONTINUOUS
10
85.4849820000000022
20
-152.118471999999997
11
85.5802199999999971
21
-152.2137099999999919
0
LINE
8
BLACK
6
CONTINUOUS
10
85.5802199999999971
20
-152.2137099999999919
11
85.6754579999999919
21
-152.4041859999999815
0
LINE
8
BLACK
6
CONTINUOUS
10
85.6754579999999919
20
-152.4041859999999815
11
85.6754579999999919
21
-152.5946619999999996
0
LINE
8
BLACK
6
CONTINUOUS
10
85.6754579999999919
20
-152.5946619999999996
11
85.5802199999999971
21
-152.8803759999999841
0
LINE
8
BLACK
6
CONTINUOUS
10
85.5802199999999971
20
-152.8803759999999841
11
84.4373629999999906
21
-154.0232340000000022
0
LINE
8
BLACK
6
CONTINUOUS
10
84.4373629999999906
20
-154.0232340000000022
11
85.6754579999999919
21
-154.0232340000000022
0
LINE
8
BLACK
6
CONTINUOUS
10
86.5326009999999997
20
-153.8327569999999866
11
86.6278389999999945
21
-153.9279959999999789
0
LINE
8
BLACK
6
CONTINUOUS
10
86.6278389999999945
20
-153.9279959999999789
11
86.5326009999999997
21
-154.0232340000000022
0
LINE
8
BLACK
6
CONTINUOUS
10
86.5326009999999997
20
-154.0232340000000022
11
86.4373629999999906
21
-153.9279959999999789
0
LINE
8
BLACK
6
CONTINUOUS
10
86.4373629999999906
20
-153.9279959999999789
11
86.5326009999999997
21
-153.8327569999999866
0
LINE
8
BLACK
6
CONTINUOUS
10
86.5326009999999997
20
-153.8327569999999866
11
86.5326009999999997
21
-154.0232340000000022
0
LINE
8
BLACK
6
CONTINUOUS
10
87.3897439999999932
20
-152.2137099999999919
11
87.4849820000000022
21
-152.118471999999997
0
LINE
8
BLACK
6
CONTINUOUS
10
87.4849820000000022
20
-152.118471999999997
11
87.6754579999999919
21
-152.0232340000000022
0
LINE
8
BLACK
6
CONTINUOUS
10
87.6754579999999919
20
-152.0232340000000022
11
88.1516489999999919
21
-152.0232340000000022
0
LINE
8
BLACK
6
CONTINUOUS
10
88.1516489999999919
20
-152.0232340000000022
11
88.3421249999999958
21
-152.118471999999997
0
LINE
8
BLACK
6
CONTINUOUS
10
88.3421249999999958
20
-152.118471999999997
11
88.4373629999999906
21
-152.2137099999999919
0
LINE
8
BLACK
6
CONTINUOUS
10
88.4373629999999906
20
-152.2137099999999919
11
88.5326009999999997
21
-152.4041859999999815
0
LINE
8
BLACK
6
CONTINUOUS
10
88.5326009999999997
20
-152.4041859999999815
11
88.5326009999999997
21
-152.5946619999999996
0
LINE
8
BLACK
6
CONTINUOUS
10
88.5326009999999997
20
-152.5946619999999996
11
88.4373629999999906
21
-152.8803759999999841
0
LINE
8
BLACK
6
CONTINUOUS
10
88.4373629999999906
20
-152.8803759999999841
11
87.2945059999999984
21
-154.0232340000000022
0
LINE
8
BLACK
6
CONTINUOUS
10
87.2945059999999984
20
-154.0232340000000022
11
88.5326009999999997
21
-154.0232340000000022
0
LINE
8
BLACK
6
CONTINUOUS
10
89.7706960000000009
20
-152.0232340000000022
11
89.9611730000000023
21
-152.0232340000000022
0
LINE
8
BLACK
6
CONTINUOUS
10
89.9611730000000023
20
-152.0232340000000022
11
90.1516489999999919
21
-152.118471999999997
0
LINE
8
BLACK
6
CONTINUOUS
10
90.1516489999999919
20
-152.118471999999997
11
90.246887000000001
21
-152.2137099999999919
0
LINE
8
BLACK
6
CONTINUOUS
10
90.246887000000001
20
-152.2137099999999919
11
90.3421249999999958
21
-152.4041859999999815
0
LINE
8
BLACK
6
CONTINUOUS
10
90.3421249999999958
20
-152.4041859999999815
11
90.4373629999999906
21
-152.7851379999999892
0
LINE
8
BLACK
6
CONTINUOUS
10
90.4373629999999906
20
-152.7851379999999892
11
90.4373629999999906
21
-153.2613289999999893
0
LINE
8
BLACK
6
CONTINUOUS
10
90.4373629999999906
20
-153.2613289999999893
11
90.3421249999999958
21
-153.642280999999997
0
LINE
8
BLACK
6
CONTINUOUS
10
90.3421249999999958
20
-153.642280999999997
11
90.246887000000001
21
-153.8327569999999866
0
LINE
8
BLACK
6
CONTINUOUS
10
90.246887000000001
20
-153.8327569999999866
11
90.1516489999999919
21
-153.9279959999999789
0
LINE
8
BLACK
6
CONTINUOUS
10
90.1516489999999919
20
-153.9279959999999789
11
89.9611730000000023
21
-154.0232340000000022
0
LINE
8
BLACK
6
CONTINUOUS
10
89.9611730000000023
20
-154.0232340000000022
11
89.7706960000000009
21
-154.0232340000000022
0
LINE
8
BLACK
6
CONTINUOUS
10
89.7706960000000009
20
-154.0232340000000022
11
89.5802199999999971
21
-153.9279959999999789
0
LINE
8
BLACK
6
CONTINUOUS
10
89.5802199999999971
20
-153.9279959999999789
11
89.4849820000000022
21
-153.8327569999999866
0
LINE
8
BLACK
6
CONTINUOUS
10
89.4849820000000022
20
-153.8327569999999866
11
89.3897439999999932
21
-153.642280999999997
0
LINE
8
BLACK
6
CONTINUOUS
10
89.3897439999999932
20
-153.642280999999997
11
89.2945059999999984
21
-153.2613289999999893
0
LINE
8
BLACK
6
CONTINUOUS
10
89.2945059999999984
20
-153.2613289999999893
11
89.2945059999999984
21
-152.7851379999999892
0
LINE
8
BLACK
6
CONTINUOUS
10
89.2945059999999984
20
-152.7851379999999892
11
89.3897439999999932
21
-152.4041859999999815
0
LINE
8
BLACK
6
CONTINUOUS
10
89.3897439999999932
20
-152.4041859999999815
11
89.4849820000000022
21
-152.2137099999999919
0
LINE
8
BLACK
6
CONTINUOUS
10
89.4849820000000022
20
-152.2137099999999919
11
89.5802199999999971
21
-152.118471999999997
0
LINE
8
BLACK
6
CONTINUOUS
10
89.5802199999999971
20
-152.118471999999997
11
89.7706960000000009
21
-152.0232340000000022
0
LINE
8
BLACK
6
CONTINUOUS
10
91.6754579999999919
20
-152.0232340000000022
11
91.8659349999999932
21
-152.0232340000000022
0
LINE
8
BLACK
6
CONTINUOUS
10
91.8659349999999932
20
-152.0232340000000022
11
92.0564109999999971
21
-152.118471999999997
0
LINE
8
BLACK
6
CONTINUOUS
10
92.0564109999999971
20
-152.118471999999997
11
92.1516489999999919
21
-152.2137099999999919
0
LINE
8
BLACK
6
CONTINUOUS
10
92.1516489999999919
20
-152.2137099999999919
11
92.246887000000001
21
-152.4041859999999815
0
LINE
8
BLACK
6
CONTINUOUS
10
92.246887000000001
20
-152.4041859999999815
11
92.3421249999999958
21
-152.7851379999999892
0
LINE
8
BLACK
6
CONTINUOUS
10
92.3421249999999958
20
-152.7851379999999892
11
92.3421249999999958
21
-153.2613289999999893
0
LINE
8
BLACK
6
CONTINUOUS
10
92.3421249999999958
20
-153.2613289999999893
11
92.246887000000001
21
-153.642280999999997
0
LINE
8
BLACK
6
CONTINUOUS
10
92.246887000000001
20
-153.642280999999997
11
92.1516489999999919
21
-153.8327569999999866
0
LINE
8
BLACK
6
CONTINUOUS
10
92.1516489999999919
20
-153.8327569999999866
11
92.0564109999999971
21
-153.9279959999999789
0
LINE
8
BLACK
6
CONTINUOUS
10
92.0564109999999971
20
-153.9279959999999789
11
91.8659349999999932
21
-154.0232340000000022
0
LINE
8
BLACK
6
CONTINUOUS
10
91.8659349999999932
20
-154.0232340000000022
11
91.6754579999999919
21
-154.0232340000000022
0
LINE
8
BLACK
6
CONTINUOUS
10
91.6754579999999919
20
-154.0232340000000022
11
91.4849820000000022
21
-153.9279959999999789
0
LINE
8
BLACK
6
CONTINUOUS
10
91.4849820000000022
20
-153.9279959999999789
11
91.3897439999999932
21
-153.8327569999999866
0
LINE
8
BLACK
6
CONTINUOUS
10
91.3897439999999932
20
-153.8327569999999866
11
91.2945059999999984
21
-153.642280999999997
0
LINE
8
BLACK
6
CONTINUOUS
10
91.2945059999999984
20
-153.642280999999997
11
91.1992679999999893
21
-153.2613289999999893
0
LINE
8
BLACK
6
CONTINUOUS
10
91.1992679999999893
20
-153.2613289999999893
11
91.1992679999999893
21
-152.7851379999999892
0
LINE
8
BLACK
6
CONTINUOUS
10
91.1992679999999893
20
-152.7851379999999892
11
91.2945059999999984
21
-152.4041859999999815
0
LINE
8
BLACK
6
CONTINUOUS
10
91.2945059999999984
20
-152.4041859999999815
11
91.3897439999999932
21
-152.2137099999999919
0
LINE
8
BLACK
6
CONTINUOUS
10
91.3897439999999932
20
-152.2137099999999919
11
91.4849820000000022
21
-152.118471999999997
0
LINE
8
BLACK
6
CONTINUOUS
10
91.4849820000000022
20
-152.118471999999997
11
91.6754579999999919
21
-152.0232340000000022
0
LINE
8
BLACK
6
CONTINUOUS
10
93.1992679999999893
20
-154.0232340000000022
11
93.1992679999999893
21
-152.6898999999999944
0
LINE
8
BLACK
6
CONTINUOUS
10
93.1992679999999893
20
-152.8803759999999841
11
93.2945059999999984
21
-152.7851379999999892
0
LINE
8
BLACK
6
CONTINUOUS
10
93.2945059999999984
20
-152.7851379999999892
11
93.4849820000000022
21
-152.6898999999999944
0
LINE
8
BLACK
6
CONTINUOUS
10
93.4849820000000022
20
-152.6898999999999944
11
93.7706969999999984
21
-152.6898999999999944
0
LINE
8
BLACK
6
CONTINUOUS
10
93.7706969999999984
20
-152.6898999999999944
11
93.9611730000000023
21
-152.7851379999999892
0
LINE
8
BLACK
6
CONTINUOUS
10
93.9611730000000023
20
-152.7851379999999892
11
94.0564109999999971
21
-152.9756150000000048
0
LINE
8
BLACK
6
CONTINUOUS
10
94.0564109999999971
20
-152.9756150000000048
11
94.0564109999999971
21
-154.0232340000000022
0
LINE
8
BLACK
6
CONTINUOUS
10
94.0564109999999971
20
-152.9756150000000048
11
94.1516489999999919
21
-152.7851379999999892
0
LINE
8
BLACK
6
CONTINUOUS
10
94.1516489999999919
20
-152.7851379999999892
11
94.3421249999999958
21
-152.6898999999999944
0
LINE
8
BLACK
6
CONTINUOUS
10
94.3421249999999958
20
-152.6898999999999944
11
94.6278389999999945
21
-152.6898999999999944
0
LINE
8
BLACK
6
CONTINUOUS
10
94.6278389999999945
20
-152.6898999999999944
11
94.8183159999999958
21
-152.7851379999999892
0
LINE
8
BLACK
6
CONTINUOUS
10
94.8183159999999958
20
-152.7851379999999892
11
94.9135539999999907
21
-152.9756150000000048
0
LINE
8
BLACK
6
CONTINUOUS
10
94.9135539999999907
20
-152.9756150000000048
11
94.9135539999999907
21
-154.0232340000000022
0
LINE
8
BLACK
6
CONTINUOUS
10
95.8659349999999932
20
-154.0232340000000022
11
95.8659349999999932
21
-152.6898999999999944
0
LINE
8
BLACK
6
CONTINUOUS
10
95.8659349999999932
20
-152.8803759999999841
11
95.9611730000000023
21
-152.7851379999999892
0
LINE
8
BLACK
6
CONTINUOUS
10
95.9611730000000023
20
-152.7851379999999892
11
96.1516489999999919
21
-152.6898999999999944
0
LINE
8
BLACK
6
CONTINUOUS
10
96.1516489999999919
20
-152.6898999999999944
11
96.4373640000000023
21
-152.6898999999999944
0
LINE
8
BLACK
6
CONTINUOUS
10
96.4373640000000023
20
-152.6898999999999944
11
96.627839999999992
21
-152.7851379999999892
0
LINE
8
BLACK
6
CONTINUOUS
10
96.627839999999992
20
-152.7851379999999892
11
96.723078000000001
21
-152.9756150000000048
0
LINE
8
BLACK
6
CONTINUOUS
10
96.723078000000001
20
-152.9756150000000048
11
96.723078000000001
21
-154.0232340000000022
0
LINE
8
BLACK
6
CONTINUOUS
10
96.723078000000001
20
-152.9756150000000048
11
96.8183159999999958
21
-152.7851379999999892
0
LINE
8
BLACK
6
CONTINUOUS
10
96.8183159999999958
20
-152.7851379999999892
11
97.0087919999999997
21
-152.6898999999999944
0
LINE
8
BLACK
6
CONTINUOUS
10
97.0087919999999997
20
-152.6898999999999944
11
97.2945059999999984
21
-152.6898999999999944
0
LINE
8
BLACK
6
CONTINUOUS
10
97.2945059999999984
20
-152.6898999999999944
11
97.4849829999999997
21
-152.7851379999999892
0
LINE
8
BLACK
6
CONTINUOUS
10
97.4849829999999997
20
-152.7851379999999892
11
97.5802209999999945
21
-152.9756150000000048
0
LINE
8
BLACK
6
CONTINUOUS
10
97.5802209999999945
20
-152.9756150000000048
11
97.5802209999999945
21
-154.0232340000000022
0
LINE
8
BLACK
6
CONTINUOUS
10
101.4849829999999997
20
-151.9279959999999789
11
99.7706979999999959
21
-154.4994240000000048
0
LINE
8
BLACK
6
CONTINUOUS
10
104.0564119999999946
20
-152.0232340000000022
11
104.2468889999999959
21
-152.0232340000000022
0
LINE
8
BLACK
6
CONTINUOUS
10
104.2468889999999959
20
-152.0232340000000022
11
104.4373649999999998
21
-152.118471999999997
0
LINE
8
BLACK
6
CONTINUOUS
10
104.4373649999999998
20
-152.118471999999997
11
104.5326029999999946
21
-152.2137099999999919
0
LINE
8
BLACK
6
CONTINUOUS
10
104.5326029999999946
20
-152.2137099999999919
11
104.6278409999999894
21
-152.4041859999999815
0
LINE
8
BLACK
6
CONTINUOUS
10
104.6278409999999894
20
-152.4041859999999815
11
104.7230789999999985
21
-152.7851379999999892
0
LINE
8
BLACK
6
CONTINUOUS
10
104.7230789999999985
20
-152.7851379999999892
11
104.7230789999999985
21
-153.2613289999999893
0
LINE
8
BLACK
6
CONTINUOUS
10
104.7230789999999985
20
-153.2613289999999893
11
104.6278409999999894
21
-153.642280999999997
0
LINE
8
BLACK
6
CONTINUOUS
10
104.6278409999999894
20
-153.642280999999997
11
104.5326029999999946
21
-153.8327569999999866
0
LINE
8
BLACK
6
CONTINUOUS
10
104.5326029999999946
20
-153.8327569999999866
11
104.4373649999999998
21
-153.9279959999999789
0
LINE
8
BLACK
6
CONTINUOUS
10
104.4373649999999998
20
-153.9279959999999789
11
104.2468889999999959
21
-154.0232340000000022
0
LINE
8
BLACK
6
CONTINUOUS
10
104.2468889999999959
20
-154.0232340000000022
11
104.0564119999999946
21
-154.0232340000000022
0
LINE
8
BLACK
6
CONTINUOUS
10
104.0564119999999946
20
-154.0232340000000022
11
103.8659359999999907
21
-153.9279959999999789
0
LINE
8
BLACK
6
CONTINUOUS
10
103.8659359999999907
20
-153.9279959999999789
11
103.7706979999999959
21
-153.8327569999999866
0
LINE
8
BLACK
6
CONTINUOUS
10
103.7706979999999959
20
-153.8327569999999866
11
103.6754600000000011
21
-153.642280999999997
0
LINE
8
BLACK
6
CONTINUOUS
10
103.6754600000000011
20
-153.642280999999997
11
103.580221999999992
21
-153.2613289999999893
0
LINE
8
BLACK
6
CONTINUOUS
10
103.580221999999992
20
-153.2613289999999893
11
103.580221999999992
21
-152.7851379999999892
0
LINE
8
BLACK
6
CONTINUOUS
10
103.580221999999992
20
-152.7851379999999892
11
103.6754600000000011
21
-152.4041859999999815
0
LINE
8
BLACK
6
CONTINUOUS
10
103.6754600000000011
20
-152.4041859999999815
11
103.7706979999999959
21
-152.2137099999999919
0
LINE
8
BLACK
6
CONTINUOUS
10
103.7706979999999959
20
-152.2137099999999919
11
103.8659359999999907
21
-152.118471999999997
0
LINE
8
BLACK
6
CONTINUOUS
10
103.8659359999999907
20
-152.118471999999997
11
104.0564119999999946
21
-152.0232340000000022
0
LINE
8
BLACK
6
CONTINUOUS
10
105.580221999999992
20
-153.8327569999999866
11
105.6754600000000011
21
-153.9279959999999789
0
LINE
8
BLACK
6
CONTINUOUS
10
105.6754600000000011
20
-153.9279959999999789
11
105.580221999999992
21
-154.0232340000000022
0
LINE
8
BLACK
6
CONTINUOUS
10
105.580221999999992
20
-154.0232340000000022
11
105.4849839999999972
21
-153.9279959999999789
0
LINE
8
BLACK
6
CONTINUOUS
10
105.4849839999999972
20
-153.9279959999999789
11
105.580221999999992
21
-153.8327569999999866
0
LINE
8
BLACK
6
CONTINUOUS
10
105.580221999999992
20
-153.8327569999999866
11
105.580221999999992
21
-154.0232340000000022
0
LINE
8
BLACK
6
CONTINUOUS
10
106.9135549999999881
20
-152.0232340000000022
11
107.1040319999999895
21
-152.0232340000000022
0
LINE
8
BLACK
6
CONTINUOUS
10
107.1040319999999895
20
-152.0232340000000022
11
107.2945079999999933
21
-152.118471999999997
0
LINE
8
BLACK
6
CONTINUOUS
10
107.2945079999999933
20
-152.118471999999997
11
107.3897459999999882
21
-152.2137099999999919
0
LINE
8
BLACK
6
CONTINUOUS
10
107.3897459999999882
20
-152.2137099999999919
11
107.4849839999999972
21
-152.4041859999999815
0
LINE
8
BLACK
6
CONTINUOUS
10
107.4849839999999972
20
-152.4041859999999815
11
107.580221999999992
21
-152.7851379999999892
0
LINE
8
BLACK
6
CONTINUOUS
10
107.580221999999992
20
-152.7851379999999892
11
107.580221999999992
21
-153.2613289999999893
0
LINE
8
BLACK
6
CONTINUOUS
10
107.580221999999992
20
-153.2613289999999893
11
107.4849839999999972
21
-153.642280999999997
0
LINE
8
BLACK
6
CONTINUOUS
10
107.4849839999999972
20
-153.642280999999997
11
107.3897459999999882
21
-153.8327569999999866
0
LINE
8
BLACK
6
CONTINUOUS
10
107.3897459999999882
20
-153.8327569999999866
11
107.2945079999999933
21
-153.9279959999999789
0
LINE
8
BLACK
6
CONTINUOUS
10
107.2945079999999933
20
-153.9279959999999789
11
107.1040319999999895
21
-154.0232340000000022
0
LINE
8
BLACK
6
CONTINUOUS
10
107.1040319999999895
20
-154.0232340000000022
11
106.9135549999999881
21
-154.0232340000000022
0
LINE
8
BLACK
6
CONTINUOUS
10
106.9135549999999881
20
-154.0232340000000022
11
106.7230789999999985
21
-153.9279959999999789
0
LINE
8
BLACK
6
CONTINUOUS
10
106.7230789999999985
20
-153.9279959999999789
11
106.6278409999999894
21
-153.8327569999999866
0
LINE
8
BLACK
6
CONTINUOUS
10
106.6278409999999894
20
-153.8327569999999866
11
106.5326029999999946
21
-153.642280999999997
0
LINE
8
BLACK
6
CONTINUOUS
10
106.5326029999999946
20
-153.642280999999997
11
106.4373649999999998
21
-153.2613289999999893
0
LINE
8
BLACK
6
CONTINUOUS
10
106.4373649999999998
20
-153.2613289999999893
11
106.4373649999999998
21
-152.7851379999999892
0
LINE
8
BLACK
6
CONTINUOUS
10
106.4373649999999998
20
-152.7851379999999892
11
106.5326029999999946
21
-152.4041859999999815
0
LINE
8
BLACK
6
CONTINUOUS
10
106.5326029999999946
20
-152.4041859999999815
11
106.6278409999999894
21
-152.2137099999999919
0
LINE
8
BLACK
6
CONTINUOUS
10
106.6278409999999894
20
-152.2137099999999919
11
106.7230789999999985
21
-152.118471999999997
0
LINE
8
BLACK
6
CONTINUOUS
10
106.7230789999999985
20
-152.118471999999997
11
106.9135549999999881
21
-152.0232340000000022
0
LINE
8
BLACK
6
CONTINUOUS
10
108.7230789999999985
20
-152.8803759999999841
11
108.5326029999999946
21
-152.7851379999999892
0
LINE
8
BLACK
6
CONTINUOUS
10
108.5326029999999946
20
-152.7851379999999892
11
108.4373649999999998
21
-152.6898999999999944
0
LINE
8
BLACK
6
CONTINUOUS
10
108.4373649999999998
20
-152.6898999999999944
11
108.3421269999999907
21
-152.4994240000000048
0
LINE
8
BLACK
6
CONTINUOUS
10
108.3421269999999907
20
-152.4994240000000048
11
108.3421269999999907
21
-152.4041859999999815
0
LINE
8
BLACK
6
CONTINUOUS
10
108.3421269999999907
20
-152.4041859999999815
11
108.4373649999999998
21
-152.2137099999999919
0
LINE
8
BLACK
6
CONTINUOUS
10
108.4373649999999998
20
-152.2137099999999919
11
108.5326029999999946
21
-152.118471999999997
0
LINE
8
BLACK
6
CONTINUOUS
10
108.5326029999999946
20
-152.118471999999997
11
108.7230789999999985
21
-152.0232340000000022
0
LINE
8
BLACK
6
CONTINUOUS
10
108.7230789999999985
20
-152.0232340000000022
11
109.1040319999999895
21
-152.0232340000000022
0
LINE
8
BLACK
6
CONTINUOUS
10
109.1040319999999895
20
-152.0232340000000022
11
109.2945079999999933
21
-152.118471999999997
0
LINE
8
BLACK
6
CONTINUOUS
10
109.2945079999999933
20
-152.118471999999997
11
109.3897459999999882
21
-152.2137099999999919
0
LINE
8
BLACK
6
CONTINUOUS
10
109.3897459999999882
20
-152.2137099999999919
11
109.4849839999999972
21
-152.4041859999999815
0
LINE
8
BLACK
6
CONTINUOUS
10
109.4849839999999972
20
-152.4041859999999815
11
109.4849839999999972
21
-152.4994240000000048
0
LINE
8
BLACK
6
CONTINUOUS
10
109.4849839999999972
20
-152.4994240000000048
11
109.3897459999999882
21
-152.6898999999999944
0
LINE
8
BLACK
6
CONTINUOUS
10
109.3897459999999882
20
-152.6898999999999944
11
109.2945079999999933
21
-152.7851379999999892
0
LINE
8
BLACK
6
CONTINUOUS
10
109.2945079999999933
20
-152.7851379999999892
11
109.1040319999999895
21
-152.8803759999999841
0
LINE
8
BLACK
6
CONTINUOUS
10
109.1040319999999895
20
-152.8803759999999841
11
108.7230789999999985
21
-152.8803759999999841
0
LINE
8
BLACK
6
CONTINUOUS
10
108.7230789999999985
20
-152.8803759999999841
11
108.5326029999999946
21
-152.9756150000000048
0
LINE
8
BLACK
6
CONTINUOUS
10
108.5326029999999946
20
-152.9756150000000048
11
108.4373649999999998
21
-153.0708529999999996
0
LINE
8
BLACK
6
CONTINUOUS
10
108.4373649999999998
20
-153.0708529999999996
11
108.3421269999999907
21
-153.2613289999999893
0
LINE
8
BLACK
6
CONTINUOUS
10
108.3421269999999907
20
-153.2613289999999893
11
108.3421269999999907
21
-153.642280999999997
0
LINE
8
BLACK
6
CONTINUOUS
10
108.3421269999999907
20
-153.642280999999997
11
108.4373649999999998
21
-153.8327569999999866
0
LINE
8
BLACK
6
CONTINUOUS
10
108.4373649999999998
20
-153.8327569999999866
11
108.5326029999999946
21
-153.9279959999999789
0
LINE
8
BLACK
6
CONTINUOUS
10
108.5326029999999946
20
-153.9279959999999789
11
108.7230789999999985
21
-154.0232340000000022
0
LINE
8
BLACK
6
CONTINUOUS
10
108.7230789999999985
20
-154.0232340000000022
11
109.1040319999999895
21
-154.0232340000000022
0
LINE
8
BLACK
6
CONTINUOUS
10
109.1040319999999895
20
-154.0232340000000022
11
109.2945079999999933
21
-153.9279959999999789
0
LINE
8
BLACK
6
CONTINUOUS
10
109.2945079999999933
20
-153.9279959999999789
11
109.3897459999999882
21
-153.8327569999999866
0
LINE
8
BLACK
6
CONTINUOUS
10
109.3897459999999882
20
-153.8327569999999866
11
109.4849839999999972
21
-153.642280999999997
0
LINE
8
BLACK
6
CONTINUOUS
10
109.4849839999999972
20
-153.642280999999997
11
109.4849839999999972
21
-153.2613289999999893
0
LINE
8
BLACK
6
CONTINUOUS
10
109.4849839999999972
20
-153.2613289999999893
11
109.3897459999999882
21
-153.0708529999999996
0
LINE
8
BLACK
6
CONTINUOUS
10
109.3897459999999882
20
-153.0708529999999996
11
109.2945079999999933
21
-152.9756150000000048
0
LINE
8
BLACK
6
CONTINUOUS
10
109.2945079999999933
20
-152.9756150000000048
11
109.1040319999999895
21
-152.8803759999999841
0
LINE
8
BLACK
6
CONTINUOUS
10
111.1992699999999985
20
-152.0232340000000022
11
110.8183169999999933
21
-152.0232340000000022
0
LINE
8
BLACK
6
CONTINUOUS
10
110.8183169999999933
20
-152.0232340000000022
11
110.6278409999999894
21
-152.118471999999997
0
LINE
8
BLACK
6
CONTINUOUS
10
110.6278409999999894
20
-152.118471999999997
11
110.5326029999999946
21
-152.2137099999999919
0
LINE
8
BLACK
6
CONTINUOUS
10
110.5326029999999946
20
-152.2137099999999919
11
110.3421269999999907
21
-152.4994240000000048
0
LINE
8
BLACK
6
CONTINUOUS
10
110.3421269999999907
20
-152.4994240000000048
11
110.2468889999999959
21
-152.8803759999999841
0
LINE
8
BLACK
6
CONTINUOUS
10
110.2468889999999959
20
-152.8803759999999841
11
110.2468889999999959
21
-153.642280999999997
0
LINE
8
BLACK
6
CONTINUOUS
10
110.2468889999999959
20
-153.642280999999997
11
110.3421269999999907
21
-153.8327569999999866
0
LINE
8
BLACK
6
CONTINUOUS
10
110.3421269999999907
20
-153.8327569999999866
11
110.4373649999999998
21
-153.9279959999999789
0
LINE
8
BLACK
6
CONTINUOUS
10
110.4373649999999998
20
-153.9279959999999789
11
110.6278409999999894
21
-154.0232340000000022
0
LINE
8
BLACK
6
CONTINUOUS
10
110.6278409999999894
20
-154.0232340000000022
11
111.0087939999999946
21
-154.0232340000000022
0
LINE
8
BLACK
6
CONTINUOUS
10
111.0087939999999946
20
-154.0232340000000022
11
111.1992699999999985
21
-153.9279959999999789
0
LINE
8
BLACK
6
CONTINUOUS
10
111.1992699999999985
20
-153.9279959999999789
11
111.2945079999999933
21
-153.8327569999999866
0
LINE
8
BLACK
6
CONTINUOUS
10
111.2945079999999933
20
-153.8327569999999866
11
111.3897459999999882
21
-153.642280999999997
0
LINE
8
BLACK
6
CONTINUOUS
10
111.3897459999999882
20
-153.642280999999997
11
111.3897459999999882
21
-153.1660909999999944
0
LINE
8
BLACK
6
CONTINUOUS
10
111.3897459999999882
20
-153.1660909999999944
11
111.2945079999999933
21
-152.9756150000000048
0
LINE
8
BLACK
6
CONTINUOUS
10
111.2945079999999933
20
-152.9756150000000048
11
111.1992699999999985
21
-152.8803759999999841
0
LINE
8
BLACK
6
CONTINUOUS
10
111.1992699999999985
20
-152.8803759999999841
11
111.0087939999999946
21
-152.7851379999999892
0
LINE
8
BLACK
6
CONTINUOUS
10
111.0087939999999946
20
-152.7851379999999892
11
110.6278409999999894
21
-152.7851379999999892
0
LINE
8
BLACK
6
CONTINUOUS
10
110.6278409999999894
20
-152.7851379999999892
11
110.4373649999999998
21
-152.8803759999999841
0
LINE
8
BLACK
6
CONTINUOUS
10
110.4373649999999998
20
-152.8803759999999841
11
110.3421269999999907
21
-152.9756150000000048
0
LINE
8
BLACK
6
CONTINUOUS
10
110.3421269999999907
20
-152.9756150000000048
11
110.2468889999999959
21
-153.1660909999999944
0
LINE
8
BLACK
6
CONTINUOUS
10
113.1040319999999895
20
-152.0232340000000022
11
112.7230789999999985
21
-152.0232340000000022
0
LINE
8
BLACK
6
CONTINUOUS
10
112.7230789999999985
20
-152.0232340000000022
11
112.5326029999999946
21
-152.118471999999997
0
LINE
8
BLACK
6
CONTINUOUS
10
112.5326029999999946
20
-152.118471999999997
11
112.4373649999999998
21
-152.2137099999999919
0
LINE
8
BLACK
6
CONTINUOUS
10
112.4373649999999998
20
-152.2137099999999919
11
112.2468889999999959
21
-152.4994240000000048
0
LINE
8
BLACK
6
CONTINUOUS
10
112.2468889999999959
20
-152.4994240000000048
11
112.1516510000000011
21
-152.8803759999999841
0
LINE
8
BLACK
6
CONTINUOUS
10
112.1516510000000011
20
-152.8803759999999841
11
112.1516510000000011
21
-153.642280999999997
0
LINE
8
BLACK
6
CONTINUOUS
10
112.1516510000000011
20
-153.642280999999997
11
112.2468889999999959
21
-153.8327569999999866
0
LINE
8
BLACK
6
CONTINUOUS
10
112.2468889999999959
20
-153.8327569999999866
11
112.3421269999999907
21
-153.9279959999999789
0
LINE
8
BLACK
6
CONTINUOUS
10
112.3421269999999907
20
-153.9279959999999789
11
112.5326029999999946
21
-154.0232340000000022
0
LINE
8
BLACK
6
CONTINUOUS
10
112.5326029999999946
20
-154.0232340000000022
11
112.9135559999999998
21
-154.0232340000000022
0
LINE
8
BLACK
6
CONTINUOUS
10
112.9135559999999998
20
-154.0232340000000022
11
113.1040319999999895
21
-153.9279959999999789
0
LINE
8
BLACK
6
CONTINUOUS
10
113.1040319999999895
20
-153.9279959999999789
11
113.1992699999999985
21
-153.8327569999999866
0
LINE
8
BLACK
6
CONTINUOUS
10
113.1992699999999985
20
-153.8327569999999866
11
113.2945079999999933
21
-153.642280999999997
0
LINE
8
BLACK
6
CONTINUOUS
10
113.2945079999999933
20
-153.642280999999997
11
113.2945079999999933
21
-153.1660909999999944
0
LINE
8
BLACK
6
CONTINUOUS
10
113.2945079999999933
20
-153.1660909999999944
11
113.1992699999999985
21
-152.9756150000000048
0
LINE
8
BLACK
6
CONTINUOUS
10
113.1992699999999985
20
-152.9756150000000048
11
113.1040319999999895
21
-152.8803759999999841
0
LINE
8
BLACK
6
CONTINUOUS
10
113.1040319999999895
20
-152.8803759999999841
11
112.9135559999999998
21
-152.7851379999999892
0
LINE
8
BLACK
6
CONTINUOUS
10
112.9135559999999998
20
-152.7851379999999892
11
112.5326029999999946
21
-152.7851379999999892
0
LINE
8
BLACK
6
CONTINUOUS
10
112.5326029999999946
20
-152.7851379999999892
11
112.3421269999999907
21
-152.8803759999999841
0
LINE
8
BLACK
6
CONTINUOUS
10
112.3421269999999907
20
-152.8803759999999841
11
112.2468889999999959
21
-152.9756150000000048
0
LINE
8
BLACK
6
CONTINUOUS
10
112.2468889999999959
20
-152.9756150000000048
11
112.1516510000000011
21
-153.1660909999999944
0
LINE
8
BLACK
6
CONTINUOUS
10
114.0564129999999921
20
-152.0232340000000022
11
114.0564129999999921
21
-152.4041859999999815
0
LINE
8
BLACK
6
CONTINUOUS
10
114.8183179999999908
20
-152.0232340000000022
11
114.8183179999999908
21
-152.4041859999999815
0
LINE
8
BLACK
6
CONTINUOUS
10
117.7706999999999908
20
-154.7851379999999892
11
117.6754609999999985
21
-154.6898999999999944
0
LINE
8
BLACK
6
CONTINUOUS
10
117.6754609999999985
20
-154.6898999999999944
11
117.4849849999999947
21
-154.4041859999999815
0
LINE
8
BLACK
6
CONTINUOUS
10
117.4849849999999947
20
-154.4041859999999815
11
117.3897469999999998
21
-154.2137099999999919
0
LINE
8
BLACK
6
CONTINUOUS
10
117.3897469999999998
20
-154.2137099999999919
11
117.2945089999999908
21
-153.9279959999999789
0
LINE
8
BLACK
6
CONTINUOUS
10
117.2945089999999908
20
-153.9279959999999789
11
117.199270999999996
21
-153.4518049999999789
0
LINE
8
BLACK
6
CONTINUOUS
10
117.199270999999996
20
-153.4518049999999789
11
117.199270999999996
21
-153.0708529999999996
0
LINE
8
BLACK
6
CONTINUOUS
10
117.199270999999996
20
-153.0708529999999996
11
117.2945089999999908
21
-152.5946619999999996
0
LINE
8
BLACK
6
CONTINUOUS
10
117.2945089999999908
20
-152.5946619999999996
11
117.3897469999999998
21
-152.3089479999999867
0
LINE
8
BLACK
6
CONTINUOUS
10
117.3897469999999998
20
-152.3089479999999867
11
117.4849849999999947
21
-152.118471999999997
0
LINE
8
BLACK
6
CONTINUOUS
10
117.4849849999999947
20
-152.118471999999997
11
117.6754609999999985
21
-151.8327569999999866
0
LINE
8
BLACK
6
CONTINUOUS
10
117.6754609999999985
20
-151.8327569999999866
11
117.7706999999999908
21
-151.7375189999999918
0
LINE
8
BLACK
6
CONTINUOUS
10
119.4849849999999947
20
-152.0232340000000022
11
118.5326039999999921
21
-152.0232340000000022
0
LINE
8
BLACK
6
CONTINUOUS
10
118.5326039999999921
20
-152.0232340000000022
11
118.4373659999999973
21
-152.9756150000000048
0
LINE
8
BLACK
6
CONTINUOUS
10
118.4373659999999973
20
-152.9756150000000048
11
118.5326039999999921
21
-152.8803759999999841
0
LINE
8
BLACK
6
CONTINUOUS
10
118.5326039999999921
20
-152.8803759999999841
11
118.7230799999999959
21
-152.7851379999999892
0
LINE
8
BLACK
6
CONTINUOUS
10
118.7230799999999959
20
-152.7851379999999892
11
119.199270999999996
21
-152.7851379999999892
0
LINE
8
BLACK
6
CONTINUOUS
10
119.199270999999996
20
-152.7851379999999892
11
119.3897469999999998
21
-152.8803759999999841
0
LINE
8
BLACK
6
CONTINUOUS
10
119.3897469999999998
20
-152.8803759999999841
11
119.4849849999999947
21
-152.9756150000000048
0
LINE
8
BLACK
6
CONTINUOUS
10
119.4849849999999947
20
-152.9756150000000048
11
119.5802229999999895
21
-153.1660909999999944
0
LINE
8
BLACK
6
CONTINUOUS
10
119.5802229999999895
20
-153.1660909999999944
11
119.5802229999999895
21
-153.642280999999997
0
LINE
8
BLACK
6
CONTINUOUS
10
119.5802229999999895
20
-153.642280999999997
11
119.4849849999999947
21
-153.8327569999999866
0
LINE
8
BLACK
6
CONTINUOUS
10
119.4849849999999947
20
-153.8327569999999866
11
119.3897469999999998
21
-153.9279959999999789
0
LINE
8
BLACK
6
CONTINUOUS
10
119.3897469999999998
20
-153.9279959999999789
11
119.199270999999996
21
-154.0232340000000022
0
LINE
8
BLACK
6
CONTINUOUS
10
119.199270999999996
20
-154.0232340000000022
11
118.7230799999999959
21
-154.0232340000000022
0
LINE
8
BLACK
6
CONTINUOUS
10
118.7230799999999959
20
-154.0232340000000022
11
118.5326039999999921
21
-153.9279959999999789
0
LINE
8
BLACK
6
CONTINUOUS
10
118.5326039999999921
20
-153.9279959999999789
11
118.4373659999999973
21
-153.8327569999999866
0
LINE
8
BLACK
6
CONTINUOUS
10
121.9611759999999947
20
-154.0232340000000022
11
121.9611759999999947
21
-152.0232340000000022
0
LINE
8
BLACK
6
CONTINUOUS
10
122.8183189999999883
20
-154.0232340000000022
11
122.8183189999999883
21
-152.9756150000000048
0
LINE
8
BLACK
6
CONTINUOUS
10
122.8183189999999883
20
-152.9756150000000048
11
122.7230809999999934
21
-152.7851379999999892
0
LINE
8
BLACK
6
CONTINUOUS
10
122.7230809999999934
20
-152.7851379999999892
11
122.5326049999999896
21
-152.6898999999999944
0
LINE
8
BLACK
6
CONTINUOUS
10
122.5326049999999896
20
-152.6898999999999944
11
122.2468899999999934
21
-152.6898999999999944
0
LINE
8
BLACK
6
CONTINUOUS
10
122.2468899999999934
20
-152.6898999999999944
11
122.0564139999999895
21
-152.7851379999999892
0
LINE
8
BLACK
6
CONTINUOUS
10
122.0564139999999895
20
-152.7851379999999892
11
121.9611759999999947
21
-152.8803759999999841
0
LINE
8
BLACK
6
CONTINUOUS
10
124.0564139999999895
20
-154.0232340000000022
11
123.8659379999999999
21
-153.9279959999999789
0
LINE
8
BLACK
6
CONTINUOUS
10
123.8659379999999999
20
-153.9279959999999789
11
123.7706999999999908
21
-153.8327569999999866
0
LINE
8
BLACK
6
CONTINUOUS
10
123.7706999999999908
20
-153.8327569999999866
11
123.675461999999996
21
-153.642280999999997
0
LINE
8
BLACK
6
CONTINUOUS
10
123.675461999999996
20
-153.642280999999997
11
123.675461999999996
21
-153.0708529999999996
0
LINE
8
BLACK
6
CONTINUOUS
10
123.675461999999996
20
-153.0708529999999996
11
123.7706999999999908
21
-152.8803759999999841
0
LINE
8
BLACK
6
CONTINUOUS
10
123.7706999999999908
20
-152.8803759999999841
11
123.8659379999999999
21
-152.7851379999999892
0
LINE
8
BLACK
6
CONTINUOUS
10
123.8659379999999999
20
-152.7851379999999892
11
124.0564139999999895
21
-152.6898999999999944
0
LINE
8
BLACK
6
CONTINUOUS
10
124.0564139999999895
20
-152.6898999999999944
11
124.3421289999999999
21
-152.6898999999999944
0
LINE
8
BLACK
6
CONTINUOUS
10
124.3421289999999999
20
-152.6898999999999944
11
124.5326049999999896
21
-152.7851379999999892
0
LINE
8
BLACK
6
CONTINUOUS
10
124.5326049999999896
20
-152.7851379999999892
11
124.6278429999999986
21
-152.8803759999999841
0
LINE
8
BLACK
6
CONTINUOUS
10
124.6278429999999986
20
-152.8803759999999841
11
124.7230809999999934
21
-153.0708529999999996
0
LINE
8
BLACK
6
CONTINUOUS
10
124.7230809999999934
20
-153.0708529999999996
11
124.7230809999999934
21
-153.642280999999997
0
LINE
8
BLACK
6
CONTINUOUS
10
124.7230809999999934
20
-153.642280999999997
11
124.6278429999999986
21
-153.8327569999999866
0
LINE
8
BLACK
6
CONTINUOUS
10
124.6278429999999986
20
-153.8327569999999866
11
124.5326049999999896
21
-153.9279959999999789
0
LINE
8
BLACK
6
CONTINUOUS
10
124.5326049999999896
20
-153.9279959999999789
11
124.3421289999999999
21
-154.0232340000000022
0
LINE
8
BLACK
6
CONTINUOUS
10
124.3421289999999999
20
-154.0232340000000022
11
124.0564139999999895
21
-154.0232340000000022
0
LINE
8
BLACK
6
CONTINUOUS
10
125.8659379999999999
20
-154.0232340000000022
11
125.675461999999996
21
-153.9279959999999789
0
LINE
8
BLACK
6
CONTINUOUS
10
125.675461999999996
20
-153.9279959999999789
11
125.5802240000000012
21
-153.7375189999999918
0
LINE
8
BLACK
6
CONTINUOUS
10
125.5802240000000012
20
-153.7375189999999918
11
125.5802240000000012
21
-152.0232340000000022
0
LINE
8
BLACK
6
CONTINUOUS
10
127.3897479999999973
20
-153.9279959999999789
11
127.1992719999999935
21
-154.0232340000000022
0
LINE
8
BLACK
6
CONTINUOUS
10
127.1992719999999935
20
-154.0232340000000022
11
126.8183189999999883
21
-154.0232340000000022
0
LINE
8
BLACK
6
CONTINUOUS
10
126.8183189999999883
20
-154.0232340000000022
11
126.6278429999999986
21
-153.9279959999999789
0
LINE
8
BLACK
6
CONTINUOUS
10
126.6278429999999986
20
-153.9279959999999789
11
126.5326049999999896
21
-153.7375189999999918
0
LINE
8
BLACK
6
CONTINUOUS
10
126.5326049999999896
20
-153.7375189999999918
11
126.5326049999999896
21
-152.9756150000000048
0
LINE
8
BLACK
6
CONTINUOUS
10
126.5326049999999896
20
-152.9756150000000048
11
126.6278429999999986
21
-152.7851379999999892
0
LINE
8
BLACK
6
CONTINUOUS
10
126.6278429999999986
20
-152.7851379999999892
11
126.8183189999999883
21
-152.6898999999999944
0
LINE
8
BLACK
6
CONTINUOUS
10
126.8183189999999883
20
-152.6898999999999944
11
127.1992719999999935
21
-152.6898999999999944
0
LINE
8
BLACK
6
CONTINUOUS
10
127.1992719999999935
20
-152.6898999999999944
11
127.3897479999999973
21
-152.7851379999999892
0
LINE
8
BLACK
6
CONTINUOUS
10
127.3897479999999973
20
-152.7851379999999892
11
127.4849859999999921
21
-152.9756150000000048
0
LINE
8
BLACK
6
CONTINUOUS
10
127.4849859999999921
20
-152.9756150000000048
11
127.4849859999999921
21
-153.1660909999999944
0
LINE
8
BLACK
6
CONTINUOUS
10
127.4849859999999921
20
-153.1660909999999944
11
126.5326049999999896
21
-153.3565669999999841
0
LINE
8
BLACK
6
CONTINUOUS
10
128.2468910000000051
20
-153.9279959999999789
11
128.4373669999999947
21
-154.0232340000000022
0
LINE
8
BLACK
6
CONTINUOUS
10
128.4373669999999947
20
-154.0232340000000022
11
128.8183190000000025
21
-154.0232340000000022
0
LINE
8
BLACK
6
CONTINUOUS
10
128.8183190000000025
20
-154.0232340000000022
11
129.0087959999999896
21
-153.9279959999999789
0
LINE
8
BLACK
6
CONTINUOUS
10
129.0087959999999896
20
-153.9279959999999789
11
129.1040339999999844
21
-153.7375189999999918
0
LINE
8
BLACK
6
CONTINUOUS
10
129.1040339999999844
20
-153.7375189999999918
11
129.1040339999999844
21
-153.642280999999997
0
LINE
8
BLACK
6
CONTINUOUS
10
129.1040339999999844
20
-153.642280999999997
11
129.0087959999999896
21
-153.4518049999999789
0
LINE
8
BLACK
6
CONTINUOUS
10
129.0087959999999896
20
-153.4518049999999789
11
128.8183190000000025
21
-153.3565669999999841
0
LINE
8
BLACK
6
CONTINUOUS
10
128.8183190000000025
20
-153.3565669999999841
11
128.5326049999999896
21
-153.3565669999999841
0
LINE
8
BLACK
6
CONTINUOUS
10
128.5326049999999896
20
-153.3565669999999841
11
128.3421289999999999
21
-153.2613289999999893
0
LINE
8
BLACK
6
CONTINUOUS
10
128.3421289999999999
20
-153.2613289999999893
11
128.2468910000000051
21
-153.0708529999999996
0
LINE
8
BLACK
6
CONTINUOUS
10
128.2468910000000051
20
-153.0708529999999996
11
128.2468910000000051
21
-152.9756150000000048
0
LINE
8
BLACK
6
CONTINUOUS
10
128.2468910000000051
20
-152.9756150000000048
11
128.3421289999999999
21
-152.7851379999999892
0
LINE
8
BLACK
6
CONTINUOUS
10
128.3421289999999999
20
-152.7851379999999892
11
128.5326049999999896
21
-152.6898999999999944
0
LINE
8
BLACK
6
CONTINUOUS
10
128.5326049999999896
20
-152.6898999999999944
11
128.8183190000000025
21
-152.6898999999999944
0
LINE
8
BLACK
6
CONTINUOUS
10
128.8183190000000025
20
-152.6898999999999944
11
129.0087959999999896
21
-152.7851379999999892
0
LINE
8
BLACK
6
CONTINUOUS
10
129.7707010000000025
20
-154.7851379999999892
11
129.8659389999999973
21
-154.6898999999999944
0
LINE
8
BLACK
6
CONTINUOUS
10
129.8659389999999973
20
-154.6898999999999944
11
130.056414999999987
21
-154.4041859999999815
0
LINE
8
BLACK
6
CONTINUOUS
10
130.056414999999987
20
-154.4041859999999815
11
130.1516529999999818
21
-154.2137099999999919
0
LINE
8
BLACK
6
CONTINUOUS
10
130.1516529999999818
20
-154.2137099999999919
11
130.2468910000000051
21
-153.9279959999999789
0
LINE
8
BLACK
6
CONTINUOUS
10
130.2468910000000051
20
-153.9279959999999789
11
130.3421289999999999
21
-153.4518049999999789
0
LINE
8
BLACK
6
CONTINUOUS
10
130.3421289999999999
20
-153.4518049999999789
11
130.3421289999999999
21
-153.0708529999999996
0
LINE
8
BLACK
6
CONTINUOUS
10
130.3421289999999999
20
-153.0708529999999996
11
130.2468910000000051
21
-152.5946619999999996
0
LINE
8
BLACK
6
CONTINUOUS
10
130.2468910000000051
20
-152.5946619999999996
11
130.1516529999999818
21
-152.3089479999999867
0
LINE
8
BLACK
6
CONTINUOUS
10
130.1516529999999818
20
-152.3089479999999867
11
130.056414999999987
21
-152.118471999999997
0
LINE
8
BLACK
6
CONTINUOUS
10
130.056414999999987
20
-152.118471999999997
11
129.8659389999999973
21
-151.8327569999999866
0
LINE
8
BLACK
6
CONTINUOUS
10
129.8659389999999973
20
-151.8327569999999866
11
129.7707010000000025
21
-151.7375189999999918
  0
ENDSEC
  0
EOF
