%TF.GenerationSoftware,KiCad,Pcbnew,8.0.4-8.0.4-0~ubuntu24.04.1*%
%TF.CreationDate,2024-08-12T14:45:40+02:00*%
%TF.ProjectId,SofleKeyboardTopPlate,536f666c-654b-4657-9962-6f617264546f,rev?*%
%TF.SameCoordinates,Original*%
%TF.FileFunction,Profile,NP*%
%FSLAX46Y46*%
G04 Gerber Fmt 4.6, Leading zero omitted, Abs format (unit mm)*
G04 Created by KiCad (PCBNEW 8.0.4-8.0.4-0~ubuntu24.04.1) date 2024-08-12 14:45:40*
%MOMM*%
%LPD*%
G01*
G04 APERTURE LIST*
%TA.AperFunction,Profile*%
%ADD10C,0.100000*%
%TD*%
%TA.AperFunction,Profile*%
%ADD11C,0.150000*%
%TD*%
%TA.AperFunction,Profile*%
%ADD12C,0.120000*%
%TD*%
G04 APERTURE END LIST*
D10*
X92331436Y-145655171D02*
X82341192Y-128315644D01*
X88400000Y-114403600D02*
X88297200Y-115053600D01*
X88297200Y-115053600D02*
X88097200Y-115653600D01*
X82290056Y-126397917D02*
X88097200Y-115653600D01*
X149097200Y-35249600D02*
X112054240Y-36604523D01*
X138251328Y-133450000D02*
X187225000Y-133450000D01*
X138251328Y-133450000D02*
X94620000Y-146580000D01*
X149097200Y-35249600D02*
X176047200Y-35249600D01*
X88400000Y-114403600D02*
X88400000Y-96498600D01*
D11*
X91950000Y-110999800D02*
X107550000Y-110999800D01*
D10*
X224809380Y-123373525D02*
X187225000Y-133450250D01*
X89400000Y-95498600D02*
X110097200Y-95498600D01*
X176047200Y-35249600D02*
X224757209Y-46721953D01*
X111097200Y-94498600D02*
G75*
G02*
X110097200Y-95498600I-1000000J0D01*
G01*
X224757209Y-46721953D02*
G75*
G02*
X225550026Y-47700250I-207609J-978647D01*
G01*
D11*
X91950000Y-97999800D02*
X91950000Y-110999800D01*
X107550000Y-97999800D02*
X91950000Y-97999800D01*
X107550000Y-110999800D02*
X107550000Y-97999800D01*
D10*
X225550000Y-47700250D02*
X225550000Y-122407750D01*
X88400000Y-96498600D02*
G75*
G02*
X89400000Y-95498600I1000000J0D01*
G01*
X82341192Y-128315644D02*
G75*
G02*
X82290072Y-126397925I1729508J1005644D01*
G01*
X225550000Y-122407750D02*
G75*
G02*
X224809366Y-123373472I-999600J-250D01*
G01*
X94620000Y-146580000D02*
G75*
G02*
X92331467Y-145655153I-554500J1921800D01*
G01*
X111097200Y-37603600D02*
G75*
G02*
X112054241Y-36604536I1000300J-300D01*
G01*
X111097200Y-94498600D02*
X111097200Y-37603600D01*
D12*
X208800000Y-63500000D02*
X222800000Y-63500000D01*
X222800000Y-49500000D02*
X208800000Y-49500000D01*
X222800000Y-63500000D02*
X222800000Y-49500000D01*
X208800000Y-49500000D02*
X208800000Y-63500000D01*
X189750000Y-49500000D02*
X189750000Y-63500000D01*
X203750000Y-63500000D02*
X203750000Y-49500000D01*
X203750000Y-49500000D02*
X189750000Y-49500000D01*
X189750000Y-63500000D02*
X203750000Y-63500000D01*
X189750000Y-82550000D02*
X203750000Y-82550000D01*
X203750000Y-68550000D02*
X189750000Y-68550000D01*
X189750000Y-68550000D02*
X189750000Y-82550000D01*
X203750000Y-82550000D02*
X203750000Y-68550000D01*
X208800000Y-68550000D02*
X208800000Y-82550000D01*
X222800000Y-68550000D02*
X208800000Y-68550000D01*
X222800000Y-82550000D02*
X222800000Y-68550000D01*
X208800000Y-82550000D02*
X222800000Y-82550000D01*
X189750000Y-87600000D02*
X189750000Y-101600000D01*
X203750000Y-101600000D02*
X203750000Y-87600000D01*
X189750000Y-101600000D02*
X203750000Y-101600000D01*
X203750000Y-87600000D02*
X189750000Y-87600000D01*
X222800000Y-101600000D02*
X222800000Y-87600000D01*
X208800000Y-101600000D02*
X222800000Y-101600000D01*
X208800000Y-87600000D02*
X208800000Y-101600000D01*
X222800000Y-87600000D02*
X208800000Y-87600000D01*
X203750000Y-120650000D02*
X203750000Y-106650000D01*
X203750000Y-106650000D02*
X189750000Y-106650000D01*
X189750000Y-106650000D02*
X189750000Y-120650000D01*
X189750000Y-120650000D02*
X203750000Y-120650000D01*
X184700000Y-54500000D02*
X184700000Y-40500000D01*
X184700000Y-40500000D02*
X170700000Y-40500000D01*
X170700000Y-40500000D02*
X170700000Y-54500000D01*
X170700000Y-54500000D02*
X184700000Y-54500000D01*
X184700000Y-59550000D02*
X170700000Y-59550000D01*
X184700000Y-73550000D02*
X184700000Y-59550000D01*
X170700000Y-59550000D02*
X170700000Y-73550000D01*
X170700000Y-73550000D02*
X184700000Y-73550000D01*
X184700000Y-92600000D02*
X184700000Y-78600000D01*
X170700000Y-92600000D02*
X184700000Y-92600000D01*
X170700000Y-78600000D02*
X170700000Y-92600000D01*
X184700000Y-78600000D02*
X170700000Y-78600000D01*
X170700000Y-111650000D02*
X184700000Y-111650000D01*
X170700000Y-97650000D02*
X170700000Y-111650000D01*
X184700000Y-111650000D02*
X184700000Y-97650000D01*
X184700000Y-97650000D02*
X170700000Y-97650000D01*
X184700000Y-130700000D02*
X184700000Y-116700000D01*
X170700000Y-116700000D02*
X170700000Y-130700000D01*
X184700000Y-116700000D02*
X170700000Y-116700000D01*
X170700000Y-130700000D02*
X184700000Y-130700000D01*
X151650000Y-52000000D02*
X165650000Y-52000000D01*
X165650000Y-52000000D02*
X165650000Y-38000000D01*
X151650000Y-38000000D02*
X151650000Y-52000000D01*
X165650000Y-38000000D02*
X151650000Y-38000000D01*
X165650000Y-71050000D02*
X165650000Y-57050000D01*
X151650000Y-71050000D02*
X165650000Y-71050000D01*
X165650000Y-57050000D02*
X151650000Y-57050000D01*
X151650000Y-57050000D02*
X151650000Y-71050000D01*
X151650000Y-90100000D02*
X165650000Y-90100000D01*
X165650000Y-90100000D02*
X165650000Y-76100000D01*
X165650000Y-76100000D02*
X151650000Y-76100000D01*
X151650000Y-76100000D02*
X151650000Y-90100000D01*
X151650000Y-109150000D02*
X165650000Y-109150000D01*
X165650000Y-109150000D02*
X165650000Y-95150000D01*
X151650000Y-95150000D02*
X151650000Y-109150000D01*
X165650000Y-95150000D02*
X151650000Y-95150000D01*
X151650000Y-128200000D02*
X165650000Y-128200000D01*
X165650000Y-114200000D02*
X151650000Y-114200000D01*
X165650000Y-128200000D02*
X165650000Y-114200000D01*
X151650000Y-114200000D02*
X151650000Y-128200000D01*
X146600000Y-54500000D02*
X146600000Y-40500000D01*
X132600000Y-54500000D02*
X146600000Y-54500000D01*
X132600000Y-40500000D02*
X132600000Y-54500000D01*
X146600000Y-40500000D02*
X132600000Y-40500000D01*
X146600000Y-73550000D02*
X146600000Y-59550000D01*
X132600000Y-59550000D02*
X132600000Y-73550000D01*
X146600000Y-59550000D02*
X132600000Y-59550000D01*
X132600000Y-73550000D02*
X146600000Y-73550000D01*
X146600000Y-92600000D02*
X146600000Y-78600000D01*
X146600000Y-78600000D02*
X132600000Y-78600000D01*
X132600000Y-78600000D02*
X132600000Y-92600000D01*
X132600000Y-92600000D02*
X146600000Y-92600000D01*
X132600000Y-97650000D02*
X132600000Y-111650000D01*
X146600000Y-111650000D02*
X146600000Y-97650000D01*
X146600000Y-97650000D02*
X132600000Y-97650000D01*
X132600000Y-111650000D02*
X146600000Y-111650000D01*
X146600000Y-130700000D02*
X146600000Y-116700000D01*
X132600000Y-116700000D02*
X132600000Y-130700000D01*
X146600000Y-116700000D02*
X132600000Y-116700000D01*
X132600000Y-130700000D02*
X146600000Y-130700000D01*
X113550000Y-43000000D02*
X113550000Y-57000000D01*
X113550000Y-57000000D02*
X127550000Y-57000000D01*
X127550000Y-43000000D02*
X113550000Y-43000000D01*
X127550000Y-57000000D02*
X127550000Y-43000000D01*
X113550000Y-76050000D02*
X127550000Y-76050000D01*
X127550000Y-76050000D02*
X127550000Y-62050000D01*
X113550000Y-62050000D02*
X113550000Y-76050000D01*
X127550000Y-62050000D02*
X113550000Y-62050000D01*
X113550000Y-81100000D02*
X113550000Y-95100000D01*
X113550000Y-95100000D02*
X127550000Y-95100000D01*
X127550000Y-95100000D02*
X127550000Y-81100000D01*
X127550000Y-81100000D02*
X113550000Y-81100000D01*
X113550000Y-100150000D02*
X113550000Y-114150000D01*
X113550000Y-114150000D02*
X127550000Y-114150000D01*
X127550000Y-114150000D02*
X127550000Y-100150000D01*
X127550000Y-100150000D02*
X113550000Y-100150000D01*
X109026786Y-123450253D02*
X112650253Y-136973214D01*
X126173214Y-133349747D02*
X122549747Y-119826786D01*
X112650253Y-136973214D02*
X126173214Y-133349747D01*
X122549747Y-119826786D02*
X109026786Y-123450253D01*
X87147822Y-130837822D02*
X94147822Y-142962178D01*
X99272178Y-123837822D02*
X87147822Y-130837822D01*
X94147822Y-142962178D02*
X106272178Y-135962178D01*
X106272178Y-135962178D02*
X99272178Y-123837822D01*
X208800000Y-120650000D02*
X222800000Y-120650000D01*
X222800000Y-120650000D02*
X222800000Y-106650000D01*
X208800000Y-106650000D02*
X208800000Y-120650000D01*
X222800000Y-106650000D02*
X208800000Y-106650000D01*
M02*
