  0
SECTION
  2
HEADER
  9
$ACADVER
  1
AC1009
  0
ENDSEC
  0
SECTION
  2
ENTITIES
  0
POLYLINE
  5
90
  8
Layer_0
  62
0
  70
1
  66
1
  10
0
  20
0
  30
0
  0
VERTEX
  5
90
  8
Layer_0
  10
675.32782
  20
472.47217
  0
VERTEX
  5
91
  8
Layer_0
  10
675.52173
  20
472.73438
  0
VERTEX
  5
92
  8
Layer_0
  10
675.62891
  20
473.03537
  0
VERTEX
  5
93
  8
Layer_0
  10
675.64508
  20
473.35446
  0
VERTEX
  5
94
  8
Layer_0
  10
675.56628
  20
473.67093
  0
VERTEX
  5
95
  8
Layer_0
  10
675.39819
  20
473.95047
  0
VERTEX
  5
96
  8
Layer_0
  10
675.16113
  20
474.16464
  0
VERTEX
  5
97
  8
Layer_0
  10
674.87256
  20
474.3017
  0
VERTEX
  5
98
  8
Layer_0
  10
674.54999
  20
474.34998
  0
VERTEX
  5
99
  8
Layer_0
  10
674.3222
  20
474.32626
  0
VERTEX
  5
9a
  8
Layer_0
  10
674.10437
  20
474.25568
  0
VERTEX
  5
9b
  8
Layer_0
  10
674.07996
  20
474.24451
  0
VERTEX
  5
9c
  8
Layer_0
  10
673.91681
  20
474.14935
  0
VERTEX
  5
9d
  8
Layer_0
  10
673.77216
  20
474.0278
  0
VERTEX
  5
9e
  8
Layer_0
  10
673.75311
  20
474.00824
  0
VERTEX
  5
9f
  8
Layer_0
  10
673.62372
  20
473.84317
  0
VERTEX
  5
a0
  8
Layer_0
  10
673.52863
  20
473.65826
  0
VERTEX
  5
a1
  8
Layer_0
  10
673.47003
  20
473.45877
  0
VERTEX
  5
a2
  8
Layer_0
  10
673.44995
  20
473.25
  0
VERTEX
  5
a3
  8
Layer_0
  10
673.45313
  20
473.16711
  0
VERTEX
  5
a4
  8
Layer_0
  10
673.51813
  20
472.86914
  0
VERTEX
  5
a5
  8
Layer_0
  10
673.65924
  20
472.60495
  0
VERTEX
  5
a6
  8
Layer_0
  10
673.86621
  20
472.38849
  0
VERTEX
  5
a7
  8
Layer_0
  10
674.12903
  20
472.23373
  0
VERTEX
  5
a8
  8
Layer_0
  10
674.20679
  20
472.2049
  0
VERTEX
  5
a9
  8
Layer_0
  10
674.50696
  20
472.15088
  0
VERTEX
  5
aa
  8
Layer_0
  10
674.80505
  20
472.18008
  0
VERTEX
  5
ab
  8
Layer_0
  10
675.08429
  20
472.28851
  0
VERTEX
  5
ac
  8
Layer_0
  10
675.32782
  20
472.47217
  0
SEQEND
  0
POLYLINE
  5
ae
  8
Layer_0
  62
0
  70
1
  66
1
  10
0
  20
0
  30
0
  0
VERTEX
  5
ae
  8
Layer_0
  10
677.04999
  20
455.64999
  0
VERTEX
  5
af
  8
Layer_0
  10
677.04999
  20
474.34998
  0
VERTEX
  5
b0
  8
Layer_0
  10
677.01123
  20
474.742
  0
VERTEX
  5
b1
  8
Layer_0
  10
676.89777
  20
475.11536
  0
VERTEX
  5
b2
  8
Layer_0
  10
676.71399
  20
475.45959
  0
VERTEX
  5
b3
  8
Layer_0
  10
676.46417
  20
475.76419
  0
VERTEX
  5
b4
  8
Layer_0
  10
676.15948
  20
476.01385
  0
VERTEX
  5
b5
  8
Layer_0
  10
675.81531
  20
476.19757
  0
VERTEX
  5
b6
  8
Layer_0
  10
675.44196
  20
476.31107
  0
VERTEX
  5
b7
  8
Layer_0
  10
675.04999
  20
476.34998
  0
VERTEX
  5
b8
  8
Layer_0
  10
620.95001
  20
476.34998
  0
VERTEX
  5
b9
  8
Layer_0
  10
620.63177
  20
476.32449
  0
VERTEX
  5
ba
  8
Layer_0
  10
620.32355
  20
476.24933
  0
VERTEX
  5
bb
  8
Layer_0
  10
620.03113
  20
476.12637
  0
VERTEX
  5
bc
  8
Layer_0
  10
619.76013
  20
475.95752
  0
VERTEX
  5
bd
  8
Layer_0
  10
619.64441
  20
475.86499
  0
VERTEX
  5
be
  8
Layer_0
  10
619.53583
  20
475.76419
  0
VERTEX
  5
bf
  8
Layer_0
  10
619.46741
  20
475.69232
  0
VERTEX
  5
c0
  8
Layer_0
  10
619.24609
  20
475.39722
  0
VERTEX
  5
c1
  8
Layer_0
  10
619.08386
  20
475.06931
  0
VERTEX
  5
c2
  8
Layer_0
  10
618.98407
  20
474.71732
  0
VERTEX
  5
c3
  8
Layer_0
  10
618.95007
  20
474.34998
  0
VERTEX
  5
c4
  8
Layer_0
  10
618.95007
  20
455.64999
  0
VERTEX
  5
c5
  8
Layer_0
  10
618.95251
  20
455.55084
  0
VERTEX
  5
c6
  8
Layer_0
  10
619.0047
  20
455.18564
  0
VERTEX
  5
c7
  8
Layer_0
  10
619.12183
  20
454.83905
  0
VERTEX
  5
c8
  8
Layer_0
  10
619.30017
  20
454.51959
  0
VERTEX
  5
c9
  8
Layer_0
  10
619.53583
  20
454.23578
  0
VERTEX
  5
ca
  8
Layer_0
  10
619.60767
  20
454.16739
  0
VERTEX
  5
cb
  8
Layer_0
  10
619.90283
  20
453.94604
  0
VERTEX
  5
cc
  8
Layer_0
  10
620.23071
  20
453.78381
  0
VERTEX
  5
cd
  8
Layer_0
  10
620.5827
  20
453.68402
  0
VERTEX
  5
ce
  8
Layer_0
  10
620.95001
  20
453.64999
  0
VERTEX
  5
cf
  8
Layer_0
  10
675.04999
  20
453.65002
  0
VERTEX
  5
d0
  8
Layer_0
  10
675.14917
  20
453.65247
  0
VERTEX
  5
d1
  8
Layer_0
  10
675.51434
  20
453.70468
  0
VERTEX
  5
d2
  8
Layer_0
  10
675.86096
  20
453.82181
  0
VERTEX
  5
d3
  8
Layer_0
  10
676.18042
  20
454.00012
  0
VERTEX
  5
d4
  8
Layer_0
  10
676.46423
  20
454.23578
  0
VERTEX
  5
d5
  8
Layer_0
  10
676.71393
  20
454.54041
  0
VERTEX
  5
d6
  8
Layer_0
  10
676.89771
  20
454.88464
  0
VERTEX
  5
d7
  8
Layer_0
  10
677.01117
  20
455.258
  0
VERTEX
  5
d8
  8
Layer_0
  10
677.04999
  20
455.64999
  0
SEQEND
  0
POLYLINE
  5
da
  8
Layer_0
  62
0
  70
1
  66
1
  10
0
  20
0
  30
0
  0
VERTEX
  5
da
  8
Layer_0
  10
675.32782
  20
455.9722
  0
VERTEX
  5
db
  8
Layer_0
  10
675.52173
  20
456.23441
  0
VERTEX
  5
dc
  8
Layer_0
  10
675.62891
  20
456.5354
  0
VERTEX
  5
dd
  8
Layer_0
  10
675.64508
  20
456.85449
  0
VERTEX
  5
de
  8
Layer_0
  10
675.56628
  20
457.17096
  0
VERTEX
  5
df
  8
Layer_0
  10
675.39819
  20
457.45047
  0
VERTEX
  5
e0
  8
Layer_0
  10
675.16107
  20
457.66461
  0
VERTEX
  5
e1
  8
Layer_0
  10
674.87256
  20
457.8017
  0
VERTEX
  5
e2
  8
Layer_0
  10
674.54999
  20
457.85001
  0
VERTEX
  5
e3
  8
Layer_0
  10
674.375
  20
457.83609
  0
VERTEX
  5
e4
  8
Layer_0
  10
674.20447
  20
457.79434
  0
VERTEX
  5
e5
  8
Layer_0
  10
673.97278
  20
457.68631
  0
VERTEX
  5
e6
  8
Layer_0
  10
673.77216
  20
457.52783
  0
VERTEX
  5
e7
  8
Layer_0
  10
673.75311
  20
457.50827
  0
VERTEX
  5
e8
  8
Layer_0
  10
673.6236
  20
457.34326
  0
VERTEX
  5
e9
  8
Layer_0
  10
673.52856
  20
457.15833
  0
VERTEX
  5
ea
  8
Layer_0
  10
673.46997
  20
456.95883
  0
VERTEX
  5
eb
  8
Layer_0
  10
673.44995
  20
456.75
  0
VERTEX
  5
ec
  8
Layer_0
  10
673.45313
  20
456.66714
  0
VERTEX
  5
ed
  8
Layer_0
  10
673.51807
  20
456.36911
  0
VERTEX
  5
ee
  8
Layer_0
  10
673.65912
  20
456.10486
  0
VERTEX
  5
ef
  8
Layer_0
  10
673.86615
  20
455.88843
  0
VERTEX
  5
f0
  8
Layer_0
  10
674.12903
  20
455.73373
  0
VERTEX
  5
f1
  8
Layer_0
  10
674.20679
  20
455.7049
  0
VERTEX
  5
f2
  8
Layer_0
  10
674.50696
  20
455.65085
  0
VERTEX
  5
f3
  8
Layer_0
  10
674.80505
  20
455.68005
  0
VERTEX
  5
f4
  8
Layer_0
  10
675.08429
  20
455.78851
  0
VERTEX
  5
f5
  8
Layer_0
  10
675.32782
  20
455.9722
  0
SEQEND
  0
ENDSEC
  0
EOF
