  0
SECTION
  2
HEADER
  9
$ACADVER
  1
AC1009
  0
ENDSEC
  0
SECTION
  2
ENTITIES
  0
POLYLINE
  5
90
  8
Layer_0
  62
0
  70
1
  66
1
  10
0
  20
0
  30
0
  0
VERTEX
  5
90
  8
Layer_0
  10
630.88867
  20
296.84918
  0
VERTEX
  5
91
  8
Layer_0
  10
630.62646
  20
296.65527
  0
VERTEX
  5
92
  8
Layer_0
  10
630.32544
  20
296.54813
  0
VERTEX
  5
93
  8
Layer_0
  10
630.00641
  20
296.53192
  0
VERTEX
  5
94
  8
Layer_0
  10
629.68994
  20
296.61075
  0
VERTEX
  5
95
  8
Layer_0
  10
629.41034
  20
296.77872
  0
VERTEX
  5
96
  8
Layer_0
  10
629.19617
  20
297.01581
  0
VERTEX
  5
97
  8
Layer_0
  10
629.05914
  20
297.30444
  0
VERTEX
  5
98
  8
Layer_0
  10
629.01086
  20
297.62701
  0
VERTEX
  5
99
  8
Layer_0
  10
629.02094
  20
297.77518
  0
VERTEX
  5
9a
  8
Layer_0
  10
629.0506
  20
297.92001
  0
VERTEX
  5
9b
  8
Layer_0
  10
629.09943
  20
298.05954
  0
VERTEX
  5
9c
  8
Layer_0
  10
629.16693
  20
298.19177
  0
VERTEX
  5
9d
  8
Layer_0
  10
629.24353
  20
298.30338
  0
VERTEX
  5
9e
  8
Layer_0
  10
629.33307
  20
298.40485
  0
VERTEX
  5
9f
  8
Layer_0
  10
629.39294
  20
298.46045
  0
VERTEX
  5
a0
  8
Layer_0
  10
629.55231
  20
298.57471
  0
VERTEX
  5
a1
  8
Layer_0
  10
629.72797
  20
298.65833
  0
VERTEX
  5
a2
  8
Layer_0
  10
629.91559
  20
298.70966
  0
VERTEX
  5
a3
  8
Layer_0
  10
630.1109
  20
298.72702
  0
VERTEX
  5
a4
  8
Layer_0
  10
630.19373
  20
298.72391
  0
VERTEX
  5
a5
  8
Layer_0
  10
630.49182
  20
298.65912
  0
VERTEX
  5
a6
  8
Layer_0
  10
630.75616
  20
298.51807
  0
VERTEX
  5
a7
  8
Layer_0
  10
630.9726
  20
298.31097
  0
VERTEX
  5
a8
  8
Layer_0
  10
631.12714
  20
298.04797
  0
VERTEX
  5
a9
  8
Layer_0
  10
631.15601
  20
297.97021
  0
VERTEX
  5
aa
  8
Layer_0
  10
631.21008
  20
297.66998
  0
VERTEX
  5
ab
  8
Layer_0
  10
631.18091
  20
297.37189
  0
VERTEX
  5
ac
  8
Layer_0
  10
631.07245
  20
297.09265
  0
VERTEX
  5
ad
  8
Layer_0
  10
630.88867
  20
296.84918
  0
SEQEND
  0
POLYLINE
  5
af
  8
Layer_0
  62
0
  70
1
  66
1
  10
0
  20
0
  30
0
  0
VERTEX
  5
af
  8
Layer_0
  10
657.38989
  20
272.73578
  0
VERTEX
  5
b0
  8
Layer_0
  10
657.11035
  20
272.90378
  0
VERTEX
  5
b1
  8
Layer_0
  10
656.89624
  20
273.14087
  0
VERTEX
  5
b2
  8
Layer_0
  10
656.75916
  20
273.42947
  0
VERTEX
  5
b3
  8
Layer_0
  10
656.71088
  20
273.75204
  0
VERTEX
  5
b4
  8
Layer_0
  10
656.72498
  20
273.927
  0
VERTEX
  5
b5
  8
Layer_0
  10
656.76654
  20
274.09756
  0
VERTEX
  5
b6
  8
Layer_0
  10
656.87427
  20
274.32944
  0
VERTEX
  5
b7
  8
Layer_0
  10
657.03302
  20
274.52985
  0
VERTEX
  5
b8
  8
Layer_0
  10
657.05261
  20
274.54895
  0
VERTEX
  5
b9
  8
Layer_0
  10
657.21759
  20
274.67847
  0
VERTEX
  5
ba
  8
Layer_0
  10
657.40253
  20
274.77359
  0
VERTEX
  5
bb
  8
Layer_0
  10
657.60205
  20
274.83215
  0
VERTEX
  5
bc
  8
Layer_0
  10
657.81085
  20
274.85205
  0
VERTEX
  5
bd
  8
Layer_0
  10
657.89374
  20
274.84894
  0
VERTEX
  5
be
  8
Layer_0
  10
658.19183
  20
274.784
  0
VERTEX
  5
bf
  8
Layer_0
  10
658.45612
  20
274.64297
  0
VERTEX
  5
c0
  8
Layer_0
  10
658.67261
  20
274.43597
  0
VERTEX
  5
c1
  8
Layer_0
  10
658.82715
  20
274.17297
  0
VERTEX
  5
c2
  8
Layer_0
  10
658.85596
  20
274.09525
  0
VERTEX
  5
c3
  8
Layer_0
  10
658.90997
  20
273.79504
  0
VERTEX
  5
c4
  8
Layer_0
  10
658.88074
  20
273.49695
  0
VERTEX
  5
c5
  8
Layer_0
  10
658.77234
  20
273.21777
  0
VERTEX
  5
c6
  8
Layer_0
  10
658.58868
  20
272.97424
  0
VERTEX
  5
c7
  8
Layer_0
  10
658.32642
  20
272.78027
  0
VERTEX
  5
c8
  8
Layer_0
  10
658.02539
  20
272.67303
  0
VERTEX
  5
c9
  8
Layer_0
  10
657.7063
  20
272.65683
  0
VERTEX
  5
ca
  8
Layer_0
  10
657.38989
  20
272.73578
  0
SEQEND
  0
POLYLINE
  5
cc
  8
Layer_0
  62
0
  70
1
  66
1
  10
0
  20
0
  30
0
  0
VERTEX
  5
cc
  8
Layer_0
  10
555.31378
  20
291.94922
  0
VERTEX
  5
cd
  8
Layer_0
  10
555.05151
  20
291.7554
  0
VERTEX
  5
ce
  8
Layer_0
  10
554.75049
  20
291.64832
  0
VERTEX
  5
cf
  8
Layer_0
  10
554.43146
  20
291.63202
  0
VERTEX
  5
d0
  8
Layer_0
  10
554.11499
  20
291.71075
  0
VERTEX
  5
d1
  8
Layer_0
  10
553.83533
  20
291.87854
  0
VERTEX
  5
d2
  8
Layer_0
  10
553.62109
  20
292.11563
  0
VERTEX
  5
d3
  8
Layer_0
  10
553.48407
  20
292.40436
  0
VERTEX
  5
d4
  8
Layer_0
  10
553.43597
  20
292.72702
  0
VERTEX
  5
d5
  8
Layer_0
  10
553.43732
  20
292.78156
  0
VERTEX
  5
d6
  8
Layer_0
  10
553.46625
  20
292.98239
  0
VERTEX
  5
d7
  8
Layer_0
  10
553.5307
  20
293.173
  0
VERTEX
  5
d8
  8
Layer_0
  10
553.62866
  20
293.34872
  0
VERTEX
  5
d9
  8
Layer_0
  10
553.75818
  20
293.50482
  0
VERTEX
  5
da
  8
Layer_0
  10
553.79767
  20
293.54245
  0
VERTEX
  5
db
  8
Layer_0
  10
553.95984
  20
293.66443
  0
VERTEX
  5
dc
  8
Layer_0
  10
554.1402
  20
293.75369
  0
VERTEX
  5
dd
  8
Layer_0
  10
554.33386
  20
293.8085
  0
VERTEX
  5
de
  8
Layer_0
  10
554.53595
  20
293.82703
  0
VERTEX
  5
df
  8
Layer_0
  10
554.61884
  20
293.82391
  0
VERTEX
  5
e0
  8
Layer_0
  10
554.91693
  20
293.75912
  0
VERTEX
  5
e1
  8
Layer_0
  10
555.18121
  20
293.6181
  0
VERTEX
  5
e2
  8
Layer_0
  10
555.39764
  20
293.41098
  0
VERTEX
  5
e3
  8
Layer_0
  10
555.55225
  20
293.14798
  0
VERTEX
  5
e4
  8
Layer_0
  10
555.58105
  20
293.07025
  0
VERTEX
  5
e5
  8
Layer_0
  10
555.63483
  20
292.77008
  0
VERTEX
  5
e6
  8
Layer_0
  10
555.60553
  20
292.47208
  0
VERTEX
  5
e7
  8
Layer_0
  10
555.49719
  20
292.19287
  0
VERTEX
  5
e8
  8
Layer_0
  10
555.31378
  20
291.94922
  0
SEQEND
  0
POLYLINE
  5
ea
  8
Layer_0
  62
0
  70
1
  66
1
  10
0
  20
0
  30
0
  0
VERTEX
  5
ea
  8
Layer_0
  10
553.43597
  20
330.82697
  0
VERTEX
  5
eb
  8
Layer_0
  10
553.45728
  20
331.0426
  0
VERTEX
  5
ec
  8
Layer_0
  10
553.51965
  20
331.24796
  0
VERTEX
  5
ed
  8
Layer_0
  10
553.62073
  20
331.43729
  0
VERTEX
  5
ee
  8
Layer_0
  10
553.75818
  20
331.6048
  0
VERTEX
  5
ef
  8
Layer_0
  10
553.79767
  20
331.6424
  0
VERTEX
  5
f0
  8
Layer_0
  10
553.96008
  20
331.76398
  0
VERTEX
  5
f1
  8
Layer_0
  10
554.1405
  20
331.85321
  0
VERTEX
  5
f2
  8
Layer_0
  10
554.33398
  20
331.9082
  0
VERTEX
  5
f3
  8
Layer_0
  10
554.53595
  20
331.927
  0
VERTEX
  5
f4
  8
Layer_0
  10
554.61884
  20
331.92389
  0
VERTEX
  5
f5
  8
Layer_0
  10
554.91687
  20
331.85889
  0
VERTEX
  5
f6
  8
Layer_0
  10
555.18115
  20
331.71786
  0
VERTEX
  5
f7
  8
Layer_0
  10
555.39764
  20
331.51086
  0
VERTEX
  5
f8
  8
Layer_0
  10
555.55225
  20
331.24792
  0
VERTEX
  5
f9
  8
Layer_0
  10
555.58105
  20
331.1702
  0
VERTEX
  5
fa
  8
Layer_0
  10
555.63544
  20
330.87
  0
VERTEX
  5
fb
  8
Layer_0
  10
555.60632
  20
330.57184
  0
VERTEX
  5
fc
  8
Layer_0
  10
555.49774
  20
330.29257
  0
VERTEX
  5
fd
  8
Layer_0
  10
555.31378
  20
330.04919
  0
VERTEX
  5
fe
  8
Layer_0
  10
555.25299
  20
329.99277
  0
VERTEX
  5
ff
  8
Layer_0
  10
554.99646
  20
329.82788
  0
VERTEX
  5
100
  8
Layer_0
  10
554.7099
  20
329.74091
  0
VERTEX
  5
101
  8
Layer_0
  10
554.4104
  20
329.73431
  0
VERTEX
  5
102
  8
Layer_0
  10
554.11499
  20
329.81073
  0
VERTEX
  5
103
  8
Layer_0
  10
553.83527
  20
329.9787
  0
VERTEX
  5
104
  8
Layer_0
  10
553.62091
  20
330.21576
  0
VERTEX
  5
105
  8
Layer_0
  10
553.48383
  20
330.50436
  0
VERTEX
  5
106
  8
Layer_0
  10
553.43597
  20
330.82697
  0
SEQEND
  0
POLYLINE
  5
108
  8
Layer_0
  62
0
  70
1
  66
1
  10
0
  20
0
  30
0
  0
VERTEX
  5
108
  8
Layer_0
  10
630.88867
  20
334.94916
  0
VERTEX
  5
109
  8
Layer_0
  10
630.62646
  20
334.75525
  0
VERTEX
  5
10a
  8
Layer_0
  10
630.32544
  20
334.6481
  0
VERTEX
  5
10b
  8
Layer_0
  10
630.00641
  20
334.63187
  0
VERTEX
  5
10c
  8
Layer_0
  10
629.68994
  20
334.71069
  0
VERTEX
  5
10d
  8
Layer_0
  10
629.41028
  20
334.87863
  0
VERTEX
  5
10e
  8
Layer_0
  10
629.19617
  20
335.11572
  0
VERTEX
  5
10f
  8
Layer_0
  10
629.05908
  20
335.40436
  0
VERTEX
  5
110
  8
Layer_0
  10
629.01086
  20
335.72699
  0
VERTEX
  5
111
  8
Layer_0
  10
629.0271
  20
335.91553
  0
VERTEX
  5
112
  8
Layer_0
  10
629.07495
  20
336.0972
  0
VERTEX
  5
113
  8
Layer_0
  10
629.15302
  20
336.26807
  0
VERTEX
  5
114
  8
Layer_0
  10
629.26001
  20
336.4241
  0
VERTEX
  5
115
  8
Layer_0
  10
629.29553
  20
336.46536
  0
VERTEX
  5
116
  8
Layer_0
  10
629.3526
  20
336.52386
  0
VERTEX
  5
117
  8
Layer_0
  10
629.5177
  20
336.65332
  0
VERTEX
  5
118
  8
Layer_0
  10
629.70264
  20
336.74841
  0
VERTEX
  5
119
  8
Layer_0
  10
629.9021
  20
336.80704
  0
VERTEX
  5
11a
  8
Layer_0
  10
630.1109
  20
336.82697
  0
VERTEX
  5
11b
  8
Layer_0
  10
630.19373
  20
336.82385
  0
VERTEX
  5
11c
  8
Layer_0
  10
630.49182
  20
336.75897
  0
VERTEX
  5
11d
  8
Layer_0
  10
630.7561
  20
336.61795
  0
VERTEX
  5
11e
  8
Layer_0
  10
630.97253
  20
336.41089
  0
VERTEX
  5
11f
  8
Layer_0
  10
631.12714
  20
336.14795
  0
VERTEX
  5
120
  8
Layer_0
  10
631.15601
  20
336.07019
  0
VERTEX
  5
121
  8
Layer_0
  10
631.21008
  20
335.76996
  0
VERTEX
  5
122
  8
Layer_0
  10
631.18091
  20
335.47186
  0
VERTEX
  5
123
  8
Layer_0
  10
631.07239
  20
335.19266
  0
VERTEX
  5
124
  8
Layer_0
  10
630.88867
  20
334.94916
  0
SEQEND
  0
POLYLINE
  5
126
  8
Layer_0
  62
0
  70
1
  66
1
  10
0
  20
0
  30
0
  0
VERTEX
  5
126
  8
Layer_0
  10
535.26105
  20
349.15247
  0
VERTEX
  5
127
  8
Layer_0
  10
535.29944
  20
349.42822
  0
VERTEX
  5
128
  8
Layer_0
  10
535.40991
  20
349.67831
  0
VERTEX
  5
129
  8
Layer_0
  10
535.58392
  20
349.8891
  0
VERTEX
  5
12a
  8
Layer_0
  10
535.81323
  20
350.04706
  0
VERTEX
  5
12b
  8
Layer_0
  10
535.95996
  20
350.10657
  0
VERTEX
  5
12c
  8
Layer_0
  10
536.11438
  20
350.14172
  0
VERTEX
  5
12d
  8
Layer_0
  10
589.76373
  20
357.50287
  0
VERTEX
  5
12e
  8
Layer_0
  10
611.71368
  20
357.50287
  0
VERTEX
  5
12f
  8
Layer_0
  10
670.48419
  20
355.35062
  0
VERTEX
  5
130
  8
Layer_0
  10
670.58429
  20
355.34448
  0
VERTEX
  5
131
  8
Layer_0
  10
670.95953
  20
355.27563
  0
VERTEX
  5
132
  8
Layer_0
  10
671.30579
  20
355.14117
  0
VERTEX
  5
133
  8
Layer_0
  10
671.61652
  20
354.94812
  0
VERTEX
  5
134
  8
Layer_0
  10
671.88525
  20
354.70361
  0
VERTEX
  5
135
  8
Layer_0
  10
672.10553
  20
354.41464
  0
VERTEX
  5
136
  8
Layer_0
  10
672.27087
  20
354.08835
  0
VERTEX
  5
137
  8
Layer_0
  10
672.37482
  20
353.73175
  0
VERTEX
  5
138
  8
Layer_0
  10
672.41083
  20
353.35196
  0
VERTEX
  5
139
  8
Layer_0
  10
672.41083
  20
278.34894
  0
VERTEX
  5
13a
  8
Layer_0
  10
672.51361
  20
277.69894
  0
VERTEX
  5
13b
  8
Layer_0
  10
672.71362
  20
277.09894
  0
VERTEX
  5
13c
  8
Layer_0
  10
678.52075
  20
266.35461
  0
VERTEX
  5
13d
  8
Layer_0
  10
678.54889
  20
266.29745
  0
VERTEX
  5
13e
  8
Layer_0
  10
678.63989
  20
266.06992
  0
VERTEX
  5
13f
  8
Layer_0
  10
678.70178
  20
265.83563
  0
VERTEX
  5
140
  8
Layer_0
  10
678.7348
  20
265.59723
  0
VERTEX
  5
141
  8
Layer_0
  10
678.73895
  20
265.35739
  0
VERTEX
  5
142
  8
Layer_0
  10
678.71442
  20
265.11877
  0
VERTEX
  5
143
  8
Layer_0
  10
678.66125
  20
264.88406
  0
VERTEX
  5
144
  8
Layer_0
  10
678.57965
  20
264.65588
  0
VERTEX
  5
145
  8
Layer_0
  10
678.46967
  20
264.43689
  0
VERTEX
  5
146
  8
Layer_0
  10
668.47943
  20
247.0974
  0
VERTEX
  5
147
  8
Layer_0
  10
668.28552
  20
246.81801
  0
VERTEX
  5
148
  8
Layer_0
  10
668.05255
  20
246.58025
  0
VERTEX
  5
149
  8
Layer_0
  10
667.7868
  20
246.38669
  0
VERTEX
  5
14a
  8
Layer_0
  10
667.49475
  20
246.23993
  0
VERTEX
  5
14b
  8
Layer_0
  10
667.18274
  20
246.14256
  0
VERTEX
  5
14c
  8
Layer_0
  10
666.85712
  20
246.09715
  0
VERTEX
  5
14d
  8
Layer_0
  10
666.52441
  20
246.10629
  0
VERTEX
  5
14e
  8
Layer_0
  10
666.19086
  20
246.17258
  0
VERTEX
  5
14f
  8
Layer_0
  10
622.55957
  20
259.30255
  0
VERTEX
  5
150
  8
Layer_0
  10
573.58594
  20
259.30255
  0
VERTEX
  5
151
  8
Layer_0
  10
535.26099
  20
273.67755
  0
VERTEX
  5
152
  8
Layer_0
  10
535.26105
  20
349.15247
  0
SEQEND
  0
POLYLINE
  5
154
  8
Layer_0
  62
0
  70
1
  66
1
  10
0
  20
0
  30
0
  0
VERTEX
  5
154
  8
Layer_0
  10
583.11078
  20
404.04919
  0
VERTEX
  5
155
  8
Layer_0
  10
583.37305
  20
403.85526
  0
VERTEX
  5
156
  8
Layer_0
  10
583.67401
  20
403.74811
  0
VERTEX
  5
157
  8
Layer_0
  10
583.9931
  20
403.73193
  0
VERTEX
  5
158
  8
Layer_0
  10
584.30957
  20
403.81073
  0
VERTEX
  5
159
  8
Layer_0
  10
584.58911
  20
403.9787
  0
VERTEX
  5
15a
  8
Layer_0
  10
584.80328
  20
404.21582
  0
VERTEX
  5
15b
  8
Layer_0
  10
584.94037
  20
404.50443
  0
VERTEX
  5
15c
  8
Layer_0
  10
584.98865
  20
404.82703
  0
VERTEX
  5
15d
  8
Layer_0
  10
584.97852
  20
404.97519
  0
VERTEX
  5
15e
  8
Layer_0
  10
584.94885
  20
405.12
  0
VERTEX
  5
15f
  8
Layer_0
  10
584.90009
  20
405.25952
  0
VERTEX
  5
160
  8
Layer_0
  10
584.83258
  20
405.39178
  0
VERTEX
  5
161
  8
Layer_0
  10
584.75598
  20
405.50336
  0
VERTEX
  5
162
  8
Layer_0
  10
584.66644
  20
405.60483
  0
VERTEX
  5
163
  8
Layer_0
  10
584.60651
  20
405.66046
  0
VERTEX
  5
164
  8
Layer_0
  10
584.4472
  20
405.77472
  0
VERTEX
  5
165
  8
Layer_0
  10
584.27155
  20
405.85834
  0
VERTEX
  5
166
  8
Layer_0
  10
584.08392
  20
405.90964
  0
VERTEX
  5
167
  8
Layer_0
  10
583.88861
  20
405.927
  0
VERTEX
  5
168
  8
Layer_0
  10
583.80579
  20
405.92389
  0
VERTEX
  5
169
  8
Layer_0
  10
583.50763
  20
405.8591
  0
VERTEX
  5
16a
  8
Layer_0
  10
583.24335
  20
405.71808
  0
VERTEX
  5
16b
  8
Layer_0
  10
583.02692
  20
405.51099
  0
VERTEX
  5
16c
  8
Layer_0
  10
582.87238
  20
405.24799
  0
VERTEX
  5
16d
  8
Layer_0
  10
582.84351
  20
405.17023
  0
VERTEX
  5
16e
  8
Layer_0
  10
582.78943
  20
404.87
  0
VERTEX
  5
16f
  8
Layer_0
  10
582.8186
  20
404.57187
  0
VERTEX
  5
170
  8
Layer_0
  10
582.927
  20
404.29266
  0
VERTEX
  5
171
  8
Layer_0
  10
583.11078
  20
404.04919
  0
SEQEND
  0
POLYLINE
  5
173
  8
Layer_0
  62
0
  70
1
  66
1
  10
0
  20
0
  30
0
  0
VERTEX
  5
173
  8
Layer_0
  10
556.60962
  20
379.93579
  0
VERTEX
  5
174
  8
Layer_0
  10
556.88916
  20
380.10379
  0
VERTEX
  5
175
  8
Layer_0
  10
557.10327
  20
380.34088
  0
VERTEX
  5
176
  8
Layer_0
  10
557.24036
  20
380.62946
  0
VERTEX
  5
177
  8
Layer_0
  10
557.28864
  20
380.95203
  0
VERTEX
  5
178
  8
Layer_0
  10
557.27448
  20
381.12701
  0
VERTEX
  5
179
  8
Layer_0
  10
557.23297
  20
381.29755
  0
VERTEX
  5
17a
  8
Layer_0
  10
557.12524
  20
381.52942
  0
VERTEX
  5
17b
  8
Layer_0
  10
556.96643
  20
381.72986
  0
VERTEX
  5
17c
  8
Layer_0
  10
556.9469
  20
381.74893
  0
VERTEX
  5
17d
  8
Layer_0
  10
556.78186
  20
381.87848
  0
VERTEX
  5
17e
  8
Layer_0
  10
556.59698
  20
381.97357
  0
VERTEX
  5
17f
  8
Layer_0
  10
556.39746
  20
382.03214
  0
VERTEX
  5
180
  8
Layer_0
  10
556.18866
  20
382.05206
  0
VERTEX
  5
181
  8
Layer_0
  10
556.10577
  20
382.04895
  0
VERTEX
  5
182
  8
Layer_0
  10
555.80768
  20
381.98401
  0
VERTEX
  5
183
  8
Layer_0
  10
555.54333
  20
381.84299
  0
VERTEX
  5
184
  8
Layer_0
  10
555.3269
  20
381.63596
  0
VERTEX
  5
185
  8
Layer_0
  10
555.17236
  20
381.37299
  0
VERTEX
  5
186
  8
Layer_0
  10
555.14355
  20
381.29523
  0
VERTEX
  5
187
  8
Layer_0
  10
555.08954
  20
380.99506
  0
VERTEX
  5
188
  8
Layer_0
  10
555.11877
  20
380.69696
  0
VERTEX
  5
189
  8
Layer_0
  10
555.22717
  20
380.41776
  0
VERTEX
  5
18a
  8
Layer_0
  10
555.41083
  20
380.17422
  0
VERTEX
  5
18b
  8
Layer_0
  10
555.6731
  20
379.98026
  0
VERTEX
  5
18c
  8
Layer_0
  10
555.97412
  20
379.87305
  0
VERTEX
  5
18d
  8
Layer_0
  10
556.29315
  20
379.85681
  0
VERTEX
  5
18e
  8
Layer_0
  10
556.60962
  20
379.93579
  0
SEQEND
  0
POLYLINE
  5
190
  8
Layer_0
  62
0
  70
1
  66
1
  10
0
  20
0
  30
0
  0
VERTEX
  5
190
  8
Layer_0
  10
658.68573
  20
399.1492
  0
VERTEX
  5
191
  8
Layer_0
  10
658.948
  20
398.95538
  0
VERTEX
  5
192
  8
Layer_0
  10
659.24902
  20
398.8483
  0
VERTEX
  5
193
  8
Layer_0
  10
659.56805
  20
398.83203
  0
VERTEX
  5
194
  8
Layer_0
  10
659.88452
  20
398.91077
  0
VERTEX
  5
195
  8
Layer_0
  10
660.16418
  20
399.07852
  0
VERTEX
  5
196
  8
Layer_0
  10
660.37842
  20
399.31561
  0
VERTEX
  5
197
  8
Layer_0
  10
660.51544
  20
399.60434
  0
VERTEX
  5
198
  8
Layer_0
  10
660.56354
  20
399.927
  0
VERTEX
  5
199
  8
Layer_0
  10
660.56219
  20
399.98157
  0
VERTEX
  5
19a
  8
Layer_0
  10
660.5332
  20
400.18237
  0
VERTEX
  5
19b
  8
Layer_0
  10
660.46881
  20
400.37299
  0
VERTEX
  5
19c
  8
Layer_0
  10
660.37085
  20
400.54871
  0
VERTEX
  5
19d
  8
Layer_0
  10
660.24133
  20
400.70483
  0
VERTEX
  5
19e
  8
Layer_0
  10
660.20184
  20
400.74243
  0
VERTEX
  5
19f
  8
Layer_0
  10
660.03967
  20
400.86438
  0
VERTEX
  5
1a0
  8
Layer_0
  10
659.85931
  20
400.95367
  0
VERTEX
  5
1a1
  8
Layer_0
  10
659.66565
  20
401.00848
  0
VERTEX
  5
1a2
  8
Layer_0
  10
659.4635
  20
401.02704
  0
VERTEX
  5
1a3
  8
Layer_0
  10
659.38068
  20
401.02393
  0
VERTEX
  5
1a4
  8
Layer_0
  10
659.08258
  20
400.95911
  0
VERTEX
  5
1a5
  8
Layer_0
  10
658.8183
  20
400.81812
  0
VERTEX
  5
1a6
  8
Layer_0
  10
658.60181
  20
400.61099
  0
VERTEX
  5
1a7
  8
Layer_0
  10
658.44727
  20
400.34796
  0
VERTEX
  5
1a8
  8
Layer_0
  10
658.41846
  20
400.27023
  0
VERTEX
  5
1a9
  8
Layer_0
  10
658.36462
  20
399.97009
  0
VERTEX
  5
1aa
  8
Layer_0
  10
658.39398
  20
399.67206
  0
VERTEX
  5
1ab
  8
Layer_0
  10
658.50232
  20
399.39288
  0
VERTEX
  5
1ac
  8
Layer_0
  10
658.68573
  20
399.1492
  0
SEQEND
  0
POLYLINE
  5
1ae
  8
Layer_0
  62
0
  70
1
  66
1
  10
0
  20
0
  30
0
  0
VERTEX
  5
1ae
  8
Layer_0
  10
660.56354
  20
438.02698
  0
VERTEX
  5
1af
  8
Layer_0
  10
660.54224
  20
438.24258
  0
VERTEX
  5
1b0
  8
Layer_0
  10
660.4798
  20
438.44794
  0
VERTEX
  5
1b1
  8
Layer_0
  10
660.37872
  20
438.63727
  0
VERTEX
  5
1b2
  8
Layer_0
  10
660.24133
  20
438.80481
  0
VERTEX
  5
1b3
  8
Layer_0
  10
660.20184
  20
438.84241
  0
VERTEX
  5
1b4
  8
Layer_0
  10
660.03937
  20
438.96399
  0
VERTEX
  5
1b5
  8
Layer_0
  10
659.85901
  20
439.05319
  0
VERTEX
  5
1b6
  8
Layer_0
  10
659.66553
  20
439.10818
  0
VERTEX
  5
1b7
  8
Layer_0
  10
659.4635
  20
439.12698
  0
VERTEX
  5
1b8
  8
Layer_0
  10
659.38068
  20
439.12387
  0
VERTEX
  5
1b9
  8
Layer_0
  10
659.08258
  20
439.0589
  0
VERTEX
  5
1ba
  8
Layer_0
  10
658.8183
  20
438.91785
  0
VERTEX
  5
1bb
  8
Layer_0
  10
658.60187
  20
438.71085
  0
VERTEX
  5
1bc
  8
Layer_0
  10
658.44727
  20
438.44794
  0
VERTEX
  5
1bd
  8
Layer_0
  10
658.41846
  20
438.37018
  0
VERTEX
  5
1be
  8
Layer_0
  10
658.36407
  20
438.06998
  0
VERTEX
  5
1bf
  8
Layer_0
  10
658.39319
  20
437.77182
  0
VERTEX
  5
1c0
  8
Layer_0
  10
658.50177
  20
437.49258
  0
VERTEX
  5
1c1
  8
Layer_0
  10
658.68573
  20
437.24918
  0
VERTEX
  5
1c2
  8
Layer_0
  10
658.74652
  20
437.19278
  0
VERTEX
  5
1c3
  8
Layer_0
  10
659.00305
  20
437.02789
  0
VERTEX
  5
1c4
  8
Layer_0
  10
659.28961
  20
436.94089
  0
VERTEX
  5
1c5
  8
Layer_0
  10
659.58911
  20
436.93433
  0
VERTEX
  5
1c6
  8
Layer_0
  10
659.88452
  20
437.01071
  0
VERTEX
  5
1c7
  8
Layer_0
  10
660.16425
  20
437.17868
  0
VERTEX
  5
1c8
  8
Layer_0
  10
660.3786
  20
437.41574
  0
VERTEX
  5
1c9
  8
Layer_0
  10
660.51563
  20
437.70435
  0
VERTEX
  5
1ca
  8
Layer_0
  10
660.56354
  20
438.02698
  0
SEQEND
  0
POLYLINE
  5
1cc
  8
Layer_0
  62
0
  70
1
  66
1
  10
0
  20
0
  30
0
  0
VERTEX
  5
1cc
  8
Layer_0
  10
583.11078
  20
442.14917
  0
VERTEX
  5
1cd
  8
Layer_0
  10
583.37305
  20
441.95523
  0
VERTEX
  5
1ce
  8
Layer_0
  10
583.67407
  20
441.84808
  0
VERTEX
  5
1cf
  8
Layer_0
  10
583.9931
  20
441.83188
  0
VERTEX
  5
1d0
  8
Layer_0
  10
584.30957
  20
441.91071
  0
VERTEX
  5
1d1
  8
Layer_0
  10
584.58917
  20
442.07861
  0
VERTEX
  5
1d2
  8
Layer_0
  10
584.80334
  20
442.3157
  0
VERTEX
  5
1d3
  8
Layer_0
  10
584.94043
  20
442.60437
  0
VERTEX
  5
1d4
  8
Layer_0
  10
584.98865
  20
442.92697
  0
VERTEX
  5
1d5
  8
Layer_0
  10
584.97241
  20
443.11551
  0
VERTEX
  5
1d6
  8
Layer_0
  10
584.92456
  20
443.29718
  0
VERTEX
  5
1d7
  8
Layer_0
  10
584.8465
  20
443.46805
  0
VERTEX
  5
1d8
  8
Layer_0
  10
584.7395
  20
443.62408
  0
VERTEX
  5
1d9
  8
Layer_0
  10
584.70398
  20
443.66537
  0
VERTEX
  5
1da
  8
Layer_0
  10
584.64685
  20
443.72388
  0
VERTEX
  5
1db
  8
Layer_0
  10
584.48181
  20
443.8533
  0
VERTEX
  5
1dc
  8
Layer_0
  10
584.29688
  20
443.94843
  0
VERTEX
  5
1dd
  8
Layer_0
  10
584.09741
  20
444.00702
  0
VERTEX
  5
1de
  8
Layer_0
  10
583.88861
  20
444.02698
  0
VERTEX
  5
1df
  8
Layer_0
  10
583.80579
  20
444.02386
  0
VERTEX
  5
1e0
  8
Layer_0
  10
583.50769
  20
443.95895
  0
VERTEX
  5
1e1
  8
Layer_0
  10
583.24341
  20
443.81793
  0
VERTEX
  5
1e2
  8
Layer_0
  10
583.02692
  20
443.6109
  0
VERTEX
  5
1e3
  8
Layer_0
  10
582.87238
  20
443.34793
  0
VERTEX
  5
1e4
  8
Layer_0
  10
582.84351
  20
443.27017
  0
VERTEX
  5
1e5
  8
Layer_0
  10
582.78943
  20
442.96997
  0
VERTEX
  5
1e6
  8
Layer_0
  10
582.8186
  20
442.67188
  0
VERTEX
  5
1e7
  8
Layer_0
  10
582.92706
  20
442.39267
  0
VERTEX
  5
1e8
  8
Layer_0
  10
583.11078
  20
442.14917
  0
SEQEND
  0
POLYLINE
  5
1ea
  8
Layer_0
  62
0
  70
1
  66
1
  10
0
  20
0
  30
0
  0
VERTEX
  5
1ea
  8
Layer_0
  10
678.73846
  20
456.35245
  0
VERTEX
  5
1eb
  8
Layer_0
  10
678.70001
  20
456.62823
  0
VERTEX
  5
1ec
  8
Layer_0
  10
678.5896
  20
456.8783
  0
VERTEX
  5
1ed
  8
Layer_0
  10
678.41559
  20
457.08911
  0
VERTEX
  5
1ee
  8
Layer_0
  10
678.18628
  20
457.24704
  0
VERTEX
  5
1ef
  8
Layer_0
  10
678.03955
  20
457.30658
  0
VERTEX
  5
1f0
  8
Layer_0
  10
677.88513
  20
457.34171
  0
VERTEX
  5
1f1
  8
Layer_0
  10
624.23578
  20
464.70285
  0
VERTEX
  5
1f2
  8
Layer_0
  10
602.28577
  20
464.70285
  0
VERTEX
  5
1f3
  8
Layer_0
  10
543.51532
  20
462.5506
  0
VERTEX
  5
1f4
  8
Layer_0
  10
543.41516
  20
462.54446
  0
VERTEX
  5
1f5
  8
Layer_0
  10
543.03992
  20
462.47562
  0
VERTEX
  5
1f6
  8
Layer_0
  10
542.69373
  20
462.34116
  0
VERTEX
  5
1f7
  8
Layer_0
  10
542.383
  20
462.14813
  0
VERTEX
  5
1f8
  8
Layer_0
  10
542.11426
  20
461.90359
  0
VERTEX
  5
1f9
  8
Layer_0
  10
541.89398
  20
461.61465
  0
VERTEX
  5
1fa
  8
Layer_0
  10
541.72864
  20
461.28833
  0
VERTEX
  5
1fb
  8
Layer_0
  10
541.62469
  20
460.93176
  0
VERTEX
  5
1fc
  8
Layer_0
  10
541.58862
  20
460.55197
  0
VERTEX
  5
1fd
  8
Layer_0
  10
541.58862
  20
385.54895
  0
VERTEX
  5
1fe
  8
Layer_0
  10
541.48584
  20
384.89893
  0
VERTEX
  5
1ff
  8
Layer_0
  10
541.28589
  20
384.29895
  0
VERTEX
  5
200
  8
Layer_0
  10
535.47876
  20
373.55463
  0
VERTEX
  5
201
  8
Layer_0
  10
535.45056
  20
373.49744
  0
VERTEX
  5
202
  8
Layer_0
  10
535.35962
  20
373.2699
  0
VERTEX
  5
203
  8
Layer_0
  10
535.29767
  20
373.03561
  0
VERTEX
  5
204
  8
Layer_0
  10
535.26471
  20
372.79721
  0
VERTEX
  5
205
  8
Layer_0
  10
535.2605
  20
372.55737
  0
VERTEX
  5
206
  8
Layer_0
  10
535.28503
  20
372.31879
  0
VERTEX
  5
207
  8
Layer_0
  10
535.3382
  20
372.08408
  0
VERTEX
  5
208
  8
Layer_0
  10
535.41986
  20
371.8559
  0
VERTEX
  5
209
  8
Layer_0
  10
535.52985
  20
371.6369
  0
VERTEX
  5
20a
  8
Layer_0
  10
545.52008
  20
354.29739
  0
VERTEX
  5
20b
  8
Layer_0
  10
545.71399
  20
354.01801
  0
VERTEX
  5
20c
  8
Layer_0
  10
545.94696
  20
353.78024
  0
VERTEX
  5
20d
  8
Layer_0
  10
546.21265
  20
353.5867
  0
VERTEX
  5
20e
  8
Layer_0
  10
546.50476
  20
353.43994
  0
VERTEX
  5
20f
  8
Layer_0
  10
546.81677
  20
353.34259
  0
VERTEX
  5
210
  8
Layer_0
  10
547.14233
  20
353.29718
  0
VERTEX
  5
211
  8
Layer_0
  10
547.4751
  20
353.3063
  0
VERTEX
  5
212
  8
Layer_0
  10
547.80865
  20
353.37256
  0
VERTEX
  5
213
  8
Layer_0
  10
591.43994
  20
366.50256
  0
VERTEX
  5
214
  8
Layer_0
  10
640.41357
  20
366.50256
  0
VERTEX
  5
215
  8
Layer_0
  10
678.73853
  20
380.87756
  0
VERTEX
  5
216
  8
Layer_0
  10
678.73846
  20
456.35245
  0
SEQEND
  0
ENDSEC
  0
EOF
