  0
SECTION
  2
HEADER
  9
$ACADVER
  1
AC1009
  0
ENDSEC
  0
SECTION
  2
ENTITIES
  0
POLYLINE
  5
90
  8
Layer_0
  62
0
  70
1
  66
1
  10
0
  20
0
  30
0
  0
VERTEX
  5
90
  8
Layer_0
  10
653.65247
  20
422.51245
  0
VERTEX
  5
91
  8
Layer_0
  10
674.34753
  20
422.51245
  0
VERTEX
  5
92
  8
Layer_0
  10
674.54352
  20
422.53174
  0
VERTEX
  5
93
  8
Layer_0
  10
674.73016
  20
422.5885
  0
VERTEX
  5
94
  8
Layer_0
  10
674.90228
  20
422.68048
  0
VERTEX
  5
95
  8
Layer_0
  10
675.05463
  20
422.80533
  0
VERTEX
  5
96
  8
Layer_0
  10
675.17957
  20
422.95764
  0
VERTEX
  5
97
  8
Layer_0
  10
675.27148
  20
423.12976
  0
VERTEX
  5
98
  8
Layer_0
  10
675.32819
  20
423.31644
  0
VERTEX
  5
99
  8
Layer_0
  10
675.34753
  20
423.51245
  0
VERTEX
  5
9a
  8
Layer_0
  10
675.34753
  20
480.48755
  0
VERTEX
  5
9b
  8
Layer_0
  10
675.3338
  20
480.6528
  0
VERTEX
  5
9c
  8
Layer_0
  10
675.29327
  20
480.81244
  0
VERTEX
  5
9d
  8
Layer_0
  10
675.22717
  20
480.96326
  0
VERTEX
  5
9e
  8
Layer_0
  10
675.13647
  20
481.10208
  0
VERTEX
  5
9f
  8
Layer_0
  10
675.09698
  20
481.14963
  0
VERTEX
  5
a0
  8
Layer_0
  10
675.03687
  20
481.21201
  0
VERTEX
  5
a1
  8
Layer_0
  10
674.88678
  20
481.32965
  0
VERTEX
  5
a2
  8
Layer_0
  10
674.71869
  20
481.41608
  0
VERTEX
  5
a3
  8
Layer_0
  10
674.53735
  20
481.46936
  0
VERTEX
  5
a4
  8
Layer_0
  10
674.34753
  20
481.48755
  0
VERTEX
  5
a5
  8
Layer_0
  10
653.62769
  20
481.48724
  0
VERTEX
  5
a6
  8
Layer_0
  10
653.43835
  20
481.46439
  0
VERTEX
  5
a7
  8
Layer_0
  10
653.25836
  20
481.40665
  0
VERTEX
  5
a8
  8
Layer_0
  10
653.09247
  20
481.31604
  0
VERTEX
  5
a9
  8
Layer_0
  10
652.94537
  20
481.19464
  0
VERTEX
  5
aa
  8
Layer_0
  10
652.92804
  20
481.17688
  0
VERTEX
  5
ab
  8
Layer_0
  10
652.81036
  20
481.02682
  0
VERTEX
  5
ac
  8
Layer_0
  10
652.72394
  20
480.85873
  0
VERTEX
  5
ad
  8
Layer_0
  10
652.67065
  20
480.67737
  0
VERTEX
  5
ae
  8
Layer_0
  10
652.65247
  20
480.48755
  0
VERTEX
  5
af
  8
Layer_0
  10
652.65283
  20
423.48761
  0
VERTEX
  5
b0
  8
Layer_0
  10
652.6756
  20
423.29828
  0
VERTEX
  5
b1
  8
Layer_0
  10
652.73334
  20
423.11829
  0
VERTEX
  5
b2
  8
Layer_0
  10
652.82397
  20
422.95239
  0
VERTEX
  5
b3
  8
Layer_0
  10
652.94537
  20
422.80533
  0
VERTEX
  5
b4
  8
Layer_0
  10
653.09772
  20
422.68051
  0
VERTEX
  5
b5
  8
Layer_0
  10
653.26984
  20
422.58865
  0
VERTEX
  5
b6
  8
Layer_0
  10
653.45654
  20
422.53189
  0
VERTEX
  5
b7
  8
Layer_0
  10
653.65247
  20
422.51245
  0
SEQEND
  0
POLYLINE
  5
b9
  8
Layer_0
  62
0
  70
1
  66
1
  10
0
  20
0
  30
0
  0
VERTEX
  5
b9
  8
Layer_0
  10
655.09894
  20
424.58789
  0
VERTEX
  5
ba
  8
Layer_0
  10
655.36127
  20
424.39355
  0
VERTEX
  5
bb
  8
Layer_0
  10
655.66235
  20
424.28616
  0
VERTEX
  5
bc
  8
Layer_0
  10
655.98151
  20
424.2699
  0
VERTEX
  5
bd
  8
Layer_0
  10
656.2981
  20
424.34891
  0
VERTEX
  5
be
  8
Layer_0
  10
656.57764
  20
424.51736
  0
VERTEX
  5
bf
  8
Layer_0
  10
656.79187
  20
424.75497
  0
VERTEX
  5
c0
  8
Layer_0
  10
656.92902
  20
425.04419
  0
VERTEX
  5
c1
  8
Layer_0
  10
656.97736
  20
425.36743
  0
VERTEX
  5
c2
  8
Layer_0
  10
656.9635
  20
425.54285
  0
VERTEX
  5
c3
  8
Layer_0
  10
656.92169
  20
425.71375
  0
VERTEX
  5
c4
  8
Layer_0
  10
656.8136
  20
425.94595
  0
VERTEX
  5
c5
  8
Layer_0
  10
656.65509
  20
426.147
  0
VERTEX
  5
c6
  8
Layer_0
  10
656.6355
  20
426.16611
  0
VERTEX
  5
c7
  8
Layer_0
  10
656.4704
  20
426.2959
  0
VERTEX
  5
c8
  8
Layer_0
  10
656.28546
  20
426.39117
  0
VERTEX
  5
c9
  8
Layer_0
  10
656.08588
  20
426.44989
  0
VERTEX
  5
ca
  8
Layer_0
  10
655.87701
  20
426.46988
  0
VERTEX
  5
cb
  8
Layer_0
  10
655.79413
  20
426.46677
  0
VERTEX
  5
cc
  8
Layer_0
  10
655.49597
  20
426.40179
  0
VERTEX
  5
cd
  8
Layer_0
  10
655.23163
  20
426.26044
  0
VERTEX
  5
ce
  8
Layer_0
  10
655.01508
  20
426.05286
  0
VERTEX
  5
cf
  8
Layer_0
  10
654.86041
  20
425.78934
  0
VERTEX
  5
d0
  8
Layer_0
  10
654.83154
  20
425.71143
  0
VERTEX
  5
d1
  8
Layer_0
  10
654.77734
  20
425.41055
  0
VERTEX
  5
d2
  8
Layer_0
  10
654.80652
  20
425.11176
  0
VERTEX
  5
d3
  8
Layer_0
  10
654.9151
  20
424.83191
  0
VERTEX
  5
d4
  8
Layer_0
  10
655.09894
  20
424.58789
  0
SEQEND
  0
POLYLINE
  5
d6
  8
Layer_0
  62
0
  70
1
  66
1
  10
0
  20
0
  30
0
  0
VERTEX
  5
d6
  8
Layer_0
  10
672.54816
  20
424.34891
  0
VERTEX
  5
d7
  8
Layer_0
  10
672.8277
  20
424.5174
  0
VERTEX
  5
d8
  8
Layer_0
  10
673.04193
  20
424.755
  0
VERTEX
  5
d9
  8
Layer_0
  10
673.17908
  20
425.04419
  0
VERTEX
  5
da
  8
Layer_0
  10
673.22742
  20
425.36743
  0
VERTEX
  5
db
  8
Layer_0
  10
673.20367
  20
425.5957
  0
VERTEX
  5
dc
  8
Layer_0
  10
673.13306
  20
425.81403
  0
VERTEX
  5
dd
  8
Layer_0
  10
673.03448
  20
425.99109
  0
VERTEX
  5
de
  8
Layer_0
  10
672.90515
  20
426.147
  0
VERTEX
  5
df
  8
Layer_0
  10
672.88556
  20
426.16611
  0
VERTEX
  5
e0
  8
Layer_0
  10
672.72034
  20
426.29572
  0
VERTEX
  5
e1
  8
Layer_0
  10
672.5354
  20
426.39096
  0
VERTEX
  5
e2
  8
Layer_0
  10
672.33588
  20
426.44971
  0
VERTEX
  5
e3
  8
Layer_0
  10
672.12701
  20
426.46988
  0
VERTEX
  5
e4
  8
Layer_0
  10
672.04413
  20
426.46677
  0
VERTEX
  5
e5
  8
Layer_0
  10
671.74603
  20
426.40164
  0
VERTEX
  5
e6
  8
Layer_0
  10
671.48175
  20
426.26025
  0
VERTEX
  5
e7
  8
Layer_0
  10
671.2652
  20
426.05276
  0
VERTEX
  5
e8
  8
Layer_0
  10
671.11041
  20
425.78934
  0
VERTEX
  5
e9
  8
Layer_0
  10
671.0816
  20
425.7114
  0
VERTEX
  5
ea
  8
Layer_0
  10
671.0274
  20
425.41052
  0
VERTEX
  5
eb
  8
Layer_0
  10
671.05658
  20
425.11172
  0
VERTEX
  5
ec
  8
Layer_0
  10
671.1651
  20
424.83188
  0
VERTEX
  5
ed
  8
Layer_0
  10
671.34894
  20
424.58786
  0
VERTEX
  5
ee
  8
Layer_0
  10
671.61121
  20
424.39343
  0
VERTEX
  5
ef
  8
Layer_0
  10
671.91229
  20
424.2861
  0
VERTEX
  5
f0
  8
Layer_0
  10
672.23151
  20
424.2699
  0
VERTEX
  5
f1
  8
Layer_0
  10
672.54816
  20
424.34891
  0
SEQEND
  0
ENDSEC
  0
EOF
