  0
SECTION
  2
HEADER
  9
$ACADVER
  1
AC1014
  9
$HANDSEED
  5
FFFF
  9
$MEASUREMENT
 70
     1
  0
ENDSEC
  0
SECTION
  2
TABLES
  0
TABLE
  2
VPORT
  5
8
330
0
100
AcDbSymbolTable
 70
     4
  0
VPORT
  5
2E
330
8
100
AcDbSymbolTableRecord
100
AcDbViewportTableRecord
  2
*ACTIVE
 70
     0
 10
0.0
 20
0.0
 11
1.0
 21
1.0
 12
210.0
 22
148.5
 13
0.0
 23
0.0
 14
10.0
 24
10.0
 15
10.0
 25
10.0
 16
0.0
 26
0.0
 36
1.0
 17
0.0
 27
0.0
 37
0.0
 40
341.0
 41
1.24
 42
50.0
 43
0.0
 44
0.0
 50
0.0
 51
0.0
 71
     0
 72
   100
 73
     1
 74
     3
 75
     0
 76
     0
 77
     0
 78
     0
  0
ENDTAB
  0
TABLE
  2
LTYPE
  5
5
330
0
100
AcDbSymbolTable
 70
     1
  0
LTYPE
  5
14
330
5
100
AcDbSymbolTableRecord
100
AcDbLinetypeTableRecord
  2
BYBLOCK
 70
     0
  3

 72
    65
 73
     0
 40
0.0
  0
LTYPE
  5
15
330
5
100
AcDbSymbolTableRecord
100
AcDbLinetypeTableRecord
  2
BYLAYER
 70
     0
  3

 72
    65
 73
     0
 40
0.0
  0
LTYPE
  5
16
330
5
100
AcDbSymbolTableRecord
100
AcDbLinetypeTableRecord
  2
CONTINUOUS
 70
     0
  3
Solid line
 72
    65
 73
     0
 40
0.0
  0
ENDTAB
  0
TABLE
  2
LAYER
  5
2
100
AcDbSymbolTable
 70
1
  0
LAYER
  5
50
100
AcDbSymbolTableRecord
100
AcDbLayerTableRecord
  2
0
 70
0
  6
CONTINUOUS
  0
ENDTAB
  0
TABLE
  2
STYLE
  5
3
330
0
100
AcDbSymbolTable
 70
     1
  0
STYLE
  5
11
330
3
100
AcDbSymbolTableRecord
100
AcDbTextStyleTableRecord
  2
STANDARD
 70
     0
 40
0.0
 41
1.0
 50
0.0
 71
     0
 42
2.5
  3
txt
  4

  0
ENDTAB
  0
TABLE
  2
VIEW
  5
6
330
0
100
AcDbSymbolTable
 70
     0
  0
ENDTAB
  0
TABLE
  2
UCS
  5
7
330
0
100
AcDbSymbolTable
 70
     0
  0
ENDTAB
  0
TABLE
  2
APPID
  5
9
330
0
100
AcDbSymbolTable
 70
     2
  0
APPID
  5
12
330
9
100
AcDbSymbolTableRecord
100
AcDbRegAppTableRecord
  2
ACAD
 70
     0
  0
ENDTAB
  0
TABLE
  2
DIMSTYLE
  5
A
330
0
100
AcDbSymbolTable
 70
     1
  0
DIMSTYLE
105
27
330
A
100
AcDbSymbolTableRecord
100
AcDbDimStyleTableRecord
  2
ISO-25
 70
     0
  3

  4

  5

  6

  7

 40
1.0
 41
2.5
 42
0.625
 43
3.75
 44
1.25
 45
0.0
 46
0.0
 47
0.0
 48
0.0
140
2.5
141
2.5
142
0.0
143
0.03937007874016
144
1.0
145
0.0
146
1.0
147
0.625
 71
     0
 72
     0
 73
     0
 74
     0
 75
     0
 76
     0
 77
     1
 78
     8
170
     0
171
     3
172
     1
173
     0
174
     0
175
     0
176
     0
177
     0
178
     0
270
     2
271
     2
272
     2
273
     2
274
     3
340
11
275
     0
280
     0
281
     0
282
     0
283
     0
284
     8
285
     0
286
     0
287
     3
288
     0
  0
ENDTAB
  0
TABLE
  2
BLOCK_RECORD
  5
1
330
0
100
AcDbSymbolTable
 70
     1
  0
BLOCK_RECORD
  5
1F
330
1
100
AcDbSymbolTableRecord
100
AcDbBlockTableRecord
  2
*MODEL_SPACE
  0
BLOCK_RECORD
  5
1B
330
1
100
AcDbSymbolTableRecord
100
AcDbBlockTableRecord
  2
*PAPER_SPACE
  0
ENDTAB
  0
ENDSEC
  0
SECTION
  2
BLOCKS
  0
BLOCK
  5
20
330
1F
100
AcDbEntity
  8
0
100
AcDbBlockBegin
  2
*MODEL_SPACE
 70
     0
 10
0.0
 20
0.0
 30
0.0
  3
*MODEL_SPACE
  1

  0
ENDBLK
  5
21
330
1F
100
AcDbEntity
  8
0
100
AcDbBlockEnd
  0
BLOCK
  5
1C
330
1B
100
AcDbEntity
 67
     1
  8
0
100
AcDbBlockBegin
  2
*PAPER_SPACE
  1

  0
ENDBLK
  5
1D
330
1B
100
AcDbEntity
 67
     1
  8
0
100
AcDbBlockEnd
  0
ENDSEC
  0
SECTION
  2
ENTITIES
  0
SPLINE
  5
100
100
AcDbEntity
  8
0
 62
7
100
AcDbSpline
 70
8
 71
3
 72
8
 73
4
 74
0
 40
0
 40
0
 40
0
 40
0
 40
1
 40
1
 40
1
 40
1
 10
57.546824
 20
-163.002363
 30
0.0
 10
57.142361
 20
-163.002363
 30
0.0
 10
56.777724
 20
-163.246006
 30
0.0
 10
56.622943
 20
-163.619681
 30
0.0
  0
SPLINE
  5
101
100
AcDbEntity
  8
0
 62
7
100
AcDbSpline
 70
8
 71
3
 72
8
 73
4
 74
0
 40
0
 40
0
 40
0
 40
0
 40
1
 40
1
 40
1
 40
1
 10
56.622943
 20
-163.619681
 30
0.0
 10
56.468161
 20
-163.993356
 30
0.0
 10
56.553717
 20
-164.423475
 30
0.0
 10
56.839716
 20
-164.709473
 30
0.0
  0
SPLINE
  5
102
100
AcDbEntity
  8
0
 62
7
100
AcDbSpline
 70
8
 71
3
 72
8
 73
4
 74
0
 40
0
 40
0
 40
0
 40
0
 40
1
 40
1
 40
1
 40
1
 10
56.839716
 20
-164.709473
 30
0.0
 10
57.125715
 20
-164.995472
 30
0.0
 10
57.555833
 20
-165.081028
 30
0.0
 10
57.929508
 20
-164.926246
 30
0.0
  0
SPLINE
  5
103
100
AcDbEntity
  8
0
 62
7
100
AcDbSpline
 70
8
 71
3
 72
8
 73
4
 74
0
 40
0
 40
0
 40
0
 40
0
 40
1
 40
1
 40
1
 40
1
 10
57.929508
 20
-164.926246
 30
0.0
 10
58.303184
 20
-164.771465
 30
0.0
 10
58.546826
 20
-164.406828
 30
0.0
 10
58.546826
 20
-164.002365
 30
0.0
  0
SPLINE
  5
104
100
AcDbEntity
  8
0
 62
7
100
AcDbSpline
 70
8
 71
3
 72
8
 73
4
 74
0
 40
0
 40
0
 40
0
 40
0
 40
1
 40
1
 40
1
 40
1
 10
58.546826
 20
-164.002365
 30
0.0
 10
58.546826
 20
-163.737148
 30
0.0
 10
58.441469
 20
-163.482793
 30
0.0
 10
58.253932
 20
-163.295257
 30
0.0
  0
SPLINE
  5
105
100
AcDbEntity
  8
0
 62
7
100
AcDbSpline
 70
8
 71
3
 72
8
 73
4
 74
0
 40
0
 40
0
 40
0
 40
0
 40
1
 40
1
 40
1
 40
1
 10
58.253932
 20
-163.295257
 30
0.0
 10
58.066396
 20
-163.107720
 30
0.0
 10
57.812041
 20
-163.002363
 30
0.0
 10
57.546824
 20
-163.002363
 30
0.0
  0
SPLINE
  5
106
100
AcDbEntity
  8
0
 62
7
100
AcDbSpline
 70
8
 71
3
 72
8
 73
4
 74
0
 40
0
 40
0
 40
0
 40
0
 40
1
 40
1
 40
1
 40
1
 10
84.571880
 20
-141.627319
 30
0.0
 10
84.167417
 20
-141.627319
 30
0.0
 10
83.802780
 20
-141.870962
 30
0.0
 10
83.647998
 20
-142.244637
 30
0.0
  0
SPLINE
  5
107
100
AcDbEntity
  8
0
 62
7
100
AcDbSpline
 70
8
 71
3
 72
8
 73
4
 74
0
 40
0
 40
0
 40
0
 40
0
 40
1
 40
1
 40
1
 40
1
 10
83.647998
 20
-142.244637
 30
0.0
 10
83.493217
 20
-142.618312
 30
0.0
 10
83.578773
 20
-143.048431
 30
0.0
 10
83.864771
 20
-143.334429
 30
0.0
  0
SPLINE
  5
108
100
AcDbEntity
  8
0
 62
7
100
AcDbSpline
 70
8
 71
3
 72
8
 73
4
 74
0
 40
0
 40
0
 40
0
 40
0
 40
1
 40
1
 40
1
 40
1
 10
83.864771
 20
-143.334429
 30
0.0
 10
84.150770
 20
-143.620428
 30
0.0
 10
84.580889
 20
-143.705984
 30
0.0
 10
84.954564
 20
-143.551202
 30
0.0
  0
SPLINE
  5
109
100
AcDbEntity
  8
0
 62
7
100
AcDbSpline
 70
8
 71
3
 72
8
 73
4
 74
0
 40
0
 40
0
 40
0
 40
0
 40
1
 40
1
 40
1
 40
1
 10
84.954564
 20
-143.551202
 30
0.0
 10
85.328239
 20
-143.396421
 30
0.0
 10
85.571882
 20
-143.031784
 30
0.0
 10
85.571882
 20
-142.627321
 30
0.0
  0
SPLINE
  5
10a
100
AcDbEntity
  8
0
 62
7
100
AcDbSpline
 70
8
 71
3
 72
8
 73
4
 74
0
 40
0
 40
0
 40
0
 40
0
 40
1
 40
1
 40
1
 40
1
 10
85.571882
 20
-142.627321
 30
0.0
 10
85.571882
 20
-142.075035
 30
0.0
 10
85.124166
 20
-141.627319
 30
0.0
 10
84.571880
 20
-141.627319
 30
0.0
  0
LWPOLYLINE
  5
10b
100
AcDbEntity
  8
0
 62
7
100
AcDbPolyline
 90
1
 70
1
 10
57.546824
 20
-163.002363
 30
0.0
  0
SPLINE
  5
10c
100
AcDbEntity
  8
0
 62
7
100
AcDbSpline
 70
8
 71
3
 72
8
 73
4
 74
0
 40
0
 40
0
 40
0
 40
0
 40
1
 40
1
 40
1
 40
1
 10
84.571880
 20
-101.027236
 30
0.0
 10
84.167417
 20
-101.027236
 30
0.0
 10
83.802780
 20
-101.270878
 30
0.0
 10
83.647998
 20
-101.644553
 30
0.0
  0
SPLINE
  5
10d
100
AcDbEntity
  8
0
 62
7
100
AcDbSpline
 70
8
 71
3
 72
8
 73
4
 74
0
 40
0
 40
0
 40
0
 40
0
 40
1
 40
1
 40
1
 40
1
 10
83.647998
 20
-101.644553
 30
0.0
 10
83.493217
 20
-102.018229
 30
0.0
 10
83.578773
 20
-102.448347
 30
0.0
 10
83.864771
 20
-102.734346
 30
0.0
  0
SPLINE
  5
10e
100
AcDbEntity
  8
0
 62
7
100
AcDbSpline
 70
8
 71
3
 72
8
 73
4
 74
0
 40
0
 40
0
 40
0
 40
0
 40
1
 40
1
 40
1
 40
1
 10
83.864771
 20
-102.734346
 30
0.0
 10
84.150770
 20
-103.020344
 30
0.0
 10
84.580889
 20
-103.105900
 30
0.0
 10
84.954564
 20
-102.951119
 30
0.0
  0
SPLINE
  5
10f
100
AcDbEntity
  8
0
 62
7
100
AcDbSpline
 70
8
 71
3
 72
8
 73
4
 74
0
 40
0
 40
0
 40
0
 40
0
 40
1
 40
1
 40
1
 40
1
 10
84.954564
 20
-102.951119
 30
0.0
 10
85.328239
 20
-102.796338
 30
0.0
 10
85.571882
 20
-102.431701
 30
0.0
 10
85.571882
 20
-102.027238
 30
0.0
  0
SPLINE
  5
110
100
AcDbEntity
  8
0
 62
7
100
AcDbSpline
 70
8
 71
3
 72
8
 73
4
 74
0
 40
0
 40
0
 40
0
 40
0
 40
1
 40
1
 40
1
 40
1
 10
85.571882
 20
-102.027238
 30
0.0
 10
85.571882
 20
-101.474952
 30
0.0
 10
85.124166
 20
-101.027236
 30
0.0
 10
84.571880
 20
-101.027236
 30
0.0
  0
LWPOLYLINE
  5
111
100
AcDbEntity
  8
0
 62
7
100
AcDbPolyline
 90
1
 70
1
 10
84.571880
 20
-141.627319
 30
0.0
  0
SPLINE
  5
112
100
AcDbEntity
  8
0
 62
7
100
AcDbSpline
 70
8
 71
3
 72
8
 73
4
 74
0
 40
0
 40
0
 40
0
 40
0
 40
1
 40
1
 40
1
 40
1
 10
160.772036
 20
-148.127332
 30
0.0
 10
160.367573
 20
-148.127332
 30
0.0
 10
160.002936
 20
-148.370975
 30
0.0
 10
159.848155
 20
-148.744650
 30
0.0
  0
SPLINE
  5
113
100
AcDbEntity
  8
0
 62
7
100
AcDbSpline
 70
8
 71
3
 72
8
 73
4
 74
0
 40
0
 40
0
 40
0
 40
0
 40
1
 40
1
 40
1
 40
1
 10
159.848155
 20
-148.744650
 30
0.0
 10
159.693374
 20
-149.118325
 30
0.0
 10
159.778929
 20
-149.548444
 30
0.0
 10
160.064928
 20
-149.834443
 30
0.0
  0
SPLINE
  5
114
100
AcDbEntity
  8
0
 62
7
100
AcDbSpline
 70
8
 71
3
 72
8
 73
4
 74
0
 40
0
 40
0
 40
0
 40
0
 40
1
 40
1
 40
1
 40
1
 10
160.064928
 20
-149.834443
 30
0.0
 10
160.350927
 20
-150.120441
 30
0.0
 10
160.781045
 20
-150.205997
 30
0.0
 10
161.154720
 20
-150.051216
 30
0.0
  0
SPLINE
  5
115
100
AcDbEntity
  8
0
 62
7
100
AcDbSpline
 70
8
 71
3
 72
8
 73
4
 74
0
 40
0
 40
0
 40
0
 40
0
 40
1
 40
1
 40
1
 40
1
 10
161.154720
 20
-150.051216
 30
0.0
 10
161.528396
 20
-149.896435
 30
0.0
 10
161.772038
 20
-149.531797
 30
0.0
 10
161.772038
 20
-149.127334
 30
0.0
  0
SPLINE
  5
116
100
AcDbEntity
  8
0
 62
7
100
AcDbSpline
 70
8
 71
3
 72
8
 73
4
 74
0
 40
0
 40
0
 40
0
 40
0
 40
1
 40
1
 40
1
 40
1
 10
161.772038
 20
-149.127334
 30
0.0
 10
161.772038
 20
-148.862117
 30
0.0
 10
161.666681
 20
-148.607763
 30
0.0
 10
161.479145
 20
-148.420226
 30
0.0
  0
SPLINE
  5
117
100
AcDbEntity
  8
0
 62
7
100
AcDbSpline
 70
8
 71
3
 72
8
 73
4
 74
0
 40
0
 40
0
 40
0
 40
0
 40
1
 40
1
 40
1
 40
1
 10
161.479145
 20
-148.420226
 30
0.0
 10
161.291608
 20
-148.232689
 30
0.0
 10
161.037253
 20
-148.127332
 30
0.0
 10
160.772036
 20
-148.127332
 30
0.0
  0
LWPOLYLINE
  5
118
100
AcDbEntity
  8
0
 62
7
100
AcDbPolyline
 90
1
 70
1
 10
84.571880
 20
-101.027236
 30
0.0
  0
SPLINE
  5
119
100
AcDbEntity
  8
0
 62
7
100
AcDbSpline
 70
8
 71
3
 72
8
 73
4
 74
0
 40
0
 40
0
 40
0
 40
0
 40
1
 40
1
 40
1
 40
1
 10
160.772036
 20
-110.027254
 30
0.0
 10
160.367573
 20
-110.027254
 30
0.0
 10
160.002936
 20
-110.270897
 30
0.0
 10
159.848155
 20
-110.644572
 30
0.0
  0
SPLINE
  5
11a
100
AcDbEntity
  8
0
 62
7
100
AcDbSpline
 70
8
 71
3
 72
8
 73
4
 74
0
 40
0
 40
0
 40
0
 40
0
 40
1
 40
1
 40
1
 40
1
 10
159.848155
 20
-110.644572
 30
0.0
 10
159.693374
 20
-111.018247
 30
0.0
 10
159.778929
 20
-111.448366
 30
0.0
 10
160.064928
 20
-111.734364
 30
0.0
  0
SPLINE
  5
11b
100
AcDbEntity
  8
0
 62
7
100
AcDbSpline
 70
8
 71
3
 72
8
 73
4
 74
0
 40
0
 40
0
 40
0
 40
0
 40
1
 40
1
 40
1
 40
1
 10
160.064928
 20
-111.734364
 30
0.0
 10
160.350927
 20
-112.020363
 30
0.0
 10
160.781045
 20
-112.105919
 30
0.0
 10
161.154720
 20
-111.951138
 30
0.0
  0
SPLINE
  5
11c
100
AcDbEntity
  8
0
 62
7
100
AcDbSpline
 70
8
 71
3
 72
8
 73
4
 74
0
 40
0
 40
0
 40
0
 40
0
 40
1
 40
1
 40
1
 40
1
 10
161.154720
 20
-111.951138
 30
0.0
 10
161.528396
 20
-111.796356
 30
0.0
 10
161.772038
 20
-111.431719
 30
0.0
 10
161.772038
 20
-111.027256
 30
0.0
  0
SPLINE
  5
11d
100
AcDbEntity
  8
0
 62
7
100
AcDbSpline
 70
8
 71
3
 72
8
 73
4
 74
0
 40
0
 40
0
 40
0
 40
0
 40
1
 40
1
 40
1
 40
1
 10
161.772038
 20
-111.027256
 30
0.0
 10
161.772038
 20
-110.762039
 30
0.0
 10
161.666681
 20
-110.507685
 30
0.0
 10
161.479145
 20
-110.320148
 30
0.0
  0
SPLINE
  5
11e
100
AcDbEntity
  8
0
 62
7
100
AcDbSpline
 70
8
 71
3
 72
8
 73
4
 74
0
 40
0
 40
0
 40
0
 40
0
 40
1
 40
1
 40
1
 40
1
 10
161.479145
 20
-110.320148
 30
0.0
 10
161.291608
 20
-110.132611
 30
0.0
 10
161.037253
 20
-110.027254
 30
0.0
 10
160.772036
 20
-110.027254
 30
0.0
  0
LWPOLYLINE
  5
11f
100
AcDbEntity
  8
0
 62
7
100
AcDbPolyline
 90
1
 70
1
 10
160.772036
 20
-148.127332
 30
0.0
  0
LWPOLYLINE
  5
120
100
AcDbEntity
  8
0
 62
7
100
AcDbPolyline
 90
1
 70
1
 10
160.772036
 20
-110.027254
 30
0.0
  0
LWPOLYLINE
  5
121
100
AcDbEntity
  8
0
 62
7
100
AcDbPolyline
 90
2
 70
0
 10
133.895781
 20
-161.037559
 30
0.0
 10
133.895781
 20
-165.537568
 30
0.0
  0
LWPOLYLINE
  5
122
100
AcDbEntity
  8
0
 62
7
100
AcDbPolyline
 90
2
 70
0
 10
133.896981
 20
-142.052320
 30
0.0
 10
133.896981
 20
-146.552329
 30
0.0
  0
LWPOLYLINE
  5
123
100
AcDbEntity
  8
0
 62
7
100
AcDbPolyline
 90
2
 70
0
 10
114.897342
 20
-158.538554
 30
0.0
 10
114.897342
 20
-163.038563
 30
0.0
  0
LWPOLYLINE
  5
124
100
AcDbEntity
  8
0
 62
7
100
AcDbPolyline
 90
2
 70
0
 10
95.797303
 20
-165.451568
 30
0.0
 10
92.297296
 20
-165.451568
 30
0.0
  0
LWPOLYLINE
  5
125
100
AcDbEntity
  8
0
 62
7
100
AcDbPolyline
 90
2
 70
0
 10
114.896942
 20
-143.933124
 30
0.0
 10
111.396935
 20
-143.933124
 30
0.0
  0
LWPOLYLINE
  5
126
100
AcDbEntity
  8
0
 62
7
100
AcDbPolyline
 90
2
 70
0
 10
73.296857
 20
-144.352325
 30
0.0
 10
76.796864
 20
-144.352325
 30
0.0
  0
LWPOLYLINE
  5
127
100
AcDbEntity
  8
0
 62
7
100
AcDbPolyline
 90
2
 70
0
 10
92.297296
 20
-160.951559
 30
0.0
 10
95.797303
 20
-160.951559
 30
0.0
  0
LWPOLYLINE
  5
128
100
AcDbEntity
  8
0
 62
7
100
AcDbPolyline
 90
2
 70
0
 10
111.396935
 20
-120.458476
 30
0.0
 10
114.896942
 20
-120.458476
 30
0.0
  0
LWPOLYLINE
  5
129
100
AcDbEntity
  8
0
 62
7
100
AcDbPolyline
 90
2
 70
0
 10
149.497013
 20
-150.852338
 30
0.0
 10
152.997020
 20
-150.852338
 30
0.0
  0
LWPOLYLINE
  5
12a
100
AcDbEntity
  8
0
 62
7
100
AcDbPolyline
 90
2
 70
0
 10
111.396935
 20
-124.958485
 30
0.0
 10
111.396935
 20
-120.458476
 30
0.0
  0
LWPOLYLINE
  5
12b
100
AcDbEntity
  8
0
 62
7
100
AcDbPolyline
 90
2
 70
0
 10
92.297296
 20
-165.451568
 30
0.0
 10
92.297296
 20
-160.951559
 30
0.0
  0
LWPOLYLINE
  5
12c
100
AcDbEntity
  8
0
 62
7
100
AcDbPolyline
 90
2
 70
0
 10
73.296857
 20
-148.852334
 30
0.0
 10
73.296857
 20
-144.352325
 30
0.0
  0
LWPOLYLINE
  5
12d
100
AcDbEntity
  8
0
 62
7
100
AcDbPolyline
 90
2
 70
0
 10
92.296896
 20
-142.052320
 30
0.0
 10
95.796903
 20
-142.052320
 30
0.0
  0
LWPOLYLINE
  5
12e
100
AcDbEntity
  8
0
 62
7
100
AcDbPolyline
 90
2
 70
0
 10
130.396974
 20
-142.052320
 30
0.0
 10
133.896981
 20
-142.052320
 30
0.0
  0
LWPOLYLINE
  5
12f
100
AcDbEntity
  8
0
 62
7
100
AcDbPolyline
 90
2
 70
0
 10
114.896942
 20
-120.458476
 30
0.0
 10
114.896942
 20
-124.958485
 30
0.0
  0
LWPOLYLINE
  5
130
100
AcDbEntity
  8
0
 62
7
100
AcDbPolyline
 90
2
 70
0
 10
133.895781
 20
-165.537568
 30
0.0
 10
130.395774
 20
-165.537568
 30
0.0
  0
LWPOLYLINE
  5
131
100
AcDbEntity
  8
0
 62
7
100
AcDbPolyline
 90
2
 70
0
 10
172.047059
 20
-150.854338
 30
0.0
 10
172.047059
 20
-155.354347
 30
0.0
  0
LWPOLYLINE
  5
132
100
AcDbEntity
  8
0
 62
7
100
AcDbPolyline
 90
2
 70
0
 10
168.547052
 20
-155.354347
 30
0.0
 10
168.547052
 20
-150.854338
 30
0.0
  0
LWPOLYLINE
  5
133
100
AcDbEntity
  8
0
 62
7
100
AcDbPolyline
 90
2
 70
0
 10
172.047059
 20
-155.354347
 30
0.0
 10
168.547052
 20
-155.354347
 30
0.0
  0
LWPOLYLINE
  5
134
100
AcDbEntity
  8
0
 62
7
100
AcDbPolyline
 90
2
 70
0
 10
152.997020
 20
-155.352347
 30
0.0
 10
149.497013
 20
-155.352347
 30
0.0
  0
LWPOLYLINE
  5
135
100
AcDbEntity
  8
0
 62
7
100
AcDbPolyline
 90
2
 70
0
 10
130.395774
 20
-161.037559
 30
0.0
 10
133.895781
 20
-161.037559
 30
0.0
  0
LWPOLYLINE
  5
136
100
AcDbEntity
  8
0
 62
7
100
AcDbPolyline
 90
2
 70
0
 10
130.395774
 20
-165.537568
 30
0.0
 10
130.395774
 20
-161.037559
 30
0.0
  0
LWPOLYLINE
  5
137
100
AcDbEntity
  8
0
 62
7
100
AcDbPolyline
 90
2
 70
0
 10
111.397335
 20
-158.538554
 30
0.0
 10
114.897342
 20
-158.538554
 30
0.0
  0
LWPOLYLINE
  5
138
100
AcDbEntity
  8
0
 62
7
100
AcDbPolyline
 90
2
 70
0
 10
95.796903
 20
-142.052320
 30
0.0
 10
95.796903
 20
-146.552329
 30
0.0
  0
LWPOLYLINE
  5
139
100
AcDbEntity
  8
0
 62
7
100
AcDbPolyline
 90
2
 70
0
 10
152.997020
 20
-136.352308
 30
0.0
 10
149.497013
 20
-136.352308
 30
0.0
  0
LWPOLYLINE
  5
13a
100
AcDbEntity
  8
0
 62
7
100
AcDbPolyline
 90
2
 70
0
 10
130.396974
 20
-122.952281
 30
0.0
 10
133.896981
 20
-122.952281
 30
0.0
  0
LWPOLYLINE
  5
13b
100
AcDbEntity
  8
0
 62
7
100
AcDbPolyline
 90
3
 70
0
 10
111.396935
 20
-139.433114
 30
0.0
 10
114.896942
 20
-139.433114
 30
0.0
 10
114.896942
 20
-143.933124
 30
0.0
  0
LWPOLYLINE
  5
13c
100
AcDbEntity
  8
0
 62
7
100
AcDbPolyline
 90
2
 70
0
 10
133.896981
 20
-122.952281
 30
0.0
 10
133.896981
 20
-127.452290
 30
0.0
  0
LWPOLYLINE
  5
13d
100
AcDbEntity
  8
0
 62
7
100
AcDbPolyline
 90
2
 70
0
 10
149.497013
 20
-136.352308
 30
0.0
 10
149.497013
 20
-131.852299
 30
0.0
  0
LWPOLYLINE
  5
13e
100
AcDbEntity
  8
0
 62
7
100
AcDbPolyline
 90
2
 70
0
 10
111.397335
 20
-163.038563
 30
0.0
 10
111.397335
 20
-158.538554
 30
0.0
  0
LWPOLYLINE
  5
13f
100
AcDbEntity
  8
0
 62
7
100
AcDbPolyline
 90
2
 70
0
 10
114.897342
 20
-163.038563
 30
0.0
 10
111.397335
 20
-163.038563
 30
0.0
  0
LWPOLYLINE
  5
140
100
AcDbEntity
  8
0
 62
7
100
AcDbPolyline
 90
2
 70
0
 10
95.797303
 20
-160.951559
 30
0.0
 10
95.797303
 20
-165.451568
 30
0.0
  0
LWPOLYLINE
  5
141
100
AcDbEntity
  8
0
 62
7
100
AcDbPolyline
 90
2
 70
0
 10
76.796864
 20
-144.352325
 30
0.0
 10
76.796864
 20
-148.852334
 30
0.0
  0
LWPOLYLINE
  5
142
100
AcDbEntity
  8
0
 62
7
100
AcDbPolyline
 90
2
 70
0
 10
152.997020
 20
-150.852338
 30
0.0
 10
152.997020
 20
-155.352347
 30
0.0
  0
LWPOLYLINE
  5
143
100
AcDbEntity
  8
0
 62
7
100
AcDbPolyline
 90
2
 70
0
 10
130.396974
 20
-146.552329
 30
0.0
 10
130.396974
 20
-142.052320
 30
0.0
  0
LWPOLYLINE
  5
144
100
AcDbEntity
  8
0
 62
7
100
AcDbPolyline
 90
2
 70
0
 10
76.796864
 20
-148.852334
 30
0.0
 10
73.296857
 20
-148.852334
 30
0.0
  0
LWPOLYLINE
  5
145
100
AcDbEntity
  8
0
 62
7
100
AcDbPolyline
 90
2
 70
0
 10
92.296896
 20
-146.552329
 30
0.0
 10
92.296896
 20
-142.052320
 30
0.0
  0
LWPOLYLINE
  5
146
100
AcDbEntity
  8
0
 62
7
100
AcDbPolyline
 90
2
 70
0
 10
111.396935
 20
-143.933124
 30
0.0
 10
111.396935
 20
-139.433114
 30
0.0
  0
LWPOLYLINE
  5
147
100
AcDbEntity
  8
0
 62
7
100
AcDbPolyline
 90
2
 70
0
 10
130.396974
 20
-127.452290
 30
0.0
 10
130.396974
 20
-122.952281
 30
0.0
  0
LWPOLYLINE
  5
148
100
AcDbEntity
  8
0
 62
7
100
AcDbPolyline
 90
2
 70
0
 10
133.896981
 20
-146.552329
 30
0.0
 10
130.396974
 20
-146.552329
 30
0.0
  0
LWPOLYLINE
  5
149
100
AcDbEntity
  8
0
 62
7
100
AcDbPolyline
 90
2
 70
0
 10
152.997020
 20
-131.852299
 30
0.0
 10
152.997020
 20
-136.352308
 30
0.0
  0
LWPOLYLINE
  5
14a
100
AcDbEntity
  8
0
 62
7
100
AcDbPolyline
 90
2
 70
0
 10
149.497013
 20
-155.352347
 30
0.0
 10
149.497013
 20
-150.852338
 30
0.0
  0
LWPOLYLINE
  5
14b
100
AcDbEntity
  8
0
 62
7
100
AcDbPolyline
 90
2
 70
0
 10
133.896981
 20
-127.452290
 30
0.0
 10
130.396974
 20
-127.452290
 30
0.0
  0
LWPOLYLINE
  5
14c
100
AcDbEntity
  8
0
 62
7
100
AcDbPolyline
 90
2
 70
0
 10
95.796903
 20
-146.552329
 30
0.0
 10
92.296896
 20
-146.552329
 30
0.0
  0
LWPOLYLINE
  5
14d
100
AcDbEntity
  8
0
 62
7
100
AcDbPolyline
 90
2
 70
0
 10
171.997059
 20
-131.852299
 30
0.0
 10
171.997059
 20
-136.351808
 30
0.0
  0
LWPOLYLINE
  5
14e
100
AcDbEntity
  8
0
 62
7
100
AcDbPolyline
 90
2
 70
0
 10
76.796864
 20
-91.752217
 30
0.0
 10
73.296857
 20
-91.752217
 30
0.0
  0
LWPOLYLINE
  5
14f
100
AcDbEntity
  8
0
 62
7
100
AcDbPolyline
 90
2
 70
0
 10
130.396974
 20
-84.852202
 30
0.0
 10
133.896981
 20
-84.852202
 30
0.0
  0
LWPOLYLINE
  5
150
100
AcDbEntity
  8
0
 62
7
100
AcDbPolyline
 90
2
 70
0
 10
133.896981
 20
-89.352212
 30
0.0
 10
130.396974
 20
-89.352212
 30
0.0
  0
LWPOLYLINE
  5
151
100
AcDbEntity
  8
0
 62
7
100
AcDbPolyline
 90
2
 70
0
 10
168.497052
 20
-112.628259
 30
0.0
 10
171.997059
 20
-112.628259
 30
0.0
  0
LWPOLYLINE
  5
152
100
AcDbEntity
  8
0
 62
7
100
AcDbPolyline
 90
2
 70
0
 10
111.396935
 20
-86.733006
 30
0.0
 10
111.396935
 20
-82.232997
 30
0.0
  0
LWPOLYLINE
  5
153
100
AcDbEntity
  8
0
 62
7
100
AcDbPolyline
 90
2
 70
0
 10
73.296857
 20
-87.252207
 30
0.0
 10
76.796864
 20
-87.252207
 30
0.0
  0
LWPOLYLINE
  5
154
100
AcDbEntity
  8
0
 62
7
100
AcDbPolyline
 90
2
 70
0
 10
92.296896
 20
-84.750602
 30
0.0
 10
95.796903
 20
-84.750602
 30
0.0
  0
LWPOLYLINE
  5
155
100
AcDbEntity
  8
0
 62
7
100
AcDbPolyline
 90
2
 70
0
 10
114.896942
 20
-82.232997
 30
0.0
 10
114.896942
 20
-86.733006
 30
0.0
  0
LWPOLYLINE
  5
156
100
AcDbEntity
  8
0
 62
7
100
AcDbPolyline
 90
2
 70
0
 10
149.497013
 20
-98.252230
 30
0.0
 10
149.497013
 20
-93.752221
 30
0.0
  0
LWPOLYLINE
  5
157
100
AcDbEntity
  8
0
 62
7
100
AcDbPolyline
 90
2
 70
0
 10
152.997020
 20
-117.152269
 30
0.0
 10
149.497013
 20
-117.152269
 30
0.0
  0
LWPOLYLINE
  5
158
100
AcDbEntity
  8
0
 62
7
100
AcDbPolyline
 90
2
 70
0
 10
76.796864
 20
-87.252207
 30
0.0
 10
76.796864
 20
-91.752217
 30
0.0
  0
LWPOLYLINE
  5
159
100
AcDbEntity
  8
0
 62
7
100
AcDbPolyline
 90
2
 70
0
 10
73.296857
 20
-91.752217
 30
0.0
 10
73.296857
 20
-87.252207
 30
0.0
  0
LWPOLYLINE
  5
15a
100
AcDbEntity
  8
0
 62
7
100
AcDbPolyline
 90
2
 70
0
 10
168.497052
 20
-98.253630
 30
0.0
 10
168.497052
 20
-93.753621
 30
0.0
  0
LWPOLYLINE
  5
15b
100
AcDbEntity
  8
0
 62
7
100
AcDbPolyline
 90
2
 70
0
 10
149.497013
 20
-112.652259
 30
0.0
 10
152.997020
 20
-112.652259
 30
0.0
  0
LWPOLYLINE
  5
15c
100
AcDbEntity
  8
0
 62
7
100
AcDbPolyline
 90
2
 70
0
 10
114.896942
 20
-86.733006
 30
0.0
 10
111.396935
 20
-86.733006
 30
0.0
  0
LWPOLYLINE
  5
15d
100
AcDbEntity
  8
0
 62
7
100
AcDbPolyline
 90
2
 70
0
 10
168.547052
 20
-150.854338
 30
0.0
 10
172.047059
 20
-150.854338
 30
0.0
  0
LWPOLYLINE
  5
15e
100
AcDbEntity
  8
0
 62
7
100
AcDbPolyline
 90
2
 70
0
 10
95.796903
 20
-89.250611
 30
0.0
 10
92.296896
 20
-89.250611
 30
0.0
  0
LWPOLYLINE
  5
15f
100
AcDbEntity
  8
0
 62
7
100
AcDbPolyline
 90
2
 70
0
 10
152.997020
 20
-112.652259
 30
0.0
 10
152.997020
 20
-117.152269
 30
0.0
  0
LWPOLYLINE
  5
160
100
AcDbEntity
  8
0
 62
7
100
AcDbPolyline
 90
2
 70
0
 10
152.997020
 20
-98.252230
 30
0.0
 10
149.497013
 20
-98.252230
 30
0.0
  0
LWPOLYLINE
  5
161
100
AcDbEntity
  8
0
 62
7
100
AcDbPolyline
 90
2
 70
0
 10
92.296896
 20
-89.250611
 30
0.0
 10
92.296896
 20
-84.750602
 30
0.0
  0
LWPOLYLINE
  5
162
100
AcDbEntity
  8
0
 62
7
100
AcDbPolyline
 90
2
 70
0
 10
168.497052
 20
-93.753621
 30
0.0
 10
171.997059
 20
-93.753621
 30
0.0
  0
LWPOLYLINE
  5
163
100
AcDbEntity
  8
0
 62
7
100
AcDbPolyline
 90
2
 70
0
 10
133.896981
 20
-84.852202
 30
0.0
 10
133.896981
 20
-89.352212
 30
0.0
  0
LWPOLYLINE
  5
164
100
AcDbEntity
  8
0
 62
7
100
AcDbPolyline
 90
2
 70
0
 10
152.997020
 20
-93.752221
 30
0.0
 10
152.997020
 20
-98.252230
 30
0.0
  0
LWPOLYLINE
  5
165
100
AcDbEntity
  8
0
 62
7
100
AcDbPolyline
 90
2
 70
0
 10
171.997059
 20
-93.753621
 30
0.0
 10
171.997059
 20
-98.253630
 30
0.0
  0
LWPOLYLINE
  5
166
100
AcDbEntity
  8
0
 62
7
100
AcDbPolyline
 90
2
 70
0
 10
168.497052
 20
-117.128269
 30
0.0
 10
168.497052
 20
-112.628259
 30
0.0
  0
LWPOLYLINE
  5
167
100
AcDbEntity
  8
0
 62
7
100
AcDbPolyline
 90
2
 70
0
 10
149.497013
 20
-93.752221
 30
0.0
 10
152.997020
 20
-93.752221
 30
0.0
  0
LWPOLYLINE
  5
168
100
AcDbEntity
  8
0
 62
7
100
AcDbPolyline
 90
2
 70
0
 10
171.997059
 20
-112.628259
 30
0.0
 10
171.997059
 20
-117.128269
 30
0.0
  0
LWPOLYLINE
  5
169
100
AcDbEntity
  8
0
 62
7
100
AcDbPolyline
 90
2
 70
0
 10
130.396974
 20
-89.352212
 30
0.0
 10
130.396974
 20
-84.852202
 30
0.0
  0
LWPOLYLINE
  5
16a
100
AcDbEntity
  8
0
 62
7
100
AcDbPolyline
 90
2
 70
0
 10
171.997059
 20
-98.253630
 30
0.0
 10
168.497052
 20
-98.253630
 30
0.0
  0
LWPOLYLINE
  5
16b
100
AcDbEntity
  8
0
 62
7
100
AcDbPolyline
 90
2
 70
0
 10
149.497013
 20
-117.152269
 30
0.0
 10
149.497013
 20
-112.652259
 30
0.0
  0
LWPOLYLINE
  5
16c
100
AcDbEntity
  8
0
 62
7
100
AcDbPolyline
 90
2
 70
0
 10
171.997059
 20
-136.351808
 30
0.0
 10
168.497052
 20
-136.351808
 30
0.0
  0
LWPOLYLINE
  5
16d
100
AcDbEntity
  8
0
 62
7
100
AcDbPolyline
 90
2
 70
0
 10
171.997059
 20
-117.128269
 30
0.0
 10
168.497052
 20
-117.128269
 30
0.0
  0
LWPOLYLINE
  5
16e
100
AcDbEntity
  8
0
 62
7
100
AcDbPolyline
 90
2
 70
0
 10
95.796903
 20
-84.750602
 30
0.0
 10
95.796903
 20
-89.250611
 30
0.0
  0
LWPOLYLINE
  5
16f
100
AcDbEntity
  8
0
 62
7
100
AcDbPolyline
 90
2
 70
0
 10
168.497052
 20
-136.351808
 30
0.0
 10
168.497052
 20
-131.852299
 30
0.0
  0
LWPOLYLINE
  5
170
100
AcDbEntity
  8
0
 62
7
100
AcDbPolyline
 90
2
 70
0
 10
111.396935
 20
-82.232997
 30
0.0
 10
114.896942
 20
-82.232997
 30
0.0
  0
LWPOLYLINE
  5
171
100
AcDbEntity
  8
0
 62
7
100
AcDbPolyline
 90
2
 70
0
 10
92.296896
 20
-127.452290
 30
0.0
 10
92.296896
 20
-122.952281
 30
0.0
  0
LWPOLYLINE
  5
172
100
AcDbEntity
  8
0
 62
7
100
AcDbPolyline
 90
2
 70
0
 10
73.296857
 20
-125.352286
 30
0.0
 10
76.796864
 20
-125.352286
 30
0.0
  0
LWPOLYLINE
  5
173
100
AcDbEntity
  8
0
 62
7
100
AcDbPolyline
 90
2
 70
0
 10
133.896981
 20
-103.750641
 30
0.0
 10
133.896981
 20
-108.250650
 30
0.0
  0
LWPOLYLINE
  5
174
100
AcDbEntity
  8
0
 62
7
100
AcDbPolyline
 90
2
 70
0
 10
114.896942
 20
-105.833045
 30
0.0
 10
111.396935
 20
-105.833045
 30
0.0
  0
LWPOLYLINE
  5
175
100
AcDbEntity
  8
0
 62
7
100
AcDbPolyline
 90
2
 70
0
 10
73.296857
 20
-129.852295
 30
0.0
 10
73.296857
 20
-125.352286
 30
0.0
  0
LWPOLYLINE
  5
176
100
AcDbEntity
  8
0
 62
7
100
AcDbPolyline
 90
2
 70
0
 10
73.296857
 20
-110.852256
 30
0.0
 10
73.296857
 20
-106.352247
 30
0.0
  0
LWPOLYLINE
  5
177
100
AcDbEntity
  8
0
 62
7
100
AcDbPolyline
 90
2
 70
0
 10
130.396974
 20
-103.750641
 30
0.0
 10
133.896981
 20
-103.750641
 30
0.0
  0
LWPOLYLINE
  5
178
100
AcDbEntity
  8
0
 62
7
100
AcDbPolyline
 90
2
 70
0
 10
92.296896
 20
-108.452251
 30
0.0
 10
92.296896
 20
-103.952242
 30
0.0
  0
LWPOLYLINE
  5
179
100
AcDbEntity
  8
0
 62
7
100
AcDbPolyline
 90
2
 70
0
 10
76.796864
 20
-129.852295
 30
0.0
 10
73.296857
 20
-129.852295
 30
0.0
  0
LWPOLYLINE
  5
17a
100
AcDbEntity
  8
0
 62
7
100
AcDbPolyline
 90
2
 70
0
 10
95.796903
 20
-108.452251
 30
0.0
 10
92.296896
 20
-108.452251
 30
0.0
  0
LWPOLYLINE
  5
17b
100
AcDbEntity
  8
0
 62
7
100
AcDbPolyline
 90
2
 70
0
 10
76.796864
 20
-125.352286
 30
0.0
 10
76.796864
 20
-129.852295
 30
0.0
  0
LWPOLYLINE
  5
17c
100
AcDbEntity
  8
0
 62
7
100
AcDbPolyline
 90
2
 70
0
 10
73.296857
 20
-106.352247
 30
0.0
 10
76.796864
 20
-106.352247
 30
0.0
  0
LWPOLYLINE
  5
17d
100
AcDbEntity
  8
0
 62
7
100
AcDbPolyline
 90
2
 70
0
 10
111.396935
 20
-101.333036
 30
0.0
 10
114.896942
 20
-101.333036
 30
0.0
  0
LWPOLYLINE
  5
17e
100
AcDbEntity
  8
0
 62
7
100
AcDbPolyline
 90
2
 70
0
 10
111.396935
 20
-105.833045
 30
0.0
 10
111.396935
 20
-101.333036
 30
0.0
  0
LWPOLYLINE
  5
17f
100
AcDbEntity
  8
0
 62
7
100
AcDbPolyline
 90
2
 70
0
 10
76.796864
 20
-106.352247
 30
0.0
 10
76.796864
 20
-110.852256
 30
0.0
  0
LWPOLYLINE
  5
180
100
AcDbEntity
  8
0
 62
7
100
AcDbPolyline
 90
2
 70
0
 10
95.796903
 20
-103.952242
 30
0.0
 10
95.796903
 20
-108.452251
 30
0.0
  0
LWPOLYLINE
  5
181
100
AcDbEntity
  8
0
 62
7
100
AcDbPolyline
 90
2
 70
0
 10
114.896942
 20
-124.958485
 30
0.0
 10
111.396935
 20
-124.958485
 30
0.0
  0
LWPOLYLINE
  5
182
100
AcDbEntity
  8
0
 62
7
100
AcDbPolyline
 90
2
 70
0
 10
95.796903
 20
-127.452290
 30
0.0
 10
92.296896
 20
-127.452290
 30
0.0
  0
LWPOLYLINE
  5
183
100
AcDbEntity
  8
0
 62
7
100
AcDbPolyline
 90
2
 70
0
 10
76.796864
 20
-110.852256
 30
0.0
 10
73.296857
 20
-110.852256
 30
0.0
  0
LWPOLYLINE
  5
184
100
AcDbEntity
  8
0
 62
7
100
AcDbPolyline
 90
2
 70
0
 10
114.896942
 20
-101.333036
 30
0.0
 10
114.896942
 20
-105.833045
 30
0.0
  0
LWPOLYLINE
  5
185
100
AcDbEntity
  8
0
 62
7
100
AcDbPolyline
 90
2
 70
0
 10
92.296896
 20
-103.952242
 30
0.0
 10
95.796903
 20
-103.952242
 30
0.0
  0
LWPOLYLINE
  5
186
100
AcDbEntity
  8
0
 62
7
100
AcDbPolyline
 90
3
 70
0
 10
92.296896
 20
-122.952281
 30
0.0
 10
95.796903
 20
-122.952281
 30
0.0
 10
95.796903
 20
-127.452290
 30
0.0
  0
LWPOLYLINE
  5
187
100
AcDbEntity
  8
0
 62
7
100
AcDbPolyline
 90
2
 70
0
 10
68.499134
 20
-166.334370
 30
0.0
 10
71.879881
 20
-165.428502
 30
0.0
  0
LWPOLYLINE
  5
188
100
AcDbEntity
  8
0
 62
7
100
AcDbPolyline
 90
2
 70
0
 10
57.063223
 20
-173.050984
 30
0.0
 10
58.813227
 20
-176.082078
 30
0.0
  0
LWPOLYLINE
  5
189
100
AcDbEntity
  8
0
 62
7
100
AcDbPolyline
 90
2
 70
0
 10
54.916105
 20
-178.332082
 30
0.0
 10
53.166101
 20
-175.300988
 30
0.0
  0
LWPOLYLINE
  5
18a
100
AcDbEntity
  8
0
 62
7
100
AcDbPolyline
 90
2
 70
0
 10
130.396974
 20
-108.250650
 30
0.0
 10
130.396974
 20
-103.750641
 30
0.0
  0
LWPOLYLINE
  5
18b
100
AcDbEntity
  8
0
 62
7
100
AcDbPolyline
 90
2
 70
0
 10
71.879881
 20
-165.428502
 30
0.0
 10
73.044569
 20
-169.775177
 30
0.0
  0
LWPOLYLINE
  5
18c
100
AcDbEntity
  8
0
 62
7
100
AcDbPolyline
 90
2
 70
0
 10
133.896981
 20
-108.250650
 30
0.0
 10
130.396974
 20
-108.250650
 30
0.0
  0
LWPOLYLINE
  5
18d
100
AcDbEntity
  8
0
 62
7
100
AcDbPolyline
 90
2
 70
0
 10
69.663822
 20
-170.681045
 30
0.0
 10
68.499134
 20
-166.334370
 30
0.0
  0
LWPOLYLINE
  5
18e
100
AcDbEntity
  8
0
 62
7
100
AcDbPolyline
 90
2
 70
0
 10
53.166101
 20
-175.300988
 30
0.0
 10
57.063223
 20
-173.050984
 30
0.0
  0
LWPOLYLINE
  5
18f
100
AcDbEntity
  8
0
 62
7
100
AcDbPolyline
 90
2
 70
0
 10
73.044569
 20
-169.775177
 30
0.0
 10
69.663822
 20
-170.681045
 30
0.0
  0
LWPOLYLINE
  5
190
100
AcDbEntity
  8
0
 62
7
100
AcDbPolyline
 90
2
 70
0
 10
58.813227
 20
-176.082078
 30
0.0
 10
54.916105
 20
-178.332082
 30
0.0
  0
LWPOLYLINE
  5
191
100
AcDbEntity
  8
0
 62
7
100
AcDbPolyline
 90
2
 70
0
 10
149.497013
 20
-131.852299
 30
0.0
 10
152.997020
 20
-131.852299
 30
0.0
  0
SPLINE
  5
192
100
AcDbEntity
  8
0
 62
7
100
AcDbSpline
 70
8
 71
3
 72
8
 73
4
 74
0
 40
0
 40
0
 40
0
 40
0
 40
1
 40
1
 40
1
 40
1
 10
4.223394
 20
-6.724044
 30
0.0
 10
4.203171
 20
-6.724044
 30
0.0
 10
4.184939
 20
-6.736226
 30
0.0
 10
4.177200
 20
-6.754910
 30
0.0
  0
SPLINE
  5
193
100
AcDbEntity
  8
0
 62
7
100
AcDbSpline
 70
8
 71
3
 72
8
 73
4
 74
0
 40
0
 40
0
 40
0
 40
0
 40
1
 40
1
 40
1
 40
1
 10
4.177200
 20
-6.754910
 30
0.0
 10
4.169461
 20
-6.773594
 30
0.0
 10
4.173738
 20
-6.795099
 30
0.0
 10
4.188038
 20
-6.809399
 30
0.0
  0
SPLINE
  5
194
100
AcDbEntity
  8
0
 62
7
100
AcDbSpline
 70
8
 71
3
 72
8
 73
4
 74
0
 40
0
 40
0
 40
0
 40
0
 40
1
 40
1
 40
1
 40
1
 10
4.188038
 20
-6.809399
 30
0.0
 10
4.202338
 20
-6.823699
 30
0.0
 10
4.223844
 20
-6.827977
 30
0.0
 10
4.242528
 20
-6.820238
 30
0.0
  0
SPLINE
  5
195
100
AcDbEntity
  8
0
 62
7
100
AcDbSpline
 70
8
 71
3
 72
8
 73
4
 74
0
 40
0
 40
0
 40
0
 40
0
 40
1
 40
1
 40
1
 40
1
 10
4.242528
 20
-6.820238
 30
0.0
 10
4.261212
 20
-6.812499
 30
0.0
 10
4.273394
 20
-6.794267
 30
0.0
 10
4.273394
 20
-6.774044
 30
0.0
  0
SPLINE
  5
196
100
AcDbEntity
  8
0
 62
7
100
AcDbSpline
 70
8
 71
3
 72
8
 73
4
 74
0
 40
0
 40
0
 40
0
 40
0
 40
1
 40
1
 40
1
 40
1
 10
4.273394
 20
-6.774044
 30
0.0
 10
4.273394
 20
-6.760783
 30
0.0
 10
4.268126
 20
-6.748065
 30
0.0
 10
4.258749
 20
-6.738689
 30
0.0
  0
SPLINE
  5
197
100
AcDbEntity
  8
0
 62
7
100
AcDbSpline
 70
8
 71
3
 72
8
 73
4
 74
0
 40
0
 40
0
 40
0
 40
0
 40
1
 40
1
 40
1
 40
1
 10
4.258749
 20
-6.738689
 30
0.0
 10
4.249372
 20
-6.729312
 30
0.0
 10
4.236655
 20
-6.724044
 30
0.0
 10
4.223394
 20
-6.724044
 30
0.0
  0
LWPOLYLINE
  5
198
100
AcDbEntity
  8
0
 62
7
100
AcDbPolyline
 90
2
 70
0
 10
168.497052
 20
-131.852299
 30
0.0
 10
171.997059
 20
-131.852299
 30
0.0
  0
SPLINE
  5
199
100
AcDbEntity
  8
0
 62
7
100
AcDbSpline
 70
8
 71
3
 72
8
 73
4
 74
0
 40
0
 40
0
 40
0
 40
0
 40
1
 40
1
 40
1
 40
1
 10
160.772036
 20
-109.027252
 30
0.0
 10
159.963110
 20
-109.027252
 30
0.0
 10
159.233836
 20
-109.514537
 30
0.0
 10
158.924273
 20
-110.261888
 30
0.0
  0
SPLINE
  5
19a
100
AcDbEntity
  8
0
 62
7
100
AcDbSpline
 70
8
 71
3
 72
8
 73
4
 74
0
 40
0
 40
0
 40
0
 40
0
 40
1
 40
1
 40
1
 40
1
 10
158.924273
 20
-110.261888
 30
0.0
 10
158.614711
 20
-111.009238
 30
0.0
 10
158.785823
 20
-111.869475
 30
0.0
 10
159.357820
 20
-112.441473
 30
0.0
  0
SPLINE
  5
19b
100
AcDbEntity
  8
0
 62
7
100
AcDbSpline
 70
8
 71
3
 72
8
 73
4
 74
0
 40
0
 40
0
 40
0
 40
0
 40
1
 40
1
 40
1
 40
1
 10
159.357820
 20
-112.441473
 30
0.0
 10
159.929817
 20
-113.013470
 30
0.0
 10
160.790054
 20
-113.184582
 30
0.0
 10
161.537405
 20
-112.875019
 30
0.0
  0
SPLINE
  5
19c
100
AcDbEntity
  8
0
 62
7
100
AcDbSpline
 70
8
 71
3
 72
8
 73
4
 74
0
 40
0
 40
0
 40
0
 40
0
 40
1
 40
1
 40
1
 40
1
 10
161.537405
 20
-112.875019
 30
0.0
 10
162.284755
 20
-112.565456
 30
0.0
 10
162.772040
 20
-111.836182
 30
0.0
 10
162.772040
 20
-111.027256
 30
0.0
  0
SPLINE
  5
19d
100
AcDbEntity
  8
0
 62
7
100
AcDbSpline
 70
8
 71
3
 72
8
 73
4
 74
0
 40
0
 40
0
 40
0
 40
0
 40
1
 40
1
 40
1
 40
1
 10
162.772040
 20
-111.027256
 30
0.0
 10
162.772040
 20
-110.496822
 30
0.0
 10
162.561326
 20
-109.988113
 30
0.0
 10
162.186253
 20
-109.613040
 30
0.0
  0
SPLINE
  5
19e
100
AcDbEntity
  8
0
 62
7
100
AcDbSpline
 70
8
 71
3
 72
8
 73
4
 74
0
 40
0
 40
0
 40
0
 40
0
 40
1
 40
1
 40
1
 40
1
 10
162.186253
 20
-109.613040
 30
0.0
 10
161.811179
 20
-109.237966
 30
0.0
 10
161.302470
 20
-109.027252
 30
0.0
 10
160.772036
 20
-109.027252
 30
0.0
  0
LWPOLYLINE
  5
19f
100
AcDbEntity
  8
0
 62
7
100
AcDbPolyline
 90
1
 70
1
 10
4.223394
 20
-6.724044
 30
0.0
  0
SPLINE
  5
1a0
100
AcDbEntity
  8
0
 62
7
100
AcDbSpline
 70
8
 71
3
 72
8
 73
4
 74
0
 40
0
 40
0
 40
0
 40
0
 40
1
 40
1
 40
1
 40
1
 10
160.772036
 20
-147.127330
 30
0.0
 10
159.963110
 20
-147.127330
 30
0.0
 10
159.233836
 20
-147.614616
 30
0.0
 10
158.924273
 20
-148.361966
 30
0.0
  0
SPLINE
  5
1a1
100
AcDbEntity
  8
0
 62
7
100
AcDbSpline
 70
8
 71
3
 72
8
 73
4
 74
0
 40
0
 40
0
 40
0
 40
0
 40
1
 40
1
 40
1
 40
1
 10
158.924273
 20
-148.361966
 30
0.0
 10
158.614711
 20
-149.109316
 30
0.0
 10
158.785823
 20
-149.969554
 30
0.0
 10
159.357820
 20
-150.541551
 30
0.0
  0
SPLINE
  5
1a2
100
AcDbEntity
  8
0
 62
7
100
AcDbSpline
 70
8
 71
3
 72
8
 73
4
 74
0
 40
0
 40
0
 40
0
 40
0
 40
1
 40
1
 40
1
 40
1
 10
159.357820
 20
-150.541551
 30
0.0
 10
159.929817
 20
-151.113548
 30
0.0
 10
160.790054
 20
-151.284660
 30
0.0
 10
161.537405
 20
-150.975097
 30
0.0
  0
SPLINE
  5
1a3
100
AcDbEntity
  8
0
 62
7
100
AcDbSpline
 70
8
 71
3
 72
8
 73
4
 74
0
 40
0
 40
0
 40
0
 40
0
 40
1
 40
1
 40
1
 40
1
 10
161.537405
 20
-150.975097
 30
0.0
 10
162.284755
 20
-150.665535
 30
0.0
 10
162.772040
 20
-149.936261
 30
0.0
 10
162.772040
 20
-149.127334
 30
0.0
  0
SPLINE
  5
1a4
100
AcDbEntity
  8
0
 62
7
100
AcDbSpline
 70
8
 71
3
 72
8
 73
4
 74
0
 40
0
 40
0
 40
0
 40
0
 40
1
 40
1
 40
1
 40
1
 10
162.772040
 20
-149.127334
 30
0.0
 10
162.772040
 20
-148.596900
 30
0.0
 10
162.561326
 20
-148.088191
 30
0.0
 10
162.186253
 20
-147.713118
 30
0.0
  0
SPLINE
  5
1a5
100
AcDbEntity
  8
0
 62
7
100
AcDbSpline
 70
8
 71
3
 72
8
 73
4
 74
0
 40
0
 40
0
 40
0
 40
0
 40
1
 40
1
 40
1
 40
1
 10
162.186253
 20
-147.713118
 30
0.0
 10
161.811179
 20
-147.338044
 30
0.0
 10
161.302470
 20
-147.127330
 30
0.0
 10
160.772036
 20
-147.127330
 30
0.0
  0
LWPOLYLINE
  5
1a6
100
AcDbEntity
  8
0
 62
7
100
AcDbPolyline
 90
1
 70
1
 10
160.772036
 20
-109.027252
 30
0.0
  0
SPLINE
  5
1a7
100
AcDbEntity
  8
0
 62
7
100
AcDbSpline
 70
8
 71
3
 72
8
 73
4
 74
0
 40
0
 40
0
 40
0
 40
0
 40
1
 40
1
 40
1
 40
1
 10
43.822296
 20
-82.382197
 30
0.0
 10
43.557079
 20
-82.382197
 30
0.0
 10
43.302725
 20
-82.487554
 30
0.0
 10
43.115188
 20
-82.675091
 30
0.0
  0
SPLINE
  5
1a8
100
AcDbEntity
  8
0
 62
7
100
AcDbSpline
 70
8
 71
3
 72
8
 73
4
 74
0
 40
0
 40
0
 40
0
 40
0
 40
1
 40
1
 40
1
 40
1
 10
43.115188
 20
-82.675091
 30
0.0
 10
42.927651
 20
-82.862628
 30
0.0
 10
42.822294
 20
-83.116982
 30
0.0
 10
42.822294
 20
-83.382199
 30
0.0
  0
LWPOLYLINE
  5
1a9
100
AcDbEntity
  8
0
 62
7
100
AcDbPolyline
 90
1
 70
1
 10
160.772036
 20
-147.127330
 30
0.0
  0
SPLINE
  5
1aa
100
AcDbEntity
  8
0
 62
7
100
AcDbSpline
 70
8
 71
3
 72
8
 73
4
 74
0
 40
0
 40
0
 40
0
 40
0
 40
1
 40
1
 40
1
 40
1
 10
84.571880
 20
-100.027234
 30
0.0
 10
83.762954
 20
-100.027234
 30
0.0
 10
83.033680
 20
-100.514519
 30
0.0
 10
82.724117
 20
-101.261869
 30
0.0
  0
SPLINE
  5
1ab
100
AcDbEntity
  8
0
 62
7
100
AcDbSpline
 70
8
 71
3
 72
8
 73
4
 74
0
 40
0
 40
0
 40
0
 40
0
 40
1
 40
1
 40
1
 40
1
 10
82.724117
 20
-101.261869
 30
0.0
 10
82.414554
 20
-102.009220
 30
0.0
 10
82.585666
 20
-102.869457
 30
0.0
 10
83.157663
 20
-103.441454
 30
0.0
  0
SPLINE
  5
1ac
100
AcDbEntity
  8
0
 62
7
100
AcDbSpline
 70
8
 71
3
 72
8
 73
4
 74
0
 40
0
 40
0
 40
0
 40
0
 40
1
 40
1
 40
1
 40
1
 10
83.157663
 20
-103.441454
 30
0.0
 10
83.729660
 20
-104.013451
 30
0.0
 10
84.589898
 20
-104.184563
 30
0.0
 10
85.337248
 20
-103.875001
 30
0.0
  0
SPLINE
  5
1ad
100
AcDbEntity
  8
0
 62
7
100
AcDbSpline
 70
8
 71
3
 72
8
 73
4
 74
0
 40
0
 40
0
 40
0
 40
0
 40
1
 40
1
 40
1
 40
1
 10
85.337248
 20
-103.875001
 30
0.0
 10
86.084598
 20
-103.565438
 30
0.0
 10
86.571884
 20
-102.836164
 30
0.0
 10
86.571884
 20
-102.027238
 30
0.0
  0
SPLINE
  5
1ae
100
AcDbEntity
  8
0
 62
7
100
AcDbSpline
 70
8
 71
3
 72
8
 73
4
 74
0
 40
0
 40
0
 40
0
 40
0
 40
1
 40
1
 40
1
 40
1
 10
86.571884
 20
-102.027238
 30
0.0
 10
86.571884
 20
-100.922666
 30
0.0
 10
85.676452
 20
-100.027234
 30
0.0
 10
84.571880
 20
-100.027234
 30
0.0
  0
LWPOLYLINE
  5
1af
100
AcDbEntity
  8
0
 62
7
100
AcDbPolyline
 90
2
 70
0
 10
43.822296
 20
-141.357318
 30
0.0
 10
64.517339
 20
-141.357318
 30
0.0
  0
SPLINE
  5
1b0
100
AcDbEntity
  8
0
 62
7
100
AcDbSpline
 70
8
 71
3
 72
8
 73
4
 74
0
 40
0
 40
0
 40
0
 40
0
 40
1
 40
1
 40
1
 40
1
 10
64.517339
 20
-141.357318
 30
0.0
 10
64.782556
 20
-141.357318
 30
0.0
 10
65.036910
 20
-141.251961
 30
0.0
 10
65.224447
 20
-141.064425
 30
0.0
  0
SPLINE
  5
1b1
100
AcDbEntity
  8
0
 62
7
100
AcDbSpline
 70
8
 71
3
 72
8
 73
4
 74
0
 40
0
 40
0
 40
0
 40
0
 40
1
 40
1
 40
1
 40
1
 10
65.224447
 20
-141.064425
 30
0.0
 10
65.411984
 20
-140.876888
 30
0.0
 10
65.517341
 20
-140.622533
 30
0.0
 10
65.517341
 20
-140.357316
 30
0.0
  0
SPLINE
  5
1b2
100
AcDbEntity
  8
0
 62
7
100
AcDbSpline
 70
8
 71
3
 72
8
 73
4
 74
0
 40
0
 40
0
 40
0
 40
0
 40
1
 40
1
 40
1
 40
1
 10
84.571880
 20
-140.627317
 30
0.0
 10
83.762954
 20
-140.627317
 30
0.0
 10
83.033680
 20
-141.114602
 30
0.0
 10
82.724117
 20
-141.861953
 30
0.0
  0
SPLINE
  5
1b3
100
AcDbEntity
  8
0
 62
7
100
AcDbSpline
 70
8
 71
3
 72
8
 73
4
 74
0
 40
0
 40
0
 40
0
 40
0
 40
1
 40
1
 40
1
 40
1
 10
82.724117
 20
-141.861953
 30
0.0
 10
82.414554
 20
-142.609303
 30
0.0
 10
82.585666
 20
-143.469540
 30
0.0
 10
83.157663
 20
-144.041538
 30
0.0
  0
SPLINE
  5
1b4
100
AcDbEntity
  8
0
 62
7
100
AcDbSpline
 70
8
 71
3
 72
8
 73
4
 74
0
 40
0
 40
0
 40
0
 40
0
 40
1
 40
1
 40
1
 40
1
 10
83.157663
 20
-144.041538
 30
0.0
 10
83.729660
 20
-144.613535
 30
0.0
 10
84.589898
 20
-144.784647
 30
0.0
 10
85.337248
 20
-144.475084
 30
0.0
  0
SPLINE
  5
1b5
100
AcDbEntity
  8
0
 62
7
100
AcDbSpline
 70
8
 71
3
 72
8
 73
4
 74
0
 40
0
 40
0
 40
0
 40
0
 40
1
 40
1
 40
1
 40
1
 10
85.337248
 20
-144.475084
 30
0.0
 10
86.084598
 20
-144.165521
 30
0.0
 10
86.571884
 20
-143.436247
 30
0.0
 10
86.571884
 20
-142.627321
 30
0.0
  0
SPLINE
  5
1b6
100
AcDbEntity
  8
0
 62
7
100
AcDbSpline
 70
8
 71
3
 72
8
 73
4
 74
0
 40
0
 40
0
 40
0
 40
0
 40
1
 40
1
 40
1
 40
1
 10
86.571884
 20
-142.627321
 30
0.0
 10
86.571884
 20
-141.522749
 30
0.0
 10
85.676452
 20
-140.627317
 30
0.0
 10
84.571880
 20
-140.627317
 30
0.0
  0
LWPOLYLINE
  5
1b7
100
AcDbEntity
  8
0
 62
7
100
AcDbPolyline
 90
1
 70
1
 10
84.571880
 20
-100.027234
 30
0.0
  0
LWPOLYLINE
  5
1b8
100
AcDbEntity
  8
0
 62
7
100
AcDbPolyline
 90
1
 70
1
 10
84.571880
 20
-140.627317
 30
0.0
  0
SPLINE
  5
1b9
100
AcDbEntity
  8
0
 62
7
100
AcDbSpline
 70
8
 71
3
 72
8
 73
4
 74
0
 40
0
 40
0
 40
0
 40
0
 40
1
 40
1
 40
1
 40
1
 10
46.046801
 20
-137.402310
 30
0.0
 10
45.601891
 20
-137.402310
 30
0.0
 10
45.200790
 20
-137.670317
 30
0.0
 10
45.030531
 20
-138.081360
 30
0.0
  0
SPLINE
  5
1ba
100
AcDbEntity
  8
0
 62
7
100
AcDbSpline
 70
8
 71
3
 72
8
 73
4
 74
0
 40
0
 40
0
 40
0
 40
0
 40
1
 40
1
 40
1
 40
1
 10
45.030531
 20
-138.081360
 30
0.0
 10
44.860272
 20
-138.492403
 30
0.0
 10
44.954383
 20
-138.965533
 30
0.0
 10
45.268982
 20
-139.280132
 30
0.0
  0
SPLINE
  5
1bb
100
AcDbEntity
  8
0
 62
7
100
AcDbSpline
 70
8
 71
3
 72
8
 73
4
 74
0
 40
0
 40
0
 40
0
 40
0
 40
1
 40
1
 40
1
 40
1
 10
45.268982
 20
-139.280132
 30
0.0
 10
45.583580
 20
-139.594730
 30
0.0
 10
46.056711
 20
-139.688842
 30
0.0
 10
46.467753
 20
-139.518582
 30
0.0
  0
SPLINE
  5
1bc
100
AcDbEntity
  8
0
 62
7
100
AcDbSpline
 70
8
 71
3
 72
8
 73
4
 74
0
 40
0
 40
0
 40
0
 40
0
 40
1
 40
1
 40
1
 40
1
 10
46.467753
 20
-139.518582
 30
0.0
 10
46.878796
 20
-139.348323
 30
0.0
 10
47.146803
 20
-138.947222
 30
0.0
 10
47.146803
 20
-138.502313
 30
0.0
  0
SPLINE
  5
1bd
100
AcDbEntity
  8
0
 62
7
100
AcDbSpline
 70
8
 71
3
 72
8
 73
4
 74
0
 40
0
 40
0
 40
0
 40
0
 40
1
 40
1
 40
1
 40
1
 10
47.146803
 20
-138.502313
 30
0.0
 10
47.146803
 20
-138.210574
 30
0.0
 10
47.030910
 20
-137.930784
 30
0.0
 10
46.824620
 20
-137.724494
 30
0.0
  0
SPLINE
  5
1be
100
AcDbEntity
  8
0
 62
7
100
AcDbSpline
 70
8
 71
3
 72
8
 73
4
 74
0
 40
0
 40
0
 40
0
 40
0
 40
1
 40
1
 40
1
 40
1
 10
46.824620
 20
-137.724494
 30
0.0
 10
46.618329
 20
-137.518203
 30
0.0
 10
46.338539
 20
-137.402310
 30
0.0
 10
46.046801
 20
-137.402310
 30
0.0
  0
LWPOLYLINE
  5
1bf
100
AcDbEntity
  8
0
 62
7
100
AcDbPolyline
 90
2
 70
0
 10
42.822294
 20
-140.357316
 30
0.0
 10
42.822294
 20
-83.382199
 30
0.0
  0
SPLINE
  5
1c0
100
AcDbEntity
  8
0
 62
7
100
AcDbSpline
 70
8
 71
3
 72
8
 73
4
 74
0
 40
0
 40
0
 40
0
 40
0
 40
1
 40
1
 40
1
 40
1
 10
0.050000
 20
0.000736
 30
0.0
 10
0.029777
 20
0.000736
 30
0.0
 10
0.011545
 20
-0.011446
 30
0.0
 10
0.003806
 20
-0.030130
 30
0.0
  0
SPLINE
  5
1c1
100
AcDbEntity
  8
0
 62
7
100
AcDbSpline
 70
8
 71
3
 72
8
 73
4
 74
0
 40
0
 40
0
 40
0
 40
0
 40
1
 40
1
 40
1
 40
1
 10
0.003806
 20
-0.030130
 30
0.0
 10
-0.003933
 20
-0.048814
 30
0.0
 10
0.000345
 20
-0.070320
 30
0.0
 10
0.014645
 20
-0.084620
 30
0.0
  0
SPLINE
  5
1c2
100
AcDbEntity
  8
0
 62
7
100
AcDbSpline
 70
8
 71
3
 72
8
 73
4
 74
0
 40
0
 40
0
 40
0
 40
0
 40
1
 40
1
 40
1
 40
1
 10
0.014645
 20
-0.084620
 30
0.0
 10
0.028945
 20
-0.098920
 30
0.0
 10
0.050451
 20
-0.103197
 30
0.0
 10
0.069134
 20
-0.095458
 30
0.0
  0
SPLINE
  5
1c3
100
AcDbEntity
  8
0
 62
7
100
AcDbSpline
 70
8
 71
3
 72
8
 73
4
 74
0
 40
0
 40
0
 40
0
 40
0
 40
1
 40
1
 40
1
 40
1
 10
0.069134
 20
-0.095458
 30
0.0
 10
0.087818
 20
-0.087719
 30
0.0
 10
0.100000
 20
-0.069487
 30
0.0
 10
0.100000
 20
-0.049264
 30
0.0
  0
SPLINE
  5
1c4
100
AcDbEntity
  8
0
 62
7
100
AcDbSpline
 70
8
 71
3
 72
8
 73
4
 74
0
 40
0
 40
0
 40
0
 40
0
 40
1
 40
1
 40
1
 40
1
 10
0.100000
 20
-0.049264
 30
0.0
 10
0.100000
 20
-0.036003
 30
0.0
 10
0.094732
 20
-0.023286
 30
0.0
 10
0.085356
 20
-0.013909
 30
0.0
  0
SPLINE
  5
1c5
100
AcDbEntity
  8
0
 62
7
100
AcDbSpline
 70
8
 71
3
 72
8
 73
4
 74
0
 40
0
 40
0
 40
0
 40
0
 40
1
 40
1
 40
1
 40
1
 10
0.085356
 20
-0.013909
 30
0.0
 10
0.075979
 20
-0.004532
 30
0.0
 10
0.063261
 20
0.000736
 30
0.0
 10
0.050000
 20
0.000736
 30
0.0
  0
LWPOLYLINE
  5
1c6
100
AcDbEntity
  8
0
 62
7
100
AcDbPolyline
 90
1
 70
1
 10
46.046801
 20
-137.402310
 30
0.0
  0
SPLINE
  5
1c7
100
AcDbEntity
  8
0
 62
7
100
AcDbSpline
 70
8
 71
3
 72
8
 73
4
 74
0
 40
0
 40
0
 40
0
 40
0
 40
1
 40
1
 40
1
 40
1
 10
42.822294
 20
-140.357316
 30
0.0
 10
42.822294
 20
-140.622533
 30
0.0
 10
42.927651
 20
-140.876888
 30
0.0
 10
43.115188
 20
-141.064425
 30
0.0
  0
SPLINE
  5
1c8
100
AcDbEntity
  8
0
 62
7
100
AcDbSpline
 70
8
 71
3
 72
8
 73
4
 74
0
 40
0
 40
0
 40
0
 40
0
 40
1
 40
1
 40
1
 40
1
 10
43.115188
 20
-141.064425
 30
0.0
 10
43.302725
 20
-141.251961
 30
0.0
 10
43.557079
 20
-141.357318
 30
0.0
 10
43.822296
 20
-141.357318
 30
0.0
  0
LWPOLYLINE
  5
1c9
100
AcDbEntity
  8
0
 62
7
100
AcDbPolyline
 90
1
 70
1
 10
0.050000
 20
0.000736
 30
0.0
  0
SPLINE
  5
1ca
100
AcDbEntity
  8
0
 62
7
100
AcDbSpline
 70
8
 71
3
 72
8
 73
4
 74
0
 40
0
 40
0
 40
0
 40
0
 40
1
 40
1
 40
1
 40
1
 10
62.296834
 20
-137.402310
 30
0.0
 10
61.851925
 20
-137.402310
 30
0.0
 10
61.450824
 20
-137.670317
 30
0.0
 10
61.280564
 20
-138.081360
 30
0.0
  0
SPLINE
  5
1cb
100
AcDbEntity
  8
0
 62
7
100
AcDbSpline
 70
8
 71
3
 72
8
 73
4
 74
0
 40
0
 40
0
 40
0
 40
0
 40
1
 40
1
 40
1
 40
1
 10
61.280564
 20
-138.081360
 30
0.0
 10
61.110305
 20
-138.492403
 30
0.0
 10
61.204416
 20
-138.965533
 30
0.0
 10
61.519015
 20
-139.280132
 30
0.0
  0
SPLINE
  5
1cc
100
AcDbEntity
  8
0
 62
7
100
AcDbSpline
 70
8
 71
3
 72
8
 73
4
 74
0
 40
0
 40
0
 40
0
 40
0
 40
1
 40
1
 40
1
 40
1
 10
61.519015
 20
-139.280132
 30
0.0
 10
61.833613
 20
-139.594730
 30
0.0
 10
62.306744
 20
-139.688842
 30
0.0
 10
62.717787
 20
-139.518582
 30
0.0
  0
SPLINE
  5
1cd
100
AcDbEntity
  8
0
 62
7
100
AcDbSpline
 70
8
 71
3
 72
8
 73
4
 74
0
 40
0
 40
0
 40
0
 40
0
 40
1
 40
1
 40
1
 40
1
 10
62.717787
 20
-139.518582
 30
0.0
 10
63.128829
 20
-139.348323
 30
0.0
 10
63.396836
 20
-138.947222
 30
0.0
 10
63.396836
 20
-138.502313
 30
0.0
  0
SPLINE
  5
1ce
100
AcDbEntity
  8
0
 62
7
100
AcDbSpline
 70
8
 71
3
 72
8
 73
4
 74
0
 40
0
 40
0
 40
0
 40
0
 40
1
 40
1
 40
1
 40
1
 10
63.396836
 20
-138.502313
 30
0.0
 10
63.396836
 20
-138.210574
 30
0.0
 10
63.280943
 20
-137.930784
 30
0.0
 10
63.074653
 20
-137.724494
 30
0.0
  0
SPLINE
  5
1cf
100
AcDbEntity
  8
0
 62
7
100
AcDbSpline
 70
8
 71
3
 72
8
 73
4
 74
0
 40
0
 40
0
 40
0
 40
0
 40
1
 40
1
 40
1
 40
1
 10
63.074653
 20
-137.724494
 30
0.0
 10
62.868363
 20
-137.518203
 30
0.0
 10
62.588573
 20
-137.402310
 30
0.0
 10
62.296834
 20
-137.402310
 30
0.0
  0
LWPOLYLINE
  5
1d0
100
AcDbEntity
  8
0
 62
7
100
AcDbPolyline
 90
2
 70
0
 10
64.517339
 20
-82.382197
 30
0.0
 10
43.822296
 20
-82.382197
 30
0.0
  0
SPLINE
  5
1d1
100
AcDbEntity
  8
0
 62
7
100
AcDbSpline
 70
8
 71
3
 72
8
 73
4
 74
0
 40
0
 40
0
 40
0
 40
0
 40
1
 40
1
 40
1
 40
1
 10
65.517341
 20
-83.382199
 30
0.0
 10
65.517341
 20
-83.116982
 30
0.0
 10
65.411984
 20
-82.862628
 30
0.0
 10
65.224447
 20
-82.675091
 30
0.0
  0
SPLINE
  5
1d2
100
AcDbEntity
  8
0
 62
7
100
AcDbSpline
 70
8
 71
3
 72
8
 73
4
 74
0
 40
0
 40
0
 40
0
 40
0
 40
1
 40
1
 40
1
 40
1
 10
65.224447
 20
-82.675091
 30
0.0
 10
65.036910
 20
-82.487554
 30
0.0
 10
64.782556
 20
-82.382197
 30
0.0
 10
64.517339
 20
-82.382197
 30
0.0
  0
LWPOLYLINE
  5
1d3
100
AcDbEntity
  8
0
 62
7
100
AcDbPolyline
 90
1
 70
1
 10
62.296834
 20
-137.402310
 30
0.0
  0
SPLINE
  5
1d4
100
AcDbEntity
  8
0
 62
7
100
AcDbSpline
 70
8
 71
3
 72
8
 73
4
 74
0
 40
0
 40
0
 40
0
 40
0
 40
1
 40
1
 40
1
 40
1
 10
57.546824
 20
-162.002361
 30
0.0
 10
56.737898
 20
-162.002361
 30
0.0
 10
56.008624
 20
-162.489646
 30
0.0
 10
55.699061
 20
-163.236997
 30
0.0
  0
SPLINE
  5
1d5
100
AcDbEntity
  8
0
 62
7
100
AcDbSpline
 70
8
 71
3
 72
8
 73
4
 74
0
 40
0
 40
0
 40
0
 40
0
 40
1
 40
1
 40
1
 40
1
 10
55.699061
 20
-163.236997
 30
0.0
 10
55.389499
 20
-163.984347
 30
0.0
 10
55.560611
 20
-164.844584
 30
0.0
 10
56.132608
 20
-165.416581
 30
0.0
  0
SPLINE
  5
1d6
100
AcDbEntity
  8
0
 62
7
100
AcDbSpline
 70
8
 71
3
 72
8
 73
4
 74
0
 40
0
 40
0
 40
0
 40
0
 40
1
 40
1
 40
1
 40
1
 10
56.132608
 20
-165.416581
 30
0.0
 10
56.704605
 20
-165.988579
 30
0.0
 10
57.564842
 20
-166.159690
 30
0.0
 10
58.312193
 20
-165.850128
 30
0.0
  0
SPLINE
  5
1d7
100
AcDbEntity
  8
0
 62
7
100
AcDbSpline
 70
8
 71
3
 72
8
 73
4
 74
0
 40
0
 40
0
 40
0
 40
0
 40
1
 40
1
 40
1
 40
1
 10
58.312193
 20
-165.850128
 30
0.0
 10
59.059543
 20
-165.540565
 30
0.0
 10
59.546828
 20
-164.811291
 30
0.0
 10
59.546828
 20
-164.002365
 30
0.0
  0
SPLINE
  5
1d8
100
AcDbEntity
  8
0
 62
7
100
AcDbSpline
 70
8
 71
3
 72
8
 73
4
 74
0
 40
0
 40
0
 40
0
 40
0
 40
1
 40
1
 40
1
 40
1
 10
59.546828
 20
-164.002365
 30
0.0
 10
59.546828
 20
-163.471931
 30
0.0
 10
59.336114
 20
-162.963222
 30
0.0
 10
58.961041
 20
-162.588149
 30
0.0
  0
SPLINE
  5
1d9
100
AcDbEntity
  8
0
 62
7
100
AcDbSpline
 70
8
 71
3
 72
8
 73
4
 74
0
 40
0
 40
0
 40
0
 40
0
 40
1
 40
1
 40
1
 40
1
 10
58.961041
 20
-162.588149
 30
0.0
 10
58.585967
 20
-162.213075
 30
0.0
 10
58.077258
 20
-162.002361
 30
0.0
 10
57.546824
 20
-162.002361
 30
0.0
  0
LWPOLYLINE
  5
1da
100
AcDbEntity
  8
0
 62
7
100
AcDbPolyline
 90
2
 70
0
 10
65.517341
 20
-140.357316
 30
0.0
 10
65.517341
 20
-83.382199
 30
0.0
  0
LWPOLYLINE
  5
1db
100
AcDbEntity
  8
0
 62
7
100
AcDbPolyline
 90
1
 70
1
 10
57.546824
 20
-162.002361
 30
0.0
  0
LWPOLYLINE
  5
1dc
100
AcDbEntity
  8
0
 62
7
100
AcDbPolyline
 90
2
 70
0
 10
104.438790
 20
-193.404805
 30
0.0
 10
103.867359
 20
-193.404805
 30
0.0
  0
LWPOLYLINE
  5
1dd
100
AcDbEntity
  8
0
 62
7
100
AcDbPolyline
 90
5
 70
0
 10
104.153075
 20
-193.404805
 30
0.0
 10
104.153075
 20
-192.404803
 30
0.0
 10
104.057837
 20
-192.547662
 30
0.0
 10
103.962599
 20
-192.642900
 30
0.0
 10
103.867359
 20
-192.690519
 30
0.0
  0
LWPOLYLINE
  5
1de
100
AcDbEntity
  8
0
 62
7
100
AcDbPolyline
 90
2
 70
0
 10
105.295934
 20
-192.738138
 30
0.0
 10
105.295934
 20
-193.404805
 30
0.0
  0
LWPOLYLINE
  5
1df
100
AcDbEntity
  8
0
 62
7
100
AcDbPolyline
 90
3
 70
0
 10
105.057839
 20
-192.357184
 30
0.0
 10
104.819742
 20
-193.071472
 30
0.0
 10
105.438792
 20
-193.071472
 30
0.0
  0
LWPOLYLINE
  5
1e0
100
AcDbEntity
  8
0
 62
7
100
AcDbPolyline
 90
11
 70
0
 10
105.772125
 20
-192.500043
 30
0.0
 10
105.819744
 20
-192.452423
 30
0.0
 10
105.914983
 20
-192.404803
 30
0.0
 10
106.153079
 20
-192.404803
 30
0.0
 10
106.248317
 20
-192.452423
 30
0.0
 10
106.295936
 20
-192.500043
 30
0.0
 10
106.343555
 20
-192.595281
 30
0.0
 10
106.343555
 20
-192.690519
 30
0.0
 10
106.295936
 20
-192.833376
 30
0.0
 10
105.724506
 20
-193.404805
 30
0.0
 10
106.343555
 20
-193.404805
 30
0.0
  0
LWPOLYLINE
  5
1e1
100
AcDbEntity
  8
0
 62
7
100
AcDbPolyline
 90
6
 70
0
 10
106.772127
 20
-193.309567
 30
0.0
 10
106.819746
 20
-193.357186
 30
0.0
 10
106.772127
 20
-193.404805
 30
0.0
 10
106.724508
 20
-193.357186
 30
0.0
 10
106.772127
 20
-193.309567
 30
0.0
 10
106.772127
 20
-193.404805
 30
0.0
  0
LWPOLYLINE
  5
1e2
100
AcDbEntity
  8
0
 62
7
100
AcDbPolyline
 90
2
 70
0
 10
107.772129
 20
-193.404805
 30
0.0
 10
107.200700
 20
-193.404805
 30
0.0
  0
LWPOLYLINE
  5
1e3
100
AcDbEntity
  8
0
 62
7
100
AcDbPolyline
 90
5
 70
0
 10
107.486415
 20
-193.404805
 30
0.0
 10
107.486415
 20
-192.404803
 30
0.0
 10
107.391177
 20
-192.547662
 30
0.0
 10
107.295938
 20
-192.642900
 30
0.0
 10
107.200700
 20
-192.690519
 30
0.0
  0
LWPOLYLINE
  5
1e4
100
AcDbEntity
  8
0
 62
7
100
AcDbPolyline
 90
20
 70
1
 10
108.391179
 20
-192.404803
 30
0.0
 10
108.486417
 20
-192.404803
 30
0.0
 10
108.581655
 20
-192.452423
 30
0.0
 10
108.629274
 20
-192.500043
 30
0.0
 10
108.676893
 20
-192.595281
 30
0.0
 10
108.724512
 20
-192.785757
 30
0.0
 10
108.724512
 20
-193.023853
 30
0.0
 10
108.676893
 20
-193.214329
 30
0.0
 10
108.629274
 20
-193.309567
 30
0.0
 10
108.581655
 20
-193.357186
 30
0.0
 10
108.486417
 20
-193.404805
 30
0.0
 10
108.391179
 20
-193.404805
 30
0.0
 10
108.295940
 20
-193.357186
 30
0.0
 10
108.248321
 20
-193.309567
 30
0.0
 10
108.200702
 20
-193.214329
 30
0.0
 10
108.153083
 20
-193.023853
 30
0.0
 10
108.153083
 20
-192.785757
 30
0.0
 10
108.200702
 20
-192.595281
 30
0.0
 10
108.248321
 20
-192.500043
 30
0.0
 10
108.295940
 20
-192.452423
 30
0.0
  0
LWPOLYLINE
  5
1e5
100
AcDbEntity
  8
0
 62
7
100
AcDbPolyline
 90
22
 70
0
 10
109.200704
 20
-193.404805
 30
0.0
 10
109.391181
 20
-193.404805
 30
0.0
 10
109.486419
 20
-193.357186
 30
0.0
 10
109.534038
 20
-193.309567
 30
0.0
 10
109.629276
 20
-193.166710
 30
0.0
 10
109.676895
 20
-192.976233
 30
0.0
 10
109.676895
 20
-192.595281
 30
0.0
 10
109.629276
 20
-192.500043
 30
0.0
 10
109.581657
 20
-192.452423
 30
0.0
 10
109.486419
 20
-192.404803
 30
0.0
 10
109.295943
 20
-192.404803
 30
0.0
 10
109.200704
 20
-192.452423
 30
0.0
 10
109.153085
 20
-192.500043
 30
0.0
 10
109.105466
 20
-192.595281
 30
0.0
 10
109.105466
 20
-192.833376
 30
0.0
 10
109.153085
 20
-192.928614
 30
0.0
 10
109.200704
 20
-192.976233
 30
0.0
 10
109.295943
 20
-193.023853
 30
0.0
 10
109.486419
 20
-193.023853
 30
0.0
 10
109.581657
 20
-192.976233
 30
0.0
 10
109.629276
 20
-192.928614
 30
0.0
 10
109.676895
 20
-192.833376
 30
0.0
  0
LWPOLYLINE
  5
1e6
100
AcDbEntity
  8
0
 62
7
100
AcDbPolyline
 90
20
 70
1
 10
110.295945
 20
-192.404803
 30
0.0
 10
110.391183
 20
-192.404803
 30
0.0
 10
110.486421
 20
-192.452423
 30
0.0
 10
110.534040
 20
-192.500043
 30
0.0
 10
110.581659
 20
-192.595281
 30
0.0
 10
110.629278
 20
-192.785757
 30
0.0
 10
110.629278
 20
-193.023853
 30
0.0
 10
110.581659
 20
-193.214329
 30
0.0
 10
110.534040
 20
-193.309567
 30
0.0
 10
110.486421
 20
-193.357186
 30
0.0
 10
110.391183
 20
-193.404805
 30
0.0
 10
110.295945
 20
-193.404805
 30
0.0
 10
110.200706
 20
-193.357186
 30
0.0
 10
110.153087
 20
-193.309567
 30
0.0
 10
110.105468
 20
-193.214329
 30
0.0
 10
110.057849
 20
-193.023853
 30
0.0
 10
110.057849
 20
-192.785757
 30
0.0
 10
110.105468
 20
-192.595281
 30
0.0
 10
110.153087
 20
-192.500043
 30
0.0
 10
110.200706
 20
-192.452423
 30
0.0
  0
LWPOLYLINE
  5
1e7
100
AcDbEntity
  8
0
 62
7
100
AcDbPolyline
 90
2
 70
0
 10
111.819757
 20
-193.404805
 30
0.0
 10
111.819757
 20
-192.738138
 30
0.0
  0
LWPOLYLINE
  5
1e8
100
AcDbEntity
  8
0
 62
7
100
AcDbPolyline
 90
7
 70
0
 10
111.819757
 20
-192.833376
 30
0.0
 10
111.867376
 20
-192.785757
 30
0.0
 10
111.962615
 20
-192.738138
 30
0.0
 10
112.105472
 20
-192.738138
 30
0.0
 10
112.200710
 20
-192.785757
 30
0.0
 10
112.248330
 20
-192.880995
 30
0.0
 10
112.248330
 20
-193.404805
 30
0.0
  0
LWPOLYLINE
  5
1e9
100
AcDbEntity
  8
0
 62
7
100
AcDbPolyline
 90
7
 70
0
 10
112.248330
 20
-192.880995
 30
0.0
 10
112.295949
 20
-192.785757
 30
0.0
 10
112.391187
 20
-192.738138
 30
0.0
 10
112.534044
 20
-192.738138
 30
0.0
 10
112.629282
 20
-192.785757
 30
0.0
 10
112.676901
 20
-192.880995
 30
0.0
 10
112.676901
 20
-193.404805
 30
0.0
  0
LWPOLYLINE
  5
1ea
100
AcDbEntity
  8
0
 62
7
100
AcDbPolyline
 90
2
 70
0
 10
113.153093
 20
-193.404805
 30
0.0
 10
113.153093
 20
-192.738138
 30
0.0
  0
LWPOLYLINE
  5
1eb
100
AcDbEntity
  8
0
 62
7
100
AcDbPolyline
 90
7
 70
0
 10
113.153093
 20
-192.833376
 30
0.0
 10
113.200713
 20
-192.785757
 30
0.0
 10
113.295951
 20
-192.738138
 30
0.0
 10
113.438808
 20
-192.738138
 30
0.0
 10
113.534046
 20
-192.785757
 30
0.0
 10
113.581665
 20
-192.880995
 30
0.0
 10
113.581665
 20
-193.404805
 30
0.0
  0
LWPOLYLINE
  5
1ec
100
AcDbEntity
  8
0
 62
7
100
AcDbPolyline
 90
7
 70
0
 10
113.581665
 20
-192.880995
 30
0.0
 10
113.629284
 20
-192.785757
 30
0.0
 10
113.724523
 20
-192.738138
 30
0.0
 10
113.867380
 20
-192.738138
 30
0.0
 10
113.962619
 20
-192.785757
 30
0.0
 10
114.010238
 20
-192.880995
 30
0.0
 10
114.010238
 20
-193.404805
 30
0.0
  0
LWPOLYLINE
  5
1ed
100
AcDbEntity
  8
0
 62
7
100
AcDbPolyline
 90
2
 70
0
 10
37.907961
 20
-175.558358
 30
0.0
 10
37.907961
 20
-194.688848
 30
0.0
  0
LWPOLYLINE
  5
1ee
100
AcDbEntity
  8
0
 62
7
100
AcDbPolyline
 90
2
 70
0
 10
180.017257
 20
-194.688848
 30
0.0
 10
180.017257
 20
-167.812373
 30
0.0
  0
LWPOLYLINE
  5
1ef
100
AcDbEntity
  8
0
 62
7
100
AcDbPolyline
 90
2
 70
0
 10
37.907961
 20
-194.102427
 30
0.0
 10
180.017257
 20
-194.102427
 30
0.0
  0
LWPOLYLINE
  5
1f0
100
AcDbEntity
  8
0
 62
7
100
AcDbPolyline
 90
2
 70
0
 10
37.907961
 20
-194.102427
 30
0.0
 10
180.017257
 20
-194.102427
 30
0.0
  0
LWPOLYLINE
  5
1f1
100
AcDbEntity
  8
0
 62
7
100
AcDbPolyline
 90
2
 70
0
 10
37.907961
 20
-194.102427
 30
0.0
 10
39.034467
 20
-194.688849
 30
0.0
  0
LWPOLYLINE
  5
1f2
100
AcDbEntity
  8
0
 62
7
100
AcDbPolyline
 90
2
 70
0
 10
37.907961
 20
-194.102427
 30
0.0
 10
39.034467
 20
-193.516005
 30
0.0
  0
LWPOLYLINE
  5
1f3
100
AcDbEntity
  8
0
 62
7
100
AcDbPolyline
 90
2
 70
0
 10
180.017257
 20
-194.102427
 30
0.0
 10
178.890750
 20
-193.516005
 30
0.0
  0
LWPOLYLINE
  5
1f4
100
AcDbEntity
  8
0
 62
7
100
AcDbPolyline
 90
2
 70
0
 10
180.017257
 20
-194.102427
 30
0.0
 10
178.890750
 20
-194.688849
 30
0.0
  0
LWPOLYLINE
  5
1f5
100
AcDbEntity
  8
0
 62
7
100
AcDbPolyline
 90
2
 70
0
 10
34.799157
 20
-140.431126
 30
0.0
 10
34.799157
 20
-141.002556
 30
0.0
  0
LWPOLYLINE
  5
1f6
100
AcDbEntity
  8
0
 62
7
100
AcDbPolyline
 90
5
 70
0
 10
34.799157
 20
-140.716840
 30
0.0
 10
33.799155
 20
-140.716840
 30
0.0
 10
33.942014
 20
-140.812078
 30
0.0
 10
34.037252
 20
-140.907318
 30
0.0
 10
34.084871
 20
-141.002556
 30
0.0
  0
LWPOLYLINE
  5
1f7
100
AcDbEntity
  8
0
 62
7
100
AcDbPolyline
 90
2
 70
0
 10
34.799157
 20
-139.478743
 30
0.0
 10
34.799157
 20
-140.050173
 30
0.0
  0
LWPOLYLINE
  5
1f8
100
AcDbEntity
  8
0
 62
7
100
AcDbPolyline
 90
5
 70
0
 10
34.799157
 20
-139.764457
 30
0.0
 10
33.799155
 20
-139.764457
 30
0.0
 10
33.942014
 20
-139.859695
 30
0.0
 10
34.037252
 20
-139.954935
 30
0.0
 10
34.084871
 20
-140.050173
 30
0.0
  0
LWPOLYLINE
  5
1f9
100
AcDbEntity
  8
0
 62
7
100
AcDbPolyline
 90
2
 70
0
 10
34.799157
 20
-138.526360
 30
0.0
 10
34.799157
 20
-139.097790
 30
0.0
  0
LWPOLYLINE
  5
1fa
100
AcDbEntity
  8
0
 62
7
100
AcDbPolyline
 90
5
 70
0
 10
34.799157
 20
-138.812074
 30
0.0
 10
33.799155
 20
-138.812074
 30
0.0
 10
33.942014
 20
-138.907313
 30
0.0
 10
34.037252
 20
-139.002552
 30
0.0
 10
34.084871
 20
-139.097790
 30
0.0
  0
LWPOLYLINE
  5
1fb
100
AcDbEntity
  8
0
 62
7
100
AcDbPolyline
 90
6
 70
0
 10
34.703919
 20
-138.097788
 30
0.0
 10
34.751538
 20
-138.050169
 30
0.0
 10
34.799157
 20
-138.097788
 30
0.0
 10
34.751538
 20
-138.145407
 30
0.0
 10
34.703919
 20
-138.097788
 30
0.0
 10
34.799157
 20
-138.097788
 30
0.0
  0
LWPOLYLINE
  5
1fc
100
AcDbEntity
  8
0
 62
7
100
AcDbPolyline
 90
32
 70
0
 10
34.227728
 20
-137.478738
 30
0.0
 10
34.180109
 20
-137.573977
 30
0.0
 10
34.132490
 20
-137.621596
 30
0.0
 10
34.037252
 20
-137.669215
 30
0.0
 10
33.989633
 20
-137.669215
 30
0.0
 10
33.894395
 20
-137.621596
 30
0.0
 10
33.846776
 20
-137.573977
 30
0.0
 10
33.799155
 20
-137.478738
 30
0.0
 10
33.799155
 20
-137.288262
 30
0.0
 10
33.846776
 20
-137.193024
 30
0.0
 10
33.894395
 20
-137.145405
 30
0.0
 10
33.989633
 20
-137.097786
 30
0.0
 10
34.037252
 20
-137.097786
 30
0.0
 10
34.132490
 20
-137.145405
 30
0.0
 10
34.180109
 20
-137.193024
 30
0.0
 10
34.227728
 20
-137.288262
 30
0.0
 10
34.227728
 20
-137.478738
 30
0.0
 10
34.275347
 20
-137.573977
 30
0.0
 10
34.322967
 20
-137.621596
 30
0.0
 10
34.418205
 20
-137.669215
 30
0.0
 10
34.608681
 20
-137.669215
 30
0.0
 10
34.703919
 20
-137.621596
 30
0.0
 10
34.751538
 20
-137.573977
 30
0.0
 10
34.799157
 20
-137.478738
 30
0.0
 10
34.799157
 20
-137.288262
 30
0.0
 10
34.751538
 20
-137.193024
 30
0.0
 10
34.703919
 20
-137.145405
 30
0.0
 10
34.608681
 20
-137.097786
 30
0.0
 10
34.418205
 20
-137.097786
 30
0.0
 10
34.322967
 20
-137.145405
 30
0.0
 10
34.275347
 20
-137.193024
 30
0.0
 10
34.227728
 20
-137.288262
 30
0.0
  0
LWPOLYLINE
  5
1fd
100
AcDbEntity
  8
0
 62
7
100
AcDbPolyline
 90
2
 70
0
 10
34.799157
 20
-136.145403
 30
0.0
 10
34.799157
 20
-136.716832
 30
0.0
  0
LWPOLYLINE
  5
1fe
100
AcDbEntity
  8
0
 62
7
100
AcDbPolyline
 90
5
 70
0
 10
34.799157
 20
-136.431117
 30
0.0
 10
33.799155
 20
-136.431117
 30
0.0
 10
33.942014
 20
-136.526356
 30
0.0
 10
34.037252
 20
-136.621594
 30
0.0
 10
34.084871
 20
-136.716832
 30
0.0
  0
LWPOLYLINE
  5
1ff
100
AcDbEntity
  8
0
 62
7
100
AcDbPolyline
 90
20
 70
1
 10
33.799155
 20
-135.526353
 30
0.0
 10
33.799155
 20
-135.431115
 30
0.0
 10
33.846776
 20
-135.335877
 30
0.0
 10
33.894395
 20
-135.288258
 30
0.0
 10
33.989633
 20
-135.240639
 30
0.0
 10
34.180109
 20
-135.193020
 30
0.0
 10
34.418205
 20
-135.193020
 30
0.0
 10
34.608681
 20
-135.240639
 30
0.0
 10
34.703919
 20
-135.288258
 30
0.0
 10
34.751538
 20
-135.335877
 30
0.0
 10
34.799157
 20
-135.431115
 30
0.0
 10
34.799157
 20
-135.526353
 30
0.0
 10
34.751538
 20
-135.621592
 30
0.0
 10
34.703919
 20
-135.669211
 30
0.0
 10
34.608681
 20
-135.716830
 30
0.0
 10
34.418205
 20
-135.764449
 30
0.0
 10
34.180109
 20
-135.764449
 30
0.0
 10
33.989633
 20
-135.716830
 30
0.0
 10
33.894395
 20
-135.669211
 30
0.0
 10
33.846776
 20
-135.621592
 30
0.0
  0
LWPOLYLINE
  5
200
100
AcDbEntity
  8
0
 62
7
100
AcDbPolyline
 90
20
 70
1
 10
33.799155
 20
-134.573971
 30
0.0
 10
33.799155
 20
-134.478732
 30
0.0
 10
33.846776
 20
-134.383494
 30
0.0
 10
33.894395
 20
-134.335875
 30
0.0
 10
33.989633
 20
-134.288256
 30
0.0
 10
34.180109
 20
-134.240637
 30
0.0
 10
34.418205
 20
-134.240637
 30
0.0
 10
34.608681
 20
-134.288256
 30
0.0
 10
34.703919
 20
-134.335875
 30
0.0
 10
34.751538
 20
-134.383494
 30
0.0
 10
34.799157
 20
-134.478732
 30
0.0
 10
34.799157
 20
-134.573971
 30
0.0
 10
34.751538
 20
-134.669209
 30
0.0
 10
34.703919
 20
-134.716828
 30
0.0
 10
34.608681
 20
-134.764447
 30
0.0
 10
34.418205
 20
-134.812066
 30
0.0
 10
34.180109
 20
-134.812066
 30
0.0
 10
33.989633
 20
-134.764447
 30
0.0
 10
33.894395
 20
-134.716828
 30
0.0
 10
33.846776
 20
-134.669209
 30
0.0
  0
LWPOLYLINE
  5
201
100
AcDbEntity
  8
0
 62
7
100
AcDbPolyline
 90
2
 70
0
 10
34.799157
 20
-133.050158
 30
0.0
 10
34.132490
 20
-133.050158
 30
0.0
  0
LWPOLYLINE
  5
202
100
AcDbEntity
  8
0
 62
7
100
AcDbPolyline
 90
7
 70
0
 10
34.227728
 20
-133.050158
 30
0.0
 10
34.180109
 20
-133.002539
 30
0.0
 10
34.132490
 20
-132.907301
 30
0.0
 10
34.132490
 20
-132.764443
 30
0.0
 10
34.180109
 20
-132.669205
 30
0.0
 10
34.275347
 20
-132.621586
 30
0.0
 10
34.799157
 20
-132.621586
 30
0.0
  0
LWPOLYLINE
  5
203
100
AcDbEntity
  8
0
 62
7
100
AcDbPolyline
 90
7
 70
0
 10
34.275347
 20
-132.621586
 30
0.0
 10
34.180109
 20
-132.573966
 30
0.0
 10
34.132490
 20
-132.478728
 30
0.0
 10
34.132490
 20
-132.335871
 30
0.0
 10
34.180109
 20
-132.240633
 30
0.0
 10
34.275347
 20
-132.193014
 30
0.0
 10
34.799157
 20
-132.193014
 30
0.0
  0
LWPOLYLINE
  5
204
100
AcDbEntity
  8
0
 62
7
100
AcDbPolyline
 90
2
 70
0
 10
34.799157
 20
-131.716822
 30
0.0
 10
34.132490
 20
-131.716822
 30
0.0
  0
LWPOLYLINE
  5
205
100
AcDbEntity
  8
0
 62
7
100
AcDbPolyline
 90
7
 70
0
 10
34.227728
 20
-131.716822
 30
0.0
 10
34.180109
 20
-131.669203
 30
0.0
 10
34.132490
 20
-131.573964
 30
0.0
 10
34.132490
 20
-131.431107
 30
0.0
 10
34.180109
 20
-131.335869
 30
0.0
 10
34.275347
 20
-131.288250
 30
0.0
 10
34.799157
 20
-131.288250
 30
0.0
  0
LWPOLYLINE
  5
206
100
AcDbEntity
  8
0
 62
7
100
AcDbPolyline
 90
7
 70
0
 10
34.275347
 20
-131.288250
 30
0.0
 10
34.180109
 20
-131.240631
 30
0.0
 10
34.132490
 20
-131.145392
 30
0.0
 10
34.132490
 20
-131.002535
 30
0.0
 10
34.180109
 20
-130.907297
 30
0.0
 10
34.275347
 20
-130.859677
 30
0.0
 10
34.799157
 20
-130.859677
 30
0.0
  0
LWPOLYLINE
  5
207
100
AcDbEntity
  8
0
 62
7
100
AcDbPolyline
 90
2
 70
0
 10
47.586804
 20
-191.812422
 30
0.0
 10
34.910358
 20
-191.812422
 30
0.0
  0
LWPOLYLINE
  5
208
100
AcDbEntity
  8
0
 62
7
100
AcDbPolyline
 90
2
 70
0
 10
34.910358
 20
-80.002192
 30
0.0
 10
129.996973
 20
-80.002192
 30
0.0
  0
LWPOLYLINE
  5
209
100
AcDbEntity
  8
0
 62
7
100
AcDbPolyline
 90
2
 70
0
 10
35.496779
 20
-191.812422
 30
0.0
 10
35.496779
 20
-80.002192
 30
0.0
  0
LWPOLYLINE
  5
20a
100
AcDbEntity
  8
0
 62
7
100
AcDbPolyline
 90
2
 70
0
 10
35.496779
 20
-191.812422
 30
0.0
 10
35.496779
 20
-80.002192
 30
0.0
  0
LWPOLYLINE
  5
20b
100
AcDbEntity
  8
0
 62
7
100
AcDbPolyline
 90
2
 70
0
 10
35.496779
 20
-191.812422
 30
0.0
 10
36.083201
 20
-190.685916
 30
0.0
  0
LWPOLYLINE
  5
20c
100
AcDbEntity
  8
0
 62
7
100
AcDbPolyline
 90
2
 70
0
 10
35.496779
 20
-191.812422
 30
0.0
 10
34.910357
 20
-190.685916
 30
0.0
  0
LWPOLYLINE
  5
20d
100
AcDbEntity
  8
0
 62
7
100
AcDbPolyline
 90
2
 70
0
 10
35.496779
 20
-80.002192
 30
0.0
 10
34.910357
 20
-81.128699
 30
0.0
  0
LWPOLYLINE
  5
20e
100
AcDbEntity
  8
0
 62
7
100
AcDbPolyline
 90
2
 70
0
 10
35.496779
 20
-80.002192
 30
0.0
 10
36.083201
 20
-81.128699
 30
0.0
  0
LWPOLYLINE
  5
20f
100
AcDbEntity
  8
0
 62
7
100
AcDbPolyline
 90
2
 70
0
 10
130.496974
 20
-80.002192
 30
0.0
 10
179.153941
 20
-92.016191
 30
0.0
  0
LWPOLYLINE
  5
210
100
AcDbEntity
  8
0
 62
7
100
AcDbPolyline
 90
2
 70
0
 10
179.990257
 20
-93.084121
 30
0.0
 10
180.017257
 20
-167.312372
 30
0.0
  0
LWPOLYLINE
  5
211
100
AcDbEntity
  8
0
 62
7
100
AcDbPolyline
 90
2
 70
0
 10
58.813227
 20
-176.082078
 30
0.0
 10
54.916105
 20
-178.332082
 30
0.0
  0
LWPOLYLINE
  5
212
100
AcDbEntity
  8
0
 62
7
100
AcDbPolyline
 90
2
 70
0
 10
73.044569
 20
-169.775177
 30
0.0
 10
69.663822
 20
-170.681045
 30
0.0
  0
LWPOLYLINE
  5
213
100
AcDbEntity
  8
0
 62
7
100
AcDbPolyline
 90
2
 70
0
 10
53.166101
 20
-175.300988
 30
0.0
 10
57.063223
 20
-173.050984
 30
0.0
  0
LWPOLYLINE
  5
214
100
AcDbEntity
  8
0
 62
7
100
AcDbPolyline
 90
2
 70
0
 10
92.701024
 20
-179.002396
 30
0.0
 10
142.046998
 20
-179.002396
 30
0.0
  0
LWPOLYLINE
  5
215
100
AcDbEntity
  8
0
 62
7
100
AcDbPolyline
 90
2
 70
0
 10
69.663822
 20
-170.681045
 30
0.0
 10
68.499134
 20
-166.334370
 30
0.0
  0
LWPOLYLINE
  5
216
100
AcDbEntity
  8
0
 62
7
100
AcDbPolyline
 90
2
 70
0
 10
133.896981
 20
-108.250650
 30
0.0
 10
130.396974
 20
-108.250650
 30
0.0
  0
LWPOLYLINE
  5
217
100
AcDbEntity
  8
0
 62
7
100
AcDbPolyline
 90
2
 70
0
 10
71.879881
 20
-165.428502
 30
0.0
 10
73.044569
 20
-169.775177
 30
0.0
  0
LWPOLYLINE
  5
218
100
AcDbEntity
  8
0
 62
7
100
AcDbPolyline
 90
2
 70
0
 10
130.396974
 20
-108.250650
 30
0.0
 10
130.396974
 20
-103.750641
 30
0.0
  0
LWPOLYLINE
  5
219
100
AcDbEntity
  8
0
 62
7
100
AcDbPolyline
 90
2
 70
0
 10
54.916105
 20
-178.332082
 30
0.0
 10
53.166101
 20
-175.300988
 30
0.0
  0
LWPOLYLINE
  5
21a
100
AcDbEntity
  8
0
 62
7
100
AcDbPolyline
 90
2
 70
0
 10
57.063223
 20
-173.050984
 30
0.0
 10
58.813227
 20
-176.082078
 30
0.0
  0
LWPOLYLINE
  5
21b
100
AcDbEntity
  8
0
 62
7
100
AcDbPolyline
 90
2
 70
0
 10
179.223451
 20
-168.368846
 30
0.0
 10
142.046998
 20
-179.002396
 30
0.0
  0
LWPOLYLINE
  5
21c
100
AcDbEntity
  8
0
 62
7
100
AcDbPolyline
 90
2
 70
0
 10
68.499134
 20
-166.334370
 30
0.0
 10
71.879881
 20
-165.428502
 30
0.0
  0
LWPOLYLINE
  5
21d
100
AcDbEntity
  8
0
 62
7
100
AcDbPolyline
 90
2
 70
0
 10
95.796903
 20
-122.952281
 30
0.0
 10
95.796903
 20
-127.452290
 30
0.0
  0
LWPOLYLINE
  5
21e
100
AcDbEntity
  8
0
 62
7
100
AcDbPolyline
 90
2
 70
0
 10
92.296896
 20
-122.952281
 30
0.0
 10
95.796903
 20
-122.952281
 30
0.0
  0
LWPOLYLINE
  5
21f
100
AcDbEntity
  8
0
 62
7
100
AcDbPolyline
 90
2
 70
0
 10
92.296896
 20
-103.952242
 30
0.0
 10
95.796903
 20
-103.952242
 30
0.0
  0
LWPOLYLINE
  5
220
100
AcDbEntity
  8
0
 62
7
100
AcDbPolyline
 90
2
 70
0
 10
114.896942
 20
-101.333036
 30
0.0
 10
114.896942
 20
-105.833045
 30
0.0
  0
LWPOLYLINE
  5
221
100
AcDbEntity
  8
0
 62
7
100
AcDbPolyline
 90
2
 70
0
 10
76.796864
 20
-110.852256
 30
0.0
 10
73.296857
 20
-110.852256
 30
0.0
  0
LWPOLYLINE
  5
222
100
AcDbEntity
  8
0
 62
7
100
AcDbPolyline
 90
2
 70
0
 10
95.796903
 20
-127.452290
 30
0.0
 10
92.296896
 20
-127.452290
 30
0.0
  0
LWPOLYLINE
  5
223
100
AcDbEntity
  8
0
 62
7
100
AcDbPolyline
 90
2
 70
0
 10
114.896942
 20
-124.958485
 30
0.0
 10
111.396935
 20
-124.958485
 30
0.0
  0
LWPOLYLINE
  5
224
100
AcDbEntity
  8
0
 62
7
100
AcDbPolyline
 90
2
 70
0
 10
95.796903
 20
-103.952242
 30
0.0
 10
95.796903
 20
-108.452251
 30
0.0
  0
LWPOLYLINE
  5
225
100
AcDbEntity
  8
0
 62
7
100
AcDbPolyline
 90
2
 70
0
 10
76.796864
 20
-106.352247
 30
0.0
 10
76.796864
 20
-110.852256
 30
0.0
  0
LWPOLYLINE
  5
226
100
AcDbEntity
  8
0
 62
7
100
AcDbPolyline
 90
3
 70
0
 10
111.396935
 20
-105.833045
 30
0.0
 10
111.396935
 20
-101.333036
 30
0.0
 10
114.896942
 20
-101.333036
 30
0.0
  0
LWPOLYLINE
  5
227
100
AcDbEntity
  8
0
 62
7
100
AcDbPolyline
 90
2
 70
0
 10
73.296857
 20
-106.352247
 30
0.0
 10
76.796864
 20
-106.352247
 30
0.0
  0
LWPOLYLINE
  5
228
100
AcDbEntity
  8
0
 62
7
100
AcDbPolyline
 90
2
 70
0
 10
76.796864
 20
-125.352286
 30
0.0
 10
76.796864
 20
-129.852295
 30
0.0
  0
LWPOLYLINE
  5
229
100
AcDbEntity
  8
0
 62
7
100
AcDbPolyline
 90
2
 70
0
 10
95.796903
 20
-108.452251
 30
0.0
 10
92.296896
 20
-108.452251
 30
0.0
  0
LWPOLYLINE
  5
22a
100
AcDbEntity
  8
0
 62
7
100
AcDbPolyline
 90
2
 70
0
 10
76.796864
 20
-129.852295
 30
0.0
 10
73.296857
 20
-129.852295
 30
0.0
  0
LWPOLYLINE
  5
22b
100
AcDbEntity
  8
0
 62
7
100
AcDbPolyline
 90
2
 70
0
 10
92.296896
 20
-108.452251
 30
0.0
 10
92.296896
 20
-103.952242
 30
0.0
  0
LWPOLYLINE
  5
22c
100
AcDbEntity
  8
0
 62
7
100
AcDbPolyline
 90
2
 70
0
 10
130.396974
 20
-103.750641
 30
0.0
 10
133.896981
 20
-103.750641
 30
0.0
  0
LWPOLYLINE
  5
22d
100
AcDbEntity
  8
0
 62
7
100
AcDbPolyline
 90
2
 70
0
 10
73.296857
 20
-110.852256
 30
0.0
 10
73.296857
 20
-106.352247
 30
0.0
  0
LWPOLYLINE
  5
22e
100
AcDbEntity
  8
0
 62
7
100
AcDbPolyline
 90
2
 70
0
 10
73.296857
 20
-129.852295
 30
0.0
 10
73.296857
 20
-125.352286
 30
0.0
  0
LWPOLYLINE
  5
22f
100
AcDbEntity
  8
0
 62
7
100
AcDbPolyline
 90
2
 70
0
 10
114.896942
 20
-105.833045
 30
0.0
 10
111.396935
 20
-105.833045
 30
0.0
  0
LWPOLYLINE
  5
230
100
AcDbEntity
  8
0
 62
7
100
AcDbPolyline
 90
2
 70
0
 10
133.896981
 20
-103.750641
 30
0.0
 10
133.896981
 20
-108.250650
 30
0.0
  0
LWPOLYLINE
  5
231
100
AcDbEntity
  8
0
 62
7
100
AcDbPolyline
 90
2
 70
0
 10
73.296857
 20
-125.352286
 30
0.0
 10
76.796864
 20
-125.352286
 30
0.0
  0
LWPOLYLINE
  5
232
100
AcDbEntity
  8
0
 62
7
100
AcDbPolyline
 90
2
 70
0
 10
92.296896
 20
-127.452290
 30
0.0
 10
92.296896
 20
-122.952281
 30
0.0
  0
LWPOLYLINE
  5
233
100
AcDbEntity
  8
0
 62
7
100
AcDbPolyline
 90
2
 70
0
 10
111.396935
 20
-82.232997
 30
0.0
 10
114.896942
 20
-82.232997
 30
0.0
  0
LWPOLYLINE
  5
234
100
AcDbEntity
  8
0
 62
7
100
AcDbPolyline
 90
2
 70
0
 10
168.497052
 20
-136.351808
 30
0.0
 10
168.497052
 20
-131.851799
 30
0.0
  0
LWPOLYLINE
  5
235
100
AcDbEntity
  8
0
 62
7
100
AcDbPolyline
 90
2
 70
0
 10
95.796903
 20
-84.750602
 30
0.0
 10
95.796903
 20
-89.250611
 30
0.0
  0
LWPOLYLINE
  5
236
100
AcDbEntity
  8
0
 62
7
100
AcDbPolyline
 90
2
 70
0
 10
171.997059
 20
-117.128269
 30
0.0
 10
168.497052
 20
-117.128269
 30
0.0
  0
LWPOLYLINE
  5
237
100
AcDbEntity
  8
0
 62
7
100
AcDbPolyline
 90
2
 70
0
 10
171.997059
 20
-136.351808
 30
0.0
 10
168.497052
 20
-136.351808
 30
0.0
  0
LWPOLYLINE
  5
238
100
AcDbEntity
  8
0
 62
7
100
AcDbPolyline
 90
2
 70
0
 10
149.497013
 20
-117.152269
 30
0.0
 10
149.497013
 20
-112.652259
 30
0.0
  0
LWPOLYLINE
  5
239
100
AcDbEntity
  8
0
 62
7
100
AcDbPolyline
 90
2
 70
0
 10
171.997059
 20
-98.253630
 30
0.0
 10
168.497052
 20
-98.253630
 30
0.0
  0
LWPOLYLINE
  5
23a
100
AcDbEntity
  8
0
 62
7
100
AcDbPolyline
 90
2
 70
0
 10
130.396974
 20
-89.352212
 30
0.0
 10
130.396974
 20
-84.852202
 30
0.0
  0
LWPOLYLINE
  5
23b
100
AcDbEntity
  8
0
 62
7
100
AcDbPolyline
 90
2
 70
0
 10
42.822051
 20
-159.402356
 30
0.0
 10
42.820894
 20
-83.480532
 30
0.0
  0
LWPOLYLINE
  5
23c
100
AcDbEntity
  8
0
 62
7
100
AcDbPolyline
 90
2
 70
0
 10
171.997059
 20
-112.628259
 30
0.0
 10
171.997059
 20
-117.128269
 30
0.0
  0
LWPOLYLINE
  5
23d
100
AcDbEntity
  8
0
 62
7
100
AcDbPolyline
 90
2
 70
0
 10
149.497013
 20
-93.752221
 30
0.0
 10
152.997020
 20
-93.752221
 30
0.0
  0
LWPOLYLINE
  5
23e
100
AcDbEntity
  8
0
 62
7
100
AcDbPolyline
 90
2
 70
0
 10
168.497052
 20
-117.128269
 30
0.0
 10
168.497052
 20
-112.628259
 30
0.0
  0
LWPOLYLINE
  5
23f
100
AcDbEntity
  8
0
 62
7
100
AcDbPolyline
 90
2
 70
0
 10
171.997059
 20
-93.753621
 30
0.0
 10
171.997059
 20
-98.253630
 30
0.0
  0
LWPOLYLINE
  5
240
100
AcDbEntity
  8
0
 62
7
100
AcDbPolyline
 90
2
 70
0
 10
152.997020
 20
-93.752221
 30
0.0
 10
152.997020
 20
-98.252230
 30
0.0
  0
LWPOLYLINE
  5
241
100
AcDbEntity
  8
0
 62
7
100
AcDbPolyline
 90
2
 70
0
 10
133.896981
 20
-84.852202
 30
0.0
 10
133.896981
 20
-89.352212
 30
0.0
  0
LWPOLYLINE
  5
242
100
AcDbEntity
  8
0
 62
7
100
AcDbPolyline
 90
2
 70
0
 10
168.497052
 20
-93.753621
 30
0.0
 10
171.997059
 20
-93.753621
 30
0.0
  0
LWPOLYLINE
  5
243
100
AcDbEntity
  8
0
 62
7
100
AcDbPolyline
 90
2
 70
0
 10
92.296896
 20
-89.250611
 30
0.0
 10
92.296896
 20
-84.750602
 30
0.0
  0
LWPOLYLINE
  5
244
100
AcDbEntity
  8
0
 62
7
100
AcDbPolyline
 90
2
 70
0
 10
152.997020
 20
-98.252230
 30
0.0
 10
149.497013
 20
-98.252230
 30
0.0
  0
LWPOLYLINE
  5
245
100
AcDbEntity
  8
0
 62
7
100
AcDbPolyline
 90
2
 70
0
 10
152.997020
 20
-112.652259
 30
0.0
 10
152.997020
 20
-117.152269
 30
0.0
  0
LWPOLYLINE
  5
246
100
AcDbEntity
  8
0
 62
7
100
AcDbPolyline
 90
2
 70
0
 10
95.796903
 20
-89.250611
 30
0.0
 10
92.296896
 20
-89.250611
 30
0.0
  0
LWPOLYLINE
  5
247
100
AcDbEntity
  8
0
 62
7
100
AcDbPolyline
 90
2
 70
0
 10
168.547052
 20
-150.852338
 30
0.0
 10
172.047059
 20
-150.852338
 30
0.0
  0
LWPOLYLINE
  5
248
100
AcDbEntity
  8
0
 62
7
100
AcDbPolyline
 90
2
 70
0
 10
168.497052
 20
-131.851799
 30
0.0
 10
171.997059
 20
-131.851799
 30
0.0
  0
LWPOLYLINE
  5
249
100
AcDbEntity
  8
0
 62
7
100
AcDbPolyline
 90
2
 70
0
 10
114.896942
 20
-86.733006
 30
0.0
 10
111.396935
 20
-86.733006
 30
0.0
  0
LWPOLYLINE
  5
24a
100
AcDbEntity
  8
0
 62
7
100
AcDbPolyline
 90
2
 70
0
 10
149.497013
 20
-112.652259
 30
0.0
 10
152.997020
 20
-112.652259
 30
0.0
  0
LWPOLYLINE
  5
24b
100
AcDbEntity
  8
0
 62
7
100
AcDbPolyline
 90
2
 70
0
 10
168.497052
 20
-98.253630
 30
0.0
 10
168.497052
 20
-93.753621
 30
0.0
  0
LWPOLYLINE
  5
24c
100
AcDbEntity
  8
0
 62
7
100
AcDbPolyline
 90
2
 70
0
 10
73.296857
 20
-91.752217
 30
0.0
 10
73.296857
 20
-87.252207
 30
0.0
  0
LWPOLYLINE
  5
24d
100
AcDbEntity
  8
0
 62
7
100
AcDbPolyline
 90
2
 70
0
 10
76.796864
 20
-87.252207
 30
0.0
 10
76.796864
 20
-91.752217
 30
0.0
  0
LWPOLYLINE
  5
24e
100
AcDbEntity
  8
0
 62
7
100
AcDbPolyline
 90
2
 70
0
 10
152.997020
 20
-117.152269
 30
0.0
 10
149.497013
 20
-117.152269
 30
0.0
  0
LWPOLYLINE
  5
24f
100
AcDbEntity
  8
0
 62
7
100
AcDbPolyline
 90
2
 70
0
 10
149.497013
 20
-98.252230
 30
0.0
 10
149.497013
 20
-93.752221
 30
0.0
  0
LWPOLYLINE
  5
250
100
AcDbEntity
  8
0
 62
7
100
AcDbPolyline
 90
2
 70
0
 10
114.896942
 20
-82.232997
 30
0.0
 10
114.896942
 20
-86.733006
 30
0.0
  0
LWPOLYLINE
  5
251
100
AcDbEntity
  8
0
 62
7
100
AcDbPolyline
 90
2
 70
0
 10
92.296896
 20
-84.750602
 30
0.0
 10
95.796903
 20
-84.750602
 30
0.0
  0
LWPOLYLINE
  5
252
100
AcDbEntity
  8
0
 62
7
100
AcDbPolyline
 90
2
 70
0
 10
73.296857
 20
-87.252207
 30
0.0
 10
76.796864
 20
-87.252207
 30
0.0
  0
LWPOLYLINE
  5
253
100
AcDbEntity
  8
0
 62
7
100
AcDbPolyline
 90
2
 70
0
 10
103.546919
 20
-80.002192
 30
0.0
 10
130.496974
 20
-80.002192
 30
0.0
  0
LWPOLYLINE
  5
254
100
AcDbEntity
  8
0
 62
7
100
AcDbPolyline
 90
2
 70
0
 10
111.396935
 20
-86.733006
 30
0.0
 10
111.396935
 20
-82.232997
 30
0.0
  0
LWPOLYLINE
  5
255
100
AcDbEntity
  8
0
 62
7
100
AcDbPolyline
 90
2
 70
0
 10
168.497052
 20
-112.628259
 30
0.0
 10
171.997059
 20
-112.628259
 30
0.0
  0
LWPOLYLINE
  5
256
100
AcDbEntity
  8
0
 62
7
100
AcDbPolyline
 90
2
 70
0
 10
133.896981
 20
-89.352212
 30
0.0
 10
130.396974
 20
-89.352212
 30
0.0
  0
LWPOLYLINE
  5
257
100
AcDbEntity
  8
0
 62
7
100
AcDbPolyline
 90
2
 70
0
 10
130.396974
 20
-84.852202
 30
0.0
 10
133.896981
 20
-84.852202
 30
0.0
  0
LWPOLYLINE
  5
258
100
AcDbEntity
  8
0
 62
7
100
AcDbPolyline
 90
2
 70
0
 10
76.796864
 20
-91.752217
 30
0.0
 10
73.296857
 20
-91.752217
 30
0.0
  0
LWPOLYLINE
  5
259
100
AcDbEntity
  8
0
 62
7
100
AcDbPolyline
 90
2
 70
0
 10
171.997059
 20
-131.851799
 30
0.0
 10
171.997059
 20
-136.351808
 30
0.0
  0
LWPOLYLINE
  5
25a
100
AcDbEntity
  8
0
 62
7
100
AcDbPolyline
 90
2
 70
0
 10
92.701024
 20
-179.002396
 30
0.0
 10
48.392959
 20
-191.768990
 30
0.0
  0
LWPOLYLINE
  5
25b
100
AcDbEntity
  8
0
 62
7
100
AcDbPolyline
 90
2
 70
0
 10
95.796903
 20
-146.552329
 30
0.0
 10
92.296896
 20
-146.552329
 30
0.0
  0
LWPOLYLINE
  5
25c
100
AcDbEntity
  8
0
 62
7
100
AcDbPolyline
 90
2
 70
0
 10
133.896981
 20
-127.452290
 30
0.0
 10
130.396974
 20
-127.452290
 30
0.0
  0
LWPOLYLINE
  5
25d
100
AcDbEntity
  8
0
 62
7
100
AcDbPolyline
 90
2
 70
0
 10
149.497013
 20
-155.352347
 30
0.0
 10
149.497013
 20
-150.852338
 30
0.0
  0
LWPOLYLINE
  5
25e
100
AcDbEntity
  8
0
 62
7
100
AcDbPolyline
 90
2
 70
0
 10
152.997020
 20
-131.852299
 30
0.0
 10
152.997020
 20
-136.352308
 30
0.0
  0
LWPOLYLINE
  5
25f
100
AcDbEntity
  8
0
 62
7
100
AcDbPolyline
 90
2
 70
0
 10
133.896981
 20
-146.552329
 30
0.0
 10
130.396974
 20
-146.552329
 30
0.0
  0
LWPOLYLINE
  5
260
100
AcDbEntity
  8
0
 62
7
100
AcDbPolyline
 90
2
 70
0
 10
130.396974
 20
-127.452290
 30
0.0
 10
130.396974
 20
-122.952281
 30
0.0
  0
LWPOLYLINE
  5
261
100
AcDbEntity
  8
0
 62
7
100
AcDbPolyline
 90
2
 70
0
 10
111.396935
 20
-143.933124
 30
0.0
 10
111.396935
 20
-139.433114
 30
0.0
  0
LWPOLYLINE
  5
262
100
AcDbEntity
  8
0
 62
7
100
AcDbPolyline
 90
2
 70
0
 10
92.296896
 20
-146.552329
 30
0.0
 10
92.296896
 20
-142.052320
 30
0.0
  0
LWPOLYLINE
  5
263
100
AcDbEntity
  8
0
 62
7
100
AcDbPolyline
 90
2
 70
0
 10
76.796864
 20
-148.852334
 30
0.0
 10
73.296857
 20
-148.852334
 30
0.0
  0
LWPOLYLINE
  5
264
100
AcDbEntity
  8
0
 62
7
100
AcDbPolyline
 90
2
 70
0
 10
130.396974
 20
-146.552329
 30
0.0
 10
130.396974
 20
-142.052320
 30
0.0
  0
LWPOLYLINE
  5
265
100
AcDbEntity
  8
0
 62
7
100
AcDbPolyline
 90
2
 70
0
 10
152.997020
 20
-150.852338
 30
0.0
 10
152.997020
 20
-155.352347
 30
0.0
  0
LWPOLYLINE
  5
266
100
AcDbEntity
  8
0
 62
7
100
AcDbPolyline
 90
2
 70
0
 10
76.796864
 20
-144.352325
 30
0.0
 10
76.796864
 20
-148.852334
 30
0.0
  0
LWPOLYLINE
  5
267
100
AcDbEntity
  8
0
 62
7
100
AcDbPolyline
 90
2
 70
0
 10
95.797303
 20
-160.951559
 30
0.0
 10
95.797303
 20
-165.451568
 30
0.0
  0
LWPOLYLINE
  5
268
100
AcDbEntity
  8
0
 62
7
100
AcDbPolyline
 90
3
 70
0
 10
114.897342
 20
-163.038563
 30
0.0
 10
111.397335
 20
-163.038563
 30
0.0
 10
111.397335
 20
-158.538554
 30
0.0
  0
LWPOLYLINE
  5
269
100
AcDbEntity
  8
0
 62
7
100
AcDbPolyline
 90
2
 70
0
 10
149.497013
 20
-136.352308
 30
0.0
 10
149.497013
 20
-131.852299
 30
0.0
  0
LWPOLYLINE
  5
26a
100
AcDbEntity
  8
0
 62
7
100
AcDbPolyline
 90
2
 70
0
 10
133.896981
 20
-122.952281
 30
0.0
 10
133.896981
 20
-127.452290
 30
0.0
  0
LWPOLYLINE
  5
26b
100
AcDbEntity
  8
0
 62
7
100
AcDbPolyline
 90
2
 70
0
 10
114.896942
 20
-139.433114
 30
0.0
 10
114.896942
 20
-143.933124
 30
0.0
  0
LWPOLYLINE
  5
26c
100
AcDbEntity
  8
0
 62
7
100
AcDbPolyline
 90
2
 70
0
 10
111.396935
 20
-139.433114
 30
0.0
 10
114.896942
 20
-139.433114
 30
0.0
  0
LWPOLYLINE
  5
26d
100
AcDbEntity
  8
0
 62
7
100
AcDbPolyline
 90
2
 70
0
 10
130.396974
 20
-122.952281
 30
0.0
 10
133.896981
 20
-122.952281
 30
0.0
  0
LWPOLYLINE
  5
26e
100
AcDbEntity
  8
0
 62
7
100
AcDbPolyline
 90
2
 70
0
 10
152.997020
 20
-136.352308
 30
0.0
 10
149.497013
 20
-136.352308
 30
0.0
  0
LWPOLYLINE
  5
26f
100
AcDbEntity
  8
0
 62
7
100
AcDbPolyline
 90
2
 70
0
 10
95.796903
 20
-142.052320
 30
0.0
 10
95.796903
 20
-146.552329
 30
0.0
  0
LWPOLYLINE
  5
270
100
AcDbEntity
  8
0
 62
7
100
AcDbPolyline
 90
2
 70
0
 10
111.397335
 20
-158.538554
 30
0.0
 10
114.897342
 20
-158.538554
 30
0.0
  0
LWPOLYLINE
  5
271
100
AcDbEntity
  8
0
 62
7
100
AcDbPolyline
 90
3
 70
0
 10
130.395774
 20
-165.537568
 30
0.0
 10
130.395774
 20
-161.037559
 30
0.0
 10
133.895781
 20
-161.037559
 30
0.0
  0
LWPOLYLINE
  5
272
100
AcDbEntity
  8
0
 62
7
100
AcDbPolyline
 90
2
 70
0
 10
152.997020
 20
-155.352347
 30
0.0
 10
149.497013
 20
-155.352347
 30
0.0
  0
LWPOLYLINE
  5
273
100
AcDbEntity
  8
0
 62
7
100
AcDbPolyline
 90
3
 70
0
 10
172.047059
 20
-155.352347
 30
0.0
 10
168.547052
 20
-155.352347
 30
0.0
 10
168.547052
 20
-150.852338
 30
0.0
  0
LWPOLYLINE
  5
274
100
AcDbEntity
  8
0
 62
7
100
AcDbPolyline
 90
2
 70
0
 10
172.047059
 20
-150.852338
 30
0.0
 10
172.047059
 20
-155.352347
 30
0.0
  0
LWPOLYLINE
  5
275
100
AcDbEntity
  8
0
 62
7
100
AcDbPolyline
 90
2
 70
0
 10
133.895781
 20
-165.537568
 30
0.0
 10
130.395774
 20
-165.537568
 30
0.0
  0
LWPOLYLINE
  5
276
100
AcDbEntity
  8
0
 62
7
100
AcDbPolyline
 90
2
 70
0
 10
114.896942
 20
-120.458476
 30
0.0
 10
114.896942
 20
-124.958485
 30
0.0
  0
LWPOLYLINE
  5
277
100
AcDbEntity
  8
0
 62
7
100
AcDbPolyline
 90
2
 70
0
 10
130.396974
 20
-142.052320
 30
0.0
 10
133.896981
 20
-142.052320
 30
0.0
  0
LWPOLYLINE
  5
278
100
AcDbEntity
  8
0
 62
7
100
AcDbPolyline
 90
2
 70
0
 10
92.296896
 20
-142.052320
 30
0.0
 10
95.796903
 20
-142.052320
 30
0.0
  0
LWPOLYLINE
  5
279
100
AcDbEntity
  8
0
 62
7
100
AcDbPolyline
 90
2
 70
0
 10
73.296857
 20
-148.852334
 30
0.0
 10
73.296857
 20
-144.352325
 30
0.0
  0
LWPOLYLINE
  5
27a
100
AcDbEntity
  8
0
 62
7
100
AcDbPolyline
 90
2
 70
0
 10
92.297296
 20
-165.451568
 30
0.0
 10
92.297296
 20
-160.951559
 30
0.0
  0
LWPOLYLINE
  5
27b
100
AcDbEntity
  8
0
 62
7
100
AcDbPolyline
 90
2
 70
0
 10
111.396935
 20
-124.958485
 30
0.0
 10
111.396935
 20
-120.458476
 30
0.0
  0
LWPOLYLINE
  5
27c
100
AcDbEntity
  8
0
 62
7
100
AcDbPolyline
 90
2
 70
0
 10
149.497013
 20
-150.852338
 30
0.0
 10
152.997020
 20
-150.852338
 30
0.0
  0
LWPOLYLINE
  5
27d
100
AcDbEntity
  8
0
 62
7
100
AcDbPolyline
 90
2
 70
0
 10
111.396935
 20
-120.458476
 30
0.0
 10
114.896942
 20
-120.458476
 30
0.0
  0
LWPOLYLINE
  5
27e
100
AcDbEntity
  8
0
 62
7
100
AcDbPolyline
 90
2
 70
0
 10
92.297296
 20
-160.951559
 30
0.0
 10
95.797303
 20
-160.951559
 30
0.0
  0
LWPOLYLINE
  5
27f
100
AcDbEntity
  8
0
 62
7
100
AcDbPolyline
 90
2
 70
0
 10
73.296857
 20
-144.352325
 30
0.0
 10
76.796864
 20
-144.352325
 30
0.0
  0
LWPOLYLINE
  5
280
100
AcDbEntity
  8
0
 62
7
100
AcDbPolyline
 90
2
 70
0
 10
114.896942
 20
-143.933124
 30
0.0
 10
111.396935
 20
-143.933124
 30
0.0
  0
LWPOLYLINE
  5
281
100
AcDbEntity
  8
0
 62
7
100
AcDbPolyline
 90
2
 70
0
 10
95.797303
 20
-165.451568
 30
0.0
 10
92.297296
 20
-165.451568
 30
0.0
  0
LWPOLYLINE
  5
282
100
AcDbEntity
  8
0
 62
7
100
AcDbPolyline
 90
2
 70
0
 10
149.497013
 20
-131.852299
 30
0.0
 10
152.997020
 20
-131.852299
 30
0.0
  0
LWPOLYLINE
  5
283
100
AcDbEntity
  8
0
 62
7
100
AcDbPolyline
 90
2
 70
0
 10
114.897342
 20
-158.538554
 30
0.0
 10
114.897342
 20
-163.038563
 30
0.0
  0
LWPOLYLINE
  5
284
100
AcDbEntity
  8
0
 62
7
100
AcDbPolyline
 90
2
 70
0
 10
133.896981
 20
-142.052320
 30
0.0
 10
133.896981
 20
-146.552329
 30
0.0
  0
LWPOLYLINE
  5
285
100
AcDbEntity
  8
0
 62
7
100
AcDbPolyline
 90
2
 70
0
 10
133.895781
 20
-161.037559
 30
0.0
 10
133.895781
 20
-165.537568
 30
0.0
  0
SPLINE
  5
286
100
AcDbEntity
  8
0
 62
7
100
AcDbSpline
 70
8
 71
3
 72
8
 73
4
 74
0
 40
0
 40
0
 40
0
 40
0
 40
1
 40
1
 40
1
 40
1
 10
179.223455
 20
-168.368859
 30
0.0
 10
179.693579
 20
-168.232441
 30
0.0
 10
180.017079
 20
-167.801888
 30
0.0
 10
180.017257
 20
-167.312372
 30
0.0
  0
LWPOLYLINE
  5
287
100
AcDbEntity
  8
0
 62
7
100
AcDbPolyline
 90
2
 70
0
 10
47.135358
 20
-191.262261
 30
0.0
 10
38.042184
 20
-175.476001
 30
0.0
  0
SPLINE
  5
288
100
AcDbEntity
  8
0
 62
7
100
AcDbSpline
 70
8
 71
3
 72
8
 73
4
 74
0
 40
0
 40
0
 40
0
 40
0
 40
1
 40
1
 40
1
 40
1
 10
179.990270
 20
-93.084121
 30
0.0
 10
179.990271
 20
-92.578169
 30
0.0
 10
179.645144
 20
-92.137467
 30
0.0
 10
179.153941
 20
-92.016191
 30
0.0
  0
SPLINE
  5
289
100
AcDbEntity
  8
0
 62
7
100
AcDbSpline
 70
8
 71
3
 72
8
 73
4
 74
0
 40
0
 40
0
 40
0
 40
0
 40
1
 40
1
 40
1
 40
1
 10
43.869523
 20
-82.381079
 30
0.0
 10
43.282281
 20
-82.408331
 30
0.0
 10
42.820343
 20
-82.892658
 30
0.0
 10
42.820894
 20
-83.480532
 30
0.0
  0
LWPOLYLINE
  5
28a
100
AcDbEntity
  8
0
 62
7
100
AcDbPolyline
 90
2
 70
0
 10
37.945080
 20
-174.621247
 30
0.0
 10
42.822051
 20
-159.402356
 30
0.0
  0
SPLINE
  5
28b
100
AcDbEntity
  8
0
 62
7
100
AcDbSpline
 70
8
 71
3
 72
8
 73
4
 74
0
 40
0
 40
0
 40
0
 40
0
 40
1
 40
1
 40
1
 40
1
 10
47.135385
 20
-191.262245
 30
0.0
 10
47.388253
 20
-191.700156
 30
0.0
 10
47.907120
 20
-191.909236
 30
0.0
 10
48.392960
 20
-191.768990
 30
0.0
  0
SPLINE
  5
28c
100
AcDbEntity
  8
0
 62
7
100
AcDbSpline
 70
8
 71
3
 72
8
 73
4
 74
0
 40
0
 40
0
 40
0
 40
0
 40
1
 40
1
 40
1
 40
1
 10
37.945090
 20
-174.621250
 30
0.0
 10
37.862031
 20
-174.907702
 30
0.0
 10
37.896992
 20
-175.215476
 30
0.0
 10
38.042185
 20
-175.476001
 30
0.0
  0
LWPOLYLINE
  5
28d
100
AcDbEntity
  8
0
 62
7
100
AcDbPolyline
 90
2
 70
0
 10
103.546919
 20
-80.002192
 30
0.0
 10
43.869522
 20
-82.381064
 30
0.0
  0
ENDSEC
  0
SECTION
  2
OBJECTS
  0
DICTIONARY
  5
C
330
0
100
AcDbDictionary
  3
ACAD_GROUP
350
D
  3
ACAD_MLINESTYLE
350
17
  0
DICTIONARY
  5
D
330
C
100
AcDbDictionary
  0
DICTIONARY
  5
1A
330
C
100
AcDbDictionary
  0
DICTIONARY
  5
17
330
C
100
AcDbDictionary
  3
STANDARD
350
18
  0
DICTIONARY
  5
19
330
C
100
AcDbDictionary
  0
ENDSEC
  0
EOF
