  0
SECTION
  2
HEADER
  9
$ACADVER
  1
AC1009
  0
ENDSEC
  0
SECTION
  2
ENTITIES
  0
POLYLINE
  5
90
  8
Layer_0
  62
0
  70
1
  66
1
  10
0
  20
0
  30
0
  0
VERTEX
  5
90
  8
Layer_0
  10
666.91162
  20
453.87909
  0
VERTEX
  5
91
  8
Layer_0
  10
666.91125
  20
453.9064
  0
VERTEX
  5
92
  8
Layer_0
  10
666.90619
  20
453.98779
  0
VERTEX
  5
93
  8
Layer_0
  10
666.87115
  20
454.17371
  0
VERTEX
  5
94
  8
Layer_0
  10
666.80548
  20
454.34964
  0
VERTEX
  5
95
  8
Layer_0
  10
666.711
  20
454.51193
  0
VERTEX
  5
96
  8
Layer_0
  10
666.58942
  20
454.65689
  0
VERTEX
  5
97
  8
Layer_0
  10
666.54987
  20
454.69452
  0
VERTEX
  5
98
  8
Layer_0
  10
666.3877
  20
454.81638
  0
VERTEX
  5
99
  8
Layer_0
  10
666.2074
  20
454.90552
  0
VERTEX
  5
9a
  8
Layer_0
  10
666.01367
  20
454.9603
  0
VERTEX
  5
9b
  8
Layer_0
  10
665.81158
  20
454.97906
  0
VERTEX
  5
9c
  8
Layer_0
  10
665.72876
  20
454.97595
  0
VERTEX
  5
9d
  8
Layer_0
  10
665.43066
  20
454.91095
  0
VERTEX
  5
9e
  8
Layer_0
  10
665.16638
  20
454.76993
  0
VERTEX
  5
9f
  8
Layer_0
  10
664.94995
  20
454.56293
  0
VERTEX
  5
a0
  8
Layer_0
  10
664.79535
  20
454.30005
  0
VERTEX
  5
a1
  8
Layer_0
  10
664.76648
  20
454.22229
  0
VERTEX
  5
a2
  8
Layer_0
  10
664.71222
  20
453.92212
  0
VERTEX
  5
a3
  8
Layer_0
  10
664.74139
  20
453.62402
  0
VERTEX
  5
a4
  8
Layer_0
  10
664.84998
  20
453.34479
  0
VERTEX
  5
a5
  8
Layer_0
  10
665.03381
  20
453.10126
  0
VERTEX
  5
a6
  8
Layer_0
  10
665.0946
  20
453.04486
  0
VERTEX
  5
a7
  8
Layer_0
  10
665.3512
  20
452.88019
  0
VERTEX
  5
a8
  8
Layer_0
  10
665.63776
  20
452.79324
  0
VERTEX
  5
a9
  8
Layer_0
  10
665.93719
  20
452.78659
  0
VERTEX
  5
aa
  8
Layer_0
  10
666.23254
  20
452.86282
  0
VERTEX
  5
ab
  8
Layer_0
  10
666.5119
  20
453.0311
  0
VERTEX
  5
ac
  8
Layer_0
  10
666.72607
  20
453.26819
  0
VERTEX
  5
ad
  8
Layer_0
  10
666.86322
  20
453.55664
  0
VERTEX
  5
ae
  8
Layer_0
  10
666.91162
  20
453.87909
  0
SEQEND
  0
POLYLINE
  5
b0
  8
Layer_0
  62
0
  70
1
  66
1
  10
0
  20
0
  30
0
  0
VERTEX
  5
b0
  8
Layer_0
  10
665.03381
  20
415.00134
  0
VERTEX
  5
b1
  8
Layer_0
  10
665.29608
  20
414.80765
  0
VERTEX
  5
b2
  8
Layer_0
  10
665.59705
  20
414.70062
  0
VERTEX
  5
b3
  8
Layer_0
  10
665.91602
  20
414.68436
  0
VERTEX
  5
b4
  8
Layer_0
  10
666.23254
  20
414.76288
  0
VERTEX
  5
b5
  8
Layer_0
  10
666.51208
  20
414.93097
  0
VERTEX
  5
b6
  8
Layer_0
  10
666.72626
  20
415.16803
  0
VERTEX
  5
b7
  8
Layer_0
  10
666.86334
  20
415.4566
  0
VERTEX
  5
b8
  8
Layer_0
  10
666.91162
  20
415.77917
  0
VERTEX
  5
b9
  8
Layer_0
  10
666.91028
  20
415.83371
  0
VERTEX
  5
ba
  8
Layer_0
  10
666.88147
  20
416.03452
  0
VERTEX
  5
bb
  8
Layer_0
  10
666.81696
  20
416.2251
  0
VERTEX
  5
bc
  8
Layer_0
  10
666.71893
  20
416.40082
  0
VERTEX
  5
bd
  8
Layer_0
  10
666.58942
  20
416.55698
  0
VERTEX
  5
be
  8
Layer_0
  10
666.52954
  20
416.61261
  0
VERTEX
  5
bf
  8
Layer_0
  10
666.37024
  20
416.72702
  0
VERTEX
  5
c0
  8
Layer_0
  10
666.19458
  20
416.8107
  0
VERTEX
  5
c1
  8
Layer_0
  10
666.0069
  20
416.86194
  0
VERTEX
  5
c2
  8
Layer_0
  10
665.81158
  20
416.87915
  0
VERTEX
  5
c3
  8
Layer_0
  10
665.72876
  20
416.87604
  0
VERTEX
  5
c4
  8
Layer_0
  10
665.43066
  20
416.81091
  0
VERTEX
  5
c5
  8
Layer_0
  10
665.16644
  20
416.66989
  0
VERTEX
  5
c6
  8
Layer_0
  10
664.94995
  20
416.46295
  0
VERTEX
  5
c7
  8
Layer_0
  10
664.79535
  20
416.2001
  0
VERTEX
  5
c8
  8
Layer_0
  10
664.76648
  20
416.12238
  0
VERTEX
  5
c9
  8
Layer_0
  10
664.71265
  20
415.82214
  0
VERTEX
  5
ca
  8
Layer_0
  10
664.74188
  20
415.52408
  0
VERTEX
  5
cb
  8
Layer_0
  10
664.85022
  20
415.24487
  0
VERTEX
  5
cc
  8
Layer_0
  10
665.03381
  20
415.00134
  0
SEQEND
  0
POLYLINE
  5
ce
  8
Layer_0
  62
0
  70
1
  66
1
  10
0
  20
0
  30
0
  0
VERTEX
  5
ce
  8
Layer_0
  10
561.80896
  20
400.12637
  0
VERTEX
  5
cf
  8
Layer_0
  10
562.07117
  20
399.93234
  0
VERTEX
  5
d0
  8
Layer_0
  10
562.37213
  20
399.82523
  0
VERTEX
  5
d1
  8
Layer_0
  10
562.69128
  20
399.80908
  0
VERTEX
  5
d2
  8
Layer_0
  10
563.00775
  20
399.88794
  0
VERTEX
  5
d3
  8
Layer_0
  10
563.28729
  20
400.05594
  0
VERTEX
  5
d4
  8
Layer_0
  10
563.50146
  20
400.29303
  0
VERTEX
  5
d5
  8
Layer_0
  10
563.63855
  20
400.5816
  0
VERTEX
  5
d6
  8
Layer_0
  10
563.68677
  20
400.90417
  0
VERTEX
  5
d7
  8
Layer_0
  10
563.67273
  20
401.07919
  0
VERTEX
  5
d8
  8
Layer_0
  10
563.6311
  20
401.24969
  0
VERTEX
  5
d9
  8
Layer_0
  10
563.61304
  20
401.30023
  0
VERTEX
  5
da
  8
Layer_0
  10
563.50867
  20
401.50406
  0
VERTEX
  5
db
  8
Layer_0
  10
563.36462
  20
401.68201
  0
VERTEX
  5
dc
  8
Layer_0
  10
563.34509
  20
401.70108
  0
VERTEX
  5
dd
  8
Layer_0
  10
563.17999
  20
401.83054
  0
VERTEX
  5
de
  8
Layer_0
  10
562.99512
  20
401.9256
  0
VERTEX
  5
df
  8
Layer_0
  10
562.79565
  20
401.98419
  0
VERTEX
  5
e0
  8
Layer_0
  10
562.58679
  20
402.00418
  0
VERTEX
  5
e1
  8
Layer_0
  10
562.50397
  20
402.00107
  0
VERTEX
  5
e2
  8
Layer_0
  10
562.20593
  20
401.93625
  0
VERTEX
  5
e3
  8
Layer_0
  10
561.94165
  20
401.79517
  0
VERTEX
  5
e4
  8
Layer_0
  10
561.72522
  20
401.58807
  0
VERTEX
  5
e5
  8
Layer_0
  10
561.57056
  20
401.32513
  0
VERTEX
  5
e6
  8
Layer_0
  10
561.54169
  20
401.24738
  0
VERTEX
  5
e7
  8
Layer_0
  10
561.48779
  20
400.94714
  0
VERTEX
  5
e8
  8
Layer_0
  10
561.51697
  20
400.64902
  0
VERTEX
  5
e9
  8
Layer_0
  10
561.62531
  20
400.36981
  0
VERTEX
  5
ea
  8
Layer_0
  10
561.80896
  20
400.12637
  0
SEQEND
  0
POLYLINE
  5
ec
  8
Layer_0
  62
0
  70
1
  66
1
  10
0
  20
0
  30
0
  0
VERTEX
  5
ec
  8
Layer_0
  10
588.83392
  20
421.50134
  0
VERTEX
  5
ed
  8
Layer_0
  10
589.09613
  20
421.30734
  0
VERTEX
  5
ee
  8
Layer_0
  10
589.39709
  20
421.20023
  0
VERTEX
  5
ef
  8
Layer_0
  10
589.71619
  20
421.18405
  0
VERTEX
  5
f0
  8
Layer_0
  10
590.03271
  20
421.26288
  0
VERTEX
  5
f1
  8
Layer_0
  10
590.31232
  20
421.43088
  0
VERTEX
  5
f2
  8
Layer_0
  10
590.52655
  20
421.66797
  0
VERTEX
  5
f3
  8
Layer_0
  10
590.66364
  20
421.95654
  0
VERTEX
  5
f4
  8
Layer_0
  10
590.71173
  20
422.27914
  0
VERTEX
  5
f5
  8
Layer_0
  10
590.67542
  20
422.55911
  0
VERTEX
  5
f6
  8
Layer_0
  10
590.56921
  20
422.82068
  0
VERTEX
  5
f7
  8
Layer_0
  10
590.48737
  20
422.94485
  0
VERTEX
  5
f8
  8
Layer_0
  10
590.38959
  20
423.05695
  0
VERTEX
  5
f9
  8
Layer_0
  10
590.37
  20
423.07605
  0
VERTEX
  5
fa
  8
Layer_0
  10
590.20496
  20
423.20551
  0
VERTEX
  5
fb
  8
Layer_0
  10
590.02002
  20
423.3006
  0
VERTEX
  5
fc
  8
Layer_0
  10
589.82056
  20
423.35922
  0
VERTEX
  5
fd
  8
Layer_0
  10
589.61176
  20
423.37915
  0
VERTEX
  5
fe
  8
Layer_0
  10
589.52887
  20
423.37604
  0
VERTEX
  5
ff
  8
Layer_0
  10
589.23083
  20
423.31116
  0
VERTEX
  5
100
  8
Layer_0
  10
588.96655
  20
423.1701
  0
VERTEX
  5
101
  8
Layer_0
  10
588.75012
  20
422.96304
  0
VERTEX
  5
102
  8
Layer_0
  10
588.59546
  20
422.70007
  0
VERTEX
  5
103
  8
Layer_0
  10
588.56665
  20
422.62234
  0
VERTEX
  5
104
  8
Layer_0
  10
588.51245
  20
422.32214
  0
VERTEX
  5
105
  8
Layer_0
  10
588.54163
  20
422.02399
  0
VERTEX
  5
106
  8
Layer_0
  10
588.65009
  20
421.74478
  0
VERTEX
  5
107
  8
Layer_0
  10
588.83392
  20
421.50134
  0
SEQEND
  0
POLYLINE
  5
109
  8
Layer_0
  62
0
  70
1
  66
1
  10
0
  20
0
  30
0
  0
VERTEX
  5
109
  8
Layer_0
  10
590.03271
  20
461.86279
  0
VERTEX
  5
10a
  8
Layer_0
  10
590.31232
  20
462.03073
  0
VERTEX
  5
10b
  8
Layer_0
  10
590.52655
  20
462.26782
  0
VERTEX
  5
10c
  8
Layer_0
  10
590.66357
  20
462.55646
  0
VERTEX
  5
10d
  8
Layer_0
  10
590.71173
  20
462.87906
  0
VERTEX
  5
10e
  8
Layer_0
  10
590.71039
  20
462.93359
  0
VERTEX
  5
10f
  8
Layer_0
  10
590.6817
  20
463.13449
  0
VERTEX
  5
110
  8
Layer_0
  10
590.61731
  20
463.32516
  0
VERTEX
  5
111
  8
Layer_0
  10
590.51929
  20
463.50085
  0
VERTEX
  5
112
  8
Layer_0
  10
590.38959
  20
463.65686
  0
VERTEX
  5
113
  8
Layer_0
  10
590.37
  20
463.67596
  0
VERTEX
  5
114
  8
Layer_0
  10
590.20508
  20
463.80554
  0
VERTEX
  5
115
  8
Layer_0
  10
590.02014
  20
463.9006
  0
VERTEX
  5
116
  8
Layer_0
  10
589.82062
  20
463.95914
  0
VERTEX
  5
117
  8
Layer_0
  10
589.61176
  20
463.97906
  0
VERTEX
  5
118
  8
Layer_0
  10
589.52887
  20
463.97595
  0
VERTEX
  5
119
  8
Layer_0
  10
589.23077
  20
463.9111
  0
VERTEX
  5
11a
  8
Layer_0
  10
588.96649
  20
463.77008
  0
VERTEX
  5
11b
  8
Layer_0
  10
588.75006
  20
463.56299
  0
VERTEX
  5
11c
  8
Layer_0
  10
588.59546
  20
463.30002
  0
VERTEX
  5
11d
  8
Layer_0
  10
588.56665
  20
463.22226
  0
VERTEX
  5
11e
  8
Layer_0
  10
588.51239
  20
462.92206
  0
VERTEX
  5
11f
  8
Layer_0
  10
588.5415
  20
462.6239
  0
VERTEX
  5
120
  8
Layer_0
  10
588.65009
  20
462.34467
  0
VERTEX
  5
121
  8
Layer_0
  10
588.83392
  20
462.10126
  0
VERTEX
  5
122
  8
Layer_0
  10
589.09607
  20
461.90717
  0
VERTEX
  5
123
  8
Layer_0
  10
589.39709
  20
461.79999
  0
VERTEX
  5
124
  8
Layer_0
  10
589.71619
  20
461.78381
  0
VERTEX
  5
125
  8
Layer_0
  10
590.03271
  20
461.86279
  0
SEQEND
  0
POLYLINE
  5
127
  8
Layer_0
  62
0
  70
1
  66
1
  10
0
  20
0
  30
0
  0
VERTEX
  5
127
  8
Layer_0
  10
552.17542
  20
373.64441
  0
VERTEX
  5
128
  8
Layer_0
  10
543.08228
  20
389.4306
  0
VERTEX
  5
129
  8
Layer_0
  10
542.99634
  20
389.62704
  0
VERTEX
  5
12a
  8
Layer_0
  10
542.94977
  20
389.83441
  0
VERTEX
  5
12b
  8
Layer_0
  10
542.9433
  20
390.04681
  0
VERTEX
  5
12c
  8
Layer_0
  10
542.97772
  20
390.25842
  0
VERTEX
  5
12d
  8
Layer_0
  10
542.98511
  20
390.28534
  0
VERTEX
  5
12e
  8
Layer_0
  10
547.86206
  20
405.50418
  0
VERTEX
  5
12f
  8
Layer_0
  10
547.86182
  20
422.54913
  0
VERTEX
  5
130
  8
Layer_0
  10
547.88007
  20
422.73898
  0
VERTEX
  5
131
  8
Layer_0
  10
547.93335
  20
422.92035
  0
VERTEX
  5
132
  8
Layer_0
  10
548.01971
  20
423.08844
  0
VERTEX
  5
133
  8
Layer_0
  10
548.13739
  20
423.23846
  0
VERTEX
  5
134
  8
Layer_0
  10
548.15472
  20
423.25626
  0
VERTEX
  5
135
  8
Layer_0
  10
548.30188
  20
423.37756
  0
VERTEX
  5
136
  8
Layer_0
  10
548.46777
  20
423.46808
  0
VERTEX
  5
137
  8
Layer_0
  10
548.64771
  20
423.52585
  0
VERTEX
  5
138
  8
Layer_0
  10
548.83704
  20
423.54883
  0
VERTEX
  5
139
  8
Layer_0
  10
569.55676
  20
423.54913
  0
VERTEX
  5
13a
  8
Layer_0
  10
569.75281
  20
423.56866
  0
VERTEX
  5
13b
  8
Layer_0
  10
569.93939
  20
423.62543
  0
VERTEX
  5
13c
  8
Layer_0
  10
570.11151
  20
423.71729
  0
VERTEX
  5
13d
  8
Layer_0
  10
570.26392
  20
423.84204
  0
VERTEX
  5
13e
  8
Layer_0
  10
570.38885
  20
423.99432
  0
VERTEX
  5
13f
  8
Layer_0
  10
570.48077
  20
424.16641
  0
VERTEX
  5
140
  8
Layer_0
  10
570.53748
  20
424.35312
  0
VERTEX
  5
141
  8
Layer_0
  10
570.55676
  20
424.54913
  0
VERTEX
  5
142
  8
Layer_0
  10
570.55676
  20
482.427
  0
VERTEX
  5
143
  8
Layer_0
  10
570.57471
  20
482.61646
  0
VERTEX
  5
144
  8
Layer_0
  10
570.62634
  20
482.7944
  0
VERTEX
  5
145
  8
Layer_0
  10
570.70862
  20
482.95728
  0
VERTEX
  5
146
  8
Layer_0
  10
570.8183
  20
483.10162
  0
VERTEX
  5
147
  8
Layer_0
  10
570.95215
  20
483.22388
  0
VERTEX
  5
148
  8
Layer_0
  10
571.10693
  20
483.32053
  0
VERTEX
  5
149
  8
Layer_0
  10
571.27948
  20
483.38806
  0
VERTEX
  5
14a
  8
Layer_0
  10
571.46655
  20
483.42297
  0
VERTEX
  5
14b
  8
Layer_0
  10
571.51648
  20
483.42621
  0
VERTEX
  5
14c
  8
Layer_0
  10
608.58673
  20
484.90402
  0
VERTEX
  5
14d
  8
Layer_0
  10
635.53662
  20
484.90402
  0
VERTEX
  5
14e
  8
Layer_0
  10
684.19342
  20
472.89008
  0
VERTEX
  5
14f
  8
Layer_0
  10
684.32642
  20
472.84811
  0
VERTEX
  5
150
  8
Layer_0
  10
684.453
  20
472.78983
  0
VERTEX
  5
151
  8
Layer_0
  10
684.69287
  20
472.61429
  0
VERTEX
  5
152
  8
Layer_0
  10
684.87427
  20
472.38531
  0
VERTEX
  5
153
  8
Layer_0
  10
684.98926
  20
472.1167
  0
VERTEX
  5
154
  8
Layer_0
  10
685.02979
  20
471.82214
  0
VERTEX
  5
155
  8
Layer_0
  10
685.05676
  20
397.59418
  0
VERTEX
  5
156
  8
Layer_0
  10
685.04199
  20
397.41376
  0
VERTEX
  5
157
  8
Layer_0
  10
684.99902
  20
397.24164
  0
VERTEX
  5
158
  8
Layer_0
  10
684.92975
  20
397.08051
  0
VERTEX
  5
159
  8
Layer_0
  10
684.83643
  20
396.93323
  0
VERTEX
  5
15a
  8
Layer_0
  10
684.72095
  20
396.80252
  0
VERTEX
  5
15b
  8
Layer_0
  10
684.58551
  20
396.69119
  0
VERTEX
  5
15c
  8
Layer_0
  10
684.43213
  20
396.60199
  0
VERTEX
  5
15d
  8
Layer_0
  10
684.26294
  20
396.53772
  0
VERTEX
  5
15e
  8
Layer_0
  10
647.08667
  20
385.90424
  0
VERTEX
  5
15f
  8
Layer_0
  10
597.74084
  20
385.90424
  0
VERTEX
  5
160
  8
Layer_0
  10
553.43298
  20
373.1377
  0
VERTEX
  5
161
  8
Layer_0
  10
553.24982
  20
373.10114
  0
VERTEX
  5
162
  8
Layer_0
  10
553.06708
  20
373.09598
  0
VERTEX
  5
163
  8
Layer_0
  10
552.88824
  20
373.12076
  0
VERTEX
  5
164
  8
Layer_0
  10
552.7168
  20
373.1741
  0
VERTEX
  5
165
  8
Layer_0
  10
552.55634
  20
373.25455
  0
VERTEX
  5
166
  8
Layer_0
  10
552.41028
  20
373.36072
  0
VERTEX
  5
167
  8
Layer_0
  10
552.2821
  20
373.49112
  0
VERTEX
  5
168
  8
Layer_0
  10
552.17542
  20
373.64441
  0
SEQEND
  0
POLYLINE
  5
16a
  8
Layer_0
  62
0
  70
1
  66
1
  10
0
  20
0
  30
0
  0
VERTEX
  5
16a
  8
Layer_0
  10
649.28662
  20
437.35413
  0
VERTEX
  5
16b
  8
Layer_0
  10
663.28662
  20
437.35413
  0
VERTEX
  5
16c
  8
Layer_0
  10
663.28662
  20
451.35406
  0
VERTEX
  5
16d
  8
Layer_0
  10
649.28662
  20
451.35406
  0
VERTEX
  5
16e
  8
Layer_0
  10
649.28662
  20
437.35413
  0
SEQEND
  0
POLYLINE
  5
170
  8
Layer_0
  62
0
  70
1
  66
1
  10
0
  20
0
  30
0
  0
VERTEX
  5
170
  8
Layer_0
  10
630.23669
  20
479.36401
  0
VERTEX
  5
171
  8
Layer_0
  10
630.23669
  20
465.36404
  0
VERTEX
  5
172
  8
Layer_0
  10
644.23663
  20
465.36404
  0
VERTEX
  5
173
  8
Layer_0
  10
644.23663
  20
479.36401
  0
VERTEX
  5
174
  8
Layer_0
  10
630.23669
  20
479.36401
  0
SEQEND
  0
POLYLINE
  5
176
  8
Layer_0
  62
0
  70
1
  66
1
  10
0
  20
0
  30
0
  0
VERTEX
  5
176
  8
Layer_0
  10
558.85901
  20
396.06638
  0
VERTEX
  5
177
  8
Layer_0
  10
546.73468
  20
389.06641
  0
VERTEX
  5
178
  8
Layer_0
  10
553.73462
  20
376.94208
  0
VERTEX
  5
179
  8
Layer_0
  10
565.85901
  20
383.94205
  0
VERTEX
  5
17a
  8
Layer_0
  10
558.85901
  20
396.06638
  0
SEQEND
  0
POLYLINE
  5
17c
  8
Layer_0
  62
0
  70
1
  66
1
  10
0
  20
0
  30
0
  0
VERTEX
  5
17c
  8
Layer_0
  10
663.28662
  20
418.30414
  0
VERTEX
  5
17d
  8
Layer_0
  10
663.28662
  20
432.30414
  0
VERTEX
  5
17e
  8
Layer_0
  10
649.28662
  20
432.30414
  0
VERTEX
  5
17f
  8
Layer_0
  10
649.28662
  20
418.30414
  0
VERTEX
  5
180
  8
Layer_0
  10
663.28662
  20
418.30414
  0
SEQEND
  0
POLYLINE
  5
182
  8
Layer_0
  62
0
  70
1
  66
1
  10
0
  20
0
  30
0
  0
VERTEX
  5
182
  8
Layer_0
  10
625.18665
  20
462.81406
  0
VERTEX
  5
183
  8
Layer_0
  10
611.18671
  20
462.81406
  0
VERTEX
  5
184
  8
Layer_0
  10
611.18671
  20
448.81409
  0
VERTEX
  5
185
  8
Layer_0
  10
625.18665
  20
448.81409
  0
VERTEX
  5
186
  8
Layer_0
  10
625.18665
  20
462.81406
  0
SEQEND
  0
POLYLINE
  5
188
  8
Layer_0
  62
0
  70
1
  66
1
  10
0
  20
0
  30
0
  0
VERTEX
  5
188
  8
Layer_0
  10
573.08679
  20
443.80411
  0
VERTEX
  5
189
  8
Layer_0
  10
587.08679
  20
443.80411
  0
VERTEX
  5
18a
  8
Layer_0
  10
587.08679
  20
457.80408
  0
VERTEX
  5
18b
  8
Layer_0
  10
573.08679
  20
457.80408
  0
VERTEX
  5
18c
  8
Layer_0
  10
573.08679
  20
443.80411
  0
SEQEND
  0
POLYLINE
  5
18e
  8
Layer_0
  62
0
  70
1
  66
1
  10
0
  20
0
  30
0
  0
VERTEX
  5
18e
  8
Layer_0
  10
592.13672
  20
465.40405
  0
VERTEX
  5
18f
  8
Layer_0
  10
606.13672
  20
465.40405
  0
VERTEX
  5
190
  8
Layer_0
  10
606.13672
  20
479.40402
  0
VERTEX
  5
191
  8
Layer_0
  10
592.13672
  20
479.40402
  0
VERTEX
  5
192
  8
Layer_0
  10
592.13672
  20
465.40405
  0
SEQEND
  0
POLYLINE
  5
194
  8
Layer_0
  62
0
  70
1
  66
1
  10
0
  20
0
  30
0
  0
VERTEX
  5
194
  8
Layer_0
  10
644.23663
  20
446.36411
  0
VERTEX
  5
195
  8
Layer_0
  10
644.23663
  20
460.36407
  0
VERTEX
  5
196
  8
Layer_0
  10
630.23669
  20
460.36407
  0
VERTEX
  5
197
  8
Layer_0
  10
630.23669
  20
446.36411
  0
VERTEX
  5
198
  8
Layer_0
  10
644.23663
  20
446.36411
  0
SEQEND
  0
POLYLINE
  5
19a
  8
Layer_0
  62
0
  70
1
  66
1
  10
0
  20
0
  30
0
  0
VERTEX
  5
19a
  8
Layer_0
  10
587.08679
  20
476.90402
  0
VERTEX
  5
19b
  8
Layer_0
  10
573.08679
  20
476.90402
  0
VERTEX
  5
19c
  8
Layer_0
  10
573.08679
  20
462.90405
  0
VERTEX
  5
19d
  8
Layer_0
  10
587.08679
  20
462.90405
  0
VERTEX
  5
19e
  8
Layer_0
  10
587.08679
  20
476.90402
  0
SEQEND
  0
POLYLINE
  5
1a0
  8
Layer_0
  62
0
  70
1
  66
1
  10
0
  20
0
  30
0
  0
VERTEX
  5
1a0
  8
Layer_0
  10
592.13672
  20
389.20422
  0
VERTEX
  5
1a1
  8
Layer_0
  10
606.13672
  20
389.20422
  0
VERTEX
  5
1a2
  8
Layer_0
  10
606.13672
  20
403.20416
  0
VERTEX
  5
1a3
  8
Layer_0
  10
592.13672
  20
403.20416
  0
VERTEX
  5
1a4
  8
Layer_0
  10
592.13672
  20
389.20422
  0
SEQEND
  0
POLYLINE
  5
1a6
  8
Layer_0
  62
0
  70
1
  66
1
  10
0
  20
0
  30
0
  0
VERTEX
  5
1a6
  8
Layer_0
  10
587.08679
  20
438.80411
  0
VERTEX
  5
1a7
  8
Layer_0
  10
573.08679
  20
438.80411
  0
VERTEX
  5
1a8
  8
Layer_0
  10
573.08679
  20
424.80414
  0
VERTEX
  5
1a9
  8
Layer_0
  10
587.08679
  20
424.80414
  0
VERTEX
  5
1aa
  8
Layer_0
  10
587.08679
  20
438.80411
  0
SEQEND
  0
POLYLINE
  5
1ac
  8
Layer_0
  62
0
  70
1
  66
1
  10
0
  20
0
  30
0
  0
VERTEX
  5
1ac
  8
Layer_0
  10
573.08679
  20
405.8042
  0
VERTEX
  5
1ad
  8
Layer_0
  10
587.08679
  20
405.8042
  0
VERTEX
  5
1ae
  8
Layer_0
  10
587.08679
  20
419.80414
  0
VERTEX
  5
1af
  8
Layer_0
  10
573.08679
  20
419.80414
  0
VERTEX
  5
1b0
  8
Layer_0
  10
573.08679
  20
405.8042
  0
SEQEND
  0
POLYLINE
  5
1b2
  8
Layer_0
  62
0
  70
1
  66
1
  10
0
  20
0
  30
0
  0
VERTEX
  5
1b2
  8
Layer_0
  10
551.41187
  20
409.40417
  0
VERTEX
  5
1b3
  8
Layer_0
  10
551.41187
  20
421.40414
  0
VERTEX
  5
1b4
  8
Layer_0
  10
567.01178
  20
421.40414
  0
VERTEX
  5
1b5
  8
Layer_0
  10
567.01178
  20
409.40417
  0
VERTEX
  5
1b6
  8
Layer_0
  10
551.41187
  20
409.40417
  0
SEQEND
  0
POLYLINE
  5
1b8
  8
Layer_0
  62
0
  70
1
  66
1
  10
0
  20
0
  30
0
  0
VERTEX
  5
1b8
  8
Layer_0
  10
625.18665
  20
481.90402
  0
VERTEX
  5
1b9
  8
Layer_0
  10
611.18671
  20
481.90402
  0
VERTEX
  5
1ba
  8
Layer_0
  10
611.18671
  20
467.90405
  0
VERTEX
  5
1bb
  8
Layer_0
  10
625.18665
  20
467.90405
  0
VERTEX
  5
1bc
  8
Layer_0
  10
625.18665
  20
481.90402
  0
SEQEND
  0
POLYLINE
  5
1be
  8
Layer_0
  62
0
  70
1
  66
1
  10
0
  20
0
  30
0
  0
VERTEX
  5
1be
  8
Layer_0
  10
592.13672
  20
422.20416
  0
VERTEX
  5
1bf
  8
Layer_0
  10
592.13672
  20
408.20416
  0
VERTEX
  5
1c0
  8
Layer_0
  10
606.13672
  20
408.20416
  0
VERTEX
  5
1c1
  8
Layer_0
  10
606.13672
  20
422.20416
  0
VERTEX
  5
1c2
  8
Layer_0
  10
592.13672
  20
422.20416
  0
SEQEND
  0
POLYLINE
  5
1c4
  8
Layer_0
  62
0
  70
1
  66
1
  10
0
  20
0
  30
0
  0
VERTEX
  5
1c4
  8
Layer_0
  10
649.28662
  20
413.25415
  0
VERTEX
  5
1c5
  8
Layer_0
  10
649.28662
  20
399.25421
  0
VERTEX
  5
1c6
  8
Layer_0
  10
663.28662
  20
399.25421
  0
VERTEX
  5
1c7
  8
Layer_0
  10
663.28662
  20
413.25415
  0
VERTEX
  5
1c8
  8
Layer_0
  10
649.28662
  20
413.25415
  0
SEQEND
  0
POLYLINE
  5
1ca
  8
Layer_0
  62
0
  70
1
  66
1
  10
0
  20
0
  30
0
  0
VERTEX
  5
1ca
  8
Layer_0
  10
668.33661
  20
456.40408
  0
VERTEX
  5
1cb
  8
Layer_0
  10
682.33655
  20
456.40408
  0
VERTEX
  5
1cc
  8
Layer_0
  10
682.33655
  20
470.40405
  0
VERTEX
  5
1cd
  8
Layer_0
  10
668.33661
  20
470.40405
  0
VERTEX
  5
1ce
  8
Layer_0
  10
668.33661
  20
456.40408
  0
SEQEND
  0
POLYLINE
  5
1d0
  8
Layer_0
  62
0
  70
1
  66
1
  10
0
  20
0
  30
0
  0
VERTEX
  5
1d0
  8
Layer_0
  10
592.13672
  20
460.30408
  0
VERTEX
  5
1d1
  8
Layer_0
  10
592.13672
  20
446.30408
  0
VERTEX
  5
1d2
  8
Layer_0
  10
606.13672
  20
446.30408
  0
VERTEX
  5
1d3
  8
Layer_0
  10
606.13672
  20
460.30408
  0
VERTEX
  5
1d4
  8
Layer_0
  10
592.13672
  20
460.30408
  0
SEQEND
  0
POLYLINE
  5
1d6
  8
Layer_0
  62
0
  70
1
  66
1
  10
0
  20
0
  30
0
  0
VERTEX
  5
1d6
  8
Layer_0
  10
644.23663
  20
408.20416
  0
VERTEX
  5
1d7
  8
Layer_0
  10
644.23663
  20
422.20416
  0
VERTEX
  5
1d8
  8
Layer_0
  10
630.23669
  20
422.20416
  0
VERTEX
  5
1d9
  8
Layer_0
  10
630.23669
  20
408.20416
  0
VERTEX
  5
1da
  8
Layer_0
  10
644.23663
  20
408.20416
  0
SEQEND
  0
POLYLINE
  5
1dc
  8
Layer_0
  62
0
  70
1
  66
1
  10
0
  20
0
  30
0
  0
VERTEX
  5
1dc
  8
Layer_0
  10
668.33661
  20
413.25415
  0
VERTEX
  5
1dd
  8
Layer_0
  10
668.33661
  20
399.25421
  0
VERTEX
  5
1de
  8
Layer_0
  10
682.33655
  20
399.25421
  0
VERTEX
  5
1df
  8
Layer_0
  10
682.33655
  20
413.25415
  0
VERTEX
  5
1e0
  8
Layer_0
  10
668.33661
  20
413.25415
  0
SEQEND
  0
POLYLINE
  5
1e2
  8
Layer_0
  62
0
  70
1
  66
1
  10
0
  20
0
  30
0
  0
VERTEX
  5
1e2
  8
Layer_0
  10
668.33661
  20
451.35406
  0
VERTEX
  5
1e3
  8
Layer_0
  10
668.33661
  20
437.35413
  0
VERTEX
  5
1e4
  8
Layer_0
  10
682.33655
  20
437.35413
  0
VERTEX
  5
1e5
  8
Layer_0
  10
682.33655
  20
451.35406
  0
VERTEX
  5
1e6
  8
Layer_0
  10
668.33661
  20
451.35406
  0
SEQEND
  0
POLYLINE
  5
1e8
  8
Layer_0
  62
0
  70
1
  66
1
  10
0
  20
0
  30
0
  0
VERTEX
  5
1e8
  8
Layer_0
  10
668.33661
  20
432.30414
  0
VERTEX
  5
1e9
  8
Layer_0
  10
668.33661
  20
418.30414
  0
VERTEX
  5
1ea
  8
Layer_0
  10
682.33655
  20
418.30414
  0
VERTEX
  5
1eb
  8
Layer_0
  10
682.33655
  20
432.30414
  0
VERTEX
  5
1ec
  8
Layer_0
  10
668.33661
  20
432.30414
  0
SEQEND
  0
POLYLINE
  5
1ee
  8
Layer_0
  62
0
  70
1
  66
1
  10
0
  20
0
  30
0
  0
VERTEX
  5
1ee
  8
Layer_0
  10
606.13672
  20
441.30411
  0
VERTEX
  5
1ef
  8
Layer_0
  10
592.13672
  20
441.30411
  0
VERTEX
  5
1f0
  8
Layer_0
  10
592.13672
  20
427.30414
  0
VERTEX
  5
1f1
  8
Layer_0
  10
606.13672
  20
427.30414
  0
VERTEX
  5
1f2
  8
Layer_0
  10
606.13672
  20
441.30411
  0
SEQEND
  0
POLYLINE
  5
1f4
  8
Layer_0
  62
0
  70
1
  66
1
  10
0
  20
0
  30
0
  0
VERTEX
  5
1f4
  8
Layer_0
  10
585.75995
  20
386.55447
  0
VERTEX
  5
1f5
  8
Layer_0
  10
582.13654
  20
400.07739
  0
VERTEX
  5
1f6
  8
Layer_0
  10
568.61359
  20
396.45395
  0
VERTEX
  5
1f7
  8
Layer_0
  10
572.23706
  20
382.93103
  0
VERTEX
  5
1f8
  8
Layer_0
  10
585.75995
  20
386.55447
  0
SEQEND
  0
POLYLINE
  5
1fa
  8
Layer_0
  62
0
  70
1
  66
1
  10
0
  20
0
  30
0
  0
VERTEX
  5
1fa
  8
Layer_0
  10
625.18665
  20
410.71417
  0
VERTEX
  5
1fb
  8
Layer_0
  10
625.18665
  20
424.71414
  0
VERTEX
  5
1fc
  8
Layer_0
  10
611.18671
  20
424.71414
  0
VERTEX
  5
1fd
  8
Layer_0
  10
611.18671
  20
410.71417
  0
VERTEX
  5
1fe
  8
Layer_0
  10
625.18665
  20
410.71417
  0
SEQEND
  0
POLYLINE
  5
200
  8
Layer_0
  62
0
  70
1
  66
1
  10
0
  20
0
  30
0
  0
VERTEX
  5
200
  8
Layer_0
  10
625.18665
  20
405.6142
  0
VERTEX
  5
201
  8
Layer_0
  10
611.18671
  20
405.6142
  0
VERTEX
  5
202
  8
Layer_0
  10
611.18671
  20
391.6142
  0
VERTEX
  5
203
  8
Layer_0
  10
625.18665
  20
391.6142
  0
VERTEX
  5
204
  8
Layer_0
  10
625.18665
  20
405.6142
  0
SEQEND
  0
POLYLINE
  5
206
  8
Layer_0
  62
0
  70
1
  66
1
  10
0
  20
0
  30
0
  0
VERTEX
  5
206
  8
Layer_0
  10
611.18671
  20
429.71411
  0
VERTEX
  5
207
  8
Layer_0
  10
625.18665
  20
429.71411
  0
VERTEX
  5
208
  8
Layer_0
  10
625.18665
  20
443.71411
  0
VERTEX
  5
209
  8
Layer_0
  10
611.18671
  20
443.71411
  0
VERTEX
  5
20a
  8
Layer_0
  10
611.18671
  20
429.71411
  0
SEQEND
  0
POLYLINE
  5
20c
  8
Layer_0
  62
0
  70
1
  66
1
  10
0
  20
0
  30
0
  0
VERTEX
  5
20c
  8
Layer_0
  10
663.28662
  20
470.40405
  0
VERTEX
  5
20d
  8
Layer_0
  10
649.28662
  20
470.40405
  0
VERTEX
  5
20e
  8
Layer_0
  10
649.28662
  20
456.40408
  0
VERTEX
  5
20f
  8
Layer_0
  10
663.28662
  20
456.40408
  0
VERTEX
  5
210
  8
Layer_0
  10
663.28662
  20
470.40405
  0
SEQEND
  0
POLYLINE
  5
212
  8
Layer_0
  62
0
  70
1
  66
1
  10
0
  20
0
  30
0
  0
VERTEX
  5
212
  8
Layer_0
  10
630.23669
  20
427.30414
  0
VERTEX
  5
213
  8
Layer_0
  10
644.23663
  20
427.30414
  0
VERTEX
  5
214
  8
Layer_0
  10
644.23663
  20
441.30411
  0
VERTEX
  5
215
  8
Layer_0
  10
630.23669
  20
441.30411
  0
VERTEX
  5
216
  8
Layer_0
  10
630.23669
  20
427.30414
  0
SEQEND
  0
POLYLINE
  5
218
  8
Layer_0
  62
0
  70
1
  66
1
  10
0
  20
0
  30
0
  0
VERTEX
  5
218
  8
Layer_0
  10
644.23663
  20
389.10422
  0
VERTEX
  5
219
  8
Layer_0
  10
644.23663
  20
403.10419
  0
VERTEX
  5
21a
  8
Layer_0
  10
630.23669
  20
403.10419
  0
VERTEX
  5
21b
  8
Layer_0
  10
630.23669
  20
389.10422
  0
VERTEX
  5
21c
  8
Layer_0
  10
644.23663
  20
389.10422
  0
SEQEND
  0
ENDSEC
  0
EOF
